M48
; DRILL file {KiCad 8.0.1} date 2024-03-22T19:39:56+0100
; FORMAT={-:-/ absolute / metric / decimal}
; #@! TF.CreationDate,2024-03-22T19:39:56+01:00
; #@! TF.GenerationSoftware,Kicad,Pcbnew,8.0.1
; #@! TF.FileFunction,Plated,1,2,PTH
FMAT,2
METRIC
; #@! TA.AperFunction,Plated,PTH,ViaDrill
T1C0.400
; #@! TA.AperFunction,Plated,PTH,ComponentDrill
T2C0.800
; #@! TA.AperFunction,Plated,PTH,ComponentDrill
T3C0.900
; #@! TA.AperFunction,Plated,PTH,ComponentDrill
T4C1.000
; #@! TA.AperFunction,Plated,PTH,ComponentDrill
T5C1.320
%
G90
G05
T1
X47.5Y-129.5
X50.0Y-132.0
X50.0Y-134.5
X50.0Y-137.0
X50.0Y-140.0
X50.0Y-145.0
X50.0Y-149.0
X53.5Y-132.0
X53.5Y-134.5
X53.5Y-137.0
X55.0Y-140.0
X55.0Y-145.0
X55.0Y-149.0
X58.96Y-134.54
X59.0Y-129.5
X59.0Y-132.0
X59.0Y-137.08
X60.0Y-140.0
X60.0Y-145.0
X60.0Y-149.0
X62.5Y-127.5
X65.0Y-140.0
X65.0Y-149.0
X68.5Y-121.0
X70.0Y-95.0
X70.0Y-100.0
X70.0Y-105.0
X70.0Y-110.0
X70.0Y-115.0
X70.0Y-118.0
X70.0Y-122.5
X70.0Y-134.5
X70.0Y-137.0
X70.0Y-140.0
X70.0Y-149.0
X71.0Y-91.0
X71.0Y-123.5
X72.0Y-124.5
X73.0Y-125.5
X75.0Y-102.0
X75.0Y-112.5
X75.0Y-115.0
X75.0Y-118.0
X75.0Y-127.0
X75.0Y-140.0
X75.0Y-145.0
X75.0Y-149.0
X77.0Y-91.0
X78.0Y-95.0
X78.0Y-100.0
X80.0Y-104.5
X80.0Y-107.0
X80.0Y-110.0
X80.0Y-112.5
X80.0Y-115.0
X80.0Y-118.0
X80.0Y-126.0
X80.0Y-130.0
X80.0Y-140.0
X80.0Y-145.0
X80.0Y-149.0
X85.0Y-104.5
X85.0Y-107.0
X85.0Y-110.0
X85.0Y-112.5
X85.0Y-115.0
X85.0Y-118.0
X85.0Y-126.0
X85.0Y-130.0
X85.0Y-140.0
X85.0Y-145.0
X85.0Y-149.0
X90.0Y-104.5
X90.0Y-107.0
X90.0Y-110.0
X90.0Y-112.5
X90.0Y-115.0
X90.0Y-118.0
X90.0Y-126.0
X90.0Y-130.0
X90.0Y-140.0
X90.0Y-145.0
X90.0Y-149.0
X95.0Y-104.5
X95.0Y-107.0
X95.0Y-110.0
X95.0Y-126.0
X95.0Y-130.0
X95.0Y-140.0
X95.0Y-145.0
X95.0Y-149.0
X100.0Y-104.5
X100.0Y-107.0
X100.0Y-110.0
X100.0Y-112.5
X100.0Y-126.0
X100.0Y-130.0
X100.0Y-135.0
X100.0Y-140.0
X100.0Y-145.0
X100.0Y-149.0
X101.5Y-114.5
X105.0Y-104.5
X105.0Y-107.0
X105.0Y-110.0
X105.0Y-112.5
X105.0Y-114.5
X105.0Y-126.0
X105.0Y-130.0
X105.0Y-135.0
X105.0Y-140.0
X105.0Y-145.0
X105.0Y-149.0
X109.0Y-107.0
X109.0Y-114.5
X109.39Y-111.257
X110.0Y-126.0
X110.0Y-130.0
X110.0Y-135.0
X110.0Y-140.0
X110.0Y-145.0
X110.0Y-149.0
X112.0Y-110.0
X114.5Y-112.5
X115.0Y-126.0
X115.0Y-130.0
X115.0Y-135.0
X115.0Y-149.0
X116.5Y-114.5
X120.0Y-114.5
X120.0Y-126.0
X120.0Y-130.0
X120.0Y-135.0
X120.0Y-149.0
X124.5Y-125.0
X125.0Y-114.5
X125.0Y-120.0
X125.0Y-130.0
X125.0Y-135.0
X125.0Y-145.0
X125.0Y-149.0
X125.5Y-140.0
X130.0Y-114.5
X130.0Y-120.0
X130.0Y-125.0
X130.0Y-130.0
X130.0Y-135.0
X130.0Y-140.0
X130.0Y-145.0
X130.0Y-149.0
X135.0Y-114.5
X135.0Y-120.0
X135.0Y-125.0
X135.0Y-130.0
X135.0Y-135.0
X135.0Y-140.0
X135.0Y-145.0
X135.0Y-149.0
T2
X63.0Y-145.0
X65.0Y-145.0
X67.0Y-145.0
X69.0Y-145.0
X113.0Y-145.0
X115.0Y-145.0
X117.0Y-145.0
X119.0Y-145.0
T3
X53.0Y-73.0
X53.0Y-77.0
X53.0Y-81.0
T4
X73.872Y-91.364
X73.872Y-93.904
X73.872Y-96.444
X73.872Y-98.984
X75.975Y-136.611
X78.515Y-136.611
X95.98Y-116.861
X95.98Y-137.181
X98.52Y-116.861
X98.52Y-137.181
X101.06Y-116.861
X101.06Y-137.181
X103.6Y-116.861
X103.6Y-137.181
X106.14Y-116.861
X106.14Y-137.181
X108.68Y-116.861
X108.68Y-137.181
X111.22Y-116.861
X111.22Y-137.181
X113.76Y-116.861
X113.76Y-137.181
X116.3Y-116.861
X116.3Y-137.181
X118.84Y-116.861
X118.84Y-137.181
X121.38Y-116.861
X121.38Y-137.181
X123.92Y-116.861
X123.92Y-137.181
X126.46Y-116.861
X126.46Y-137.181
X129.0Y-116.861
X129.0Y-137.181
T5
X64.78Y-52.475
X64.78Y-75.475
X137.0Y-52.475
X137.0Y-75.475
M30
