%TF.GenerationSoftware,KiCad,Pcbnew,8.0.1*%
%TF.CreationDate,2024-03-22T19:40:02+01:00*%
%TF.ProjectId,BikeCounter_SingleBoard,42696b65-436f-4756-9e74-65725f53696e,rev?*%
%TF.SameCoordinates,Original*%
%TF.FileFunction,Drillmap*%
%TF.FilePolarity,Positive*%
%FSLAX45Y45*%
G04 Gerber Fmt 4.5, Leading zero omitted, Abs format (unit mm)*
G04 Created by KiCad (PCBNEW 8.0.1) date 2024-03-22 19:40:02*
%MOMM*%
%LPD*%
G01*
G04 APERTURE LIST*
%ADD10C,0.050000*%
%ADD11C,0.200000*%
%ADD12C,0.140000*%
%ADD13C,0.238000*%
%ADD14C,0.318000*%
%ADD15C,0.355000*%
%ADD16C,0.430000*%
G04 APERTURE END LIST*
D10*
X3000000Y-13952500D02*
X3000000Y-10052500D01*
X3700000Y-14252500D02*
X3300000Y-14252500D01*
X3300000Y-14252500D02*
G75*
G02*
X3000000Y-13952500I0J300000D01*
G01*
X14200000Y-4252500D02*
X14200000Y-5552500D01*
X4300000Y-16152500D02*
G75*
G02*
X4000000Y-15852500I0J300000D01*
G01*
X3000000Y-6152500D02*
G75*
G02*
X3300000Y-5852500I300000J0D01*
G01*
X15200000Y-13952500D02*
G75*
G02*
X14900000Y-14252500I-300000J0D01*
G01*
X14200000Y-15852500D02*
X14200000Y-14552500D01*
X14500000Y-5852500D02*
X14900000Y-5852500D01*
X14900000Y-5852500D02*
G75*
G02*
X15200000Y-6152500I0J-300000D01*
G01*
X3700000Y-5852500D02*
X3300000Y-5852500D01*
X3000000Y-6152500D02*
X3000000Y-10052500D01*
X15200000Y-6152500D02*
X15200000Y-10052500D01*
X4000000Y-5552500D02*
G75*
G02*
X3700000Y-5852500I-300000J0D01*
G01*
X14200000Y-15852500D02*
G75*
G02*
X13900000Y-16152500I-300000J0D01*
G01*
X4300000Y-16152500D02*
X9100000Y-16152500D01*
X13900000Y-3952500D02*
G75*
G02*
X14200000Y-4252500I0J-300000D01*
G01*
X4000000Y-4252500D02*
G75*
G02*
X4300000Y-3952500I300000J0D01*
G01*
X14500000Y-14252500D02*
X14900000Y-14252500D01*
X14200000Y-14552500D02*
G75*
G02*
X14500000Y-14252500I300000J0D01*
G01*
X4000000Y-15852500D02*
X4000000Y-14552500D01*
X13900000Y-3952500D02*
X9100000Y-3952500D01*
X4000000Y-4252500D02*
X4000000Y-5552500D01*
X15200000Y-13952500D02*
X15200000Y-10052500D01*
X14500000Y-5852500D02*
G75*
G02*
X14200000Y-5552500I0J300000D01*
G01*
X4300000Y-3952500D02*
X9100000Y-3952500D01*
X13900000Y-16152500D02*
X9100000Y-16152500D01*
X3700000Y-14252500D02*
G75*
G02*
X4000000Y-14552500I0J-300000D01*
G01*
D11*
D12*
X5030000Y-8380000D02*
X5170000Y-8520000D01*
X5170000Y-8380000D02*
X5030000Y-8520000D01*
X5650000Y-6880000D02*
X5790000Y-7020000D01*
X5790000Y-6880000D02*
X5650000Y-7020000D01*
D13*
X6597000Y-4460500D02*
G75*
G02*
X6359000Y-4460500I-119000J0D01*
G01*
X6359000Y-4460500D02*
G75*
G02*
X6597000Y-4460500I119000J0D01*
G01*
X6597000Y-6760500D02*
G75*
G02*
X6359000Y-6760500I-119000J0D01*
G01*
X6359000Y-6760500D02*
G75*
G02*
X6597000Y-6760500I119000J0D01*
G01*
D14*
X7298000Y-5875500D02*
X7298000Y-6193500D01*
X7139000Y-6034500D02*
X7457000Y-6034500D01*
X7298000Y-8175500D02*
X7298000Y-8493500D01*
X7139000Y-8334500D02*
X7457000Y-8334500D01*
D15*
X12943513Y-4586013D02*
X12943513Y-4334987D01*
X12692487Y-4334987D01*
X12692487Y-4586013D01*
X12943513Y-4586013D01*
X12943513Y-6886013D02*
X12943513Y-6634987D01*
X12692487Y-6634987D01*
X12692487Y-6886013D01*
X12943513Y-6886013D01*
D16*
X3506500Y-7471000D02*
X3721500Y-7256000D01*
X3506500Y-7041000D01*
X3291500Y-7256000D01*
X3506500Y-7471000D01*
X3506500Y-13064000D02*
X3721500Y-12849000D01*
X3506500Y-12634000D01*
X3291500Y-12849000D01*
X3506500Y-13064000D01*
X14693500Y-7471000D02*
X14908500Y-7256000D01*
X14693500Y-7041000D01*
X14478500Y-7256000D01*
X14693500Y-7471000D01*
X14693500Y-13064000D02*
X14908500Y-12849000D01*
X14693500Y-12634000D01*
X14478500Y-12849000D01*
X14693500Y-13064000D01*
D11*
X3258277Y-16466484D02*
X3258277Y-16266484D01*
X3258277Y-16266484D02*
X3305896Y-16266484D01*
X3305896Y-16266484D02*
X3334467Y-16276008D01*
X3334467Y-16276008D02*
X3353515Y-16295055D01*
X3353515Y-16295055D02*
X3363039Y-16314103D01*
X3363039Y-16314103D02*
X3372562Y-16352198D01*
X3372562Y-16352198D02*
X3372562Y-16380769D01*
X3372562Y-16380769D02*
X3363039Y-16418865D01*
X3363039Y-16418865D02*
X3353515Y-16437912D01*
X3353515Y-16437912D02*
X3334467Y-16456960D01*
X3334467Y-16456960D02*
X3305896Y-16466484D01*
X3305896Y-16466484D02*
X3258277Y-16466484D01*
X3458277Y-16466484D02*
X3458277Y-16333150D01*
X3458277Y-16371246D02*
X3467801Y-16352198D01*
X3467801Y-16352198D02*
X3477324Y-16342674D01*
X3477324Y-16342674D02*
X3496372Y-16333150D01*
X3496372Y-16333150D02*
X3515420Y-16333150D01*
X3582086Y-16466484D02*
X3582086Y-16333150D01*
X3582086Y-16266484D02*
X3572562Y-16276008D01*
X3572562Y-16276008D02*
X3582086Y-16285531D01*
X3582086Y-16285531D02*
X3591610Y-16276008D01*
X3591610Y-16276008D02*
X3582086Y-16266484D01*
X3582086Y-16266484D02*
X3582086Y-16285531D01*
X3705896Y-16466484D02*
X3686848Y-16456960D01*
X3686848Y-16456960D02*
X3677324Y-16437912D01*
X3677324Y-16437912D02*
X3677324Y-16266484D01*
X3810658Y-16466484D02*
X3791610Y-16456960D01*
X3791610Y-16456960D02*
X3782086Y-16437912D01*
X3782086Y-16437912D02*
X3782086Y-16266484D01*
X4039229Y-16466484D02*
X4039229Y-16266484D01*
X4039229Y-16266484D02*
X4105896Y-16409341D01*
X4105896Y-16409341D02*
X4172562Y-16266484D01*
X4172562Y-16266484D02*
X4172562Y-16466484D01*
X4353515Y-16466484D02*
X4353515Y-16361722D01*
X4353515Y-16361722D02*
X4343991Y-16342674D01*
X4343991Y-16342674D02*
X4324944Y-16333150D01*
X4324944Y-16333150D02*
X4286848Y-16333150D01*
X4286848Y-16333150D02*
X4267801Y-16342674D01*
X4353515Y-16456960D02*
X4334467Y-16466484D01*
X4334467Y-16466484D02*
X4286848Y-16466484D01*
X4286848Y-16466484D02*
X4267801Y-16456960D01*
X4267801Y-16456960D02*
X4258277Y-16437912D01*
X4258277Y-16437912D02*
X4258277Y-16418865D01*
X4258277Y-16418865D02*
X4267801Y-16399817D01*
X4267801Y-16399817D02*
X4286848Y-16390293D01*
X4286848Y-16390293D02*
X4334467Y-16390293D01*
X4334467Y-16390293D02*
X4353515Y-16380769D01*
X4448753Y-16333150D02*
X4448753Y-16533150D01*
X4448753Y-16342674D02*
X4467801Y-16333150D01*
X4467801Y-16333150D02*
X4505896Y-16333150D01*
X4505896Y-16333150D02*
X4524944Y-16342674D01*
X4524944Y-16342674D02*
X4534467Y-16352198D01*
X4534467Y-16352198D02*
X4543991Y-16371246D01*
X4543991Y-16371246D02*
X4543991Y-16428388D01*
X4543991Y-16428388D02*
X4534467Y-16447436D01*
X4534467Y-16447436D02*
X4524944Y-16456960D01*
X4524944Y-16456960D02*
X4505896Y-16466484D01*
X4505896Y-16466484D02*
X4467801Y-16466484D01*
X4467801Y-16466484D02*
X4448753Y-16456960D01*
X4629705Y-16447436D02*
X4639229Y-16456960D01*
X4639229Y-16456960D02*
X4629705Y-16466484D01*
X4629705Y-16466484D02*
X4620182Y-16456960D01*
X4620182Y-16456960D02*
X4629705Y-16447436D01*
X4629705Y-16447436D02*
X4629705Y-16466484D01*
X4629705Y-16342674D02*
X4639229Y-16352198D01*
X4639229Y-16352198D02*
X4629705Y-16361722D01*
X4629705Y-16361722D02*
X4620182Y-16352198D01*
X4620182Y-16352198D02*
X4629705Y-16342674D01*
X4629705Y-16342674D02*
X4629705Y-16361722D01*
D12*
X2857500Y-16725000D02*
X2997500Y-16865000D01*
X2997500Y-16725000D02*
X2857500Y-16865000D01*
D11*
X3363039Y-16886484D02*
X3248753Y-16886484D01*
X3305896Y-16886484D02*
X3305896Y-16686484D01*
X3305896Y-16686484D02*
X3286848Y-16715055D01*
X3286848Y-16715055D02*
X3267801Y-16734103D01*
X3267801Y-16734103D02*
X3248753Y-16743627D01*
X3448753Y-16867436D02*
X3458277Y-16876960D01*
X3458277Y-16876960D02*
X3448753Y-16886484D01*
X3448753Y-16886484D02*
X3439229Y-16876960D01*
X3439229Y-16876960D02*
X3448753Y-16867436D01*
X3448753Y-16867436D02*
X3448753Y-16886484D01*
X3629705Y-16753150D02*
X3629705Y-16886484D01*
X3582086Y-16676960D02*
X3534467Y-16819817D01*
X3534467Y-16819817D02*
X3658277Y-16819817D01*
X3772562Y-16686484D02*
X3791610Y-16686484D01*
X3791610Y-16686484D02*
X3810658Y-16696008D01*
X3810658Y-16696008D02*
X3820182Y-16705531D01*
X3820182Y-16705531D02*
X3829705Y-16724579D01*
X3829705Y-16724579D02*
X3839229Y-16762674D01*
X3839229Y-16762674D02*
X3839229Y-16810293D01*
X3839229Y-16810293D02*
X3829705Y-16848389D01*
X3829705Y-16848389D02*
X3820182Y-16867436D01*
X3820182Y-16867436D02*
X3810658Y-16876960D01*
X3810658Y-16876960D02*
X3791610Y-16886484D01*
X3791610Y-16886484D02*
X3772562Y-16886484D01*
X3772562Y-16886484D02*
X3753515Y-16876960D01*
X3753515Y-16876960D02*
X3743991Y-16867436D01*
X3743991Y-16867436D02*
X3734467Y-16848389D01*
X3734467Y-16848389D02*
X3724943Y-16810293D01*
X3724943Y-16810293D02*
X3724943Y-16762674D01*
X3724943Y-16762674D02*
X3734467Y-16724579D01*
X3734467Y-16724579D02*
X3743991Y-16705531D01*
X3743991Y-16705531D02*
X3753515Y-16696008D01*
X3753515Y-16696008D02*
X3772562Y-16686484D01*
X3963039Y-16686484D02*
X3982086Y-16686484D01*
X3982086Y-16686484D02*
X4001134Y-16696008D01*
X4001134Y-16696008D02*
X4010658Y-16705531D01*
X4010658Y-16705531D02*
X4020182Y-16724579D01*
X4020182Y-16724579D02*
X4029705Y-16762674D01*
X4029705Y-16762674D02*
X4029705Y-16810293D01*
X4029705Y-16810293D02*
X4020182Y-16848389D01*
X4020182Y-16848389D02*
X4010658Y-16867436D01*
X4010658Y-16867436D02*
X4001134Y-16876960D01*
X4001134Y-16876960D02*
X3982086Y-16886484D01*
X3982086Y-16886484D02*
X3963039Y-16886484D01*
X3963039Y-16886484D02*
X3943991Y-16876960D01*
X3943991Y-16876960D02*
X3934467Y-16867436D01*
X3934467Y-16867436D02*
X3924943Y-16848389D01*
X3924943Y-16848389D02*
X3915420Y-16810293D01*
X3915420Y-16810293D02*
X3915420Y-16762674D01*
X3915420Y-16762674D02*
X3924943Y-16724579D01*
X3924943Y-16724579D02*
X3934467Y-16705531D01*
X3934467Y-16705531D02*
X3943991Y-16696008D01*
X3943991Y-16696008D02*
X3963039Y-16686484D01*
X4115420Y-16886484D02*
X4115420Y-16753150D01*
X4115420Y-16772198D02*
X4124943Y-16762674D01*
X4124943Y-16762674D02*
X4143991Y-16753150D01*
X4143991Y-16753150D02*
X4172563Y-16753150D01*
X4172563Y-16753150D02*
X4191610Y-16762674D01*
X4191610Y-16762674D02*
X4201134Y-16781722D01*
X4201134Y-16781722D02*
X4201134Y-16886484D01*
X4201134Y-16781722D02*
X4210658Y-16762674D01*
X4210658Y-16762674D02*
X4229705Y-16753150D01*
X4229705Y-16753150D02*
X4258277Y-16753150D01*
X4258277Y-16753150D02*
X4277325Y-16762674D01*
X4277325Y-16762674D02*
X4286848Y-16781722D01*
X4286848Y-16781722D02*
X4286848Y-16886484D01*
X4382086Y-16886484D02*
X4382086Y-16753150D01*
X4382086Y-16772198D02*
X4391610Y-16762674D01*
X4391610Y-16762674D02*
X4410658Y-16753150D01*
X4410658Y-16753150D02*
X4439229Y-16753150D01*
X4439229Y-16753150D02*
X4458277Y-16762674D01*
X4458277Y-16762674D02*
X4467801Y-16781722D01*
X4467801Y-16781722D02*
X4467801Y-16886484D01*
X4467801Y-16781722D02*
X4477325Y-16762674D01*
X4477325Y-16762674D02*
X4496372Y-16753150D01*
X4496372Y-16753150D02*
X4524944Y-16753150D01*
X4524944Y-16753150D02*
X4543991Y-16762674D01*
X4543991Y-16762674D02*
X4553515Y-16781722D01*
X4553515Y-16781722D02*
X4553515Y-16886484D01*
X4943991Y-16676960D02*
X4772563Y-16934103D01*
X5201134Y-16686484D02*
X5220182Y-16686484D01*
X5220182Y-16686484D02*
X5239229Y-16696008D01*
X5239229Y-16696008D02*
X5248753Y-16705531D01*
X5248753Y-16705531D02*
X5258277Y-16724579D01*
X5258277Y-16724579D02*
X5267801Y-16762674D01*
X5267801Y-16762674D02*
X5267801Y-16810293D01*
X5267801Y-16810293D02*
X5258277Y-16848389D01*
X5258277Y-16848389D02*
X5248753Y-16867436D01*
X5248753Y-16867436D02*
X5239229Y-16876960D01*
X5239229Y-16876960D02*
X5220182Y-16886484D01*
X5220182Y-16886484D02*
X5201134Y-16886484D01*
X5201134Y-16886484D02*
X5182087Y-16876960D01*
X5182087Y-16876960D02*
X5172563Y-16867436D01*
X5172563Y-16867436D02*
X5163039Y-16848389D01*
X5163039Y-16848389D02*
X5153515Y-16810293D01*
X5153515Y-16810293D02*
X5153515Y-16762674D01*
X5153515Y-16762674D02*
X5163039Y-16724579D01*
X5163039Y-16724579D02*
X5172563Y-16705531D01*
X5172563Y-16705531D02*
X5182087Y-16696008D01*
X5182087Y-16696008D02*
X5201134Y-16686484D01*
X5353515Y-16867436D02*
X5363039Y-16876960D01*
X5363039Y-16876960D02*
X5353515Y-16886484D01*
X5353515Y-16886484D02*
X5343991Y-16876960D01*
X5343991Y-16876960D02*
X5353515Y-16867436D01*
X5353515Y-16867436D02*
X5353515Y-16886484D01*
X5486848Y-16686484D02*
X5505896Y-16686484D01*
X5505896Y-16686484D02*
X5524944Y-16696008D01*
X5524944Y-16696008D02*
X5534468Y-16705531D01*
X5534468Y-16705531D02*
X5543991Y-16724579D01*
X5543991Y-16724579D02*
X5553515Y-16762674D01*
X5553515Y-16762674D02*
X5553515Y-16810293D01*
X5553515Y-16810293D02*
X5543991Y-16848389D01*
X5543991Y-16848389D02*
X5534468Y-16867436D01*
X5534468Y-16867436D02*
X5524944Y-16876960D01*
X5524944Y-16876960D02*
X5505896Y-16886484D01*
X5505896Y-16886484D02*
X5486848Y-16886484D01*
X5486848Y-16886484D02*
X5467801Y-16876960D01*
X5467801Y-16876960D02*
X5458277Y-16867436D01*
X5458277Y-16867436D02*
X5448753Y-16848389D01*
X5448753Y-16848389D02*
X5439229Y-16810293D01*
X5439229Y-16810293D02*
X5439229Y-16762674D01*
X5439229Y-16762674D02*
X5448753Y-16724579D01*
X5448753Y-16724579D02*
X5458277Y-16705531D01*
X5458277Y-16705531D02*
X5467801Y-16696008D01*
X5467801Y-16696008D02*
X5486848Y-16686484D01*
X5734467Y-16686484D02*
X5639229Y-16686484D01*
X5639229Y-16686484D02*
X5629706Y-16781722D01*
X5629706Y-16781722D02*
X5639229Y-16772198D01*
X5639229Y-16772198D02*
X5658277Y-16762674D01*
X5658277Y-16762674D02*
X5705896Y-16762674D01*
X5705896Y-16762674D02*
X5724944Y-16772198D01*
X5724944Y-16772198D02*
X5734467Y-16781722D01*
X5734467Y-16781722D02*
X5743991Y-16800770D01*
X5743991Y-16800770D02*
X5743991Y-16848389D01*
X5743991Y-16848389D02*
X5734467Y-16867436D01*
X5734467Y-16867436D02*
X5724944Y-16876960D01*
X5724944Y-16876960D02*
X5705896Y-16886484D01*
X5705896Y-16886484D02*
X5658277Y-16886484D01*
X5658277Y-16886484D02*
X5639229Y-16876960D01*
X5639229Y-16876960D02*
X5629706Y-16867436D01*
X5924944Y-16686484D02*
X5829706Y-16686484D01*
X5829706Y-16686484D02*
X5820182Y-16781722D01*
X5820182Y-16781722D02*
X5829706Y-16772198D01*
X5829706Y-16772198D02*
X5848753Y-16762674D01*
X5848753Y-16762674D02*
X5896372Y-16762674D01*
X5896372Y-16762674D02*
X5915420Y-16772198D01*
X5915420Y-16772198D02*
X5924944Y-16781722D01*
X5924944Y-16781722D02*
X5934467Y-16800770D01*
X5934467Y-16800770D02*
X5934467Y-16848389D01*
X5934467Y-16848389D02*
X5924944Y-16867436D01*
X5924944Y-16867436D02*
X5915420Y-16876960D01*
X5915420Y-16876960D02*
X5896372Y-16886484D01*
X5896372Y-16886484D02*
X5848753Y-16886484D01*
X5848753Y-16886484D02*
X5829706Y-16876960D01*
X5829706Y-16876960D02*
X5820182Y-16867436D01*
X6124944Y-16886484D02*
X6010658Y-16886484D01*
X6067801Y-16886484D02*
X6067801Y-16686484D01*
X6067801Y-16686484D02*
X6048753Y-16715055D01*
X6048753Y-16715055D02*
X6029706Y-16734103D01*
X6029706Y-16734103D02*
X6010658Y-16743627D01*
X6201134Y-16686484D02*
X6201134Y-16724579D01*
X6277325Y-16686484D02*
X6277325Y-16724579D01*
X6572563Y-16962674D02*
X6563039Y-16953150D01*
X6563039Y-16953150D02*
X6543991Y-16924579D01*
X6543991Y-16924579D02*
X6534468Y-16905531D01*
X6534468Y-16905531D02*
X6524944Y-16876960D01*
X6524944Y-16876960D02*
X6515420Y-16829341D01*
X6515420Y-16829341D02*
X6515420Y-16791246D01*
X6515420Y-16791246D02*
X6524944Y-16743627D01*
X6524944Y-16743627D02*
X6534468Y-16715055D01*
X6534468Y-16715055D02*
X6543991Y-16696008D01*
X6543991Y-16696008D02*
X6563039Y-16667436D01*
X6563039Y-16667436D02*
X6572563Y-16657912D01*
X6639229Y-16705531D02*
X6648753Y-16696008D01*
X6648753Y-16696008D02*
X6667801Y-16686484D01*
X6667801Y-16686484D02*
X6715420Y-16686484D01*
X6715420Y-16686484D02*
X6734468Y-16696008D01*
X6734468Y-16696008D02*
X6743991Y-16705531D01*
X6743991Y-16705531D02*
X6753515Y-16724579D01*
X6753515Y-16724579D02*
X6753515Y-16743627D01*
X6753515Y-16743627D02*
X6743991Y-16772198D01*
X6743991Y-16772198D02*
X6629706Y-16886484D01*
X6629706Y-16886484D02*
X6753515Y-16886484D01*
X6991610Y-16886484D02*
X6991610Y-16686484D01*
X7077325Y-16886484D02*
X7077325Y-16781722D01*
X7077325Y-16781722D02*
X7067801Y-16762674D01*
X7067801Y-16762674D02*
X7048753Y-16753150D01*
X7048753Y-16753150D02*
X7020182Y-16753150D01*
X7020182Y-16753150D02*
X7001134Y-16762674D01*
X7001134Y-16762674D02*
X6991610Y-16772198D01*
X7201134Y-16886484D02*
X7182087Y-16876960D01*
X7182087Y-16876960D02*
X7172563Y-16867436D01*
X7172563Y-16867436D02*
X7163039Y-16848389D01*
X7163039Y-16848389D02*
X7163039Y-16791246D01*
X7163039Y-16791246D02*
X7172563Y-16772198D01*
X7172563Y-16772198D02*
X7182087Y-16762674D01*
X7182087Y-16762674D02*
X7201134Y-16753150D01*
X7201134Y-16753150D02*
X7229706Y-16753150D01*
X7229706Y-16753150D02*
X7248753Y-16762674D01*
X7248753Y-16762674D02*
X7258277Y-16772198D01*
X7258277Y-16772198D02*
X7267801Y-16791246D01*
X7267801Y-16791246D02*
X7267801Y-16848389D01*
X7267801Y-16848389D02*
X7258277Y-16867436D01*
X7258277Y-16867436D02*
X7248753Y-16876960D01*
X7248753Y-16876960D02*
X7229706Y-16886484D01*
X7229706Y-16886484D02*
X7201134Y-16886484D01*
X7382087Y-16886484D02*
X7363039Y-16876960D01*
X7363039Y-16876960D02*
X7353515Y-16857912D01*
X7353515Y-16857912D02*
X7353515Y-16686484D01*
X7534468Y-16876960D02*
X7515420Y-16886484D01*
X7515420Y-16886484D02*
X7477325Y-16886484D01*
X7477325Y-16886484D02*
X7458277Y-16876960D01*
X7458277Y-16876960D02*
X7448753Y-16857912D01*
X7448753Y-16857912D02*
X7448753Y-16781722D01*
X7448753Y-16781722D02*
X7458277Y-16762674D01*
X7458277Y-16762674D02*
X7477325Y-16753150D01*
X7477325Y-16753150D02*
X7515420Y-16753150D01*
X7515420Y-16753150D02*
X7534468Y-16762674D01*
X7534468Y-16762674D02*
X7543991Y-16781722D01*
X7543991Y-16781722D02*
X7543991Y-16800770D01*
X7543991Y-16800770D02*
X7448753Y-16819817D01*
X7620182Y-16876960D02*
X7639230Y-16886484D01*
X7639230Y-16886484D02*
X7677325Y-16886484D01*
X7677325Y-16886484D02*
X7696372Y-16876960D01*
X7696372Y-16876960D02*
X7705896Y-16857912D01*
X7705896Y-16857912D02*
X7705896Y-16848389D01*
X7705896Y-16848389D02*
X7696372Y-16829341D01*
X7696372Y-16829341D02*
X7677325Y-16819817D01*
X7677325Y-16819817D02*
X7648753Y-16819817D01*
X7648753Y-16819817D02*
X7629706Y-16810293D01*
X7629706Y-16810293D02*
X7620182Y-16791246D01*
X7620182Y-16791246D02*
X7620182Y-16781722D01*
X7620182Y-16781722D02*
X7629706Y-16762674D01*
X7629706Y-16762674D02*
X7648753Y-16753150D01*
X7648753Y-16753150D02*
X7677325Y-16753150D01*
X7677325Y-16753150D02*
X7696372Y-16762674D01*
X7772563Y-16962674D02*
X7782087Y-16953150D01*
X7782087Y-16953150D02*
X7801134Y-16924579D01*
X7801134Y-16924579D02*
X7810658Y-16905531D01*
X7810658Y-16905531D02*
X7820182Y-16876960D01*
X7820182Y-16876960D02*
X7829706Y-16829341D01*
X7829706Y-16829341D02*
X7829706Y-16791246D01*
X7829706Y-16791246D02*
X7820182Y-16743627D01*
X7820182Y-16743627D02*
X7810658Y-16715055D01*
X7810658Y-16715055D02*
X7801134Y-16696008D01*
X7801134Y-16696008D02*
X7782087Y-16667436D01*
X7782087Y-16667436D02*
X7772563Y-16657912D01*
X8134468Y-16962674D02*
X8124944Y-16953150D01*
X8124944Y-16953150D02*
X8105896Y-16924579D01*
X8105896Y-16924579D02*
X8096372Y-16905531D01*
X8096372Y-16905531D02*
X8086849Y-16876960D01*
X8086849Y-16876960D02*
X8077325Y-16829341D01*
X8077325Y-16829341D02*
X8077325Y-16791246D01*
X8077325Y-16791246D02*
X8086849Y-16743627D01*
X8086849Y-16743627D02*
X8096372Y-16715055D01*
X8096372Y-16715055D02*
X8105896Y-16696008D01*
X8105896Y-16696008D02*
X8124944Y-16667436D01*
X8124944Y-16667436D02*
X8134468Y-16657912D01*
X8210658Y-16753150D02*
X8210658Y-16886484D01*
X8210658Y-16772198D02*
X8220182Y-16762674D01*
X8220182Y-16762674D02*
X8239230Y-16753150D01*
X8239230Y-16753150D02*
X8267801Y-16753150D01*
X8267801Y-16753150D02*
X8286849Y-16762674D01*
X8286849Y-16762674D02*
X8296372Y-16781722D01*
X8296372Y-16781722D02*
X8296372Y-16886484D01*
X8420182Y-16886484D02*
X8401134Y-16876960D01*
X8401134Y-16876960D02*
X8391611Y-16867436D01*
X8391611Y-16867436D02*
X8382087Y-16848389D01*
X8382087Y-16848389D02*
X8382087Y-16791246D01*
X8382087Y-16791246D02*
X8391611Y-16772198D01*
X8391611Y-16772198D02*
X8401134Y-16762674D01*
X8401134Y-16762674D02*
X8420182Y-16753150D01*
X8420182Y-16753150D02*
X8448754Y-16753150D01*
X8448754Y-16753150D02*
X8467801Y-16762674D01*
X8467801Y-16762674D02*
X8477325Y-16772198D01*
X8477325Y-16772198D02*
X8486849Y-16791246D01*
X8486849Y-16791246D02*
X8486849Y-16848389D01*
X8486849Y-16848389D02*
X8477325Y-16867436D01*
X8477325Y-16867436D02*
X8467801Y-16876960D01*
X8467801Y-16876960D02*
X8448754Y-16886484D01*
X8448754Y-16886484D02*
X8420182Y-16886484D01*
X8543992Y-16753150D02*
X8620182Y-16753150D01*
X8572563Y-16686484D02*
X8572563Y-16857912D01*
X8572563Y-16857912D02*
X8582087Y-16876960D01*
X8582087Y-16876960D02*
X8601134Y-16886484D01*
X8601134Y-16886484D02*
X8620182Y-16886484D01*
X8839230Y-16753150D02*
X8839230Y-16953150D01*
X8839230Y-16762674D02*
X8858277Y-16753150D01*
X8858277Y-16753150D02*
X8896373Y-16753150D01*
X8896373Y-16753150D02*
X8915420Y-16762674D01*
X8915420Y-16762674D02*
X8924944Y-16772198D01*
X8924944Y-16772198D02*
X8934468Y-16791246D01*
X8934468Y-16791246D02*
X8934468Y-16848389D01*
X8934468Y-16848389D02*
X8924944Y-16867436D01*
X8924944Y-16867436D02*
X8915420Y-16876960D01*
X8915420Y-16876960D02*
X8896373Y-16886484D01*
X8896373Y-16886484D02*
X8858277Y-16886484D01*
X8858277Y-16886484D02*
X8839230Y-16876960D01*
X9048754Y-16886484D02*
X9029706Y-16876960D01*
X9029706Y-16876960D02*
X9020182Y-16857912D01*
X9020182Y-16857912D02*
X9020182Y-16686484D01*
X9210658Y-16886484D02*
X9210658Y-16781722D01*
X9210658Y-16781722D02*
X9201135Y-16762674D01*
X9201135Y-16762674D02*
X9182087Y-16753150D01*
X9182087Y-16753150D02*
X9143992Y-16753150D01*
X9143992Y-16753150D02*
X9124944Y-16762674D01*
X9210658Y-16876960D02*
X9191611Y-16886484D01*
X9191611Y-16886484D02*
X9143992Y-16886484D01*
X9143992Y-16886484D02*
X9124944Y-16876960D01*
X9124944Y-16876960D02*
X9115420Y-16857912D01*
X9115420Y-16857912D02*
X9115420Y-16838865D01*
X9115420Y-16838865D02*
X9124944Y-16819817D01*
X9124944Y-16819817D02*
X9143992Y-16810293D01*
X9143992Y-16810293D02*
X9191611Y-16810293D01*
X9191611Y-16810293D02*
X9210658Y-16800770D01*
X9277325Y-16753150D02*
X9353515Y-16753150D01*
X9305896Y-16686484D02*
X9305896Y-16857912D01*
X9305896Y-16857912D02*
X9315420Y-16876960D01*
X9315420Y-16876960D02*
X9334468Y-16886484D01*
X9334468Y-16886484D02*
X9353515Y-16886484D01*
X9496373Y-16876960D02*
X9477325Y-16886484D01*
X9477325Y-16886484D02*
X9439230Y-16886484D01*
X9439230Y-16886484D02*
X9420182Y-16876960D01*
X9420182Y-16876960D02*
X9410658Y-16857912D01*
X9410658Y-16857912D02*
X9410658Y-16781722D01*
X9410658Y-16781722D02*
X9420182Y-16762674D01*
X9420182Y-16762674D02*
X9439230Y-16753150D01*
X9439230Y-16753150D02*
X9477325Y-16753150D01*
X9477325Y-16753150D02*
X9496373Y-16762674D01*
X9496373Y-16762674D02*
X9505896Y-16781722D01*
X9505896Y-16781722D02*
X9505896Y-16800770D01*
X9505896Y-16800770D02*
X9410658Y-16819817D01*
X9677325Y-16886484D02*
X9677325Y-16686484D01*
X9677325Y-16876960D02*
X9658277Y-16886484D01*
X9658277Y-16886484D02*
X9620182Y-16886484D01*
X9620182Y-16886484D02*
X9601135Y-16876960D01*
X9601135Y-16876960D02*
X9591611Y-16867436D01*
X9591611Y-16867436D02*
X9582087Y-16848389D01*
X9582087Y-16848389D02*
X9582087Y-16791246D01*
X9582087Y-16791246D02*
X9591611Y-16772198D01*
X9591611Y-16772198D02*
X9601135Y-16762674D01*
X9601135Y-16762674D02*
X9620182Y-16753150D01*
X9620182Y-16753150D02*
X9658277Y-16753150D01*
X9658277Y-16753150D02*
X9677325Y-16762674D01*
X9753516Y-16962674D02*
X9763039Y-16953150D01*
X9763039Y-16953150D02*
X9782087Y-16924579D01*
X9782087Y-16924579D02*
X9791611Y-16905531D01*
X9791611Y-16905531D02*
X9801135Y-16876960D01*
X9801135Y-16876960D02*
X9810658Y-16829341D01*
X9810658Y-16829341D02*
X9810658Y-16791246D01*
X9810658Y-16791246D02*
X9801135Y-16743627D01*
X9801135Y-16743627D02*
X9791611Y-16715055D01*
X9791611Y-16715055D02*
X9782087Y-16696008D01*
X9782087Y-16696008D02*
X9763039Y-16667436D01*
X9763039Y-16667436D02*
X9753516Y-16657912D01*
X2997500Y-17059000D02*
G75*
G02*
X2797500Y-17059000I-100000J0D01*
G01*
X2797500Y-17059000D02*
G75*
G02*
X2997500Y-17059000I100000J0D01*
G01*
X3248753Y-16969531D02*
X3258277Y-16960008D01*
X3258277Y-16960008D02*
X3277324Y-16950484D01*
X3277324Y-16950484D02*
X3324943Y-16950484D01*
X3324943Y-16950484D02*
X3343991Y-16960008D01*
X3343991Y-16960008D02*
X3353515Y-16969531D01*
X3353515Y-16969531D02*
X3363039Y-16988579D01*
X3363039Y-16988579D02*
X3363039Y-17007627D01*
X3363039Y-17007627D02*
X3353515Y-17036198D01*
X3353515Y-17036198D02*
X3239229Y-17150484D01*
X3239229Y-17150484D02*
X3363039Y-17150484D01*
X3448753Y-17131436D02*
X3458277Y-17140960D01*
X3458277Y-17140960D02*
X3448753Y-17150484D01*
X3448753Y-17150484D02*
X3439229Y-17140960D01*
X3439229Y-17140960D02*
X3448753Y-17131436D01*
X3448753Y-17131436D02*
X3448753Y-17150484D01*
X3524943Y-16950484D02*
X3648753Y-16950484D01*
X3648753Y-16950484D02*
X3582086Y-17026674D01*
X3582086Y-17026674D02*
X3610658Y-17026674D01*
X3610658Y-17026674D02*
X3629705Y-17036198D01*
X3629705Y-17036198D02*
X3639229Y-17045722D01*
X3639229Y-17045722D02*
X3648753Y-17064770D01*
X3648753Y-17064770D02*
X3648753Y-17112389D01*
X3648753Y-17112389D02*
X3639229Y-17131436D01*
X3639229Y-17131436D02*
X3629705Y-17140960D01*
X3629705Y-17140960D02*
X3610658Y-17150484D01*
X3610658Y-17150484D02*
X3553515Y-17150484D01*
X3553515Y-17150484D02*
X3534467Y-17140960D01*
X3534467Y-17140960D02*
X3524943Y-17131436D01*
X3763039Y-17036198D02*
X3743991Y-17026674D01*
X3743991Y-17026674D02*
X3734467Y-17017150D01*
X3734467Y-17017150D02*
X3724943Y-16998103D01*
X3724943Y-16998103D02*
X3724943Y-16988579D01*
X3724943Y-16988579D02*
X3734467Y-16969531D01*
X3734467Y-16969531D02*
X3743991Y-16960008D01*
X3743991Y-16960008D02*
X3763039Y-16950484D01*
X3763039Y-16950484D02*
X3801134Y-16950484D01*
X3801134Y-16950484D02*
X3820182Y-16960008D01*
X3820182Y-16960008D02*
X3829705Y-16969531D01*
X3829705Y-16969531D02*
X3839229Y-16988579D01*
X3839229Y-16988579D02*
X3839229Y-16998103D01*
X3839229Y-16998103D02*
X3829705Y-17017150D01*
X3829705Y-17017150D02*
X3820182Y-17026674D01*
X3820182Y-17026674D02*
X3801134Y-17036198D01*
X3801134Y-17036198D02*
X3763039Y-17036198D01*
X3763039Y-17036198D02*
X3743991Y-17045722D01*
X3743991Y-17045722D02*
X3734467Y-17055246D01*
X3734467Y-17055246D02*
X3724943Y-17074293D01*
X3724943Y-17074293D02*
X3724943Y-17112389D01*
X3724943Y-17112389D02*
X3734467Y-17131436D01*
X3734467Y-17131436D02*
X3743991Y-17140960D01*
X3743991Y-17140960D02*
X3763039Y-17150484D01*
X3763039Y-17150484D02*
X3801134Y-17150484D01*
X3801134Y-17150484D02*
X3820182Y-17140960D01*
X3820182Y-17140960D02*
X3829705Y-17131436D01*
X3829705Y-17131436D02*
X3839229Y-17112389D01*
X3839229Y-17112389D02*
X3839229Y-17074293D01*
X3839229Y-17074293D02*
X3829705Y-17055246D01*
X3829705Y-17055246D02*
X3820182Y-17045722D01*
X3820182Y-17045722D02*
X3801134Y-17036198D01*
X3963039Y-16950484D02*
X3982086Y-16950484D01*
X3982086Y-16950484D02*
X4001134Y-16960008D01*
X4001134Y-16960008D02*
X4010658Y-16969531D01*
X4010658Y-16969531D02*
X4020182Y-16988579D01*
X4020182Y-16988579D02*
X4029705Y-17026674D01*
X4029705Y-17026674D02*
X4029705Y-17074293D01*
X4029705Y-17074293D02*
X4020182Y-17112389D01*
X4020182Y-17112389D02*
X4010658Y-17131436D01*
X4010658Y-17131436D02*
X4001134Y-17140960D01*
X4001134Y-17140960D02*
X3982086Y-17150484D01*
X3982086Y-17150484D02*
X3963039Y-17150484D01*
X3963039Y-17150484D02*
X3943991Y-17140960D01*
X3943991Y-17140960D02*
X3934467Y-17131436D01*
X3934467Y-17131436D02*
X3924943Y-17112389D01*
X3924943Y-17112389D02*
X3915420Y-17074293D01*
X3915420Y-17074293D02*
X3915420Y-17026674D01*
X3915420Y-17026674D02*
X3924943Y-16988579D01*
X3924943Y-16988579D02*
X3934467Y-16969531D01*
X3934467Y-16969531D02*
X3943991Y-16960008D01*
X3943991Y-16960008D02*
X3963039Y-16950484D01*
X4115420Y-17150484D02*
X4115420Y-17017150D01*
X4115420Y-17036198D02*
X4124943Y-17026674D01*
X4124943Y-17026674D02*
X4143991Y-17017150D01*
X4143991Y-17017150D02*
X4172563Y-17017150D01*
X4172563Y-17017150D02*
X4191610Y-17026674D01*
X4191610Y-17026674D02*
X4201134Y-17045722D01*
X4201134Y-17045722D02*
X4201134Y-17150484D01*
X4201134Y-17045722D02*
X4210658Y-17026674D01*
X4210658Y-17026674D02*
X4229705Y-17017150D01*
X4229705Y-17017150D02*
X4258277Y-17017150D01*
X4258277Y-17017150D02*
X4277325Y-17026674D01*
X4277325Y-17026674D02*
X4286848Y-17045722D01*
X4286848Y-17045722D02*
X4286848Y-17150484D01*
X4382086Y-17150484D02*
X4382086Y-17017150D01*
X4382086Y-17036198D02*
X4391610Y-17026674D01*
X4391610Y-17026674D02*
X4410658Y-17017150D01*
X4410658Y-17017150D02*
X4439229Y-17017150D01*
X4439229Y-17017150D02*
X4458277Y-17026674D01*
X4458277Y-17026674D02*
X4467801Y-17045722D01*
X4467801Y-17045722D02*
X4467801Y-17150484D01*
X4467801Y-17045722D02*
X4477325Y-17026674D01*
X4477325Y-17026674D02*
X4496372Y-17017150D01*
X4496372Y-17017150D02*
X4524944Y-17017150D01*
X4524944Y-17017150D02*
X4543991Y-17026674D01*
X4543991Y-17026674D02*
X4553515Y-17045722D01*
X4553515Y-17045722D02*
X4553515Y-17150484D01*
X4943991Y-16940960D02*
X4772563Y-17198103D01*
X5201134Y-16950484D02*
X5220182Y-16950484D01*
X5220182Y-16950484D02*
X5239229Y-16960008D01*
X5239229Y-16960008D02*
X5248753Y-16969531D01*
X5248753Y-16969531D02*
X5258277Y-16988579D01*
X5258277Y-16988579D02*
X5267801Y-17026674D01*
X5267801Y-17026674D02*
X5267801Y-17074293D01*
X5267801Y-17074293D02*
X5258277Y-17112389D01*
X5258277Y-17112389D02*
X5248753Y-17131436D01*
X5248753Y-17131436D02*
X5239229Y-17140960D01*
X5239229Y-17140960D02*
X5220182Y-17150484D01*
X5220182Y-17150484D02*
X5201134Y-17150484D01*
X5201134Y-17150484D02*
X5182087Y-17140960D01*
X5182087Y-17140960D02*
X5172563Y-17131436D01*
X5172563Y-17131436D02*
X5163039Y-17112389D01*
X5163039Y-17112389D02*
X5153515Y-17074293D01*
X5153515Y-17074293D02*
X5153515Y-17026674D01*
X5153515Y-17026674D02*
X5163039Y-16988579D01*
X5163039Y-16988579D02*
X5172563Y-16969531D01*
X5172563Y-16969531D02*
X5182087Y-16960008D01*
X5182087Y-16960008D02*
X5201134Y-16950484D01*
X5353515Y-17131436D02*
X5363039Y-17140960D01*
X5363039Y-17140960D02*
X5353515Y-17150484D01*
X5353515Y-17150484D02*
X5343991Y-17140960D01*
X5343991Y-17140960D02*
X5353515Y-17131436D01*
X5353515Y-17131436D02*
X5353515Y-17150484D01*
X5486848Y-16950484D02*
X5505896Y-16950484D01*
X5505896Y-16950484D02*
X5524944Y-16960008D01*
X5524944Y-16960008D02*
X5534468Y-16969531D01*
X5534468Y-16969531D02*
X5543991Y-16988579D01*
X5543991Y-16988579D02*
X5553515Y-17026674D01*
X5553515Y-17026674D02*
X5553515Y-17074293D01*
X5553515Y-17074293D02*
X5543991Y-17112389D01*
X5543991Y-17112389D02*
X5534468Y-17131436D01*
X5534468Y-17131436D02*
X5524944Y-17140960D01*
X5524944Y-17140960D02*
X5505896Y-17150484D01*
X5505896Y-17150484D02*
X5486848Y-17150484D01*
X5486848Y-17150484D02*
X5467801Y-17140960D01*
X5467801Y-17140960D02*
X5458277Y-17131436D01*
X5458277Y-17131436D02*
X5448753Y-17112389D01*
X5448753Y-17112389D02*
X5439229Y-17074293D01*
X5439229Y-17074293D02*
X5439229Y-17026674D01*
X5439229Y-17026674D02*
X5448753Y-16988579D01*
X5448753Y-16988579D02*
X5458277Y-16969531D01*
X5458277Y-16969531D02*
X5467801Y-16960008D01*
X5467801Y-16960008D02*
X5486848Y-16950484D01*
X5648753Y-17150484D02*
X5686848Y-17150484D01*
X5686848Y-17150484D02*
X5705896Y-17140960D01*
X5705896Y-17140960D02*
X5715420Y-17131436D01*
X5715420Y-17131436D02*
X5734467Y-17102865D01*
X5734467Y-17102865D02*
X5743991Y-17064770D01*
X5743991Y-17064770D02*
X5743991Y-16988579D01*
X5743991Y-16988579D02*
X5734467Y-16969531D01*
X5734467Y-16969531D02*
X5724944Y-16960008D01*
X5724944Y-16960008D02*
X5705896Y-16950484D01*
X5705896Y-16950484D02*
X5667801Y-16950484D01*
X5667801Y-16950484D02*
X5648753Y-16960008D01*
X5648753Y-16960008D02*
X5639229Y-16969531D01*
X5639229Y-16969531D02*
X5629706Y-16988579D01*
X5629706Y-16988579D02*
X5629706Y-17036198D01*
X5629706Y-17036198D02*
X5639229Y-17055246D01*
X5639229Y-17055246D02*
X5648753Y-17064770D01*
X5648753Y-17064770D02*
X5667801Y-17074293D01*
X5667801Y-17074293D02*
X5705896Y-17074293D01*
X5705896Y-17074293D02*
X5724944Y-17064770D01*
X5724944Y-17064770D02*
X5734467Y-17055246D01*
X5734467Y-17055246D02*
X5743991Y-17036198D01*
X5810658Y-16950484D02*
X5934467Y-16950484D01*
X5934467Y-16950484D02*
X5867801Y-17026674D01*
X5867801Y-17026674D02*
X5896372Y-17026674D01*
X5896372Y-17026674D02*
X5915420Y-17036198D01*
X5915420Y-17036198D02*
X5924944Y-17045722D01*
X5924944Y-17045722D02*
X5934467Y-17064770D01*
X5934467Y-17064770D02*
X5934467Y-17112389D01*
X5934467Y-17112389D02*
X5924944Y-17131436D01*
X5924944Y-17131436D02*
X5915420Y-17140960D01*
X5915420Y-17140960D02*
X5896372Y-17150484D01*
X5896372Y-17150484D02*
X5839229Y-17150484D01*
X5839229Y-17150484D02*
X5820182Y-17140960D01*
X5820182Y-17140960D02*
X5810658Y-17131436D01*
X6001134Y-16950484D02*
X6134467Y-16950484D01*
X6134467Y-16950484D02*
X6048753Y-17150484D01*
X6201134Y-16950484D02*
X6201134Y-16988579D01*
X6277325Y-16950484D02*
X6277325Y-16988579D01*
X6572563Y-17226674D02*
X6563039Y-17217150D01*
X6563039Y-17217150D02*
X6543991Y-17188579D01*
X6543991Y-17188579D02*
X6534468Y-17169531D01*
X6534468Y-17169531D02*
X6524944Y-17140960D01*
X6524944Y-17140960D02*
X6515420Y-17093341D01*
X6515420Y-17093341D02*
X6515420Y-17055246D01*
X6515420Y-17055246D02*
X6524944Y-17007627D01*
X6524944Y-17007627D02*
X6534468Y-16979055D01*
X6534468Y-16979055D02*
X6543991Y-16960008D01*
X6543991Y-16960008D02*
X6563039Y-16931436D01*
X6563039Y-16931436D02*
X6572563Y-16921912D01*
X6639229Y-16969531D02*
X6648753Y-16960008D01*
X6648753Y-16960008D02*
X6667801Y-16950484D01*
X6667801Y-16950484D02*
X6715420Y-16950484D01*
X6715420Y-16950484D02*
X6734468Y-16960008D01*
X6734468Y-16960008D02*
X6743991Y-16969531D01*
X6743991Y-16969531D02*
X6753515Y-16988579D01*
X6753515Y-16988579D02*
X6753515Y-17007627D01*
X6753515Y-17007627D02*
X6743991Y-17036198D01*
X6743991Y-17036198D02*
X6629706Y-17150484D01*
X6629706Y-17150484D02*
X6753515Y-17150484D01*
X6991610Y-17150484D02*
X6991610Y-16950484D01*
X7077325Y-17150484D02*
X7077325Y-17045722D01*
X7077325Y-17045722D02*
X7067801Y-17026674D01*
X7067801Y-17026674D02*
X7048753Y-17017150D01*
X7048753Y-17017150D02*
X7020182Y-17017150D01*
X7020182Y-17017150D02*
X7001134Y-17026674D01*
X7001134Y-17026674D02*
X6991610Y-17036198D01*
X7201134Y-17150484D02*
X7182087Y-17140960D01*
X7182087Y-17140960D02*
X7172563Y-17131436D01*
X7172563Y-17131436D02*
X7163039Y-17112389D01*
X7163039Y-17112389D02*
X7163039Y-17055246D01*
X7163039Y-17055246D02*
X7172563Y-17036198D01*
X7172563Y-17036198D02*
X7182087Y-17026674D01*
X7182087Y-17026674D02*
X7201134Y-17017150D01*
X7201134Y-17017150D02*
X7229706Y-17017150D01*
X7229706Y-17017150D02*
X7248753Y-17026674D01*
X7248753Y-17026674D02*
X7258277Y-17036198D01*
X7258277Y-17036198D02*
X7267801Y-17055246D01*
X7267801Y-17055246D02*
X7267801Y-17112389D01*
X7267801Y-17112389D02*
X7258277Y-17131436D01*
X7258277Y-17131436D02*
X7248753Y-17140960D01*
X7248753Y-17140960D02*
X7229706Y-17150484D01*
X7229706Y-17150484D02*
X7201134Y-17150484D01*
X7382087Y-17150484D02*
X7363039Y-17140960D01*
X7363039Y-17140960D02*
X7353515Y-17121912D01*
X7353515Y-17121912D02*
X7353515Y-16950484D01*
X7534468Y-17140960D02*
X7515420Y-17150484D01*
X7515420Y-17150484D02*
X7477325Y-17150484D01*
X7477325Y-17150484D02*
X7458277Y-17140960D01*
X7458277Y-17140960D02*
X7448753Y-17121912D01*
X7448753Y-17121912D02*
X7448753Y-17045722D01*
X7448753Y-17045722D02*
X7458277Y-17026674D01*
X7458277Y-17026674D02*
X7477325Y-17017150D01*
X7477325Y-17017150D02*
X7515420Y-17017150D01*
X7515420Y-17017150D02*
X7534468Y-17026674D01*
X7534468Y-17026674D02*
X7543991Y-17045722D01*
X7543991Y-17045722D02*
X7543991Y-17064770D01*
X7543991Y-17064770D02*
X7448753Y-17083817D01*
X7620182Y-17140960D02*
X7639230Y-17150484D01*
X7639230Y-17150484D02*
X7677325Y-17150484D01*
X7677325Y-17150484D02*
X7696372Y-17140960D01*
X7696372Y-17140960D02*
X7705896Y-17121912D01*
X7705896Y-17121912D02*
X7705896Y-17112389D01*
X7705896Y-17112389D02*
X7696372Y-17093341D01*
X7696372Y-17093341D02*
X7677325Y-17083817D01*
X7677325Y-17083817D02*
X7648753Y-17083817D01*
X7648753Y-17083817D02*
X7629706Y-17074293D01*
X7629706Y-17074293D02*
X7620182Y-17055246D01*
X7620182Y-17055246D02*
X7620182Y-17045722D01*
X7620182Y-17045722D02*
X7629706Y-17026674D01*
X7629706Y-17026674D02*
X7648753Y-17017150D01*
X7648753Y-17017150D02*
X7677325Y-17017150D01*
X7677325Y-17017150D02*
X7696372Y-17026674D01*
X7772563Y-17226674D02*
X7782087Y-17217150D01*
X7782087Y-17217150D02*
X7801134Y-17188579D01*
X7801134Y-17188579D02*
X7810658Y-17169531D01*
X7810658Y-17169531D02*
X7820182Y-17140960D01*
X7820182Y-17140960D02*
X7829706Y-17093341D01*
X7829706Y-17093341D02*
X7829706Y-17055246D01*
X7829706Y-17055246D02*
X7820182Y-17007627D01*
X7820182Y-17007627D02*
X7810658Y-16979055D01*
X7810658Y-16979055D02*
X7801134Y-16960008D01*
X7801134Y-16960008D02*
X7782087Y-16931436D01*
X7782087Y-16931436D02*
X7772563Y-16921912D01*
X8134468Y-17226674D02*
X8124944Y-17217150D01*
X8124944Y-17217150D02*
X8105896Y-17188579D01*
X8105896Y-17188579D02*
X8096372Y-17169531D01*
X8096372Y-17169531D02*
X8086849Y-17140960D01*
X8086849Y-17140960D02*
X8077325Y-17093341D01*
X8077325Y-17093341D02*
X8077325Y-17055246D01*
X8077325Y-17055246D02*
X8086849Y-17007627D01*
X8086849Y-17007627D02*
X8096372Y-16979055D01*
X8096372Y-16979055D02*
X8105896Y-16960008D01*
X8105896Y-16960008D02*
X8124944Y-16931436D01*
X8124944Y-16931436D02*
X8134468Y-16921912D01*
X8210658Y-17017150D02*
X8210658Y-17150484D01*
X8210658Y-17036198D02*
X8220182Y-17026674D01*
X8220182Y-17026674D02*
X8239230Y-17017150D01*
X8239230Y-17017150D02*
X8267801Y-17017150D01*
X8267801Y-17017150D02*
X8286849Y-17026674D01*
X8286849Y-17026674D02*
X8296372Y-17045722D01*
X8296372Y-17045722D02*
X8296372Y-17150484D01*
X8420182Y-17150484D02*
X8401134Y-17140960D01*
X8401134Y-17140960D02*
X8391611Y-17131436D01*
X8391611Y-17131436D02*
X8382087Y-17112389D01*
X8382087Y-17112389D02*
X8382087Y-17055246D01*
X8382087Y-17055246D02*
X8391611Y-17036198D01*
X8391611Y-17036198D02*
X8401134Y-17026674D01*
X8401134Y-17026674D02*
X8420182Y-17017150D01*
X8420182Y-17017150D02*
X8448754Y-17017150D01*
X8448754Y-17017150D02*
X8467801Y-17026674D01*
X8467801Y-17026674D02*
X8477325Y-17036198D01*
X8477325Y-17036198D02*
X8486849Y-17055246D01*
X8486849Y-17055246D02*
X8486849Y-17112389D01*
X8486849Y-17112389D02*
X8477325Y-17131436D01*
X8477325Y-17131436D02*
X8467801Y-17140960D01*
X8467801Y-17140960D02*
X8448754Y-17150484D01*
X8448754Y-17150484D02*
X8420182Y-17150484D01*
X8543992Y-17017150D02*
X8620182Y-17017150D01*
X8572563Y-16950484D02*
X8572563Y-17121912D01*
X8572563Y-17121912D02*
X8582087Y-17140960D01*
X8582087Y-17140960D02*
X8601134Y-17150484D01*
X8601134Y-17150484D02*
X8620182Y-17150484D01*
X8839230Y-17017150D02*
X8839230Y-17217150D01*
X8839230Y-17026674D02*
X8858277Y-17017150D01*
X8858277Y-17017150D02*
X8896373Y-17017150D01*
X8896373Y-17017150D02*
X8915420Y-17026674D01*
X8915420Y-17026674D02*
X8924944Y-17036198D01*
X8924944Y-17036198D02*
X8934468Y-17055246D01*
X8934468Y-17055246D02*
X8934468Y-17112389D01*
X8934468Y-17112389D02*
X8924944Y-17131436D01*
X8924944Y-17131436D02*
X8915420Y-17140960D01*
X8915420Y-17140960D02*
X8896373Y-17150484D01*
X8896373Y-17150484D02*
X8858277Y-17150484D01*
X8858277Y-17150484D02*
X8839230Y-17140960D01*
X9048754Y-17150484D02*
X9029706Y-17140960D01*
X9029706Y-17140960D02*
X9020182Y-17121912D01*
X9020182Y-17121912D02*
X9020182Y-16950484D01*
X9210658Y-17150484D02*
X9210658Y-17045722D01*
X9210658Y-17045722D02*
X9201135Y-17026674D01*
X9201135Y-17026674D02*
X9182087Y-17017150D01*
X9182087Y-17017150D02*
X9143992Y-17017150D01*
X9143992Y-17017150D02*
X9124944Y-17026674D01*
X9210658Y-17140960D02*
X9191611Y-17150484D01*
X9191611Y-17150484D02*
X9143992Y-17150484D01*
X9143992Y-17150484D02*
X9124944Y-17140960D01*
X9124944Y-17140960D02*
X9115420Y-17121912D01*
X9115420Y-17121912D02*
X9115420Y-17102865D01*
X9115420Y-17102865D02*
X9124944Y-17083817D01*
X9124944Y-17083817D02*
X9143992Y-17074293D01*
X9143992Y-17074293D02*
X9191611Y-17074293D01*
X9191611Y-17074293D02*
X9210658Y-17064770D01*
X9277325Y-17017150D02*
X9353515Y-17017150D01*
X9305896Y-16950484D02*
X9305896Y-17121912D01*
X9305896Y-17121912D02*
X9315420Y-17140960D01*
X9315420Y-17140960D02*
X9334468Y-17150484D01*
X9334468Y-17150484D02*
X9353515Y-17150484D01*
X9496373Y-17140960D02*
X9477325Y-17150484D01*
X9477325Y-17150484D02*
X9439230Y-17150484D01*
X9439230Y-17150484D02*
X9420182Y-17140960D01*
X9420182Y-17140960D02*
X9410658Y-17121912D01*
X9410658Y-17121912D02*
X9410658Y-17045722D01*
X9410658Y-17045722D02*
X9420182Y-17026674D01*
X9420182Y-17026674D02*
X9439230Y-17017150D01*
X9439230Y-17017150D02*
X9477325Y-17017150D01*
X9477325Y-17017150D02*
X9496373Y-17026674D01*
X9496373Y-17026674D02*
X9505896Y-17045722D01*
X9505896Y-17045722D02*
X9505896Y-17064770D01*
X9505896Y-17064770D02*
X9410658Y-17083817D01*
X9677325Y-17150484D02*
X9677325Y-16950484D01*
X9677325Y-17140960D02*
X9658277Y-17150484D01*
X9658277Y-17150484D02*
X9620182Y-17150484D01*
X9620182Y-17150484D02*
X9601135Y-17140960D01*
X9601135Y-17140960D02*
X9591611Y-17131436D01*
X9591611Y-17131436D02*
X9582087Y-17112389D01*
X9582087Y-17112389D02*
X9582087Y-17055246D01*
X9582087Y-17055246D02*
X9591611Y-17036198D01*
X9591611Y-17036198D02*
X9601135Y-17026674D01*
X9601135Y-17026674D02*
X9620182Y-17017150D01*
X9620182Y-17017150D02*
X9658277Y-17017150D01*
X9658277Y-17017150D02*
X9677325Y-17026674D01*
X9753516Y-17226674D02*
X9763039Y-17217150D01*
X9763039Y-17217150D02*
X9782087Y-17188579D01*
X9782087Y-17188579D02*
X9791611Y-17169531D01*
X9791611Y-17169531D02*
X9801135Y-17140960D01*
X9801135Y-17140960D02*
X9810658Y-17093341D01*
X9810658Y-17093341D02*
X9810658Y-17055246D01*
X9810658Y-17055246D02*
X9801135Y-17007627D01*
X9801135Y-17007627D02*
X9791611Y-16979055D01*
X9791611Y-16979055D02*
X9782087Y-16960008D01*
X9782087Y-16960008D02*
X9763039Y-16931436D01*
X9763039Y-16931436D02*
X9753516Y-16921912D01*
X2897500Y-17279000D02*
X2897500Y-17479000D01*
X2797500Y-17379000D02*
X2997500Y-17379000D01*
X3239229Y-17270484D02*
X3363039Y-17270484D01*
X3363039Y-17270484D02*
X3296372Y-17346674D01*
X3296372Y-17346674D02*
X3324943Y-17346674D01*
X3324943Y-17346674D02*
X3343991Y-17356198D01*
X3343991Y-17356198D02*
X3353515Y-17365722D01*
X3353515Y-17365722D02*
X3363039Y-17384770D01*
X3363039Y-17384770D02*
X3363039Y-17432389D01*
X3363039Y-17432389D02*
X3353515Y-17451436D01*
X3353515Y-17451436D02*
X3343991Y-17460960D01*
X3343991Y-17460960D02*
X3324943Y-17470484D01*
X3324943Y-17470484D02*
X3267801Y-17470484D01*
X3267801Y-17470484D02*
X3248753Y-17460960D01*
X3248753Y-17460960D02*
X3239229Y-17451436D01*
X3448753Y-17451436D02*
X3458277Y-17460960D01*
X3458277Y-17460960D02*
X3448753Y-17470484D01*
X3448753Y-17470484D02*
X3439229Y-17460960D01*
X3439229Y-17460960D02*
X3448753Y-17451436D01*
X3448753Y-17451436D02*
X3448753Y-17470484D01*
X3648753Y-17470484D02*
X3534467Y-17470484D01*
X3591610Y-17470484D02*
X3591610Y-17270484D01*
X3591610Y-17270484D02*
X3572562Y-17299055D01*
X3572562Y-17299055D02*
X3553515Y-17318103D01*
X3553515Y-17318103D02*
X3534467Y-17327627D01*
X3763039Y-17356198D02*
X3743991Y-17346674D01*
X3743991Y-17346674D02*
X3734467Y-17337150D01*
X3734467Y-17337150D02*
X3724943Y-17318103D01*
X3724943Y-17318103D02*
X3724943Y-17308579D01*
X3724943Y-17308579D02*
X3734467Y-17289531D01*
X3734467Y-17289531D02*
X3743991Y-17280008D01*
X3743991Y-17280008D02*
X3763039Y-17270484D01*
X3763039Y-17270484D02*
X3801134Y-17270484D01*
X3801134Y-17270484D02*
X3820182Y-17280008D01*
X3820182Y-17280008D02*
X3829705Y-17289531D01*
X3829705Y-17289531D02*
X3839229Y-17308579D01*
X3839229Y-17308579D02*
X3839229Y-17318103D01*
X3839229Y-17318103D02*
X3829705Y-17337150D01*
X3829705Y-17337150D02*
X3820182Y-17346674D01*
X3820182Y-17346674D02*
X3801134Y-17356198D01*
X3801134Y-17356198D02*
X3763039Y-17356198D01*
X3763039Y-17356198D02*
X3743991Y-17365722D01*
X3743991Y-17365722D02*
X3734467Y-17375246D01*
X3734467Y-17375246D02*
X3724943Y-17394293D01*
X3724943Y-17394293D02*
X3724943Y-17432389D01*
X3724943Y-17432389D02*
X3734467Y-17451436D01*
X3734467Y-17451436D02*
X3743991Y-17460960D01*
X3743991Y-17460960D02*
X3763039Y-17470484D01*
X3763039Y-17470484D02*
X3801134Y-17470484D01*
X3801134Y-17470484D02*
X3820182Y-17460960D01*
X3820182Y-17460960D02*
X3829705Y-17451436D01*
X3829705Y-17451436D02*
X3839229Y-17432389D01*
X3839229Y-17432389D02*
X3839229Y-17394293D01*
X3839229Y-17394293D02*
X3829705Y-17375246D01*
X3829705Y-17375246D02*
X3820182Y-17365722D01*
X3820182Y-17365722D02*
X3801134Y-17356198D01*
X3963039Y-17270484D02*
X3982086Y-17270484D01*
X3982086Y-17270484D02*
X4001134Y-17280008D01*
X4001134Y-17280008D02*
X4010658Y-17289531D01*
X4010658Y-17289531D02*
X4020182Y-17308579D01*
X4020182Y-17308579D02*
X4029705Y-17346674D01*
X4029705Y-17346674D02*
X4029705Y-17394293D01*
X4029705Y-17394293D02*
X4020182Y-17432389D01*
X4020182Y-17432389D02*
X4010658Y-17451436D01*
X4010658Y-17451436D02*
X4001134Y-17460960D01*
X4001134Y-17460960D02*
X3982086Y-17470484D01*
X3982086Y-17470484D02*
X3963039Y-17470484D01*
X3963039Y-17470484D02*
X3943991Y-17460960D01*
X3943991Y-17460960D02*
X3934467Y-17451436D01*
X3934467Y-17451436D02*
X3924943Y-17432389D01*
X3924943Y-17432389D02*
X3915420Y-17394293D01*
X3915420Y-17394293D02*
X3915420Y-17346674D01*
X3915420Y-17346674D02*
X3924943Y-17308579D01*
X3924943Y-17308579D02*
X3934467Y-17289531D01*
X3934467Y-17289531D02*
X3943991Y-17280008D01*
X3943991Y-17280008D02*
X3963039Y-17270484D01*
X4115420Y-17470484D02*
X4115420Y-17337150D01*
X4115420Y-17356198D02*
X4124943Y-17346674D01*
X4124943Y-17346674D02*
X4143991Y-17337150D01*
X4143991Y-17337150D02*
X4172563Y-17337150D01*
X4172563Y-17337150D02*
X4191610Y-17346674D01*
X4191610Y-17346674D02*
X4201134Y-17365722D01*
X4201134Y-17365722D02*
X4201134Y-17470484D01*
X4201134Y-17365722D02*
X4210658Y-17346674D01*
X4210658Y-17346674D02*
X4229705Y-17337150D01*
X4229705Y-17337150D02*
X4258277Y-17337150D01*
X4258277Y-17337150D02*
X4277325Y-17346674D01*
X4277325Y-17346674D02*
X4286848Y-17365722D01*
X4286848Y-17365722D02*
X4286848Y-17470484D01*
X4382086Y-17470484D02*
X4382086Y-17337150D01*
X4382086Y-17356198D02*
X4391610Y-17346674D01*
X4391610Y-17346674D02*
X4410658Y-17337150D01*
X4410658Y-17337150D02*
X4439229Y-17337150D01*
X4439229Y-17337150D02*
X4458277Y-17346674D01*
X4458277Y-17346674D02*
X4467801Y-17365722D01*
X4467801Y-17365722D02*
X4467801Y-17470484D01*
X4467801Y-17365722D02*
X4477325Y-17346674D01*
X4477325Y-17346674D02*
X4496372Y-17337150D01*
X4496372Y-17337150D02*
X4524944Y-17337150D01*
X4524944Y-17337150D02*
X4543991Y-17346674D01*
X4543991Y-17346674D02*
X4553515Y-17365722D01*
X4553515Y-17365722D02*
X4553515Y-17470484D01*
X4943991Y-17260960D02*
X4772563Y-17518103D01*
X5201134Y-17270484D02*
X5220182Y-17270484D01*
X5220182Y-17270484D02*
X5239229Y-17280008D01*
X5239229Y-17280008D02*
X5248753Y-17289531D01*
X5248753Y-17289531D02*
X5258277Y-17308579D01*
X5258277Y-17308579D02*
X5267801Y-17346674D01*
X5267801Y-17346674D02*
X5267801Y-17394293D01*
X5267801Y-17394293D02*
X5258277Y-17432389D01*
X5258277Y-17432389D02*
X5248753Y-17451436D01*
X5248753Y-17451436D02*
X5239229Y-17460960D01*
X5239229Y-17460960D02*
X5220182Y-17470484D01*
X5220182Y-17470484D02*
X5201134Y-17470484D01*
X5201134Y-17470484D02*
X5182087Y-17460960D01*
X5182087Y-17460960D02*
X5172563Y-17451436D01*
X5172563Y-17451436D02*
X5163039Y-17432389D01*
X5163039Y-17432389D02*
X5153515Y-17394293D01*
X5153515Y-17394293D02*
X5153515Y-17346674D01*
X5153515Y-17346674D02*
X5163039Y-17308579D01*
X5163039Y-17308579D02*
X5172563Y-17289531D01*
X5172563Y-17289531D02*
X5182087Y-17280008D01*
X5182087Y-17280008D02*
X5201134Y-17270484D01*
X5353515Y-17451436D02*
X5363039Y-17460960D01*
X5363039Y-17460960D02*
X5353515Y-17470484D01*
X5353515Y-17470484D02*
X5343991Y-17460960D01*
X5343991Y-17460960D02*
X5353515Y-17451436D01*
X5353515Y-17451436D02*
X5353515Y-17470484D01*
X5553515Y-17470484D02*
X5439229Y-17470484D01*
X5496372Y-17470484D02*
X5496372Y-17270484D01*
X5496372Y-17270484D02*
X5477325Y-17299055D01*
X5477325Y-17299055D02*
X5458277Y-17318103D01*
X5458277Y-17318103D02*
X5439229Y-17327627D01*
X5629706Y-17289531D02*
X5639229Y-17280008D01*
X5639229Y-17280008D02*
X5658277Y-17270484D01*
X5658277Y-17270484D02*
X5705896Y-17270484D01*
X5705896Y-17270484D02*
X5724944Y-17280008D01*
X5724944Y-17280008D02*
X5734467Y-17289531D01*
X5734467Y-17289531D02*
X5743991Y-17308579D01*
X5743991Y-17308579D02*
X5743991Y-17327627D01*
X5743991Y-17327627D02*
X5734467Y-17356198D01*
X5734467Y-17356198D02*
X5620182Y-17470484D01*
X5620182Y-17470484D02*
X5743991Y-17470484D01*
X5924944Y-17270484D02*
X5829706Y-17270484D01*
X5829706Y-17270484D02*
X5820182Y-17365722D01*
X5820182Y-17365722D02*
X5829706Y-17356198D01*
X5829706Y-17356198D02*
X5848753Y-17346674D01*
X5848753Y-17346674D02*
X5896372Y-17346674D01*
X5896372Y-17346674D02*
X5915420Y-17356198D01*
X5915420Y-17356198D02*
X5924944Y-17365722D01*
X5924944Y-17365722D02*
X5934467Y-17384770D01*
X5934467Y-17384770D02*
X5934467Y-17432389D01*
X5934467Y-17432389D02*
X5924944Y-17451436D01*
X5924944Y-17451436D02*
X5915420Y-17460960D01*
X5915420Y-17460960D02*
X5896372Y-17470484D01*
X5896372Y-17470484D02*
X5848753Y-17470484D01*
X5848753Y-17470484D02*
X5829706Y-17460960D01*
X5829706Y-17460960D02*
X5820182Y-17451436D01*
X6010658Y-17289531D02*
X6020182Y-17280008D01*
X6020182Y-17280008D02*
X6039229Y-17270484D01*
X6039229Y-17270484D02*
X6086848Y-17270484D01*
X6086848Y-17270484D02*
X6105896Y-17280008D01*
X6105896Y-17280008D02*
X6115420Y-17289531D01*
X6115420Y-17289531D02*
X6124944Y-17308579D01*
X6124944Y-17308579D02*
X6124944Y-17327627D01*
X6124944Y-17327627D02*
X6115420Y-17356198D01*
X6115420Y-17356198D02*
X6001134Y-17470484D01*
X6001134Y-17470484D02*
X6124944Y-17470484D01*
X6201134Y-17270484D02*
X6201134Y-17308579D01*
X6277325Y-17270484D02*
X6277325Y-17308579D01*
X6572563Y-17546674D02*
X6563039Y-17537150D01*
X6563039Y-17537150D02*
X6543991Y-17508579D01*
X6543991Y-17508579D02*
X6534468Y-17489531D01*
X6534468Y-17489531D02*
X6524944Y-17460960D01*
X6524944Y-17460960D02*
X6515420Y-17413341D01*
X6515420Y-17413341D02*
X6515420Y-17375246D01*
X6515420Y-17375246D02*
X6524944Y-17327627D01*
X6524944Y-17327627D02*
X6534468Y-17299055D01*
X6534468Y-17299055D02*
X6543991Y-17280008D01*
X6543991Y-17280008D02*
X6563039Y-17251436D01*
X6563039Y-17251436D02*
X6572563Y-17241912D01*
X6639229Y-17289531D02*
X6648753Y-17280008D01*
X6648753Y-17280008D02*
X6667801Y-17270484D01*
X6667801Y-17270484D02*
X6715420Y-17270484D01*
X6715420Y-17270484D02*
X6734468Y-17280008D01*
X6734468Y-17280008D02*
X6743991Y-17289531D01*
X6743991Y-17289531D02*
X6753515Y-17308579D01*
X6753515Y-17308579D02*
X6753515Y-17327627D01*
X6753515Y-17327627D02*
X6743991Y-17356198D01*
X6743991Y-17356198D02*
X6629706Y-17470484D01*
X6629706Y-17470484D02*
X6753515Y-17470484D01*
X6991610Y-17470484D02*
X6991610Y-17270484D01*
X7077325Y-17470484D02*
X7077325Y-17365722D01*
X7077325Y-17365722D02*
X7067801Y-17346674D01*
X7067801Y-17346674D02*
X7048753Y-17337150D01*
X7048753Y-17337150D02*
X7020182Y-17337150D01*
X7020182Y-17337150D02*
X7001134Y-17346674D01*
X7001134Y-17346674D02*
X6991610Y-17356198D01*
X7201134Y-17470484D02*
X7182087Y-17460960D01*
X7182087Y-17460960D02*
X7172563Y-17451436D01*
X7172563Y-17451436D02*
X7163039Y-17432389D01*
X7163039Y-17432389D02*
X7163039Y-17375246D01*
X7163039Y-17375246D02*
X7172563Y-17356198D01*
X7172563Y-17356198D02*
X7182087Y-17346674D01*
X7182087Y-17346674D02*
X7201134Y-17337150D01*
X7201134Y-17337150D02*
X7229706Y-17337150D01*
X7229706Y-17337150D02*
X7248753Y-17346674D01*
X7248753Y-17346674D02*
X7258277Y-17356198D01*
X7258277Y-17356198D02*
X7267801Y-17375246D01*
X7267801Y-17375246D02*
X7267801Y-17432389D01*
X7267801Y-17432389D02*
X7258277Y-17451436D01*
X7258277Y-17451436D02*
X7248753Y-17460960D01*
X7248753Y-17460960D02*
X7229706Y-17470484D01*
X7229706Y-17470484D02*
X7201134Y-17470484D01*
X7382087Y-17470484D02*
X7363039Y-17460960D01*
X7363039Y-17460960D02*
X7353515Y-17441912D01*
X7353515Y-17441912D02*
X7353515Y-17270484D01*
X7534468Y-17460960D02*
X7515420Y-17470484D01*
X7515420Y-17470484D02*
X7477325Y-17470484D01*
X7477325Y-17470484D02*
X7458277Y-17460960D01*
X7458277Y-17460960D02*
X7448753Y-17441912D01*
X7448753Y-17441912D02*
X7448753Y-17365722D01*
X7448753Y-17365722D02*
X7458277Y-17346674D01*
X7458277Y-17346674D02*
X7477325Y-17337150D01*
X7477325Y-17337150D02*
X7515420Y-17337150D01*
X7515420Y-17337150D02*
X7534468Y-17346674D01*
X7534468Y-17346674D02*
X7543991Y-17365722D01*
X7543991Y-17365722D02*
X7543991Y-17384770D01*
X7543991Y-17384770D02*
X7448753Y-17403817D01*
X7620182Y-17460960D02*
X7639230Y-17470484D01*
X7639230Y-17470484D02*
X7677325Y-17470484D01*
X7677325Y-17470484D02*
X7696372Y-17460960D01*
X7696372Y-17460960D02*
X7705896Y-17441912D01*
X7705896Y-17441912D02*
X7705896Y-17432389D01*
X7705896Y-17432389D02*
X7696372Y-17413341D01*
X7696372Y-17413341D02*
X7677325Y-17403817D01*
X7677325Y-17403817D02*
X7648753Y-17403817D01*
X7648753Y-17403817D02*
X7629706Y-17394293D01*
X7629706Y-17394293D02*
X7620182Y-17375246D01*
X7620182Y-17375246D02*
X7620182Y-17365722D01*
X7620182Y-17365722D02*
X7629706Y-17346674D01*
X7629706Y-17346674D02*
X7648753Y-17337150D01*
X7648753Y-17337150D02*
X7677325Y-17337150D01*
X7677325Y-17337150D02*
X7696372Y-17346674D01*
X7772563Y-17546674D02*
X7782087Y-17537150D01*
X7782087Y-17537150D02*
X7801134Y-17508579D01*
X7801134Y-17508579D02*
X7810658Y-17489531D01*
X7810658Y-17489531D02*
X7820182Y-17460960D01*
X7820182Y-17460960D02*
X7829706Y-17413341D01*
X7829706Y-17413341D02*
X7829706Y-17375246D01*
X7829706Y-17375246D02*
X7820182Y-17327627D01*
X7820182Y-17327627D02*
X7810658Y-17299055D01*
X7810658Y-17299055D02*
X7801134Y-17280008D01*
X7801134Y-17280008D02*
X7782087Y-17251436D01*
X7782087Y-17251436D02*
X7772563Y-17241912D01*
X8134468Y-17546674D02*
X8124944Y-17537150D01*
X8124944Y-17537150D02*
X8105896Y-17508579D01*
X8105896Y-17508579D02*
X8096372Y-17489531D01*
X8096372Y-17489531D02*
X8086849Y-17460960D01*
X8086849Y-17460960D02*
X8077325Y-17413341D01*
X8077325Y-17413341D02*
X8077325Y-17375246D01*
X8077325Y-17375246D02*
X8086849Y-17327627D01*
X8086849Y-17327627D02*
X8096372Y-17299055D01*
X8096372Y-17299055D02*
X8105896Y-17280008D01*
X8105896Y-17280008D02*
X8124944Y-17251436D01*
X8124944Y-17251436D02*
X8134468Y-17241912D01*
X8210658Y-17337150D02*
X8210658Y-17470484D01*
X8210658Y-17356198D02*
X8220182Y-17346674D01*
X8220182Y-17346674D02*
X8239230Y-17337150D01*
X8239230Y-17337150D02*
X8267801Y-17337150D01*
X8267801Y-17337150D02*
X8286849Y-17346674D01*
X8286849Y-17346674D02*
X8296372Y-17365722D01*
X8296372Y-17365722D02*
X8296372Y-17470484D01*
X8420182Y-17470484D02*
X8401134Y-17460960D01*
X8401134Y-17460960D02*
X8391611Y-17451436D01*
X8391611Y-17451436D02*
X8382087Y-17432389D01*
X8382087Y-17432389D02*
X8382087Y-17375246D01*
X8382087Y-17375246D02*
X8391611Y-17356198D01*
X8391611Y-17356198D02*
X8401134Y-17346674D01*
X8401134Y-17346674D02*
X8420182Y-17337150D01*
X8420182Y-17337150D02*
X8448754Y-17337150D01*
X8448754Y-17337150D02*
X8467801Y-17346674D01*
X8467801Y-17346674D02*
X8477325Y-17356198D01*
X8477325Y-17356198D02*
X8486849Y-17375246D01*
X8486849Y-17375246D02*
X8486849Y-17432389D01*
X8486849Y-17432389D02*
X8477325Y-17451436D01*
X8477325Y-17451436D02*
X8467801Y-17460960D01*
X8467801Y-17460960D02*
X8448754Y-17470484D01*
X8448754Y-17470484D02*
X8420182Y-17470484D01*
X8543992Y-17337150D02*
X8620182Y-17337150D01*
X8572563Y-17270484D02*
X8572563Y-17441912D01*
X8572563Y-17441912D02*
X8582087Y-17460960D01*
X8582087Y-17460960D02*
X8601134Y-17470484D01*
X8601134Y-17470484D02*
X8620182Y-17470484D01*
X8839230Y-17337150D02*
X8839230Y-17537150D01*
X8839230Y-17346674D02*
X8858277Y-17337150D01*
X8858277Y-17337150D02*
X8896373Y-17337150D01*
X8896373Y-17337150D02*
X8915420Y-17346674D01*
X8915420Y-17346674D02*
X8924944Y-17356198D01*
X8924944Y-17356198D02*
X8934468Y-17375246D01*
X8934468Y-17375246D02*
X8934468Y-17432389D01*
X8934468Y-17432389D02*
X8924944Y-17451436D01*
X8924944Y-17451436D02*
X8915420Y-17460960D01*
X8915420Y-17460960D02*
X8896373Y-17470484D01*
X8896373Y-17470484D02*
X8858277Y-17470484D01*
X8858277Y-17470484D02*
X8839230Y-17460960D01*
X9048754Y-17470484D02*
X9029706Y-17460960D01*
X9029706Y-17460960D02*
X9020182Y-17441912D01*
X9020182Y-17441912D02*
X9020182Y-17270484D01*
X9210658Y-17470484D02*
X9210658Y-17365722D01*
X9210658Y-17365722D02*
X9201135Y-17346674D01*
X9201135Y-17346674D02*
X9182087Y-17337150D01*
X9182087Y-17337150D02*
X9143992Y-17337150D01*
X9143992Y-17337150D02*
X9124944Y-17346674D01*
X9210658Y-17460960D02*
X9191611Y-17470484D01*
X9191611Y-17470484D02*
X9143992Y-17470484D01*
X9143992Y-17470484D02*
X9124944Y-17460960D01*
X9124944Y-17460960D02*
X9115420Y-17441912D01*
X9115420Y-17441912D02*
X9115420Y-17422865D01*
X9115420Y-17422865D02*
X9124944Y-17403817D01*
X9124944Y-17403817D02*
X9143992Y-17394293D01*
X9143992Y-17394293D02*
X9191611Y-17394293D01*
X9191611Y-17394293D02*
X9210658Y-17384770D01*
X9277325Y-17337150D02*
X9353515Y-17337150D01*
X9305896Y-17270484D02*
X9305896Y-17441912D01*
X9305896Y-17441912D02*
X9315420Y-17460960D01*
X9315420Y-17460960D02*
X9334468Y-17470484D01*
X9334468Y-17470484D02*
X9353515Y-17470484D01*
X9496373Y-17460960D02*
X9477325Y-17470484D01*
X9477325Y-17470484D02*
X9439230Y-17470484D01*
X9439230Y-17470484D02*
X9420182Y-17460960D01*
X9420182Y-17460960D02*
X9410658Y-17441912D01*
X9410658Y-17441912D02*
X9410658Y-17365722D01*
X9410658Y-17365722D02*
X9420182Y-17346674D01*
X9420182Y-17346674D02*
X9439230Y-17337150D01*
X9439230Y-17337150D02*
X9477325Y-17337150D01*
X9477325Y-17337150D02*
X9496373Y-17346674D01*
X9496373Y-17346674D02*
X9505896Y-17365722D01*
X9505896Y-17365722D02*
X9505896Y-17384770D01*
X9505896Y-17384770D02*
X9410658Y-17403817D01*
X9677325Y-17470484D02*
X9677325Y-17270484D01*
X9677325Y-17460960D02*
X9658277Y-17470484D01*
X9658277Y-17470484D02*
X9620182Y-17470484D01*
X9620182Y-17470484D02*
X9601135Y-17460960D01*
X9601135Y-17460960D02*
X9591611Y-17451436D01*
X9591611Y-17451436D02*
X9582087Y-17432389D01*
X9582087Y-17432389D02*
X9582087Y-17375246D01*
X9582087Y-17375246D02*
X9591611Y-17356198D01*
X9591611Y-17356198D02*
X9601135Y-17346674D01*
X9601135Y-17346674D02*
X9620182Y-17337150D01*
X9620182Y-17337150D02*
X9658277Y-17337150D01*
X9658277Y-17337150D02*
X9677325Y-17346674D01*
X9753516Y-17546674D02*
X9763039Y-17537150D01*
X9763039Y-17537150D02*
X9782087Y-17508579D01*
X9782087Y-17508579D02*
X9791611Y-17489531D01*
X9791611Y-17489531D02*
X9801135Y-17460960D01*
X9801135Y-17460960D02*
X9810658Y-17413341D01*
X9810658Y-17413341D02*
X9810658Y-17375246D01*
X9810658Y-17375246D02*
X9801135Y-17327627D01*
X9801135Y-17327627D02*
X9791611Y-17299055D01*
X9791611Y-17299055D02*
X9782087Y-17280008D01*
X9782087Y-17280008D02*
X9763039Y-17251436D01*
X9763039Y-17251436D02*
X9753516Y-17241912D01*
X2968211Y-17769711D02*
X2968211Y-17628289D01*
X2826789Y-17628289D01*
X2826789Y-17769711D01*
X2968211Y-17769711D01*
X3239229Y-17590484D02*
X3363039Y-17590484D01*
X3363039Y-17590484D02*
X3296372Y-17666674D01*
X3296372Y-17666674D02*
X3324943Y-17666674D01*
X3324943Y-17666674D02*
X3343991Y-17676198D01*
X3343991Y-17676198D02*
X3353515Y-17685722D01*
X3353515Y-17685722D02*
X3363039Y-17704770D01*
X3363039Y-17704770D02*
X3363039Y-17752389D01*
X3363039Y-17752389D02*
X3353515Y-17771436D01*
X3353515Y-17771436D02*
X3343991Y-17780960D01*
X3343991Y-17780960D02*
X3324943Y-17790484D01*
X3324943Y-17790484D02*
X3267801Y-17790484D01*
X3267801Y-17790484D02*
X3248753Y-17780960D01*
X3248753Y-17780960D02*
X3239229Y-17771436D01*
X3448753Y-17771436D02*
X3458277Y-17780960D01*
X3458277Y-17780960D02*
X3448753Y-17790484D01*
X3448753Y-17790484D02*
X3439229Y-17780960D01*
X3439229Y-17780960D02*
X3448753Y-17771436D01*
X3448753Y-17771436D02*
X3448753Y-17790484D01*
X3639229Y-17590484D02*
X3543991Y-17590484D01*
X3543991Y-17590484D02*
X3534467Y-17685722D01*
X3534467Y-17685722D02*
X3543991Y-17676198D01*
X3543991Y-17676198D02*
X3563039Y-17666674D01*
X3563039Y-17666674D02*
X3610658Y-17666674D01*
X3610658Y-17666674D02*
X3629705Y-17676198D01*
X3629705Y-17676198D02*
X3639229Y-17685722D01*
X3639229Y-17685722D02*
X3648753Y-17704770D01*
X3648753Y-17704770D02*
X3648753Y-17752389D01*
X3648753Y-17752389D02*
X3639229Y-17771436D01*
X3639229Y-17771436D02*
X3629705Y-17780960D01*
X3629705Y-17780960D02*
X3610658Y-17790484D01*
X3610658Y-17790484D02*
X3563039Y-17790484D01*
X3563039Y-17790484D02*
X3543991Y-17780960D01*
X3543991Y-17780960D02*
X3534467Y-17771436D01*
X3829705Y-17590484D02*
X3734467Y-17590484D01*
X3734467Y-17590484D02*
X3724943Y-17685722D01*
X3724943Y-17685722D02*
X3734467Y-17676198D01*
X3734467Y-17676198D02*
X3753515Y-17666674D01*
X3753515Y-17666674D02*
X3801134Y-17666674D01*
X3801134Y-17666674D02*
X3820182Y-17676198D01*
X3820182Y-17676198D02*
X3829705Y-17685722D01*
X3829705Y-17685722D02*
X3839229Y-17704770D01*
X3839229Y-17704770D02*
X3839229Y-17752389D01*
X3839229Y-17752389D02*
X3829705Y-17771436D01*
X3829705Y-17771436D02*
X3820182Y-17780960D01*
X3820182Y-17780960D02*
X3801134Y-17790484D01*
X3801134Y-17790484D02*
X3753515Y-17790484D01*
X3753515Y-17790484D02*
X3734467Y-17780960D01*
X3734467Y-17780960D02*
X3724943Y-17771436D01*
X3963039Y-17590484D02*
X3982086Y-17590484D01*
X3982086Y-17590484D02*
X4001134Y-17600008D01*
X4001134Y-17600008D02*
X4010658Y-17609531D01*
X4010658Y-17609531D02*
X4020182Y-17628579D01*
X4020182Y-17628579D02*
X4029705Y-17666674D01*
X4029705Y-17666674D02*
X4029705Y-17714293D01*
X4029705Y-17714293D02*
X4020182Y-17752389D01*
X4020182Y-17752389D02*
X4010658Y-17771436D01*
X4010658Y-17771436D02*
X4001134Y-17780960D01*
X4001134Y-17780960D02*
X3982086Y-17790484D01*
X3982086Y-17790484D02*
X3963039Y-17790484D01*
X3963039Y-17790484D02*
X3943991Y-17780960D01*
X3943991Y-17780960D02*
X3934467Y-17771436D01*
X3934467Y-17771436D02*
X3924943Y-17752389D01*
X3924943Y-17752389D02*
X3915420Y-17714293D01*
X3915420Y-17714293D02*
X3915420Y-17666674D01*
X3915420Y-17666674D02*
X3924943Y-17628579D01*
X3924943Y-17628579D02*
X3934467Y-17609531D01*
X3934467Y-17609531D02*
X3943991Y-17600008D01*
X3943991Y-17600008D02*
X3963039Y-17590484D01*
X4115420Y-17790484D02*
X4115420Y-17657150D01*
X4115420Y-17676198D02*
X4124943Y-17666674D01*
X4124943Y-17666674D02*
X4143991Y-17657150D01*
X4143991Y-17657150D02*
X4172563Y-17657150D01*
X4172563Y-17657150D02*
X4191610Y-17666674D01*
X4191610Y-17666674D02*
X4201134Y-17685722D01*
X4201134Y-17685722D02*
X4201134Y-17790484D01*
X4201134Y-17685722D02*
X4210658Y-17666674D01*
X4210658Y-17666674D02*
X4229705Y-17657150D01*
X4229705Y-17657150D02*
X4258277Y-17657150D01*
X4258277Y-17657150D02*
X4277325Y-17666674D01*
X4277325Y-17666674D02*
X4286848Y-17685722D01*
X4286848Y-17685722D02*
X4286848Y-17790484D01*
X4382086Y-17790484D02*
X4382086Y-17657150D01*
X4382086Y-17676198D02*
X4391610Y-17666674D01*
X4391610Y-17666674D02*
X4410658Y-17657150D01*
X4410658Y-17657150D02*
X4439229Y-17657150D01*
X4439229Y-17657150D02*
X4458277Y-17666674D01*
X4458277Y-17666674D02*
X4467801Y-17685722D01*
X4467801Y-17685722D02*
X4467801Y-17790484D01*
X4467801Y-17685722D02*
X4477325Y-17666674D01*
X4477325Y-17666674D02*
X4496372Y-17657150D01*
X4496372Y-17657150D02*
X4524944Y-17657150D01*
X4524944Y-17657150D02*
X4543991Y-17666674D01*
X4543991Y-17666674D02*
X4553515Y-17685722D01*
X4553515Y-17685722D02*
X4553515Y-17790484D01*
X4943991Y-17580960D02*
X4772563Y-17838103D01*
X5201134Y-17590484D02*
X5220182Y-17590484D01*
X5220182Y-17590484D02*
X5239229Y-17600008D01*
X5239229Y-17600008D02*
X5248753Y-17609531D01*
X5248753Y-17609531D02*
X5258277Y-17628579D01*
X5258277Y-17628579D02*
X5267801Y-17666674D01*
X5267801Y-17666674D02*
X5267801Y-17714293D01*
X5267801Y-17714293D02*
X5258277Y-17752389D01*
X5258277Y-17752389D02*
X5248753Y-17771436D01*
X5248753Y-17771436D02*
X5239229Y-17780960D01*
X5239229Y-17780960D02*
X5220182Y-17790484D01*
X5220182Y-17790484D02*
X5201134Y-17790484D01*
X5201134Y-17790484D02*
X5182087Y-17780960D01*
X5182087Y-17780960D02*
X5172563Y-17771436D01*
X5172563Y-17771436D02*
X5163039Y-17752389D01*
X5163039Y-17752389D02*
X5153515Y-17714293D01*
X5153515Y-17714293D02*
X5153515Y-17666674D01*
X5153515Y-17666674D02*
X5163039Y-17628579D01*
X5163039Y-17628579D02*
X5172563Y-17609531D01*
X5172563Y-17609531D02*
X5182087Y-17600008D01*
X5182087Y-17600008D02*
X5201134Y-17590484D01*
X5353515Y-17771436D02*
X5363039Y-17780960D01*
X5363039Y-17780960D02*
X5353515Y-17790484D01*
X5353515Y-17790484D02*
X5343991Y-17780960D01*
X5343991Y-17780960D02*
X5353515Y-17771436D01*
X5353515Y-17771436D02*
X5353515Y-17790484D01*
X5553515Y-17790484D02*
X5439229Y-17790484D01*
X5496372Y-17790484D02*
X5496372Y-17590484D01*
X5496372Y-17590484D02*
X5477325Y-17619055D01*
X5477325Y-17619055D02*
X5458277Y-17638103D01*
X5458277Y-17638103D02*
X5439229Y-17647627D01*
X5620182Y-17590484D02*
X5743991Y-17590484D01*
X5743991Y-17590484D02*
X5677325Y-17666674D01*
X5677325Y-17666674D02*
X5705896Y-17666674D01*
X5705896Y-17666674D02*
X5724944Y-17676198D01*
X5724944Y-17676198D02*
X5734467Y-17685722D01*
X5734467Y-17685722D02*
X5743991Y-17704770D01*
X5743991Y-17704770D02*
X5743991Y-17752389D01*
X5743991Y-17752389D02*
X5734467Y-17771436D01*
X5734467Y-17771436D02*
X5724944Y-17780960D01*
X5724944Y-17780960D02*
X5705896Y-17790484D01*
X5705896Y-17790484D02*
X5648753Y-17790484D01*
X5648753Y-17790484D02*
X5629706Y-17780960D01*
X5629706Y-17780960D02*
X5620182Y-17771436D01*
X5839229Y-17790484D02*
X5877325Y-17790484D01*
X5877325Y-17790484D02*
X5896372Y-17780960D01*
X5896372Y-17780960D02*
X5905896Y-17771436D01*
X5905896Y-17771436D02*
X5924944Y-17742865D01*
X5924944Y-17742865D02*
X5934467Y-17704770D01*
X5934467Y-17704770D02*
X5934467Y-17628579D01*
X5934467Y-17628579D02*
X5924944Y-17609531D01*
X5924944Y-17609531D02*
X5915420Y-17600008D01*
X5915420Y-17600008D02*
X5896372Y-17590484D01*
X5896372Y-17590484D02*
X5858277Y-17590484D01*
X5858277Y-17590484D02*
X5839229Y-17600008D01*
X5839229Y-17600008D02*
X5829706Y-17609531D01*
X5829706Y-17609531D02*
X5820182Y-17628579D01*
X5820182Y-17628579D02*
X5820182Y-17676198D01*
X5820182Y-17676198D02*
X5829706Y-17695246D01*
X5829706Y-17695246D02*
X5839229Y-17704770D01*
X5839229Y-17704770D02*
X5858277Y-17714293D01*
X5858277Y-17714293D02*
X5896372Y-17714293D01*
X5896372Y-17714293D02*
X5915420Y-17704770D01*
X5915420Y-17704770D02*
X5924944Y-17695246D01*
X5924944Y-17695246D02*
X5934467Y-17676198D01*
X6048753Y-17676198D02*
X6029706Y-17666674D01*
X6029706Y-17666674D02*
X6020182Y-17657150D01*
X6020182Y-17657150D02*
X6010658Y-17638103D01*
X6010658Y-17638103D02*
X6010658Y-17628579D01*
X6010658Y-17628579D02*
X6020182Y-17609531D01*
X6020182Y-17609531D02*
X6029706Y-17600008D01*
X6029706Y-17600008D02*
X6048753Y-17590484D01*
X6048753Y-17590484D02*
X6086848Y-17590484D01*
X6086848Y-17590484D02*
X6105896Y-17600008D01*
X6105896Y-17600008D02*
X6115420Y-17609531D01*
X6115420Y-17609531D02*
X6124944Y-17628579D01*
X6124944Y-17628579D02*
X6124944Y-17638103D01*
X6124944Y-17638103D02*
X6115420Y-17657150D01*
X6115420Y-17657150D02*
X6105896Y-17666674D01*
X6105896Y-17666674D02*
X6086848Y-17676198D01*
X6086848Y-17676198D02*
X6048753Y-17676198D01*
X6048753Y-17676198D02*
X6029706Y-17685722D01*
X6029706Y-17685722D02*
X6020182Y-17695246D01*
X6020182Y-17695246D02*
X6010658Y-17714293D01*
X6010658Y-17714293D02*
X6010658Y-17752389D01*
X6010658Y-17752389D02*
X6020182Y-17771436D01*
X6020182Y-17771436D02*
X6029706Y-17780960D01*
X6029706Y-17780960D02*
X6048753Y-17790484D01*
X6048753Y-17790484D02*
X6086848Y-17790484D01*
X6086848Y-17790484D02*
X6105896Y-17780960D01*
X6105896Y-17780960D02*
X6115420Y-17771436D01*
X6115420Y-17771436D02*
X6124944Y-17752389D01*
X6124944Y-17752389D02*
X6124944Y-17714293D01*
X6124944Y-17714293D02*
X6115420Y-17695246D01*
X6115420Y-17695246D02*
X6105896Y-17685722D01*
X6105896Y-17685722D02*
X6086848Y-17676198D01*
X6201134Y-17590484D02*
X6201134Y-17628579D01*
X6277325Y-17590484D02*
X6277325Y-17628579D01*
X6572563Y-17866674D02*
X6563039Y-17857150D01*
X6563039Y-17857150D02*
X6543991Y-17828579D01*
X6543991Y-17828579D02*
X6534468Y-17809531D01*
X6534468Y-17809531D02*
X6524944Y-17780960D01*
X6524944Y-17780960D02*
X6515420Y-17733341D01*
X6515420Y-17733341D02*
X6515420Y-17695246D01*
X6515420Y-17695246D02*
X6524944Y-17647627D01*
X6524944Y-17647627D02*
X6534468Y-17619055D01*
X6534468Y-17619055D02*
X6543991Y-17600008D01*
X6543991Y-17600008D02*
X6563039Y-17571436D01*
X6563039Y-17571436D02*
X6572563Y-17561912D01*
X6639229Y-17609531D02*
X6648753Y-17600008D01*
X6648753Y-17600008D02*
X6667801Y-17590484D01*
X6667801Y-17590484D02*
X6715420Y-17590484D01*
X6715420Y-17590484D02*
X6734468Y-17600008D01*
X6734468Y-17600008D02*
X6743991Y-17609531D01*
X6743991Y-17609531D02*
X6753515Y-17628579D01*
X6753515Y-17628579D02*
X6753515Y-17647627D01*
X6753515Y-17647627D02*
X6743991Y-17676198D01*
X6743991Y-17676198D02*
X6629706Y-17790484D01*
X6629706Y-17790484D02*
X6753515Y-17790484D01*
X6991610Y-17790484D02*
X6991610Y-17590484D01*
X7077325Y-17790484D02*
X7077325Y-17685722D01*
X7077325Y-17685722D02*
X7067801Y-17666674D01*
X7067801Y-17666674D02*
X7048753Y-17657150D01*
X7048753Y-17657150D02*
X7020182Y-17657150D01*
X7020182Y-17657150D02*
X7001134Y-17666674D01*
X7001134Y-17666674D02*
X6991610Y-17676198D01*
X7201134Y-17790484D02*
X7182087Y-17780960D01*
X7182087Y-17780960D02*
X7172563Y-17771436D01*
X7172563Y-17771436D02*
X7163039Y-17752389D01*
X7163039Y-17752389D02*
X7163039Y-17695246D01*
X7163039Y-17695246D02*
X7172563Y-17676198D01*
X7172563Y-17676198D02*
X7182087Y-17666674D01*
X7182087Y-17666674D02*
X7201134Y-17657150D01*
X7201134Y-17657150D02*
X7229706Y-17657150D01*
X7229706Y-17657150D02*
X7248753Y-17666674D01*
X7248753Y-17666674D02*
X7258277Y-17676198D01*
X7258277Y-17676198D02*
X7267801Y-17695246D01*
X7267801Y-17695246D02*
X7267801Y-17752389D01*
X7267801Y-17752389D02*
X7258277Y-17771436D01*
X7258277Y-17771436D02*
X7248753Y-17780960D01*
X7248753Y-17780960D02*
X7229706Y-17790484D01*
X7229706Y-17790484D02*
X7201134Y-17790484D01*
X7382087Y-17790484D02*
X7363039Y-17780960D01*
X7363039Y-17780960D02*
X7353515Y-17761912D01*
X7353515Y-17761912D02*
X7353515Y-17590484D01*
X7534468Y-17780960D02*
X7515420Y-17790484D01*
X7515420Y-17790484D02*
X7477325Y-17790484D01*
X7477325Y-17790484D02*
X7458277Y-17780960D01*
X7458277Y-17780960D02*
X7448753Y-17761912D01*
X7448753Y-17761912D02*
X7448753Y-17685722D01*
X7448753Y-17685722D02*
X7458277Y-17666674D01*
X7458277Y-17666674D02*
X7477325Y-17657150D01*
X7477325Y-17657150D02*
X7515420Y-17657150D01*
X7515420Y-17657150D02*
X7534468Y-17666674D01*
X7534468Y-17666674D02*
X7543991Y-17685722D01*
X7543991Y-17685722D02*
X7543991Y-17704770D01*
X7543991Y-17704770D02*
X7448753Y-17723817D01*
X7620182Y-17780960D02*
X7639230Y-17790484D01*
X7639230Y-17790484D02*
X7677325Y-17790484D01*
X7677325Y-17790484D02*
X7696372Y-17780960D01*
X7696372Y-17780960D02*
X7705896Y-17761912D01*
X7705896Y-17761912D02*
X7705896Y-17752389D01*
X7705896Y-17752389D02*
X7696372Y-17733341D01*
X7696372Y-17733341D02*
X7677325Y-17723817D01*
X7677325Y-17723817D02*
X7648753Y-17723817D01*
X7648753Y-17723817D02*
X7629706Y-17714293D01*
X7629706Y-17714293D02*
X7620182Y-17695246D01*
X7620182Y-17695246D02*
X7620182Y-17685722D01*
X7620182Y-17685722D02*
X7629706Y-17666674D01*
X7629706Y-17666674D02*
X7648753Y-17657150D01*
X7648753Y-17657150D02*
X7677325Y-17657150D01*
X7677325Y-17657150D02*
X7696372Y-17666674D01*
X7772563Y-17866674D02*
X7782087Y-17857150D01*
X7782087Y-17857150D02*
X7801134Y-17828579D01*
X7801134Y-17828579D02*
X7810658Y-17809531D01*
X7810658Y-17809531D02*
X7820182Y-17780960D01*
X7820182Y-17780960D02*
X7829706Y-17733341D01*
X7829706Y-17733341D02*
X7829706Y-17695246D01*
X7829706Y-17695246D02*
X7820182Y-17647627D01*
X7820182Y-17647627D02*
X7810658Y-17619055D01*
X7810658Y-17619055D02*
X7801134Y-17600008D01*
X7801134Y-17600008D02*
X7782087Y-17571436D01*
X7782087Y-17571436D02*
X7772563Y-17561912D01*
X8134468Y-17866674D02*
X8124944Y-17857150D01*
X8124944Y-17857150D02*
X8105896Y-17828579D01*
X8105896Y-17828579D02*
X8096372Y-17809531D01*
X8096372Y-17809531D02*
X8086849Y-17780960D01*
X8086849Y-17780960D02*
X8077325Y-17733341D01*
X8077325Y-17733341D02*
X8077325Y-17695246D01*
X8077325Y-17695246D02*
X8086849Y-17647627D01*
X8086849Y-17647627D02*
X8096372Y-17619055D01*
X8096372Y-17619055D02*
X8105896Y-17600008D01*
X8105896Y-17600008D02*
X8124944Y-17571436D01*
X8124944Y-17571436D02*
X8134468Y-17561912D01*
X8210658Y-17657150D02*
X8210658Y-17790484D01*
X8210658Y-17676198D02*
X8220182Y-17666674D01*
X8220182Y-17666674D02*
X8239230Y-17657150D01*
X8239230Y-17657150D02*
X8267801Y-17657150D01*
X8267801Y-17657150D02*
X8286849Y-17666674D01*
X8286849Y-17666674D02*
X8296372Y-17685722D01*
X8296372Y-17685722D02*
X8296372Y-17790484D01*
X8420182Y-17790484D02*
X8401134Y-17780960D01*
X8401134Y-17780960D02*
X8391611Y-17771436D01*
X8391611Y-17771436D02*
X8382087Y-17752389D01*
X8382087Y-17752389D02*
X8382087Y-17695246D01*
X8382087Y-17695246D02*
X8391611Y-17676198D01*
X8391611Y-17676198D02*
X8401134Y-17666674D01*
X8401134Y-17666674D02*
X8420182Y-17657150D01*
X8420182Y-17657150D02*
X8448754Y-17657150D01*
X8448754Y-17657150D02*
X8467801Y-17666674D01*
X8467801Y-17666674D02*
X8477325Y-17676198D01*
X8477325Y-17676198D02*
X8486849Y-17695246D01*
X8486849Y-17695246D02*
X8486849Y-17752389D01*
X8486849Y-17752389D02*
X8477325Y-17771436D01*
X8477325Y-17771436D02*
X8467801Y-17780960D01*
X8467801Y-17780960D02*
X8448754Y-17790484D01*
X8448754Y-17790484D02*
X8420182Y-17790484D01*
X8543992Y-17657150D02*
X8620182Y-17657150D01*
X8572563Y-17590484D02*
X8572563Y-17761912D01*
X8572563Y-17761912D02*
X8582087Y-17780960D01*
X8582087Y-17780960D02*
X8601134Y-17790484D01*
X8601134Y-17790484D02*
X8620182Y-17790484D01*
X8839230Y-17657150D02*
X8839230Y-17857150D01*
X8839230Y-17666674D02*
X8858277Y-17657150D01*
X8858277Y-17657150D02*
X8896373Y-17657150D01*
X8896373Y-17657150D02*
X8915420Y-17666674D01*
X8915420Y-17666674D02*
X8924944Y-17676198D01*
X8924944Y-17676198D02*
X8934468Y-17695246D01*
X8934468Y-17695246D02*
X8934468Y-17752389D01*
X8934468Y-17752389D02*
X8924944Y-17771436D01*
X8924944Y-17771436D02*
X8915420Y-17780960D01*
X8915420Y-17780960D02*
X8896373Y-17790484D01*
X8896373Y-17790484D02*
X8858277Y-17790484D01*
X8858277Y-17790484D02*
X8839230Y-17780960D01*
X9048754Y-17790484D02*
X9029706Y-17780960D01*
X9029706Y-17780960D02*
X9020182Y-17761912D01*
X9020182Y-17761912D02*
X9020182Y-17590484D01*
X9210658Y-17790484D02*
X9210658Y-17685722D01*
X9210658Y-17685722D02*
X9201135Y-17666674D01*
X9201135Y-17666674D02*
X9182087Y-17657150D01*
X9182087Y-17657150D02*
X9143992Y-17657150D01*
X9143992Y-17657150D02*
X9124944Y-17666674D01*
X9210658Y-17780960D02*
X9191611Y-17790484D01*
X9191611Y-17790484D02*
X9143992Y-17790484D01*
X9143992Y-17790484D02*
X9124944Y-17780960D01*
X9124944Y-17780960D02*
X9115420Y-17761912D01*
X9115420Y-17761912D02*
X9115420Y-17742865D01*
X9115420Y-17742865D02*
X9124944Y-17723817D01*
X9124944Y-17723817D02*
X9143992Y-17714293D01*
X9143992Y-17714293D02*
X9191611Y-17714293D01*
X9191611Y-17714293D02*
X9210658Y-17704770D01*
X9277325Y-17657150D02*
X9353515Y-17657150D01*
X9305896Y-17590484D02*
X9305896Y-17761912D01*
X9305896Y-17761912D02*
X9315420Y-17780960D01*
X9315420Y-17780960D02*
X9334468Y-17790484D01*
X9334468Y-17790484D02*
X9353515Y-17790484D01*
X9496373Y-17780960D02*
X9477325Y-17790484D01*
X9477325Y-17790484D02*
X9439230Y-17790484D01*
X9439230Y-17790484D02*
X9420182Y-17780960D01*
X9420182Y-17780960D02*
X9410658Y-17761912D01*
X9410658Y-17761912D02*
X9410658Y-17685722D01*
X9410658Y-17685722D02*
X9420182Y-17666674D01*
X9420182Y-17666674D02*
X9439230Y-17657150D01*
X9439230Y-17657150D02*
X9477325Y-17657150D01*
X9477325Y-17657150D02*
X9496373Y-17666674D01*
X9496373Y-17666674D02*
X9505896Y-17685722D01*
X9505896Y-17685722D02*
X9505896Y-17704770D01*
X9505896Y-17704770D02*
X9410658Y-17723817D01*
X9677325Y-17790484D02*
X9677325Y-17590484D01*
X9677325Y-17780960D02*
X9658277Y-17790484D01*
X9658277Y-17790484D02*
X9620182Y-17790484D01*
X9620182Y-17790484D02*
X9601135Y-17780960D01*
X9601135Y-17780960D02*
X9591611Y-17771436D01*
X9591611Y-17771436D02*
X9582087Y-17752389D01*
X9582087Y-17752389D02*
X9582087Y-17695246D01*
X9582087Y-17695246D02*
X9591611Y-17676198D01*
X9591611Y-17676198D02*
X9601135Y-17666674D01*
X9601135Y-17666674D02*
X9620182Y-17657150D01*
X9620182Y-17657150D02*
X9658277Y-17657150D01*
X9658277Y-17657150D02*
X9677325Y-17666674D01*
X9753516Y-17866674D02*
X9763039Y-17857150D01*
X9763039Y-17857150D02*
X9782087Y-17828579D01*
X9782087Y-17828579D02*
X9791611Y-17809531D01*
X9791611Y-17809531D02*
X9801135Y-17780960D01*
X9801135Y-17780960D02*
X9810658Y-17733341D01*
X9810658Y-17733341D02*
X9810658Y-17695246D01*
X9810658Y-17695246D02*
X9801135Y-17647627D01*
X9801135Y-17647627D02*
X9791611Y-17619055D01*
X9791611Y-17619055D02*
X9782087Y-17600008D01*
X9782087Y-17600008D02*
X9763039Y-17571436D01*
X9763039Y-17571436D02*
X9753516Y-17561912D01*
X2897500Y-18119000D02*
X2997500Y-18019000D01*
X2897500Y-17919000D01*
X2797500Y-18019000D01*
X2897500Y-18119000D01*
X3343991Y-17977150D02*
X3343991Y-18110484D01*
X3296372Y-17900960D02*
X3248753Y-18043817D01*
X3248753Y-18043817D02*
X3372562Y-18043817D01*
X3448753Y-18091436D02*
X3458277Y-18100960D01*
X3458277Y-18100960D02*
X3448753Y-18110484D01*
X3448753Y-18110484D02*
X3439229Y-18100960D01*
X3439229Y-18100960D02*
X3448753Y-18091436D01*
X3448753Y-18091436D02*
X3448753Y-18110484D01*
X3524943Y-17910484D02*
X3648753Y-17910484D01*
X3648753Y-17910484D02*
X3582086Y-17986674D01*
X3582086Y-17986674D02*
X3610658Y-17986674D01*
X3610658Y-17986674D02*
X3629705Y-17996198D01*
X3629705Y-17996198D02*
X3639229Y-18005722D01*
X3639229Y-18005722D02*
X3648753Y-18024770D01*
X3648753Y-18024770D02*
X3648753Y-18072389D01*
X3648753Y-18072389D02*
X3639229Y-18091436D01*
X3639229Y-18091436D02*
X3629705Y-18100960D01*
X3629705Y-18100960D02*
X3610658Y-18110484D01*
X3610658Y-18110484D02*
X3553515Y-18110484D01*
X3553515Y-18110484D02*
X3534467Y-18100960D01*
X3534467Y-18100960D02*
X3524943Y-18091436D01*
X3772562Y-17910484D02*
X3791610Y-17910484D01*
X3791610Y-17910484D02*
X3810658Y-17920008D01*
X3810658Y-17920008D02*
X3820182Y-17929531D01*
X3820182Y-17929531D02*
X3829705Y-17948579D01*
X3829705Y-17948579D02*
X3839229Y-17986674D01*
X3839229Y-17986674D02*
X3839229Y-18034293D01*
X3839229Y-18034293D02*
X3829705Y-18072389D01*
X3829705Y-18072389D02*
X3820182Y-18091436D01*
X3820182Y-18091436D02*
X3810658Y-18100960D01*
X3810658Y-18100960D02*
X3791610Y-18110484D01*
X3791610Y-18110484D02*
X3772562Y-18110484D01*
X3772562Y-18110484D02*
X3753515Y-18100960D01*
X3753515Y-18100960D02*
X3743991Y-18091436D01*
X3743991Y-18091436D02*
X3734467Y-18072389D01*
X3734467Y-18072389D02*
X3724943Y-18034293D01*
X3724943Y-18034293D02*
X3724943Y-17986674D01*
X3724943Y-17986674D02*
X3734467Y-17948579D01*
X3734467Y-17948579D02*
X3743991Y-17929531D01*
X3743991Y-17929531D02*
X3753515Y-17920008D01*
X3753515Y-17920008D02*
X3772562Y-17910484D01*
X3963039Y-17910484D02*
X3982086Y-17910484D01*
X3982086Y-17910484D02*
X4001134Y-17920008D01*
X4001134Y-17920008D02*
X4010658Y-17929531D01*
X4010658Y-17929531D02*
X4020182Y-17948579D01*
X4020182Y-17948579D02*
X4029705Y-17986674D01*
X4029705Y-17986674D02*
X4029705Y-18034293D01*
X4029705Y-18034293D02*
X4020182Y-18072389D01*
X4020182Y-18072389D02*
X4010658Y-18091436D01*
X4010658Y-18091436D02*
X4001134Y-18100960D01*
X4001134Y-18100960D02*
X3982086Y-18110484D01*
X3982086Y-18110484D02*
X3963039Y-18110484D01*
X3963039Y-18110484D02*
X3943991Y-18100960D01*
X3943991Y-18100960D02*
X3934467Y-18091436D01*
X3934467Y-18091436D02*
X3924943Y-18072389D01*
X3924943Y-18072389D02*
X3915420Y-18034293D01*
X3915420Y-18034293D02*
X3915420Y-17986674D01*
X3915420Y-17986674D02*
X3924943Y-17948579D01*
X3924943Y-17948579D02*
X3934467Y-17929531D01*
X3934467Y-17929531D02*
X3943991Y-17920008D01*
X3943991Y-17920008D02*
X3963039Y-17910484D01*
X4115420Y-18110484D02*
X4115420Y-17977150D01*
X4115420Y-17996198D02*
X4124943Y-17986674D01*
X4124943Y-17986674D02*
X4143991Y-17977150D01*
X4143991Y-17977150D02*
X4172563Y-17977150D01*
X4172563Y-17977150D02*
X4191610Y-17986674D01*
X4191610Y-17986674D02*
X4201134Y-18005722D01*
X4201134Y-18005722D02*
X4201134Y-18110484D01*
X4201134Y-18005722D02*
X4210658Y-17986674D01*
X4210658Y-17986674D02*
X4229705Y-17977150D01*
X4229705Y-17977150D02*
X4258277Y-17977150D01*
X4258277Y-17977150D02*
X4277325Y-17986674D01*
X4277325Y-17986674D02*
X4286848Y-18005722D01*
X4286848Y-18005722D02*
X4286848Y-18110484D01*
X4382086Y-18110484D02*
X4382086Y-17977150D01*
X4382086Y-17996198D02*
X4391610Y-17986674D01*
X4391610Y-17986674D02*
X4410658Y-17977150D01*
X4410658Y-17977150D02*
X4439229Y-17977150D01*
X4439229Y-17977150D02*
X4458277Y-17986674D01*
X4458277Y-17986674D02*
X4467801Y-18005722D01*
X4467801Y-18005722D02*
X4467801Y-18110484D01*
X4467801Y-18005722D02*
X4477325Y-17986674D01*
X4477325Y-17986674D02*
X4496372Y-17977150D01*
X4496372Y-17977150D02*
X4524944Y-17977150D01*
X4524944Y-17977150D02*
X4543991Y-17986674D01*
X4543991Y-17986674D02*
X4553515Y-18005722D01*
X4553515Y-18005722D02*
X4553515Y-18110484D01*
X4943991Y-17900960D02*
X4772563Y-18158103D01*
X5201134Y-17910484D02*
X5220182Y-17910484D01*
X5220182Y-17910484D02*
X5239229Y-17920008D01*
X5239229Y-17920008D02*
X5248753Y-17929531D01*
X5248753Y-17929531D02*
X5258277Y-17948579D01*
X5258277Y-17948579D02*
X5267801Y-17986674D01*
X5267801Y-17986674D02*
X5267801Y-18034293D01*
X5267801Y-18034293D02*
X5258277Y-18072389D01*
X5258277Y-18072389D02*
X5248753Y-18091436D01*
X5248753Y-18091436D02*
X5239229Y-18100960D01*
X5239229Y-18100960D02*
X5220182Y-18110484D01*
X5220182Y-18110484D02*
X5201134Y-18110484D01*
X5201134Y-18110484D02*
X5182087Y-18100960D01*
X5182087Y-18100960D02*
X5172563Y-18091436D01*
X5172563Y-18091436D02*
X5163039Y-18072389D01*
X5163039Y-18072389D02*
X5153515Y-18034293D01*
X5153515Y-18034293D02*
X5153515Y-17986674D01*
X5153515Y-17986674D02*
X5163039Y-17948579D01*
X5163039Y-17948579D02*
X5172563Y-17929531D01*
X5172563Y-17929531D02*
X5182087Y-17920008D01*
X5182087Y-17920008D02*
X5201134Y-17910484D01*
X5353515Y-18091436D02*
X5363039Y-18100960D01*
X5363039Y-18100960D02*
X5353515Y-18110484D01*
X5353515Y-18110484D02*
X5343991Y-18100960D01*
X5343991Y-18100960D02*
X5353515Y-18091436D01*
X5353515Y-18091436D02*
X5353515Y-18110484D01*
X5553515Y-18110484D02*
X5439229Y-18110484D01*
X5496372Y-18110484D02*
X5496372Y-17910484D01*
X5496372Y-17910484D02*
X5477325Y-17939055D01*
X5477325Y-17939055D02*
X5458277Y-17958103D01*
X5458277Y-17958103D02*
X5439229Y-17967627D01*
X5724944Y-17910484D02*
X5686848Y-17910484D01*
X5686848Y-17910484D02*
X5667801Y-17920008D01*
X5667801Y-17920008D02*
X5658277Y-17929531D01*
X5658277Y-17929531D02*
X5639229Y-17958103D01*
X5639229Y-17958103D02*
X5629706Y-17996198D01*
X5629706Y-17996198D02*
X5629706Y-18072389D01*
X5629706Y-18072389D02*
X5639229Y-18091436D01*
X5639229Y-18091436D02*
X5648753Y-18100960D01*
X5648753Y-18100960D02*
X5667801Y-18110484D01*
X5667801Y-18110484D02*
X5705896Y-18110484D01*
X5705896Y-18110484D02*
X5724944Y-18100960D01*
X5724944Y-18100960D02*
X5734467Y-18091436D01*
X5734467Y-18091436D02*
X5743991Y-18072389D01*
X5743991Y-18072389D02*
X5743991Y-18024770D01*
X5743991Y-18024770D02*
X5734467Y-18005722D01*
X5734467Y-18005722D02*
X5724944Y-17996198D01*
X5724944Y-17996198D02*
X5705896Y-17986674D01*
X5705896Y-17986674D02*
X5667801Y-17986674D01*
X5667801Y-17986674D02*
X5648753Y-17996198D01*
X5648753Y-17996198D02*
X5639229Y-18005722D01*
X5639229Y-18005722D02*
X5629706Y-18024770D01*
X5839229Y-18110484D02*
X5877325Y-18110484D01*
X5877325Y-18110484D02*
X5896372Y-18100960D01*
X5896372Y-18100960D02*
X5905896Y-18091436D01*
X5905896Y-18091436D02*
X5924944Y-18062865D01*
X5924944Y-18062865D02*
X5934467Y-18024770D01*
X5934467Y-18024770D02*
X5934467Y-17948579D01*
X5934467Y-17948579D02*
X5924944Y-17929531D01*
X5924944Y-17929531D02*
X5915420Y-17920008D01*
X5915420Y-17920008D02*
X5896372Y-17910484D01*
X5896372Y-17910484D02*
X5858277Y-17910484D01*
X5858277Y-17910484D02*
X5839229Y-17920008D01*
X5839229Y-17920008D02*
X5829706Y-17929531D01*
X5829706Y-17929531D02*
X5820182Y-17948579D01*
X5820182Y-17948579D02*
X5820182Y-17996198D01*
X5820182Y-17996198D02*
X5829706Y-18015246D01*
X5829706Y-18015246D02*
X5839229Y-18024770D01*
X5839229Y-18024770D02*
X5858277Y-18034293D01*
X5858277Y-18034293D02*
X5896372Y-18034293D01*
X5896372Y-18034293D02*
X5915420Y-18024770D01*
X5915420Y-18024770D02*
X5924944Y-18015246D01*
X5924944Y-18015246D02*
X5934467Y-17996198D01*
X6001134Y-17910484D02*
X6124944Y-17910484D01*
X6124944Y-17910484D02*
X6058277Y-17986674D01*
X6058277Y-17986674D02*
X6086848Y-17986674D01*
X6086848Y-17986674D02*
X6105896Y-17996198D01*
X6105896Y-17996198D02*
X6115420Y-18005722D01*
X6115420Y-18005722D02*
X6124944Y-18024770D01*
X6124944Y-18024770D02*
X6124944Y-18072389D01*
X6124944Y-18072389D02*
X6115420Y-18091436D01*
X6115420Y-18091436D02*
X6105896Y-18100960D01*
X6105896Y-18100960D02*
X6086848Y-18110484D01*
X6086848Y-18110484D02*
X6029706Y-18110484D01*
X6029706Y-18110484D02*
X6010658Y-18100960D01*
X6010658Y-18100960D02*
X6001134Y-18091436D01*
X6201134Y-17910484D02*
X6201134Y-17948579D01*
X6277325Y-17910484D02*
X6277325Y-17948579D01*
X6572563Y-18186674D02*
X6563039Y-18177150D01*
X6563039Y-18177150D02*
X6543991Y-18148579D01*
X6543991Y-18148579D02*
X6534468Y-18129531D01*
X6534468Y-18129531D02*
X6524944Y-18100960D01*
X6524944Y-18100960D02*
X6515420Y-18053341D01*
X6515420Y-18053341D02*
X6515420Y-18015246D01*
X6515420Y-18015246D02*
X6524944Y-17967627D01*
X6524944Y-17967627D02*
X6534468Y-17939055D01*
X6534468Y-17939055D02*
X6543991Y-17920008D01*
X6543991Y-17920008D02*
X6563039Y-17891436D01*
X6563039Y-17891436D02*
X6572563Y-17881912D01*
X6734468Y-17977150D02*
X6734468Y-18110484D01*
X6686848Y-17900960D02*
X6639229Y-18043817D01*
X6639229Y-18043817D02*
X6763039Y-18043817D01*
X6991610Y-18110484D02*
X6991610Y-17910484D01*
X7077325Y-18110484D02*
X7077325Y-18005722D01*
X7077325Y-18005722D02*
X7067801Y-17986674D01*
X7067801Y-17986674D02*
X7048753Y-17977150D01*
X7048753Y-17977150D02*
X7020182Y-17977150D01*
X7020182Y-17977150D02*
X7001134Y-17986674D01*
X7001134Y-17986674D02*
X6991610Y-17996198D01*
X7201134Y-18110484D02*
X7182087Y-18100960D01*
X7182087Y-18100960D02*
X7172563Y-18091436D01*
X7172563Y-18091436D02*
X7163039Y-18072389D01*
X7163039Y-18072389D02*
X7163039Y-18015246D01*
X7163039Y-18015246D02*
X7172563Y-17996198D01*
X7172563Y-17996198D02*
X7182087Y-17986674D01*
X7182087Y-17986674D02*
X7201134Y-17977150D01*
X7201134Y-17977150D02*
X7229706Y-17977150D01*
X7229706Y-17977150D02*
X7248753Y-17986674D01*
X7248753Y-17986674D02*
X7258277Y-17996198D01*
X7258277Y-17996198D02*
X7267801Y-18015246D01*
X7267801Y-18015246D02*
X7267801Y-18072389D01*
X7267801Y-18072389D02*
X7258277Y-18091436D01*
X7258277Y-18091436D02*
X7248753Y-18100960D01*
X7248753Y-18100960D02*
X7229706Y-18110484D01*
X7229706Y-18110484D02*
X7201134Y-18110484D01*
X7382087Y-18110484D02*
X7363039Y-18100960D01*
X7363039Y-18100960D02*
X7353515Y-18081912D01*
X7353515Y-18081912D02*
X7353515Y-17910484D01*
X7534468Y-18100960D02*
X7515420Y-18110484D01*
X7515420Y-18110484D02*
X7477325Y-18110484D01*
X7477325Y-18110484D02*
X7458277Y-18100960D01*
X7458277Y-18100960D02*
X7448753Y-18081912D01*
X7448753Y-18081912D02*
X7448753Y-18005722D01*
X7448753Y-18005722D02*
X7458277Y-17986674D01*
X7458277Y-17986674D02*
X7477325Y-17977150D01*
X7477325Y-17977150D02*
X7515420Y-17977150D01*
X7515420Y-17977150D02*
X7534468Y-17986674D01*
X7534468Y-17986674D02*
X7543991Y-18005722D01*
X7543991Y-18005722D02*
X7543991Y-18024770D01*
X7543991Y-18024770D02*
X7448753Y-18043817D01*
X7620182Y-18100960D02*
X7639230Y-18110484D01*
X7639230Y-18110484D02*
X7677325Y-18110484D01*
X7677325Y-18110484D02*
X7696372Y-18100960D01*
X7696372Y-18100960D02*
X7705896Y-18081912D01*
X7705896Y-18081912D02*
X7705896Y-18072389D01*
X7705896Y-18072389D02*
X7696372Y-18053341D01*
X7696372Y-18053341D02*
X7677325Y-18043817D01*
X7677325Y-18043817D02*
X7648753Y-18043817D01*
X7648753Y-18043817D02*
X7629706Y-18034293D01*
X7629706Y-18034293D02*
X7620182Y-18015246D01*
X7620182Y-18015246D02*
X7620182Y-18005722D01*
X7620182Y-18005722D02*
X7629706Y-17986674D01*
X7629706Y-17986674D02*
X7648753Y-17977150D01*
X7648753Y-17977150D02*
X7677325Y-17977150D01*
X7677325Y-17977150D02*
X7696372Y-17986674D01*
X7772563Y-18186674D02*
X7782087Y-18177150D01*
X7782087Y-18177150D02*
X7801134Y-18148579D01*
X7801134Y-18148579D02*
X7810658Y-18129531D01*
X7810658Y-18129531D02*
X7820182Y-18100960D01*
X7820182Y-18100960D02*
X7829706Y-18053341D01*
X7829706Y-18053341D02*
X7829706Y-18015246D01*
X7829706Y-18015246D02*
X7820182Y-17967627D01*
X7820182Y-17967627D02*
X7810658Y-17939055D01*
X7810658Y-17939055D02*
X7801134Y-17920008D01*
X7801134Y-17920008D02*
X7782087Y-17891436D01*
X7782087Y-17891436D02*
X7772563Y-17881912D01*
X8134468Y-18186674D02*
X8124944Y-18177150D01*
X8124944Y-18177150D02*
X8105896Y-18148579D01*
X8105896Y-18148579D02*
X8096372Y-18129531D01*
X8096372Y-18129531D02*
X8086849Y-18100960D01*
X8086849Y-18100960D02*
X8077325Y-18053341D01*
X8077325Y-18053341D02*
X8077325Y-18015246D01*
X8077325Y-18015246D02*
X8086849Y-17967627D01*
X8086849Y-17967627D02*
X8096372Y-17939055D01*
X8096372Y-17939055D02*
X8105896Y-17920008D01*
X8105896Y-17920008D02*
X8124944Y-17891436D01*
X8124944Y-17891436D02*
X8134468Y-17881912D01*
X8210658Y-17977150D02*
X8210658Y-18110484D01*
X8210658Y-17996198D02*
X8220182Y-17986674D01*
X8220182Y-17986674D02*
X8239230Y-17977150D01*
X8239230Y-17977150D02*
X8267801Y-17977150D01*
X8267801Y-17977150D02*
X8286849Y-17986674D01*
X8286849Y-17986674D02*
X8296372Y-18005722D01*
X8296372Y-18005722D02*
X8296372Y-18110484D01*
X8420182Y-18110484D02*
X8401134Y-18100960D01*
X8401134Y-18100960D02*
X8391611Y-18091436D01*
X8391611Y-18091436D02*
X8382087Y-18072389D01*
X8382087Y-18072389D02*
X8382087Y-18015246D01*
X8382087Y-18015246D02*
X8391611Y-17996198D01*
X8391611Y-17996198D02*
X8401134Y-17986674D01*
X8401134Y-17986674D02*
X8420182Y-17977150D01*
X8420182Y-17977150D02*
X8448754Y-17977150D01*
X8448754Y-17977150D02*
X8467801Y-17986674D01*
X8467801Y-17986674D02*
X8477325Y-17996198D01*
X8477325Y-17996198D02*
X8486849Y-18015246D01*
X8486849Y-18015246D02*
X8486849Y-18072389D01*
X8486849Y-18072389D02*
X8477325Y-18091436D01*
X8477325Y-18091436D02*
X8467801Y-18100960D01*
X8467801Y-18100960D02*
X8448754Y-18110484D01*
X8448754Y-18110484D02*
X8420182Y-18110484D01*
X8543992Y-17977150D02*
X8620182Y-17977150D01*
X8572563Y-17910484D02*
X8572563Y-18081912D01*
X8572563Y-18081912D02*
X8582087Y-18100960D01*
X8582087Y-18100960D02*
X8601134Y-18110484D01*
X8601134Y-18110484D02*
X8620182Y-18110484D01*
X8839230Y-17977150D02*
X8839230Y-18177150D01*
X8839230Y-17986674D02*
X8858277Y-17977150D01*
X8858277Y-17977150D02*
X8896373Y-17977150D01*
X8896373Y-17977150D02*
X8915420Y-17986674D01*
X8915420Y-17986674D02*
X8924944Y-17996198D01*
X8924944Y-17996198D02*
X8934468Y-18015246D01*
X8934468Y-18015246D02*
X8934468Y-18072389D01*
X8934468Y-18072389D02*
X8924944Y-18091436D01*
X8924944Y-18091436D02*
X8915420Y-18100960D01*
X8915420Y-18100960D02*
X8896373Y-18110484D01*
X8896373Y-18110484D02*
X8858277Y-18110484D01*
X8858277Y-18110484D02*
X8839230Y-18100960D01*
X9048754Y-18110484D02*
X9029706Y-18100960D01*
X9029706Y-18100960D02*
X9020182Y-18081912D01*
X9020182Y-18081912D02*
X9020182Y-17910484D01*
X9210658Y-18110484D02*
X9210658Y-18005722D01*
X9210658Y-18005722D02*
X9201135Y-17986674D01*
X9201135Y-17986674D02*
X9182087Y-17977150D01*
X9182087Y-17977150D02*
X9143992Y-17977150D01*
X9143992Y-17977150D02*
X9124944Y-17986674D01*
X9210658Y-18100960D02*
X9191611Y-18110484D01*
X9191611Y-18110484D02*
X9143992Y-18110484D01*
X9143992Y-18110484D02*
X9124944Y-18100960D01*
X9124944Y-18100960D02*
X9115420Y-18081912D01*
X9115420Y-18081912D02*
X9115420Y-18062865D01*
X9115420Y-18062865D02*
X9124944Y-18043817D01*
X9124944Y-18043817D02*
X9143992Y-18034293D01*
X9143992Y-18034293D02*
X9191611Y-18034293D01*
X9191611Y-18034293D02*
X9210658Y-18024770D01*
X9277325Y-17977150D02*
X9353515Y-17977150D01*
X9305896Y-17910484D02*
X9305896Y-18081912D01*
X9305896Y-18081912D02*
X9315420Y-18100960D01*
X9315420Y-18100960D02*
X9334468Y-18110484D01*
X9334468Y-18110484D02*
X9353515Y-18110484D01*
X9496373Y-18100960D02*
X9477325Y-18110484D01*
X9477325Y-18110484D02*
X9439230Y-18110484D01*
X9439230Y-18110484D02*
X9420182Y-18100960D01*
X9420182Y-18100960D02*
X9410658Y-18081912D01*
X9410658Y-18081912D02*
X9410658Y-18005722D01*
X9410658Y-18005722D02*
X9420182Y-17986674D01*
X9420182Y-17986674D02*
X9439230Y-17977150D01*
X9439230Y-17977150D02*
X9477325Y-17977150D01*
X9477325Y-17977150D02*
X9496373Y-17986674D01*
X9496373Y-17986674D02*
X9505896Y-18005722D01*
X9505896Y-18005722D02*
X9505896Y-18024770D01*
X9505896Y-18024770D02*
X9410658Y-18043817D01*
X9677325Y-18110484D02*
X9677325Y-17910484D01*
X9677325Y-18100960D02*
X9658277Y-18110484D01*
X9658277Y-18110484D02*
X9620182Y-18110484D01*
X9620182Y-18110484D02*
X9601135Y-18100960D01*
X9601135Y-18100960D02*
X9591611Y-18091436D01*
X9591611Y-18091436D02*
X9582087Y-18072389D01*
X9582087Y-18072389D02*
X9582087Y-18015246D01*
X9582087Y-18015246D02*
X9591611Y-17996198D01*
X9591611Y-17996198D02*
X9601135Y-17986674D01*
X9601135Y-17986674D02*
X9620182Y-17977150D01*
X9620182Y-17977150D02*
X9658277Y-17977150D01*
X9658277Y-17977150D02*
X9677325Y-17986674D01*
X9753516Y-18186674D02*
X9763039Y-18177150D01*
X9763039Y-18177150D02*
X9782087Y-18148579D01*
X9782087Y-18148579D02*
X9791611Y-18129531D01*
X9791611Y-18129531D02*
X9801135Y-18100960D01*
X9801135Y-18100960D02*
X9810658Y-18053341D01*
X9810658Y-18053341D02*
X9810658Y-18015246D01*
X9810658Y-18015246D02*
X9801135Y-17967627D01*
X9801135Y-17967627D02*
X9791611Y-17939055D01*
X9791611Y-17939055D02*
X9782087Y-17920008D01*
X9782087Y-17920008D02*
X9763039Y-17891436D01*
X9763039Y-17891436D02*
X9753516Y-17881912D01*
M02*
