G04 #@! TF.GenerationSoftware,KiCad,Pcbnew,8.0.1*
G04 #@! TF.CreationDate,2024-03-22T19:38:57+01:00*
G04 #@! TF.ProjectId,BikeCounter_SingleBoard,42696b65-436f-4756-9e74-65725f53696e,rev?*
G04 #@! TF.SameCoordinates,Original*
G04 #@! TF.FileFunction,Soldermask,Bot*
G04 #@! TF.FilePolarity,Negative*
%FSLAX46Y46*%
G04 Gerber Fmt 4.6, Leading zero omitted, Abs format (unit mm)*
G04 Created by KiCad (PCBNEW 8.0.1) date 2024-03-22 19:38:57*
%MOMM*%
%LPD*%
G01*
G04 APERTURE LIST*
%ADD10R,1.700000X1.700000*%
%ADD11O,1.700000X1.700000*%
%ADD12C,1.400000*%
%ADD13C,1.800000*%
%ADD14R,1.350000X1.350000*%
%ADD15O,1.350000X1.350000*%
%ADD16C,3.550000*%
%ADD17C,2.390000*%
%ADD18C,2.640000*%
%ADD19C,4.300000*%
%ADD20C,0.800000*%
G04 APERTURE END LIST*
D10*
X95980000Y-137181000D03*
D11*
X98520000Y-137181000D03*
X101060000Y-137181000D03*
X103600000Y-137181000D03*
X106140000Y-137181000D03*
X108680000Y-137181000D03*
X111220000Y-137181000D03*
X113760000Y-137181000D03*
X116300000Y-137181000D03*
X118840000Y-137181000D03*
X121380000Y-137181000D03*
X123920000Y-137181000D03*
X126460000Y-137181000D03*
X129000000Y-137181000D03*
X129000000Y-116861000D03*
X126460000Y-116861000D03*
X123920000Y-116861000D03*
X121380000Y-116861000D03*
X118840000Y-116861000D03*
X116300000Y-116861000D03*
X113760000Y-116861000D03*
X111220000Y-116861000D03*
X108680000Y-116861000D03*
X106140000Y-116861000D03*
X103600000Y-116861000D03*
X101060000Y-116861000D03*
X98520000Y-116861000D03*
X95980000Y-116861000D03*
D10*
X73872000Y-91364000D03*
D11*
X73872000Y-93904000D03*
X73872000Y-96444000D03*
X73872000Y-98984000D03*
D10*
X75975000Y-136611000D03*
D11*
X78515000Y-136611000D03*
D12*
X51000000Y-84500000D03*
X57200000Y-69500000D03*
D13*
X53000000Y-73000000D03*
X53000000Y-77000000D03*
X53000000Y-81000000D03*
D14*
X63000000Y-145000000D03*
D15*
X65000000Y-145000000D03*
X67000000Y-145000000D03*
X69000000Y-145000000D03*
D16*
X128180000Y-44605000D03*
X72980000Y-60345000D03*
D17*
X64780000Y-44605000D03*
D18*
X64780000Y-52475000D03*
X137000000Y-52475000D03*
D19*
X146935000Y-128490000D03*
X35065000Y-72560000D03*
D16*
X128180000Y-67605000D03*
X72980000Y-83345000D03*
D17*
X64780000Y-67605000D03*
D18*
X64780000Y-75475000D03*
X137000000Y-75475000D03*
D14*
X113000000Y-145000000D03*
D15*
X115000000Y-145000000D03*
X117000000Y-145000000D03*
X119000000Y-145000000D03*
D19*
X35065000Y-128490000D03*
X146935000Y-72560000D03*
D20*
X59000000Y-132000000D03*
X71000000Y-123500000D03*
X72000000Y-124500000D03*
X58960000Y-134540000D03*
X105000000Y-107000000D03*
X105000000Y-104500000D03*
X105000000Y-140000000D03*
X50000000Y-149000000D03*
X105000000Y-114500000D03*
X95000000Y-104500000D03*
X78000000Y-95000000D03*
X114500000Y-112500000D03*
X70000000Y-118000000D03*
X50000000Y-137000000D03*
X90000000Y-115000000D03*
X85000000Y-104500000D03*
X135000000Y-135000000D03*
X125000000Y-135000000D03*
X130000000Y-135000000D03*
X90000000Y-107000000D03*
X50000000Y-132000000D03*
X135000000Y-125000000D03*
X77000000Y-91000000D03*
X95000000Y-145000000D03*
X110000000Y-145000000D03*
X53500000Y-137000000D03*
X100000000Y-149000000D03*
X100000000Y-110000000D03*
X100000000Y-107000000D03*
X109000000Y-107000000D03*
X75000000Y-102000000D03*
X85000000Y-145000000D03*
X85000000Y-112500000D03*
X90000000Y-140000000D03*
X115000000Y-130000000D03*
X135000000Y-130000000D03*
X80000000Y-145000000D03*
X65000000Y-149000000D03*
X135000000Y-149000000D03*
X60000000Y-140000000D03*
X47500000Y-129500000D03*
X70000000Y-95000000D03*
X80000000Y-149000000D03*
X120000000Y-135000000D03*
X116500000Y-114500000D03*
X110000000Y-130000000D03*
X115000000Y-149000000D03*
X135000000Y-140000000D03*
X50000000Y-134500000D03*
X70000000Y-115000000D03*
X85000000Y-115000000D03*
X70000000Y-149000000D03*
X78000000Y-100000000D03*
X65000000Y-140000000D03*
X95000000Y-140000000D03*
X71000000Y-91000000D03*
X62500000Y-127500000D03*
X100000000Y-145000000D03*
X124500000Y-125000000D03*
X75000000Y-118000000D03*
X80000000Y-115000000D03*
X70000000Y-134500000D03*
X95000000Y-107000000D03*
X100000000Y-130000000D03*
X120000000Y-114500000D03*
X50000000Y-140000000D03*
X85000000Y-140000000D03*
X100000000Y-135000000D03*
X70000000Y-105000000D03*
X85000000Y-126000000D03*
X90000000Y-118000000D03*
X55000000Y-149000000D03*
X105000000Y-135000000D03*
X90000000Y-104500000D03*
X115000000Y-126000000D03*
X80000000Y-140000000D03*
X135000000Y-145000000D03*
X95000000Y-130000000D03*
X135000000Y-120000000D03*
X125000000Y-120000000D03*
X60000000Y-149000000D03*
X115000000Y-135000000D03*
X75000000Y-127000000D03*
X75000000Y-140000000D03*
X100000000Y-126000000D03*
X55000000Y-140000000D03*
X53500000Y-132000000D03*
X130000000Y-114500000D03*
X130000000Y-125000000D03*
X90000000Y-149000000D03*
X120000000Y-130000000D03*
X70000000Y-110000000D03*
X105000000Y-130000000D03*
X130000000Y-145000000D03*
X80000000Y-118000000D03*
X120000000Y-149000000D03*
X130000000Y-140000000D03*
X55000000Y-145000000D03*
X80000000Y-104500000D03*
X100000000Y-112500000D03*
X125000000Y-130000000D03*
X130000000Y-149000000D03*
X53500000Y-134500000D03*
X100000000Y-140000000D03*
X50000000Y-145000000D03*
X125000000Y-145000000D03*
X90000000Y-110000000D03*
X68500000Y-121000000D03*
X125500000Y-140000000D03*
X110000000Y-140000000D03*
X90000000Y-130000000D03*
X90000000Y-126000000D03*
X105000000Y-149000000D03*
X135000000Y-114500000D03*
X110000000Y-135000000D03*
X109390289Y-111256746D03*
X70000000Y-100000000D03*
X75000000Y-115000000D03*
X75000000Y-145000000D03*
X105000000Y-112500000D03*
X90000000Y-145000000D03*
X130000000Y-130000000D03*
X80000000Y-130000000D03*
X105000000Y-126000000D03*
X105000000Y-145000000D03*
X70000000Y-140000000D03*
X75000000Y-112500000D03*
X85000000Y-149000000D03*
X110000000Y-126000000D03*
X80000000Y-107000000D03*
X75000000Y-149000000D03*
X101500000Y-114500000D03*
X85000000Y-118000000D03*
X90000000Y-112500000D03*
X109000000Y-114500000D03*
X130000000Y-120000000D03*
X125000000Y-114500000D03*
X95000000Y-149000000D03*
X120000000Y-126000000D03*
X95000000Y-110000000D03*
X85000000Y-107000000D03*
X85000000Y-110000000D03*
X80000000Y-126000000D03*
X105000000Y-110000000D03*
X80000000Y-110000000D03*
X100000000Y-104500000D03*
X112000000Y-110000000D03*
X125000000Y-149000000D03*
X80000000Y-112500000D03*
X95000000Y-126000000D03*
X70000000Y-137000000D03*
X110000000Y-149000000D03*
X60000000Y-145000000D03*
X85000000Y-130000000D03*
X70000000Y-122500000D03*
X59000000Y-129500000D03*
X73000000Y-125500000D03*
X59000000Y-137080000D03*
M02*
