G04 #@! TF.GenerationSoftware,KiCad,Pcbnew,8.0.1*
G04 #@! TF.CreationDate,2024-03-22T19:38:57+01:00*
G04 #@! TF.ProjectId,BikeCounter_SingleBoard,42696b65-436f-4756-9e74-65725f53696e,rev?*
G04 #@! TF.SameCoordinates,Original*
G04 #@! TF.FileFunction,Profile,NP*
%FSLAX46Y46*%
G04 Gerber Fmt 4.6, Leading zero omitted, Abs format (unit mm)*
G04 Created by KiCad (PCBNEW 8.0.1) date 2024-03-22 19:38:58*
%MOMM*%
%LPD*%
G01*
G04 APERTURE LIST*
G04 #@! TA.AperFunction,Profile*
%ADD10C,0.050000*%
G04 #@! TD*
G04 APERTURE END LIST*
D10*
X30000000Y-139525000D02*
X30000000Y-100525000D01*
X37000000Y-142525000D02*
X33000000Y-142525000D01*
X33000000Y-142525000D02*
G75*
G02*
X30000000Y-139525000I0J3000000D01*
G01*
X142000000Y-42525000D02*
X142000000Y-55525000D01*
X43000000Y-161525000D02*
G75*
G02*
X40000000Y-158525000I0J3000000D01*
G01*
X30000000Y-61525000D02*
G75*
G02*
X33000000Y-58525000I3000000J0D01*
G01*
X152000000Y-139525000D02*
G75*
G02*
X149000000Y-142525000I-3000000J0D01*
G01*
X142000000Y-158525000D02*
X142000000Y-145525000D01*
X145000000Y-58525000D02*
X149000000Y-58525000D01*
X149000000Y-58525000D02*
G75*
G02*
X152000000Y-61525000I0J-3000000D01*
G01*
X37000000Y-58525000D02*
X33000000Y-58525000D01*
X30000000Y-61525000D02*
X30000000Y-100525000D01*
X152000000Y-61525000D02*
X152000000Y-100525000D01*
X40000000Y-55525000D02*
G75*
G02*
X37000000Y-58525000I-3000000J0D01*
G01*
X142000000Y-158525000D02*
G75*
G02*
X139000000Y-161525000I-3000000J0D01*
G01*
X43000000Y-161525000D02*
X91000000Y-161525000D01*
X139000000Y-39525000D02*
G75*
G02*
X142000000Y-42525000I0J-3000000D01*
G01*
X40000000Y-42525000D02*
G75*
G02*
X43000000Y-39525000I3000000J0D01*
G01*
X145000000Y-142525000D02*
X149000000Y-142525000D01*
X142000000Y-145525000D02*
G75*
G02*
X145000000Y-142525000I3000000J0D01*
G01*
X40000000Y-158525000D02*
X40000000Y-145525000D01*
X139000000Y-39525000D02*
X91000000Y-39525000D01*
X40000000Y-42525000D02*
X40000000Y-55525000D01*
X152000000Y-139525000D02*
X152000000Y-100525000D01*
X145000000Y-58525000D02*
G75*
G02*
X142000000Y-55525000I0J3000000D01*
G01*
X43000000Y-39525000D02*
X91000000Y-39525000D01*
X139000000Y-161525000D02*
X91000000Y-161525000D01*
X37000000Y-142525000D02*
G75*
G02*
X40000000Y-145525000I0J-3000000D01*
G01*
M02*
