G04 #@! TF.GenerationSoftware,KiCad,Pcbnew,8.0.1*
G04 #@! TF.CreationDate,2024-03-22T19:38:57+01:00*
G04 #@! TF.ProjectId,BikeCounter_SingleBoard,42696b65-436f-4756-9e74-65725f53696e,rev?*
G04 #@! TF.SameCoordinates,Original*
G04 #@! TF.FileFunction,Copper,L1,Top*
G04 #@! TF.FilePolarity,Positive*
%FSLAX46Y46*%
G04 Gerber Fmt 4.6, Leading zero omitted, Abs format (unit mm)*
G04 Created by KiCad (PCBNEW 8.0.1) date 2024-03-22 19:38:57*
%MOMM*%
%LPD*%
G01*
G04 APERTURE LIST*
G04 Aperture macros list*
%AMRoundRect*
0 Rectangle with rounded corners*
0 $1 Rounding radius*
0 $2 $3 $4 $5 $6 $7 $8 $9 X,Y pos of 4 corners*
0 Add a 4 corners polygon primitive as box body*
4,1,4,$2,$3,$4,$5,$6,$7,$8,$9,$2,$3,0*
0 Add four circle primitives for the rounded corners*
1,1,$1+$1,$2,$3*
1,1,$1+$1,$4,$5*
1,1,$1+$1,$6,$7*
1,1,$1+$1,$8,$9*
0 Add four rect primitives between the rounded corners*
20,1,$1+$1,$2,$3,$4,$5,0*
20,1,$1+$1,$4,$5,$6,$7,0*
20,1,$1+$1,$6,$7,$8,$9,0*
20,1,$1+$1,$8,$9,$2,$3,0*%
G04 Aperture macros list end*
G04 #@! TA.AperFunction,SMDPad,CuDef*
%ADD10RoundRect,0.250000X-0.400000X-0.625000X0.400000X-0.625000X0.400000X0.625000X-0.400000X0.625000X0*%
G04 #@! TD*
G04 #@! TA.AperFunction,ComponentPad*
%ADD11R,1.700000X1.700000*%
G04 #@! TD*
G04 #@! TA.AperFunction,ComponentPad*
%ADD12O,1.700000X1.700000*%
G04 #@! TD*
G04 #@! TA.AperFunction,SMDPad,CuDef*
%ADD13RoundRect,0.250000X0.475000X-0.337500X0.475000X0.337500X-0.475000X0.337500X-0.475000X-0.337500X0*%
G04 #@! TD*
G04 #@! TA.AperFunction,SMDPad,CuDef*
%ADD14RoundRect,0.250000X0.625000X-0.400000X0.625000X0.400000X-0.625000X0.400000X-0.625000X-0.400000X0*%
G04 #@! TD*
G04 #@! TA.AperFunction,SMDPad,CuDef*
%ADD15R,2.440000X1.120000*%
G04 #@! TD*
G04 #@! TA.AperFunction,ComponentPad*
%ADD16C,1.800000*%
G04 #@! TD*
G04 #@! TA.AperFunction,ComponentPad*
%ADD17R,1.350000X1.350000*%
G04 #@! TD*
G04 #@! TA.AperFunction,ComponentPad*
%ADD18O,1.350000X1.350000*%
G04 #@! TD*
G04 #@! TA.AperFunction,WasherPad*
%ADD19C,3.550000*%
G04 #@! TD*
G04 #@! TA.AperFunction,WasherPad*
%ADD20C,2.390000*%
G04 #@! TD*
G04 #@! TA.AperFunction,ComponentPad*
%ADD21C,2.640000*%
G04 #@! TD*
G04 #@! TA.AperFunction,ViaPad*
%ADD22C,0.800000*%
G04 #@! TD*
G04 #@! TA.AperFunction,Conductor*
%ADD23C,0.500000*%
G04 #@! TD*
G04 #@! TA.AperFunction,Conductor*
%ADD24C,2.000000*%
G04 #@! TD*
G04 APERTURE END LIST*
D10*
X62000000Y-137000000D03*
X65100000Y-137000000D03*
X62000000Y-134460000D03*
X65100000Y-134460000D03*
D11*
X95980000Y-137181000D03*
D12*
X98520000Y-137181000D03*
X101060000Y-137181000D03*
X103600000Y-137181000D03*
X106140000Y-137181000D03*
X108680000Y-137181000D03*
X111220000Y-137181000D03*
X113760000Y-137181000D03*
X116300000Y-137181000D03*
X118840000Y-137181000D03*
X121380000Y-137181000D03*
X123920000Y-137181000D03*
X126460000Y-137181000D03*
X129000000Y-137181000D03*
X129000000Y-116861000D03*
X126460000Y-116861000D03*
X123920000Y-116861000D03*
X121380000Y-116861000D03*
X118840000Y-116861000D03*
X116300000Y-116861000D03*
X113760000Y-116861000D03*
X111220000Y-116861000D03*
X108680000Y-116861000D03*
X106140000Y-116861000D03*
X103600000Y-116861000D03*
X101060000Y-116861000D03*
X98520000Y-116861000D03*
X95980000Y-116861000D03*
D13*
X91016000Y-137512500D03*
X91016000Y-135437500D03*
D14*
X83650000Y-137562500D03*
X83650000Y-134462500D03*
X87460000Y-137562500D03*
X87460000Y-134462500D03*
D15*
X56000000Y-137080000D03*
X56000000Y-134540000D03*
X56000000Y-132000000D03*
X47390000Y-132000000D03*
X47390000Y-134540000D03*
X47390000Y-137080000D03*
D10*
X62000000Y-131920000D03*
X65100000Y-131920000D03*
X72322000Y-108890000D03*
X75422000Y-108890000D03*
X72322000Y-105080000D03*
X75422000Y-105080000D03*
D11*
X73872000Y-91364000D03*
D12*
X73872000Y-93904000D03*
X73872000Y-96444000D03*
X73872000Y-98984000D03*
D11*
X75975000Y-136611000D03*
D12*
X78515000Y-136611000D03*
D16*
X53000000Y-73000000D03*
X53000000Y-77000000D03*
X53000000Y-81000000D03*
D17*
X63000000Y-145000000D03*
D18*
X65000000Y-145000000D03*
X67000000Y-145000000D03*
X69000000Y-145000000D03*
D19*
X72980000Y-60345000D03*
D20*
X64780000Y-44605000D03*
D21*
X64780000Y-52475000D03*
X137000000Y-52475000D03*
D19*
X72980000Y-83345000D03*
D20*
X64780000Y-67605000D03*
D21*
X64780000Y-75475000D03*
X137000000Y-75475000D03*
D17*
X113000000Y-145000000D03*
D18*
X115000000Y-145000000D03*
X117000000Y-145000000D03*
X119000000Y-145000000D03*
D22*
X59000000Y-132000000D03*
X71000000Y-123500000D03*
X72000000Y-124500000D03*
X58960000Y-134540000D03*
X105000000Y-107000000D03*
X105000000Y-104500000D03*
X105000000Y-140000000D03*
X50000000Y-149000000D03*
X105000000Y-114500000D03*
X95000000Y-104500000D03*
X78000000Y-95000000D03*
X114500000Y-112500000D03*
X70000000Y-118000000D03*
X50000000Y-137000000D03*
X90000000Y-115000000D03*
X85000000Y-104500000D03*
X135000000Y-135000000D03*
X125000000Y-135000000D03*
X130000000Y-135000000D03*
X90000000Y-107000000D03*
X50000000Y-132000000D03*
X135000000Y-125000000D03*
X77000000Y-91000000D03*
X95000000Y-145000000D03*
X110000000Y-145000000D03*
X53500000Y-137000000D03*
X100000000Y-149000000D03*
X100000000Y-110000000D03*
X100000000Y-107000000D03*
X109000000Y-107000000D03*
X75000000Y-102000000D03*
X85000000Y-145000000D03*
X85000000Y-112500000D03*
X90000000Y-140000000D03*
X115000000Y-130000000D03*
X135000000Y-130000000D03*
X80000000Y-145000000D03*
X65000000Y-149000000D03*
X135000000Y-149000000D03*
X60000000Y-140000000D03*
X47500000Y-129500000D03*
X70000000Y-95000000D03*
X80000000Y-149000000D03*
X120000000Y-135000000D03*
X116500000Y-114500000D03*
X110000000Y-130000000D03*
X115000000Y-149000000D03*
X135000000Y-140000000D03*
X50000000Y-134500000D03*
X70000000Y-115000000D03*
X85000000Y-115000000D03*
X70000000Y-149000000D03*
X78000000Y-100000000D03*
X65000000Y-140000000D03*
X95000000Y-140000000D03*
X71000000Y-91000000D03*
X62500000Y-127500000D03*
X100000000Y-145000000D03*
X124500000Y-125000000D03*
X75000000Y-118000000D03*
X80000000Y-115000000D03*
X70000000Y-134500000D03*
X95000000Y-107000000D03*
X100000000Y-130000000D03*
X120000000Y-114500000D03*
X50000000Y-140000000D03*
X85000000Y-140000000D03*
X100000000Y-135000000D03*
X70000000Y-105000000D03*
X85000000Y-126000000D03*
X90000000Y-118000000D03*
X55000000Y-149000000D03*
X105000000Y-135000000D03*
X90000000Y-104500000D03*
X115000000Y-126000000D03*
X80000000Y-140000000D03*
X135000000Y-145000000D03*
X95000000Y-130000000D03*
X135000000Y-120000000D03*
X125000000Y-120000000D03*
X60000000Y-149000000D03*
X115000000Y-135000000D03*
X75000000Y-127000000D03*
X75000000Y-140000000D03*
X100000000Y-126000000D03*
X55000000Y-140000000D03*
X53500000Y-132000000D03*
X130000000Y-114500000D03*
X130000000Y-125000000D03*
X90000000Y-149000000D03*
X120000000Y-130000000D03*
X70000000Y-110000000D03*
X105000000Y-130000000D03*
X130000000Y-145000000D03*
X80000000Y-118000000D03*
X120000000Y-149000000D03*
X130000000Y-140000000D03*
X55000000Y-145000000D03*
X80000000Y-104500000D03*
X100000000Y-112500000D03*
X125000000Y-130000000D03*
X130000000Y-149000000D03*
X53500000Y-134500000D03*
X100000000Y-140000000D03*
X50000000Y-145000000D03*
X125000000Y-145000000D03*
X90000000Y-110000000D03*
X68500000Y-121000000D03*
X125500000Y-140000000D03*
X110000000Y-140000000D03*
X90000000Y-130000000D03*
X90000000Y-126000000D03*
X105000000Y-149000000D03*
X135000000Y-114500000D03*
X110000000Y-135000000D03*
X109390289Y-111256746D03*
X70000000Y-100000000D03*
X75000000Y-115000000D03*
X75000000Y-145000000D03*
X105000000Y-112500000D03*
X90000000Y-145000000D03*
X130000000Y-130000000D03*
X80000000Y-130000000D03*
X105000000Y-126000000D03*
X105000000Y-145000000D03*
X70000000Y-140000000D03*
X75000000Y-112500000D03*
X85000000Y-149000000D03*
X110000000Y-126000000D03*
X80000000Y-107000000D03*
X75000000Y-149000000D03*
X101500000Y-114500000D03*
X85000000Y-118000000D03*
X90000000Y-112500000D03*
X109000000Y-114500000D03*
X130000000Y-120000000D03*
X125000000Y-114500000D03*
X95000000Y-149000000D03*
X120000000Y-126000000D03*
X95000000Y-110000000D03*
X85000000Y-107000000D03*
X85000000Y-110000000D03*
X80000000Y-126000000D03*
X105000000Y-110000000D03*
X80000000Y-110000000D03*
X100000000Y-104500000D03*
X112000000Y-110000000D03*
X125000000Y-149000000D03*
X80000000Y-112500000D03*
X95000000Y-126000000D03*
X70000000Y-137000000D03*
X110000000Y-149000000D03*
X60000000Y-145000000D03*
X85000000Y-130000000D03*
X70000000Y-122500000D03*
X59000000Y-129500000D03*
X73000000Y-125500000D03*
X59000000Y-137080000D03*
D23*
X72384500Y-92851500D02*
X72384500Y-105080000D01*
X73872000Y-91364000D02*
X72384500Y-92851500D01*
X72322000Y-109322000D02*
X74256500Y-111256500D01*
X74256500Y-111256500D02*
X95455500Y-111256500D01*
X72322000Y-108890000D02*
X72322000Y-109322000D01*
X95455500Y-111256500D02*
X101060000Y-116861000D01*
X72384500Y-108890000D02*
X72384500Y-105080000D01*
X56000000Y-132000000D02*
X59000000Y-132000000D01*
X73000000Y-121500000D02*
X116741000Y-121500000D01*
X71000000Y-123500000D02*
X73000000Y-121500000D01*
X59000000Y-132000000D02*
X61920000Y-132000000D01*
X61920000Y-132000000D02*
X62000000Y-131920000D01*
X116741000Y-121500000D02*
X121380000Y-116861000D01*
X58960000Y-134540000D02*
X56000000Y-134540000D01*
X61920000Y-134540000D02*
X62000000Y-134460000D01*
X58960000Y-134540000D02*
X61920000Y-134540000D01*
X117781000Y-123000000D02*
X123920000Y-116861000D01*
X72000000Y-124500000D02*
X73500000Y-123000000D01*
X73500000Y-123000000D02*
X117781000Y-123000000D01*
X87460000Y-134525000D02*
X90091000Y-134525000D01*
X90091000Y-134525000D02*
X91016000Y-135450000D01*
X87460000Y-134525000D02*
X87460000Y-134425000D01*
X117000000Y-141561000D02*
X121380000Y-137181000D01*
X117000000Y-145000000D02*
X117000000Y-141561000D01*
X115701000Y-120000000D02*
X118840000Y-116861000D01*
X59000000Y-129500000D02*
X49890000Y-129500000D01*
X47390000Y-137080000D02*
X47390000Y-132000000D01*
X49890000Y-129500000D02*
X47390000Y-132000000D01*
X70000000Y-122500000D02*
X72500000Y-120000000D01*
X72500000Y-120000000D02*
X115701000Y-120000000D01*
X116300000Y-137181000D02*
X111481000Y-142000000D01*
X66000000Y-142000000D02*
X63000000Y-145000000D01*
X111481000Y-142000000D02*
X66000000Y-142000000D01*
X113000000Y-145000000D02*
X113000000Y-143021000D01*
X113000000Y-143021000D02*
X118840000Y-137181000D01*
X69000000Y-147000000D02*
X67000000Y-145000000D01*
X123920000Y-137181000D02*
X123920000Y-143080000D01*
X120000000Y-147000000D02*
X69000000Y-147000000D01*
X123920000Y-143080000D02*
X120000000Y-147000000D01*
X87460000Y-137500000D02*
X91016000Y-137500000D01*
X84485000Y-134525000D02*
X87460000Y-137500000D01*
X96962500Y-135111000D02*
X98520000Y-136668500D01*
X91016000Y-137512500D02*
X93417500Y-135111000D01*
X98520000Y-136668500D02*
X98520000Y-137181000D01*
X83650000Y-134525000D02*
X84485000Y-134525000D01*
X93417500Y-135111000D02*
X96962500Y-135111000D01*
X118821000Y-124500000D02*
X126460000Y-116861000D01*
X59000000Y-137080000D02*
X61920000Y-137080000D01*
X74000000Y-124500000D02*
X118821000Y-124500000D01*
X59000000Y-137080000D02*
X56000000Y-137080000D01*
X61920000Y-137080000D02*
X62000000Y-137000000D01*
X73000000Y-125500000D02*
X74000000Y-124500000D01*
X76158000Y-96190000D02*
X76158000Y-104344000D01*
X105281000Y-105842000D02*
X116300000Y-116861000D01*
X76158000Y-104344000D02*
X75422000Y-105080000D01*
X75422000Y-105080000D02*
X76184000Y-105842000D01*
X76184000Y-105842000D02*
X105281000Y-105842000D01*
X73872000Y-93904000D02*
X76158000Y-96190000D01*
X73872000Y-107402500D02*
X75359500Y-108890000D01*
X75422000Y-108890000D02*
X75930000Y-108382000D01*
X75359500Y-108890000D02*
X75867500Y-108382000D01*
X73872000Y-98984000D02*
X73872000Y-107402500D01*
X105281000Y-108382000D02*
X113760000Y-116861000D01*
X75930000Y-108382000D02*
X105281000Y-108382000D01*
D24*
X75611000Y-136611000D02*
X75975000Y-136611000D01*
X53000000Y-77000000D02*
X59000000Y-83000000D01*
D23*
X78364000Y-139000000D02*
X75975000Y-136611000D01*
X82212500Y-139000000D02*
X78364000Y-139000000D01*
D24*
X59000000Y-120000000D02*
X75611000Y-136611000D01*
X59000000Y-83000000D02*
X59000000Y-120000000D01*
X75823500Y-136611000D02*
X75975000Y-136611000D01*
D23*
X83650000Y-137562500D02*
X82212500Y-139000000D01*
D24*
X62000000Y-84500000D02*
X62000000Y-119000000D01*
X137000000Y-75475000D02*
X133475000Y-79000000D01*
X78515000Y-135515000D02*
X78515000Y-136611000D01*
X133475000Y-79000000D02*
X67500000Y-79000000D01*
X62000000Y-119000000D02*
X78515000Y-135515000D01*
X67500000Y-79000000D02*
X62000000Y-84500000D01*
X137000000Y-52475000D02*
X137000000Y-75475000D01*
X62000000Y-64000000D02*
X59000000Y-64000000D01*
X59000000Y-64000000D02*
X53000000Y-70000000D01*
X53000000Y-70000000D02*
X53000000Y-73000000D01*
X62000000Y-72695000D02*
X64780000Y-75475000D01*
X62000000Y-64000000D02*
X62000000Y-72695000D01*
X64780000Y-52475000D02*
X62000000Y-55255000D01*
X62000000Y-55255000D02*
X62000000Y-64000000D01*
G04 #@! TA.AperFunction,Conductor*
G36*
X116139548Y-138531509D02*
G01*
X116202432Y-138561959D01*
X116238872Y-138621574D01*
X116237297Y-138691426D01*
X116206819Y-138741499D01*
X113870838Y-141077481D01*
X112516484Y-142431835D01*
X112463658Y-142484660D01*
X112410833Y-142537485D01*
X112327829Y-142661709D01*
X112327822Y-142661722D01*
X112270650Y-142799749D01*
X112270647Y-142799759D01*
X112241500Y-142946291D01*
X112241500Y-143727330D01*
X112221815Y-143794369D01*
X112169011Y-143840124D01*
X112160835Y-143843511D01*
X112078795Y-143874111D01*
X111961739Y-143961739D01*
X111874111Y-144078795D01*
X111823011Y-144215795D01*
X111823011Y-144215797D01*
X111816500Y-144276345D01*
X111816500Y-145723654D01*
X111823011Y-145784202D01*
X111823011Y-145784204D01*
X111871573Y-145914399D01*
X111874111Y-145921204D01*
X111961739Y-146038261D01*
X111961741Y-146038262D01*
X111965429Y-146043189D01*
X111989846Y-146108653D01*
X111974995Y-146176926D01*
X111925590Y-146226332D01*
X111866162Y-146241500D01*
X69662730Y-146241500D01*
X69595691Y-146221815D01*
X69549936Y-146169011D01*
X69539992Y-146099853D01*
X69569017Y-146036297D01*
X69597452Y-146012073D01*
X69711130Y-145941685D01*
X69711131Y-145941685D01*
X69872054Y-145794985D01*
X70003284Y-145621208D01*
X70100348Y-145426280D01*
X70150505Y-145250000D01*
X69315686Y-145250000D01*
X69320080Y-145245606D01*
X69372741Y-145154394D01*
X69400000Y-145052661D01*
X69400000Y-144947339D01*
X69372741Y-144845606D01*
X69320080Y-144754394D01*
X69315686Y-144750000D01*
X70150505Y-144750000D01*
X70150505Y-144749999D01*
X70100348Y-144573719D01*
X70003284Y-144378791D01*
X69872054Y-144205014D01*
X69711131Y-144058314D01*
X69525987Y-143943677D01*
X69525985Y-143943676D01*
X69322931Y-143865013D01*
X69322921Y-143865010D01*
X69250001Y-143851378D01*
X69250000Y-143851379D01*
X69250000Y-144684314D01*
X69245606Y-144679920D01*
X69154394Y-144627259D01*
X69052661Y-144600000D01*
X68947339Y-144600000D01*
X68845606Y-144627259D01*
X68754394Y-144679920D01*
X68750000Y-144684314D01*
X68750000Y-143851379D01*
X68749998Y-143851378D01*
X68677078Y-143865010D01*
X68677068Y-143865013D01*
X68474014Y-143943676D01*
X68474012Y-143943677D01*
X68288869Y-144058314D01*
X68288868Y-144058314D01*
X68127944Y-144205014D01*
X68104278Y-144236354D01*
X68048169Y-144277989D01*
X67978457Y-144282680D01*
X67917275Y-144248937D01*
X67906371Y-144236353D01*
X67890849Y-144215799D01*
X67878364Y-144199266D01*
X67716273Y-144051501D01*
X67571303Y-143961739D01*
X67529792Y-143936036D01*
X67529790Y-143936035D01*
X67459195Y-143908687D01*
X67325268Y-143856803D01*
X67109667Y-143816500D01*
X66890333Y-143816500D01*
X66674732Y-143856803D01*
X66653540Y-143865013D01*
X66470209Y-143936035D01*
X66470207Y-143936036D01*
X66283725Y-144051502D01*
X66121636Y-144199264D01*
X66121636Y-144199265D01*
X66098953Y-144229302D01*
X66042844Y-144270937D01*
X65973132Y-144275628D01*
X65911950Y-144241885D01*
X65901047Y-144229302D01*
X65878363Y-144199265D01*
X65878363Y-144199264D01*
X65728447Y-144062599D01*
X65716273Y-144051501D01*
X65571303Y-143961739D01*
X65529792Y-143936036D01*
X65529784Y-143936032D01*
X65423871Y-143895001D01*
X65368470Y-143852428D01*
X65344880Y-143786661D01*
X65360592Y-143718581D01*
X65380981Y-143691698D01*
X66277862Y-142794819D01*
X66339185Y-142761334D01*
X66365543Y-142758500D01*
X111555706Y-142758500D01*
X111628976Y-142743925D01*
X111628977Y-142743925D01*
X111647419Y-142740256D01*
X111702247Y-142729351D01*
X111840284Y-142672174D01*
X111964515Y-142589166D01*
X115993824Y-138559855D01*
X116055145Y-138526372D01*
X116101909Y-138525229D01*
X116139548Y-138531509D01*
G37*
G04 #@! TD.AperFunction*
G04 #@! TA.AperFunction,Conductor*
G36*
X122731905Y-137854515D02*
G01*
X122753804Y-137879787D01*
X122844278Y-138018268D01*
X122844283Y-138018273D01*
X122844284Y-138018276D01*
X122996756Y-138183902D01*
X122996760Y-138183906D01*
X122996763Y-138183908D01*
X122996766Y-138183911D01*
X123113662Y-138274895D01*
X123154475Y-138331605D01*
X123161500Y-138372748D01*
X123161500Y-142714457D01*
X123141815Y-142781496D01*
X123125181Y-142802138D01*
X120240455Y-145686863D01*
X120179132Y-145720348D01*
X120109440Y-145715364D01*
X120053507Y-145673492D01*
X120029090Y-145608028D01*
X120041774Y-145543910D01*
X120100348Y-145426279D01*
X120150505Y-145250000D01*
X119315686Y-145250000D01*
X119320080Y-145245606D01*
X119372741Y-145154394D01*
X119400000Y-145052661D01*
X119400000Y-144947339D01*
X119372741Y-144845606D01*
X119320080Y-144754394D01*
X119315686Y-144750000D01*
X120150505Y-144750000D01*
X120150505Y-144749999D01*
X120100348Y-144573719D01*
X120003284Y-144378791D01*
X119872054Y-144205014D01*
X119711131Y-144058314D01*
X119525987Y-143943677D01*
X119525985Y-143943676D01*
X119322931Y-143865013D01*
X119322921Y-143865010D01*
X119250001Y-143851378D01*
X119250000Y-143851379D01*
X119250000Y-144684314D01*
X119245606Y-144679920D01*
X119154394Y-144627259D01*
X119052661Y-144600000D01*
X118947339Y-144600000D01*
X118845606Y-144627259D01*
X118754394Y-144679920D01*
X118750000Y-144684314D01*
X118750000Y-143851379D01*
X118749998Y-143851378D01*
X118677078Y-143865010D01*
X118677068Y-143865013D01*
X118474014Y-143943676D01*
X118474012Y-143943677D01*
X118288869Y-144058314D01*
X118288868Y-144058314D01*
X118127944Y-144205014D01*
X118104278Y-144236354D01*
X118048169Y-144277989D01*
X117978457Y-144282680D01*
X117917275Y-144248937D01*
X117906371Y-144236353D01*
X117878364Y-144199266D01*
X117798961Y-144126880D01*
X117762680Y-144067168D01*
X117758500Y-144035243D01*
X117758500Y-141926542D01*
X117778185Y-141859503D01*
X117794814Y-141838866D01*
X121073824Y-138559855D01*
X121135145Y-138526372D01*
X121181909Y-138525229D01*
X121267431Y-138539500D01*
X121267432Y-138539500D01*
X121492569Y-138539500D01*
X121714635Y-138502444D01*
X121927574Y-138429342D01*
X122125576Y-138322189D01*
X122303240Y-138183906D01*
X122455722Y-138018268D01*
X122546193Y-137879790D01*
X122599338Y-137834437D01*
X122668569Y-137825013D01*
X122731905Y-137854515D01*
G37*
G04 #@! TD.AperFunction*
G04 #@! TA.AperFunction,Conductor*
G36*
X104982496Y-109160185D02*
G01*
X105003138Y-109176819D01*
X111126819Y-115300500D01*
X111160304Y-115361823D01*
X111155320Y-115431515D01*
X111113448Y-115487448D01*
X111059548Y-115510490D01*
X110885361Y-115539556D01*
X110672430Y-115612656D01*
X110672419Y-115612661D01*
X110474427Y-115719808D01*
X110474422Y-115719812D01*
X110296761Y-115858092D01*
X110296756Y-115858097D01*
X110144284Y-116023723D01*
X110144276Y-116023734D01*
X110053808Y-116162206D01*
X110000662Y-116207562D01*
X109931431Y-116216986D01*
X109868095Y-116187484D01*
X109846192Y-116162206D01*
X109755723Y-116023734D01*
X109755715Y-116023723D01*
X109603243Y-115858097D01*
X109603238Y-115858092D01*
X109425577Y-115719812D01*
X109425572Y-115719808D01*
X109227580Y-115612661D01*
X109227577Y-115612659D01*
X109227574Y-115612658D01*
X109227571Y-115612657D01*
X109227569Y-115612656D01*
X109014637Y-115539556D01*
X108792569Y-115502500D01*
X108567431Y-115502500D01*
X108345362Y-115539556D01*
X108132430Y-115612656D01*
X108132419Y-115612661D01*
X107934427Y-115719808D01*
X107934422Y-115719812D01*
X107756761Y-115858092D01*
X107756756Y-115858097D01*
X107604284Y-116023723D01*
X107604276Y-116023734D01*
X107513808Y-116162206D01*
X107460662Y-116207562D01*
X107391431Y-116216986D01*
X107328095Y-116187484D01*
X107306192Y-116162206D01*
X107215723Y-116023734D01*
X107215715Y-116023723D01*
X107063243Y-115858097D01*
X107063238Y-115858092D01*
X106885577Y-115719812D01*
X106885572Y-115719808D01*
X106687580Y-115612661D01*
X106687577Y-115612659D01*
X106687574Y-115612658D01*
X106687571Y-115612657D01*
X106687569Y-115612656D01*
X106474637Y-115539556D01*
X106252569Y-115502500D01*
X106027431Y-115502500D01*
X105805362Y-115539556D01*
X105592430Y-115612656D01*
X105592419Y-115612661D01*
X105394427Y-115719808D01*
X105394422Y-115719812D01*
X105216761Y-115858092D01*
X105216756Y-115858097D01*
X105064284Y-116023723D01*
X105064276Y-116023734D01*
X104970251Y-116167650D01*
X104917105Y-116213007D01*
X104847873Y-116222430D01*
X104784538Y-116192928D01*
X104764868Y-116170951D01*
X104638113Y-115989926D01*
X104638108Y-115989920D01*
X104471082Y-115822894D01*
X104277578Y-115687399D01*
X104063492Y-115587570D01*
X104063486Y-115587567D01*
X103850000Y-115530364D01*
X103850000Y-116427988D01*
X103792993Y-116395075D01*
X103665826Y-116361000D01*
X103534174Y-116361000D01*
X103407007Y-116395075D01*
X103350000Y-116427988D01*
X103350000Y-115530364D01*
X103349999Y-115530364D01*
X103136513Y-115587567D01*
X103136507Y-115587570D01*
X102922422Y-115687399D01*
X102922420Y-115687400D01*
X102728926Y-115822886D01*
X102728920Y-115822891D01*
X102561891Y-115989920D01*
X102561890Y-115989922D01*
X102435131Y-116170952D01*
X102380554Y-116214577D01*
X102311055Y-116221769D01*
X102248701Y-116190247D01*
X102229752Y-116167656D01*
X102135722Y-116023732D01*
X102135715Y-116023725D01*
X102135715Y-116023723D01*
X101983243Y-115858097D01*
X101983238Y-115858092D01*
X101805577Y-115719812D01*
X101805572Y-115719808D01*
X101607580Y-115612661D01*
X101607577Y-115612659D01*
X101607574Y-115612658D01*
X101607571Y-115612657D01*
X101607569Y-115612656D01*
X101394637Y-115539556D01*
X101172569Y-115502500D01*
X100947431Y-115502500D01*
X100947430Y-115502500D01*
X100861910Y-115516769D01*
X100792545Y-115508386D01*
X100753822Y-115482141D01*
X95939018Y-110667336D01*
X95939017Y-110667335D01*
X95876899Y-110625830D01*
X95814784Y-110584326D01*
X95676747Y-110527149D01*
X95676739Y-110527147D01*
X95603476Y-110512574D01*
X95530209Y-110498000D01*
X95530206Y-110498000D01*
X76035327Y-110498000D01*
X75968288Y-110478315D01*
X75922533Y-110425511D01*
X75912589Y-110356353D01*
X75941614Y-110292797D01*
X75996323Y-110256294D01*
X76008134Y-110252379D01*
X76144738Y-110207115D01*
X76295652Y-110114030D01*
X76421030Y-109988652D01*
X76514115Y-109837738D01*
X76569887Y-109669426D01*
X76580500Y-109565545D01*
X76580500Y-109264500D01*
X76600185Y-109197461D01*
X76652989Y-109151706D01*
X76704500Y-109140500D01*
X104915457Y-109140500D01*
X104982496Y-109160185D01*
G37*
G04 #@! TD.AperFunction*
G04 #@! TA.AperFunction,Conductor*
G36*
X74793502Y-106428342D02*
G01*
X74867574Y-106452887D01*
X74971455Y-106463500D01*
X75711260Y-106463499D01*
X75778299Y-106483183D01*
X75780150Y-106484396D01*
X75824719Y-106514176D01*
X75962749Y-106571349D01*
X75962754Y-106571351D01*
X75962758Y-106571351D01*
X75962759Y-106571352D01*
X76109291Y-106600500D01*
X76109294Y-106600500D01*
X76109295Y-106600500D01*
X76258705Y-106600500D01*
X104915457Y-106600500D01*
X104982496Y-106620185D01*
X105003138Y-106636819D01*
X113666819Y-115300500D01*
X113700304Y-115361823D01*
X113695320Y-115431515D01*
X113653448Y-115487448D01*
X113599544Y-115510490D01*
X113561909Y-115516769D01*
X113492544Y-115508386D01*
X113453822Y-115482141D01*
X105764518Y-107792836D01*
X105764517Y-107792835D01*
X105702399Y-107751330D01*
X105640284Y-107709826D01*
X105502247Y-107652649D01*
X105502239Y-107652647D01*
X105428976Y-107638074D01*
X105355709Y-107623500D01*
X105355706Y-107623500D01*
X76261965Y-107623500D01*
X76196869Y-107605039D01*
X76144735Y-107572883D01*
X75976428Y-107517113D01*
X75872552Y-107506500D01*
X75872545Y-107506500D01*
X75100043Y-107506500D01*
X75033004Y-107486815D01*
X75012362Y-107470181D01*
X74666819Y-107124638D01*
X74633334Y-107063315D01*
X74630500Y-107036957D01*
X74630500Y-106546049D01*
X74650185Y-106479010D01*
X74702989Y-106433255D01*
X74772147Y-106423311D01*
X74793502Y-106428342D01*
G37*
G04 #@! TD.AperFunction*
G04 #@! TA.AperFunction,Conductor*
G36*
X75340963Y-99369636D02*
G01*
X75387507Y-99421746D01*
X75399500Y-99474948D01*
X75399500Y-103572500D01*
X75379815Y-103639539D01*
X75327011Y-103685294D01*
X75275500Y-103696500D01*
X74971463Y-103696500D01*
X74971446Y-103696501D01*
X74867569Y-103707113D01*
X74793502Y-103731656D01*
X74723674Y-103734057D01*
X74663633Y-103698325D01*
X74632441Y-103635804D01*
X74630500Y-103613950D01*
X74630500Y-100175748D01*
X74650185Y-100108709D01*
X74678338Y-100077895D01*
X74682481Y-100074670D01*
X74795240Y-99986906D01*
X74947722Y-99821268D01*
X75070860Y-99632791D01*
X75161296Y-99426616D01*
X75161296Y-99426614D01*
X75161944Y-99425138D01*
X75206900Y-99371652D01*
X75273635Y-99350962D01*
X75340963Y-99369636D01*
G37*
G04 #@! TD.AperFunction*
G04 #@! TA.AperFunction,Conductor*
G36*
X74502702Y-88500117D02*
G01*
X74930392Y-88518791D01*
X74941129Y-88519731D01*
X75362874Y-88575254D01*
X75373512Y-88577129D01*
X75788818Y-88669201D01*
X75799258Y-88671999D01*
X76204945Y-88799911D01*
X76215092Y-88803604D01*
X76608098Y-88966393D01*
X76617890Y-88970959D01*
X76995215Y-89167382D01*
X77004555Y-89172775D01*
X77340787Y-89386978D01*
X77363311Y-89401328D01*
X77372172Y-89407532D01*
X77709645Y-89666484D01*
X77717932Y-89673438D01*
X78031542Y-89960808D01*
X78039191Y-89968457D01*
X78326561Y-90282067D01*
X78333515Y-90290354D01*
X78592467Y-90627827D01*
X78598671Y-90636688D01*
X78827216Y-90995430D01*
X78832625Y-91004798D01*
X79029037Y-91382103D01*
X79033609Y-91391907D01*
X79196391Y-91784897D01*
X79200091Y-91795063D01*
X79327999Y-92200737D01*
X79330799Y-92211185D01*
X79422868Y-92626479D01*
X79424746Y-92637133D01*
X79480266Y-93058851D01*
X79481209Y-93069627D01*
X79499882Y-93497297D01*
X79500000Y-93502706D01*
X79500000Y-103500000D01*
X104426226Y-103500000D01*
X104431634Y-103500117D01*
X104859324Y-103518791D01*
X104870061Y-103519731D01*
X105291806Y-103575254D01*
X105302444Y-103577129D01*
X105717750Y-103669201D01*
X105728190Y-103671999D01*
X106133877Y-103799911D01*
X106144024Y-103803604D01*
X106537030Y-103966393D01*
X106546822Y-103970959D01*
X106924147Y-104167382D01*
X106933487Y-104172775D01*
X107269719Y-104386978D01*
X107292243Y-104401328D01*
X107301104Y-104407532D01*
X107638577Y-104666484D01*
X107646864Y-104673438D01*
X107962470Y-104962637D01*
X107966378Y-104966378D01*
X116500000Y-113500000D01*
X134997294Y-113500000D01*
X135002702Y-113500117D01*
X135430392Y-113518791D01*
X135441129Y-113519731D01*
X135862874Y-113575254D01*
X135873512Y-113577129D01*
X136288818Y-113669201D01*
X136299258Y-113671999D01*
X136704945Y-113799911D01*
X136715092Y-113803604D01*
X137108098Y-113966393D01*
X137117890Y-113970959D01*
X137495215Y-114167382D01*
X137504555Y-114172775D01*
X137840787Y-114386978D01*
X137863311Y-114401328D01*
X137872172Y-114407532D01*
X138209645Y-114666484D01*
X138217932Y-114673438D01*
X138531542Y-114960808D01*
X138539191Y-114968457D01*
X138826561Y-115282067D01*
X138833515Y-115290354D01*
X139092467Y-115627827D01*
X139098671Y-115636688D01*
X139151625Y-115719808D01*
X139323709Y-115989926D01*
X139327216Y-115995430D01*
X139332621Y-116004792D01*
X139419119Y-116170952D01*
X139529037Y-116382103D01*
X139533609Y-116391907D01*
X139696391Y-116784897D01*
X139700091Y-116795063D01*
X139827999Y-117200737D01*
X139830799Y-117211185D01*
X139922868Y-117626479D01*
X139924746Y-117637133D01*
X139980266Y-118058851D01*
X139981209Y-118069627D01*
X139999882Y-118497297D01*
X140000000Y-118502706D01*
X140000000Y-144997293D01*
X139999882Y-145002702D01*
X139981209Y-145430372D01*
X139980266Y-145441148D01*
X139924746Y-145862866D01*
X139922868Y-145873520D01*
X139830799Y-146288814D01*
X139827999Y-146299262D01*
X139700091Y-146704936D01*
X139696391Y-146715102D01*
X139533609Y-147108092D01*
X139529037Y-147117896D01*
X139332625Y-147495201D01*
X139327216Y-147504569D01*
X139098671Y-147863311D01*
X139092467Y-147872172D01*
X138833515Y-148209645D01*
X138826561Y-148217932D01*
X138539191Y-148531542D01*
X138531542Y-148539191D01*
X138217932Y-148826561D01*
X138209645Y-148833515D01*
X137872172Y-149092467D01*
X137863311Y-149098671D01*
X137504569Y-149327216D01*
X137495201Y-149332625D01*
X137117896Y-149529037D01*
X137108092Y-149533609D01*
X136715102Y-149696391D01*
X136704936Y-149700091D01*
X136299262Y-149827999D01*
X136288814Y-149830799D01*
X135873520Y-149922868D01*
X135862866Y-149924746D01*
X135441148Y-149980266D01*
X135430372Y-149981209D01*
X135002703Y-149999882D01*
X134997294Y-150000000D01*
X50002706Y-150000000D01*
X49997297Y-149999882D01*
X49569627Y-149981209D01*
X49558851Y-149980266D01*
X49137133Y-149924746D01*
X49126479Y-149922868D01*
X48711185Y-149830799D01*
X48700737Y-149827999D01*
X48295063Y-149700091D01*
X48284897Y-149696391D01*
X47891907Y-149533609D01*
X47882103Y-149529037D01*
X47758666Y-149464780D01*
X47504792Y-149332621D01*
X47495436Y-149327220D01*
X47316059Y-149212943D01*
X47136688Y-149098671D01*
X47127827Y-149092467D01*
X46790354Y-148833515D01*
X46782067Y-148826561D01*
X46468457Y-148539191D01*
X46460808Y-148531542D01*
X46173438Y-148217932D01*
X46166484Y-148209645D01*
X45907532Y-147872172D01*
X45901328Y-147863311D01*
X45834556Y-147758500D01*
X45672775Y-147504555D01*
X45667382Y-147495215D01*
X45470959Y-147117890D01*
X45466390Y-147108092D01*
X45303608Y-146715102D01*
X45299908Y-146704936D01*
X45172000Y-146299262D01*
X45169200Y-146288814D01*
X45158711Y-146241500D01*
X45077129Y-145873512D01*
X45075253Y-145862866D01*
X45056926Y-145723654D01*
X61816500Y-145723654D01*
X61823011Y-145784202D01*
X61823011Y-145784204D01*
X61871573Y-145914399D01*
X61874111Y-145921204D01*
X61961739Y-146038261D01*
X62078796Y-146125889D01*
X62215799Y-146176989D01*
X62243050Y-146179918D01*
X62276345Y-146183499D01*
X62276362Y-146183500D01*
X63723638Y-146183500D01*
X63723654Y-146183499D01*
X63750692Y-146180591D01*
X63784201Y-146176989D01*
X63921204Y-146125889D01*
X64038261Y-146038261D01*
X64095907Y-145961254D01*
X64151840Y-145919383D01*
X64221532Y-145914399D01*
X64278710Y-145943926D01*
X64282556Y-145947432D01*
X64283727Y-145948499D01*
X64470209Y-146063964D01*
X64674732Y-146143197D01*
X64890333Y-146183500D01*
X64890335Y-146183500D01*
X65109665Y-146183500D01*
X65109667Y-146183500D01*
X65325268Y-146143197D01*
X65529791Y-146063964D01*
X65716273Y-145948499D01*
X65878364Y-145800734D01*
X65901046Y-145770697D01*
X65957155Y-145729062D01*
X66026867Y-145724371D01*
X66088049Y-145758113D01*
X66098954Y-145770698D01*
X66121637Y-145800736D01*
X66246321Y-145914399D01*
X66283727Y-145948499D01*
X66470209Y-146063964D01*
X66674732Y-146143197D01*
X66890333Y-146183500D01*
X66890335Y-146183500D01*
X67059457Y-146183500D01*
X67126496Y-146203185D01*
X67147138Y-146219819D01*
X68410834Y-147483515D01*
X68410835Y-147483516D01*
X68516484Y-147589165D01*
X68516487Y-147589167D01*
X68516488Y-147589168D01*
X68640705Y-147672167D01*
X68640708Y-147672168D01*
X68640716Y-147672174D01*
X68640722Y-147672176D01*
X68640723Y-147672177D01*
X68721574Y-147705666D01*
X68721575Y-147705667D01*
X68745259Y-147715477D01*
X68778753Y-147729351D01*
X68804106Y-147734393D01*
X68851970Y-147743915D01*
X68851997Y-147743919D01*
X68852024Y-147743925D01*
X68925294Y-147758500D01*
X120074706Y-147758500D01*
X120147976Y-147743925D01*
X120147977Y-147743925D01*
X120166419Y-147740256D01*
X120221247Y-147729351D01*
X120359284Y-147672174D01*
X120483515Y-147589166D01*
X124403513Y-143669166D01*
X124403516Y-143669165D01*
X124509165Y-143563516D01*
X124592174Y-143439284D01*
X124649351Y-143301246D01*
X124678500Y-143154706D01*
X124678500Y-138372748D01*
X124698185Y-138305709D01*
X124726338Y-138274895D01*
X124747402Y-138258500D01*
X124843240Y-138183906D01*
X124995722Y-138018268D01*
X125086193Y-137879790D01*
X125139338Y-137834437D01*
X125208569Y-137825013D01*
X125271905Y-137854515D01*
X125293804Y-137879787D01*
X125384278Y-138018268D01*
X125384283Y-138018273D01*
X125384284Y-138018276D01*
X125536756Y-138183902D01*
X125536760Y-138183906D01*
X125714424Y-138322189D01*
X125714425Y-138322189D01*
X125714427Y-138322191D01*
X125827713Y-138383498D01*
X125912426Y-138429342D01*
X126125365Y-138502444D01*
X126347431Y-138539500D01*
X126572569Y-138539500D01*
X126794635Y-138502444D01*
X127007574Y-138429342D01*
X127205576Y-138322189D01*
X127383240Y-138183906D01*
X127535722Y-138018268D01*
X127626193Y-137879790D01*
X127679338Y-137834437D01*
X127748569Y-137825013D01*
X127811905Y-137854515D01*
X127833804Y-137879787D01*
X127924278Y-138018268D01*
X127924283Y-138018273D01*
X127924284Y-138018276D01*
X128076756Y-138183902D01*
X128076760Y-138183906D01*
X128254424Y-138322189D01*
X128254425Y-138322189D01*
X128254427Y-138322191D01*
X128367713Y-138383498D01*
X128452426Y-138429342D01*
X128665365Y-138502444D01*
X128887431Y-138539500D01*
X129112569Y-138539500D01*
X129334635Y-138502444D01*
X129547574Y-138429342D01*
X129745576Y-138322189D01*
X129923240Y-138183906D01*
X130075722Y-138018268D01*
X130198860Y-137829791D01*
X130289296Y-137623616D01*
X130344564Y-137405368D01*
X130350312Y-137336003D01*
X130363156Y-137181005D01*
X130363156Y-137180994D01*
X130344565Y-136956640D01*
X130344563Y-136956628D01*
X130314968Y-136839759D01*
X130289296Y-136738384D01*
X130198860Y-136532209D01*
X130182706Y-136507484D01*
X130094058Y-136371798D01*
X130075722Y-136343732D01*
X130075719Y-136343729D01*
X130075715Y-136343723D01*
X129923243Y-136178097D01*
X129923238Y-136178092D01*
X129745577Y-136039812D01*
X129745572Y-136039808D01*
X129547580Y-135932661D01*
X129547577Y-135932659D01*
X129547574Y-135932658D01*
X129547571Y-135932657D01*
X129547569Y-135932656D01*
X129334637Y-135859556D01*
X129112569Y-135822500D01*
X128887431Y-135822500D01*
X128665362Y-135859556D01*
X128452430Y-135932656D01*
X128452419Y-135932661D01*
X128254427Y-136039808D01*
X128254422Y-136039812D01*
X128076761Y-136178092D01*
X128076756Y-136178097D01*
X127924284Y-136343723D01*
X127924276Y-136343734D01*
X127833808Y-136482206D01*
X127780662Y-136527562D01*
X127711431Y-136536986D01*
X127648095Y-136507484D01*
X127626192Y-136482206D01*
X127554058Y-136371798D01*
X127535722Y-136343732D01*
X127535719Y-136343729D01*
X127535715Y-136343723D01*
X127383243Y-136178097D01*
X127383238Y-136178092D01*
X127205577Y-136039812D01*
X127205572Y-136039808D01*
X127007580Y-135932661D01*
X127007577Y-135932659D01*
X127007574Y-135932658D01*
X127007571Y-135932657D01*
X127007569Y-135932656D01*
X126794637Y-135859556D01*
X126572569Y-135822500D01*
X126347431Y-135822500D01*
X126125362Y-135859556D01*
X125912430Y-135932656D01*
X125912419Y-135932661D01*
X125714427Y-136039808D01*
X125714422Y-136039812D01*
X125536761Y-136178092D01*
X125536756Y-136178097D01*
X125384284Y-136343723D01*
X125384276Y-136343734D01*
X125293808Y-136482206D01*
X125240662Y-136527562D01*
X125171431Y-136536986D01*
X125108095Y-136507484D01*
X125086192Y-136482206D01*
X125014058Y-136371798D01*
X124995722Y-136343732D01*
X124995719Y-136343729D01*
X124995715Y-136343723D01*
X124843243Y-136178097D01*
X124843238Y-136178092D01*
X124665577Y-136039812D01*
X124665572Y-136039808D01*
X124467580Y-135932661D01*
X124467577Y-135932659D01*
X124467574Y-135932658D01*
X124467571Y-135932657D01*
X124467569Y-135932656D01*
X124254637Y-135859556D01*
X124032569Y-135822500D01*
X123807431Y-135822500D01*
X123585362Y-135859556D01*
X123372430Y-135932656D01*
X123372419Y-135932661D01*
X123174427Y-136039808D01*
X123174422Y-136039812D01*
X122996761Y-136178092D01*
X122996756Y-136178097D01*
X122844284Y-136343723D01*
X122844276Y-136343734D01*
X122753808Y-136482206D01*
X122700662Y-136527562D01*
X122631431Y-136536986D01*
X122568095Y-136507484D01*
X122546192Y-136482206D01*
X122474058Y-136371798D01*
X122455722Y-136343732D01*
X122455719Y-136343729D01*
X122455715Y-136343723D01*
X122303243Y-136178097D01*
X122303238Y-136178092D01*
X122125577Y-136039812D01*
X122125572Y-136039808D01*
X121927580Y-135932661D01*
X121927577Y-135932659D01*
X121927574Y-135932658D01*
X121927571Y-135932657D01*
X121927569Y-135932656D01*
X121714637Y-135859556D01*
X121492569Y-135822500D01*
X121267431Y-135822500D01*
X121045362Y-135859556D01*
X120832430Y-135932656D01*
X120832419Y-135932661D01*
X120634427Y-136039808D01*
X120634422Y-136039812D01*
X120456761Y-136178092D01*
X120456756Y-136178097D01*
X120304284Y-136343723D01*
X120304276Y-136343734D01*
X120213808Y-136482206D01*
X120160662Y-136527562D01*
X120091431Y-136536986D01*
X120028095Y-136507484D01*
X120006192Y-136482206D01*
X119934058Y-136371798D01*
X119915722Y-136343732D01*
X119915719Y-136343729D01*
X119915715Y-136343723D01*
X119763243Y-136178097D01*
X119763238Y-136178092D01*
X119585577Y-136039812D01*
X119585572Y-136039808D01*
X119387580Y-135932661D01*
X119387577Y-135932659D01*
X119387574Y-135932658D01*
X119387571Y-135932657D01*
X119387569Y-135932656D01*
X119174637Y-135859556D01*
X118952569Y-135822500D01*
X118727431Y-135822500D01*
X118505362Y-135859556D01*
X118292430Y-135932656D01*
X118292419Y-135932661D01*
X118094427Y-136039808D01*
X118094422Y-136039812D01*
X117916761Y-136178092D01*
X117916756Y-136178097D01*
X117764284Y-136343723D01*
X117764276Y-136343734D01*
X117673808Y-136482206D01*
X117620662Y-136527562D01*
X117551431Y-136536986D01*
X117488095Y-136507484D01*
X117466192Y-136482206D01*
X117394058Y-136371798D01*
X117375722Y-136343732D01*
X117375719Y-136343729D01*
X117375715Y-136343723D01*
X117223243Y-136178097D01*
X117223238Y-136178092D01*
X117045577Y-136039812D01*
X117045572Y-136039808D01*
X116847580Y-135932661D01*
X116847577Y-135932659D01*
X116847574Y-135932658D01*
X116847571Y-135932657D01*
X116847569Y-135932656D01*
X116634637Y-135859556D01*
X116412569Y-135822500D01*
X116187431Y-135822500D01*
X115965362Y-135859556D01*
X115752430Y-135932656D01*
X115752419Y-135932661D01*
X115554427Y-136039808D01*
X115554422Y-136039812D01*
X115376761Y-136178092D01*
X115376756Y-136178097D01*
X115224284Y-136343723D01*
X115224276Y-136343734D01*
X115133808Y-136482206D01*
X115080662Y-136527562D01*
X115011431Y-136536986D01*
X114948095Y-136507484D01*
X114926192Y-136482206D01*
X114854058Y-136371798D01*
X114835722Y-136343732D01*
X114835719Y-136343729D01*
X114835715Y-136343723D01*
X114683243Y-136178097D01*
X114683238Y-136178092D01*
X114505577Y-136039812D01*
X114505572Y-136039808D01*
X114307580Y-135932661D01*
X114307577Y-135932659D01*
X114307574Y-135932658D01*
X114307571Y-135932657D01*
X114307569Y-135932656D01*
X114094637Y-135859556D01*
X113872569Y-135822500D01*
X113647431Y-135822500D01*
X113425362Y-135859556D01*
X113212430Y-135932656D01*
X113212419Y-135932661D01*
X113014427Y-136039808D01*
X113014422Y-136039812D01*
X112836761Y-136178092D01*
X112836756Y-136178097D01*
X112684284Y-136343723D01*
X112684276Y-136343734D01*
X112593808Y-136482206D01*
X112540662Y-136527562D01*
X112471431Y-136536986D01*
X112408095Y-136507484D01*
X112386192Y-136482206D01*
X112314058Y-136371798D01*
X112295722Y-136343732D01*
X112295719Y-136343729D01*
X112295715Y-136343723D01*
X112143243Y-136178097D01*
X112143238Y-136178092D01*
X111965577Y-136039812D01*
X111965572Y-136039808D01*
X111767580Y-135932661D01*
X111767577Y-135932659D01*
X111767574Y-135932658D01*
X111767571Y-135932657D01*
X111767569Y-135932656D01*
X111554637Y-135859556D01*
X111332569Y-135822500D01*
X111107431Y-135822500D01*
X110885362Y-135859556D01*
X110672430Y-135932656D01*
X110672419Y-135932661D01*
X110474427Y-136039808D01*
X110474422Y-136039812D01*
X110296761Y-136178092D01*
X110296756Y-136178097D01*
X110144284Y-136343723D01*
X110144276Y-136343734D01*
X110053808Y-136482206D01*
X110000662Y-136527562D01*
X109931431Y-136536986D01*
X109868095Y-136507484D01*
X109846192Y-136482206D01*
X109774058Y-136371798D01*
X109755722Y-136343732D01*
X109755719Y-136343729D01*
X109755715Y-136343723D01*
X109603243Y-136178097D01*
X109603238Y-136178092D01*
X109425577Y-136039812D01*
X109425572Y-136039808D01*
X109227580Y-135932661D01*
X109227577Y-135932659D01*
X109227574Y-135932658D01*
X109227571Y-135932657D01*
X109227569Y-135932656D01*
X109014637Y-135859556D01*
X108792569Y-135822500D01*
X108567431Y-135822500D01*
X108345362Y-135859556D01*
X108132430Y-135932656D01*
X108132419Y-135932661D01*
X107934427Y-136039808D01*
X107934422Y-136039812D01*
X107756761Y-136178092D01*
X107756756Y-136178097D01*
X107604284Y-136343723D01*
X107604276Y-136343734D01*
X107513808Y-136482206D01*
X107460662Y-136527562D01*
X107391431Y-136536986D01*
X107328095Y-136507484D01*
X107306192Y-136482206D01*
X107234058Y-136371798D01*
X107215722Y-136343732D01*
X107215719Y-136343729D01*
X107215715Y-136343723D01*
X107063243Y-136178097D01*
X107063238Y-136178092D01*
X106885577Y-136039812D01*
X106885572Y-136039808D01*
X106687580Y-135932661D01*
X106687577Y-135932659D01*
X106687574Y-135932658D01*
X106687571Y-135932657D01*
X106687569Y-135932656D01*
X106474637Y-135859556D01*
X106252569Y-135822500D01*
X106027431Y-135822500D01*
X105805362Y-135859556D01*
X105592430Y-135932656D01*
X105592419Y-135932661D01*
X105394427Y-136039808D01*
X105394422Y-136039812D01*
X105216761Y-136178092D01*
X105216756Y-136178097D01*
X105064284Y-136343723D01*
X105064276Y-136343734D01*
X104973808Y-136482206D01*
X104920662Y-136527562D01*
X104851431Y-136536986D01*
X104788095Y-136507484D01*
X104766192Y-136482206D01*
X104694058Y-136371798D01*
X104675722Y-136343732D01*
X104675719Y-136343729D01*
X104675715Y-136343723D01*
X104523243Y-136178097D01*
X104523238Y-136178092D01*
X104345577Y-136039812D01*
X104345572Y-136039808D01*
X104147580Y-135932661D01*
X104147577Y-135932659D01*
X104147574Y-135932658D01*
X104147571Y-135932657D01*
X104147569Y-135932656D01*
X103934637Y-135859556D01*
X103712569Y-135822500D01*
X103487431Y-135822500D01*
X103265362Y-135859556D01*
X103052430Y-135932656D01*
X103052419Y-135932661D01*
X102854427Y-136039808D01*
X102854422Y-136039812D01*
X102676761Y-136178092D01*
X102676756Y-136178097D01*
X102524284Y-136343723D01*
X102524276Y-136343734D01*
X102433808Y-136482206D01*
X102380662Y-136527562D01*
X102311431Y-136536986D01*
X102248095Y-136507484D01*
X102226192Y-136482206D01*
X102154058Y-136371798D01*
X102135722Y-136343732D01*
X102135719Y-136343729D01*
X102135715Y-136343723D01*
X101983243Y-136178097D01*
X101983238Y-136178092D01*
X101805577Y-136039812D01*
X101805572Y-136039808D01*
X101607580Y-135932661D01*
X101607577Y-135932659D01*
X101607574Y-135932658D01*
X101607571Y-135932657D01*
X101607569Y-135932656D01*
X101394637Y-135859556D01*
X101172569Y-135822500D01*
X100947431Y-135822500D01*
X100725362Y-135859556D01*
X100512430Y-135932656D01*
X100512419Y-135932661D01*
X100314427Y-136039808D01*
X100314422Y-136039812D01*
X100136761Y-136178092D01*
X100136756Y-136178097D01*
X99984284Y-136343723D01*
X99984276Y-136343734D01*
X99893808Y-136482206D01*
X99840662Y-136527562D01*
X99771431Y-136536986D01*
X99708095Y-136507484D01*
X99686192Y-136482206D01*
X99614058Y-136371798D01*
X99595722Y-136343732D01*
X99595719Y-136343729D01*
X99595715Y-136343723D01*
X99443243Y-136178097D01*
X99443238Y-136178092D01*
X99265577Y-136039812D01*
X99265572Y-136039808D01*
X99067580Y-135932661D01*
X99067577Y-135932659D01*
X99067574Y-135932658D01*
X99067571Y-135932657D01*
X99067569Y-135932656D01*
X98854638Y-135859556D01*
X98808716Y-135851893D01*
X98745831Y-135821442D01*
X98741446Y-135817265D01*
X97446018Y-134521836D01*
X97446017Y-134521835D01*
X97383899Y-134480330D01*
X97321784Y-134438826D01*
X97265815Y-134415643D01*
X97183747Y-134381649D01*
X97183740Y-134381647D01*
X97096930Y-134364380D01*
X97037208Y-134352500D01*
X97037206Y-134352500D01*
X93342794Y-134352500D01*
X93342792Y-134352500D01*
X93283070Y-134364380D01*
X93283069Y-134364380D01*
X93196260Y-134381647D01*
X93196252Y-134381649D01*
X93058217Y-134438825D01*
X92933982Y-134521835D01*
X92440735Y-135015082D01*
X92379412Y-135048567D01*
X92309720Y-135043583D01*
X92253787Y-135001711D01*
X92231799Y-134953347D01*
X92230505Y-134947300D01*
X92175358Y-134780880D01*
X92175356Y-134780875D01*
X92083315Y-134631654D01*
X91959345Y-134507684D01*
X91810124Y-134415643D01*
X91810119Y-134415641D01*
X91643697Y-134360494D01*
X91643690Y-134360493D01*
X91540986Y-134350000D01*
X91266000Y-134350000D01*
X91266000Y-135563500D01*
X91246315Y-135630539D01*
X91193511Y-135676294D01*
X91142000Y-135687500D01*
X89791001Y-135687500D01*
X89791001Y-135824986D01*
X89801494Y-135927697D01*
X89856641Y-136094119D01*
X89856643Y-136094124D01*
X89948684Y-136243345D01*
X90072655Y-136367316D01*
X90078323Y-136371798D01*
X90076592Y-136373986D01*
X90114749Y-136416390D01*
X90125987Y-136485350D01*
X90098158Y-136549438D01*
X90072894Y-136571336D01*
X90073015Y-136571489D01*
X90069627Y-136574167D01*
X90068043Y-136575541D01*
X90067350Y-136575968D01*
X90067347Y-136575970D01*
X89938137Y-136705181D01*
X89876814Y-136738666D01*
X89850456Y-136741500D01*
X88785695Y-136741500D01*
X88718656Y-136721815D01*
X88688430Y-136694413D01*
X88684032Y-136688851D01*
X88684030Y-136688848D01*
X88558652Y-136563470D01*
X88409322Y-136471362D01*
X88407740Y-136470386D01*
X88407735Y-136470384D01*
X88239427Y-136414613D01*
X88135552Y-136404000D01*
X88135545Y-136404000D01*
X87488043Y-136404000D01*
X87421004Y-136384315D01*
X87400362Y-136367681D01*
X86856861Y-135824180D01*
X86823376Y-135762857D01*
X86828360Y-135693165D01*
X86870232Y-135637232D01*
X86935696Y-135612815D01*
X86944542Y-135612499D01*
X87209999Y-135612499D01*
X87210000Y-135612498D01*
X87210000Y-134712500D01*
X87710000Y-134712500D01*
X87710000Y-135612499D01*
X88134972Y-135612499D01*
X88134986Y-135612498D01*
X88237697Y-135602005D01*
X88404119Y-135546858D01*
X88404124Y-135546856D01*
X88553345Y-135454815D01*
X88677315Y-135330845D01*
X88765732Y-135187500D01*
X89791000Y-135187500D01*
X90766000Y-135187500D01*
X90766000Y-134350000D01*
X90491029Y-134350000D01*
X90491012Y-134350001D01*
X90388302Y-134360494D01*
X90221880Y-134415641D01*
X90221875Y-134415643D01*
X90072654Y-134507684D01*
X89948684Y-134631654D01*
X89856643Y-134780875D01*
X89856641Y-134780880D01*
X89801494Y-134947302D01*
X89801493Y-134947309D01*
X89791000Y-135050013D01*
X89791000Y-135187500D01*
X88765732Y-135187500D01*
X88769356Y-135181624D01*
X88769358Y-135181619D01*
X88824505Y-135015197D01*
X88824506Y-135015190D01*
X88834999Y-134912486D01*
X88835000Y-134912473D01*
X88835000Y-134712500D01*
X87710000Y-134712500D01*
X87210000Y-134712500D01*
X86085001Y-134712500D01*
X86085001Y-134752958D01*
X86065316Y-134819997D01*
X86012512Y-134865752D01*
X85943354Y-134875696D01*
X85879798Y-134846671D01*
X85873320Y-134840639D01*
X85245181Y-134212500D01*
X86085000Y-134212500D01*
X87210000Y-134212500D01*
X87210000Y-133312500D01*
X87710000Y-133312500D01*
X87710000Y-134212500D01*
X88834999Y-134212500D01*
X88834999Y-134012528D01*
X88834998Y-134012513D01*
X88824505Y-133909802D01*
X88769358Y-133743380D01*
X88769356Y-133743375D01*
X88677315Y-133594154D01*
X88553345Y-133470184D01*
X88404124Y-133378143D01*
X88404119Y-133378141D01*
X88237697Y-133322994D01*
X88237690Y-133322993D01*
X88134986Y-133312500D01*
X87710000Y-133312500D01*
X87210000Y-133312500D01*
X86785028Y-133312500D01*
X86785012Y-133312501D01*
X86682302Y-133322994D01*
X86515880Y-133378141D01*
X86515875Y-133378143D01*
X86366654Y-133470184D01*
X86242684Y-133594154D01*
X86150643Y-133743375D01*
X86150641Y-133743380D01*
X86095494Y-133909802D01*
X86095493Y-133909809D01*
X86085000Y-134012513D01*
X86085000Y-134212500D01*
X85245181Y-134212500D01*
X85063425Y-134030744D01*
X85029940Y-133969421D01*
X85027748Y-133955663D01*
X85022887Y-133908074D01*
X85022886Y-133908071D01*
X84967115Y-133739762D01*
X84874030Y-133588848D01*
X84748652Y-133463470D01*
X84610316Y-133378143D01*
X84597740Y-133370386D01*
X84597735Y-133370384D01*
X84429427Y-133314613D01*
X84325545Y-133304000D01*
X82974462Y-133304000D01*
X82974446Y-133304001D01*
X82870572Y-133314613D01*
X82702264Y-133370384D01*
X82702259Y-133370386D01*
X82551346Y-133463471D01*
X82425971Y-133588846D01*
X82332886Y-133739759D01*
X82332884Y-133739764D01*
X82277113Y-133908072D01*
X82266500Y-134011947D01*
X82266500Y-134913037D01*
X82266501Y-134913053D01*
X82277113Y-135016927D01*
X82332884Y-135185235D01*
X82332886Y-135185240D01*
X82347666Y-135209202D01*
X82425970Y-135336152D01*
X82551348Y-135461530D01*
X82702262Y-135554615D01*
X82870574Y-135610387D01*
X82974455Y-135621000D01*
X84325544Y-135620999D01*
X84429426Y-135610387D01*
X84429428Y-135610386D01*
X84432759Y-135610046D01*
X84501452Y-135622815D01*
X84533042Y-135645723D01*
X86040181Y-137152862D01*
X86073666Y-137214185D01*
X86076500Y-137240543D01*
X86076500Y-138013037D01*
X86076501Y-138013053D01*
X86087113Y-138116927D01*
X86142884Y-138285235D01*
X86142886Y-138285240D01*
X86162546Y-138317113D01*
X86235970Y-138436152D01*
X86361348Y-138561530D01*
X86512262Y-138654615D01*
X86680574Y-138710387D01*
X86784455Y-138721000D01*
X88135544Y-138720999D01*
X88239426Y-138710387D01*
X88407738Y-138654615D01*
X88558652Y-138561530D01*
X88684030Y-138436152D01*
X88728222Y-138364506D01*
X88757276Y-138317403D01*
X88809224Y-138270678D01*
X88862814Y-138258500D01*
X89832577Y-138258500D01*
X89899616Y-138278185D01*
X89938115Y-138317403D01*
X89941967Y-138323648D01*
X89941970Y-138323652D01*
X90067348Y-138449030D01*
X90218262Y-138542115D01*
X90386574Y-138597887D01*
X90490455Y-138608500D01*
X91541544Y-138608499D01*
X91645426Y-138597887D01*
X91813738Y-138542115D01*
X91964652Y-138449030D01*
X92090030Y-138323652D01*
X92183115Y-138172738D01*
X92238887Y-138004426D01*
X92249500Y-137900545D01*
X92249499Y-137403041D01*
X92269183Y-137336003D01*
X92285813Y-137315366D01*
X93695362Y-135905819D01*
X93756685Y-135872334D01*
X93783043Y-135869500D01*
X94592559Y-135869500D01*
X94659598Y-135889185D01*
X94705353Y-135941989D01*
X94715297Y-136011147D01*
X94691826Y-136067811D01*
X94679111Y-136084795D01*
X94628011Y-136221795D01*
X94628011Y-136221797D01*
X94621500Y-136282345D01*
X94621500Y-138079654D01*
X94628011Y-138140202D01*
X94628011Y-138140204D01*
X94664737Y-138238666D01*
X94679111Y-138277204D01*
X94766739Y-138394261D01*
X94883796Y-138481889D01*
X95020799Y-138532989D01*
X95048050Y-138535918D01*
X95081345Y-138539499D01*
X95081362Y-138539500D01*
X96878638Y-138539500D01*
X96878654Y-138539499D01*
X96905692Y-138536591D01*
X96939201Y-138532989D01*
X97076204Y-138481889D01*
X97193261Y-138394261D01*
X97280889Y-138277204D01*
X97326138Y-138155887D01*
X97368009Y-138099956D01*
X97433474Y-138075539D01*
X97501746Y-138090391D01*
X97533545Y-138115236D01*
X97596760Y-138183906D01*
X97774424Y-138322189D01*
X97774425Y-138322189D01*
X97774427Y-138322191D01*
X97887713Y-138383498D01*
X97972426Y-138429342D01*
X98185365Y-138502444D01*
X98407431Y-138539500D01*
X98632569Y-138539500D01*
X98854635Y-138502444D01*
X99067574Y-138429342D01*
X99265576Y-138322189D01*
X99443240Y-138183906D01*
X99595722Y-138018268D01*
X99686193Y-137879790D01*
X99739338Y-137834437D01*
X99808569Y-137825013D01*
X99871905Y-137854515D01*
X99893804Y-137879787D01*
X99984278Y-138018268D01*
X99984283Y-138018273D01*
X99984284Y-138018276D01*
X100136756Y-138183902D01*
X100136760Y-138183906D01*
X100314424Y-138322189D01*
X100314425Y-138322189D01*
X100314427Y-138322191D01*
X100427713Y-138383498D01*
X100512426Y-138429342D01*
X100725365Y-138502444D01*
X100947431Y-138539500D01*
X101172569Y-138539500D01*
X101394635Y-138502444D01*
X101607574Y-138429342D01*
X101805576Y-138322189D01*
X101983240Y-138183906D01*
X102135722Y-138018268D01*
X102226193Y-137879790D01*
X102279338Y-137834437D01*
X102348569Y-137825013D01*
X102411905Y-137854515D01*
X102433804Y-137879787D01*
X102524278Y-138018268D01*
X102524283Y-138018273D01*
X102524284Y-138018276D01*
X102676756Y-138183902D01*
X102676760Y-138183906D01*
X102854424Y-138322189D01*
X102854425Y-138322189D01*
X102854427Y-138322191D01*
X102967713Y-138383498D01*
X103052426Y-138429342D01*
X103265365Y-138502444D01*
X103487431Y-138539500D01*
X103712569Y-138539500D01*
X103934635Y-138502444D01*
X104147574Y-138429342D01*
X104345576Y-138322189D01*
X104523240Y-138183906D01*
X104675722Y-138018268D01*
X104766193Y-137879790D01*
X104819338Y-137834437D01*
X104888569Y-137825013D01*
X104951905Y-137854515D01*
X104973804Y-137879787D01*
X105064278Y-138018268D01*
X105064283Y-138018273D01*
X105064284Y-138018276D01*
X105216756Y-138183902D01*
X105216760Y-138183906D01*
X105394424Y-138322189D01*
X105394425Y-138322189D01*
X105394427Y-138322191D01*
X105507713Y-138383498D01*
X105592426Y-138429342D01*
X105805365Y-138502444D01*
X106027431Y-138539500D01*
X106252569Y-138539500D01*
X106474635Y-138502444D01*
X106687574Y-138429342D01*
X106885576Y-138322189D01*
X107063240Y-138183906D01*
X107215722Y-138018268D01*
X107306193Y-137879790D01*
X107359338Y-137834437D01*
X107428569Y-137825013D01*
X107491905Y-137854515D01*
X107513804Y-137879787D01*
X107604278Y-138018268D01*
X107604283Y-138018273D01*
X107604284Y-138018276D01*
X107756756Y-138183902D01*
X107756760Y-138183906D01*
X107934424Y-138322189D01*
X107934425Y-138322189D01*
X107934427Y-138322191D01*
X108047713Y-138383498D01*
X108132426Y-138429342D01*
X108345365Y-138502444D01*
X108567431Y-138539500D01*
X108792569Y-138539500D01*
X109014635Y-138502444D01*
X109227574Y-138429342D01*
X109425576Y-138322189D01*
X109603240Y-138183906D01*
X109755722Y-138018268D01*
X109846193Y-137879790D01*
X109899338Y-137834437D01*
X109968569Y-137825013D01*
X110031905Y-137854515D01*
X110053804Y-137879787D01*
X110144278Y-138018268D01*
X110144283Y-138018273D01*
X110144284Y-138018276D01*
X110296756Y-138183902D01*
X110296760Y-138183906D01*
X110474424Y-138322189D01*
X110474425Y-138322189D01*
X110474427Y-138322191D01*
X110587713Y-138383498D01*
X110672426Y-138429342D01*
X110885365Y-138502444D01*
X111107431Y-138539500D01*
X111332569Y-138539500D01*
X111554635Y-138502444D01*
X111767574Y-138429342D01*
X111965576Y-138322189D01*
X112143240Y-138183906D01*
X112295722Y-138018268D01*
X112386193Y-137879790D01*
X112439338Y-137834437D01*
X112508569Y-137825013D01*
X112571905Y-137854515D01*
X112593804Y-137879787D01*
X112684278Y-138018268D01*
X112684283Y-138018273D01*
X112684284Y-138018276D01*
X112836756Y-138183902D01*
X112836760Y-138183906D01*
X113014424Y-138322189D01*
X113014425Y-138322189D01*
X113014427Y-138322191D01*
X113127713Y-138383498D01*
X113212426Y-138429342D01*
X113425365Y-138502444D01*
X113599548Y-138531509D01*
X113662432Y-138561959D01*
X113698872Y-138621574D01*
X113697297Y-138691426D01*
X113666819Y-138741499D01*
X111203138Y-141205181D01*
X111141815Y-141238666D01*
X111115457Y-141241500D01*
X65925292Y-141241500D01*
X65778759Y-141270647D01*
X65778749Y-141270650D01*
X65640719Y-141327823D01*
X65516482Y-141410835D01*
X65516481Y-141410836D01*
X63147138Y-143780181D01*
X63085815Y-143813666D01*
X63059457Y-143816500D01*
X62276345Y-143816500D01*
X62215797Y-143823011D01*
X62215795Y-143823011D01*
X62078795Y-143874111D01*
X61961739Y-143961739D01*
X61874111Y-144078795D01*
X61823011Y-144215795D01*
X61823011Y-144215797D01*
X61816500Y-144276345D01*
X61816500Y-145723654D01*
X45056926Y-145723654D01*
X45019731Y-145441129D01*
X45018791Y-145430392D01*
X45000118Y-145002702D01*
X45000000Y-144997293D01*
X45000000Y-137688654D01*
X45661500Y-137688654D01*
X45668011Y-137749202D01*
X45668011Y-137749204D01*
X45714305Y-137873318D01*
X45719111Y-137886204D01*
X45806739Y-138003261D01*
X45923796Y-138090889D01*
X46060799Y-138141989D01*
X46088050Y-138144918D01*
X46121345Y-138148499D01*
X46121362Y-138148500D01*
X48658638Y-138148500D01*
X48658654Y-138148499D01*
X48685692Y-138145591D01*
X48719201Y-138141989D01*
X48856204Y-138090889D01*
X48973261Y-138003261D01*
X49060889Y-137886204D01*
X49111989Y-137749201D01*
X49115591Y-137715692D01*
X49118499Y-137688654D01*
X54271500Y-137688654D01*
X54278011Y-137749202D01*
X54278011Y-137749204D01*
X54324305Y-137873318D01*
X54329111Y-137886204D01*
X54416739Y-138003261D01*
X54533796Y-138090889D01*
X54670799Y-138141989D01*
X54698050Y-138144918D01*
X54731345Y-138148499D01*
X54731362Y-138148500D01*
X57268638Y-138148500D01*
X57268654Y-138148499D01*
X57295692Y-138145591D01*
X57329201Y-138141989D01*
X57466204Y-138090889D01*
X57583261Y-138003261D01*
X57669403Y-137888188D01*
X57725337Y-137846318D01*
X57768670Y-137838500D01*
X58458063Y-137838500D01*
X58525102Y-137858185D01*
X58530949Y-137862182D01*
X58543249Y-137871119D01*
X58609313Y-137900532D01*
X58717712Y-137948794D01*
X58904513Y-137988500D01*
X59095487Y-137988500D01*
X59282288Y-137948794D01*
X59456752Y-137871118D01*
X59469051Y-137862181D01*
X59534858Y-137838702D01*
X59541937Y-137838500D01*
X60782146Y-137838500D01*
X60849185Y-137858185D01*
X60894940Y-137910989D01*
X60899852Y-137923495D01*
X60907885Y-137947738D01*
X61000970Y-138098652D01*
X61126348Y-138224030D01*
X61277262Y-138317115D01*
X61445574Y-138372887D01*
X61549455Y-138383500D01*
X62450544Y-138383499D01*
X62554426Y-138372887D01*
X62722738Y-138317115D01*
X62873652Y-138224030D01*
X62999030Y-138098652D01*
X63092115Y-137947738D01*
X63147887Y-137779426D01*
X63158500Y-137675545D01*
X63158500Y-137250000D01*
X63950001Y-137250000D01*
X63950001Y-137674986D01*
X63960494Y-137777697D01*
X64015641Y-137944119D01*
X64015643Y-137944124D01*
X64107684Y-138093345D01*
X64231654Y-138217315D01*
X64380875Y-138309356D01*
X64380880Y-138309358D01*
X64547302Y-138364505D01*
X64547309Y-138364506D01*
X64650019Y-138374999D01*
X64849999Y-138374999D01*
X64850000Y-138374998D01*
X64850000Y-137250000D01*
X65350000Y-137250000D01*
X65350000Y-138374999D01*
X65549972Y-138374999D01*
X65549986Y-138374998D01*
X65652697Y-138364505D01*
X65819119Y-138309358D01*
X65819124Y-138309356D01*
X65968345Y-138217315D01*
X66092315Y-138093345D01*
X66184356Y-137944124D01*
X66184358Y-137944119D01*
X66239505Y-137777697D01*
X66239506Y-137777690D01*
X66249999Y-137674986D01*
X66250000Y-137674973D01*
X66250000Y-137250000D01*
X65350000Y-137250000D01*
X64850000Y-137250000D01*
X63950001Y-137250000D01*
X63158500Y-137250000D01*
X63158499Y-136750000D01*
X63950000Y-136750000D01*
X64850000Y-136750000D01*
X64850000Y-134710000D01*
X65350000Y-134710000D01*
X65350000Y-136750000D01*
X66249999Y-136750000D01*
X66249999Y-136325028D01*
X66249998Y-136325013D01*
X66239505Y-136222302D01*
X66184358Y-136055880D01*
X66184356Y-136055875D01*
X66092315Y-135906654D01*
X66003342Y-135817681D01*
X65969857Y-135756358D01*
X65974841Y-135686666D01*
X66003342Y-135642319D01*
X66092315Y-135553345D01*
X66184356Y-135404124D01*
X66184358Y-135404119D01*
X66239505Y-135237697D01*
X66239506Y-135237690D01*
X66249999Y-135134986D01*
X66250000Y-135134973D01*
X66250000Y-134710000D01*
X65350000Y-134710000D01*
X64850000Y-134710000D01*
X63950001Y-134710000D01*
X63950001Y-135134986D01*
X63960494Y-135237697D01*
X64015641Y-135404119D01*
X64015643Y-135404124D01*
X64107684Y-135553345D01*
X64196658Y-135642319D01*
X64230143Y-135703642D01*
X64225159Y-135773334D01*
X64196658Y-135817681D01*
X64107684Y-135906654D01*
X64015643Y-136055875D01*
X64015641Y-136055880D01*
X63960494Y-136222302D01*
X63960493Y-136222309D01*
X63950000Y-136325013D01*
X63950000Y-136750000D01*
X63158499Y-136750000D01*
X63158499Y-136324456D01*
X63147887Y-136220574D01*
X63092115Y-136052262D01*
X62999030Y-135901348D01*
X62915363Y-135817681D01*
X62881878Y-135756358D01*
X62886862Y-135686666D01*
X62915363Y-135642319D01*
X62955694Y-135601988D01*
X62999030Y-135558652D01*
X63092115Y-135407738D01*
X63147887Y-135239426D01*
X63158500Y-135135545D01*
X63158499Y-134210000D01*
X63950000Y-134210000D01*
X64850000Y-134210000D01*
X64850000Y-132170000D01*
X65350000Y-132170000D01*
X65350000Y-134210000D01*
X66249999Y-134210000D01*
X66249999Y-133785028D01*
X66249998Y-133785013D01*
X66239505Y-133682302D01*
X66184358Y-133515880D01*
X66184356Y-133515875D01*
X66092315Y-133366654D01*
X66003342Y-133277681D01*
X65969857Y-133216358D01*
X65974841Y-133146666D01*
X66003342Y-133102319D01*
X66092315Y-133013345D01*
X66184356Y-132864124D01*
X66184358Y-132864119D01*
X66239505Y-132697697D01*
X66239506Y-132697690D01*
X66249999Y-132594986D01*
X66250000Y-132594973D01*
X66250000Y-132170000D01*
X65350000Y-132170000D01*
X64850000Y-132170000D01*
X63950001Y-132170000D01*
X63950001Y-132594986D01*
X63960494Y-132697697D01*
X64015641Y-132864119D01*
X64015643Y-132864124D01*
X64107684Y-133013345D01*
X64196658Y-133102319D01*
X64230143Y-133163642D01*
X64225159Y-133233334D01*
X64196658Y-133277681D01*
X64107684Y-133366654D01*
X64015643Y-133515875D01*
X64015641Y-133515880D01*
X63960494Y-133682302D01*
X63960493Y-133682309D01*
X63950000Y-133785013D01*
X63950000Y-134210000D01*
X63158499Y-134210000D01*
X63158499Y-133784456D01*
X63147887Y-133680574D01*
X63092115Y-133512262D01*
X62999030Y-133361348D01*
X62915363Y-133277681D01*
X62881878Y-133216358D01*
X62886862Y-133146666D01*
X62915363Y-133102319D01*
X62955694Y-133061988D01*
X62999030Y-133018652D01*
X63092115Y-132867738D01*
X63147887Y-132699426D01*
X63158500Y-132595545D01*
X63158499Y-131670000D01*
X63950000Y-131670000D01*
X64850000Y-131670000D01*
X64850000Y-130545000D01*
X65350000Y-130545000D01*
X65350000Y-131670000D01*
X66249999Y-131670000D01*
X66249999Y-131245028D01*
X66249998Y-131245013D01*
X66239505Y-131142302D01*
X66184358Y-130975880D01*
X66184356Y-130975875D01*
X66092315Y-130826654D01*
X65968345Y-130702684D01*
X65819124Y-130610643D01*
X65819119Y-130610641D01*
X65652697Y-130555494D01*
X65652690Y-130555493D01*
X65549986Y-130545000D01*
X65350000Y-130545000D01*
X64850000Y-130545000D01*
X64650029Y-130545000D01*
X64650012Y-130545001D01*
X64547302Y-130555494D01*
X64380880Y-130610641D01*
X64380875Y-130610643D01*
X64231654Y-130702684D01*
X64107684Y-130826654D01*
X64015643Y-130975875D01*
X64015641Y-130975880D01*
X63960494Y-131142302D01*
X63960493Y-131142309D01*
X63950000Y-131245013D01*
X63950000Y-131670000D01*
X63158499Y-131670000D01*
X63158499Y-131244456D01*
X63147887Y-131140574D01*
X63092115Y-130972262D01*
X62999030Y-130821348D01*
X62873652Y-130695970D01*
X62735316Y-130610643D01*
X62722740Y-130602886D01*
X62722735Y-130602884D01*
X62554427Y-130547113D01*
X62450546Y-130536500D01*
X61549462Y-130536500D01*
X61549446Y-130536501D01*
X61445572Y-130547113D01*
X61277264Y-130602884D01*
X61277259Y-130602886D01*
X61126346Y-130695971D01*
X61000971Y-130821346D01*
X60907886Y-130972259D01*
X60907884Y-130972264D01*
X60852114Y-131140569D01*
X60851497Y-131143453D01*
X60850625Y-131145061D01*
X60849983Y-131147001D01*
X60849637Y-131146886D01*
X60818217Y-131204888D01*
X60757006Y-131238577D01*
X60730243Y-131241500D01*
X59541937Y-131241500D01*
X59474898Y-131221815D01*
X59469051Y-131217818D01*
X59456750Y-131208880D01*
X59303324Y-131140572D01*
X59282288Y-131131206D01*
X59282286Y-131131205D01*
X59095487Y-131091500D01*
X58904513Y-131091500D01*
X58717714Y-131131205D01*
X58543249Y-131208880D01*
X58530949Y-131217818D01*
X58465142Y-131241298D01*
X58458063Y-131241500D01*
X57768670Y-131241500D01*
X57701631Y-131221815D01*
X57669403Y-131191811D01*
X57583261Y-131076739D01*
X57466204Y-130989111D01*
X57430731Y-130975880D01*
X57329203Y-130938011D01*
X57268654Y-130931500D01*
X57268638Y-130931500D01*
X54731362Y-130931500D01*
X54731345Y-130931500D01*
X54670797Y-130938011D01*
X54670795Y-130938011D01*
X54533795Y-130989111D01*
X54416739Y-131076739D01*
X54329111Y-131193795D01*
X54278011Y-131330795D01*
X54278011Y-131330797D01*
X54271500Y-131391345D01*
X54271500Y-132608654D01*
X54278011Y-132669202D01*
X54278011Y-132669204D01*
X54329111Y-132806204D01*
X54416739Y-132923261D01*
X54533796Y-133010889D01*
X54670799Y-133061989D01*
X54698050Y-133064918D01*
X54731345Y-133068499D01*
X54731362Y-133068500D01*
X57268638Y-133068500D01*
X57268654Y-133068499D01*
X57295692Y-133065591D01*
X57329201Y-133061989D01*
X57466204Y-133010889D01*
X57583261Y-132923261D01*
X57669403Y-132808188D01*
X57725337Y-132766318D01*
X57768670Y-132758500D01*
X58458063Y-132758500D01*
X58525102Y-132778185D01*
X58530949Y-132782182D01*
X58543249Y-132791119D01*
X58581590Y-132808189D01*
X58717712Y-132868794D01*
X58904513Y-132908500D01*
X59095487Y-132908500D01*
X59282288Y-132868794D01*
X59456752Y-132791118D01*
X59469051Y-132782181D01*
X59534858Y-132758702D01*
X59541937Y-132758500D01*
X60782146Y-132758500D01*
X60849185Y-132778185D01*
X60894940Y-132830989D01*
X60899852Y-132843495D01*
X60907885Y-132867738D01*
X60996182Y-133010889D01*
X61000971Y-133018653D01*
X61084637Y-133102319D01*
X61118122Y-133163642D01*
X61113138Y-133233334D01*
X61084637Y-133277681D01*
X61000971Y-133361346D01*
X60907886Y-133512259D01*
X60907884Y-133512264D01*
X60852114Y-133680569D01*
X60851497Y-133683453D01*
X60850625Y-133685061D01*
X60849983Y-133687001D01*
X60849637Y-133686886D01*
X60818217Y-133744888D01*
X60757006Y-133778577D01*
X60730243Y-133781500D01*
X59501937Y-133781500D01*
X59434898Y-133761815D01*
X59429051Y-133757818D01*
X59416750Y-133748880D01*
X59263324Y-133680572D01*
X59242288Y-133671206D01*
X59242286Y-133671205D01*
X59055487Y-133631500D01*
X58864513Y-133631500D01*
X58677714Y-133671205D01*
X58503249Y-133748880D01*
X58490949Y-133757818D01*
X58425142Y-133781298D01*
X58418063Y-133781500D01*
X57768670Y-133781500D01*
X57701631Y-133761815D01*
X57669403Y-133731811D01*
X57583261Y-133616739D01*
X57466204Y-133529111D01*
X57430731Y-133515880D01*
X57329203Y-133478011D01*
X57268654Y-133471500D01*
X57268638Y-133471500D01*
X54731362Y-133471500D01*
X54731345Y-133471500D01*
X54670797Y-133478011D01*
X54670795Y-133478011D01*
X54533795Y-133529111D01*
X54416739Y-133616739D01*
X54329111Y-133733795D01*
X54278011Y-133870795D01*
X54278011Y-133870797D01*
X54271500Y-133931345D01*
X54271500Y-135148654D01*
X54278011Y-135209202D01*
X54278011Y-135209204D01*
X54325362Y-135336152D01*
X54329111Y-135346204D01*
X54416739Y-135463261D01*
X54533796Y-135550889D01*
X54670799Y-135601989D01*
X54698050Y-135604918D01*
X54731345Y-135608499D01*
X54731362Y-135608500D01*
X57268638Y-135608500D01*
X57268654Y-135608499D01*
X57295692Y-135605591D01*
X57329201Y-135601989D01*
X57466204Y-135550889D01*
X57583261Y-135463261D01*
X57669403Y-135348188D01*
X57725337Y-135306318D01*
X57768670Y-135298500D01*
X58418063Y-135298500D01*
X58485102Y-135318185D01*
X58490949Y-135322182D01*
X58503249Y-135331119D01*
X58541590Y-135348189D01*
X58677712Y-135408794D01*
X58864513Y-135448500D01*
X59055487Y-135448500D01*
X59242288Y-135408794D01*
X59416752Y-135331118D01*
X59429051Y-135322181D01*
X59494858Y-135298702D01*
X59501937Y-135298500D01*
X60782146Y-135298500D01*
X60849185Y-135318185D01*
X60894940Y-135370989D01*
X60899852Y-135383495D01*
X60907885Y-135407738D01*
X60996182Y-135550889D01*
X61000971Y-135558653D01*
X61084637Y-135642319D01*
X61118122Y-135703642D01*
X61113138Y-135773334D01*
X61084637Y-135817681D01*
X61000971Y-135901346D01*
X60907886Y-136052259D01*
X60907884Y-136052264D01*
X60852114Y-136220569D01*
X60851497Y-136223453D01*
X60850625Y-136225061D01*
X60849983Y-136227001D01*
X60849637Y-136226886D01*
X60818217Y-136284888D01*
X60757006Y-136318577D01*
X60730243Y-136321500D01*
X59541937Y-136321500D01*
X59474898Y-136301815D01*
X59469051Y-136297818D01*
X59456750Y-136288880D01*
X59303324Y-136220572D01*
X59282288Y-136211206D01*
X59282286Y-136211205D01*
X59095487Y-136171500D01*
X58904513Y-136171500D01*
X58717714Y-136211205D01*
X58543249Y-136288880D01*
X58530949Y-136297818D01*
X58465142Y-136321298D01*
X58458063Y-136321500D01*
X57768670Y-136321500D01*
X57701631Y-136301815D01*
X57669403Y-136271811D01*
X57583261Y-136156739D01*
X57466204Y-136069111D01*
X57430731Y-136055880D01*
X57329203Y-136018011D01*
X57268654Y-136011500D01*
X57268638Y-136011500D01*
X54731362Y-136011500D01*
X54731345Y-136011500D01*
X54670797Y-136018011D01*
X54670795Y-136018011D01*
X54533795Y-136069111D01*
X54416739Y-136156739D01*
X54329111Y-136273795D01*
X54278011Y-136410795D01*
X54278011Y-136410797D01*
X54271500Y-136471345D01*
X54271500Y-137688654D01*
X49118499Y-137688654D01*
X49118500Y-137688637D01*
X49118500Y-136471362D01*
X49118499Y-136471345D01*
X49113743Y-136427113D01*
X49111989Y-136410799D01*
X49109453Y-136404001D01*
X49079992Y-136325013D01*
X49060889Y-136273796D01*
X48973261Y-136156739D01*
X48856204Y-136069111D01*
X48820731Y-136055880D01*
X48719203Y-136018011D01*
X48658654Y-136011500D01*
X48658638Y-136011500D01*
X48272500Y-136011500D01*
X48205461Y-135991815D01*
X48159706Y-135939011D01*
X48148500Y-135887500D01*
X48148500Y-135732500D01*
X48168185Y-135665461D01*
X48220989Y-135619706D01*
X48272500Y-135608500D01*
X48658638Y-135608500D01*
X48658654Y-135608499D01*
X48685692Y-135605591D01*
X48719201Y-135601989D01*
X48856204Y-135550889D01*
X48973261Y-135463261D01*
X49060889Y-135346204D01*
X49111989Y-135209201D01*
X49117089Y-135161762D01*
X49118499Y-135148654D01*
X49118500Y-135148637D01*
X49118500Y-133931362D01*
X49118499Y-133931345D01*
X49115157Y-133900270D01*
X49111989Y-133870799D01*
X49060889Y-133733796D01*
X48973261Y-133616739D01*
X48856204Y-133529111D01*
X48820731Y-133515880D01*
X48719203Y-133478011D01*
X48658654Y-133471500D01*
X48658638Y-133471500D01*
X48272500Y-133471500D01*
X48205461Y-133451815D01*
X48159706Y-133399011D01*
X48148500Y-133347500D01*
X48148500Y-133192500D01*
X48168185Y-133125461D01*
X48220989Y-133079706D01*
X48272500Y-133068500D01*
X48658638Y-133068500D01*
X48658654Y-133068499D01*
X48685692Y-133065591D01*
X48719201Y-133061989D01*
X48856204Y-133010889D01*
X48973261Y-132923261D01*
X49060889Y-132806204D01*
X49111989Y-132669201D01*
X49115591Y-132635692D01*
X49118499Y-132608654D01*
X49118500Y-132608637D01*
X49118500Y-131395542D01*
X49138185Y-131328503D01*
X49154819Y-131307861D01*
X50167862Y-130294819D01*
X50229185Y-130261334D01*
X50255543Y-130258500D01*
X58458063Y-130258500D01*
X58525102Y-130278185D01*
X58530949Y-130282182D01*
X58543249Y-130291119D01*
X58610220Y-130320935D01*
X58717712Y-130368794D01*
X58904513Y-130408500D01*
X59095487Y-130408500D01*
X59282288Y-130368794D01*
X59456752Y-130291118D01*
X59611253Y-130178866D01*
X59739040Y-130036944D01*
X59834527Y-129871556D01*
X59893542Y-129689928D01*
X59913504Y-129500000D01*
X59893542Y-129310072D01*
X59834527Y-129128444D01*
X59739040Y-128963056D01*
X59623981Y-128835270D01*
X59611254Y-128821135D01*
X59541767Y-128770649D01*
X59456752Y-128708882D01*
X59282288Y-128631206D01*
X59282286Y-128631205D01*
X59095487Y-128591500D01*
X58904513Y-128591500D01*
X58717714Y-128631205D01*
X58543249Y-128708880D01*
X58530949Y-128717818D01*
X58465142Y-128741298D01*
X58458063Y-128741500D01*
X49815290Y-128741500D01*
X49742024Y-128756074D01*
X49668760Y-128770647D01*
X49668752Y-128770649D01*
X49530717Y-128827825D01*
X49406482Y-128910835D01*
X49406481Y-128910836D01*
X47422138Y-130895181D01*
X47360815Y-130928666D01*
X47334457Y-130931500D01*
X46121345Y-130931500D01*
X46060797Y-130938011D01*
X46060795Y-130938011D01*
X45923795Y-130989111D01*
X45806739Y-131076739D01*
X45719111Y-131193795D01*
X45668011Y-131330795D01*
X45668011Y-131330797D01*
X45661500Y-131391345D01*
X45661500Y-132608654D01*
X45668011Y-132669202D01*
X45668011Y-132669204D01*
X45719111Y-132806204D01*
X45806739Y-132923261D01*
X45923796Y-133010889D01*
X46060799Y-133061989D01*
X46088050Y-133064918D01*
X46121345Y-133068499D01*
X46121362Y-133068500D01*
X46507500Y-133068500D01*
X46574539Y-133088185D01*
X46620294Y-133140989D01*
X46631500Y-133192500D01*
X46631500Y-133347500D01*
X46611815Y-133414539D01*
X46559011Y-133460294D01*
X46507500Y-133471500D01*
X46121345Y-133471500D01*
X46060797Y-133478011D01*
X46060795Y-133478011D01*
X45923795Y-133529111D01*
X45806739Y-133616739D01*
X45719111Y-133733795D01*
X45668011Y-133870795D01*
X45668011Y-133870797D01*
X45661500Y-133931345D01*
X45661500Y-135148654D01*
X45668011Y-135209202D01*
X45668011Y-135209204D01*
X45715362Y-135336152D01*
X45719111Y-135346204D01*
X45806739Y-135463261D01*
X45923796Y-135550889D01*
X46060799Y-135601989D01*
X46088050Y-135604918D01*
X46121345Y-135608499D01*
X46121362Y-135608500D01*
X46507500Y-135608500D01*
X46574539Y-135628185D01*
X46620294Y-135680989D01*
X46631500Y-135732500D01*
X46631500Y-135887500D01*
X46611815Y-135954539D01*
X46559011Y-136000294D01*
X46507500Y-136011500D01*
X46121345Y-136011500D01*
X46060797Y-136018011D01*
X46060795Y-136018011D01*
X45923795Y-136069111D01*
X45806739Y-136156739D01*
X45719111Y-136273795D01*
X45668011Y-136410795D01*
X45668011Y-136410797D01*
X45661500Y-136471345D01*
X45661500Y-137688654D01*
X45000000Y-137688654D01*
X45000000Y-132502706D01*
X45000118Y-132497297D01*
X45014408Y-132170000D01*
X45018791Y-132069605D01*
X45019731Y-132058872D01*
X45075255Y-131637121D01*
X45077128Y-131626491D01*
X45169202Y-131211175D01*
X45172000Y-131200737D01*
X45174189Y-131193795D01*
X45299913Y-130795046D01*
X45303601Y-130784914D01*
X45466396Y-130391892D01*
X45470954Y-130382118D01*
X45667387Y-130004774D01*
X45672769Y-129995453D01*
X45901334Y-129636678D01*
X45907525Y-129627835D01*
X46166491Y-129290345D01*
X46173429Y-129282076D01*
X46460819Y-128968445D01*
X46468445Y-128960819D01*
X46782076Y-128673429D01*
X46790345Y-128666491D01*
X47127835Y-128407525D01*
X47136678Y-128401334D01*
X47495453Y-128172769D01*
X47504774Y-128167387D01*
X47882118Y-127970954D01*
X47891892Y-127966396D01*
X48284914Y-127803601D01*
X48295046Y-127799913D01*
X48700746Y-127671997D01*
X48711175Y-127669202D01*
X49126491Y-127577128D01*
X49137121Y-127575255D01*
X49558872Y-127519731D01*
X49569605Y-127518791D01*
X49997297Y-127500117D01*
X50002706Y-127500000D01*
X58428932Y-127500000D01*
X60500000Y-127500000D01*
X62345650Y-125654349D01*
X62406971Y-125620866D01*
X62476662Y-125625850D01*
X62521010Y-125654351D01*
X74457254Y-137590595D01*
X74457283Y-137590626D01*
X74555295Y-137688637D01*
X74628278Y-137761620D01*
X74819480Y-137900536D01*
X74819496Y-137900557D01*
X74819501Y-137900551D01*
X74820373Y-137901185D01*
X75031938Y-138008983D01*
X75116003Y-138036297D01*
X75257759Y-138082356D01*
X75360655Y-138098653D01*
X75492273Y-138119500D01*
X75492278Y-138119500D01*
X76093726Y-138119500D01*
X76186435Y-138104815D01*
X76305060Y-138086027D01*
X76374352Y-138094981D01*
X76412138Y-138120819D01*
X77774834Y-139483515D01*
X77774835Y-139483516D01*
X77880484Y-139589165D01*
X77880487Y-139589167D01*
X77880488Y-139589168D01*
X78004705Y-139672167D01*
X78004708Y-139672168D01*
X78004716Y-139672174D01*
X78004722Y-139672176D01*
X78004723Y-139672177D01*
X78085574Y-139705666D01*
X78085575Y-139705667D01*
X78109259Y-139715477D01*
X78142753Y-139729351D01*
X78168106Y-139734393D01*
X78215970Y-139743915D01*
X78215997Y-139743919D01*
X78216024Y-139743925D01*
X78289294Y-139758500D01*
X82287206Y-139758500D01*
X82360476Y-139743925D01*
X82360477Y-139743925D01*
X82378919Y-139740256D01*
X82433747Y-139729351D01*
X82571784Y-139672174D01*
X82696015Y-139589166D01*
X83527862Y-138757317D01*
X83589185Y-138723833D01*
X83615543Y-138720999D01*
X84325537Y-138720999D01*
X84325544Y-138720999D01*
X84429426Y-138710387D01*
X84597738Y-138654615D01*
X84748652Y-138561530D01*
X84874030Y-138436152D01*
X84967115Y-138285238D01*
X85022887Y-138116926D01*
X85033500Y-138013045D01*
X85033499Y-137111956D01*
X85022887Y-137008074D01*
X84967115Y-136839762D01*
X84874030Y-136688848D01*
X84748652Y-136563470D01*
X84599322Y-136471362D01*
X84597740Y-136470386D01*
X84597735Y-136470384D01*
X84429427Y-136414613D01*
X84325545Y-136404000D01*
X82974462Y-136404000D01*
X82974446Y-136404001D01*
X82870572Y-136414613D01*
X82702264Y-136470384D01*
X82702259Y-136470386D01*
X82551346Y-136563471D01*
X82425971Y-136688846D01*
X82332886Y-136839759D01*
X82332884Y-136839764D01*
X82277113Y-137008072D01*
X82266500Y-137111947D01*
X82266500Y-137821956D01*
X82246815Y-137888995D01*
X82230181Y-137909637D01*
X81934638Y-138205181D01*
X81873315Y-138238666D01*
X81846957Y-138241500D01*
X79154219Y-138241500D01*
X79087180Y-138221815D01*
X79041425Y-138169011D01*
X79031481Y-138099853D01*
X79060506Y-138036297D01*
X79097924Y-138007015D01*
X79142510Y-137984296D01*
X79305627Y-137901185D01*
X79497722Y-137761620D01*
X79665620Y-137593722D01*
X79805185Y-137401627D01*
X79912982Y-137190063D01*
X79986356Y-136964241D01*
X79987562Y-136956628D01*
X80023500Y-136729727D01*
X80023500Y-135638857D01*
X80023501Y-135638832D01*
X80023501Y-135396278D01*
X80021477Y-135383498D01*
X79986356Y-135161759D01*
X79912982Y-134935937D01*
X79805185Y-134724373D01*
X79794740Y-134709997D01*
X79773854Y-134681249D01*
X79773852Y-134681248D01*
X79773852Y-134681247D01*
X79665620Y-134532278D01*
X79641026Y-134507684D01*
X79494626Y-134361283D01*
X79494595Y-134361254D01*
X67633341Y-122500000D01*
X69086496Y-122500000D01*
X69106458Y-122689928D01*
X69106459Y-122689931D01*
X69165470Y-122871549D01*
X69165473Y-122871556D01*
X69260960Y-123036944D01*
X69388747Y-123178866D01*
X69543248Y-123291118D01*
X69717712Y-123368794D01*
X69904513Y-123408500D01*
X69965229Y-123408500D01*
X70032268Y-123428185D01*
X70078023Y-123480989D01*
X70088549Y-123519535D01*
X70106458Y-123689928D01*
X70106459Y-123689931D01*
X70165470Y-123871549D01*
X70165473Y-123871556D01*
X70260960Y-124036944D01*
X70388747Y-124178866D01*
X70543248Y-124291118D01*
X70717712Y-124368794D01*
X70904513Y-124408500D01*
X70965229Y-124408500D01*
X71032268Y-124428185D01*
X71078023Y-124480989D01*
X71088549Y-124519535D01*
X71106458Y-124689928D01*
X71106459Y-124689931D01*
X71165470Y-124871549D01*
X71165473Y-124871556D01*
X71260960Y-125036944D01*
X71307979Y-125089164D01*
X71382721Y-125172174D01*
X71388747Y-125178866D01*
X71543248Y-125291118D01*
X71717712Y-125368794D01*
X71904513Y-125408500D01*
X71965229Y-125408500D01*
X72032268Y-125428185D01*
X72078023Y-125480989D01*
X72088549Y-125519535D01*
X72106458Y-125689928D01*
X72106459Y-125689931D01*
X72165470Y-125871549D01*
X72165473Y-125871556D01*
X72260960Y-126036944D01*
X72388747Y-126178866D01*
X72543248Y-126291118D01*
X72717712Y-126368794D01*
X72904513Y-126408500D01*
X73095487Y-126408500D01*
X73282288Y-126368794D01*
X73456752Y-126291118D01*
X73611253Y-126178866D01*
X73739040Y-126036944D01*
X73834527Y-125871556D01*
X73889537Y-125702253D01*
X73919783Y-125652896D01*
X74277862Y-125294819D01*
X74339185Y-125261334D01*
X74365543Y-125258500D01*
X118895706Y-125258500D01*
X118968976Y-125243925D01*
X118968977Y-125243925D01*
X118987419Y-125240256D01*
X119042247Y-125229351D01*
X119180284Y-125172174D01*
X119304515Y-125089166D01*
X126153824Y-118239855D01*
X126215145Y-118206372D01*
X126261909Y-118205229D01*
X126347431Y-118219500D01*
X126347432Y-118219500D01*
X126572569Y-118219500D01*
X126794635Y-118182444D01*
X127007574Y-118109342D01*
X127205576Y-118002189D01*
X127383240Y-117863906D01*
X127504594Y-117732082D01*
X127535715Y-117698276D01*
X127535715Y-117698275D01*
X127535722Y-117698268D01*
X127626193Y-117559790D01*
X127679338Y-117514437D01*
X127748569Y-117505013D01*
X127811905Y-117534515D01*
X127833804Y-117559787D01*
X127924278Y-117698268D01*
X127924283Y-117698273D01*
X127924284Y-117698276D01*
X128076756Y-117863902D01*
X128076760Y-117863906D01*
X128254424Y-118002189D01*
X128254425Y-118002189D01*
X128254427Y-118002191D01*
X128379039Y-118069627D01*
X128452426Y-118109342D01*
X128665365Y-118182444D01*
X128887431Y-118219500D01*
X129112569Y-118219500D01*
X129334635Y-118182444D01*
X129547574Y-118109342D01*
X129745576Y-118002189D01*
X129923240Y-117863906D01*
X130044594Y-117732082D01*
X130075715Y-117698276D01*
X130075717Y-117698273D01*
X130075722Y-117698268D01*
X130198860Y-117509791D01*
X130289296Y-117303616D01*
X130344564Y-117085368D01*
X130347164Y-117053993D01*
X130363156Y-116861005D01*
X130363156Y-116860994D01*
X130344565Y-116636640D01*
X130344563Y-116636628D01*
X130289296Y-116418385D01*
X130279071Y-116395075D01*
X130198860Y-116212209D01*
X130182706Y-116187484D01*
X130075723Y-116023734D01*
X130075715Y-116023723D01*
X129923243Y-115858097D01*
X129923238Y-115858092D01*
X129745577Y-115719812D01*
X129745572Y-115719808D01*
X129547580Y-115612661D01*
X129547577Y-115612659D01*
X129547574Y-115612658D01*
X129547571Y-115612657D01*
X129547569Y-115612656D01*
X129334637Y-115539556D01*
X129112569Y-115502500D01*
X128887431Y-115502500D01*
X128665362Y-115539556D01*
X128452430Y-115612656D01*
X128452419Y-115612661D01*
X128254427Y-115719808D01*
X128254422Y-115719812D01*
X128076761Y-115858092D01*
X128076756Y-115858097D01*
X127924284Y-116023723D01*
X127924276Y-116023734D01*
X127833808Y-116162206D01*
X127780662Y-116207562D01*
X127711431Y-116216986D01*
X127648095Y-116187484D01*
X127626192Y-116162206D01*
X127535723Y-116023734D01*
X127535715Y-116023723D01*
X127383243Y-115858097D01*
X127383238Y-115858092D01*
X127205577Y-115719812D01*
X127205572Y-115719808D01*
X127007580Y-115612661D01*
X127007577Y-115612659D01*
X127007574Y-115612658D01*
X127007571Y-115612657D01*
X127007569Y-115612656D01*
X126794637Y-115539556D01*
X126572569Y-115502500D01*
X126347431Y-115502500D01*
X126125362Y-115539556D01*
X125912430Y-115612656D01*
X125912419Y-115612661D01*
X125714427Y-115719808D01*
X125714422Y-115719812D01*
X125536761Y-115858092D01*
X125536756Y-115858097D01*
X125384284Y-116023723D01*
X125384276Y-116023734D01*
X125293808Y-116162206D01*
X125240662Y-116207562D01*
X125171431Y-116216986D01*
X125108095Y-116187484D01*
X125086192Y-116162206D01*
X124995723Y-116023734D01*
X124995715Y-116023723D01*
X124843243Y-115858097D01*
X124843238Y-115858092D01*
X124665577Y-115719812D01*
X124665572Y-115719808D01*
X124467580Y-115612661D01*
X124467577Y-115612659D01*
X124467574Y-115612658D01*
X124467571Y-115612657D01*
X124467569Y-115612656D01*
X124254637Y-115539556D01*
X124032569Y-115502500D01*
X123807431Y-115502500D01*
X123585362Y-115539556D01*
X123372430Y-115612656D01*
X123372419Y-115612661D01*
X123174427Y-115719808D01*
X123174422Y-115719812D01*
X122996761Y-115858092D01*
X122996756Y-115858097D01*
X122844284Y-116023723D01*
X122844276Y-116023734D01*
X122753808Y-116162206D01*
X122700662Y-116207562D01*
X122631431Y-116216986D01*
X122568095Y-116187484D01*
X122546192Y-116162206D01*
X122455723Y-116023734D01*
X122455715Y-116023723D01*
X122303243Y-115858097D01*
X122303238Y-115858092D01*
X122125577Y-115719812D01*
X122125572Y-115719808D01*
X121927580Y-115612661D01*
X121927577Y-115612659D01*
X121927574Y-115612658D01*
X121927571Y-115612657D01*
X121927569Y-115612656D01*
X121714637Y-115539556D01*
X121492569Y-115502500D01*
X121267431Y-115502500D01*
X121045362Y-115539556D01*
X120832430Y-115612656D01*
X120832419Y-115612661D01*
X120634427Y-115719808D01*
X120634422Y-115719812D01*
X120456761Y-115858092D01*
X120456756Y-115858097D01*
X120304284Y-116023723D01*
X120304276Y-116023734D01*
X120213808Y-116162206D01*
X120160662Y-116207562D01*
X120091431Y-116216986D01*
X120028095Y-116187484D01*
X120006192Y-116162206D01*
X119915723Y-116023734D01*
X119915715Y-116023723D01*
X119763243Y-115858097D01*
X119763238Y-115858092D01*
X119585577Y-115719812D01*
X119585572Y-115719808D01*
X119387580Y-115612661D01*
X119387577Y-115612659D01*
X119387574Y-115612658D01*
X119387571Y-115612657D01*
X119387569Y-115612656D01*
X119174637Y-115539556D01*
X118952569Y-115502500D01*
X118727431Y-115502500D01*
X118505362Y-115539556D01*
X118292430Y-115612656D01*
X118292419Y-115612661D01*
X118094427Y-115719808D01*
X118094422Y-115719812D01*
X117916761Y-115858092D01*
X117916756Y-115858097D01*
X117764284Y-116023723D01*
X117764276Y-116023734D01*
X117673808Y-116162206D01*
X117620662Y-116207562D01*
X117551431Y-116216986D01*
X117488095Y-116187484D01*
X117466192Y-116162206D01*
X117375723Y-116023734D01*
X117375715Y-116023723D01*
X117223243Y-115858097D01*
X117223238Y-115858092D01*
X117045577Y-115719812D01*
X117045572Y-115719808D01*
X116847580Y-115612661D01*
X116847577Y-115612659D01*
X116847574Y-115612658D01*
X116847571Y-115612657D01*
X116847569Y-115612656D01*
X116634637Y-115539556D01*
X116412569Y-115502500D01*
X116187431Y-115502500D01*
X116187430Y-115502500D01*
X116101910Y-115516769D01*
X116032545Y-115508386D01*
X115993822Y-115482141D01*
X105764518Y-105252836D01*
X105764517Y-105252835D01*
X105702399Y-105211330D01*
X105640284Y-105169826D01*
X105502247Y-105112649D01*
X105502239Y-105112647D01*
X105428976Y-105098074D01*
X105355709Y-105083500D01*
X105355706Y-105083500D01*
X76790544Y-105083500D01*
X76723505Y-105063815D01*
X76677750Y-105011011D01*
X76667806Y-104941853D01*
X76696831Y-104878297D01*
X76702863Y-104871819D01*
X76747162Y-104827519D01*
X76747162Y-104827518D01*
X76747165Y-104827516D01*
X76823389Y-104713437D01*
X76823392Y-104713435D01*
X76823391Y-104713435D01*
X76830173Y-104703285D01*
X76830174Y-104703284D01*
X76863667Y-104622424D01*
X76887351Y-104565247D01*
X76916500Y-104418705D01*
X76916500Y-104269295D01*
X76916500Y-96115294D01*
X76916500Y-96115291D01*
X76887352Y-95968759D01*
X76887351Y-95968758D01*
X76887351Y-95968754D01*
X76877098Y-95944000D01*
X76830177Y-95830722D01*
X76830170Y-95830709D01*
X76747166Y-95706485D01*
X76747165Y-95706484D01*
X76641516Y-95600835D01*
X75253569Y-94212888D01*
X75220084Y-94151565D01*
X75217674Y-94114969D01*
X75235156Y-93904000D01*
X75216564Y-93679632D01*
X75161296Y-93461384D01*
X75070860Y-93255209D01*
X74947722Y-93066732D01*
X74947719Y-93066729D01*
X74947715Y-93066723D01*
X74802510Y-92908991D01*
X74771587Y-92846337D01*
X74779447Y-92776911D01*
X74823594Y-92722755D01*
X74850405Y-92708827D01*
X74930584Y-92678920D01*
X74968204Y-92664889D01*
X75085261Y-92577261D01*
X75172889Y-92460204D01*
X75223989Y-92323201D01*
X75227591Y-92289692D01*
X75230499Y-92262654D01*
X75230500Y-92262637D01*
X75230500Y-90465362D01*
X75230499Y-90465345D01*
X75227157Y-90434270D01*
X75223989Y-90404799D01*
X75172889Y-90267796D01*
X75085261Y-90150739D01*
X74968204Y-90063111D01*
X74831203Y-90012011D01*
X74770654Y-90005500D01*
X74770638Y-90005500D01*
X72973362Y-90005500D01*
X72973345Y-90005500D01*
X72912797Y-90012011D01*
X72912795Y-90012011D01*
X72775795Y-90063111D01*
X72658739Y-90150739D01*
X72571111Y-90267795D01*
X72520011Y-90404795D01*
X72520011Y-90404797D01*
X72513500Y-90465345D01*
X72513500Y-91598456D01*
X72493815Y-91665495D01*
X72477181Y-91686137D01*
X71795336Y-92367981D01*
X71795335Y-92367982D01*
X71712325Y-92492217D01*
X71655149Y-92630252D01*
X71655147Y-92630260D01*
X71640574Y-92703524D01*
X71626000Y-92776790D01*
X71626000Y-103677186D01*
X71606315Y-103744225D01*
X71567097Y-103782724D01*
X71448351Y-103855967D01*
X71448347Y-103855970D01*
X71322971Y-103981346D01*
X71229886Y-104132259D01*
X71229884Y-104132264D01*
X71174113Y-104300572D01*
X71163500Y-104404447D01*
X71163500Y-105755537D01*
X71163501Y-105755553D01*
X71174113Y-105859427D01*
X71229884Y-106027735D01*
X71229886Y-106027740D01*
X71322971Y-106178653D01*
X71448347Y-106304029D01*
X71448351Y-106304032D01*
X71567097Y-106377276D01*
X71613822Y-106429224D01*
X71626000Y-106482814D01*
X71626000Y-107487186D01*
X71606315Y-107554225D01*
X71567097Y-107592724D01*
X71448351Y-107665967D01*
X71448347Y-107665970D01*
X71322971Y-107791346D01*
X71229886Y-107942259D01*
X71229884Y-107942264D01*
X71174113Y-108110572D01*
X71163500Y-108214447D01*
X71163500Y-109565537D01*
X71163501Y-109565553D01*
X71174113Y-109669426D01*
X71229885Y-109837738D01*
X71322970Y-109988652D01*
X71448348Y-110114030D01*
X71599262Y-110207115D01*
X71767574Y-110262887D01*
X71871455Y-110273500D01*
X72149456Y-110273499D01*
X72216495Y-110293183D01*
X72237137Y-110309818D01*
X73667334Y-111740015D01*
X73667335Y-111740016D01*
X73772984Y-111845665D01*
X73772987Y-111845667D01*
X73772988Y-111845668D01*
X73897205Y-111928667D01*
X73897208Y-111928668D01*
X73897216Y-111928674D01*
X73897222Y-111928676D01*
X73897223Y-111928677D01*
X73978074Y-111962166D01*
X73978075Y-111962167D01*
X74001759Y-111971977D01*
X74035253Y-111985851D01*
X74060606Y-111990893D01*
X74108470Y-112000415D01*
X74108497Y-112000419D01*
X74108524Y-112000425D01*
X74181794Y-112015000D01*
X74181795Y-112015000D01*
X74331205Y-112015000D01*
X95089957Y-112015000D01*
X95156996Y-112034685D01*
X95177638Y-112051319D01*
X98426819Y-115300500D01*
X98460304Y-115361823D01*
X98455320Y-115431515D01*
X98413448Y-115487448D01*
X98359548Y-115510490D01*
X98185361Y-115539556D01*
X97972430Y-115612656D01*
X97972419Y-115612661D01*
X97774427Y-115719808D01*
X97774422Y-115719812D01*
X97596761Y-115858092D01*
X97596756Y-115858097D01*
X97444284Y-116023723D01*
X97444276Y-116023734D01*
X97353808Y-116162206D01*
X97300662Y-116207562D01*
X97231431Y-116216986D01*
X97168095Y-116187484D01*
X97146192Y-116162206D01*
X97055723Y-116023734D01*
X97055715Y-116023723D01*
X96903243Y-115858097D01*
X96903238Y-115858092D01*
X96725577Y-115719812D01*
X96725572Y-115719808D01*
X96527580Y-115612661D01*
X96527577Y-115612659D01*
X96527574Y-115612658D01*
X96527571Y-115612657D01*
X96527569Y-115612656D01*
X96314637Y-115539556D01*
X96092569Y-115502500D01*
X95867431Y-115502500D01*
X95645362Y-115539556D01*
X95432430Y-115612656D01*
X95432419Y-115612661D01*
X95234427Y-115719808D01*
X95234422Y-115719812D01*
X95056761Y-115858092D01*
X95056756Y-115858097D01*
X94904284Y-116023723D01*
X94904276Y-116023734D01*
X94781140Y-116212207D01*
X94690703Y-116418385D01*
X94635436Y-116636628D01*
X94635434Y-116636640D01*
X94616844Y-116860994D01*
X94616844Y-116861005D01*
X94635434Y-117085359D01*
X94635436Y-117085371D01*
X94690703Y-117303614D01*
X94781140Y-117509792D01*
X94904276Y-117698265D01*
X94904284Y-117698276D01*
X95056756Y-117863902D01*
X95056760Y-117863906D01*
X95234424Y-118002189D01*
X95234425Y-118002189D01*
X95234427Y-118002191D01*
X95359039Y-118069627D01*
X95432426Y-118109342D01*
X95645365Y-118182444D01*
X95867431Y-118219500D01*
X96092569Y-118219500D01*
X96314635Y-118182444D01*
X96527574Y-118109342D01*
X96725576Y-118002189D01*
X96903240Y-117863906D01*
X97024594Y-117732082D01*
X97055715Y-117698276D01*
X97055715Y-117698275D01*
X97055722Y-117698268D01*
X97146193Y-117559790D01*
X97199338Y-117514437D01*
X97268569Y-117505013D01*
X97331905Y-117534515D01*
X97353804Y-117559787D01*
X97444278Y-117698268D01*
X97444283Y-117698273D01*
X97444284Y-117698276D01*
X97596756Y-117863902D01*
X97596760Y-117863906D01*
X97774424Y-118002189D01*
X97774425Y-118002189D01*
X97774427Y-118002191D01*
X97899039Y-118069627D01*
X97972426Y-118109342D01*
X98185365Y-118182444D01*
X98407431Y-118219500D01*
X98632569Y-118219500D01*
X98854635Y-118182444D01*
X99067574Y-118109342D01*
X99265576Y-118002189D01*
X99443240Y-117863906D01*
X99564594Y-117732082D01*
X99595715Y-117698276D01*
X99595715Y-117698275D01*
X99595722Y-117698268D01*
X99686193Y-117559790D01*
X99739338Y-117514437D01*
X99808569Y-117505013D01*
X99871905Y-117534515D01*
X99893804Y-117559787D01*
X99984278Y-117698268D01*
X99984283Y-117698273D01*
X99984284Y-117698276D01*
X100136756Y-117863902D01*
X100136760Y-117863906D01*
X100314424Y-118002189D01*
X100314425Y-118002189D01*
X100314427Y-118002191D01*
X100439039Y-118069627D01*
X100512426Y-118109342D01*
X100725365Y-118182444D01*
X100947431Y-118219500D01*
X101172569Y-118219500D01*
X101394635Y-118182444D01*
X101607574Y-118109342D01*
X101805576Y-118002189D01*
X101983240Y-117863906D01*
X102104594Y-117732082D01*
X102135715Y-117698276D01*
X102135715Y-117698275D01*
X102135722Y-117698268D01*
X102229749Y-117554347D01*
X102282894Y-117508994D01*
X102352125Y-117499570D01*
X102415461Y-117529072D01*
X102435130Y-117551048D01*
X102561890Y-117732078D01*
X102728917Y-117899105D01*
X102922421Y-118034600D01*
X103136507Y-118134429D01*
X103136516Y-118134433D01*
X103350000Y-118191634D01*
X103350000Y-117294012D01*
X103407007Y-117326925D01*
X103534174Y-117361000D01*
X103665826Y-117361000D01*
X103792993Y-117326925D01*
X103850000Y-117294012D01*
X103850000Y-118191633D01*
X104063483Y-118134433D01*
X104063492Y-118134429D01*
X104277578Y-118034600D01*
X104471082Y-117899105D01*
X104638105Y-117732082D01*
X104764868Y-117551048D01*
X104819445Y-117507423D01*
X104888944Y-117500231D01*
X104951298Y-117531753D01*
X104970251Y-117554350D01*
X105064276Y-117698265D01*
X105064284Y-117698276D01*
X105216756Y-117863902D01*
X105216760Y-117863906D01*
X105394424Y-118002189D01*
X105394425Y-118002189D01*
X105394427Y-118002191D01*
X105519039Y-118069627D01*
X105592426Y-118109342D01*
X105805365Y-118182444D01*
X106027431Y-118219500D01*
X106252569Y-118219500D01*
X106474635Y-118182444D01*
X106687574Y-118109342D01*
X106885576Y-118002189D01*
X107063240Y-117863906D01*
X107184594Y-117732082D01*
X107215715Y-117698276D01*
X107215715Y-117698275D01*
X107215722Y-117698268D01*
X107306193Y-117559790D01*
X107359338Y-117514437D01*
X107428569Y-117505013D01*
X107491905Y-117534515D01*
X107513804Y-117559787D01*
X107604278Y-117698268D01*
X107604283Y-117698273D01*
X107604284Y-117698276D01*
X107756756Y-117863902D01*
X107756760Y-117863906D01*
X107934424Y-118002189D01*
X107934425Y-118002189D01*
X107934427Y-118002191D01*
X108059039Y-118069627D01*
X108132426Y-118109342D01*
X108345365Y-118182444D01*
X108567431Y-118219500D01*
X108792569Y-118219500D01*
X109014635Y-118182444D01*
X109227574Y-118109342D01*
X109425576Y-118002189D01*
X109603240Y-117863906D01*
X109724594Y-117732082D01*
X109755715Y-117698276D01*
X109755715Y-117698275D01*
X109755722Y-117698268D01*
X109846193Y-117559790D01*
X109899338Y-117514437D01*
X109968569Y-117505013D01*
X110031905Y-117534515D01*
X110053804Y-117559787D01*
X110144278Y-117698268D01*
X110144283Y-117698273D01*
X110144284Y-117698276D01*
X110296756Y-117863902D01*
X110296760Y-117863906D01*
X110474424Y-118002189D01*
X110474425Y-118002189D01*
X110474427Y-118002191D01*
X110599039Y-118069627D01*
X110672426Y-118109342D01*
X110885365Y-118182444D01*
X111107431Y-118219500D01*
X111332569Y-118219500D01*
X111554635Y-118182444D01*
X111767574Y-118109342D01*
X111965576Y-118002189D01*
X112143240Y-117863906D01*
X112264594Y-117732082D01*
X112295715Y-117698276D01*
X112295715Y-117698275D01*
X112295722Y-117698268D01*
X112386193Y-117559790D01*
X112439338Y-117514437D01*
X112508569Y-117505013D01*
X112571905Y-117534515D01*
X112593804Y-117559787D01*
X112684278Y-117698268D01*
X112684283Y-117698273D01*
X112684284Y-117698276D01*
X112836756Y-117863902D01*
X112836760Y-117863906D01*
X113014424Y-118002189D01*
X113014425Y-118002189D01*
X113014427Y-118002191D01*
X113139039Y-118069627D01*
X113212426Y-118109342D01*
X113425365Y-118182444D01*
X113647431Y-118219500D01*
X113872569Y-118219500D01*
X114094635Y-118182444D01*
X114307574Y-118109342D01*
X114505576Y-118002189D01*
X114683240Y-117863906D01*
X114804594Y-117732082D01*
X114835715Y-117698276D01*
X114835715Y-117698275D01*
X114835722Y-117698268D01*
X114926193Y-117559790D01*
X114979338Y-117514437D01*
X115048569Y-117505013D01*
X115111905Y-117534515D01*
X115133804Y-117559787D01*
X115224278Y-117698268D01*
X115224283Y-117698273D01*
X115224284Y-117698276D01*
X115376756Y-117863902D01*
X115376760Y-117863906D01*
X115554424Y-118002189D01*
X115554425Y-118002189D01*
X115554427Y-118002191D01*
X115679039Y-118069627D01*
X115752426Y-118109342D01*
X115965365Y-118182444D01*
X116139548Y-118211509D01*
X116202432Y-118241959D01*
X116238872Y-118301574D01*
X116237297Y-118371426D01*
X116206819Y-118421499D01*
X115423138Y-119205181D01*
X115361815Y-119238666D01*
X115335457Y-119241500D01*
X72425290Y-119241500D01*
X72352024Y-119256074D01*
X72278760Y-119270647D01*
X72278752Y-119270649D01*
X72140717Y-119327825D01*
X72016482Y-119410835D01*
X69843248Y-121584069D01*
X69781925Y-121617554D01*
X69781351Y-121617678D01*
X69717712Y-121631206D01*
X69543244Y-121708884D01*
X69388745Y-121821135D01*
X69260959Y-121963057D01*
X69165473Y-122128443D01*
X69165470Y-122128450D01*
X69106459Y-122310068D01*
X69106458Y-122310072D01*
X69086496Y-122500000D01*
X67633341Y-122500000D01*
X66654351Y-121521010D01*
X66620866Y-121459687D01*
X66625850Y-121389995D01*
X66654349Y-121345650D01*
X68500000Y-119500000D01*
X68500000Y-93502706D01*
X68500118Y-93497297D01*
X68510688Y-93255207D01*
X68518791Y-93069605D01*
X68519731Y-93058872D01*
X68575255Y-92637121D01*
X68577128Y-92626491D01*
X68669202Y-92211175D01*
X68672000Y-92200737D01*
X68799913Y-91795046D01*
X68803601Y-91784914D01*
X68966396Y-91391892D01*
X68970954Y-91382118D01*
X69167387Y-91004774D01*
X69172769Y-90995453D01*
X69401334Y-90636678D01*
X69407525Y-90627835D01*
X69666491Y-90290345D01*
X69673429Y-90282076D01*
X69960819Y-89968445D01*
X69968445Y-89960819D01*
X70282076Y-89673429D01*
X70290345Y-89666491D01*
X70627835Y-89407525D01*
X70636678Y-89401334D01*
X70995453Y-89172769D01*
X71004774Y-89167387D01*
X71382118Y-88970954D01*
X71391892Y-88966396D01*
X71784914Y-88803601D01*
X71795046Y-88799913D01*
X72200746Y-88671997D01*
X72211175Y-88669202D01*
X72626491Y-88577128D01*
X72637121Y-88575255D01*
X73058872Y-88519731D01*
X73069605Y-88518791D01*
X73497297Y-88500117D01*
X73502706Y-88500000D01*
X74497294Y-88500000D01*
X74502702Y-88500117D01*
G37*
G04 #@! TD.AperFunction*
M02*
