%TF.GenerationSoftware,KiCad,Pcbnew,8.0.1*%
%TF.CreationDate,2024-03-22T19:40:02+01:00*%
%TF.ProjectId,BikeCounter_SingleBoard,42696b65-436f-4756-9e74-65725f53696e,rev?*%
%TF.SameCoordinates,Original*%
%TF.FileFunction,Drillmap*%
%TF.FilePolarity,Positive*%
%FSLAX45Y45*%
G04 Gerber Fmt 4.5, Leading zero omitted, Abs format (unit mm)*
G04 Created by KiCad (PCBNEW 8.0.1) date 2024-03-22 19:40:02*
%MOMM*%
%LPD*%
G01*
G04 APERTURE LIST*
%ADD10C,0.050000*%
%ADD11C,0.200000*%
%ADD12C,0.100000*%
%ADD13C,0.132000*%
G04 APERTURE END LIST*
D10*
X3000000Y-13952500D02*
X3000000Y-10052500D01*
X3700000Y-14252500D02*
X3300000Y-14252500D01*
X3300000Y-14252500D02*
G75*
G02*
X3000000Y-13952500I0J300000D01*
G01*
X14200000Y-4252500D02*
X14200000Y-5552500D01*
X4300000Y-16152500D02*
G75*
G02*
X4000000Y-15852500I0J300000D01*
G01*
X3000000Y-6152500D02*
G75*
G02*
X3300000Y-5852500I300000J0D01*
G01*
X15200000Y-13952500D02*
G75*
G02*
X14900000Y-14252500I-300000J0D01*
G01*
X14200000Y-15852500D02*
X14200000Y-14552500D01*
X14500000Y-5852500D02*
X14900000Y-5852500D01*
X14900000Y-5852500D02*
G75*
G02*
X15200000Y-6152500I0J-300000D01*
G01*
X3700000Y-5852500D02*
X3300000Y-5852500D01*
X3000000Y-6152500D02*
X3000000Y-10052500D01*
X15200000Y-6152500D02*
X15200000Y-10052500D01*
X4000000Y-5552500D02*
G75*
G02*
X3700000Y-5852500I-300000J0D01*
G01*
X14200000Y-15852500D02*
G75*
G02*
X13900000Y-16152500I-300000J0D01*
G01*
X4300000Y-16152500D02*
X9100000Y-16152500D01*
X13900000Y-3952500D02*
G75*
G02*
X14200000Y-4252500I0J-300000D01*
G01*
X4000000Y-4252500D02*
G75*
G02*
X4300000Y-3952500I300000J0D01*
G01*
X14500000Y-14252500D02*
X14900000Y-14252500D01*
X14200000Y-14552500D02*
G75*
G02*
X14500000Y-14252500I300000J0D01*
G01*
X4000000Y-15852500D02*
X4000000Y-14552500D01*
X13900000Y-3952500D02*
X9100000Y-3952500D01*
X4000000Y-4252500D02*
X4000000Y-5552500D01*
X15200000Y-13952500D02*
X15200000Y-10052500D01*
X14500000Y-5852500D02*
G75*
G02*
X14200000Y-5552500I0J300000D01*
G01*
X4300000Y-3952500D02*
X9100000Y-3952500D01*
X13900000Y-16152500D02*
X9100000Y-16152500D01*
X3700000Y-14252500D02*
G75*
G02*
X4000000Y-14552500I0J-300000D01*
G01*
D11*
D12*
X4730000Y-12930000D02*
X4770000Y-12970000D01*
X4770000Y-12930000D02*
X4730000Y-12970000D01*
X4980000Y-13180000D02*
X5020000Y-13220000D01*
X5020000Y-13180000D02*
X4980000Y-13220000D01*
X4980000Y-13430000D02*
X5020000Y-13470000D01*
X5020000Y-13430000D02*
X4980000Y-13470000D01*
X4980000Y-13680000D02*
X5020000Y-13720000D01*
X5020000Y-13680000D02*
X4980000Y-13720000D01*
X4980000Y-13980000D02*
X5020000Y-14020000D01*
X5020000Y-13980000D02*
X4980000Y-14020000D01*
X4980000Y-14480000D02*
X5020000Y-14520000D01*
X5020000Y-14480000D02*
X4980000Y-14520000D01*
X4980000Y-14880000D02*
X5020000Y-14920000D01*
X5020000Y-14880000D02*
X4980000Y-14920000D01*
X5330000Y-13180000D02*
X5370000Y-13220000D01*
X5370000Y-13180000D02*
X5330000Y-13220000D01*
X5330000Y-13430000D02*
X5370000Y-13470000D01*
X5370000Y-13430000D02*
X5330000Y-13470000D01*
X5330000Y-13680000D02*
X5370000Y-13720000D01*
X5370000Y-13680000D02*
X5330000Y-13720000D01*
X5480000Y-13980000D02*
X5520000Y-14020000D01*
X5520000Y-13980000D02*
X5480000Y-14020000D01*
X5480000Y-14480000D02*
X5520000Y-14520000D01*
X5520000Y-14480000D02*
X5480000Y-14520000D01*
X5480000Y-14880000D02*
X5520000Y-14920000D01*
X5520000Y-14880000D02*
X5480000Y-14920000D01*
X5876000Y-13434000D02*
X5916000Y-13474000D01*
X5916000Y-13434000D02*
X5876000Y-13474000D01*
X5880000Y-12930000D02*
X5920000Y-12970000D01*
X5920000Y-12930000D02*
X5880000Y-12970000D01*
X5880000Y-13180000D02*
X5920000Y-13220000D01*
X5920000Y-13180000D02*
X5880000Y-13220000D01*
X5880000Y-13688000D02*
X5920000Y-13728000D01*
X5920000Y-13688000D02*
X5880000Y-13728000D01*
X5980000Y-13980000D02*
X6020000Y-14020000D01*
X6020000Y-13980000D02*
X5980000Y-14020000D01*
X5980000Y-14480000D02*
X6020000Y-14520000D01*
X6020000Y-14480000D02*
X5980000Y-14520000D01*
X5980000Y-14880000D02*
X6020000Y-14920000D01*
X6020000Y-14880000D02*
X5980000Y-14920000D01*
X6230000Y-12730000D02*
X6270000Y-12770000D01*
X6270000Y-12730000D02*
X6230000Y-12770000D01*
X6480000Y-13980000D02*
X6520000Y-14020000D01*
X6520000Y-13980000D02*
X6480000Y-14020000D01*
X6480000Y-14880000D02*
X6520000Y-14920000D01*
X6520000Y-14880000D02*
X6480000Y-14920000D01*
X6830000Y-12080000D02*
X6870000Y-12120000D01*
X6870000Y-12080000D02*
X6830000Y-12120000D01*
X6980000Y-9480000D02*
X7020000Y-9520000D01*
X7020000Y-9480000D02*
X6980000Y-9520000D01*
X6980000Y-9980000D02*
X7020000Y-10020000D01*
X7020000Y-9980000D02*
X6980000Y-10020000D01*
X6980000Y-10480000D02*
X7020000Y-10520000D01*
X7020000Y-10480000D02*
X6980000Y-10520000D01*
X6980000Y-10980000D02*
X7020000Y-11020000D01*
X7020000Y-10980000D02*
X6980000Y-11020000D01*
X6980000Y-11480000D02*
X7020000Y-11520000D01*
X7020000Y-11480000D02*
X6980000Y-11520000D01*
X6980000Y-11780000D02*
X7020000Y-11820000D01*
X7020000Y-11780000D02*
X6980000Y-11820000D01*
X6980000Y-12230000D02*
X7020000Y-12270000D01*
X7020000Y-12230000D02*
X6980000Y-12270000D01*
X6980000Y-13430000D02*
X7020000Y-13470000D01*
X7020000Y-13430000D02*
X6980000Y-13470000D01*
X6980000Y-13680000D02*
X7020000Y-13720000D01*
X7020000Y-13680000D02*
X6980000Y-13720000D01*
X6980000Y-13980000D02*
X7020000Y-14020000D01*
X7020000Y-13980000D02*
X6980000Y-14020000D01*
X6980000Y-14880000D02*
X7020000Y-14920000D01*
X7020000Y-14880000D02*
X6980000Y-14920000D01*
X7080000Y-9080000D02*
X7120000Y-9120000D01*
X7120000Y-9080000D02*
X7080000Y-9120000D01*
X7080000Y-12330000D02*
X7120000Y-12370000D01*
X7120000Y-12330000D02*
X7080000Y-12370000D01*
X7180000Y-12430000D02*
X7220000Y-12470000D01*
X7220000Y-12430000D02*
X7180000Y-12470000D01*
X7280000Y-12530000D02*
X7320000Y-12570000D01*
X7320000Y-12530000D02*
X7280000Y-12570000D01*
X7480000Y-10180000D02*
X7520000Y-10220000D01*
X7520000Y-10180000D02*
X7480000Y-10220000D01*
X7480000Y-11230000D02*
X7520000Y-11270000D01*
X7520000Y-11230000D02*
X7480000Y-11270000D01*
X7480000Y-11480000D02*
X7520000Y-11520000D01*
X7520000Y-11480000D02*
X7480000Y-11520000D01*
X7480000Y-11780000D02*
X7520000Y-11820000D01*
X7520000Y-11780000D02*
X7480000Y-11820000D01*
X7480000Y-12680000D02*
X7520000Y-12720000D01*
X7520000Y-12680000D02*
X7480000Y-12720000D01*
X7480000Y-13980000D02*
X7520000Y-14020000D01*
X7520000Y-13980000D02*
X7480000Y-14020000D01*
X7480000Y-14480000D02*
X7520000Y-14520000D01*
X7520000Y-14480000D02*
X7480000Y-14520000D01*
X7480000Y-14880000D02*
X7520000Y-14920000D01*
X7520000Y-14880000D02*
X7480000Y-14920000D01*
X7680000Y-9080000D02*
X7720000Y-9120000D01*
X7720000Y-9080000D02*
X7680000Y-9120000D01*
X7780000Y-9480000D02*
X7820000Y-9520000D01*
X7820000Y-9480000D02*
X7780000Y-9520000D01*
X7780000Y-9980000D02*
X7820000Y-10020000D01*
X7820000Y-9980000D02*
X7780000Y-10020000D01*
X7980000Y-10430000D02*
X8020000Y-10470000D01*
X8020000Y-10430000D02*
X7980000Y-10470000D01*
X7980000Y-10680000D02*
X8020000Y-10720000D01*
X8020000Y-10680000D02*
X7980000Y-10720000D01*
X7980000Y-10980000D02*
X8020000Y-11020000D01*
X8020000Y-10980000D02*
X7980000Y-11020000D01*
X7980000Y-11230000D02*
X8020000Y-11270000D01*
X8020000Y-11230000D02*
X7980000Y-11270000D01*
X7980000Y-11480000D02*
X8020000Y-11520000D01*
X8020000Y-11480000D02*
X7980000Y-11520000D01*
X7980000Y-11780000D02*
X8020000Y-11820000D01*
X8020000Y-11780000D02*
X7980000Y-11820000D01*
X7980000Y-12580000D02*
X8020000Y-12620000D01*
X8020000Y-12580000D02*
X7980000Y-12620000D01*
X7980000Y-12980000D02*
X8020000Y-13020000D01*
X8020000Y-12980000D02*
X7980000Y-13020000D01*
X7980000Y-13980000D02*
X8020000Y-14020000D01*
X8020000Y-13980000D02*
X7980000Y-14020000D01*
X7980000Y-14480000D02*
X8020000Y-14520000D01*
X8020000Y-14480000D02*
X7980000Y-14520000D01*
X7980000Y-14880000D02*
X8020000Y-14920000D01*
X8020000Y-14880000D02*
X7980000Y-14920000D01*
X8480000Y-10430000D02*
X8520000Y-10470000D01*
X8520000Y-10430000D02*
X8480000Y-10470000D01*
X8480000Y-10680000D02*
X8520000Y-10720000D01*
X8520000Y-10680000D02*
X8480000Y-10720000D01*
X8480000Y-10980000D02*
X8520000Y-11020000D01*
X8520000Y-10980000D02*
X8480000Y-11020000D01*
X8480000Y-11230000D02*
X8520000Y-11270000D01*
X8520000Y-11230000D02*
X8480000Y-11270000D01*
X8480000Y-11480000D02*
X8520000Y-11520000D01*
X8520000Y-11480000D02*
X8480000Y-11520000D01*
X8480000Y-11780000D02*
X8520000Y-11820000D01*
X8520000Y-11780000D02*
X8480000Y-11820000D01*
X8480000Y-12580000D02*
X8520000Y-12620000D01*
X8520000Y-12580000D02*
X8480000Y-12620000D01*
X8480000Y-12980000D02*
X8520000Y-13020000D01*
X8520000Y-12980000D02*
X8480000Y-13020000D01*
X8480000Y-13980000D02*
X8520000Y-14020000D01*
X8520000Y-13980000D02*
X8480000Y-14020000D01*
X8480000Y-14480000D02*
X8520000Y-14520000D01*
X8520000Y-14480000D02*
X8480000Y-14520000D01*
X8480000Y-14880000D02*
X8520000Y-14920000D01*
X8520000Y-14880000D02*
X8480000Y-14920000D01*
X8980000Y-10430000D02*
X9020000Y-10470000D01*
X9020000Y-10430000D02*
X8980000Y-10470000D01*
X8980000Y-10680000D02*
X9020000Y-10720000D01*
X9020000Y-10680000D02*
X8980000Y-10720000D01*
X8980000Y-10980000D02*
X9020000Y-11020000D01*
X9020000Y-10980000D02*
X8980000Y-11020000D01*
X8980000Y-11230000D02*
X9020000Y-11270000D01*
X9020000Y-11230000D02*
X8980000Y-11270000D01*
X8980000Y-11480000D02*
X9020000Y-11520000D01*
X9020000Y-11480000D02*
X8980000Y-11520000D01*
X8980000Y-11780000D02*
X9020000Y-11820000D01*
X9020000Y-11780000D02*
X8980000Y-11820000D01*
X8980000Y-12580000D02*
X9020000Y-12620000D01*
X9020000Y-12580000D02*
X8980000Y-12620000D01*
X8980000Y-12980000D02*
X9020000Y-13020000D01*
X9020000Y-12980000D02*
X8980000Y-13020000D01*
X8980000Y-13980000D02*
X9020000Y-14020000D01*
X9020000Y-13980000D02*
X8980000Y-14020000D01*
X8980000Y-14480000D02*
X9020000Y-14520000D01*
X9020000Y-14480000D02*
X8980000Y-14520000D01*
X8980000Y-14880000D02*
X9020000Y-14920000D01*
X9020000Y-14880000D02*
X8980000Y-14920000D01*
X9480000Y-10430000D02*
X9520000Y-10470000D01*
X9520000Y-10430000D02*
X9480000Y-10470000D01*
X9480000Y-10680000D02*
X9520000Y-10720000D01*
X9520000Y-10680000D02*
X9480000Y-10720000D01*
X9480000Y-10980000D02*
X9520000Y-11020000D01*
X9520000Y-10980000D02*
X9480000Y-11020000D01*
X9480000Y-12580000D02*
X9520000Y-12620000D01*
X9520000Y-12580000D02*
X9480000Y-12620000D01*
X9480000Y-12980000D02*
X9520000Y-13020000D01*
X9520000Y-12980000D02*
X9480000Y-13020000D01*
X9480000Y-13980000D02*
X9520000Y-14020000D01*
X9520000Y-13980000D02*
X9480000Y-14020000D01*
X9480000Y-14480000D02*
X9520000Y-14520000D01*
X9520000Y-14480000D02*
X9480000Y-14520000D01*
X9480000Y-14880000D02*
X9520000Y-14920000D01*
X9520000Y-14880000D02*
X9480000Y-14920000D01*
X9980000Y-10430000D02*
X10020000Y-10470000D01*
X10020000Y-10430000D02*
X9980000Y-10470000D01*
X9980000Y-10680000D02*
X10020000Y-10720000D01*
X10020000Y-10680000D02*
X9980000Y-10720000D01*
X9980000Y-10980000D02*
X10020000Y-11020000D01*
X10020000Y-10980000D02*
X9980000Y-11020000D01*
X9980000Y-11230000D02*
X10020000Y-11270000D01*
X10020000Y-11230000D02*
X9980000Y-11270000D01*
X9980000Y-12580000D02*
X10020000Y-12620000D01*
X10020000Y-12580000D02*
X9980000Y-12620000D01*
X9980000Y-12980000D02*
X10020000Y-13020000D01*
X10020000Y-12980000D02*
X9980000Y-13020000D01*
X9980000Y-13480000D02*
X10020000Y-13520000D01*
X10020000Y-13480000D02*
X9980000Y-13520000D01*
X9980000Y-13980000D02*
X10020000Y-14020000D01*
X10020000Y-13980000D02*
X9980000Y-14020000D01*
X9980000Y-14480000D02*
X10020000Y-14520000D01*
X10020000Y-14480000D02*
X9980000Y-14520000D01*
X9980000Y-14880000D02*
X10020000Y-14920000D01*
X10020000Y-14880000D02*
X9980000Y-14920000D01*
X10130000Y-11430000D02*
X10170000Y-11470000D01*
X10170000Y-11430000D02*
X10130000Y-11470000D01*
X10480000Y-10430000D02*
X10520000Y-10470000D01*
X10520000Y-10430000D02*
X10480000Y-10470000D01*
X10480000Y-10680000D02*
X10520000Y-10720000D01*
X10520000Y-10680000D02*
X10480000Y-10720000D01*
X10480000Y-10980000D02*
X10520000Y-11020000D01*
X10520000Y-10980000D02*
X10480000Y-11020000D01*
X10480000Y-11230000D02*
X10520000Y-11270000D01*
X10520000Y-11230000D02*
X10480000Y-11270000D01*
X10480000Y-11430000D02*
X10520000Y-11470000D01*
X10520000Y-11430000D02*
X10480000Y-11470000D01*
X10480000Y-12580000D02*
X10520000Y-12620000D01*
X10520000Y-12580000D02*
X10480000Y-12620000D01*
X10480000Y-12980000D02*
X10520000Y-13020000D01*
X10520000Y-12980000D02*
X10480000Y-13020000D01*
X10480000Y-13480000D02*
X10520000Y-13520000D01*
X10520000Y-13480000D02*
X10480000Y-13520000D01*
X10480000Y-13980000D02*
X10520000Y-14020000D01*
X10520000Y-13980000D02*
X10480000Y-14020000D01*
X10480000Y-14480000D02*
X10520000Y-14520000D01*
X10520000Y-14480000D02*
X10480000Y-14520000D01*
X10480000Y-14880000D02*
X10520000Y-14920000D01*
X10520000Y-14880000D02*
X10480000Y-14920000D01*
X10880000Y-10680000D02*
X10920000Y-10720000D01*
X10920000Y-10680000D02*
X10880000Y-10720000D01*
X10880000Y-11430000D02*
X10920000Y-11470000D01*
X10920000Y-11430000D02*
X10880000Y-11470000D01*
X10919029Y-11105675D02*
X10959029Y-11145675D01*
X10959029Y-11105675D02*
X10919029Y-11145675D01*
X10980000Y-12580000D02*
X11020000Y-12620000D01*
X11020000Y-12580000D02*
X10980000Y-12620000D01*
X10980000Y-12980000D02*
X11020000Y-13020000D01*
X11020000Y-12980000D02*
X10980000Y-13020000D01*
X10980000Y-13480000D02*
X11020000Y-13520000D01*
X11020000Y-13480000D02*
X10980000Y-13520000D01*
X10980000Y-13980000D02*
X11020000Y-14020000D01*
X11020000Y-13980000D02*
X10980000Y-14020000D01*
X10980000Y-14480000D02*
X11020000Y-14520000D01*
X11020000Y-14480000D02*
X10980000Y-14520000D01*
X10980000Y-14880000D02*
X11020000Y-14920000D01*
X11020000Y-14880000D02*
X10980000Y-14920000D01*
X11180000Y-10980000D02*
X11220000Y-11020000D01*
X11220000Y-10980000D02*
X11180000Y-11020000D01*
X11430000Y-11230000D02*
X11470000Y-11270000D01*
X11470000Y-11230000D02*
X11430000Y-11270000D01*
X11480000Y-12580000D02*
X11520000Y-12620000D01*
X11520000Y-12580000D02*
X11480000Y-12620000D01*
X11480000Y-12980000D02*
X11520000Y-13020000D01*
X11520000Y-12980000D02*
X11480000Y-13020000D01*
X11480000Y-13480000D02*
X11520000Y-13520000D01*
X11520000Y-13480000D02*
X11480000Y-13520000D01*
X11480000Y-14880000D02*
X11520000Y-14920000D01*
X11520000Y-14880000D02*
X11480000Y-14920000D01*
X11630000Y-11430000D02*
X11670000Y-11470000D01*
X11670000Y-11430000D02*
X11630000Y-11470000D01*
X11980000Y-11430000D02*
X12020000Y-11470000D01*
X12020000Y-11430000D02*
X11980000Y-11470000D01*
X11980000Y-12580000D02*
X12020000Y-12620000D01*
X12020000Y-12580000D02*
X11980000Y-12620000D01*
X11980000Y-12980000D02*
X12020000Y-13020000D01*
X12020000Y-12980000D02*
X11980000Y-13020000D01*
X11980000Y-13480000D02*
X12020000Y-13520000D01*
X12020000Y-13480000D02*
X11980000Y-13520000D01*
X11980000Y-14880000D02*
X12020000Y-14920000D01*
X12020000Y-14880000D02*
X11980000Y-14920000D01*
X12430000Y-12480000D02*
X12470000Y-12520000D01*
X12470000Y-12480000D02*
X12430000Y-12520000D01*
X12480000Y-11430000D02*
X12520000Y-11470000D01*
X12520000Y-11430000D02*
X12480000Y-11470000D01*
X12480000Y-11980000D02*
X12520000Y-12020000D01*
X12520000Y-11980000D02*
X12480000Y-12020000D01*
X12480000Y-12980000D02*
X12520000Y-13020000D01*
X12520000Y-12980000D02*
X12480000Y-13020000D01*
X12480000Y-13480000D02*
X12520000Y-13520000D01*
X12520000Y-13480000D02*
X12480000Y-13520000D01*
X12480000Y-14480000D02*
X12520000Y-14520000D01*
X12520000Y-14480000D02*
X12480000Y-14520000D01*
X12480000Y-14880000D02*
X12520000Y-14920000D01*
X12520000Y-14880000D02*
X12480000Y-14920000D01*
X12530000Y-13980000D02*
X12570000Y-14020000D01*
X12570000Y-13980000D02*
X12530000Y-14020000D01*
X12980000Y-11430000D02*
X13020000Y-11470000D01*
X13020000Y-11430000D02*
X12980000Y-11470000D01*
X12980000Y-11980000D02*
X13020000Y-12020000D01*
X13020000Y-11980000D02*
X12980000Y-12020000D01*
X12980000Y-12480000D02*
X13020000Y-12520000D01*
X13020000Y-12480000D02*
X12980000Y-12520000D01*
X12980000Y-12980000D02*
X13020000Y-13020000D01*
X13020000Y-12980000D02*
X12980000Y-13020000D01*
X12980000Y-13480000D02*
X13020000Y-13520000D01*
X13020000Y-13480000D02*
X12980000Y-13520000D01*
X12980000Y-13980000D02*
X13020000Y-14020000D01*
X13020000Y-13980000D02*
X12980000Y-14020000D01*
X12980000Y-14480000D02*
X13020000Y-14520000D01*
X13020000Y-14480000D02*
X12980000Y-14520000D01*
X12980000Y-14880000D02*
X13020000Y-14920000D01*
X13020000Y-14880000D02*
X12980000Y-14920000D01*
X13480000Y-11430000D02*
X13520000Y-11470000D01*
X13520000Y-11430000D02*
X13480000Y-11470000D01*
X13480000Y-11980000D02*
X13520000Y-12020000D01*
X13520000Y-11980000D02*
X13480000Y-12020000D01*
X13480000Y-12480000D02*
X13520000Y-12520000D01*
X13520000Y-12480000D02*
X13480000Y-12520000D01*
X13480000Y-12980000D02*
X13520000Y-13020000D01*
X13520000Y-12980000D02*
X13480000Y-13020000D01*
X13480000Y-13480000D02*
X13520000Y-13520000D01*
X13520000Y-13480000D02*
X13480000Y-13520000D01*
X13480000Y-13980000D02*
X13520000Y-14020000D01*
X13520000Y-13980000D02*
X13480000Y-14020000D01*
X13480000Y-14480000D02*
X13520000Y-14520000D01*
X13520000Y-14480000D02*
X13480000Y-14520000D01*
X13480000Y-14880000D02*
X13520000Y-14920000D01*
X13520000Y-14880000D02*
X13480000Y-14920000D01*
X6340000Y-14500000D02*
G75*
G02*
X6260000Y-14500000I-40000J0D01*
G01*
X6260000Y-14500000D02*
G75*
G02*
X6340000Y-14500000I40000J0D01*
G01*
X6540000Y-14500000D02*
G75*
G02*
X6460000Y-14500000I-40000J0D01*
G01*
X6460000Y-14500000D02*
G75*
G02*
X6540000Y-14500000I40000J0D01*
G01*
X6740000Y-14500000D02*
G75*
G02*
X6660000Y-14500000I-40000J0D01*
G01*
X6660000Y-14500000D02*
G75*
G02*
X6740000Y-14500000I40000J0D01*
G01*
X6940000Y-14500000D02*
G75*
G02*
X6860000Y-14500000I-40000J0D01*
G01*
X6860000Y-14500000D02*
G75*
G02*
X6940000Y-14500000I40000J0D01*
G01*
X11340000Y-14500000D02*
G75*
G02*
X11260000Y-14500000I-40000J0D01*
G01*
X11260000Y-14500000D02*
G75*
G02*
X11340000Y-14500000I40000J0D01*
G01*
X11540000Y-14500000D02*
G75*
G02*
X11460000Y-14500000I-40000J0D01*
G01*
X11460000Y-14500000D02*
G75*
G02*
X11540000Y-14500000I40000J0D01*
G01*
X11740000Y-14500000D02*
G75*
G02*
X11660000Y-14500000I-40000J0D01*
G01*
X11660000Y-14500000D02*
G75*
G02*
X11740000Y-14500000I40000J0D01*
G01*
X11940000Y-14500000D02*
G75*
G02*
X11860000Y-14500000I-40000J0D01*
G01*
X11860000Y-14500000D02*
G75*
G02*
X11940000Y-14500000I40000J0D01*
G01*
X5300000Y-7255000D02*
X5300000Y-7345000D01*
X5255000Y-7300000D02*
X5345000Y-7300000D01*
X5300000Y-7655000D02*
X5300000Y-7745000D01*
X5255000Y-7700000D02*
X5345000Y-7700000D01*
X5300000Y-8055000D02*
X5300000Y-8145000D01*
X5255000Y-8100000D02*
X5345000Y-8100000D01*
X7422556Y-9171756D02*
X7422556Y-9101044D01*
X7351844Y-9101044D01*
X7351844Y-9171756D01*
X7422556Y-9171756D01*
X7422556Y-9425756D02*
X7422556Y-9355044D01*
X7351844Y-9355044D01*
X7351844Y-9425756D01*
X7422556Y-9425756D01*
X7422556Y-9679756D02*
X7422556Y-9609044D01*
X7351844Y-9609044D01*
X7351844Y-9679756D01*
X7422556Y-9679756D01*
X7422556Y-9933756D02*
X7422556Y-9863044D01*
X7351844Y-9863044D01*
X7351844Y-9933756D01*
X7422556Y-9933756D01*
X7632856Y-13696456D02*
X7632856Y-13625744D01*
X7562144Y-13625744D01*
X7562144Y-13696456D01*
X7632856Y-13696456D01*
X7886856Y-13696456D02*
X7886856Y-13625744D01*
X7816144Y-13625744D01*
X7816144Y-13696456D01*
X7886856Y-13696456D01*
X9633356Y-11721456D02*
X9633356Y-11650744D01*
X9562644Y-11650744D01*
X9562644Y-11721456D01*
X9633356Y-11721456D01*
X9633356Y-13753456D02*
X9633356Y-13682744D01*
X9562644Y-13682744D01*
X9562644Y-13753456D01*
X9633356Y-13753456D01*
X9887356Y-11721456D02*
X9887356Y-11650744D01*
X9816644Y-11650744D01*
X9816644Y-11721456D01*
X9887356Y-11721456D01*
X9887356Y-13753456D02*
X9887356Y-13682744D01*
X9816644Y-13682744D01*
X9816644Y-13753456D01*
X9887356Y-13753456D01*
X10141356Y-11721456D02*
X10141356Y-11650744D01*
X10070644Y-11650744D01*
X10070644Y-11721456D01*
X10141356Y-11721456D01*
X10141356Y-13753456D02*
X10141356Y-13682744D01*
X10070644Y-13682744D01*
X10070644Y-13753456D01*
X10141356Y-13753456D01*
X10395356Y-11721456D02*
X10395356Y-11650744D01*
X10324644Y-11650744D01*
X10324644Y-11721456D01*
X10395356Y-11721456D01*
X10395356Y-13753456D02*
X10395356Y-13682744D01*
X10324644Y-13682744D01*
X10324644Y-13753456D01*
X10395356Y-13753456D01*
X10649356Y-11721456D02*
X10649356Y-11650744D01*
X10578644Y-11650744D01*
X10578644Y-11721456D01*
X10649356Y-11721456D01*
X10649356Y-13753456D02*
X10649356Y-13682744D01*
X10578644Y-13682744D01*
X10578644Y-13753456D01*
X10649356Y-13753456D01*
X10903356Y-11721456D02*
X10903356Y-11650744D01*
X10832644Y-11650744D01*
X10832644Y-11721456D01*
X10903356Y-11721456D01*
X10903356Y-13753456D02*
X10903356Y-13682744D01*
X10832644Y-13682744D01*
X10832644Y-13753456D01*
X10903356Y-13753456D01*
X11157356Y-11721456D02*
X11157356Y-11650744D01*
X11086644Y-11650744D01*
X11086644Y-11721456D01*
X11157356Y-11721456D01*
X11157356Y-13753456D02*
X11157356Y-13682744D01*
X11086644Y-13682744D01*
X11086644Y-13753456D01*
X11157356Y-13753456D01*
X11411356Y-11721456D02*
X11411356Y-11650744D01*
X11340644Y-11650744D01*
X11340644Y-11721456D01*
X11411356Y-11721456D01*
X11411356Y-13753456D02*
X11411356Y-13682744D01*
X11340644Y-13682744D01*
X11340644Y-13753456D01*
X11411356Y-13753456D01*
X11665356Y-11721456D02*
X11665356Y-11650744D01*
X11594644Y-11650744D01*
X11594644Y-11721456D01*
X11665356Y-11721456D01*
X11665356Y-13753456D02*
X11665356Y-13682744D01*
X11594644Y-13682744D01*
X11594644Y-13753456D01*
X11665356Y-13753456D01*
X11919356Y-11721456D02*
X11919356Y-11650744D01*
X11848644Y-11650744D01*
X11848644Y-11721456D01*
X11919356Y-11721456D01*
X11919356Y-13753456D02*
X11919356Y-13682744D01*
X11848644Y-13682744D01*
X11848644Y-13753456D01*
X11919356Y-13753456D01*
X12173356Y-11721456D02*
X12173356Y-11650744D01*
X12102644Y-11650744D01*
X12102644Y-11721456D01*
X12173356Y-11721456D01*
X12173356Y-13753456D02*
X12173356Y-13682744D01*
X12102644Y-13682744D01*
X12102644Y-13753456D01*
X12173356Y-13753456D01*
X12427356Y-11721456D02*
X12427356Y-11650744D01*
X12356644Y-11650744D01*
X12356644Y-11721456D01*
X12427356Y-11721456D01*
X12427356Y-13753456D02*
X12427356Y-13682744D01*
X12356644Y-13682744D01*
X12356644Y-13753456D01*
X12427356Y-13753456D01*
X12681356Y-11721456D02*
X12681356Y-11650744D01*
X12610644Y-11650744D01*
X12610644Y-11721456D01*
X12681356Y-11721456D01*
X12681356Y-13753456D02*
X12681356Y-13682744D01*
X12610644Y-13682744D01*
X12610644Y-13753456D01*
X12681356Y-13753456D01*
X12935356Y-11721456D02*
X12935356Y-11650744D01*
X12864644Y-11650744D01*
X12864644Y-11721456D01*
X12935356Y-11721456D01*
X12935356Y-13753456D02*
X12935356Y-13682744D01*
X12864644Y-13682744D01*
X12864644Y-13753456D01*
X12935356Y-13753456D01*
D13*
X6478000Y-5313500D02*
X6544000Y-5247500D01*
X6478000Y-5181500D01*
X6412000Y-5247500D01*
X6478000Y-5313500D01*
X6478000Y-7613500D02*
X6544000Y-7547500D01*
X6478000Y-7481500D01*
X6412000Y-7547500D01*
X6478000Y-7613500D01*
X13700000Y-5313500D02*
X13766000Y-5247500D01*
X13700000Y-5181500D01*
X13634000Y-5247500D01*
X13700000Y-5313500D01*
X13700000Y-7613500D02*
X13766000Y-7547500D01*
X13700000Y-7481500D01*
X13634000Y-7547500D01*
X13700000Y-7613500D01*
D11*
X3258277Y-16466484D02*
X3258277Y-16266484D01*
X3258277Y-16266484D02*
X3305896Y-16266484D01*
X3305896Y-16266484D02*
X3334467Y-16276008D01*
X3334467Y-16276008D02*
X3353515Y-16295055D01*
X3353515Y-16295055D02*
X3363039Y-16314103D01*
X3363039Y-16314103D02*
X3372562Y-16352198D01*
X3372562Y-16352198D02*
X3372562Y-16380769D01*
X3372562Y-16380769D02*
X3363039Y-16418865D01*
X3363039Y-16418865D02*
X3353515Y-16437912D01*
X3353515Y-16437912D02*
X3334467Y-16456960D01*
X3334467Y-16456960D02*
X3305896Y-16466484D01*
X3305896Y-16466484D02*
X3258277Y-16466484D01*
X3458277Y-16466484D02*
X3458277Y-16333150D01*
X3458277Y-16371246D02*
X3467801Y-16352198D01*
X3467801Y-16352198D02*
X3477324Y-16342674D01*
X3477324Y-16342674D02*
X3496372Y-16333150D01*
X3496372Y-16333150D02*
X3515420Y-16333150D01*
X3582086Y-16466484D02*
X3582086Y-16333150D01*
X3582086Y-16266484D02*
X3572562Y-16276008D01*
X3572562Y-16276008D02*
X3582086Y-16285531D01*
X3582086Y-16285531D02*
X3591610Y-16276008D01*
X3591610Y-16276008D02*
X3582086Y-16266484D01*
X3582086Y-16266484D02*
X3582086Y-16285531D01*
X3705896Y-16466484D02*
X3686848Y-16456960D01*
X3686848Y-16456960D02*
X3677324Y-16437912D01*
X3677324Y-16437912D02*
X3677324Y-16266484D01*
X3810658Y-16466484D02*
X3791610Y-16456960D01*
X3791610Y-16456960D02*
X3782086Y-16437912D01*
X3782086Y-16437912D02*
X3782086Y-16266484D01*
X4039229Y-16466484D02*
X4039229Y-16266484D01*
X4039229Y-16266484D02*
X4105896Y-16409341D01*
X4105896Y-16409341D02*
X4172562Y-16266484D01*
X4172562Y-16266484D02*
X4172562Y-16466484D01*
X4353515Y-16466484D02*
X4353515Y-16361722D01*
X4353515Y-16361722D02*
X4343991Y-16342674D01*
X4343991Y-16342674D02*
X4324944Y-16333150D01*
X4324944Y-16333150D02*
X4286848Y-16333150D01*
X4286848Y-16333150D02*
X4267801Y-16342674D01*
X4353515Y-16456960D02*
X4334467Y-16466484D01*
X4334467Y-16466484D02*
X4286848Y-16466484D01*
X4286848Y-16466484D02*
X4267801Y-16456960D01*
X4267801Y-16456960D02*
X4258277Y-16437912D01*
X4258277Y-16437912D02*
X4258277Y-16418865D01*
X4258277Y-16418865D02*
X4267801Y-16399817D01*
X4267801Y-16399817D02*
X4286848Y-16390293D01*
X4286848Y-16390293D02*
X4334467Y-16390293D01*
X4334467Y-16390293D02*
X4353515Y-16380769D01*
X4448753Y-16333150D02*
X4448753Y-16533150D01*
X4448753Y-16342674D02*
X4467801Y-16333150D01*
X4467801Y-16333150D02*
X4505896Y-16333150D01*
X4505896Y-16333150D02*
X4524944Y-16342674D01*
X4524944Y-16342674D02*
X4534467Y-16352198D01*
X4534467Y-16352198D02*
X4543991Y-16371246D01*
X4543991Y-16371246D02*
X4543991Y-16428388D01*
X4543991Y-16428388D02*
X4534467Y-16447436D01*
X4534467Y-16447436D02*
X4524944Y-16456960D01*
X4524944Y-16456960D02*
X4505896Y-16466484D01*
X4505896Y-16466484D02*
X4467801Y-16466484D01*
X4467801Y-16466484D02*
X4448753Y-16456960D01*
X4629705Y-16447436D02*
X4639229Y-16456960D01*
X4639229Y-16456960D02*
X4629705Y-16466484D01*
X4629705Y-16466484D02*
X4620182Y-16456960D01*
X4620182Y-16456960D02*
X4629705Y-16447436D01*
X4629705Y-16447436D02*
X4629705Y-16466484D01*
X4629705Y-16342674D02*
X4639229Y-16352198D01*
X4639229Y-16352198D02*
X4629705Y-16361722D01*
X4629705Y-16361722D02*
X4620182Y-16352198D01*
X4620182Y-16352198D02*
X4629705Y-16342674D01*
X4629705Y-16342674D02*
X4629705Y-16361722D01*
D12*
X2957500Y-16775000D02*
X2997500Y-16815000D01*
X2997500Y-16775000D02*
X2957500Y-16815000D01*
D11*
X3296372Y-16686484D02*
X3315420Y-16686484D01*
X3315420Y-16686484D02*
X3334467Y-16696008D01*
X3334467Y-16696008D02*
X3343991Y-16705531D01*
X3343991Y-16705531D02*
X3353515Y-16724579D01*
X3353515Y-16724579D02*
X3363039Y-16762674D01*
X3363039Y-16762674D02*
X3363039Y-16810293D01*
X3363039Y-16810293D02*
X3353515Y-16848389D01*
X3353515Y-16848389D02*
X3343991Y-16867436D01*
X3343991Y-16867436D02*
X3334467Y-16876960D01*
X3334467Y-16876960D02*
X3315420Y-16886484D01*
X3315420Y-16886484D02*
X3296372Y-16886484D01*
X3296372Y-16886484D02*
X3277324Y-16876960D01*
X3277324Y-16876960D02*
X3267801Y-16867436D01*
X3267801Y-16867436D02*
X3258277Y-16848389D01*
X3258277Y-16848389D02*
X3248753Y-16810293D01*
X3248753Y-16810293D02*
X3248753Y-16762674D01*
X3248753Y-16762674D02*
X3258277Y-16724579D01*
X3258277Y-16724579D02*
X3267801Y-16705531D01*
X3267801Y-16705531D02*
X3277324Y-16696008D01*
X3277324Y-16696008D02*
X3296372Y-16686484D01*
X3448753Y-16867436D02*
X3458277Y-16876960D01*
X3458277Y-16876960D02*
X3448753Y-16886484D01*
X3448753Y-16886484D02*
X3439229Y-16876960D01*
X3439229Y-16876960D02*
X3448753Y-16867436D01*
X3448753Y-16867436D02*
X3448753Y-16886484D01*
X3629705Y-16753150D02*
X3629705Y-16886484D01*
X3582086Y-16676960D02*
X3534467Y-16819817D01*
X3534467Y-16819817D02*
X3658277Y-16819817D01*
X3772562Y-16686484D02*
X3791610Y-16686484D01*
X3791610Y-16686484D02*
X3810658Y-16696008D01*
X3810658Y-16696008D02*
X3820182Y-16705531D01*
X3820182Y-16705531D02*
X3829705Y-16724579D01*
X3829705Y-16724579D02*
X3839229Y-16762674D01*
X3839229Y-16762674D02*
X3839229Y-16810293D01*
X3839229Y-16810293D02*
X3829705Y-16848389D01*
X3829705Y-16848389D02*
X3820182Y-16867436D01*
X3820182Y-16867436D02*
X3810658Y-16876960D01*
X3810658Y-16876960D02*
X3791610Y-16886484D01*
X3791610Y-16886484D02*
X3772562Y-16886484D01*
X3772562Y-16886484D02*
X3753515Y-16876960D01*
X3753515Y-16876960D02*
X3743991Y-16867436D01*
X3743991Y-16867436D02*
X3734467Y-16848389D01*
X3734467Y-16848389D02*
X3724943Y-16810293D01*
X3724943Y-16810293D02*
X3724943Y-16762674D01*
X3724943Y-16762674D02*
X3734467Y-16724579D01*
X3734467Y-16724579D02*
X3743991Y-16705531D01*
X3743991Y-16705531D02*
X3753515Y-16696008D01*
X3753515Y-16696008D02*
X3772562Y-16686484D01*
X3963039Y-16686484D02*
X3982086Y-16686484D01*
X3982086Y-16686484D02*
X4001134Y-16696008D01*
X4001134Y-16696008D02*
X4010658Y-16705531D01*
X4010658Y-16705531D02*
X4020182Y-16724579D01*
X4020182Y-16724579D02*
X4029705Y-16762674D01*
X4029705Y-16762674D02*
X4029705Y-16810293D01*
X4029705Y-16810293D02*
X4020182Y-16848389D01*
X4020182Y-16848389D02*
X4010658Y-16867436D01*
X4010658Y-16867436D02*
X4001134Y-16876960D01*
X4001134Y-16876960D02*
X3982086Y-16886484D01*
X3982086Y-16886484D02*
X3963039Y-16886484D01*
X3963039Y-16886484D02*
X3943991Y-16876960D01*
X3943991Y-16876960D02*
X3934467Y-16867436D01*
X3934467Y-16867436D02*
X3924943Y-16848389D01*
X3924943Y-16848389D02*
X3915420Y-16810293D01*
X3915420Y-16810293D02*
X3915420Y-16762674D01*
X3915420Y-16762674D02*
X3924943Y-16724579D01*
X3924943Y-16724579D02*
X3934467Y-16705531D01*
X3934467Y-16705531D02*
X3943991Y-16696008D01*
X3943991Y-16696008D02*
X3963039Y-16686484D01*
X4115420Y-16886484D02*
X4115420Y-16753150D01*
X4115420Y-16772198D02*
X4124943Y-16762674D01*
X4124943Y-16762674D02*
X4143991Y-16753150D01*
X4143991Y-16753150D02*
X4172563Y-16753150D01*
X4172563Y-16753150D02*
X4191610Y-16762674D01*
X4191610Y-16762674D02*
X4201134Y-16781722D01*
X4201134Y-16781722D02*
X4201134Y-16886484D01*
X4201134Y-16781722D02*
X4210658Y-16762674D01*
X4210658Y-16762674D02*
X4229705Y-16753150D01*
X4229705Y-16753150D02*
X4258277Y-16753150D01*
X4258277Y-16753150D02*
X4277325Y-16762674D01*
X4277325Y-16762674D02*
X4286848Y-16781722D01*
X4286848Y-16781722D02*
X4286848Y-16886484D01*
X4382086Y-16886484D02*
X4382086Y-16753150D01*
X4382086Y-16772198D02*
X4391610Y-16762674D01*
X4391610Y-16762674D02*
X4410658Y-16753150D01*
X4410658Y-16753150D02*
X4439229Y-16753150D01*
X4439229Y-16753150D02*
X4458277Y-16762674D01*
X4458277Y-16762674D02*
X4467801Y-16781722D01*
X4467801Y-16781722D02*
X4467801Y-16886484D01*
X4467801Y-16781722D02*
X4477325Y-16762674D01*
X4477325Y-16762674D02*
X4496372Y-16753150D01*
X4496372Y-16753150D02*
X4524944Y-16753150D01*
X4524944Y-16753150D02*
X4543991Y-16762674D01*
X4543991Y-16762674D02*
X4553515Y-16781722D01*
X4553515Y-16781722D02*
X4553515Y-16886484D01*
X4943991Y-16676960D02*
X4772563Y-16934103D01*
X5201134Y-16686484D02*
X5220182Y-16686484D01*
X5220182Y-16686484D02*
X5239229Y-16696008D01*
X5239229Y-16696008D02*
X5248753Y-16705531D01*
X5248753Y-16705531D02*
X5258277Y-16724579D01*
X5258277Y-16724579D02*
X5267801Y-16762674D01*
X5267801Y-16762674D02*
X5267801Y-16810293D01*
X5267801Y-16810293D02*
X5258277Y-16848389D01*
X5258277Y-16848389D02*
X5248753Y-16867436D01*
X5248753Y-16867436D02*
X5239229Y-16876960D01*
X5239229Y-16876960D02*
X5220182Y-16886484D01*
X5220182Y-16886484D02*
X5201134Y-16886484D01*
X5201134Y-16886484D02*
X5182087Y-16876960D01*
X5182087Y-16876960D02*
X5172563Y-16867436D01*
X5172563Y-16867436D02*
X5163039Y-16848389D01*
X5163039Y-16848389D02*
X5153515Y-16810293D01*
X5153515Y-16810293D02*
X5153515Y-16762674D01*
X5153515Y-16762674D02*
X5163039Y-16724579D01*
X5163039Y-16724579D02*
X5172563Y-16705531D01*
X5172563Y-16705531D02*
X5182087Y-16696008D01*
X5182087Y-16696008D02*
X5201134Y-16686484D01*
X5353515Y-16867436D02*
X5363039Y-16876960D01*
X5363039Y-16876960D02*
X5353515Y-16886484D01*
X5353515Y-16886484D02*
X5343991Y-16876960D01*
X5343991Y-16876960D02*
X5353515Y-16867436D01*
X5353515Y-16867436D02*
X5353515Y-16886484D01*
X5486848Y-16686484D02*
X5505896Y-16686484D01*
X5505896Y-16686484D02*
X5524944Y-16696008D01*
X5524944Y-16696008D02*
X5534468Y-16705531D01*
X5534468Y-16705531D02*
X5543991Y-16724579D01*
X5543991Y-16724579D02*
X5553515Y-16762674D01*
X5553515Y-16762674D02*
X5553515Y-16810293D01*
X5553515Y-16810293D02*
X5543991Y-16848389D01*
X5543991Y-16848389D02*
X5534468Y-16867436D01*
X5534468Y-16867436D02*
X5524944Y-16876960D01*
X5524944Y-16876960D02*
X5505896Y-16886484D01*
X5505896Y-16886484D02*
X5486848Y-16886484D01*
X5486848Y-16886484D02*
X5467801Y-16876960D01*
X5467801Y-16876960D02*
X5458277Y-16867436D01*
X5458277Y-16867436D02*
X5448753Y-16848389D01*
X5448753Y-16848389D02*
X5439229Y-16810293D01*
X5439229Y-16810293D02*
X5439229Y-16762674D01*
X5439229Y-16762674D02*
X5448753Y-16724579D01*
X5448753Y-16724579D02*
X5458277Y-16705531D01*
X5458277Y-16705531D02*
X5467801Y-16696008D01*
X5467801Y-16696008D02*
X5486848Y-16686484D01*
X5743991Y-16886484D02*
X5629706Y-16886484D01*
X5686848Y-16886484D02*
X5686848Y-16686484D01*
X5686848Y-16686484D02*
X5667801Y-16715055D01*
X5667801Y-16715055D02*
X5648753Y-16734103D01*
X5648753Y-16734103D02*
X5629706Y-16743627D01*
X5924944Y-16686484D02*
X5829706Y-16686484D01*
X5829706Y-16686484D02*
X5820182Y-16781722D01*
X5820182Y-16781722D02*
X5829706Y-16772198D01*
X5829706Y-16772198D02*
X5848753Y-16762674D01*
X5848753Y-16762674D02*
X5896372Y-16762674D01*
X5896372Y-16762674D02*
X5915420Y-16772198D01*
X5915420Y-16772198D02*
X5924944Y-16781722D01*
X5924944Y-16781722D02*
X5934467Y-16800770D01*
X5934467Y-16800770D02*
X5934467Y-16848389D01*
X5934467Y-16848389D02*
X5924944Y-16867436D01*
X5924944Y-16867436D02*
X5915420Y-16876960D01*
X5915420Y-16876960D02*
X5896372Y-16886484D01*
X5896372Y-16886484D02*
X5848753Y-16886484D01*
X5848753Y-16886484D02*
X5829706Y-16876960D01*
X5829706Y-16876960D02*
X5820182Y-16867436D01*
X6001134Y-16686484D02*
X6134467Y-16686484D01*
X6134467Y-16686484D02*
X6048753Y-16886484D01*
X6201134Y-16686484D02*
X6201134Y-16724579D01*
X6277325Y-16686484D02*
X6277325Y-16724579D01*
X6572563Y-16962674D02*
X6563039Y-16953150D01*
X6563039Y-16953150D02*
X6543991Y-16924579D01*
X6543991Y-16924579D02*
X6534468Y-16905531D01*
X6534468Y-16905531D02*
X6524944Y-16876960D01*
X6524944Y-16876960D02*
X6515420Y-16829341D01*
X6515420Y-16829341D02*
X6515420Y-16791246D01*
X6515420Y-16791246D02*
X6524944Y-16743627D01*
X6524944Y-16743627D02*
X6534468Y-16715055D01*
X6534468Y-16715055D02*
X6543991Y-16696008D01*
X6543991Y-16696008D02*
X6563039Y-16667436D01*
X6563039Y-16667436D02*
X6572563Y-16657912D01*
X6753515Y-16886484D02*
X6639229Y-16886484D01*
X6696372Y-16886484D02*
X6696372Y-16686484D01*
X6696372Y-16686484D02*
X6677325Y-16715055D01*
X6677325Y-16715055D02*
X6658277Y-16734103D01*
X6658277Y-16734103D02*
X6639229Y-16743627D01*
X6934468Y-16686484D02*
X6839229Y-16686484D01*
X6839229Y-16686484D02*
X6829706Y-16781722D01*
X6829706Y-16781722D02*
X6839229Y-16772198D01*
X6839229Y-16772198D02*
X6858277Y-16762674D01*
X6858277Y-16762674D02*
X6905896Y-16762674D01*
X6905896Y-16762674D02*
X6924944Y-16772198D01*
X6924944Y-16772198D02*
X6934468Y-16781722D01*
X6934468Y-16781722D02*
X6943991Y-16800770D01*
X6943991Y-16800770D02*
X6943991Y-16848389D01*
X6943991Y-16848389D02*
X6934468Y-16867436D01*
X6934468Y-16867436D02*
X6924944Y-16876960D01*
X6924944Y-16876960D02*
X6905896Y-16886484D01*
X6905896Y-16886484D02*
X6858277Y-16886484D01*
X6858277Y-16886484D02*
X6839229Y-16876960D01*
X6839229Y-16876960D02*
X6829706Y-16867436D01*
X7058277Y-16772198D02*
X7039229Y-16762674D01*
X7039229Y-16762674D02*
X7029706Y-16753150D01*
X7029706Y-16753150D02*
X7020182Y-16734103D01*
X7020182Y-16734103D02*
X7020182Y-16724579D01*
X7020182Y-16724579D02*
X7029706Y-16705531D01*
X7029706Y-16705531D02*
X7039229Y-16696008D01*
X7039229Y-16696008D02*
X7058277Y-16686484D01*
X7058277Y-16686484D02*
X7096372Y-16686484D01*
X7096372Y-16686484D02*
X7115420Y-16696008D01*
X7115420Y-16696008D02*
X7124944Y-16705531D01*
X7124944Y-16705531D02*
X7134468Y-16724579D01*
X7134468Y-16724579D02*
X7134468Y-16734103D01*
X7134468Y-16734103D02*
X7124944Y-16753150D01*
X7124944Y-16753150D02*
X7115420Y-16762674D01*
X7115420Y-16762674D02*
X7096372Y-16772198D01*
X7096372Y-16772198D02*
X7058277Y-16772198D01*
X7058277Y-16772198D02*
X7039229Y-16781722D01*
X7039229Y-16781722D02*
X7029706Y-16791246D01*
X7029706Y-16791246D02*
X7020182Y-16810293D01*
X7020182Y-16810293D02*
X7020182Y-16848389D01*
X7020182Y-16848389D02*
X7029706Y-16867436D01*
X7029706Y-16867436D02*
X7039229Y-16876960D01*
X7039229Y-16876960D02*
X7058277Y-16886484D01*
X7058277Y-16886484D02*
X7096372Y-16886484D01*
X7096372Y-16886484D02*
X7115420Y-16876960D01*
X7115420Y-16876960D02*
X7124944Y-16867436D01*
X7124944Y-16867436D02*
X7134468Y-16848389D01*
X7134468Y-16848389D02*
X7134468Y-16810293D01*
X7134468Y-16810293D02*
X7124944Y-16791246D01*
X7124944Y-16791246D02*
X7115420Y-16781722D01*
X7115420Y-16781722D02*
X7096372Y-16772198D01*
X7372563Y-16886484D02*
X7372563Y-16686484D01*
X7458277Y-16886484D02*
X7458277Y-16781722D01*
X7458277Y-16781722D02*
X7448753Y-16762674D01*
X7448753Y-16762674D02*
X7429706Y-16753150D01*
X7429706Y-16753150D02*
X7401134Y-16753150D01*
X7401134Y-16753150D02*
X7382087Y-16762674D01*
X7382087Y-16762674D02*
X7372563Y-16772198D01*
X7582087Y-16886484D02*
X7563039Y-16876960D01*
X7563039Y-16876960D02*
X7553515Y-16867436D01*
X7553515Y-16867436D02*
X7543991Y-16848389D01*
X7543991Y-16848389D02*
X7543991Y-16791246D01*
X7543991Y-16791246D02*
X7553515Y-16772198D01*
X7553515Y-16772198D02*
X7563039Y-16762674D01*
X7563039Y-16762674D02*
X7582087Y-16753150D01*
X7582087Y-16753150D02*
X7610658Y-16753150D01*
X7610658Y-16753150D02*
X7629706Y-16762674D01*
X7629706Y-16762674D02*
X7639230Y-16772198D01*
X7639230Y-16772198D02*
X7648753Y-16791246D01*
X7648753Y-16791246D02*
X7648753Y-16848389D01*
X7648753Y-16848389D02*
X7639230Y-16867436D01*
X7639230Y-16867436D02*
X7629706Y-16876960D01*
X7629706Y-16876960D02*
X7610658Y-16886484D01*
X7610658Y-16886484D02*
X7582087Y-16886484D01*
X7763039Y-16886484D02*
X7743991Y-16876960D01*
X7743991Y-16876960D02*
X7734468Y-16857912D01*
X7734468Y-16857912D02*
X7734468Y-16686484D01*
X7915420Y-16876960D02*
X7896372Y-16886484D01*
X7896372Y-16886484D02*
X7858277Y-16886484D01*
X7858277Y-16886484D02*
X7839230Y-16876960D01*
X7839230Y-16876960D02*
X7829706Y-16857912D01*
X7829706Y-16857912D02*
X7829706Y-16781722D01*
X7829706Y-16781722D02*
X7839230Y-16762674D01*
X7839230Y-16762674D02*
X7858277Y-16753150D01*
X7858277Y-16753150D02*
X7896372Y-16753150D01*
X7896372Y-16753150D02*
X7915420Y-16762674D01*
X7915420Y-16762674D02*
X7924944Y-16781722D01*
X7924944Y-16781722D02*
X7924944Y-16800770D01*
X7924944Y-16800770D02*
X7829706Y-16819817D01*
X8001134Y-16876960D02*
X8020182Y-16886484D01*
X8020182Y-16886484D02*
X8058277Y-16886484D01*
X8058277Y-16886484D02*
X8077325Y-16876960D01*
X8077325Y-16876960D02*
X8086849Y-16857912D01*
X8086849Y-16857912D02*
X8086849Y-16848389D01*
X8086849Y-16848389D02*
X8077325Y-16829341D01*
X8077325Y-16829341D02*
X8058277Y-16819817D01*
X8058277Y-16819817D02*
X8029706Y-16819817D01*
X8029706Y-16819817D02*
X8010658Y-16810293D01*
X8010658Y-16810293D02*
X8001134Y-16791246D01*
X8001134Y-16791246D02*
X8001134Y-16781722D01*
X8001134Y-16781722D02*
X8010658Y-16762674D01*
X8010658Y-16762674D02*
X8029706Y-16753150D01*
X8029706Y-16753150D02*
X8058277Y-16753150D01*
X8058277Y-16753150D02*
X8077325Y-16762674D01*
X8153515Y-16962674D02*
X8163039Y-16953150D01*
X8163039Y-16953150D02*
X8182087Y-16924579D01*
X8182087Y-16924579D02*
X8191611Y-16905531D01*
X8191611Y-16905531D02*
X8201134Y-16876960D01*
X8201134Y-16876960D02*
X8210658Y-16829341D01*
X8210658Y-16829341D02*
X8210658Y-16791246D01*
X8210658Y-16791246D02*
X8201134Y-16743627D01*
X8201134Y-16743627D02*
X8191611Y-16715055D01*
X8191611Y-16715055D02*
X8182087Y-16696008D01*
X8182087Y-16696008D02*
X8163039Y-16667436D01*
X8163039Y-16667436D02*
X8153515Y-16657912D01*
D12*
X2997500Y-17059000D02*
G75*
G02*
X2917500Y-17059000I-40000J0D01*
G01*
X2917500Y-17059000D02*
G75*
G02*
X2997500Y-17059000I40000J0D01*
G01*
D11*
X3296372Y-16950484D02*
X3315420Y-16950484D01*
X3315420Y-16950484D02*
X3334467Y-16960008D01*
X3334467Y-16960008D02*
X3343991Y-16969531D01*
X3343991Y-16969531D02*
X3353515Y-16988579D01*
X3353515Y-16988579D02*
X3363039Y-17026674D01*
X3363039Y-17026674D02*
X3363039Y-17074293D01*
X3363039Y-17074293D02*
X3353515Y-17112389D01*
X3353515Y-17112389D02*
X3343991Y-17131436D01*
X3343991Y-17131436D02*
X3334467Y-17140960D01*
X3334467Y-17140960D02*
X3315420Y-17150484D01*
X3315420Y-17150484D02*
X3296372Y-17150484D01*
X3296372Y-17150484D02*
X3277324Y-17140960D01*
X3277324Y-17140960D02*
X3267801Y-17131436D01*
X3267801Y-17131436D02*
X3258277Y-17112389D01*
X3258277Y-17112389D02*
X3248753Y-17074293D01*
X3248753Y-17074293D02*
X3248753Y-17026674D01*
X3248753Y-17026674D02*
X3258277Y-16988579D01*
X3258277Y-16988579D02*
X3267801Y-16969531D01*
X3267801Y-16969531D02*
X3277324Y-16960008D01*
X3277324Y-16960008D02*
X3296372Y-16950484D01*
X3448753Y-17131436D02*
X3458277Y-17140960D01*
X3458277Y-17140960D02*
X3448753Y-17150484D01*
X3448753Y-17150484D02*
X3439229Y-17140960D01*
X3439229Y-17140960D02*
X3448753Y-17131436D01*
X3448753Y-17131436D02*
X3448753Y-17150484D01*
X3572562Y-17036198D02*
X3553515Y-17026674D01*
X3553515Y-17026674D02*
X3543991Y-17017150D01*
X3543991Y-17017150D02*
X3534467Y-16998103D01*
X3534467Y-16998103D02*
X3534467Y-16988579D01*
X3534467Y-16988579D02*
X3543991Y-16969531D01*
X3543991Y-16969531D02*
X3553515Y-16960008D01*
X3553515Y-16960008D02*
X3572562Y-16950484D01*
X3572562Y-16950484D02*
X3610658Y-16950484D01*
X3610658Y-16950484D02*
X3629705Y-16960008D01*
X3629705Y-16960008D02*
X3639229Y-16969531D01*
X3639229Y-16969531D02*
X3648753Y-16988579D01*
X3648753Y-16988579D02*
X3648753Y-16998103D01*
X3648753Y-16998103D02*
X3639229Y-17017150D01*
X3639229Y-17017150D02*
X3629705Y-17026674D01*
X3629705Y-17026674D02*
X3610658Y-17036198D01*
X3610658Y-17036198D02*
X3572562Y-17036198D01*
X3572562Y-17036198D02*
X3553515Y-17045722D01*
X3553515Y-17045722D02*
X3543991Y-17055246D01*
X3543991Y-17055246D02*
X3534467Y-17074293D01*
X3534467Y-17074293D02*
X3534467Y-17112389D01*
X3534467Y-17112389D02*
X3543991Y-17131436D01*
X3543991Y-17131436D02*
X3553515Y-17140960D01*
X3553515Y-17140960D02*
X3572562Y-17150484D01*
X3572562Y-17150484D02*
X3610658Y-17150484D01*
X3610658Y-17150484D02*
X3629705Y-17140960D01*
X3629705Y-17140960D02*
X3639229Y-17131436D01*
X3639229Y-17131436D02*
X3648753Y-17112389D01*
X3648753Y-17112389D02*
X3648753Y-17074293D01*
X3648753Y-17074293D02*
X3639229Y-17055246D01*
X3639229Y-17055246D02*
X3629705Y-17045722D01*
X3629705Y-17045722D02*
X3610658Y-17036198D01*
X3772562Y-16950484D02*
X3791610Y-16950484D01*
X3791610Y-16950484D02*
X3810658Y-16960008D01*
X3810658Y-16960008D02*
X3820182Y-16969531D01*
X3820182Y-16969531D02*
X3829705Y-16988579D01*
X3829705Y-16988579D02*
X3839229Y-17026674D01*
X3839229Y-17026674D02*
X3839229Y-17074293D01*
X3839229Y-17074293D02*
X3829705Y-17112389D01*
X3829705Y-17112389D02*
X3820182Y-17131436D01*
X3820182Y-17131436D02*
X3810658Y-17140960D01*
X3810658Y-17140960D02*
X3791610Y-17150484D01*
X3791610Y-17150484D02*
X3772562Y-17150484D01*
X3772562Y-17150484D02*
X3753515Y-17140960D01*
X3753515Y-17140960D02*
X3743991Y-17131436D01*
X3743991Y-17131436D02*
X3734467Y-17112389D01*
X3734467Y-17112389D02*
X3724943Y-17074293D01*
X3724943Y-17074293D02*
X3724943Y-17026674D01*
X3724943Y-17026674D02*
X3734467Y-16988579D01*
X3734467Y-16988579D02*
X3743991Y-16969531D01*
X3743991Y-16969531D02*
X3753515Y-16960008D01*
X3753515Y-16960008D02*
X3772562Y-16950484D01*
X3963039Y-16950484D02*
X3982086Y-16950484D01*
X3982086Y-16950484D02*
X4001134Y-16960008D01*
X4001134Y-16960008D02*
X4010658Y-16969531D01*
X4010658Y-16969531D02*
X4020182Y-16988579D01*
X4020182Y-16988579D02*
X4029705Y-17026674D01*
X4029705Y-17026674D02*
X4029705Y-17074293D01*
X4029705Y-17074293D02*
X4020182Y-17112389D01*
X4020182Y-17112389D02*
X4010658Y-17131436D01*
X4010658Y-17131436D02*
X4001134Y-17140960D01*
X4001134Y-17140960D02*
X3982086Y-17150484D01*
X3982086Y-17150484D02*
X3963039Y-17150484D01*
X3963039Y-17150484D02*
X3943991Y-17140960D01*
X3943991Y-17140960D02*
X3934467Y-17131436D01*
X3934467Y-17131436D02*
X3924943Y-17112389D01*
X3924943Y-17112389D02*
X3915420Y-17074293D01*
X3915420Y-17074293D02*
X3915420Y-17026674D01*
X3915420Y-17026674D02*
X3924943Y-16988579D01*
X3924943Y-16988579D02*
X3934467Y-16969531D01*
X3934467Y-16969531D02*
X3943991Y-16960008D01*
X3943991Y-16960008D02*
X3963039Y-16950484D01*
X4115420Y-17150484D02*
X4115420Y-17017150D01*
X4115420Y-17036198D02*
X4124943Y-17026674D01*
X4124943Y-17026674D02*
X4143991Y-17017150D01*
X4143991Y-17017150D02*
X4172563Y-17017150D01*
X4172563Y-17017150D02*
X4191610Y-17026674D01*
X4191610Y-17026674D02*
X4201134Y-17045722D01*
X4201134Y-17045722D02*
X4201134Y-17150484D01*
X4201134Y-17045722D02*
X4210658Y-17026674D01*
X4210658Y-17026674D02*
X4229705Y-17017150D01*
X4229705Y-17017150D02*
X4258277Y-17017150D01*
X4258277Y-17017150D02*
X4277325Y-17026674D01*
X4277325Y-17026674D02*
X4286848Y-17045722D01*
X4286848Y-17045722D02*
X4286848Y-17150484D01*
X4382086Y-17150484D02*
X4382086Y-17017150D01*
X4382086Y-17036198D02*
X4391610Y-17026674D01*
X4391610Y-17026674D02*
X4410658Y-17017150D01*
X4410658Y-17017150D02*
X4439229Y-17017150D01*
X4439229Y-17017150D02*
X4458277Y-17026674D01*
X4458277Y-17026674D02*
X4467801Y-17045722D01*
X4467801Y-17045722D02*
X4467801Y-17150484D01*
X4467801Y-17045722D02*
X4477325Y-17026674D01*
X4477325Y-17026674D02*
X4496372Y-17017150D01*
X4496372Y-17017150D02*
X4524944Y-17017150D01*
X4524944Y-17017150D02*
X4543991Y-17026674D01*
X4543991Y-17026674D02*
X4553515Y-17045722D01*
X4553515Y-17045722D02*
X4553515Y-17150484D01*
X4943991Y-16940960D02*
X4772563Y-17198103D01*
X5201134Y-16950484D02*
X5220182Y-16950484D01*
X5220182Y-16950484D02*
X5239229Y-16960008D01*
X5239229Y-16960008D02*
X5248753Y-16969531D01*
X5248753Y-16969531D02*
X5258277Y-16988579D01*
X5258277Y-16988579D02*
X5267801Y-17026674D01*
X5267801Y-17026674D02*
X5267801Y-17074293D01*
X5267801Y-17074293D02*
X5258277Y-17112389D01*
X5258277Y-17112389D02*
X5248753Y-17131436D01*
X5248753Y-17131436D02*
X5239229Y-17140960D01*
X5239229Y-17140960D02*
X5220182Y-17150484D01*
X5220182Y-17150484D02*
X5201134Y-17150484D01*
X5201134Y-17150484D02*
X5182087Y-17140960D01*
X5182087Y-17140960D02*
X5172563Y-17131436D01*
X5172563Y-17131436D02*
X5163039Y-17112389D01*
X5163039Y-17112389D02*
X5153515Y-17074293D01*
X5153515Y-17074293D02*
X5153515Y-17026674D01*
X5153515Y-17026674D02*
X5163039Y-16988579D01*
X5163039Y-16988579D02*
X5172563Y-16969531D01*
X5172563Y-16969531D02*
X5182087Y-16960008D01*
X5182087Y-16960008D02*
X5201134Y-16950484D01*
X5353515Y-17131436D02*
X5363039Y-17140960D01*
X5363039Y-17140960D02*
X5353515Y-17150484D01*
X5353515Y-17150484D02*
X5343991Y-17140960D01*
X5343991Y-17140960D02*
X5353515Y-17131436D01*
X5353515Y-17131436D02*
X5353515Y-17150484D01*
X5486848Y-16950484D02*
X5505896Y-16950484D01*
X5505896Y-16950484D02*
X5524944Y-16960008D01*
X5524944Y-16960008D02*
X5534468Y-16969531D01*
X5534468Y-16969531D02*
X5543991Y-16988579D01*
X5543991Y-16988579D02*
X5553515Y-17026674D01*
X5553515Y-17026674D02*
X5553515Y-17074293D01*
X5553515Y-17074293D02*
X5543991Y-17112389D01*
X5543991Y-17112389D02*
X5534468Y-17131436D01*
X5534468Y-17131436D02*
X5524944Y-17140960D01*
X5524944Y-17140960D02*
X5505896Y-17150484D01*
X5505896Y-17150484D02*
X5486848Y-17150484D01*
X5486848Y-17150484D02*
X5467801Y-17140960D01*
X5467801Y-17140960D02*
X5458277Y-17131436D01*
X5458277Y-17131436D02*
X5448753Y-17112389D01*
X5448753Y-17112389D02*
X5439229Y-17074293D01*
X5439229Y-17074293D02*
X5439229Y-17026674D01*
X5439229Y-17026674D02*
X5448753Y-16988579D01*
X5448753Y-16988579D02*
X5458277Y-16969531D01*
X5458277Y-16969531D02*
X5467801Y-16960008D01*
X5467801Y-16960008D02*
X5486848Y-16950484D01*
X5620182Y-16950484D02*
X5743991Y-16950484D01*
X5743991Y-16950484D02*
X5677325Y-17026674D01*
X5677325Y-17026674D02*
X5705896Y-17026674D01*
X5705896Y-17026674D02*
X5724944Y-17036198D01*
X5724944Y-17036198D02*
X5734467Y-17045722D01*
X5734467Y-17045722D02*
X5743991Y-17064770D01*
X5743991Y-17064770D02*
X5743991Y-17112389D01*
X5743991Y-17112389D02*
X5734467Y-17131436D01*
X5734467Y-17131436D02*
X5724944Y-17140960D01*
X5724944Y-17140960D02*
X5705896Y-17150484D01*
X5705896Y-17150484D02*
X5648753Y-17150484D01*
X5648753Y-17150484D02*
X5629706Y-17140960D01*
X5629706Y-17140960D02*
X5620182Y-17131436D01*
X5934467Y-17150484D02*
X5820182Y-17150484D01*
X5877325Y-17150484D02*
X5877325Y-16950484D01*
X5877325Y-16950484D02*
X5858277Y-16979055D01*
X5858277Y-16979055D02*
X5839229Y-16998103D01*
X5839229Y-16998103D02*
X5820182Y-17007627D01*
X6115420Y-16950484D02*
X6020182Y-16950484D01*
X6020182Y-16950484D02*
X6010658Y-17045722D01*
X6010658Y-17045722D02*
X6020182Y-17036198D01*
X6020182Y-17036198D02*
X6039229Y-17026674D01*
X6039229Y-17026674D02*
X6086848Y-17026674D01*
X6086848Y-17026674D02*
X6105896Y-17036198D01*
X6105896Y-17036198D02*
X6115420Y-17045722D01*
X6115420Y-17045722D02*
X6124944Y-17064770D01*
X6124944Y-17064770D02*
X6124944Y-17112389D01*
X6124944Y-17112389D02*
X6115420Y-17131436D01*
X6115420Y-17131436D02*
X6105896Y-17140960D01*
X6105896Y-17140960D02*
X6086848Y-17150484D01*
X6086848Y-17150484D02*
X6039229Y-17150484D01*
X6039229Y-17150484D02*
X6020182Y-17140960D01*
X6020182Y-17140960D02*
X6010658Y-17131436D01*
X6201134Y-16950484D02*
X6201134Y-16988579D01*
X6277325Y-16950484D02*
X6277325Y-16988579D01*
X6572563Y-17226674D02*
X6563039Y-17217150D01*
X6563039Y-17217150D02*
X6543991Y-17188579D01*
X6543991Y-17188579D02*
X6534468Y-17169531D01*
X6534468Y-17169531D02*
X6524944Y-17140960D01*
X6524944Y-17140960D02*
X6515420Y-17093341D01*
X6515420Y-17093341D02*
X6515420Y-17055246D01*
X6515420Y-17055246D02*
X6524944Y-17007627D01*
X6524944Y-17007627D02*
X6534468Y-16979055D01*
X6534468Y-16979055D02*
X6543991Y-16960008D01*
X6543991Y-16960008D02*
X6563039Y-16931436D01*
X6563039Y-16931436D02*
X6572563Y-16921912D01*
X6677325Y-17036198D02*
X6658277Y-17026674D01*
X6658277Y-17026674D02*
X6648753Y-17017150D01*
X6648753Y-17017150D02*
X6639229Y-16998103D01*
X6639229Y-16998103D02*
X6639229Y-16988579D01*
X6639229Y-16988579D02*
X6648753Y-16969531D01*
X6648753Y-16969531D02*
X6658277Y-16960008D01*
X6658277Y-16960008D02*
X6677325Y-16950484D01*
X6677325Y-16950484D02*
X6715420Y-16950484D01*
X6715420Y-16950484D02*
X6734468Y-16960008D01*
X6734468Y-16960008D02*
X6743991Y-16969531D01*
X6743991Y-16969531D02*
X6753515Y-16988579D01*
X6753515Y-16988579D02*
X6753515Y-16998103D01*
X6753515Y-16998103D02*
X6743991Y-17017150D01*
X6743991Y-17017150D02*
X6734468Y-17026674D01*
X6734468Y-17026674D02*
X6715420Y-17036198D01*
X6715420Y-17036198D02*
X6677325Y-17036198D01*
X6677325Y-17036198D02*
X6658277Y-17045722D01*
X6658277Y-17045722D02*
X6648753Y-17055246D01*
X6648753Y-17055246D02*
X6639229Y-17074293D01*
X6639229Y-17074293D02*
X6639229Y-17112389D01*
X6639229Y-17112389D02*
X6648753Y-17131436D01*
X6648753Y-17131436D02*
X6658277Y-17140960D01*
X6658277Y-17140960D02*
X6677325Y-17150484D01*
X6677325Y-17150484D02*
X6715420Y-17150484D01*
X6715420Y-17150484D02*
X6734468Y-17140960D01*
X6734468Y-17140960D02*
X6743991Y-17131436D01*
X6743991Y-17131436D02*
X6753515Y-17112389D01*
X6753515Y-17112389D02*
X6753515Y-17074293D01*
X6753515Y-17074293D02*
X6743991Y-17055246D01*
X6743991Y-17055246D02*
X6734468Y-17045722D01*
X6734468Y-17045722D02*
X6715420Y-17036198D01*
X6991610Y-17150484D02*
X6991610Y-16950484D01*
X7077325Y-17150484D02*
X7077325Y-17045722D01*
X7077325Y-17045722D02*
X7067801Y-17026674D01*
X7067801Y-17026674D02*
X7048753Y-17017150D01*
X7048753Y-17017150D02*
X7020182Y-17017150D01*
X7020182Y-17017150D02*
X7001134Y-17026674D01*
X7001134Y-17026674D02*
X6991610Y-17036198D01*
X7201134Y-17150484D02*
X7182087Y-17140960D01*
X7182087Y-17140960D02*
X7172563Y-17131436D01*
X7172563Y-17131436D02*
X7163039Y-17112389D01*
X7163039Y-17112389D02*
X7163039Y-17055246D01*
X7163039Y-17055246D02*
X7172563Y-17036198D01*
X7172563Y-17036198D02*
X7182087Y-17026674D01*
X7182087Y-17026674D02*
X7201134Y-17017150D01*
X7201134Y-17017150D02*
X7229706Y-17017150D01*
X7229706Y-17017150D02*
X7248753Y-17026674D01*
X7248753Y-17026674D02*
X7258277Y-17036198D01*
X7258277Y-17036198D02*
X7267801Y-17055246D01*
X7267801Y-17055246D02*
X7267801Y-17112389D01*
X7267801Y-17112389D02*
X7258277Y-17131436D01*
X7258277Y-17131436D02*
X7248753Y-17140960D01*
X7248753Y-17140960D02*
X7229706Y-17150484D01*
X7229706Y-17150484D02*
X7201134Y-17150484D01*
X7382087Y-17150484D02*
X7363039Y-17140960D01*
X7363039Y-17140960D02*
X7353515Y-17121912D01*
X7353515Y-17121912D02*
X7353515Y-16950484D01*
X7534468Y-17140960D02*
X7515420Y-17150484D01*
X7515420Y-17150484D02*
X7477325Y-17150484D01*
X7477325Y-17150484D02*
X7458277Y-17140960D01*
X7458277Y-17140960D02*
X7448753Y-17121912D01*
X7448753Y-17121912D02*
X7448753Y-17045722D01*
X7448753Y-17045722D02*
X7458277Y-17026674D01*
X7458277Y-17026674D02*
X7477325Y-17017150D01*
X7477325Y-17017150D02*
X7515420Y-17017150D01*
X7515420Y-17017150D02*
X7534468Y-17026674D01*
X7534468Y-17026674D02*
X7543991Y-17045722D01*
X7543991Y-17045722D02*
X7543991Y-17064770D01*
X7543991Y-17064770D02*
X7448753Y-17083817D01*
X7620182Y-17140960D02*
X7639230Y-17150484D01*
X7639230Y-17150484D02*
X7677325Y-17150484D01*
X7677325Y-17150484D02*
X7696372Y-17140960D01*
X7696372Y-17140960D02*
X7705896Y-17121912D01*
X7705896Y-17121912D02*
X7705896Y-17112389D01*
X7705896Y-17112389D02*
X7696372Y-17093341D01*
X7696372Y-17093341D02*
X7677325Y-17083817D01*
X7677325Y-17083817D02*
X7648753Y-17083817D01*
X7648753Y-17083817D02*
X7629706Y-17074293D01*
X7629706Y-17074293D02*
X7620182Y-17055246D01*
X7620182Y-17055246D02*
X7620182Y-17045722D01*
X7620182Y-17045722D02*
X7629706Y-17026674D01*
X7629706Y-17026674D02*
X7648753Y-17017150D01*
X7648753Y-17017150D02*
X7677325Y-17017150D01*
X7677325Y-17017150D02*
X7696372Y-17026674D01*
X7772563Y-17226674D02*
X7782087Y-17217150D01*
X7782087Y-17217150D02*
X7801134Y-17188579D01*
X7801134Y-17188579D02*
X7810658Y-17169531D01*
X7810658Y-17169531D02*
X7820182Y-17140960D01*
X7820182Y-17140960D02*
X7829706Y-17093341D01*
X7829706Y-17093341D02*
X7829706Y-17055246D01*
X7829706Y-17055246D02*
X7820182Y-17007627D01*
X7820182Y-17007627D02*
X7810658Y-16979055D01*
X7810658Y-16979055D02*
X7801134Y-16960008D01*
X7801134Y-16960008D02*
X7782087Y-16931436D01*
X7782087Y-16931436D02*
X7772563Y-16921912D01*
D12*
X2952500Y-17278000D02*
X2952500Y-17368000D01*
X2907500Y-17323000D02*
X2997500Y-17323000D01*
D11*
X3296372Y-17214484D02*
X3315420Y-17214484D01*
X3315420Y-17214484D02*
X3334467Y-17224008D01*
X3334467Y-17224008D02*
X3343991Y-17233531D01*
X3343991Y-17233531D02*
X3353515Y-17252579D01*
X3353515Y-17252579D02*
X3363039Y-17290674D01*
X3363039Y-17290674D02*
X3363039Y-17338293D01*
X3363039Y-17338293D02*
X3353515Y-17376389D01*
X3353515Y-17376389D02*
X3343991Y-17395436D01*
X3343991Y-17395436D02*
X3334467Y-17404960D01*
X3334467Y-17404960D02*
X3315420Y-17414484D01*
X3315420Y-17414484D02*
X3296372Y-17414484D01*
X3296372Y-17414484D02*
X3277324Y-17404960D01*
X3277324Y-17404960D02*
X3267801Y-17395436D01*
X3267801Y-17395436D02*
X3258277Y-17376389D01*
X3258277Y-17376389D02*
X3248753Y-17338293D01*
X3248753Y-17338293D02*
X3248753Y-17290674D01*
X3248753Y-17290674D02*
X3258277Y-17252579D01*
X3258277Y-17252579D02*
X3267801Y-17233531D01*
X3267801Y-17233531D02*
X3277324Y-17224008D01*
X3277324Y-17224008D02*
X3296372Y-17214484D01*
X3448753Y-17395436D02*
X3458277Y-17404960D01*
X3458277Y-17404960D02*
X3448753Y-17414484D01*
X3448753Y-17414484D02*
X3439229Y-17404960D01*
X3439229Y-17404960D02*
X3448753Y-17395436D01*
X3448753Y-17395436D02*
X3448753Y-17414484D01*
X3553515Y-17414484D02*
X3591610Y-17414484D01*
X3591610Y-17414484D02*
X3610658Y-17404960D01*
X3610658Y-17404960D02*
X3620182Y-17395436D01*
X3620182Y-17395436D02*
X3639229Y-17366865D01*
X3639229Y-17366865D02*
X3648753Y-17328770D01*
X3648753Y-17328770D02*
X3648753Y-17252579D01*
X3648753Y-17252579D02*
X3639229Y-17233531D01*
X3639229Y-17233531D02*
X3629705Y-17224008D01*
X3629705Y-17224008D02*
X3610658Y-17214484D01*
X3610658Y-17214484D02*
X3572562Y-17214484D01*
X3572562Y-17214484D02*
X3553515Y-17224008D01*
X3553515Y-17224008D02*
X3543991Y-17233531D01*
X3543991Y-17233531D02*
X3534467Y-17252579D01*
X3534467Y-17252579D02*
X3534467Y-17300198D01*
X3534467Y-17300198D02*
X3543991Y-17319246D01*
X3543991Y-17319246D02*
X3553515Y-17328770D01*
X3553515Y-17328770D02*
X3572562Y-17338293D01*
X3572562Y-17338293D02*
X3610658Y-17338293D01*
X3610658Y-17338293D02*
X3629705Y-17328770D01*
X3629705Y-17328770D02*
X3639229Y-17319246D01*
X3639229Y-17319246D02*
X3648753Y-17300198D01*
X3772562Y-17214484D02*
X3791610Y-17214484D01*
X3791610Y-17214484D02*
X3810658Y-17224008D01*
X3810658Y-17224008D02*
X3820182Y-17233531D01*
X3820182Y-17233531D02*
X3829705Y-17252579D01*
X3829705Y-17252579D02*
X3839229Y-17290674D01*
X3839229Y-17290674D02*
X3839229Y-17338293D01*
X3839229Y-17338293D02*
X3829705Y-17376389D01*
X3829705Y-17376389D02*
X3820182Y-17395436D01*
X3820182Y-17395436D02*
X3810658Y-17404960D01*
X3810658Y-17404960D02*
X3791610Y-17414484D01*
X3791610Y-17414484D02*
X3772562Y-17414484D01*
X3772562Y-17414484D02*
X3753515Y-17404960D01*
X3753515Y-17404960D02*
X3743991Y-17395436D01*
X3743991Y-17395436D02*
X3734467Y-17376389D01*
X3734467Y-17376389D02*
X3724943Y-17338293D01*
X3724943Y-17338293D02*
X3724943Y-17290674D01*
X3724943Y-17290674D02*
X3734467Y-17252579D01*
X3734467Y-17252579D02*
X3743991Y-17233531D01*
X3743991Y-17233531D02*
X3753515Y-17224008D01*
X3753515Y-17224008D02*
X3772562Y-17214484D01*
X3963039Y-17214484D02*
X3982086Y-17214484D01*
X3982086Y-17214484D02*
X4001134Y-17224008D01*
X4001134Y-17224008D02*
X4010658Y-17233531D01*
X4010658Y-17233531D02*
X4020182Y-17252579D01*
X4020182Y-17252579D02*
X4029705Y-17290674D01*
X4029705Y-17290674D02*
X4029705Y-17338293D01*
X4029705Y-17338293D02*
X4020182Y-17376389D01*
X4020182Y-17376389D02*
X4010658Y-17395436D01*
X4010658Y-17395436D02*
X4001134Y-17404960D01*
X4001134Y-17404960D02*
X3982086Y-17414484D01*
X3982086Y-17414484D02*
X3963039Y-17414484D01*
X3963039Y-17414484D02*
X3943991Y-17404960D01*
X3943991Y-17404960D02*
X3934467Y-17395436D01*
X3934467Y-17395436D02*
X3924943Y-17376389D01*
X3924943Y-17376389D02*
X3915420Y-17338293D01*
X3915420Y-17338293D02*
X3915420Y-17290674D01*
X3915420Y-17290674D02*
X3924943Y-17252579D01*
X3924943Y-17252579D02*
X3934467Y-17233531D01*
X3934467Y-17233531D02*
X3943991Y-17224008D01*
X3943991Y-17224008D02*
X3963039Y-17214484D01*
X4115420Y-17414484D02*
X4115420Y-17281150D01*
X4115420Y-17300198D02*
X4124943Y-17290674D01*
X4124943Y-17290674D02*
X4143991Y-17281150D01*
X4143991Y-17281150D02*
X4172563Y-17281150D01*
X4172563Y-17281150D02*
X4191610Y-17290674D01*
X4191610Y-17290674D02*
X4201134Y-17309722D01*
X4201134Y-17309722D02*
X4201134Y-17414484D01*
X4201134Y-17309722D02*
X4210658Y-17290674D01*
X4210658Y-17290674D02*
X4229705Y-17281150D01*
X4229705Y-17281150D02*
X4258277Y-17281150D01*
X4258277Y-17281150D02*
X4277325Y-17290674D01*
X4277325Y-17290674D02*
X4286848Y-17309722D01*
X4286848Y-17309722D02*
X4286848Y-17414484D01*
X4382086Y-17414484D02*
X4382086Y-17281150D01*
X4382086Y-17300198D02*
X4391610Y-17290674D01*
X4391610Y-17290674D02*
X4410658Y-17281150D01*
X4410658Y-17281150D02*
X4439229Y-17281150D01*
X4439229Y-17281150D02*
X4458277Y-17290674D01*
X4458277Y-17290674D02*
X4467801Y-17309722D01*
X4467801Y-17309722D02*
X4467801Y-17414484D01*
X4467801Y-17309722D02*
X4477325Y-17290674D01*
X4477325Y-17290674D02*
X4496372Y-17281150D01*
X4496372Y-17281150D02*
X4524944Y-17281150D01*
X4524944Y-17281150D02*
X4543991Y-17290674D01*
X4543991Y-17290674D02*
X4553515Y-17309722D01*
X4553515Y-17309722D02*
X4553515Y-17414484D01*
X4943991Y-17204960D02*
X4772563Y-17462103D01*
X5201134Y-17214484D02*
X5220182Y-17214484D01*
X5220182Y-17214484D02*
X5239229Y-17224008D01*
X5239229Y-17224008D02*
X5248753Y-17233531D01*
X5248753Y-17233531D02*
X5258277Y-17252579D01*
X5258277Y-17252579D02*
X5267801Y-17290674D01*
X5267801Y-17290674D02*
X5267801Y-17338293D01*
X5267801Y-17338293D02*
X5258277Y-17376389D01*
X5258277Y-17376389D02*
X5248753Y-17395436D01*
X5248753Y-17395436D02*
X5239229Y-17404960D01*
X5239229Y-17404960D02*
X5220182Y-17414484D01*
X5220182Y-17414484D02*
X5201134Y-17414484D01*
X5201134Y-17414484D02*
X5182087Y-17404960D01*
X5182087Y-17404960D02*
X5172563Y-17395436D01*
X5172563Y-17395436D02*
X5163039Y-17376389D01*
X5163039Y-17376389D02*
X5153515Y-17338293D01*
X5153515Y-17338293D02*
X5153515Y-17290674D01*
X5153515Y-17290674D02*
X5163039Y-17252579D01*
X5163039Y-17252579D02*
X5172563Y-17233531D01*
X5172563Y-17233531D02*
X5182087Y-17224008D01*
X5182087Y-17224008D02*
X5201134Y-17214484D01*
X5353515Y-17395436D02*
X5363039Y-17404960D01*
X5363039Y-17404960D02*
X5353515Y-17414484D01*
X5353515Y-17414484D02*
X5343991Y-17404960D01*
X5343991Y-17404960D02*
X5353515Y-17395436D01*
X5353515Y-17395436D02*
X5353515Y-17414484D01*
X5486848Y-17214484D02*
X5505896Y-17214484D01*
X5505896Y-17214484D02*
X5524944Y-17224008D01*
X5524944Y-17224008D02*
X5534468Y-17233531D01*
X5534468Y-17233531D02*
X5543991Y-17252579D01*
X5543991Y-17252579D02*
X5553515Y-17290674D01*
X5553515Y-17290674D02*
X5553515Y-17338293D01*
X5553515Y-17338293D02*
X5543991Y-17376389D01*
X5543991Y-17376389D02*
X5534468Y-17395436D01*
X5534468Y-17395436D02*
X5524944Y-17404960D01*
X5524944Y-17404960D02*
X5505896Y-17414484D01*
X5505896Y-17414484D02*
X5486848Y-17414484D01*
X5486848Y-17414484D02*
X5467801Y-17404960D01*
X5467801Y-17404960D02*
X5458277Y-17395436D01*
X5458277Y-17395436D02*
X5448753Y-17376389D01*
X5448753Y-17376389D02*
X5439229Y-17338293D01*
X5439229Y-17338293D02*
X5439229Y-17290674D01*
X5439229Y-17290674D02*
X5448753Y-17252579D01*
X5448753Y-17252579D02*
X5458277Y-17233531D01*
X5458277Y-17233531D02*
X5467801Y-17224008D01*
X5467801Y-17224008D02*
X5486848Y-17214484D01*
X5620182Y-17214484D02*
X5743991Y-17214484D01*
X5743991Y-17214484D02*
X5677325Y-17290674D01*
X5677325Y-17290674D02*
X5705896Y-17290674D01*
X5705896Y-17290674D02*
X5724944Y-17300198D01*
X5724944Y-17300198D02*
X5734467Y-17309722D01*
X5734467Y-17309722D02*
X5743991Y-17328770D01*
X5743991Y-17328770D02*
X5743991Y-17376389D01*
X5743991Y-17376389D02*
X5734467Y-17395436D01*
X5734467Y-17395436D02*
X5724944Y-17404960D01*
X5724944Y-17404960D02*
X5705896Y-17414484D01*
X5705896Y-17414484D02*
X5648753Y-17414484D01*
X5648753Y-17414484D02*
X5629706Y-17404960D01*
X5629706Y-17404960D02*
X5620182Y-17395436D01*
X5924944Y-17214484D02*
X5829706Y-17214484D01*
X5829706Y-17214484D02*
X5820182Y-17309722D01*
X5820182Y-17309722D02*
X5829706Y-17300198D01*
X5829706Y-17300198D02*
X5848753Y-17290674D01*
X5848753Y-17290674D02*
X5896372Y-17290674D01*
X5896372Y-17290674D02*
X5915420Y-17300198D01*
X5915420Y-17300198D02*
X5924944Y-17309722D01*
X5924944Y-17309722D02*
X5934467Y-17328770D01*
X5934467Y-17328770D02*
X5934467Y-17376389D01*
X5934467Y-17376389D02*
X5924944Y-17395436D01*
X5924944Y-17395436D02*
X5915420Y-17404960D01*
X5915420Y-17404960D02*
X5896372Y-17414484D01*
X5896372Y-17414484D02*
X5848753Y-17414484D01*
X5848753Y-17414484D02*
X5829706Y-17404960D01*
X5829706Y-17404960D02*
X5820182Y-17395436D01*
X6105896Y-17281150D02*
X6105896Y-17414484D01*
X6058277Y-17204960D02*
X6010658Y-17347817D01*
X6010658Y-17347817D02*
X6134467Y-17347817D01*
X6201134Y-17214484D02*
X6201134Y-17252579D01*
X6277325Y-17214484D02*
X6277325Y-17252579D01*
X6572563Y-17490674D02*
X6563039Y-17481150D01*
X6563039Y-17481150D02*
X6543991Y-17452579D01*
X6543991Y-17452579D02*
X6534468Y-17433531D01*
X6534468Y-17433531D02*
X6524944Y-17404960D01*
X6524944Y-17404960D02*
X6515420Y-17357341D01*
X6515420Y-17357341D02*
X6515420Y-17319246D01*
X6515420Y-17319246D02*
X6524944Y-17271627D01*
X6524944Y-17271627D02*
X6534468Y-17243055D01*
X6534468Y-17243055D02*
X6543991Y-17224008D01*
X6543991Y-17224008D02*
X6563039Y-17195436D01*
X6563039Y-17195436D02*
X6572563Y-17185912D01*
X6629706Y-17214484D02*
X6753515Y-17214484D01*
X6753515Y-17214484D02*
X6686848Y-17290674D01*
X6686848Y-17290674D02*
X6715420Y-17290674D01*
X6715420Y-17290674D02*
X6734468Y-17300198D01*
X6734468Y-17300198D02*
X6743991Y-17309722D01*
X6743991Y-17309722D02*
X6753515Y-17328770D01*
X6753515Y-17328770D02*
X6753515Y-17376389D01*
X6753515Y-17376389D02*
X6743991Y-17395436D01*
X6743991Y-17395436D02*
X6734468Y-17404960D01*
X6734468Y-17404960D02*
X6715420Y-17414484D01*
X6715420Y-17414484D02*
X6658277Y-17414484D01*
X6658277Y-17414484D02*
X6639229Y-17404960D01*
X6639229Y-17404960D02*
X6629706Y-17395436D01*
X6991610Y-17414484D02*
X6991610Y-17214484D01*
X7077325Y-17414484D02*
X7077325Y-17309722D01*
X7077325Y-17309722D02*
X7067801Y-17290674D01*
X7067801Y-17290674D02*
X7048753Y-17281150D01*
X7048753Y-17281150D02*
X7020182Y-17281150D01*
X7020182Y-17281150D02*
X7001134Y-17290674D01*
X7001134Y-17290674D02*
X6991610Y-17300198D01*
X7201134Y-17414484D02*
X7182087Y-17404960D01*
X7182087Y-17404960D02*
X7172563Y-17395436D01*
X7172563Y-17395436D02*
X7163039Y-17376389D01*
X7163039Y-17376389D02*
X7163039Y-17319246D01*
X7163039Y-17319246D02*
X7172563Y-17300198D01*
X7172563Y-17300198D02*
X7182087Y-17290674D01*
X7182087Y-17290674D02*
X7201134Y-17281150D01*
X7201134Y-17281150D02*
X7229706Y-17281150D01*
X7229706Y-17281150D02*
X7248753Y-17290674D01*
X7248753Y-17290674D02*
X7258277Y-17300198D01*
X7258277Y-17300198D02*
X7267801Y-17319246D01*
X7267801Y-17319246D02*
X7267801Y-17376389D01*
X7267801Y-17376389D02*
X7258277Y-17395436D01*
X7258277Y-17395436D02*
X7248753Y-17404960D01*
X7248753Y-17404960D02*
X7229706Y-17414484D01*
X7229706Y-17414484D02*
X7201134Y-17414484D01*
X7382087Y-17414484D02*
X7363039Y-17404960D01*
X7363039Y-17404960D02*
X7353515Y-17385912D01*
X7353515Y-17385912D02*
X7353515Y-17214484D01*
X7534468Y-17404960D02*
X7515420Y-17414484D01*
X7515420Y-17414484D02*
X7477325Y-17414484D01*
X7477325Y-17414484D02*
X7458277Y-17404960D01*
X7458277Y-17404960D02*
X7448753Y-17385912D01*
X7448753Y-17385912D02*
X7448753Y-17309722D01*
X7448753Y-17309722D02*
X7458277Y-17290674D01*
X7458277Y-17290674D02*
X7477325Y-17281150D01*
X7477325Y-17281150D02*
X7515420Y-17281150D01*
X7515420Y-17281150D02*
X7534468Y-17290674D01*
X7534468Y-17290674D02*
X7543991Y-17309722D01*
X7543991Y-17309722D02*
X7543991Y-17328770D01*
X7543991Y-17328770D02*
X7448753Y-17347817D01*
X7620182Y-17404960D02*
X7639230Y-17414484D01*
X7639230Y-17414484D02*
X7677325Y-17414484D01*
X7677325Y-17414484D02*
X7696372Y-17404960D01*
X7696372Y-17404960D02*
X7705896Y-17385912D01*
X7705896Y-17385912D02*
X7705896Y-17376389D01*
X7705896Y-17376389D02*
X7696372Y-17357341D01*
X7696372Y-17357341D02*
X7677325Y-17347817D01*
X7677325Y-17347817D02*
X7648753Y-17347817D01*
X7648753Y-17347817D02*
X7629706Y-17338293D01*
X7629706Y-17338293D02*
X7620182Y-17319246D01*
X7620182Y-17319246D02*
X7620182Y-17309722D01*
X7620182Y-17309722D02*
X7629706Y-17290674D01*
X7629706Y-17290674D02*
X7648753Y-17281150D01*
X7648753Y-17281150D02*
X7677325Y-17281150D01*
X7677325Y-17281150D02*
X7696372Y-17290674D01*
X7772563Y-17490674D02*
X7782087Y-17481150D01*
X7782087Y-17481150D02*
X7801134Y-17452579D01*
X7801134Y-17452579D02*
X7810658Y-17433531D01*
X7810658Y-17433531D02*
X7820182Y-17404960D01*
X7820182Y-17404960D02*
X7829706Y-17357341D01*
X7829706Y-17357341D02*
X7829706Y-17319246D01*
X7829706Y-17319246D02*
X7820182Y-17271627D01*
X7820182Y-17271627D02*
X7810658Y-17243055D01*
X7810658Y-17243055D02*
X7801134Y-17224008D01*
X7801134Y-17224008D02*
X7782087Y-17195436D01*
X7782087Y-17195436D02*
X7772563Y-17185912D01*
D12*
X2982856Y-17622356D02*
X2982856Y-17551644D01*
X2912144Y-17551644D01*
X2912144Y-17622356D01*
X2982856Y-17622356D01*
D11*
X3363039Y-17678484D02*
X3248753Y-17678484D01*
X3305896Y-17678484D02*
X3305896Y-17478484D01*
X3305896Y-17478484D02*
X3286848Y-17507055D01*
X3286848Y-17507055D02*
X3267801Y-17526103D01*
X3267801Y-17526103D02*
X3248753Y-17535627D01*
X3448753Y-17659436D02*
X3458277Y-17668960D01*
X3458277Y-17668960D02*
X3448753Y-17678484D01*
X3448753Y-17678484D02*
X3439229Y-17668960D01*
X3439229Y-17668960D02*
X3448753Y-17659436D01*
X3448753Y-17659436D02*
X3448753Y-17678484D01*
X3582086Y-17478484D02*
X3601134Y-17478484D01*
X3601134Y-17478484D02*
X3620182Y-17488008D01*
X3620182Y-17488008D02*
X3629705Y-17497531D01*
X3629705Y-17497531D02*
X3639229Y-17516579D01*
X3639229Y-17516579D02*
X3648753Y-17554674D01*
X3648753Y-17554674D02*
X3648753Y-17602293D01*
X3648753Y-17602293D02*
X3639229Y-17640389D01*
X3639229Y-17640389D02*
X3629705Y-17659436D01*
X3629705Y-17659436D02*
X3620182Y-17668960D01*
X3620182Y-17668960D02*
X3601134Y-17678484D01*
X3601134Y-17678484D02*
X3582086Y-17678484D01*
X3582086Y-17678484D02*
X3563039Y-17668960D01*
X3563039Y-17668960D02*
X3553515Y-17659436D01*
X3553515Y-17659436D02*
X3543991Y-17640389D01*
X3543991Y-17640389D02*
X3534467Y-17602293D01*
X3534467Y-17602293D02*
X3534467Y-17554674D01*
X3534467Y-17554674D02*
X3543991Y-17516579D01*
X3543991Y-17516579D02*
X3553515Y-17497531D01*
X3553515Y-17497531D02*
X3563039Y-17488008D01*
X3563039Y-17488008D02*
X3582086Y-17478484D01*
X3772562Y-17478484D02*
X3791610Y-17478484D01*
X3791610Y-17478484D02*
X3810658Y-17488008D01*
X3810658Y-17488008D02*
X3820182Y-17497531D01*
X3820182Y-17497531D02*
X3829705Y-17516579D01*
X3829705Y-17516579D02*
X3839229Y-17554674D01*
X3839229Y-17554674D02*
X3839229Y-17602293D01*
X3839229Y-17602293D02*
X3829705Y-17640389D01*
X3829705Y-17640389D02*
X3820182Y-17659436D01*
X3820182Y-17659436D02*
X3810658Y-17668960D01*
X3810658Y-17668960D02*
X3791610Y-17678484D01*
X3791610Y-17678484D02*
X3772562Y-17678484D01*
X3772562Y-17678484D02*
X3753515Y-17668960D01*
X3753515Y-17668960D02*
X3743991Y-17659436D01*
X3743991Y-17659436D02*
X3734467Y-17640389D01*
X3734467Y-17640389D02*
X3724943Y-17602293D01*
X3724943Y-17602293D02*
X3724943Y-17554674D01*
X3724943Y-17554674D02*
X3734467Y-17516579D01*
X3734467Y-17516579D02*
X3743991Y-17497531D01*
X3743991Y-17497531D02*
X3753515Y-17488008D01*
X3753515Y-17488008D02*
X3772562Y-17478484D01*
X3963039Y-17478484D02*
X3982086Y-17478484D01*
X3982086Y-17478484D02*
X4001134Y-17488008D01*
X4001134Y-17488008D02*
X4010658Y-17497531D01*
X4010658Y-17497531D02*
X4020182Y-17516579D01*
X4020182Y-17516579D02*
X4029705Y-17554674D01*
X4029705Y-17554674D02*
X4029705Y-17602293D01*
X4029705Y-17602293D02*
X4020182Y-17640389D01*
X4020182Y-17640389D02*
X4010658Y-17659436D01*
X4010658Y-17659436D02*
X4001134Y-17668960D01*
X4001134Y-17668960D02*
X3982086Y-17678484D01*
X3982086Y-17678484D02*
X3963039Y-17678484D01*
X3963039Y-17678484D02*
X3943991Y-17668960D01*
X3943991Y-17668960D02*
X3934467Y-17659436D01*
X3934467Y-17659436D02*
X3924943Y-17640389D01*
X3924943Y-17640389D02*
X3915420Y-17602293D01*
X3915420Y-17602293D02*
X3915420Y-17554674D01*
X3915420Y-17554674D02*
X3924943Y-17516579D01*
X3924943Y-17516579D02*
X3934467Y-17497531D01*
X3934467Y-17497531D02*
X3943991Y-17488008D01*
X3943991Y-17488008D02*
X3963039Y-17478484D01*
X4115420Y-17678484D02*
X4115420Y-17545150D01*
X4115420Y-17564198D02*
X4124943Y-17554674D01*
X4124943Y-17554674D02*
X4143991Y-17545150D01*
X4143991Y-17545150D02*
X4172563Y-17545150D01*
X4172563Y-17545150D02*
X4191610Y-17554674D01*
X4191610Y-17554674D02*
X4201134Y-17573722D01*
X4201134Y-17573722D02*
X4201134Y-17678484D01*
X4201134Y-17573722D02*
X4210658Y-17554674D01*
X4210658Y-17554674D02*
X4229705Y-17545150D01*
X4229705Y-17545150D02*
X4258277Y-17545150D01*
X4258277Y-17545150D02*
X4277325Y-17554674D01*
X4277325Y-17554674D02*
X4286848Y-17573722D01*
X4286848Y-17573722D02*
X4286848Y-17678484D01*
X4382086Y-17678484D02*
X4382086Y-17545150D01*
X4382086Y-17564198D02*
X4391610Y-17554674D01*
X4391610Y-17554674D02*
X4410658Y-17545150D01*
X4410658Y-17545150D02*
X4439229Y-17545150D01*
X4439229Y-17545150D02*
X4458277Y-17554674D01*
X4458277Y-17554674D02*
X4467801Y-17573722D01*
X4467801Y-17573722D02*
X4467801Y-17678484D01*
X4467801Y-17573722D02*
X4477325Y-17554674D01*
X4477325Y-17554674D02*
X4496372Y-17545150D01*
X4496372Y-17545150D02*
X4524944Y-17545150D01*
X4524944Y-17545150D02*
X4543991Y-17554674D01*
X4543991Y-17554674D02*
X4553515Y-17573722D01*
X4553515Y-17573722D02*
X4553515Y-17678484D01*
X4943991Y-17468960D02*
X4772563Y-17726103D01*
X5201134Y-17478484D02*
X5220182Y-17478484D01*
X5220182Y-17478484D02*
X5239229Y-17488008D01*
X5239229Y-17488008D02*
X5248753Y-17497531D01*
X5248753Y-17497531D02*
X5258277Y-17516579D01*
X5258277Y-17516579D02*
X5267801Y-17554674D01*
X5267801Y-17554674D02*
X5267801Y-17602293D01*
X5267801Y-17602293D02*
X5258277Y-17640389D01*
X5258277Y-17640389D02*
X5248753Y-17659436D01*
X5248753Y-17659436D02*
X5239229Y-17668960D01*
X5239229Y-17668960D02*
X5220182Y-17678484D01*
X5220182Y-17678484D02*
X5201134Y-17678484D01*
X5201134Y-17678484D02*
X5182087Y-17668960D01*
X5182087Y-17668960D02*
X5172563Y-17659436D01*
X5172563Y-17659436D02*
X5163039Y-17640389D01*
X5163039Y-17640389D02*
X5153515Y-17602293D01*
X5153515Y-17602293D02*
X5153515Y-17554674D01*
X5153515Y-17554674D02*
X5163039Y-17516579D01*
X5163039Y-17516579D02*
X5172563Y-17497531D01*
X5172563Y-17497531D02*
X5182087Y-17488008D01*
X5182087Y-17488008D02*
X5201134Y-17478484D01*
X5353515Y-17659436D02*
X5363039Y-17668960D01*
X5363039Y-17668960D02*
X5353515Y-17678484D01*
X5353515Y-17678484D02*
X5343991Y-17668960D01*
X5343991Y-17668960D02*
X5353515Y-17659436D01*
X5353515Y-17659436D02*
X5353515Y-17678484D01*
X5486848Y-17478484D02*
X5505896Y-17478484D01*
X5505896Y-17478484D02*
X5524944Y-17488008D01*
X5524944Y-17488008D02*
X5534468Y-17497531D01*
X5534468Y-17497531D02*
X5543991Y-17516579D01*
X5543991Y-17516579D02*
X5553515Y-17554674D01*
X5553515Y-17554674D02*
X5553515Y-17602293D01*
X5553515Y-17602293D02*
X5543991Y-17640389D01*
X5543991Y-17640389D02*
X5534468Y-17659436D01*
X5534468Y-17659436D02*
X5524944Y-17668960D01*
X5524944Y-17668960D02*
X5505896Y-17678484D01*
X5505896Y-17678484D02*
X5486848Y-17678484D01*
X5486848Y-17678484D02*
X5467801Y-17668960D01*
X5467801Y-17668960D02*
X5458277Y-17659436D01*
X5458277Y-17659436D02*
X5448753Y-17640389D01*
X5448753Y-17640389D02*
X5439229Y-17602293D01*
X5439229Y-17602293D02*
X5439229Y-17554674D01*
X5439229Y-17554674D02*
X5448753Y-17516579D01*
X5448753Y-17516579D02*
X5458277Y-17497531D01*
X5458277Y-17497531D02*
X5467801Y-17488008D01*
X5467801Y-17488008D02*
X5486848Y-17478484D01*
X5620182Y-17478484D02*
X5743991Y-17478484D01*
X5743991Y-17478484D02*
X5677325Y-17554674D01*
X5677325Y-17554674D02*
X5705896Y-17554674D01*
X5705896Y-17554674D02*
X5724944Y-17564198D01*
X5724944Y-17564198D02*
X5734467Y-17573722D01*
X5734467Y-17573722D02*
X5743991Y-17592770D01*
X5743991Y-17592770D02*
X5743991Y-17640389D01*
X5743991Y-17640389D02*
X5734467Y-17659436D01*
X5734467Y-17659436D02*
X5724944Y-17668960D01*
X5724944Y-17668960D02*
X5705896Y-17678484D01*
X5705896Y-17678484D02*
X5648753Y-17678484D01*
X5648753Y-17678484D02*
X5629706Y-17668960D01*
X5629706Y-17668960D02*
X5620182Y-17659436D01*
X5839229Y-17678484D02*
X5877325Y-17678484D01*
X5877325Y-17678484D02*
X5896372Y-17668960D01*
X5896372Y-17668960D02*
X5905896Y-17659436D01*
X5905896Y-17659436D02*
X5924944Y-17630865D01*
X5924944Y-17630865D02*
X5934467Y-17592770D01*
X5934467Y-17592770D02*
X5934467Y-17516579D01*
X5934467Y-17516579D02*
X5924944Y-17497531D01*
X5924944Y-17497531D02*
X5915420Y-17488008D01*
X5915420Y-17488008D02*
X5896372Y-17478484D01*
X5896372Y-17478484D02*
X5858277Y-17478484D01*
X5858277Y-17478484D02*
X5839229Y-17488008D01*
X5839229Y-17488008D02*
X5829706Y-17497531D01*
X5829706Y-17497531D02*
X5820182Y-17516579D01*
X5820182Y-17516579D02*
X5820182Y-17564198D01*
X5820182Y-17564198D02*
X5829706Y-17583246D01*
X5829706Y-17583246D02*
X5839229Y-17592770D01*
X5839229Y-17592770D02*
X5858277Y-17602293D01*
X5858277Y-17602293D02*
X5896372Y-17602293D01*
X5896372Y-17602293D02*
X5915420Y-17592770D01*
X5915420Y-17592770D02*
X5924944Y-17583246D01*
X5924944Y-17583246D02*
X5934467Y-17564198D01*
X6105896Y-17545150D02*
X6105896Y-17678484D01*
X6058277Y-17468960D02*
X6010658Y-17611817D01*
X6010658Y-17611817D02*
X6134467Y-17611817D01*
X6201134Y-17478484D02*
X6201134Y-17516579D01*
X6277325Y-17478484D02*
X6277325Y-17516579D01*
X6572563Y-17754674D02*
X6563039Y-17745150D01*
X6563039Y-17745150D02*
X6543991Y-17716579D01*
X6543991Y-17716579D02*
X6534468Y-17697531D01*
X6534468Y-17697531D02*
X6524944Y-17668960D01*
X6524944Y-17668960D02*
X6515420Y-17621341D01*
X6515420Y-17621341D02*
X6515420Y-17583246D01*
X6515420Y-17583246D02*
X6524944Y-17535627D01*
X6524944Y-17535627D02*
X6534468Y-17507055D01*
X6534468Y-17507055D02*
X6543991Y-17488008D01*
X6543991Y-17488008D02*
X6563039Y-17459436D01*
X6563039Y-17459436D02*
X6572563Y-17449912D01*
X6629706Y-17478484D02*
X6753515Y-17478484D01*
X6753515Y-17478484D02*
X6686848Y-17554674D01*
X6686848Y-17554674D02*
X6715420Y-17554674D01*
X6715420Y-17554674D02*
X6734468Y-17564198D01*
X6734468Y-17564198D02*
X6743991Y-17573722D01*
X6743991Y-17573722D02*
X6753515Y-17592770D01*
X6753515Y-17592770D02*
X6753515Y-17640389D01*
X6753515Y-17640389D02*
X6743991Y-17659436D01*
X6743991Y-17659436D02*
X6734468Y-17668960D01*
X6734468Y-17668960D02*
X6715420Y-17678484D01*
X6715420Y-17678484D02*
X6658277Y-17678484D01*
X6658277Y-17678484D02*
X6639229Y-17668960D01*
X6639229Y-17668960D02*
X6629706Y-17659436D01*
X6924944Y-17545150D02*
X6924944Y-17678484D01*
X6877325Y-17468960D02*
X6829706Y-17611817D01*
X6829706Y-17611817D02*
X6953515Y-17611817D01*
X7182087Y-17678484D02*
X7182087Y-17478484D01*
X7267801Y-17678484D02*
X7267801Y-17573722D01*
X7267801Y-17573722D02*
X7258277Y-17554674D01*
X7258277Y-17554674D02*
X7239230Y-17545150D01*
X7239230Y-17545150D02*
X7210658Y-17545150D01*
X7210658Y-17545150D02*
X7191610Y-17554674D01*
X7191610Y-17554674D02*
X7182087Y-17564198D01*
X7391610Y-17678484D02*
X7372563Y-17668960D01*
X7372563Y-17668960D02*
X7363039Y-17659436D01*
X7363039Y-17659436D02*
X7353515Y-17640389D01*
X7353515Y-17640389D02*
X7353515Y-17583246D01*
X7353515Y-17583246D02*
X7363039Y-17564198D01*
X7363039Y-17564198D02*
X7372563Y-17554674D01*
X7372563Y-17554674D02*
X7391610Y-17545150D01*
X7391610Y-17545150D02*
X7420182Y-17545150D01*
X7420182Y-17545150D02*
X7439230Y-17554674D01*
X7439230Y-17554674D02*
X7448753Y-17564198D01*
X7448753Y-17564198D02*
X7458277Y-17583246D01*
X7458277Y-17583246D02*
X7458277Y-17640389D01*
X7458277Y-17640389D02*
X7448753Y-17659436D01*
X7448753Y-17659436D02*
X7439230Y-17668960D01*
X7439230Y-17668960D02*
X7420182Y-17678484D01*
X7420182Y-17678484D02*
X7391610Y-17678484D01*
X7572563Y-17678484D02*
X7553515Y-17668960D01*
X7553515Y-17668960D02*
X7543991Y-17649912D01*
X7543991Y-17649912D02*
X7543991Y-17478484D01*
X7724944Y-17668960D02*
X7705896Y-17678484D01*
X7705896Y-17678484D02*
X7667801Y-17678484D01*
X7667801Y-17678484D02*
X7648753Y-17668960D01*
X7648753Y-17668960D02*
X7639230Y-17649912D01*
X7639230Y-17649912D02*
X7639230Y-17573722D01*
X7639230Y-17573722D02*
X7648753Y-17554674D01*
X7648753Y-17554674D02*
X7667801Y-17545150D01*
X7667801Y-17545150D02*
X7705896Y-17545150D01*
X7705896Y-17545150D02*
X7724944Y-17554674D01*
X7724944Y-17554674D02*
X7734468Y-17573722D01*
X7734468Y-17573722D02*
X7734468Y-17592770D01*
X7734468Y-17592770D02*
X7639230Y-17611817D01*
X7810658Y-17668960D02*
X7829706Y-17678484D01*
X7829706Y-17678484D02*
X7867801Y-17678484D01*
X7867801Y-17678484D02*
X7886849Y-17668960D01*
X7886849Y-17668960D02*
X7896372Y-17649912D01*
X7896372Y-17649912D02*
X7896372Y-17640389D01*
X7896372Y-17640389D02*
X7886849Y-17621341D01*
X7886849Y-17621341D02*
X7867801Y-17611817D01*
X7867801Y-17611817D02*
X7839230Y-17611817D01*
X7839230Y-17611817D02*
X7820182Y-17602293D01*
X7820182Y-17602293D02*
X7810658Y-17583246D01*
X7810658Y-17583246D02*
X7810658Y-17573722D01*
X7810658Y-17573722D02*
X7820182Y-17554674D01*
X7820182Y-17554674D02*
X7839230Y-17545150D01*
X7839230Y-17545150D02*
X7867801Y-17545150D01*
X7867801Y-17545150D02*
X7886849Y-17554674D01*
X7963039Y-17754674D02*
X7972563Y-17745150D01*
X7972563Y-17745150D02*
X7991611Y-17716579D01*
X7991611Y-17716579D02*
X8001134Y-17697531D01*
X8001134Y-17697531D02*
X8010658Y-17668960D01*
X8010658Y-17668960D02*
X8020182Y-17621341D01*
X8020182Y-17621341D02*
X8020182Y-17583246D01*
X8020182Y-17583246D02*
X8010658Y-17535627D01*
X8010658Y-17535627D02*
X8001134Y-17507055D01*
X8001134Y-17507055D02*
X7991611Y-17488008D01*
X7991611Y-17488008D02*
X7972563Y-17459436D01*
X7972563Y-17459436D02*
X7963039Y-17449912D01*
D13*
X2931500Y-17917000D02*
X2997500Y-17851000D01*
X2931500Y-17785000D01*
X2865500Y-17851000D01*
X2931500Y-17917000D01*
D11*
X3363039Y-17942484D02*
X3248753Y-17942484D01*
X3305896Y-17942484D02*
X3305896Y-17742484D01*
X3305896Y-17742484D02*
X3286848Y-17771055D01*
X3286848Y-17771055D02*
X3267801Y-17790103D01*
X3267801Y-17790103D02*
X3248753Y-17799627D01*
X3448753Y-17923436D02*
X3458277Y-17932960D01*
X3458277Y-17932960D02*
X3448753Y-17942484D01*
X3448753Y-17942484D02*
X3439229Y-17932960D01*
X3439229Y-17932960D02*
X3448753Y-17923436D01*
X3448753Y-17923436D02*
X3448753Y-17942484D01*
X3524943Y-17742484D02*
X3648753Y-17742484D01*
X3648753Y-17742484D02*
X3582086Y-17818674D01*
X3582086Y-17818674D02*
X3610658Y-17818674D01*
X3610658Y-17818674D02*
X3629705Y-17828198D01*
X3629705Y-17828198D02*
X3639229Y-17837722D01*
X3639229Y-17837722D02*
X3648753Y-17856770D01*
X3648753Y-17856770D02*
X3648753Y-17904389D01*
X3648753Y-17904389D02*
X3639229Y-17923436D01*
X3639229Y-17923436D02*
X3629705Y-17932960D01*
X3629705Y-17932960D02*
X3610658Y-17942484D01*
X3610658Y-17942484D02*
X3553515Y-17942484D01*
X3553515Y-17942484D02*
X3534467Y-17932960D01*
X3534467Y-17932960D02*
X3524943Y-17923436D01*
X3724943Y-17761531D02*
X3734467Y-17752008D01*
X3734467Y-17752008D02*
X3753515Y-17742484D01*
X3753515Y-17742484D02*
X3801134Y-17742484D01*
X3801134Y-17742484D02*
X3820182Y-17752008D01*
X3820182Y-17752008D02*
X3829705Y-17761531D01*
X3829705Y-17761531D02*
X3839229Y-17780579D01*
X3839229Y-17780579D02*
X3839229Y-17799627D01*
X3839229Y-17799627D02*
X3829705Y-17828198D01*
X3829705Y-17828198D02*
X3715420Y-17942484D01*
X3715420Y-17942484D02*
X3839229Y-17942484D01*
X3963039Y-17742484D02*
X3982086Y-17742484D01*
X3982086Y-17742484D02*
X4001134Y-17752008D01*
X4001134Y-17752008D02*
X4010658Y-17761531D01*
X4010658Y-17761531D02*
X4020182Y-17780579D01*
X4020182Y-17780579D02*
X4029705Y-17818674D01*
X4029705Y-17818674D02*
X4029705Y-17866293D01*
X4029705Y-17866293D02*
X4020182Y-17904389D01*
X4020182Y-17904389D02*
X4010658Y-17923436D01*
X4010658Y-17923436D02*
X4001134Y-17932960D01*
X4001134Y-17932960D02*
X3982086Y-17942484D01*
X3982086Y-17942484D02*
X3963039Y-17942484D01*
X3963039Y-17942484D02*
X3943991Y-17932960D01*
X3943991Y-17932960D02*
X3934467Y-17923436D01*
X3934467Y-17923436D02*
X3924943Y-17904389D01*
X3924943Y-17904389D02*
X3915420Y-17866293D01*
X3915420Y-17866293D02*
X3915420Y-17818674D01*
X3915420Y-17818674D02*
X3924943Y-17780579D01*
X3924943Y-17780579D02*
X3934467Y-17761531D01*
X3934467Y-17761531D02*
X3943991Y-17752008D01*
X3943991Y-17752008D02*
X3963039Y-17742484D01*
X4115420Y-17942484D02*
X4115420Y-17809150D01*
X4115420Y-17828198D02*
X4124943Y-17818674D01*
X4124943Y-17818674D02*
X4143991Y-17809150D01*
X4143991Y-17809150D02*
X4172563Y-17809150D01*
X4172563Y-17809150D02*
X4191610Y-17818674D01*
X4191610Y-17818674D02*
X4201134Y-17837722D01*
X4201134Y-17837722D02*
X4201134Y-17942484D01*
X4201134Y-17837722D02*
X4210658Y-17818674D01*
X4210658Y-17818674D02*
X4229705Y-17809150D01*
X4229705Y-17809150D02*
X4258277Y-17809150D01*
X4258277Y-17809150D02*
X4277325Y-17818674D01*
X4277325Y-17818674D02*
X4286848Y-17837722D01*
X4286848Y-17837722D02*
X4286848Y-17942484D01*
X4382086Y-17942484D02*
X4382086Y-17809150D01*
X4382086Y-17828198D02*
X4391610Y-17818674D01*
X4391610Y-17818674D02*
X4410658Y-17809150D01*
X4410658Y-17809150D02*
X4439229Y-17809150D01*
X4439229Y-17809150D02*
X4458277Y-17818674D01*
X4458277Y-17818674D02*
X4467801Y-17837722D01*
X4467801Y-17837722D02*
X4467801Y-17942484D01*
X4467801Y-17837722D02*
X4477325Y-17818674D01*
X4477325Y-17818674D02*
X4496372Y-17809150D01*
X4496372Y-17809150D02*
X4524944Y-17809150D01*
X4524944Y-17809150D02*
X4543991Y-17818674D01*
X4543991Y-17818674D02*
X4553515Y-17837722D01*
X4553515Y-17837722D02*
X4553515Y-17942484D01*
X4943991Y-17732960D02*
X4772563Y-17990103D01*
X5201134Y-17742484D02*
X5220182Y-17742484D01*
X5220182Y-17742484D02*
X5239229Y-17752008D01*
X5239229Y-17752008D02*
X5248753Y-17761531D01*
X5248753Y-17761531D02*
X5258277Y-17780579D01*
X5258277Y-17780579D02*
X5267801Y-17818674D01*
X5267801Y-17818674D02*
X5267801Y-17866293D01*
X5267801Y-17866293D02*
X5258277Y-17904389D01*
X5258277Y-17904389D02*
X5248753Y-17923436D01*
X5248753Y-17923436D02*
X5239229Y-17932960D01*
X5239229Y-17932960D02*
X5220182Y-17942484D01*
X5220182Y-17942484D02*
X5201134Y-17942484D01*
X5201134Y-17942484D02*
X5182087Y-17932960D01*
X5182087Y-17932960D02*
X5172563Y-17923436D01*
X5172563Y-17923436D02*
X5163039Y-17904389D01*
X5163039Y-17904389D02*
X5153515Y-17866293D01*
X5153515Y-17866293D02*
X5153515Y-17818674D01*
X5153515Y-17818674D02*
X5163039Y-17780579D01*
X5163039Y-17780579D02*
X5172563Y-17761531D01*
X5172563Y-17761531D02*
X5182087Y-17752008D01*
X5182087Y-17752008D02*
X5201134Y-17742484D01*
X5353515Y-17923436D02*
X5363039Y-17932960D01*
X5363039Y-17932960D02*
X5353515Y-17942484D01*
X5353515Y-17942484D02*
X5343991Y-17932960D01*
X5343991Y-17932960D02*
X5353515Y-17923436D01*
X5353515Y-17923436D02*
X5353515Y-17942484D01*
X5486848Y-17742484D02*
X5505896Y-17742484D01*
X5505896Y-17742484D02*
X5524944Y-17752008D01*
X5524944Y-17752008D02*
X5534468Y-17761531D01*
X5534468Y-17761531D02*
X5543991Y-17780579D01*
X5543991Y-17780579D02*
X5553515Y-17818674D01*
X5553515Y-17818674D02*
X5553515Y-17866293D01*
X5553515Y-17866293D02*
X5543991Y-17904389D01*
X5543991Y-17904389D02*
X5534468Y-17923436D01*
X5534468Y-17923436D02*
X5524944Y-17932960D01*
X5524944Y-17932960D02*
X5505896Y-17942484D01*
X5505896Y-17942484D02*
X5486848Y-17942484D01*
X5486848Y-17942484D02*
X5467801Y-17932960D01*
X5467801Y-17932960D02*
X5458277Y-17923436D01*
X5458277Y-17923436D02*
X5448753Y-17904389D01*
X5448753Y-17904389D02*
X5439229Y-17866293D01*
X5439229Y-17866293D02*
X5439229Y-17818674D01*
X5439229Y-17818674D02*
X5448753Y-17780579D01*
X5448753Y-17780579D02*
X5458277Y-17761531D01*
X5458277Y-17761531D02*
X5467801Y-17752008D01*
X5467801Y-17752008D02*
X5486848Y-17742484D01*
X5734467Y-17742484D02*
X5639229Y-17742484D01*
X5639229Y-17742484D02*
X5629706Y-17837722D01*
X5629706Y-17837722D02*
X5639229Y-17828198D01*
X5639229Y-17828198D02*
X5658277Y-17818674D01*
X5658277Y-17818674D02*
X5705896Y-17818674D01*
X5705896Y-17818674D02*
X5724944Y-17828198D01*
X5724944Y-17828198D02*
X5734467Y-17837722D01*
X5734467Y-17837722D02*
X5743991Y-17856770D01*
X5743991Y-17856770D02*
X5743991Y-17904389D01*
X5743991Y-17904389D02*
X5734467Y-17923436D01*
X5734467Y-17923436D02*
X5724944Y-17932960D01*
X5724944Y-17932960D02*
X5705896Y-17942484D01*
X5705896Y-17942484D02*
X5658277Y-17942484D01*
X5658277Y-17942484D02*
X5639229Y-17932960D01*
X5639229Y-17932960D02*
X5629706Y-17923436D01*
X5820182Y-17761531D02*
X5829706Y-17752008D01*
X5829706Y-17752008D02*
X5848753Y-17742484D01*
X5848753Y-17742484D02*
X5896372Y-17742484D01*
X5896372Y-17742484D02*
X5915420Y-17752008D01*
X5915420Y-17752008D02*
X5924944Y-17761531D01*
X5924944Y-17761531D02*
X5934467Y-17780579D01*
X5934467Y-17780579D02*
X5934467Y-17799627D01*
X5934467Y-17799627D02*
X5924944Y-17828198D01*
X5924944Y-17828198D02*
X5810658Y-17942484D01*
X5810658Y-17942484D02*
X5934467Y-17942484D01*
X6058277Y-17742484D02*
X6077325Y-17742484D01*
X6077325Y-17742484D02*
X6096372Y-17752008D01*
X6096372Y-17752008D02*
X6105896Y-17761531D01*
X6105896Y-17761531D02*
X6115420Y-17780579D01*
X6115420Y-17780579D02*
X6124944Y-17818674D01*
X6124944Y-17818674D02*
X6124944Y-17866293D01*
X6124944Y-17866293D02*
X6115420Y-17904389D01*
X6115420Y-17904389D02*
X6105896Y-17923436D01*
X6105896Y-17923436D02*
X6096372Y-17932960D01*
X6096372Y-17932960D02*
X6077325Y-17942484D01*
X6077325Y-17942484D02*
X6058277Y-17942484D01*
X6058277Y-17942484D02*
X6039229Y-17932960D01*
X6039229Y-17932960D02*
X6029706Y-17923436D01*
X6029706Y-17923436D02*
X6020182Y-17904389D01*
X6020182Y-17904389D02*
X6010658Y-17866293D01*
X6010658Y-17866293D02*
X6010658Y-17818674D01*
X6010658Y-17818674D02*
X6020182Y-17780579D01*
X6020182Y-17780579D02*
X6029706Y-17761531D01*
X6029706Y-17761531D02*
X6039229Y-17752008D01*
X6039229Y-17752008D02*
X6058277Y-17742484D01*
X6201134Y-17742484D02*
X6201134Y-17780579D01*
X6277325Y-17742484D02*
X6277325Y-17780579D01*
X6572563Y-18018674D02*
X6563039Y-18009150D01*
X6563039Y-18009150D02*
X6543991Y-17980579D01*
X6543991Y-17980579D02*
X6534468Y-17961531D01*
X6534468Y-17961531D02*
X6524944Y-17932960D01*
X6524944Y-17932960D02*
X6515420Y-17885341D01*
X6515420Y-17885341D02*
X6515420Y-17847246D01*
X6515420Y-17847246D02*
X6524944Y-17799627D01*
X6524944Y-17799627D02*
X6534468Y-17771055D01*
X6534468Y-17771055D02*
X6543991Y-17752008D01*
X6543991Y-17752008D02*
X6563039Y-17723436D01*
X6563039Y-17723436D02*
X6572563Y-17713912D01*
X6734468Y-17809150D02*
X6734468Y-17942484D01*
X6686848Y-17732960D02*
X6639229Y-17875817D01*
X6639229Y-17875817D02*
X6763039Y-17875817D01*
X6991610Y-17942484D02*
X6991610Y-17742484D01*
X7077325Y-17942484D02*
X7077325Y-17837722D01*
X7077325Y-17837722D02*
X7067801Y-17818674D01*
X7067801Y-17818674D02*
X7048753Y-17809150D01*
X7048753Y-17809150D02*
X7020182Y-17809150D01*
X7020182Y-17809150D02*
X7001134Y-17818674D01*
X7001134Y-17818674D02*
X6991610Y-17828198D01*
X7201134Y-17942484D02*
X7182087Y-17932960D01*
X7182087Y-17932960D02*
X7172563Y-17923436D01*
X7172563Y-17923436D02*
X7163039Y-17904389D01*
X7163039Y-17904389D02*
X7163039Y-17847246D01*
X7163039Y-17847246D02*
X7172563Y-17828198D01*
X7172563Y-17828198D02*
X7182087Y-17818674D01*
X7182087Y-17818674D02*
X7201134Y-17809150D01*
X7201134Y-17809150D02*
X7229706Y-17809150D01*
X7229706Y-17809150D02*
X7248753Y-17818674D01*
X7248753Y-17818674D02*
X7258277Y-17828198D01*
X7258277Y-17828198D02*
X7267801Y-17847246D01*
X7267801Y-17847246D02*
X7267801Y-17904389D01*
X7267801Y-17904389D02*
X7258277Y-17923436D01*
X7258277Y-17923436D02*
X7248753Y-17932960D01*
X7248753Y-17932960D02*
X7229706Y-17942484D01*
X7229706Y-17942484D02*
X7201134Y-17942484D01*
X7382087Y-17942484D02*
X7363039Y-17932960D01*
X7363039Y-17932960D02*
X7353515Y-17913912D01*
X7353515Y-17913912D02*
X7353515Y-17742484D01*
X7534468Y-17932960D02*
X7515420Y-17942484D01*
X7515420Y-17942484D02*
X7477325Y-17942484D01*
X7477325Y-17942484D02*
X7458277Y-17932960D01*
X7458277Y-17932960D02*
X7448753Y-17913912D01*
X7448753Y-17913912D02*
X7448753Y-17837722D01*
X7448753Y-17837722D02*
X7458277Y-17818674D01*
X7458277Y-17818674D02*
X7477325Y-17809150D01*
X7477325Y-17809150D02*
X7515420Y-17809150D01*
X7515420Y-17809150D02*
X7534468Y-17818674D01*
X7534468Y-17818674D02*
X7543991Y-17837722D01*
X7543991Y-17837722D02*
X7543991Y-17856770D01*
X7543991Y-17856770D02*
X7448753Y-17875817D01*
X7620182Y-17932960D02*
X7639230Y-17942484D01*
X7639230Y-17942484D02*
X7677325Y-17942484D01*
X7677325Y-17942484D02*
X7696372Y-17932960D01*
X7696372Y-17932960D02*
X7705896Y-17913912D01*
X7705896Y-17913912D02*
X7705896Y-17904389D01*
X7705896Y-17904389D02*
X7696372Y-17885341D01*
X7696372Y-17885341D02*
X7677325Y-17875817D01*
X7677325Y-17875817D02*
X7648753Y-17875817D01*
X7648753Y-17875817D02*
X7629706Y-17866293D01*
X7629706Y-17866293D02*
X7620182Y-17847246D01*
X7620182Y-17847246D02*
X7620182Y-17837722D01*
X7620182Y-17837722D02*
X7629706Y-17818674D01*
X7629706Y-17818674D02*
X7648753Y-17809150D01*
X7648753Y-17809150D02*
X7677325Y-17809150D01*
X7677325Y-17809150D02*
X7696372Y-17818674D01*
X7772563Y-18018674D02*
X7782087Y-18009150D01*
X7782087Y-18009150D02*
X7801134Y-17980579D01*
X7801134Y-17980579D02*
X7810658Y-17961531D01*
X7810658Y-17961531D02*
X7820182Y-17932960D01*
X7820182Y-17932960D02*
X7829706Y-17885341D01*
X7829706Y-17885341D02*
X7829706Y-17847246D01*
X7829706Y-17847246D02*
X7820182Y-17799627D01*
X7820182Y-17799627D02*
X7810658Y-17771055D01*
X7810658Y-17771055D02*
X7801134Y-17752008D01*
X7801134Y-17752008D02*
X7782087Y-17723436D01*
X7782087Y-17723436D02*
X7772563Y-17713912D01*
M02*
