G04 #@! TF.GenerationSoftware,KiCad,Pcbnew,8.0.1*
G04 #@! TF.CreationDate,2024-03-22T19:38:57+01:00*
G04 #@! TF.ProjectId,BikeCounter_SingleBoard,42696b65-436f-4756-9e74-65725f53696e,rev?*
G04 #@! TF.SameCoordinates,Original*
G04 #@! TF.FileFunction,Legend,Bot*
G04 #@! TF.FilePolarity,Positive*
%FSLAX46Y46*%
G04 Gerber Fmt 4.6, Leading zero omitted, Abs format (unit mm)*
G04 Created by KiCad (PCBNEW 8.0.1) date 2024-03-22 19:38:57*
%MOMM*%
%LPD*%
G01*
G04 APERTURE LIST*
%ADD10C,0.010000*%
%ADD11R,1.700000X1.700000*%
%ADD12O,1.700000X1.700000*%
%ADD13C,1.400000*%
%ADD14C,1.800000*%
%ADD15R,1.350000X1.350000*%
%ADD16O,1.350000X1.350000*%
%ADD17C,3.550000*%
%ADD18C,2.390000*%
%ADD19C,2.640000*%
%ADD20C,4.300000*%
%ADD21C,0.800000*%
G04 APERTURE END LIST*
D10*
X118635571Y-154640527D02*
X118602726Y-154721945D01*
X118592415Y-154744166D01*
X118548339Y-154870617D01*
X118522126Y-154996046D01*
X118516056Y-155040928D01*
X118499297Y-155100623D01*
X118479059Y-155097709D01*
X118461221Y-155055631D01*
X118452134Y-154948197D01*
X118473640Y-154827948D01*
X118522688Y-154721205D01*
X118545693Y-154688590D01*
X118601396Y-154623798D01*
X118633241Y-154607794D01*
X118635571Y-154640527D01*
G36*
X118635571Y-154640527D02*
G01*
X118602726Y-154721945D01*
X118592415Y-154744166D01*
X118548339Y-154870617D01*
X118522126Y-154996046D01*
X118516056Y-155040928D01*
X118499297Y-155100623D01*
X118479059Y-155097709D01*
X118461221Y-155055631D01*
X118452134Y-154948197D01*
X118473640Y-154827948D01*
X118522688Y-154721205D01*
X118545693Y-154688590D01*
X118601396Y-154623798D01*
X118633241Y-154607794D01*
X118635571Y-154640527D01*
G37*
X119842888Y-154761290D02*
X119798516Y-154819580D01*
X119776259Y-154849159D01*
X119769136Y-154888263D01*
X119786767Y-154947326D01*
X119831816Y-155044330D01*
X119914849Y-155214125D01*
X119787247Y-155071250D01*
X119730644Y-155004474D01*
X119678987Y-154934787D01*
X119658698Y-154894658D01*
X119659639Y-154888784D01*
X119690941Y-154844836D01*
X119753000Y-154790520D01*
X119791080Y-154764187D01*
X119839151Y-154742022D01*
X119842888Y-154761290D01*
G36*
X119842888Y-154761290D02*
G01*
X119798516Y-154819580D01*
X119776259Y-154849159D01*
X119769136Y-154888263D01*
X119786767Y-154947326D01*
X119831816Y-155044330D01*
X119914849Y-155214125D01*
X119787247Y-155071250D01*
X119730644Y-155004474D01*
X119678987Y-154934787D01*
X119658698Y-154894658D01*
X119659639Y-154888784D01*
X119690941Y-154844836D01*
X119753000Y-154790520D01*
X119791080Y-154764187D01*
X119839151Y-154742022D01*
X119842888Y-154761290D01*
G37*
X124880128Y-155730609D02*
X124875700Y-155809826D01*
X124873016Y-155846903D01*
X124885529Y-155962876D01*
X124921118Y-156097723D01*
X124949216Y-156186360D01*
X124961291Y-156243211D01*
X124948722Y-156242120D01*
X124911880Y-156183250D01*
X124851133Y-156066764D01*
X124822025Y-156005725D01*
X124779216Y-155887542D01*
X124774870Y-155803840D01*
X124807601Y-155744349D01*
X124808421Y-155743531D01*
X124857912Y-155708713D01*
X124880128Y-155730609D01*
G36*
X124880128Y-155730609D02*
G01*
X124875700Y-155809826D01*
X124873016Y-155846903D01*
X124885529Y-155962876D01*
X124921118Y-156097723D01*
X124949216Y-156186360D01*
X124961291Y-156243211D01*
X124948722Y-156242120D01*
X124911880Y-156183250D01*
X124851133Y-156066764D01*
X124822025Y-156005725D01*
X124779216Y-155887542D01*
X124774870Y-155803840D01*
X124807601Y-155744349D01*
X124808421Y-155743531D01*
X124857912Y-155708713D01*
X124880128Y-155730609D01*
G37*
X124110102Y-154736742D02*
X124101903Y-154739262D01*
X123939774Y-154792082D01*
X123766410Y-154852923D01*
X123617977Y-154909118D01*
X123556109Y-154933899D01*
X123449429Y-154975804D01*
X123392912Y-154994627D01*
X123380335Y-154990601D01*
X123405472Y-154963956D01*
X123462100Y-154914926D01*
X123491151Y-154892352D01*
X123625046Y-154817437D01*
X123797114Y-154751391D01*
X123987748Y-154700860D01*
X124177342Y-154672489D01*
X124372625Y-154656361D01*
X124110102Y-154736742D01*
G36*
X124110102Y-154736742D02*
G01*
X124101903Y-154739262D01*
X123939774Y-154792082D01*
X123766410Y-154852923D01*
X123617977Y-154909118D01*
X123556109Y-154933899D01*
X123449429Y-154975804D01*
X123392912Y-154994627D01*
X123380335Y-154990601D01*
X123405472Y-154963956D01*
X123462100Y-154914926D01*
X123491151Y-154892352D01*
X123625046Y-154817437D01*
X123797114Y-154751391D01*
X123987748Y-154700860D01*
X124177342Y-154672489D01*
X124372625Y-154656361D01*
X124110102Y-154736742D01*
G37*
X122537348Y-155906475D02*
X122493873Y-155980067D01*
X122483003Y-155996841D01*
X122459693Y-156045913D01*
X122474410Y-156083335D01*
X122533560Y-156133953D01*
X122533955Y-156134262D01*
X122622669Y-156205981D01*
X122705750Y-156276244D01*
X122719411Y-156289198D01*
X122718734Y-156300854D01*
X122664674Y-156279510D01*
X122557752Y-156225347D01*
X122330379Y-156104961D01*
X122375518Y-156017672D01*
X122423126Y-155949289D01*
X122483829Y-155896574D01*
X122500885Y-155887847D01*
X122539870Y-155877270D01*
X122537348Y-155906475D01*
G36*
X122537348Y-155906475D02*
G01*
X122493873Y-155980067D01*
X122483003Y-155996841D01*
X122459693Y-156045913D01*
X122474410Y-156083335D01*
X122533560Y-156133953D01*
X122533955Y-156134262D01*
X122622669Y-156205981D01*
X122705750Y-156276244D01*
X122719411Y-156289198D01*
X122718734Y-156300854D01*
X122664674Y-156279510D01*
X122557752Y-156225347D01*
X122330379Y-156104961D01*
X122375518Y-156017672D01*
X122423126Y-155949289D01*
X122483829Y-155896574D01*
X122500885Y-155887847D01*
X122539870Y-155877270D01*
X122537348Y-155906475D01*
G37*
X117491334Y-155996897D02*
X117449570Y-156069293D01*
X117445392Y-156075750D01*
X117423480Y-156119734D01*
X117420838Y-156167122D01*
X117439605Y-156236136D01*
X117481919Y-156345001D01*
X117485957Y-156354982D01*
X117521076Y-156446725D01*
X117539302Y-156504041D01*
X117536750Y-156514887D01*
X117529043Y-156505948D01*
X117448026Y-156405210D01*
X117377298Y-156306357D01*
X117327243Y-156224795D01*
X117308250Y-156175933D01*
X117310451Y-156164204D01*
X117343464Y-156107285D01*
X117403500Y-156039625D01*
X117451739Y-155996291D01*
X117491637Y-155972293D01*
X117491334Y-155996897D01*
G36*
X117491334Y-155996897D02*
G01*
X117449570Y-156069293D01*
X117445392Y-156075750D01*
X117423480Y-156119734D01*
X117420838Y-156167122D01*
X117439605Y-156236136D01*
X117481919Y-156345001D01*
X117485957Y-156354982D01*
X117521076Y-156446725D01*
X117539302Y-156504041D01*
X117536750Y-156514887D01*
X117529043Y-156505948D01*
X117448026Y-156405210D01*
X117377298Y-156306357D01*
X117327243Y-156224795D01*
X117308250Y-156175933D01*
X117310451Y-156164204D01*
X117343464Y-156107285D01*
X117403500Y-156039625D01*
X117451739Y-155996291D01*
X117491637Y-155972293D01*
X117491334Y-155996897D01*
G37*
X133772982Y-153992464D02*
X133904520Y-153995210D01*
X133991953Y-154001028D01*
X134044758Y-154010957D01*
X134072413Y-154026039D01*
X134084396Y-154047312D01*
X134093173Y-154082996D01*
X134111597Y-154170383D01*
X134134200Y-154285374D01*
X134157624Y-154409999D01*
X134178511Y-154526291D01*
X134193506Y-154616283D01*
X134199250Y-154662007D01*
X134189209Y-154667683D01*
X134127811Y-154676625D01*
X134019898Y-154683780D01*
X133876270Y-154688529D01*
X133707730Y-154690250D01*
X133569659Y-154690133D01*
X133422555Y-154688911D01*
X133322529Y-154685230D01*
X133259971Y-154677734D01*
X133225272Y-154665069D01*
X133208823Y-154645880D01*
X133201014Y-154618812D01*
X133181739Y-154525816D01*
X133156126Y-154397132D01*
X133130896Y-154266062D01*
X133109098Y-154148762D01*
X133093783Y-154061391D01*
X133088000Y-154020103D01*
X133097797Y-154014465D01*
X133158813Y-154005466D01*
X133266395Y-153998263D01*
X133409726Y-153993482D01*
X133577986Y-153991750D01*
X133587861Y-153991750D01*
X133772982Y-153992464D01*
G36*
X133772982Y-153992464D02*
G01*
X133904520Y-153995210D01*
X133991953Y-154001028D01*
X134044758Y-154010957D01*
X134072413Y-154026039D01*
X134084396Y-154047312D01*
X134093173Y-154082996D01*
X134111597Y-154170383D01*
X134134200Y-154285374D01*
X134157624Y-154409999D01*
X134178511Y-154526291D01*
X134193506Y-154616283D01*
X134199250Y-154662007D01*
X134189209Y-154667683D01*
X134127811Y-154676625D01*
X134019898Y-154683780D01*
X133876270Y-154688529D01*
X133707730Y-154690250D01*
X133569659Y-154690133D01*
X133422555Y-154688911D01*
X133322529Y-154685230D01*
X133259971Y-154677734D01*
X133225272Y-154665069D01*
X133208823Y-154645880D01*
X133201014Y-154618812D01*
X133181739Y-154525816D01*
X133156126Y-154397132D01*
X133130896Y-154266062D01*
X133109098Y-154148762D01*
X133093783Y-154061391D01*
X133088000Y-154020103D01*
X133097797Y-154014465D01*
X133158813Y-154005466D01*
X133266395Y-153998263D01*
X133409726Y-153993482D01*
X133577986Y-153991750D01*
X133587861Y-153991750D01*
X133772982Y-153992464D01*
G37*
X132898488Y-154190802D02*
X132922529Y-154315280D01*
X132948696Y-154446263D01*
X132949699Y-154451194D01*
X132971426Y-154560016D01*
X132986872Y-154641114D01*
X132992750Y-154677256D01*
X132981336Y-154680158D01*
X132917903Y-154683612D01*
X132808233Y-154685340D01*
X132663037Y-154685217D01*
X132493024Y-154683118D01*
X131993298Y-154674375D01*
X131938593Y-154388625D01*
X131918834Y-154289427D01*
X131895151Y-154167545D01*
X131893677Y-154150500D01*
X132075993Y-154150500D01*
X132094366Y-154269562D01*
X132107555Y-154345573D01*
X132122862Y-154394200D01*
X132137839Y-154382984D01*
X132155206Y-154313909D01*
X132160856Y-154288962D01*
X132183548Y-154237752D01*
X132227854Y-154205902D01*
X132307728Y-154186402D01*
X132437125Y-154172237D01*
X132456844Y-154170032D01*
X132463913Y-154164454D01*
X132416238Y-154159431D01*
X132320059Y-154155837D01*
X132075993Y-154150500D01*
X131893677Y-154150500D01*
X131887929Y-154084033D01*
X131904981Y-154031741D01*
X131954120Y-154003518D01*
X132043159Y-153992213D01*
X132179910Y-153990673D01*
X132372187Y-153991750D01*
X132862873Y-153991750D01*
X132883758Y-154110812D01*
X132893637Y-154164454D01*
X132898488Y-154190802D01*
G36*
X132898488Y-154190802D02*
G01*
X132922529Y-154315280D01*
X132948696Y-154446263D01*
X132949699Y-154451194D01*
X132971426Y-154560016D01*
X132986872Y-154641114D01*
X132992750Y-154677256D01*
X132981336Y-154680158D01*
X132917903Y-154683612D01*
X132808233Y-154685340D01*
X132663037Y-154685217D01*
X132493024Y-154683118D01*
X131993298Y-154674375D01*
X131938593Y-154388625D01*
X131918834Y-154289427D01*
X131895151Y-154167545D01*
X131893677Y-154150500D01*
X132075993Y-154150500D01*
X132094366Y-154269562D01*
X132107555Y-154345573D01*
X132122862Y-154394200D01*
X132137839Y-154382984D01*
X132155206Y-154313909D01*
X132160856Y-154288962D01*
X132183548Y-154237752D01*
X132227854Y-154205902D01*
X132307728Y-154186402D01*
X132437125Y-154172237D01*
X132456844Y-154170032D01*
X132463913Y-154164454D01*
X132416238Y-154159431D01*
X132320059Y-154155837D01*
X132075993Y-154150500D01*
X131893677Y-154150500D01*
X131887929Y-154084033D01*
X131904981Y-154031741D01*
X131954120Y-154003518D01*
X132043159Y-153992213D01*
X132179910Y-153990673D01*
X132372187Y-153991750D01*
X132862873Y-153991750D01*
X132883758Y-154110812D01*
X132893637Y-154164454D01*
X132898488Y-154190802D01*
G37*
X131522200Y-155595125D02*
X131565701Y-155833565D01*
X131632838Y-156197662D01*
X131691189Y-156507961D01*
X131741924Y-156770033D01*
X131786214Y-156989447D01*
X131825226Y-157171773D01*
X131860132Y-157322580D01*
X131892100Y-157447440D01*
X131922299Y-157551921D01*
X131951900Y-157641593D01*
X132034690Y-157848225D01*
X132183015Y-158116346D01*
X132366546Y-158342483D01*
X132592702Y-158537001D01*
X132716528Y-158627250D01*
X131473253Y-158627250D01*
X131439563Y-158460562D01*
X131426974Y-158397050D01*
X131401422Y-158264839D01*
X131371379Y-158106747D01*
X131341020Y-157944625D01*
X131313847Y-157798035D01*
X131278595Y-157609029D01*
X131251524Y-157470152D01*
X131230265Y-157373878D01*
X131212453Y-157312678D01*
X131195722Y-157279026D01*
X131177705Y-157265395D01*
X131156037Y-157264256D01*
X131128350Y-157268082D01*
X131099181Y-157274449D01*
X131070228Y-157293899D01*
X131042949Y-157335495D01*
X131012632Y-157408984D01*
X130974562Y-157524111D01*
X130924027Y-157690625D01*
X130871351Y-157866700D01*
X130814528Y-158055910D01*
X130762140Y-158229685D01*
X130721021Y-158365312D01*
X130641209Y-158627250D01*
X130007230Y-158627250D01*
X129968799Y-158627199D01*
X129779767Y-158625399D01*
X129616184Y-158621323D01*
X129487562Y-158615387D01*
X129403414Y-158608006D01*
X129373250Y-158599595D01*
X129379179Y-158579464D01*
X129404056Y-158507892D01*
X129444887Y-158394544D01*
X129497913Y-158249529D01*
X129559374Y-158082954D01*
X129625513Y-157904929D01*
X129692570Y-157725563D01*
X129756787Y-157554964D01*
X129814406Y-157403242D01*
X129861667Y-157280506D01*
X129894812Y-157196864D01*
X129897443Y-157188309D01*
X129885959Y-157157201D01*
X129831765Y-157126720D01*
X129725010Y-157090705D01*
X129562506Y-157030725D01*
X129336264Y-156897929D01*
X129156639Y-156723286D01*
X129025708Y-156509666D01*
X128945552Y-156259941D01*
X128918251Y-155976981D01*
X128922030Y-155861189D01*
X128929019Y-155819398D01*
X129190065Y-155819398D01*
X129207271Y-155808627D01*
X129249756Y-155756978D01*
X129305945Y-155675622D01*
X129377620Y-155579124D01*
X129525070Y-155423238D01*
X129699788Y-155274828D01*
X129882147Y-155151739D01*
X129929623Y-155123738D01*
X129978243Y-155091551D01*
X129976746Y-155082047D01*
X129928875Y-155090302D01*
X129817678Y-155123902D01*
X129655905Y-155195867D01*
X129504347Y-155285650D01*
X129389230Y-155379211D01*
X129358572Y-155414508D01*
X129283091Y-155528898D01*
X129228560Y-155648215D01*
X129209849Y-155708663D01*
X129191436Y-155784152D01*
X129190065Y-155819398D01*
X128929019Y-155819398D01*
X128962185Y-155621080D01*
X129048833Y-155419933D01*
X129185209Y-155251602D01*
X129374550Y-155109938D01*
X129375100Y-155109607D01*
X129549152Y-155020089D01*
X129742646Y-154951358D01*
X129964098Y-154901977D01*
X130222025Y-154870508D01*
X130524946Y-154855514D01*
X130881375Y-154855556D01*
X131389375Y-154864875D01*
X131430606Y-155091551D01*
X131522200Y-155595125D01*
G36*
X131522200Y-155595125D02*
G01*
X131565701Y-155833565D01*
X131632838Y-156197662D01*
X131691189Y-156507961D01*
X131741924Y-156770033D01*
X131786214Y-156989447D01*
X131825226Y-157171773D01*
X131860132Y-157322580D01*
X131892100Y-157447440D01*
X131922299Y-157551921D01*
X131951900Y-157641593D01*
X132034690Y-157848225D01*
X132183015Y-158116346D01*
X132366546Y-158342483D01*
X132592702Y-158537001D01*
X132716528Y-158627250D01*
X131473253Y-158627250D01*
X131439563Y-158460562D01*
X131426974Y-158397050D01*
X131401422Y-158264839D01*
X131371379Y-158106747D01*
X131341020Y-157944625D01*
X131313847Y-157798035D01*
X131278595Y-157609029D01*
X131251524Y-157470152D01*
X131230265Y-157373878D01*
X131212453Y-157312678D01*
X131195722Y-157279026D01*
X131177705Y-157265395D01*
X131156037Y-157264256D01*
X131128350Y-157268082D01*
X131099181Y-157274449D01*
X131070228Y-157293899D01*
X131042949Y-157335495D01*
X131012632Y-157408984D01*
X130974562Y-157524111D01*
X130924027Y-157690625D01*
X130871351Y-157866700D01*
X130814528Y-158055910D01*
X130762140Y-158229685D01*
X130721021Y-158365312D01*
X130641209Y-158627250D01*
X130007230Y-158627250D01*
X129968799Y-158627199D01*
X129779767Y-158625399D01*
X129616184Y-158621323D01*
X129487562Y-158615387D01*
X129403414Y-158608006D01*
X129373250Y-158599595D01*
X129379179Y-158579464D01*
X129404056Y-158507892D01*
X129444887Y-158394544D01*
X129497913Y-158249529D01*
X129559374Y-158082954D01*
X129625513Y-157904929D01*
X129692570Y-157725563D01*
X129756787Y-157554964D01*
X129814406Y-157403242D01*
X129861667Y-157280506D01*
X129894812Y-157196864D01*
X129897443Y-157188309D01*
X129885959Y-157157201D01*
X129831765Y-157126720D01*
X129725010Y-157090705D01*
X129562506Y-157030725D01*
X129336264Y-156897929D01*
X129156639Y-156723286D01*
X129025708Y-156509666D01*
X128945552Y-156259941D01*
X128918251Y-155976981D01*
X128922030Y-155861189D01*
X128929019Y-155819398D01*
X129190065Y-155819398D01*
X129207271Y-155808627D01*
X129249756Y-155756978D01*
X129305945Y-155675622D01*
X129377620Y-155579124D01*
X129525070Y-155423238D01*
X129699788Y-155274828D01*
X129882147Y-155151739D01*
X129929623Y-155123738D01*
X129978243Y-155091551D01*
X129976746Y-155082047D01*
X129928875Y-155090302D01*
X129817678Y-155123902D01*
X129655905Y-155195867D01*
X129504347Y-155285650D01*
X129389230Y-155379211D01*
X129358572Y-155414508D01*
X129283091Y-155528898D01*
X129228560Y-155648215D01*
X129209849Y-155708663D01*
X129191436Y-155784152D01*
X129190065Y-155819398D01*
X128929019Y-155819398D01*
X128962185Y-155621080D01*
X129048833Y-155419933D01*
X129185209Y-155251602D01*
X129374550Y-155109938D01*
X129375100Y-155109607D01*
X129549152Y-155020089D01*
X129742646Y-154951358D01*
X129964098Y-154901977D01*
X130222025Y-154870508D01*
X130524946Y-154855514D01*
X130881375Y-154855556D01*
X131389375Y-154864875D01*
X131430606Y-155091551D01*
X131522200Y-155595125D01*
G37*
X137487907Y-155119140D02*
X137515691Y-155261355D01*
X137543596Y-155409537D01*
X137569002Y-155550068D01*
X137589292Y-155669329D01*
X137601844Y-155753700D01*
X137612375Y-155837804D01*
X136902115Y-155834416D01*
X136818058Y-155834051D01*
X136606946Y-155833729D01*
X136449536Y-155834950D01*
X136338495Y-155838218D01*
X136266489Y-155844036D01*
X136226185Y-155852907D01*
X136210248Y-155865335D01*
X136211346Y-155881823D01*
X136214747Y-155888084D01*
X136248546Y-155939080D01*
X136315018Y-156034656D01*
X136410581Y-156169801D01*
X136531653Y-156339508D01*
X136674654Y-156538768D01*
X136836003Y-156762573D01*
X137012118Y-157005914D01*
X137199419Y-157263781D01*
X137267514Y-157357407D01*
X137450126Y-157608891D01*
X137619689Y-157842986D01*
X137772718Y-158054846D01*
X137905734Y-158239628D01*
X138015252Y-158392489D01*
X138097791Y-158508583D01*
X138149868Y-158583067D01*
X138168000Y-158611097D01*
X138164611Y-158612140D01*
X138114287Y-158615202D01*
X138008341Y-158618046D01*
X137852703Y-158620614D01*
X137653304Y-158622846D01*
X137416073Y-158624684D01*
X137146940Y-158626070D01*
X136851836Y-158626945D01*
X136536691Y-158627250D01*
X134905381Y-158627250D01*
X134819574Y-158158937D01*
X134805340Y-158081082D01*
X134776423Y-157921764D01*
X134752525Y-157788554D01*
X134735812Y-157693565D01*
X134728446Y-157648911D01*
X134728353Y-157646968D01*
X134741284Y-157633068D01*
X134783496Y-157622826D01*
X134861827Y-157615839D01*
X134983118Y-157611704D01*
X135154209Y-157610016D01*
X135381938Y-157610374D01*
X135441439Y-157610585D01*
X135632309Y-157610173D01*
X135797006Y-157608180D01*
X135926199Y-157604823D01*
X136010558Y-157600321D01*
X136040750Y-157594895D01*
X136036876Y-157588004D01*
X136002483Y-157537953D01*
X135935364Y-157443819D01*
X135838995Y-157310374D01*
X135716852Y-157142393D01*
X135572409Y-156944647D01*
X135409142Y-156721910D01*
X135230527Y-156478956D01*
X135040040Y-156220558D01*
X134168230Y-155039500D01*
X134452185Y-155039500D01*
X134710793Y-155396687D01*
X134713416Y-155400309D01*
X134843412Y-155577747D01*
X134940207Y-155705331D01*
X135003316Y-155782516D01*
X135032258Y-155808760D01*
X135026550Y-155783519D01*
X134985710Y-155706250D01*
X134897263Y-155548884D01*
X134799276Y-155370741D01*
X134729326Y-155238268D01*
X134688949Y-155154397D01*
X134679681Y-155122061D01*
X134700028Y-155115231D01*
X134768418Y-155099417D01*
X134866000Y-155080141D01*
X135040625Y-155047842D01*
X134452185Y-155039500D01*
X134168230Y-155039500D01*
X134039329Y-154864875D01*
X135727676Y-154856656D01*
X135879067Y-154855978D01*
X136192067Y-154854959D01*
X136482841Y-154854525D01*
X136745492Y-154854653D01*
X136974124Y-154855321D01*
X137162841Y-154856508D01*
X137305748Y-154858191D01*
X137396948Y-154860350D01*
X137430546Y-154862961D01*
X137431472Y-154864491D01*
X137443178Y-154907089D01*
X137462863Y-154996511D01*
X137473347Y-155047842D01*
X137487907Y-155119140D01*
G36*
X137487907Y-155119140D02*
G01*
X137515691Y-155261355D01*
X137543596Y-155409537D01*
X137569002Y-155550068D01*
X137589292Y-155669329D01*
X137601844Y-155753700D01*
X137612375Y-155837804D01*
X136902115Y-155834416D01*
X136818058Y-155834051D01*
X136606946Y-155833729D01*
X136449536Y-155834950D01*
X136338495Y-155838218D01*
X136266489Y-155844036D01*
X136226185Y-155852907D01*
X136210248Y-155865335D01*
X136211346Y-155881823D01*
X136214747Y-155888084D01*
X136248546Y-155939080D01*
X136315018Y-156034656D01*
X136410581Y-156169801D01*
X136531653Y-156339508D01*
X136674654Y-156538768D01*
X136836003Y-156762573D01*
X137012118Y-157005914D01*
X137199419Y-157263781D01*
X137267514Y-157357407D01*
X137450126Y-157608891D01*
X137619689Y-157842986D01*
X137772718Y-158054846D01*
X137905734Y-158239628D01*
X138015252Y-158392489D01*
X138097791Y-158508583D01*
X138149868Y-158583067D01*
X138168000Y-158611097D01*
X138164611Y-158612140D01*
X138114287Y-158615202D01*
X138008341Y-158618046D01*
X137852703Y-158620614D01*
X137653304Y-158622846D01*
X137416073Y-158624684D01*
X137146940Y-158626070D01*
X136851836Y-158626945D01*
X136536691Y-158627250D01*
X134905381Y-158627250D01*
X134819574Y-158158937D01*
X134805340Y-158081082D01*
X134776423Y-157921764D01*
X134752525Y-157788554D01*
X134735812Y-157693565D01*
X134728446Y-157648911D01*
X134728353Y-157646968D01*
X134741284Y-157633068D01*
X134783496Y-157622826D01*
X134861827Y-157615839D01*
X134983118Y-157611704D01*
X135154209Y-157610016D01*
X135381938Y-157610374D01*
X135441439Y-157610585D01*
X135632309Y-157610173D01*
X135797006Y-157608180D01*
X135926199Y-157604823D01*
X136010558Y-157600321D01*
X136040750Y-157594895D01*
X136036876Y-157588004D01*
X136002483Y-157537953D01*
X135935364Y-157443819D01*
X135838995Y-157310374D01*
X135716852Y-157142393D01*
X135572409Y-156944647D01*
X135409142Y-156721910D01*
X135230527Y-156478956D01*
X135040040Y-156220558D01*
X134168230Y-155039500D01*
X134452185Y-155039500D01*
X134710793Y-155396687D01*
X134713416Y-155400309D01*
X134843412Y-155577747D01*
X134940207Y-155705331D01*
X135003316Y-155782516D01*
X135032258Y-155808760D01*
X135026550Y-155783519D01*
X134985710Y-155706250D01*
X134897263Y-155548884D01*
X134799276Y-155370741D01*
X134729326Y-155238268D01*
X134688949Y-155154397D01*
X134679681Y-155122061D01*
X134700028Y-155115231D01*
X134768418Y-155099417D01*
X134866000Y-155080141D01*
X135040625Y-155047842D01*
X134452185Y-155039500D01*
X134168230Y-155039500D01*
X134039329Y-154864875D01*
X135727676Y-154856656D01*
X135879067Y-154855978D01*
X136192067Y-154854959D01*
X136482841Y-154854525D01*
X136745492Y-154854653D01*
X136974124Y-154855321D01*
X137162841Y-154856508D01*
X137305748Y-154858191D01*
X137396948Y-154860350D01*
X137430546Y-154862961D01*
X137431472Y-154864491D01*
X137443178Y-154907089D01*
X137462863Y-154996511D01*
X137473347Y-155047842D01*
X137487907Y-155119140D01*
G37*
X135347467Y-156913549D02*
X135370274Y-157152318D01*
X135372254Y-157173732D01*
X135380376Y-157286479D01*
X135382549Y-157369427D01*
X135378249Y-157405918D01*
X135375339Y-157407214D01*
X135327161Y-157412517D01*
X135230432Y-157416815D01*
X135097343Y-157419697D01*
X134940084Y-157420750D01*
X134900573Y-157420801D01*
X134750112Y-157422017D01*
X134628227Y-157424606D01*
X134546560Y-157428241D01*
X134516750Y-157432597D01*
X134519223Y-157448379D01*
X134531525Y-157517215D01*
X134552385Y-157630664D01*
X134579827Y-157778010D01*
X134611875Y-157948535D01*
X134632312Y-158058031D01*
X134661964Y-158221648D01*
X134685670Y-158358445D01*
X134701400Y-158456578D01*
X134707125Y-158504206D01*
X134684991Y-158533610D01*
X134612335Y-158575295D01*
X134501335Y-158620595D01*
X134364697Y-158664412D01*
X134215125Y-158701646D01*
X134175323Y-158706234D01*
X134080087Y-158711709D01*
X133949992Y-158716125D01*
X133801109Y-158718816D01*
X133548062Y-158711245D01*
X133252617Y-158667540D01*
X132991536Y-158582072D01*
X132754324Y-158451143D01*
X132530483Y-158271055D01*
X132394309Y-158128066D01*
X132260413Y-157937944D01*
X132151297Y-157714187D01*
X132058608Y-157442119D01*
X132054845Y-157428472D01*
X132033472Y-157339282D01*
X132003427Y-157201834D01*
X131966350Y-157024627D01*
X131923883Y-156816160D01*
X131877670Y-156584930D01*
X131829350Y-156339437D01*
X131780567Y-156088179D01*
X131732961Y-155839654D01*
X131688175Y-155602361D01*
X131647850Y-155384798D01*
X131613629Y-155195465D01*
X131607041Y-155157495D01*
X131916410Y-155157495D01*
X131920560Y-155213295D01*
X131935025Y-155319417D01*
X131958201Y-155467076D01*
X131988486Y-155647488D01*
X132024278Y-155851869D01*
X132063973Y-156071436D01*
X132105970Y-156297405D01*
X132148666Y-156520992D01*
X132190457Y-156733412D01*
X132229743Y-156925882D01*
X132264919Y-157089618D01*
X132294384Y-157215836D01*
X132333272Y-157362326D01*
X132407574Y-157588947D01*
X132491204Y-157772217D01*
X132590609Y-157925172D01*
X132712236Y-158060849D01*
X132714827Y-158063369D01*
X132796934Y-158139599D01*
X132862317Y-158193841D01*
X132897029Y-158214500D01*
X132898308Y-158213427D01*
X132913615Y-158172659D01*
X132942054Y-158077141D01*
X132982078Y-157932734D01*
X133032137Y-157745301D01*
X133090683Y-157520705D01*
X133156167Y-157264808D01*
X133227040Y-156983473D01*
X133301753Y-156682562D01*
X133679433Y-155150625D01*
X132807436Y-155142176D01*
X132789557Y-155142007D01*
X132561885Y-155140519D01*
X132356054Y-155140369D01*
X132180393Y-155141471D01*
X132043234Y-155143739D01*
X131952908Y-155147085D01*
X131917744Y-155151423D01*
X131916410Y-155157495D01*
X131607041Y-155157495D01*
X131587152Y-155042859D01*
X131570062Y-154935480D01*
X131564000Y-154881824D01*
X131564075Y-154881288D01*
X131597827Y-154871415D01*
X131693268Y-154863432D01*
X131850756Y-154857329D01*
X132070646Y-154853096D01*
X132353296Y-154850723D01*
X132699063Y-154850201D01*
X133834125Y-154851403D01*
X134053715Y-155150625D01*
X135347467Y-156913549D01*
G36*
X135347467Y-156913549D02*
G01*
X135370274Y-157152318D01*
X135372254Y-157173732D01*
X135380376Y-157286479D01*
X135382549Y-157369427D01*
X135378249Y-157405918D01*
X135375339Y-157407214D01*
X135327161Y-157412517D01*
X135230432Y-157416815D01*
X135097343Y-157419697D01*
X134940084Y-157420750D01*
X134900573Y-157420801D01*
X134750112Y-157422017D01*
X134628227Y-157424606D01*
X134546560Y-157428241D01*
X134516750Y-157432597D01*
X134519223Y-157448379D01*
X134531525Y-157517215D01*
X134552385Y-157630664D01*
X134579827Y-157778010D01*
X134611875Y-157948535D01*
X134632312Y-158058031D01*
X134661964Y-158221648D01*
X134685670Y-158358445D01*
X134701400Y-158456578D01*
X134707125Y-158504206D01*
X134684991Y-158533610D01*
X134612335Y-158575295D01*
X134501335Y-158620595D01*
X134364697Y-158664412D01*
X134215125Y-158701646D01*
X134175323Y-158706234D01*
X134080087Y-158711709D01*
X133949992Y-158716125D01*
X133801109Y-158718816D01*
X133548062Y-158711245D01*
X133252617Y-158667540D01*
X132991536Y-158582072D01*
X132754324Y-158451143D01*
X132530483Y-158271055D01*
X132394309Y-158128066D01*
X132260413Y-157937944D01*
X132151297Y-157714187D01*
X132058608Y-157442119D01*
X132054845Y-157428472D01*
X132033472Y-157339282D01*
X132003427Y-157201834D01*
X131966350Y-157024627D01*
X131923883Y-156816160D01*
X131877670Y-156584930D01*
X131829350Y-156339437D01*
X131780567Y-156088179D01*
X131732961Y-155839654D01*
X131688175Y-155602361D01*
X131647850Y-155384798D01*
X131613629Y-155195465D01*
X131607041Y-155157495D01*
X131916410Y-155157495D01*
X131920560Y-155213295D01*
X131935025Y-155319417D01*
X131958201Y-155467076D01*
X131988486Y-155647488D01*
X132024278Y-155851869D01*
X132063973Y-156071436D01*
X132105970Y-156297405D01*
X132148666Y-156520992D01*
X132190457Y-156733412D01*
X132229743Y-156925882D01*
X132264919Y-157089618D01*
X132294384Y-157215836D01*
X132333272Y-157362326D01*
X132407574Y-157588947D01*
X132491204Y-157772217D01*
X132590609Y-157925172D01*
X132712236Y-158060849D01*
X132714827Y-158063369D01*
X132796934Y-158139599D01*
X132862317Y-158193841D01*
X132897029Y-158214500D01*
X132898308Y-158213427D01*
X132913615Y-158172659D01*
X132942054Y-158077141D01*
X132982078Y-157932734D01*
X133032137Y-157745301D01*
X133090683Y-157520705D01*
X133156167Y-157264808D01*
X133227040Y-156983473D01*
X133301753Y-156682562D01*
X133679433Y-155150625D01*
X132807436Y-155142176D01*
X132789557Y-155142007D01*
X132561885Y-155140519D01*
X132356054Y-155140369D01*
X132180393Y-155141471D01*
X132043234Y-155143739D01*
X131952908Y-155147085D01*
X131917744Y-155151423D01*
X131916410Y-155157495D01*
X131607041Y-155157495D01*
X131587152Y-155042859D01*
X131570062Y-154935480D01*
X131564000Y-154881824D01*
X131564075Y-154881288D01*
X131597827Y-154871415D01*
X131693268Y-154863432D01*
X131850756Y-154857329D01*
X132070646Y-154853096D01*
X132353296Y-154850723D01*
X132699063Y-154850201D01*
X133834125Y-154851403D01*
X134053715Y-155150625D01*
X135347467Y-156913549D01*
G37*
X128664727Y-154690813D02*
X128645992Y-154849000D01*
X128771496Y-154849000D01*
X128798520Y-154849236D01*
X128868818Y-154852720D01*
X128897000Y-154859043D01*
X128900349Y-154881516D01*
X128912543Y-154951583D01*
X128930594Y-155050813D01*
X128933427Y-155066263D01*
X128947713Y-155163963D01*
X128944737Y-155238159D01*
X128920154Y-155315288D01*
X128869619Y-155421787D01*
X128830097Y-155510977D01*
X128763594Y-155760137D01*
X128748301Y-156022803D01*
X128781886Y-156286336D01*
X128862020Y-156538103D01*
X128986371Y-156765466D01*
X129152607Y-156955790D01*
X129311023Y-157098218D01*
X129384568Y-157489671D01*
X129458113Y-157881125D01*
X129380866Y-158087500D01*
X129341639Y-158192217D01*
X129287048Y-158337749D01*
X129240904Y-158460562D01*
X129178188Y-158627250D01*
X128735969Y-158627250D01*
X128730037Y-158627248D01*
X128549187Y-158624947D01*
X128411733Y-158618628D01*
X128324360Y-158608765D01*
X128293750Y-158595833D01*
X128293353Y-158591607D01*
X128284954Y-158539006D01*
X128266713Y-158434323D01*
X128240048Y-158285197D01*
X128206373Y-158099263D01*
X128167105Y-157884159D01*
X128123661Y-157647520D01*
X128077455Y-157396983D01*
X128029905Y-157140186D01*
X127982426Y-156884764D01*
X127936434Y-156638354D01*
X127893346Y-156408593D01*
X127854577Y-156203117D01*
X127821544Y-156029563D01*
X127795662Y-155895567D01*
X127778347Y-155808767D01*
X127771017Y-155776799D01*
X127770623Y-155776481D01*
X127736966Y-155782393D01*
X127671091Y-155806884D01*
X127632548Y-155817939D01*
X127523099Y-155832921D01*
X127366948Y-155842570D01*
X127174563Y-155846059D01*
X127150766Y-155846093D01*
X127001928Y-155847167D01*
X126880877Y-155849498D01*
X126799516Y-155852774D01*
X126769750Y-155856681D01*
X126775126Y-155866954D01*
X126808885Y-155919312D01*
X126866785Y-156005005D01*
X126940822Y-156112082D01*
X127113192Y-156367296D01*
X127330164Y-156716354D01*
X127515783Y-157049773D01*
X127665010Y-157358340D01*
X127772805Y-157632844D01*
X127836900Y-157891551D01*
X127848112Y-158152602D01*
X127798608Y-158396460D01*
X127687950Y-158625180D01*
X127515701Y-158840819D01*
X127507842Y-158848866D01*
X127421304Y-158929472D01*
X127346080Y-158986570D01*
X127297679Y-159008250D01*
X127277415Y-159007629D01*
X127191093Y-158981385D01*
X127136400Y-158910519D01*
X127106230Y-158786810D01*
X127073872Y-158610302D01*
X126975605Y-158288475D01*
X126824498Y-157941913D01*
X126622481Y-157573999D01*
X126371485Y-157188116D01*
X126073442Y-156787647D01*
X125730281Y-156375975D01*
X125607550Y-156236076D01*
X125609869Y-156478750D01*
X125612188Y-156721423D01*
X125984594Y-157227047D01*
X125998707Y-157246256D01*
X126112137Y-157404282D01*
X126210515Y-157547596D01*
X126288007Y-157667232D01*
X126338780Y-157754219D01*
X126357000Y-157799591D01*
X126356548Y-157807680D01*
X126352989Y-157819228D01*
X126333134Y-157883669D01*
X126283972Y-157980448D01*
X126222638Y-158074166D01*
X126162704Y-158140976D01*
X126110896Y-158170917D01*
X126029128Y-158200081D01*
X126017670Y-158202753D01*
X125968981Y-158205487D01*
X125920231Y-158185459D01*
X125857460Y-158134360D01*
X125766714Y-158043883D01*
X125746051Y-158022660D01*
X125665899Y-157942587D01*
X125606153Y-157886428D01*
X125578472Y-157865250D01*
X125567848Y-157889131D01*
X125562553Y-157952562D01*
X125559941Y-157992332D01*
X125511317Y-158146655D01*
X125402101Y-158313123D01*
X125233308Y-158490084D01*
X125126764Y-158583521D01*
X124959481Y-158705927D01*
X124811972Y-158773974D01*
X124676113Y-158787786D01*
X124543778Y-158747489D01*
X124406843Y-158653208D01*
X124257183Y-158505066D01*
X124086875Y-158317269D01*
X123896375Y-158488668D01*
X123849843Y-158529500D01*
X123661519Y-158671151D01*
X123493732Y-158757075D01*
X123348827Y-158786000D01*
X123305411Y-158781649D01*
X123245884Y-158755897D01*
X123176224Y-158698453D01*
X123082609Y-158599641D01*
X122915266Y-158413282D01*
X122730951Y-158566671D01*
X122605636Y-158663090D01*
X122456660Y-158746562D01*
X122322683Y-158774828D01*
X122193335Y-158747337D01*
X122058245Y-158663538D01*
X121907042Y-158522880D01*
X121727459Y-158336061D01*
X121502261Y-158525145D01*
X121318371Y-158663039D01*
X121158022Y-158746580D01*
X121018301Y-158776381D01*
X120895240Y-158753935D01*
X120880368Y-158746616D01*
X120805554Y-158693818D01*
X120711142Y-158610969D01*
X120613958Y-158512509D01*
X120429476Y-158311180D01*
X120353176Y-158394342D01*
X120260821Y-158482871D01*
X120138764Y-158580073D01*
X120010160Y-158667742D01*
X119892257Y-158734186D01*
X119802303Y-158767715D01*
X119732422Y-158773702D01*
X119599848Y-158743927D01*
X119464026Y-158657718D01*
X119319704Y-158512297D01*
X119174295Y-158342094D01*
X119018533Y-158482137D01*
X118879597Y-158593330D01*
X118670756Y-158711473D01*
X118464219Y-158772119D01*
X118264867Y-158774736D01*
X118077579Y-158718788D01*
X117907235Y-158603743D01*
X117843274Y-158540303D01*
X117773238Y-158451110D01*
X117709119Y-158341024D01*
X117645856Y-158199804D01*
X117578388Y-158017206D01*
X117501653Y-157782989D01*
X117396313Y-157474563D01*
X117265588Y-157159658D01*
X117122915Y-156887387D01*
X116962949Y-156646472D01*
X116944387Y-156621159D01*
X116848967Y-156470207D01*
X116803490Y-156347331D01*
X116806318Y-156245026D01*
X116846056Y-156173382D01*
X117141491Y-156173382D01*
X117161640Y-156240182D01*
X117220522Y-156327992D01*
X117317824Y-156451705D01*
X117426546Y-156608120D01*
X117563799Y-156862378D01*
X117695979Y-157171848D01*
X117820917Y-157531875D01*
X117842441Y-157599543D01*
X117928424Y-157849642D01*
X118009195Y-158045903D01*
X118089048Y-158195435D01*
X118172273Y-158305344D01*
X118263162Y-158382740D01*
X118366005Y-158434730D01*
X118431176Y-158453238D01*
X118596872Y-158458395D01*
X118770397Y-158414945D01*
X118936154Y-158327969D01*
X119078544Y-158202551D01*
X119082471Y-158198054D01*
X119152253Y-158105201D01*
X119180814Y-158038342D01*
X119167101Y-158003952D01*
X119110063Y-158008506D01*
X119090105Y-158014251D01*
X119000695Y-158032319D01*
X118895345Y-158046515D01*
X118880503Y-158047917D01*
X118810658Y-158050464D01*
X118749015Y-158041392D01*
X118691948Y-158015479D01*
X118635834Y-157967501D01*
X118577049Y-157892237D01*
X118511969Y-157784466D01*
X118436968Y-157638964D01*
X118348424Y-157450511D01*
X118242712Y-157213883D01*
X118116208Y-156923859D01*
X118086242Y-156854464D01*
X118010682Y-156676617D01*
X117946855Y-156522228D01*
X117898233Y-156399958D01*
X117868291Y-156318466D01*
X117860504Y-156286413D01*
X117870646Y-156291576D01*
X117919652Y-156332667D01*
X118003144Y-156409191D01*
X118114686Y-156515090D01*
X118247847Y-156644308D01*
X118396193Y-156790786D01*
X118417783Y-156812315D01*
X118671866Y-157072910D01*
X118891514Y-157314086D01*
X119091928Y-157553166D01*
X119288307Y-157807473D01*
X119306151Y-157831393D01*
X119467673Y-158044098D01*
X119598829Y-158208424D01*
X119703625Y-158328699D01*
X119786064Y-158409251D01*
X119850150Y-158454409D01*
X119899888Y-158468500D01*
X119904438Y-158468415D01*
X120000328Y-158441832D01*
X120115193Y-158376381D01*
X120232756Y-158284666D01*
X120336740Y-158179289D01*
X120410870Y-158072852D01*
X120423840Y-158044352D01*
X120457072Y-157940063D01*
X120479598Y-157825717D01*
X120499125Y-157672604D01*
X120667473Y-157924885D01*
X120747962Y-158037654D01*
X120850099Y-158165279D01*
X120954255Y-158282481D01*
X121050687Y-158378955D01*
X121129653Y-158444396D01*
X121181410Y-158468500D01*
X121229311Y-158460516D01*
X121331946Y-158418115D01*
X121447935Y-158348710D01*
X121557473Y-158263115D01*
X121669614Y-158134867D01*
X121736436Y-157982661D01*
X121759159Y-157795305D01*
X121761129Y-157658875D01*
X121812752Y-157737766D01*
X121828962Y-157761627D01*
X121885052Y-157840417D01*
X121962119Y-157945937D01*
X122048487Y-158062118D01*
X122171620Y-158219062D01*
X122287502Y-158345056D01*
X122387169Y-158422514D01*
X122477776Y-158455427D01*
X122566473Y-158447787D01*
X122660415Y-158403584D01*
X122677681Y-158392272D01*
X122767953Y-158316008D01*
X122835903Y-158233701D01*
X122865880Y-158165688D01*
X122892524Y-158025097D01*
X122892686Y-157864731D01*
X122865043Y-157708393D01*
X122860987Y-157693824D01*
X122845262Y-157623243D01*
X122844451Y-157588966D01*
X122845741Y-157589055D01*
X122871552Y-157618381D01*
X122923938Y-157689712D01*
X122996085Y-157793510D01*
X123081177Y-157920238D01*
X123125335Y-157986564D01*
X123253861Y-158172650D01*
X123357251Y-158309166D01*
X123439606Y-158400832D01*
X123505029Y-158452369D01*
X123557623Y-158468500D01*
X123626857Y-158449125D01*
X123724539Y-158395854D01*
X123830481Y-158321383D01*
X123926644Y-158238447D01*
X123994987Y-158159778D01*
X124042719Y-158062949D01*
X124079774Y-157933852D01*
X124096269Y-157805896D01*
X124086744Y-157706084D01*
X124081151Y-157667696D01*
X124100611Y-157643000D01*
X124109937Y-157644046D01*
X124134500Y-157670015D01*
X124145523Y-157697621D01*
X124190084Y-157767987D01*
X124260551Y-157865996D01*
X124347949Y-157980015D01*
X124443303Y-158098411D01*
X124537637Y-158209554D01*
X124621978Y-158301812D01*
X124652115Y-158332474D01*
X124742401Y-158414193D01*
X124813448Y-158456416D01*
X124879541Y-158468381D01*
X124944830Y-158459374D01*
X125070432Y-158405508D01*
X125194695Y-158314825D01*
X125300501Y-158200946D01*
X125370731Y-158077495D01*
X125392552Y-158005726D01*
X125405202Y-157826379D01*
X125362499Y-157631531D01*
X125263569Y-157419090D01*
X125107542Y-157186964D01*
X124893545Y-156933060D01*
X124849895Y-156885125D01*
X124775391Y-156801612D01*
X124726148Y-156743989D01*
X124711125Y-156722593D01*
X124725933Y-156726017D01*
X124787304Y-156743305D01*
X124877734Y-156770218D01*
X124926012Y-156783482D01*
X125046902Y-156807941D01*
X125147609Y-156817759D01*
X125163243Y-156817997D01*
X125222226Y-156826541D01*
X125274741Y-156855120D01*
X125335273Y-156914260D01*
X125418307Y-157014489D01*
X125528259Y-157151145D01*
X125702511Y-157362092D01*
X125852332Y-157536406D01*
X125975992Y-157672966D01*
X126071758Y-157770649D01*
X126137899Y-157828334D01*
X126172682Y-157844901D01*
X126174375Y-157819228D01*
X126141247Y-157750194D01*
X126071566Y-157636678D01*
X125963600Y-157477557D01*
X125815616Y-157271712D01*
X125715249Y-157133312D01*
X125592357Y-156957325D01*
X125502781Y-156819841D01*
X125448803Y-156724421D01*
X125432706Y-156674625D01*
X125444980Y-156473939D01*
X125411258Y-156257680D01*
X125321095Y-156060080D01*
X125170993Y-155870390D01*
X125041347Y-155750221D01*
X124911211Y-155669152D01*
X124793302Y-155642749D01*
X124774124Y-155643494D01*
X124690515Y-155674250D01*
X124648075Y-155746043D01*
X124646123Y-155853254D01*
X124683983Y-155990260D01*
X124760974Y-156151440D01*
X124876419Y-156331175D01*
X124929982Y-156407851D01*
X124974609Y-156476632D01*
X124991750Y-156510118D01*
X124989316Y-156511463D01*
X124950066Y-156497219D01*
X124872815Y-156459031D01*
X124770474Y-156403139D01*
X124743245Y-156387862D01*
X124638167Y-156331835D01*
X124556115Y-156292557D01*
X124512943Y-156277750D01*
X124487645Y-156287800D01*
X124422438Y-156329724D01*
X124336569Y-156393165D01*
X124245609Y-156465990D01*
X124165125Y-156536065D01*
X124110688Y-156591255D01*
X124100073Y-156604784D01*
X124078698Y-156647924D01*
X124082724Y-156695660D01*
X124117107Y-156757985D01*
X124186806Y-156844894D01*
X124296778Y-156966378D01*
X124452614Y-157140440D01*
X124666055Y-157403640D01*
X124836177Y-157647640D01*
X124957692Y-157865250D01*
X124958444Y-157866843D01*
X125024173Y-158020132D01*
X125052220Y-158122389D01*
X125042160Y-158174004D01*
X124993568Y-158175367D01*
X124906018Y-158126868D01*
X124779086Y-158028895D01*
X124619989Y-157888778D01*
X124429517Y-157704065D01*
X124247082Y-157510414D01*
X124083294Y-157319692D01*
X123948764Y-157143763D01*
X123854101Y-156994494D01*
X123773009Y-156853917D01*
X123576544Y-156570551D01*
X123352548Y-156310899D01*
X123110828Y-156084636D01*
X122861196Y-155901437D01*
X122613460Y-155770975D01*
X122593172Y-155762836D01*
X122532559Y-155748119D01*
X122478438Y-155763770D01*
X122403699Y-155815547D01*
X122336297Y-155878934D01*
X122252237Y-155984473D01*
X122177352Y-156102930D01*
X122123564Y-156215045D01*
X122102798Y-156301562D01*
X122103640Y-156331568D01*
X122116030Y-156367218D01*
X122149263Y-156352785D01*
X122211055Y-156287251D01*
X122284813Y-156201502D01*
X122487344Y-156301290D01*
X122497204Y-156306194D01*
X122747611Y-156460166D01*
X122994240Y-156663919D01*
X123226022Y-156904714D01*
X123431889Y-157169810D01*
X123600772Y-157446467D01*
X123721603Y-157721945D01*
X123734725Y-157761775D01*
X123770928Y-157902457D01*
X123784288Y-158015914D01*
X123774308Y-158091670D01*
X123740489Y-158119250D01*
X123718460Y-158110663D01*
X123652758Y-158059097D01*
X123555181Y-157965194D01*
X123430203Y-157833846D01*
X123282296Y-157669943D01*
X123115936Y-157478376D01*
X122935596Y-157264035D01*
X122745749Y-157031812D01*
X122703183Y-156979315D01*
X122575424Y-156825475D01*
X122461423Y-156693633D01*
X122367515Y-156590800D01*
X122300035Y-156523984D01*
X122265318Y-156500195D01*
X122259111Y-156501079D01*
X122206484Y-156528794D01*
X122129447Y-156585587D01*
X122043153Y-156658171D01*
X121962753Y-156733261D01*
X121903402Y-156797572D01*
X121880250Y-156837817D01*
X121881661Y-156843192D01*
X121907368Y-156892321D01*
X121960445Y-156980466D01*
X122034412Y-157097102D01*
X122122789Y-157231705D01*
X122226282Y-157392256D01*
X122329870Y-157562292D01*
X122421088Y-157720865D01*
X122487914Y-157847695D01*
X122508510Y-157890476D01*
X122571499Y-158029931D01*
X122605373Y-158125032D01*
X122608345Y-158175267D01*
X122578626Y-158180122D01*
X122514427Y-158139083D01*
X122413961Y-158051637D01*
X122275438Y-157917270D01*
X122097072Y-157735468D01*
X122083625Y-157721543D01*
X121888778Y-157514265D01*
X121739104Y-157343016D01*
X121631089Y-157203574D01*
X121561219Y-157091719D01*
X121528073Y-157029862D01*
X121434716Y-156867152D01*
X121327376Y-156692536D01*
X121211890Y-156514305D01*
X121094097Y-156340748D01*
X120979838Y-156180156D01*
X120874949Y-156040820D01*
X120785270Y-155931030D01*
X120716640Y-155859076D01*
X120674898Y-155833250D01*
X120634230Y-155849325D01*
X120562803Y-155902922D01*
X120481088Y-155979404D01*
X120420702Y-156045279D01*
X120404114Y-156063376D01*
X120346909Y-156139443D01*
X120324500Y-156192209D01*
X120325344Y-156199043D01*
X120351177Y-156257134D01*
X120405801Y-156344535D01*
X120479342Y-156445119D01*
X120584226Y-156584432D01*
X120723887Y-156785019D01*
X120860952Y-156997229D01*
X120991161Y-157213129D01*
X121110257Y-157424783D01*
X121213981Y-157624260D01*
X121298075Y-157803624D01*
X121358280Y-157954943D01*
X121390338Y-158070284D01*
X121389991Y-158141711D01*
X121362902Y-158164872D01*
X121305474Y-158149564D01*
X121214712Y-158090486D01*
X121086500Y-157985521D01*
X121078633Y-157978616D01*
X121002600Y-157907036D01*
X120904297Y-157808553D01*
X120792059Y-157692205D01*
X120674221Y-157567028D01*
X120559118Y-157442058D01*
X120455084Y-157326331D01*
X120370455Y-157228883D01*
X120313566Y-157158751D01*
X120292750Y-157124971D01*
X120286601Y-157103778D01*
X120250446Y-157030285D01*
X120185630Y-156915336D01*
X120096445Y-156765942D01*
X119987183Y-156589111D01*
X119862138Y-156391854D01*
X119725602Y-156181180D01*
X119581868Y-155964101D01*
X119487844Y-155822646D01*
X119298288Y-155529042D01*
X119243449Y-155438942D01*
X119426396Y-155438942D01*
X119692886Y-155841674D01*
X119742806Y-155916677D01*
X119830545Y-156046225D01*
X119902804Y-156149947D01*
X119953175Y-156218726D01*
X119975250Y-156243446D01*
X119979474Y-156241627D01*
X120014598Y-156208328D01*
X120066966Y-156146592D01*
X120108159Y-156089512D01*
X120121640Y-156045279D01*
X120098716Y-156011117D01*
X120096318Y-156008982D01*
X120051238Y-155969944D01*
X119969724Y-155900172D01*
X119862555Y-155808868D01*
X119740511Y-155705239D01*
X119426396Y-155438942D01*
X119243449Y-155438942D01*
X119145038Y-155277253D01*
X119025491Y-155062064D01*
X118937042Y-154878261D01*
X118877089Y-154720630D01*
X118843026Y-154583958D01*
X118832250Y-154463029D01*
X118831721Y-154438989D01*
X118822444Y-154369104D01*
X118805264Y-154340999D01*
X118751475Y-154362184D01*
X118671273Y-154417602D01*
X118581048Y-154493709D01*
X118496845Y-154576959D01*
X118434714Y-154653805D01*
X118363932Y-154789859D01*
X118332993Y-154951416D01*
X118364342Y-155104510D01*
X118381338Y-155136758D01*
X118434222Y-155222366D01*
X118514829Y-155345001D01*
X118617378Y-155496069D01*
X118736088Y-155666975D01*
X118865177Y-155849125D01*
X118948868Y-155966199D01*
X119123448Y-156211926D01*
X119267617Y-156417820D01*
X119386523Y-156591799D01*
X119485313Y-156741783D01*
X119569134Y-156875691D01*
X119643133Y-157001444D01*
X119712458Y-157126960D01*
X119782255Y-157260159D01*
X119811296Y-157317216D01*
X119926540Y-157556667D01*
X120013495Y-157760825D01*
X120071032Y-157926013D01*
X120098023Y-158048555D01*
X120093337Y-158124776D01*
X120055847Y-158151000D01*
X120011616Y-158132296D01*
X119926170Y-158069245D01*
X119806555Y-157965301D01*
X119656711Y-157824187D01*
X119480581Y-157649628D01*
X119282107Y-157445347D01*
X119065231Y-157215069D01*
X118810030Y-156940457D01*
X118567092Y-156679642D01*
X118360935Y-156459216D01*
X118188301Y-156275856D01*
X118045929Y-156126239D01*
X117930563Y-156007043D01*
X117838943Y-155914947D01*
X117767810Y-155846627D01*
X117713907Y-155798763D01*
X117673974Y-155768031D01*
X117644753Y-155751109D01*
X117622985Y-155744675D01*
X117594321Y-155745822D01*
X117531680Y-155772023D01*
X117446198Y-155834340D01*
X117328664Y-155938850D01*
X117316597Y-155950112D01*
X117218655Y-156043240D01*
X117160391Y-156112699D01*
X117141491Y-156173382D01*
X116846056Y-156173382D01*
X116855813Y-156155792D01*
X116896840Y-156113232D01*
X116975896Y-156037327D01*
X117079828Y-155940822D01*
X117196885Y-155834774D01*
X117221585Y-155812714D01*
X117340008Y-155709479D01*
X117426029Y-155641711D01*
X117491124Y-155602213D01*
X117546771Y-155583791D01*
X117604446Y-155579249D01*
X117608878Y-155579281D01*
X117653395Y-155583959D01*
X117700752Y-155599398D01*
X117755352Y-155629649D01*
X117821597Y-155678761D01*
X117903892Y-155750785D01*
X118006638Y-155849770D01*
X118134239Y-155979767D01*
X118291097Y-156144824D01*
X118481617Y-156348992D01*
X118710200Y-156596321D01*
X118716108Y-156602730D01*
X118869114Y-156767851D01*
X119007533Y-156915634D01*
X119125714Y-157040174D01*
X119218006Y-157135563D01*
X119278758Y-157195895D01*
X119302320Y-157215263D01*
X119302684Y-157214609D01*
X119287772Y-157179875D01*
X119239470Y-157099533D01*
X119161400Y-156978930D01*
X119057184Y-156823412D01*
X118930443Y-156638324D01*
X118784799Y-156429012D01*
X118623875Y-156200822D01*
X118451291Y-155959100D01*
X118324430Y-155779445D01*
X118201090Y-155597351D01*
X118103990Y-155445171D01*
X118037399Y-155329624D01*
X118005588Y-155257432D01*
X117990677Y-155184784D01*
X117995495Y-154998353D01*
X118062860Y-154812498D01*
X118193085Y-154626549D01*
X118386481Y-154439835D01*
X118408850Y-154421373D01*
X118589056Y-154286439D01*
X118735246Y-154204693D01*
X118847976Y-154176108D01*
X118927806Y-154200656D01*
X118975295Y-154278307D01*
X118991000Y-154409033D01*
X119000806Y-154507260D01*
X119031302Y-154646743D01*
X119076203Y-154789480D01*
X119085727Y-154815044D01*
X119126611Y-154918450D01*
X119154624Y-154971263D01*
X119175573Y-154981701D01*
X119195265Y-154957984D01*
X119246964Y-154885397D01*
X119530750Y-154885397D01*
X119535857Y-154909413D01*
X119582161Y-154987403D01*
X119672482Y-155094793D01*
X119801680Y-155226207D01*
X119964611Y-155376264D01*
X120156135Y-155539587D01*
X120158716Y-155541713D01*
X120276216Y-155637365D01*
X120376822Y-155717190D01*
X120449917Y-155772901D01*
X120484880Y-155796208D01*
X120496319Y-155798769D01*
X120513305Y-155782417D01*
X120504185Y-155727220D01*
X120467540Y-155629146D01*
X120401948Y-155484164D01*
X120305991Y-155288241D01*
X120199148Y-155077162D01*
X120112590Y-154912356D01*
X120044444Y-154792143D01*
X119990410Y-154709998D01*
X119946188Y-154659400D01*
X119907478Y-154633825D01*
X119869982Y-154626750D01*
X119798983Y-154644853D01*
X119709360Y-154693835D01*
X119622456Y-154759649D01*
X119556758Y-154828201D01*
X119530750Y-154885397D01*
X119246964Y-154885397D01*
X119264315Y-154861035D01*
X119374922Y-154748619D01*
X119506363Y-154642204D01*
X119643522Y-154552693D01*
X119771283Y-154490990D01*
X119874530Y-154468000D01*
X119915359Y-154471309D01*
X119985499Y-154496101D01*
X120056025Y-154550156D01*
X120131623Y-154639394D01*
X120216974Y-154769737D01*
X120316764Y-154947107D01*
X120435675Y-155177424D01*
X120462433Y-155230469D01*
X120553817Y-155407076D01*
X120624603Y-155534317D01*
X120679093Y-155619043D01*
X120721587Y-155668105D01*
X120756386Y-155688356D01*
X120761892Y-155690272D01*
X120815522Y-155731303D01*
X120864018Y-155782417D01*
X120895632Y-155815739D01*
X120995447Y-155934897D01*
X121108188Y-156080093D01*
X121227081Y-156242644D01*
X121345348Y-156413868D01*
X121456212Y-156585079D01*
X121600821Y-156817095D01*
X121689932Y-156745860D01*
X121695486Y-156741390D01*
X121748920Y-156688444D01*
X121767725Y-156630676D01*
X121761822Y-156539619D01*
X121759363Y-156484643D01*
X121788710Y-156329284D01*
X121863580Y-156160395D01*
X121977246Y-155991111D01*
X122122979Y-155834566D01*
X122201799Y-155764275D01*
X122331212Y-155663463D01*
X122443840Y-155606154D01*
X122552729Y-155591860D01*
X122670923Y-155620092D01*
X122811468Y-155690361D01*
X122987406Y-155802179D01*
X122999351Y-155810276D01*
X123108347Y-155891375D01*
X123232685Y-155993901D01*
X123363157Y-156109042D01*
X123490556Y-156227989D01*
X123605672Y-156341930D01*
X123699299Y-156442055D01*
X123762228Y-156519551D01*
X123785250Y-156565609D01*
X123790531Y-156587033D01*
X123814257Y-156588905D01*
X123863964Y-156561984D01*
X123947072Y-156502103D01*
X124071000Y-156405095D01*
X124309125Y-156215386D01*
X124309125Y-156010258D01*
X124309126Y-156009669D01*
X124311942Y-155894337D01*
X124325884Y-155818455D01*
X124359228Y-155758133D01*
X124420250Y-155689481D01*
X124532768Y-155586776D01*
X124666560Y-155508910D01*
X124799674Y-155484000D01*
X124799873Y-155483999D01*
X124870904Y-155472310D01*
X124898501Y-155444133D01*
X124872688Y-155409629D01*
X124869764Y-155408439D01*
X124820201Y-155399507D01*
X124722325Y-155387136D01*
X124588712Y-155372798D01*
X124431940Y-155357968D01*
X124088285Y-155340407D01*
X123624337Y-155362551D01*
X123188360Y-155440193D01*
X123088758Y-155460770D01*
X122982065Y-155473367D01*
X122911031Y-155470687D01*
X122861451Y-155448346D01*
X122820037Y-155385077D01*
X122820795Y-155294327D01*
X122859135Y-155183544D01*
X122879607Y-155148138D01*
X123153542Y-155148138D01*
X123161335Y-155149287D01*
X123217225Y-155142436D01*
X123313725Y-155124227D01*
X123436000Y-155097329D01*
X123562707Y-155073422D01*
X123787407Y-155047887D01*
X124043921Y-155033564D01*
X124316494Y-155030235D01*
X124589369Y-155037681D01*
X124846789Y-155055684D01*
X125072999Y-155084025D01*
X125252242Y-155122488D01*
X125270009Y-155128791D01*
X125290223Y-155156378D01*
X125271060Y-155215581D01*
X125269718Y-155218577D01*
X125260997Y-155247933D01*
X125264989Y-155280147D01*
X125287045Y-155322240D01*
X125332515Y-155381235D01*
X125406749Y-155464151D01*
X125515098Y-155578012D01*
X125662912Y-155729838D01*
X125681857Y-155749255D01*
X126035962Y-156129880D01*
X126356988Y-156509169D01*
X126641985Y-156882482D01*
X126887999Y-157245179D01*
X127092079Y-157592617D01*
X127251272Y-157920157D01*
X127362626Y-158223158D01*
X127423188Y-158496978D01*
X127433053Y-158557516D01*
X127451867Y-158630515D01*
X127469863Y-158659000D01*
X127470313Y-158658970D01*
X127496715Y-158631116D01*
X127540622Y-158561023D01*
X127592772Y-158463428D01*
X127659038Y-158294518D01*
X127688784Y-158117165D01*
X127679620Y-157925771D01*
X127630378Y-157712302D01*
X127539887Y-157468722D01*
X127406978Y-157186999D01*
X127321239Y-157027813D01*
X127181635Y-156790360D01*
X127015101Y-156525051D01*
X126829267Y-156243658D01*
X126631762Y-155957955D01*
X126430216Y-155679715D01*
X126405104Y-155645711D01*
X126310854Y-155513321D01*
X126246412Y-155414201D01*
X126215096Y-155353762D01*
X126220227Y-155337418D01*
X126271247Y-155351904D01*
X126407623Y-155385554D01*
X126576734Y-155423052D01*
X126758811Y-155460273D01*
X126934085Y-155493093D01*
X127082784Y-155517386D01*
X127332500Y-155539478D01*
X127623064Y-155521977D01*
X127877500Y-155452845D01*
X128095296Y-155332304D01*
X128275940Y-155160575D01*
X128418921Y-154937881D01*
X128448143Y-154876666D01*
X128497182Y-154751392D01*
X128516128Y-154661192D01*
X128504155Y-154612545D01*
X128460438Y-154611929D01*
X128393706Y-154639743D01*
X128206874Y-154709217D01*
X128020824Y-154763783D01*
X127828570Y-154803631D01*
X127623121Y-154828952D01*
X127397491Y-154839937D01*
X127144689Y-154836775D01*
X126857727Y-154819656D01*
X126529618Y-154788771D01*
X126153372Y-154744309D01*
X125722000Y-154686462D01*
X125366180Y-154641400D01*
X124991314Y-154604944D01*
X124648017Y-154583508D01*
X124342287Y-154577203D01*
X124080124Y-154586135D01*
X123867526Y-154610414D01*
X123710493Y-154650147D01*
X123628065Y-154684394D01*
X123507536Y-154744804D01*
X123415556Y-154802707D01*
X123395708Y-154818917D01*
X123327210Y-154886401D01*
X123257395Y-154968028D01*
X123197612Y-155048834D01*
X123159212Y-155113859D01*
X123153542Y-155148138D01*
X122879607Y-155148138D01*
X122930468Y-155060172D01*
X123030206Y-154931658D01*
X123153760Y-154805448D01*
X123296540Y-154688989D01*
X123453959Y-154589725D01*
X123454318Y-154589531D01*
X123566780Y-154540054D01*
X123710820Y-154491656D01*
X123855349Y-154454788D01*
X123941936Y-154438621D01*
X124079207Y-154419988D01*
X124227621Y-154409121D01*
X124393611Y-154406377D01*
X124583609Y-154412115D01*
X124804049Y-154426690D01*
X125061363Y-154450461D01*
X125361984Y-154483785D01*
X125712343Y-154527019D01*
X126118875Y-154580520D01*
X126509869Y-154627117D01*
X126891195Y-154657814D01*
X127246000Y-154669347D01*
X127354225Y-154669538D01*
X127600315Y-154663767D01*
X127802833Y-154647227D01*
X127975854Y-154617792D01*
X128133456Y-154573337D01*
X128289713Y-154511736D01*
X128308064Y-154503735D01*
X128460199Y-154449974D01*
X128568599Y-154440209D01*
X128636598Y-154476033D01*
X128667529Y-154559037D01*
X128665356Y-154661192D01*
X128664727Y-154690813D01*
G36*
X128664727Y-154690813D02*
G01*
X128645992Y-154849000D01*
X128771496Y-154849000D01*
X128798520Y-154849236D01*
X128868818Y-154852720D01*
X128897000Y-154859043D01*
X128900349Y-154881516D01*
X128912543Y-154951583D01*
X128930594Y-155050813D01*
X128933427Y-155066263D01*
X128947713Y-155163963D01*
X128944737Y-155238159D01*
X128920154Y-155315288D01*
X128869619Y-155421787D01*
X128830097Y-155510977D01*
X128763594Y-155760137D01*
X128748301Y-156022803D01*
X128781886Y-156286336D01*
X128862020Y-156538103D01*
X128986371Y-156765466D01*
X129152607Y-156955790D01*
X129311023Y-157098218D01*
X129384568Y-157489671D01*
X129458113Y-157881125D01*
X129380866Y-158087500D01*
X129341639Y-158192217D01*
X129287048Y-158337749D01*
X129240904Y-158460562D01*
X129178188Y-158627250D01*
X128735969Y-158627250D01*
X128730037Y-158627248D01*
X128549187Y-158624947D01*
X128411733Y-158618628D01*
X128324360Y-158608765D01*
X128293750Y-158595833D01*
X128293353Y-158591607D01*
X128284954Y-158539006D01*
X128266713Y-158434323D01*
X128240048Y-158285197D01*
X128206373Y-158099263D01*
X128167105Y-157884159D01*
X128123661Y-157647520D01*
X128077455Y-157396983D01*
X128029905Y-157140186D01*
X127982426Y-156884764D01*
X127936434Y-156638354D01*
X127893346Y-156408593D01*
X127854577Y-156203117D01*
X127821544Y-156029563D01*
X127795662Y-155895567D01*
X127778347Y-155808767D01*
X127771017Y-155776799D01*
X127770623Y-155776481D01*
X127736966Y-155782393D01*
X127671091Y-155806884D01*
X127632548Y-155817939D01*
X127523099Y-155832921D01*
X127366948Y-155842570D01*
X127174563Y-155846059D01*
X127150766Y-155846093D01*
X127001928Y-155847167D01*
X126880877Y-155849498D01*
X126799516Y-155852774D01*
X126769750Y-155856681D01*
X126775126Y-155866954D01*
X126808885Y-155919312D01*
X126866785Y-156005005D01*
X126940822Y-156112082D01*
X127113192Y-156367296D01*
X127330164Y-156716354D01*
X127515783Y-157049773D01*
X127665010Y-157358340D01*
X127772805Y-157632844D01*
X127836900Y-157891551D01*
X127848112Y-158152602D01*
X127798608Y-158396460D01*
X127687950Y-158625180D01*
X127515701Y-158840819D01*
X127507842Y-158848866D01*
X127421304Y-158929472D01*
X127346080Y-158986570D01*
X127297679Y-159008250D01*
X127277415Y-159007629D01*
X127191093Y-158981385D01*
X127136400Y-158910519D01*
X127106230Y-158786810D01*
X127073872Y-158610302D01*
X126975605Y-158288475D01*
X126824498Y-157941913D01*
X126622481Y-157573999D01*
X126371485Y-157188116D01*
X126073442Y-156787647D01*
X125730281Y-156375975D01*
X125607550Y-156236076D01*
X125609869Y-156478750D01*
X125612188Y-156721423D01*
X125984594Y-157227047D01*
X125998707Y-157246256D01*
X126112137Y-157404282D01*
X126210515Y-157547596D01*
X126288007Y-157667232D01*
X126338780Y-157754219D01*
X126357000Y-157799591D01*
X126356548Y-157807680D01*
X126352989Y-157819228D01*
X126333134Y-157883669D01*
X126283972Y-157980448D01*
X126222638Y-158074166D01*
X126162704Y-158140976D01*
X126110896Y-158170917D01*
X126029128Y-158200081D01*
X126017670Y-158202753D01*
X125968981Y-158205487D01*
X125920231Y-158185459D01*
X125857460Y-158134360D01*
X125766714Y-158043883D01*
X125746051Y-158022660D01*
X125665899Y-157942587D01*
X125606153Y-157886428D01*
X125578472Y-157865250D01*
X125567848Y-157889131D01*
X125562553Y-157952562D01*
X125559941Y-157992332D01*
X125511317Y-158146655D01*
X125402101Y-158313123D01*
X125233308Y-158490084D01*
X125126764Y-158583521D01*
X124959481Y-158705927D01*
X124811972Y-158773974D01*
X124676113Y-158787786D01*
X124543778Y-158747489D01*
X124406843Y-158653208D01*
X124257183Y-158505066D01*
X124086875Y-158317269D01*
X123896375Y-158488668D01*
X123849843Y-158529500D01*
X123661519Y-158671151D01*
X123493732Y-158757075D01*
X123348827Y-158786000D01*
X123305411Y-158781649D01*
X123245884Y-158755897D01*
X123176224Y-158698453D01*
X123082609Y-158599641D01*
X122915266Y-158413282D01*
X122730951Y-158566671D01*
X122605636Y-158663090D01*
X122456660Y-158746562D01*
X122322683Y-158774828D01*
X122193335Y-158747337D01*
X122058245Y-158663538D01*
X121907042Y-158522880D01*
X121727459Y-158336061D01*
X121502261Y-158525145D01*
X121318371Y-158663039D01*
X121158022Y-158746580D01*
X121018301Y-158776381D01*
X120895240Y-158753935D01*
X120880368Y-158746616D01*
X120805554Y-158693818D01*
X120711142Y-158610969D01*
X120613958Y-158512509D01*
X120429476Y-158311180D01*
X120353176Y-158394342D01*
X120260821Y-158482871D01*
X120138764Y-158580073D01*
X120010160Y-158667742D01*
X119892257Y-158734186D01*
X119802303Y-158767715D01*
X119732422Y-158773702D01*
X119599848Y-158743927D01*
X119464026Y-158657718D01*
X119319704Y-158512297D01*
X119174295Y-158342094D01*
X119018533Y-158482137D01*
X118879597Y-158593330D01*
X118670756Y-158711473D01*
X118464219Y-158772119D01*
X118264867Y-158774736D01*
X118077579Y-158718788D01*
X117907235Y-158603743D01*
X117843274Y-158540303D01*
X117773238Y-158451110D01*
X117709119Y-158341024D01*
X117645856Y-158199804D01*
X117578388Y-158017206D01*
X117501653Y-157782989D01*
X117396313Y-157474563D01*
X117265588Y-157159658D01*
X117122915Y-156887387D01*
X116962949Y-156646472D01*
X116944387Y-156621159D01*
X116848967Y-156470207D01*
X116803490Y-156347331D01*
X116806318Y-156245026D01*
X116846056Y-156173382D01*
X117141491Y-156173382D01*
X117161640Y-156240182D01*
X117220522Y-156327992D01*
X117317824Y-156451705D01*
X117426546Y-156608120D01*
X117563799Y-156862378D01*
X117695979Y-157171848D01*
X117820917Y-157531875D01*
X117842441Y-157599543D01*
X117928424Y-157849642D01*
X118009195Y-158045903D01*
X118089048Y-158195435D01*
X118172273Y-158305344D01*
X118263162Y-158382740D01*
X118366005Y-158434730D01*
X118431176Y-158453238D01*
X118596872Y-158458395D01*
X118770397Y-158414945D01*
X118936154Y-158327969D01*
X119078544Y-158202551D01*
X119082471Y-158198054D01*
X119152253Y-158105201D01*
X119180814Y-158038342D01*
X119167101Y-158003952D01*
X119110063Y-158008506D01*
X119090105Y-158014251D01*
X119000695Y-158032319D01*
X118895345Y-158046515D01*
X118880503Y-158047917D01*
X118810658Y-158050464D01*
X118749015Y-158041392D01*
X118691948Y-158015479D01*
X118635834Y-157967501D01*
X118577049Y-157892237D01*
X118511969Y-157784466D01*
X118436968Y-157638964D01*
X118348424Y-157450511D01*
X118242712Y-157213883D01*
X118116208Y-156923859D01*
X118086242Y-156854464D01*
X118010682Y-156676617D01*
X117946855Y-156522228D01*
X117898233Y-156399958D01*
X117868291Y-156318466D01*
X117860504Y-156286413D01*
X117870646Y-156291576D01*
X117919652Y-156332667D01*
X118003144Y-156409191D01*
X118114686Y-156515090D01*
X118247847Y-156644308D01*
X118396193Y-156790786D01*
X118417783Y-156812315D01*
X118671866Y-157072910D01*
X118891514Y-157314086D01*
X119091928Y-157553166D01*
X119288307Y-157807473D01*
X119306151Y-157831393D01*
X119467673Y-158044098D01*
X119598829Y-158208424D01*
X119703625Y-158328699D01*
X119786064Y-158409251D01*
X119850150Y-158454409D01*
X119899888Y-158468500D01*
X119904438Y-158468415D01*
X120000328Y-158441832D01*
X120115193Y-158376381D01*
X120232756Y-158284666D01*
X120336740Y-158179289D01*
X120410870Y-158072852D01*
X120423840Y-158044352D01*
X120457072Y-157940063D01*
X120479598Y-157825717D01*
X120499125Y-157672604D01*
X120667473Y-157924885D01*
X120747962Y-158037654D01*
X120850099Y-158165279D01*
X120954255Y-158282481D01*
X121050687Y-158378955D01*
X121129653Y-158444396D01*
X121181410Y-158468500D01*
X121229311Y-158460516D01*
X121331946Y-158418115D01*
X121447935Y-158348710D01*
X121557473Y-158263115D01*
X121669614Y-158134867D01*
X121736436Y-157982661D01*
X121759159Y-157795305D01*
X121761129Y-157658875D01*
X121812752Y-157737766D01*
X121828962Y-157761627D01*
X121885052Y-157840417D01*
X121962119Y-157945937D01*
X122048487Y-158062118D01*
X122171620Y-158219062D01*
X122287502Y-158345056D01*
X122387169Y-158422514D01*
X122477776Y-158455427D01*
X122566473Y-158447787D01*
X122660415Y-158403584D01*
X122677681Y-158392272D01*
X122767953Y-158316008D01*
X122835903Y-158233701D01*
X122865880Y-158165688D01*
X122892524Y-158025097D01*
X122892686Y-157864731D01*
X122865043Y-157708393D01*
X122860987Y-157693824D01*
X122845262Y-157623243D01*
X122844451Y-157588966D01*
X122845741Y-157589055D01*
X122871552Y-157618381D01*
X122923938Y-157689712D01*
X122996085Y-157793510D01*
X123081177Y-157920238D01*
X123125335Y-157986564D01*
X123253861Y-158172650D01*
X123357251Y-158309166D01*
X123439606Y-158400832D01*
X123505029Y-158452369D01*
X123557623Y-158468500D01*
X123626857Y-158449125D01*
X123724539Y-158395854D01*
X123830481Y-158321383D01*
X123926644Y-158238447D01*
X123994987Y-158159778D01*
X124042719Y-158062949D01*
X124079774Y-157933852D01*
X124096269Y-157805896D01*
X124086744Y-157706084D01*
X124081151Y-157667696D01*
X124100611Y-157643000D01*
X124109937Y-157644046D01*
X124134500Y-157670015D01*
X124145523Y-157697621D01*
X124190084Y-157767987D01*
X124260551Y-157865996D01*
X124347949Y-157980015D01*
X124443303Y-158098411D01*
X124537637Y-158209554D01*
X124621978Y-158301812D01*
X124652115Y-158332474D01*
X124742401Y-158414193D01*
X124813448Y-158456416D01*
X124879541Y-158468381D01*
X124944830Y-158459374D01*
X125070432Y-158405508D01*
X125194695Y-158314825D01*
X125300501Y-158200946D01*
X125370731Y-158077495D01*
X125392552Y-158005726D01*
X125405202Y-157826379D01*
X125362499Y-157631531D01*
X125263569Y-157419090D01*
X125107542Y-157186964D01*
X124893545Y-156933060D01*
X124849895Y-156885125D01*
X124775391Y-156801612D01*
X124726148Y-156743989D01*
X124711125Y-156722593D01*
X124725933Y-156726017D01*
X124787304Y-156743305D01*
X124877734Y-156770218D01*
X124926012Y-156783482D01*
X125046902Y-156807941D01*
X125147609Y-156817759D01*
X125163243Y-156817997D01*
X125222226Y-156826541D01*
X125274741Y-156855120D01*
X125335273Y-156914260D01*
X125418307Y-157014489D01*
X125528259Y-157151145D01*
X125702511Y-157362092D01*
X125852332Y-157536406D01*
X125975992Y-157672966D01*
X126071758Y-157770649D01*
X126137899Y-157828334D01*
X126172682Y-157844901D01*
X126174375Y-157819228D01*
X126141247Y-157750194D01*
X126071566Y-157636678D01*
X125963600Y-157477557D01*
X125815616Y-157271712D01*
X125715249Y-157133312D01*
X125592357Y-156957325D01*
X125502781Y-156819841D01*
X125448803Y-156724421D01*
X125432706Y-156674625D01*
X125444980Y-156473939D01*
X125411258Y-156257680D01*
X125321095Y-156060080D01*
X125170993Y-155870390D01*
X125041347Y-155750221D01*
X124911211Y-155669152D01*
X124793302Y-155642749D01*
X124774124Y-155643494D01*
X124690515Y-155674250D01*
X124648075Y-155746043D01*
X124646123Y-155853254D01*
X124683983Y-155990260D01*
X124760974Y-156151440D01*
X124876419Y-156331175D01*
X124929982Y-156407851D01*
X124974609Y-156476632D01*
X124991750Y-156510118D01*
X124989316Y-156511463D01*
X124950066Y-156497219D01*
X124872815Y-156459031D01*
X124770474Y-156403139D01*
X124743245Y-156387862D01*
X124638167Y-156331835D01*
X124556115Y-156292557D01*
X124512943Y-156277750D01*
X124487645Y-156287800D01*
X124422438Y-156329724D01*
X124336569Y-156393165D01*
X124245609Y-156465990D01*
X124165125Y-156536065D01*
X124110688Y-156591255D01*
X124100073Y-156604784D01*
X124078698Y-156647924D01*
X124082724Y-156695660D01*
X124117107Y-156757985D01*
X124186806Y-156844894D01*
X124296778Y-156966378D01*
X124452614Y-157140440D01*
X124666055Y-157403640D01*
X124836177Y-157647640D01*
X124957692Y-157865250D01*
X124958444Y-157866843D01*
X125024173Y-158020132D01*
X125052220Y-158122389D01*
X125042160Y-158174004D01*
X124993568Y-158175367D01*
X124906018Y-158126868D01*
X124779086Y-158028895D01*
X124619989Y-157888778D01*
X124429517Y-157704065D01*
X124247082Y-157510414D01*
X124083294Y-157319692D01*
X123948764Y-157143763D01*
X123854101Y-156994494D01*
X123773009Y-156853917D01*
X123576544Y-156570551D01*
X123352548Y-156310899D01*
X123110828Y-156084636D01*
X122861196Y-155901437D01*
X122613460Y-155770975D01*
X122593172Y-155762836D01*
X122532559Y-155748119D01*
X122478438Y-155763770D01*
X122403699Y-155815547D01*
X122336297Y-155878934D01*
X122252237Y-155984473D01*
X122177352Y-156102930D01*
X122123564Y-156215045D01*
X122102798Y-156301562D01*
X122103640Y-156331568D01*
X122116030Y-156367218D01*
X122149263Y-156352785D01*
X122211055Y-156287251D01*
X122284813Y-156201502D01*
X122487344Y-156301290D01*
X122497204Y-156306194D01*
X122747611Y-156460166D01*
X122994240Y-156663919D01*
X123226022Y-156904714D01*
X123431889Y-157169810D01*
X123600772Y-157446467D01*
X123721603Y-157721945D01*
X123734725Y-157761775D01*
X123770928Y-157902457D01*
X123784288Y-158015914D01*
X123774308Y-158091670D01*
X123740489Y-158119250D01*
X123718460Y-158110663D01*
X123652758Y-158059097D01*
X123555181Y-157965194D01*
X123430203Y-157833846D01*
X123282296Y-157669943D01*
X123115936Y-157478376D01*
X122935596Y-157264035D01*
X122745749Y-157031812D01*
X122703183Y-156979315D01*
X122575424Y-156825475D01*
X122461423Y-156693633D01*
X122367515Y-156590800D01*
X122300035Y-156523984D01*
X122265318Y-156500195D01*
X122259111Y-156501079D01*
X122206484Y-156528794D01*
X122129447Y-156585587D01*
X122043153Y-156658171D01*
X121962753Y-156733261D01*
X121903402Y-156797572D01*
X121880250Y-156837817D01*
X121881661Y-156843192D01*
X121907368Y-156892321D01*
X121960445Y-156980466D01*
X122034412Y-157097102D01*
X122122789Y-157231705D01*
X122226282Y-157392256D01*
X122329870Y-157562292D01*
X122421088Y-157720865D01*
X122487914Y-157847695D01*
X122508510Y-157890476D01*
X122571499Y-158029931D01*
X122605373Y-158125032D01*
X122608345Y-158175267D01*
X122578626Y-158180122D01*
X122514427Y-158139083D01*
X122413961Y-158051637D01*
X122275438Y-157917270D01*
X122097072Y-157735468D01*
X122083625Y-157721543D01*
X121888778Y-157514265D01*
X121739104Y-157343016D01*
X121631089Y-157203574D01*
X121561219Y-157091719D01*
X121528073Y-157029862D01*
X121434716Y-156867152D01*
X121327376Y-156692536D01*
X121211890Y-156514305D01*
X121094097Y-156340748D01*
X120979838Y-156180156D01*
X120874949Y-156040820D01*
X120785270Y-155931030D01*
X120716640Y-155859076D01*
X120674898Y-155833250D01*
X120634230Y-155849325D01*
X120562803Y-155902922D01*
X120481088Y-155979404D01*
X120420702Y-156045279D01*
X120404114Y-156063376D01*
X120346909Y-156139443D01*
X120324500Y-156192209D01*
X120325344Y-156199043D01*
X120351177Y-156257134D01*
X120405801Y-156344535D01*
X120479342Y-156445119D01*
X120584226Y-156584432D01*
X120723887Y-156785019D01*
X120860952Y-156997229D01*
X120991161Y-157213129D01*
X121110257Y-157424783D01*
X121213981Y-157624260D01*
X121298075Y-157803624D01*
X121358280Y-157954943D01*
X121390338Y-158070284D01*
X121389991Y-158141711D01*
X121362902Y-158164872D01*
X121305474Y-158149564D01*
X121214712Y-158090486D01*
X121086500Y-157985521D01*
X121078633Y-157978616D01*
X121002600Y-157907036D01*
X120904297Y-157808553D01*
X120792059Y-157692205D01*
X120674221Y-157567028D01*
X120559118Y-157442058D01*
X120455084Y-157326331D01*
X120370455Y-157228883D01*
X120313566Y-157158751D01*
X120292750Y-157124971D01*
X120286601Y-157103778D01*
X120250446Y-157030285D01*
X120185630Y-156915336D01*
X120096445Y-156765942D01*
X119987183Y-156589111D01*
X119862138Y-156391854D01*
X119725602Y-156181180D01*
X119581868Y-155964101D01*
X119487844Y-155822646D01*
X119298288Y-155529042D01*
X119243449Y-155438942D01*
X119426396Y-155438942D01*
X119692886Y-155841674D01*
X119742806Y-155916677D01*
X119830545Y-156046225D01*
X119902804Y-156149947D01*
X119953175Y-156218726D01*
X119975250Y-156243446D01*
X119979474Y-156241627D01*
X120014598Y-156208328D01*
X120066966Y-156146592D01*
X120108159Y-156089512D01*
X120121640Y-156045279D01*
X120098716Y-156011117D01*
X120096318Y-156008982D01*
X120051238Y-155969944D01*
X119969724Y-155900172D01*
X119862555Y-155808868D01*
X119740511Y-155705239D01*
X119426396Y-155438942D01*
X119243449Y-155438942D01*
X119145038Y-155277253D01*
X119025491Y-155062064D01*
X118937042Y-154878261D01*
X118877089Y-154720630D01*
X118843026Y-154583958D01*
X118832250Y-154463029D01*
X118831721Y-154438989D01*
X118822444Y-154369104D01*
X118805264Y-154340999D01*
X118751475Y-154362184D01*
X118671273Y-154417602D01*
X118581048Y-154493709D01*
X118496845Y-154576959D01*
X118434714Y-154653805D01*
X118363932Y-154789859D01*
X118332993Y-154951416D01*
X118364342Y-155104510D01*
X118381338Y-155136758D01*
X118434222Y-155222366D01*
X118514829Y-155345001D01*
X118617378Y-155496069D01*
X118736088Y-155666975D01*
X118865177Y-155849125D01*
X118948868Y-155966199D01*
X119123448Y-156211926D01*
X119267617Y-156417820D01*
X119386523Y-156591799D01*
X119485313Y-156741783D01*
X119569134Y-156875691D01*
X119643133Y-157001444D01*
X119712458Y-157126960D01*
X119782255Y-157260159D01*
X119811296Y-157317216D01*
X119926540Y-157556667D01*
X120013495Y-157760825D01*
X120071032Y-157926013D01*
X120098023Y-158048555D01*
X120093337Y-158124776D01*
X120055847Y-158151000D01*
X120011616Y-158132296D01*
X119926170Y-158069245D01*
X119806555Y-157965301D01*
X119656711Y-157824187D01*
X119480581Y-157649628D01*
X119282107Y-157445347D01*
X119065231Y-157215069D01*
X118810030Y-156940457D01*
X118567092Y-156679642D01*
X118360935Y-156459216D01*
X118188301Y-156275856D01*
X118045929Y-156126239D01*
X117930563Y-156007043D01*
X117838943Y-155914947D01*
X117767810Y-155846627D01*
X117713907Y-155798763D01*
X117673974Y-155768031D01*
X117644753Y-155751109D01*
X117622985Y-155744675D01*
X117594321Y-155745822D01*
X117531680Y-155772023D01*
X117446198Y-155834340D01*
X117328664Y-155938850D01*
X117316597Y-155950112D01*
X117218655Y-156043240D01*
X117160391Y-156112699D01*
X117141491Y-156173382D01*
X116846056Y-156173382D01*
X116855813Y-156155792D01*
X116896840Y-156113232D01*
X116975896Y-156037327D01*
X117079828Y-155940822D01*
X117196885Y-155834774D01*
X117221585Y-155812714D01*
X117340008Y-155709479D01*
X117426029Y-155641711D01*
X117491124Y-155602213D01*
X117546771Y-155583791D01*
X117604446Y-155579249D01*
X117608878Y-155579281D01*
X117653395Y-155583959D01*
X117700752Y-155599398D01*
X117755352Y-155629649D01*
X117821597Y-155678761D01*
X117903892Y-155750785D01*
X118006638Y-155849770D01*
X118134239Y-155979767D01*
X118291097Y-156144824D01*
X118481617Y-156348992D01*
X118710200Y-156596321D01*
X118716108Y-156602730D01*
X118869114Y-156767851D01*
X119007533Y-156915634D01*
X119125714Y-157040174D01*
X119218006Y-157135563D01*
X119278758Y-157195895D01*
X119302320Y-157215263D01*
X119302684Y-157214609D01*
X119287772Y-157179875D01*
X119239470Y-157099533D01*
X119161400Y-156978930D01*
X119057184Y-156823412D01*
X118930443Y-156638324D01*
X118784799Y-156429012D01*
X118623875Y-156200822D01*
X118451291Y-155959100D01*
X118324430Y-155779445D01*
X118201090Y-155597351D01*
X118103990Y-155445171D01*
X118037399Y-155329624D01*
X118005588Y-155257432D01*
X117990677Y-155184784D01*
X117995495Y-154998353D01*
X118062860Y-154812498D01*
X118193085Y-154626549D01*
X118386481Y-154439835D01*
X118408850Y-154421373D01*
X118589056Y-154286439D01*
X118735246Y-154204693D01*
X118847976Y-154176108D01*
X118927806Y-154200656D01*
X118975295Y-154278307D01*
X118991000Y-154409033D01*
X119000806Y-154507260D01*
X119031302Y-154646743D01*
X119076203Y-154789480D01*
X119085727Y-154815044D01*
X119126611Y-154918450D01*
X119154624Y-154971263D01*
X119175573Y-154981701D01*
X119195265Y-154957984D01*
X119246964Y-154885397D01*
X119530750Y-154885397D01*
X119535857Y-154909413D01*
X119582161Y-154987403D01*
X119672482Y-155094793D01*
X119801680Y-155226207D01*
X119964611Y-155376264D01*
X120156135Y-155539587D01*
X120158716Y-155541713D01*
X120276216Y-155637365D01*
X120376822Y-155717190D01*
X120449917Y-155772901D01*
X120484880Y-155796208D01*
X120496319Y-155798769D01*
X120513305Y-155782417D01*
X120504185Y-155727220D01*
X120467540Y-155629146D01*
X120401948Y-155484164D01*
X120305991Y-155288241D01*
X120199148Y-155077162D01*
X120112590Y-154912356D01*
X120044444Y-154792143D01*
X119990410Y-154709998D01*
X119946188Y-154659400D01*
X119907478Y-154633825D01*
X119869982Y-154626750D01*
X119798983Y-154644853D01*
X119709360Y-154693835D01*
X119622456Y-154759649D01*
X119556758Y-154828201D01*
X119530750Y-154885397D01*
X119246964Y-154885397D01*
X119264315Y-154861035D01*
X119374922Y-154748619D01*
X119506363Y-154642204D01*
X119643522Y-154552693D01*
X119771283Y-154490990D01*
X119874530Y-154468000D01*
X119915359Y-154471309D01*
X119985499Y-154496101D01*
X120056025Y-154550156D01*
X120131623Y-154639394D01*
X120216974Y-154769737D01*
X120316764Y-154947107D01*
X120435675Y-155177424D01*
X120462433Y-155230469D01*
X120553817Y-155407076D01*
X120624603Y-155534317D01*
X120679093Y-155619043D01*
X120721587Y-155668105D01*
X120756386Y-155688356D01*
X120761892Y-155690272D01*
X120815522Y-155731303D01*
X120864018Y-155782417D01*
X120895632Y-155815739D01*
X120995447Y-155934897D01*
X121108188Y-156080093D01*
X121227081Y-156242644D01*
X121345348Y-156413868D01*
X121456212Y-156585079D01*
X121600821Y-156817095D01*
X121689932Y-156745860D01*
X121695486Y-156741390D01*
X121748920Y-156688444D01*
X121767725Y-156630676D01*
X121761822Y-156539619D01*
X121759363Y-156484643D01*
X121788710Y-156329284D01*
X121863580Y-156160395D01*
X121977246Y-155991111D01*
X122122979Y-155834566D01*
X122201799Y-155764275D01*
X122331212Y-155663463D01*
X122443840Y-155606154D01*
X122552729Y-155591860D01*
X122670923Y-155620092D01*
X122811468Y-155690361D01*
X122987406Y-155802179D01*
X122999351Y-155810276D01*
X123108347Y-155891375D01*
X123232685Y-155993901D01*
X123363157Y-156109042D01*
X123490556Y-156227989D01*
X123605672Y-156341930D01*
X123699299Y-156442055D01*
X123762228Y-156519551D01*
X123785250Y-156565609D01*
X123790531Y-156587033D01*
X123814257Y-156588905D01*
X123863964Y-156561984D01*
X123947072Y-156502103D01*
X124071000Y-156405095D01*
X124309125Y-156215386D01*
X124309125Y-156010258D01*
X124309126Y-156009669D01*
X124311942Y-155894337D01*
X124325884Y-155818455D01*
X124359228Y-155758133D01*
X124420250Y-155689481D01*
X124532768Y-155586776D01*
X124666560Y-155508910D01*
X124799674Y-155484000D01*
X124799873Y-155483999D01*
X124870904Y-155472310D01*
X124898501Y-155444133D01*
X124872688Y-155409629D01*
X124869764Y-155408439D01*
X124820201Y-155399507D01*
X124722325Y-155387136D01*
X124588712Y-155372798D01*
X124431940Y-155357968D01*
X124088285Y-155340407D01*
X123624337Y-155362551D01*
X123188360Y-155440193D01*
X123088758Y-155460770D01*
X122982065Y-155473367D01*
X122911031Y-155470687D01*
X122861451Y-155448346D01*
X122820037Y-155385077D01*
X122820795Y-155294327D01*
X122859135Y-155183544D01*
X122879607Y-155148138D01*
X123153542Y-155148138D01*
X123161335Y-155149287D01*
X123217225Y-155142436D01*
X123313725Y-155124227D01*
X123436000Y-155097329D01*
X123562707Y-155073422D01*
X123787407Y-155047887D01*
X124043921Y-155033564D01*
X124316494Y-155030235D01*
X124589369Y-155037681D01*
X124846789Y-155055684D01*
X125072999Y-155084025D01*
X125252242Y-155122488D01*
X125270009Y-155128791D01*
X125290223Y-155156378D01*
X125271060Y-155215581D01*
X125269718Y-155218577D01*
X125260997Y-155247933D01*
X125264989Y-155280147D01*
X125287045Y-155322240D01*
X125332515Y-155381235D01*
X125406749Y-155464151D01*
X125515098Y-155578012D01*
X125662912Y-155729838D01*
X125681857Y-155749255D01*
X126035962Y-156129880D01*
X126356988Y-156509169D01*
X126641985Y-156882482D01*
X126887999Y-157245179D01*
X127092079Y-157592617D01*
X127251272Y-157920157D01*
X127362626Y-158223158D01*
X127423188Y-158496978D01*
X127433053Y-158557516D01*
X127451867Y-158630515D01*
X127469863Y-158659000D01*
X127470313Y-158658970D01*
X127496715Y-158631116D01*
X127540622Y-158561023D01*
X127592772Y-158463428D01*
X127659038Y-158294518D01*
X127688784Y-158117165D01*
X127679620Y-157925771D01*
X127630378Y-157712302D01*
X127539887Y-157468722D01*
X127406978Y-157186999D01*
X127321239Y-157027813D01*
X127181635Y-156790360D01*
X127015101Y-156525051D01*
X126829267Y-156243658D01*
X126631762Y-155957955D01*
X126430216Y-155679715D01*
X126405104Y-155645711D01*
X126310854Y-155513321D01*
X126246412Y-155414201D01*
X126215096Y-155353762D01*
X126220227Y-155337418D01*
X126271247Y-155351904D01*
X126407623Y-155385554D01*
X126576734Y-155423052D01*
X126758811Y-155460273D01*
X126934085Y-155493093D01*
X127082784Y-155517386D01*
X127332500Y-155539478D01*
X127623064Y-155521977D01*
X127877500Y-155452845D01*
X128095296Y-155332304D01*
X128275940Y-155160575D01*
X128418921Y-154937881D01*
X128448143Y-154876666D01*
X128497182Y-154751392D01*
X128516128Y-154661192D01*
X128504155Y-154612545D01*
X128460438Y-154611929D01*
X128393706Y-154639743D01*
X128206874Y-154709217D01*
X128020824Y-154763783D01*
X127828570Y-154803631D01*
X127623121Y-154828952D01*
X127397491Y-154839937D01*
X127144689Y-154836775D01*
X126857727Y-154819656D01*
X126529618Y-154788771D01*
X126153372Y-154744309D01*
X125722000Y-154686462D01*
X125366180Y-154641400D01*
X124991314Y-154604944D01*
X124648017Y-154583508D01*
X124342287Y-154577203D01*
X124080124Y-154586135D01*
X123867526Y-154610414D01*
X123710493Y-154650147D01*
X123628065Y-154684394D01*
X123507536Y-154744804D01*
X123415556Y-154802707D01*
X123395708Y-154818917D01*
X123327210Y-154886401D01*
X123257395Y-154968028D01*
X123197612Y-155048834D01*
X123159212Y-155113859D01*
X123153542Y-155148138D01*
X122879607Y-155148138D01*
X122930468Y-155060172D01*
X123030206Y-154931658D01*
X123153760Y-154805448D01*
X123296540Y-154688989D01*
X123453959Y-154589725D01*
X123454318Y-154589531D01*
X123566780Y-154540054D01*
X123710820Y-154491656D01*
X123855349Y-154454788D01*
X123941936Y-154438621D01*
X124079207Y-154419988D01*
X124227621Y-154409121D01*
X124393611Y-154406377D01*
X124583609Y-154412115D01*
X124804049Y-154426690D01*
X125061363Y-154450461D01*
X125361984Y-154483785D01*
X125712343Y-154527019D01*
X126118875Y-154580520D01*
X126509869Y-154627117D01*
X126891195Y-154657814D01*
X127246000Y-154669347D01*
X127354225Y-154669538D01*
X127600315Y-154663767D01*
X127802833Y-154647227D01*
X127975854Y-154617792D01*
X128133456Y-154573337D01*
X128289713Y-154511736D01*
X128308064Y-154503735D01*
X128460199Y-154449974D01*
X128568599Y-154440209D01*
X128636598Y-154476033D01*
X128667529Y-154559037D01*
X128665356Y-154661192D01*
X128664727Y-154690813D01*
G37*
%LPC*%
D11*
X95980000Y-137181000D03*
D12*
X98520000Y-137181000D03*
X101060000Y-137181000D03*
X103600000Y-137181000D03*
X106140000Y-137181000D03*
X108680000Y-137181000D03*
X111220000Y-137181000D03*
X113760000Y-137181000D03*
X116300000Y-137181000D03*
X118840000Y-137181000D03*
X121380000Y-137181000D03*
X123920000Y-137181000D03*
X126460000Y-137181000D03*
X129000000Y-137181000D03*
X129000000Y-116861000D03*
X126460000Y-116861000D03*
X123920000Y-116861000D03*
X121380000Y-116861000D03*
X118840000Y-116861000D03*
X116300000Y-116861000D03*
X113760000Y-116861000D03*
X111220000Y-116861000D03*
X108680000Y-116861000D03*
X106140000Y-116861000D03*
X103600000Y-116861000D03*
X101060000Y-116861000D03*
X98520000Y-116861000D03*
X95980000Y-116861000D03*
D11*
X73872000Y-91364000D03*
D12*
X73872000Y-93904000D03*
X73872000Y-96444000D03*
X73872000Y-98984000D03*
D11*
X75975000Y-136611000D03*
D12*
X78515000Y-136611000D03*
D13*
X51000000Y-84500000D03*
X57200000Y-69500000D03*
D14*
X53000000Y-73000000D03*
X53000000Y-77000000D03*
X53000000Y-81000000D03*
D15*
X63000000Y-145000000D03*
D16*
X65000000Y-145000000D03*
X67000000Y-145000000D03*
X69000000Y-145000000D03*
D17*
X128180000Y-44605000D03*
X72980000Y-60345000D03*
D18*
X64780000Y-44605000D03*
D19*
X64780000Y-52475000D03*
X137000000Y-52475000D03*
D20*
X146935000Y-128490000D03*
X35065000Y-72560000D03*
D17*
X128180000Y-67605000D03*
X72980000Y-83345000D03*
D18*
X64780000Y-67605000D03*
D19*
X64780000Y-75475000D03*
X137000000Y-75475000D03*
D15*
X113000000Y-145000000D03*
D16*
X115000000Y-145000000D03*
X117000000Y-145000000D03*
X119000000Y-145000000D03*
D20*
X35065000Y-128490000D03*
X146935000Y-72560000D03*
D21*
X59000000Y-132000000D03*
X71000000Y-123500000D03*
X72000000Y-124500000D03*
X58960000Y-134540000D03*
X105000000Y-107000000D03*
X105000000Y-104500000D03*
X105000000Y-140000000D03*
X50000000Y-149000000D03*
X105000000Y-114500000D03*
X95000000Y-104500000D03*
X78000000Y-95000000D03*
X114500000Y-112500000D03*
X70000000Y-118000000D03*
X50000000Y-137000000D03*
X90000000Y-115000000D03*
X85000000Y-104500000D03*
X135000000Y-135000000D03*
X125000000Y-135000000D03*
X130000000Y-135000000D03*
X90000000Y-107000000D03*
X50000000Y-132000000D03*
X135000000Y-125000000D03*
X77000000Y-91000000D03*
X95000000Y-145000000D03*
X110000000Y-145000000D03*
X53500000Y-137000000D03*
X100000000Y-149000000D03*
X100000000Y-110000000D03*
X100000000Y-107000000D03*
X109000000Y-107000000D03*
X75000000Y-102000000D03*
X85000000Y-145000000D03*
X85000000Y-112500000D03*
X90000000Y-140000000D03*
X115000000Y-130000000D03*
X135000000Y-130000000D03*
X80000000Y-145000000D03*
X65000000Y-149000000D03*
X135000000Y-149000000D03*
X60000000Y-140000000D03*
X47500000Y-129500000D03*
X70000000Y-95000000D03*
X80000000Y-149000000D03*
X120000000Y-135000000D03*
X116500000Y-114500000D03*
X110000000Y-130000000D03*
X115000000Y-149000000D03*
X135000000Y-140000000D03*
X50000000Y-134500000D03*
X70000000Y-115000000D03*
X85000000Y-115000000D03*
X70000000Y-149000000D03*
X78000000Y-100000000D03*
X65000000Y-140000000D03*
X95000000Y-140000000D03*
X71000000Y-91000000D03*
X62500000Y-127500000D03*
X100000000Y-145000000D03*
X124500000Y-125000000D03*
X75000000Y-118000000D03*
X80000000Y-115000000D03*
X70000000Y-134500000D03*
X95000000Y-107000000D03*
X100000000Y-130000000D03*
X120000000Y-114500000D03*
X50000000Y-140000000D03*
X85000000Y-140000000D03*
X100000000Y-135000000D03*
X70000000Y-105000000D03*
X85000000Y-126000000D03*
X90000000Y-118000000D03*
X55000000Y-149000000D03*
X105000000Y-135000000D03*
X90000000Y-104500000D03*
X115000000Y-126000000D03*
X80000000Y-140000000D03*
X135000000Y-145000000D03*
X95000000Y-130000000D03*
X135000000Y-120000000D03*
X125000000Y-120000000D03*
X60000000Y-149000000D03*
X115000000Y-135000000D03*
X75000000Y-127000000D03*
X75000000Y-140000000D03*
X100000000Y-126000000D03*
X55000000Y-140000000D03*
X53500000Y-132000000D03*
X130000000Y-114500000D03*
X130000000Y-125000000D03*
X90000000Y-149000000D03*
X120000000Y-130000000D03*
X70000000Y-110000000D03*
X105000000Y-130000000D03*
X130000000Y-145000000D03*
X80000000Y-118000000D03*
X120000000Y-149000000D03*
X130000000Y-140000000D03*
X55000000Y-145000000D03*
X80000000Y-104500000D03*
X100000000Y-112500000D03*
X125000000Y-130000000D03*
X130000000Y-149000000D03*
X53500000Y-134500000D03*
X100000000Y-140000000D03*
X50000000Y-145000000D03*
X125000000Y-145000000D03*
X90000000Y-110000000D03*
X68500000Y-121000000D03*
X125500000Y-140000000D03*
X110000000Y-140000000D03*
X90000000Y-130000000D03*
X90000000Y-126000000D03*
X105000000Y-149000000D03*
X135000000Y-114500000D03*
X110000000Y-135000000D03*
X109390289Y-111256746D03*
X70000000Y-100000000D03*
X75000000Y-115000000D03*
X75000000Y-145000000D03*
X105000000Y-112500000D03*
X90000000Y-145000000D03*
X130000000Y-130000000D03*
X80000000Y-130000000D03*
X105000000Y-126000000D03*
X105000000Y-145000000D03*
X70000000Y-140000000D03*
X75000000Y-112500000D03*
X85000000Y-149000000D03*
X110000000Y-126000000D03*
X80000000Y-107000000D03*
X75000000Y-149000000D03*
X101500000Y-114500000D03*
X85000000Y-118000000D03*
X90000000Y-112500000D03*
X109000000Y-114500000D03*
X130000000Y-120000000D03*
X125000000Y-114500000D03*
X95000000Y-149000000D03*
X120000000Y-126000000D03*
X95000000Y-110000000D03*
X85000000Y-107000000D03*
X85000000Y-110000000D03*
X80000000Y-126000000D03*
X105000000Y-110000000D03*
X80000000Y-110000000D03*
X100000000Y-104500000D03*
X112000000Y-110000000D03*
X125000000Y-149000000D03*
X80000000Y-112500000D03*
X95000000Y-126000000D03*
X70000000Y-137000000D03*
X110000000Y-149000000D03*
X60000000Y-145000000D03*
X85000000Y-130000000D03*
X70000000Y-122500000D03*
X59000000Y-129500000D03*
X73000000Y-125500000D03*
X59000000Y-137080000D03*
%LPD*%
M02*
