G04 #@! TF.GenerationSoftware,KiCad,Pcbnew,8.0.1*
G04 #@! TF.CreationDate,2024-03-22T19:38:57+01:00*
G04 #@! TF.ProjectId,BikeCounter_SingleBoard,42696b65-436f-4756-9e74-65725f53696e,rev?*
G04 #@! TF.SameCoordinates,Original*
G04 #@! TF.FileFunction,Legend,Top*
G04 #@! TF.FilePolarity,Positive*
%FSLAX46Y46*%
G04 Gerber Fmt 4.6, Leading zero omitted, Abs format (unit mm)*
G04 Created by KiCad (PCBNEW 8.0.1) date 2024-03-22 19:38:57*
%MOMM*%
%LPD*%
G01*
G04 APERTURE LIST*
G04 Aperture macros list*
%AMRoundRect*
0 Rectangle with rounded corners*
0 $1 Rounding radius*
0 $2 $3 $4 $5 $6 $7 $8 $9 X,Y pos of 4 corners*
0 Add a 4 corners polygon primitive as box body*
4,1,4,$2,$3,$4,$5,$6,$7,$8,$9,$2,$3,0*
0 Add four circle primitives for the rounded corners*
1,1,$1+$1,$2,$3*
1,1,$1+$1,$4,$5*
1,1,$1+$1,$6,$7*
1,1,$1+$1,$8,$9*
0 Add four rect primitives between the rounded corners*
20,1,$1+$1,$2,$3,$4,$5,0*
20,1,$1+$1,$4,$5,$6,$7,0*
20,1,$1+$1,$6,$7,$8,$9,0*
20,1,$1+$1,$8,$9,$2,$3,0*%
G04 Aperture macros list end*
%ADD10C,0.120000*%
%ADD11C,0.150000*%
%ADD12C,0.010000*%
%ADD13RoundRect,0.250000X-0.400000X-0.625000X0.400000X-0.625000X0.400000X0.625000X-0.400000X0.625000X0*%
%ADD14R,1.700000X1.700000*%
%ADD15O,1.700000X1.700000*%
%ADD16RoundRect,0.250000X0.475000X-0.337500X0.475000X0.337500X-0.475000X0.337500X-0.475000X-0.337500X0*%
%ADD17RoundRect,0.250000X0.625000X-0.400000X0.625000X0.400000X-0.625000X0.400000X-0.625000X-0.400000X0*%
%ADD18R,2.440000X1.120000*%
%ADD19C,1.400000*%
%ADD20C,1.800000*%
%ADD21R,1.350000X1.350000*%
%ADD22O,1.350000X1.350000*%
%ADD23C,3.550000*%
%ADD24C,2.390000*%
%ADD25C,2.640000*%
%ADD26C,4.300000*%
%ADD27C,0.800000*%
G04 APERTURE END LIST*
D10*
X74009000Y-122830000D02*
X74263000Y-122576000D01*
X74009000Y-122830000D02*
X74263000Y-123084000D01*
X77311000Y-122830000D02*
X74009000Y-122830000D01*
D11*
X42738095Y-132367200D02*
X42880952Y-132414819D01*
X42880952Y-132414819D02*
X43119047Y-132414819D01*
X43119047Y-132414819D02*
X43214285Y-132367200D01*
X43214285Y-132367200D02*
X43261904Y-132319580D01*
X43261904Y-132319580D02*
X43309523Y-132224342D01*
X43309523Y-132224342D02*
X43309523Y-132129104D01*
X43309523Y-132129104D02*
X43261904Y-132033866D01*
X43261904Y-132033866D02*
X43214285Y-131986247D01*
X43214285Y-131986247D02*
X43119047Y-131938628D01*
X43119047Y-131938628D02*
X42928571Y-131891009D01*
X42928571Y-131891009D02*
X42833333Y-131843390D01*
X42833333Y-131843390D02*
X42785714Y-131795771D01*
X42785714Y-131795771D02*
X42738095Y-131700533D01*
X42738095Y-131700533D02*
X42738095Y-131605295D01*
X42738095Y-131605295D02*
X42785714Y-131510057D01*
X42785714Y-131510057D02*
X42833333Y-131462438D01*
X42833333Y-131462438D02*
X42928571Y-131414819D01*
X42928571Y-131414819D02*
X43166666Y-131414819D01*
X43166666Y-131414819D02*
X43309523Y-131462438D01*
X43642857Y-131414819D02*
X44261904Y-131414819D01*
X44261904Y-131414819D02*
X43928571Y-131795771D01*
X43928571Y-131795771D02*
X44071428Y-131795771D01*
X44071428Y-131795771D02*
X44166666Y-131843390D01*
X44166666Y-131843390D02*
X44214285Y-131891009D01*
X44214285Y-131891009D02*
X44261904Y-131986247D01*
X44261904Y-131986247D02*
X44261904Y-132224342D01*
X44261904Y-132224342D02*
X44214285Y-132319580D01*
X44214285Y-132319580D02*
X44166666Y-132367200D01*
X44166666Y-132367200D02*
X44071428Y-132414819D01*
X44071428Y-132414819D02*
X43785714Y-132414819D01*
X43785714Y-132414819D02*
X43690476Y-132367200D01*
X43690476Y-132367200D02*
X43642857Y-132319580D01*
X42738095Y-134907200D02*
X42880952Y-134954819D01*
X42880952Y-134954819D02*
X43119047Y-134954819D01*
X43119047Y-134954819D02*
X43214285Y-134907200D01*
X43214285Y-134907200D02*
X43261904Y-134859580D01*
X43261904Y-134859580D02*
X43309523Y-134764342D01*
X43309523Y-134764342D02*
X43309523Y-134669104D01*
X43309523Y-134669104D02*
X43261904Y-134573866D01*
X43261904Y-134573866D02*
X43214285Y-134526247D01*
X43214285Y-134526247D02*
X43119047Y-134478628D01*
X43119047Y-134478628D02*
X42928571Y-134431009D01*
X42928571Y-134431009D02*
X42833333Y-134383390D01*
X42833333Y-134383390D02*
X42785714Y-134335771D01*
X42785714Y-134335771D02*
X42738095Y-134240533D01*
X42738095Y-134240533D02*
X42738095Y-134145295D01*
X42738095Y-134145295D02*
X42785714Y-134050057D01*
X42785714Y-134050057D02*
X42833333Y-134002438D01*
X42833333Y-134002438D02*
X42928571Y-133954819D01*
X42928571Y-133954819D02*
X43166666Y-133954819D01*
X43166666Y-133954819D02*
X43309523Y-134002438D01*
X43690476Y-134050057D02*
X43738095Y-134002438D01*
X43738095Y-134002438D02*
X43833333Y-133954819D01*
X43833333Y-133954819D02*
X44071428Y-133954819D01*
X44071428Y-133954819D02*
X44166666Y-134002438D01*
X44166666Y-134002438D02*
X44214285Y-134050057D01*
X44214285Y-134050057D02*
X44261904Y-134145295D01*
X44261904Y-134145295D02*
X44261904Y-134240533D01*
X44261904Y-134240533D02*
X44214285Y-134383390D01*
X44214285Y-134383390D02*
X43642857Y-134954819D01*
X43642857Y-134954819D02*
X44261904Y-134954819D01*
X65000000Y-148454819D02*
X65000000Y-147454819D01*
X65000000Y-147454819D02*
X65380952Y-147454819D01*
X65380952Y-147454819D02*
X65476190Y-147502438D01*
X65476190Y-147502438D02*
X65523809Y-147550057D01*
X65523809Y-147550057D02*
X65571428Y-147645295D01*
X65571428Y-147645295D02*
X65571428Y-147788152D01*
X65571428Y-147788152D02*
X65523809Y-147883390D01*
X65523809Y-147883390D02*
X65476190Y-147931009D01*
X65476190Y-147931009D02*
X65380952Y-147978628D01*
X65380952Y-147978628D02*
X65000000Y-147978628D01*
X66000000Y-148454819D02*
X66000000Y-147454819D01*
X67047618Y-148454819D02*
X66714285Y-147978628D01*
X66476190Y-148454819D02*
X66476190Y-147454819D01*
X66476190Y-147454819D02*
X66857142Y-147454819D01*
X66857142Y-147454819D02*
X66952380Y-147502438D01*
X66952380Y-147502438D02*
X66999999Y-147550057D01*
X66999999Y-147550057D02*
X67047618Y-147645295D01*
X67047618Y-147645295D02*
X67047618Y-147788152D01*
X67047618Y-147788152D02*
X66999999Y-147883390D01*
X66999999Y-147883390D02*
X66952380Y-147931009D01*
X66952380Y-147931009D02*
X66857142Y-147978628D01*
X66857142Y-147978628D02*
X66476190Y-147978628D01*
X44452380Y-72917438D02*
X44261904Y-72822200D01*
X44261904Y-72822200D02*
X44166666Y-72726961D01*
X44166666Y-72726961D02*
X44071428Y-72536485D01*
X44071428Y-72536485D02*
X44071428Y-71965057D01*
X44071428Y-71965057D02*
X44166666Y-71774580D01*
X44166666Y-71774580D02*
X44261904Y-71679342D01*
X44261904Y-71679342D02*
X44452380Y-71584104D01*
X44452380Y-71584104D02*
X44738095Y-71584104D01*
X44738095Y-71584104D02*
X44928571Y-71679342D01*
X44928571Y-71679342D02*
X45023809Y-71774580D01*
X45023809Y-71774580D02*
X45119047Y-71965057D01*
X45119047Y-71965057D02*
X45119047Y-72536485D01*
X45119047Y-72536485D02*
X45023809Y-72726961D01*
X45023809Y-72726961D02*
X44928571Y-72822200D01*
X44928571Y-72822200D02*
X44738095Y-72917438D01*
X44738095Y-72917438D02*
X44452380Y-72917438D01*
X45976190Y-71584104D02*
X45976190Y-72917438D01*
X45976190Y-71774580D02*
X46071428Y-71679342D01*
X46071428Y-71679342D02*
X46261904Y-71584104D01*
X46261904Y-71584104D02*
X46547619Y-71584104D01*
X46547619Y-71584104D02*
X46738095Y-71679342D01*
X46738095Y-71679342D02*
X46833333Y-71869819D01*
X46833333Y-71869819D02*
X46833333Y-72917438D01*
X44214285Y-82917438D02*
X44023809Y-82822200D01*
X44023809Y-82822200D02*
X43928571Y-82726961D01*
X43928571Y-82726961D02*
X43833333Y-82536485D01*
X43833333Y-82536485D02*
X43833333Y-81965057D01*
X43833333Y-81965057D02*
X43928571Y-81774580D01*
X43928571Y-81774580D02*
X44023809Y-81679342D01*
X44023809Y-81679342D02*
X44214285Y-81584104D01*
X44214285Y-81584104D02*
X44500000Y-81584104D01*
X44500000Y-81584104D02*
X44690476Y-81679342D01*
X44690476Y-81679342D02*
X44785714Y-81774580D01*
X44785714Y-81774580D02*
X44880952Y-81965057D01*
X44880952Y-81965057D02*
X44880952Y-82536485D01*
X44880952Y-82536485D02*
X44785714Y-82726961D01*
X44785714Y-82726961D02*
X44690476Y-82822200D01*
X44690476Y-82822200D02*
X44500000Y-82917438D01*
X44500000Y-82917438D02*
X44214285Y-82917438D01*
X45452381Y-81584104D02*
X46214285Y-81584104D01*
X45738095Y-82917438D02*
X45738095Y-81203152D01*
X45738095Y-81203152D02*
X45833333Y-81012676D01*
X45833333Y-81012676D02*
X46023809Y-80917438D01*
X46023809Y-80917438D02*
X46214285Y-80917438D01*
X46595238Y-81584104D02*
X47357142Y-81584104D01*
X46880952Y-82917438D02*
X46880952Y-81203152D01*
X46880952Y-81203152D02*
X46976190Y-81012676D01*
X46976190Y-81012676D02*
X47166666Y-80917438D01*
X47166666Y-80917438D02*
X47357142Y-80917438D01*
X55976190Y-140954819D02*
X55880952Y-140907200D01*
X55880952Y-140907200D02*
X55833333Y-140859580D01*
X55833333Y-140859580D02*
X55785714Y-140764342D01*
X55785714Y-140764342D02*
X55785714Y-140478628D01*
X55785714Y-140478628D02*
X55833333Y-140383390D01*
X55833333Y-140383390D02*
X55880952Y-140335771D01*
X55880952Y-140335771D02*
X55976190Y-140288152D01*
X55976190Y-140288152D02*
X56119047Y-140288152D01*
X56119047Y-140288152D02*
X56214285Y-140335771D01*
X56214285Y-140335771D02*
X56261904Y-140383390D01*
X56261904Y-140383390D02*
X56309523Y-140478628D01*
X56309523Y-140478628D02*
X56309523Y-140764342D01*
X56309523Y-140764342D02*
X56261904Y-140859580D01*
X56261904Y-140859580D02*
X56214285Y-140907200D01*
X56214285Y-140907200D02*
X56119047Y-140954819D01*
X56119047Y-140954819D02*
X55976190Y-140954819D01*
X56738095Y-140288152D02*
X56738095Y-140954819D01*
X56738095Y-140383390D02*
X56785714Y-140335771D01*
X56785714Y-140335771D02*
X56880952Y-140288152D01*
X56880952Y-140288152D02*
X57023809Y-140288152D01*
X57023809Y-140288152D02*
X57119047Y-140335771D01*
X57119047Y-140335771D02*
X57166666Y-140431009D01*
X57166666Y-140431009D02*
X57166666Y-140954819D01*
X112690474Y-156626037D02*
X112833331Y-156673656D01*
X112833331Y-156673656D02*
X112880950Y-156721275D01*
X112880950Y-156721275D02*
X112928569Y-156816513D01*
X112928569Y-156816513D02*
X112928569Y-156959370D01*
X112928569Y-156959370D02*
X112880950Y-157054608D01*
X112880950Y-157054608D02*
X112833331Y-157102228D01*
X112833331Y-157102228D02*
X112738093Y-157149847D01*
X112738093Y-157149847D02*
X112357141Y-157149847D01*
X112357141Y-157149847D02*
X112357141Y-156149847D01*
X112357141Y-156149847D02*
X112690474Y-156149847D01*
X112690474Y-156149847D02*
X112785712Y-156197466D01*
X112785712Y-156197466D02*
X112833331Y-156245085D01*
X112833331Y-156245085D02*
X112880950Y-156340323D01*
X112880950Y-156340323D02*
X112880950Y-156435561D01*
X112880950Y-156435561D02*
X112833331Y-156530799D01*
X112833331Y-156530799D02*
X112785712Y-156578418D01*
X112785712Y-156578418D02*
X112690474Y-156626037D01*
X112690474Y-156626037D02*
X112357141Y-156626037D01*
X113357141Y-157149847D02*
X113357141Y-156483180D01*
X113357141Y-156149847D02*
X113309522Y-156197466D01*
X113309522Y-156197466D02*
X113357141Y-156245085D01*
X113357141Y-156245085D02*
X113404760Y-156197466D01*
X113404760Y-156197466D02*
X113357141Y-156149847D01*
X113357141Y-156149847D02*
X113357141Y-156245085D01*
X113833331Y-157149847D02*
X113833331Y-156149847D01*
X113928569Y-156768894D02*
X114214283Y-157149847D01*
X114214283Y-156483180D02*
X113833331Y-156864132D01*
X115023807Y-157102228D02*
X114928569Y-157149847D01*
X114928569Y-157149847D02*
X114738093Y-157149847D01*
X114738093Y-157149847D02*
X114642855Y-157102228D01*
X114642855Y-157102228D02*
X114595236Y-157006989D01*
X114595236Y-157006989D02*
X114595236Y-156626037D01*
X114595236Y-156626037D02*
X114642855Y-156530799D01*
X114642855Y-156530799D02*
X114738093Y-156483180D01*
X114738093Y-156483180D02*
X114928569Y-156483180D01*
X114928569Y-156483180D02*
X115023807Y-156530799D01*
X115023807Y-156530799D02*
X115071426Y-156626037D01*
X115071426Y-156626037D02*
X115071426Y-156721275D01*
X115071426Y-156721275D02*
X114595236Y-156816513D01*
X116071426Y-157054608D02*
X116023807Y-157102228D01*
X116023807Y-157102228D02*
X115880950Y-157149847D01*
X115880950Y-157149847D02*
X115785712Y-157149847D01*
X115785712Y-157149847D02*
X115642855Y-157102228D01*
X115642855Y-157102228D02*
X115547617Y-157006989D01*
X115547617Y-157006989D02*
X115499998Y-156911751D01*
X115499998Y-156911751D02*
X115452379Y-156721275D01*
X115452379Y-156721275D02*
X115452379Y-156578418D01*
X115452379Y-156578418D02*
X115499998Y-156387942D01*
X115499998Y-156387942D02*
X115547617Y-156292704D01*
X115547617Y-156292704D02*
X115642855Y-156197466D01*
X115642855Y-156197466D02*
X115785712Y-156149847D01*
X115785712Y-156149847D02*
X115880950Y-156149847D01*
X115880950Y-156149847D02*
X116023807Y-156197466D01*
X116023807Y-156197466D02*
X116071426Y-156245085D01*
X116642855Y-157149847D02*
X116547617Y-157102228D01*
X116547617Y-157102228D02*
X116499998Y-157054608D01*
X116499998Y-157054608D02*
X116452379Y-156959370D01*
X116452379Y-156959370D02*
X116452379Y-156673656D01*
X116452379Y-156673656D02*
X116499998Y-156578418D01*
X116499998Y-156578418D02*
X116547617Y-156530799D01*
X116547617Y-156530799D02*
X116642855Y-156483180D01*
X116642855Y-156483180D02*
X116785712Y-156483180D01*
X116785712Y-156483180D02*
X116880950Y-156530799D01*
X116880950Y-156530799D02*
X116928569Y-156578418D01*
X116928569Y-156578418D02*
X116976188Y-156673656D01*
X116976188Y-156673656D02*
X116976188Y-156959370D01*
X116976188Y-156959370D02*
X116928569Y-157054608D01*
X116928569Y-157054608D02*
X116880950Y-157102228D01*
X116880950Y-157102228D02*
X116785712Y-157149847D01*
X116785712Y-157149847D02*
X116642855Y-157149847D01*
X117833331Y-156483180D02*
X117833331Y-157149847D01*
X117404760Y-156483180D02*
X117404760Y-157006989D01*
X117404760Y-157006989D02*
X117452379Y-157102228D01*
X117452379Y-157102228D02*
X117547617Y-157149847D01*
X117547617Y-157149847D02*
X117690474Y-157149847D01*
X117690474Y-157149847D02*
X117785712Y-157102228D01*
X117785712Y-157102228D02*
X117833331Y-157054608D01*
X118309522Y-156483180D02*
X118309522Y-157149847D01*
X118309522Y-156578418D02*
X118357141Y-156530799D01*
X118357141Y-156530799D02*
X118452379Y-156483180D01*
X118452379Y-156483180D02*
X118595236Y-156483180D01*
X118595236Y-156483180D02*
X118690474Y-156530799D01*
X118690474Y-156530799D02*
X118738093Y-156626037D01*
X118738093Y-156626037D02*
X118738093Y-157149847D01*
X119071427Y-156483180D02*
X119452379Y-156483180D01*
X119214284Y-156149847D02*
X119214284Y-157006989D01*
X119214284Y-157006989D02*
X119261903Y-157102228D01*
X119261903Y-157102228D02*
X119357141Y-157149847D01*
X119357141Y-157149847D02*
X119452379Y-157149847D01*
X120166665Y-157102228D02*
X120071427Y-157149847D01*
X120071427Y-157149847D02*
X119880951Y-157149847D01*
X119880951Y-157149847D02*
X119785713Y-157102228D01*
X119785713Y-157102228D02*
X119738094Y-157006989D01*
X119738094Y-157006989D02*
X119738094Y-156626037D01*
X119738094Y-156626037D02*
X119785713Y-156530799D01*
X119785713Y-156530799D02*
X119880951Y-156483180D01*
X119880951Y-156483180D02*
X120071427Y-156483180D01*
X120071427Y-156483180D02*
X120166665Y-156530799D01*
X120166665Y-156530799D02*
X120214284Y-156626037D01*
X120214284Y-156626037D02*
X120214284Y-156721275D01*
X120214284Y-156721275D02*
X119738094Y-156816513D01*
X120642856Y-157149847D02*
X120642856Y-156483180D01*
X120642856Y-156673656D02*
X120690475Y-156578418D01*
X120690475Y-156578418D02*
X120738094Y-156530799D01*
X120738094Y-156530799D02*
X120833332Y-156483180D01*
X120833332Y-156483180D02*
X120928570Y-156483180D01*
X122166666Y-157149847D02*
X122071428Y-157102228D01*
X122071428Y-157102228D02*
X122023809Y-157006989D01*
X122023809Y-157006989D02*
X122023809Y-156149847D01*
X122690476Y-157149847D02*
X122595238Y-157102228D01*
X122595238Y-157102228D02*
X122547619Y-157054608D01*
X122547619Y-157054608D02*
X122500000Y-156959370D01*
X122500000Y-156959370D02*
X122500000Y-156673656D01*
X122500000Y-156673656D02*
X122547619Y-156578418D01*
X122547619Y-156578418D02*
X122595238Y-156530799D01*
X122595238Y-156530799D02*
X122690476Y-156483180D01*
X122690476Y-156483180D02*
X122833333Y-156483180D01*
X122833333Y-156483180D02*
X122928571Y-156530799D01*
X122928571Y-156530799D02*
X122976190Y-156578418D01*
X122976190Y-156578418D02*
X123023809Y-156673656D01*
X123023809Y-156673656D02*
X123023809Y-156959370D01*
X123023809Y-156959370D02*
X122976190Y-157054608D01*
X122976190Y-157054608D02*
X122928571Y-157102228D01*
X122928571Y-157102228D02*
X122833333Y-157149847D01*
X122833333Y-157149847D02*
X122690476Y-157149847D01*
X123880952Y-156483180D02*
X123880952Y-157292704D01*
X123880952Y-157292704D02*
X123833333Y-157387942D01*
X123833333Y-157387942D02*
X123785714Y-157435561D01*
X123785714Y-157435561D02*
X123690476Y-157483180D01*
X123690476Y-157483180D02*
X123547619Y-157483180D01*
X123547619Y-157483180D02*
X123452381Y-157435561D01*
X123880952Y-157102228D02*
X123785714Y-157149847D01*
X123785714Y-157149847D02*
X123595238Y-157149847D01*
X123595238Y-157149847D02*
X123500000Y-157102228D01*
X123500000Y-157102228D02*
X123452381Y-157054608D01*
X123452381Y-157054608D02*
X123404762Y-156959370D01*
X123404762Y-156959370D02*
X123404762Y-156673656D01*
X123404762Y-156673656D02*
X123452381Y-156578418D01*
X123452381Y-156578418D02*
X123500000Y-156530799D01*
X123500000Y-156530799D02*
X123595238Y-156483180D01*
X123595238Y-156483180D02*
X123785714Y-156483180D01*
X123785714Y-156483180D02*
X123880952Y-156530799D01*
X124357143Y-157149847D02*
X124357143Y-156483180D01*
X124357143Y-156149847D02*
X124309524Y-156197466D01*
X124309524Y-156197466D02*
X124357143Y-156245085D01*
X124357143Y-156245085D02*
X124404762Y-156197466D01*
X124404762Y-156197466D02*
X124357143Y-156149847D01*
X124357143Y-156149847D02*
X124357143Y-156245085D01*
X125261904Y-157102228D02*
X125166666Y-157149847D01*
X125166666Y-157149847D02*
X124976190Y-157149847D01*
X124976190Y-157149847D02*
X124880952Y-157102228D01*
X124880952Y-157102228D02*
X124833333Y-157054608D01*
X124833333Y-157054608D02*
X124785714Y-156959370D01*
X124785714Y-156959370D02*
X124785714Y-156673656D01*
X124785714Y-156673656D02*
X124833333Y-156578418D01*
X124833333Y-156578418D02*
X124880952Y-156530799D01*
X124880952Y-156530799D02*
X124976190Y-156483180D01*
X124976190Y-156483180D02*
X125166666Y-156483180D01*
X125166666Y-156483180D02*
X125261904Y-156530799D01*
X126595238Y-157149847D02*
X126500000Y-157102228D01*
X126500000Y-157102228D02*
X126452381Y-157006989D01*
X126452381Y-157006989D02*
X126452381Y-156149847D01*
X127404762Y-157149847D02*
X127404762Y-156626037D01*
X127404762Y-156626037D02*
X127357143Y-156530799D01*
X127357143Y-156530799D02*
X127261905Y-156483180D01*
X127261905Y-156483180D02*
X127071429Y-156483180D01*
X127071429Y-156483180D02*
X126976191Y-156530799D01*
X127404762Y-157102228D02*
X127309524Y-157149847D01*
X127309524Y-157149847D02*
X127071429Y-157149847D01*
X127071429Y-157149847D02*
X126976191Y-157102228D01*
X126976191Y-157102228D02*
X126928572Y-157006989D01*
X126928572Y-157006989D02*
X126928572Y-156911751D01*
X126928572Y-156911751D02*
X126976191Y-156816513D01*
X126976191Y-156816513D02*
X127071429Y-156768894D01*
X127071429Y-156768894D02*
X127309524Y-156768894D01*
X127309524Y-156768894D02*
X127404762Y-156721275D01*
X127785715Y-156483180D02*
X128023810Y-157149847D01*
X128261905Y-156483180D02*
X128023810Y-157149847D01*
X128023810Y-157149847D02*
X127928572Y-157387942D01*
X127928572Y-157387942D02*
X127880953Y-157435561D01*
X127880953Y-157435561D02*
X127785715Y-157483180D01*
X129023810Y-157102228D02*
X128928572Y-157149847D01*
X128928572Y-157149847D02*
X128738096Y-157149847D01*
X128738096Y-157149847D02*
X128642858Y-157102228D01*
X128642858Y-157102228D02*
X128595239Y-157006989D01*
X128595239Y-157006989D02*
X128595239Y-156626037D01*
X128595239Y-156626037D02*
X128642858Y-156530799D01*
X128642858Y-156530799D02*
X128738096Y-156483180D01*
X128738096Y-156483180D02*
X128928572Y-156483180D01*
X128928572Y-156483180D02*
X129023810Y-156530799D01*
X129023810Y-156530799D02*
X129071429Y-156626037D01*
X129071429Y-156626037D02*
X129071429Y-156721275D01*
X129071429Y-156721275D02*
X128595239Y-156816513D01*
X129500001Y-157149847D02*
X129500001Y-156483180D01*
X129500001Y-156673656D02*
X129547620Y-156578418D01*
X129547620Y-156578418D02*
X129595239Y-156530799D01*
X129595239Y-156530799D02*
X129690477Y-156483180D01*
X129690477Y-156483180D02*
X129785715Y-156483180D01*
X131166668Y-157530799D02*
X131119049Y-157483180D01*
X131119049Y-157483180D02*
X131023811Y-157340323D01*
X131023811Y-157340323D02*
X130976192Y-157245085D01*
X130976192Y-157245085D02*
X130928573Y-157102228D01*
X130928573Y-157102228D02*
X130880954Y-156864132D01*
X130880954Y-156864132D02*
X130880954Y-156673656D01*
X130880954Y-156673656D02*
X130928573Y-156435561D01*
X130928573Y-156435561D02*
X130976192Y-156292704D01*
X130976192Y-156292704D02*
X131023811Y-156197466D01*
X131023811Y-156197466D02*
X131119049Y-156054608D01*
X131119049Y-156054608D02*
X131166668Y-156006989D01*
X131547621Y-157149847D02*
X131547621Y-156149847D01*
X131547621Y-156149847D02*
X131928573Y-156149847D01*
X131928573Y-156149847D02*
X132023811Y-156197466D01*
X132023811Y-156197466D02*
X132071430Y-156245085D01*
X132071430Y-156245085D02*
X132119049Y-156340323D01*
X132119049Y-156340323D02*
X132119049Y-156483180D01*
X132119049Y-156483180D02*
X132071430Y-156578418D01*
X132071430Y-156578418D02*
X132023811Y-156626037D01*
X132023811Y-156626037D02*
X131928573Y-156673656D01*
X131928573Y-156673656D02*
X131547621Y-156673656D01*
X133119049Y-157054608D02*
X133071430Y-157102228D01*
X133071430Y-157102228D02*
X132928573Y-157149847D01*
X132928573Y-157149847D02*
X132833335Y-157149847D01*
X132833335Y-157149847D02*
X132690478Y-157102228D01*
X132690478Y-157102228D02*
X132595240Y-157006989D01*
X132595240Y-157006989D02*
X132547621Y-156911751D01*
X132547621Y-156911751D02*
X132500002Y-156721275D01*
X132500002Y-156721275D02*
X132500002Y-156578418D01*
X132500002Y-156578418D02*
X132547621Y-156387942D01*
X132547621Y-156387942D02*
X132595240Y-156292704D01*
X132595240Y-156292704D02*
X132690478Y-156197466D01*
X132690478Y-156197466D02*
X132833335Y-156149847D01*
X132833335Y-156149847D02*
X132928573Y-156149847D01*
X132928573Y-156149847D02*
X133071430Y-156197466D01*
X133071430Y-156197466D02*
X133119049Y-156245085D01*
X133880954Y-156626037D02*
X134023811Y-156673656D01*
X134023811Y-156673656D02*
X134071430Y-156721275D01*
X134071430Y-156721275D02*
X134119049Y-156816513D01*
X134119049Y-156816513D02*
X134119049Y-156959370D01*
X134119049Y-156959370D02*
X134071430Y-157054608D01*
X134071430Y-157054608D02*
X134023811Y-157102228D01*
X134023811Y-157102228D02*
X133928573Y-157149847D01*
X133928573Y-157149847D02*
X133547621Y-157149847D01*
X133547621Y-157149847D02*
X133547621Y-156149847D01*
X133547621Y-156149847D02*
X133880954Y-156149847D01*
X133880954Y-156149847D02*
X133976192Y-156197466D01*
X133976192Y-156197466D02*
X134023811Y-156245085D01*
X134023811Y-156245085D02*
X134071430Y-156340323D01*
X134071430Y-156340323D02*
X134071430Y-156435561D01*
X134071430Y-156435561D02*
X134023811Y-156530799D01*
X134023811Y-156530799D02*
X133976192Y-156578418D01*
X133976192Y-156578418D02*
X133880954Y-156626037D01*
X133880954Y-156626037D02*
X133547621Y-156626037D01*
X135214288Y-156483180D02*
X135452383Y-157149847D01*
X135452383Y-157149847D02*
X135690478Y-156483180D01*
X136261907Y-156149847D02*
X136357145Y-156149847D01*
X136357145Y-156149847D02*
X136452383Y-156197466D01*
X136452383Y-156197466D02*
X136500002Y-156245085D01*
X136500002Y-156245085D02*
X136547621Y-156340323D01*
X136547621Y-156340323D02*
X136595240Y-156530799D01*
X136595240Y-156530799D02*
X136595240Y-156768894D01*
X136595240Y-156768894D02*
X136547621Y-156959370D01*
X136547621Y-156959370D02*
X136500002Y-157054608D01*
X136500002Y-157054608D02*
X136452383Y-157102228D01*
X136452383Y-157102228D02*
X136357145Y-157149847D01*
X136357145Y-157149847D02*
X136261907Y-157149847D01*
X136261907Y-157149847D02*
X136166669Y-157102228D01*
X136166669Y-157102228D02*
X136119050Y-157054608D01*
X136119050Y-157054608D02*
X136071431Y-156959370D01*
X136071431Y-156959370D02*
X136023812Y-156768894D01*
X136023812Y-156768894D02*
X136023812Y-156530799D01*
X136023812Y-156530799D02*
X136071431Y-156340323D01*
X136071431Y-156340323D02*
X136119050Y-156245085D01*
X136119050Y-156245085D02*
X136166669Y-156197466D01*
X136166669Y-156197466D02*
X136261907Y-156149847D01*
X137023812Y-157054608D02*
X137071431Y-157102228D01*
X137071431Y-157102228D02*
X137023812Y-157149847D01*
X137023812Y-157149847D02*
X136976193Y-157102228D01*
X136976193Y-157102228D02*
X137023812Y-157054608D01*
X137023812Y-157054608D02*
X137023812Y-157149847D01*
X137452383Y-156245085D02*
X137500002Y-156197466D01*
X137500002Y-156197466D02*
X137595240Y-156149847D01*
X137595240Y-156149847D02*
X137833335Y-156149847D01*
X137833335Y-156149847D02*
X137928573Y-156197466D01*
X137928573Y-156197466D02*
X137976192Y-156245085D01*
X137976192Y-156245085D02*
X138023811Y-156340323D01*
X138023811Y-156340323D02*
X138023811Y-156435561D01*
X138023811Y-156435561D02*
X137976192Y-156578418D01*
X137976192Y-156578418D02*
X137404764Y-157149847D01*
X137404764Y-157149847D02*
X138023811Y-157149847D01*
X138357145Y-157530799D02*
X138404764Y-157483180D01*
X138404764Y-157483180D02*
X138500002Y-157340323D01*
X138500002Y-157340323D02*
X138547621Y-157245085D01*
X138547621Y-157245085D02*
X138595240Y-157102228D01*
X138595240Y-157102228D02*
X138642859Y-156864132D01*
X138642859Y-156864132D02*
X138642859Y-156673656D01*
X138642859Y-156673656D02*
X138595240Y-156435561D01*
X138595240Y-156435561D02*
X138547621Y-156292704D01*
X138547621Y-156292704D02*
X138500002Y-156197466D01*
X138500002Y-156197466D02*
X138404764Y-156054608D01*
X138404764Y-156054608D02*
X138357145Y-156006989D01*
X113333332Y-158093124D02*
X113333332Y-158902648D01*
X113333332Y-158902648D02*
X113285713Y-158997886D01*
X113285713Y-158997886D02*
X113238094Y-159045505D01*
X113238094Y-159045505D02*
X113142856Y-159093124D01*
X113142856Y-159093124D02*
X112999999Y-159093124D01*
X112999999Y-159093124D02*
X112904761Y-159045505D01*
X113333332Y-158712172D02*
X113238094Y-158759791D01*
X113238094Y-158759791D02*
X113047618Y-158759791D01*
X113047618Y-158759791D02*
X112952380Y-158712172D01*
X112952380Y-158712172D02*
X112904761Y-158664552D01*
X112904761Y-158664552D02*
X112857142Y-158569314D01*
X112857142Y-158569314D02*
X112857142Y-158283600D01*
X112857142Y-158283600D02*
X112904761Y-158188362D01*
X112904761Y-158188362D02*
X112952380Y-158140743D01*
X112952380Y-158140743D02*
X113047618Y-158093124D01*
X113047618Y-158093124D02*
X113238094Y-158093124D01*
X113238094Y-158093124D02*
X113333332Y-158140743D01*
X113809523Y-158759791D02*
X113809523Y-158093124D01*
X113809523Y-157759791D02*
X113761904Y-157807410D01*
X113761904Y-157807410D02*
X113809523Y-157855029D01*
X113809523Y-157855029D02*
X113857142Y-157807410D01*
X113857142Y-157807410D02*
X113809523Y-157759791D01*
X113809523Y-157759791D02*
X113809523Y-157855029D01*
X114142856Y-158093124D02*
X114523808Y-158093124D01*
X114285713Y-157759791D02*
X114285713Y-158616933D01*
X114285713Y-158616933D02*
X114333332Y-158712172D01*
X114333332Y-158712172D02*
X114428570Y-158759791D01*
X114428570Y-158759791D02*
X114523808Y-158759791D01*
X114857142Y-158759791D02*
X114857142Y-157759791D01*
X115285713Y-158759791D02*
X115285713Y-158235981D01*
X115285713Y-158235981D02*
X115238094Y-158140743D01*
X115238094Y-158140743D02*
X115142856Y-158093124D01*
X115142856Y-158093124D02*
X114999999Y-158093124D01*
X114999999Y-158093124D02*
X114904761Y-158140743D01*
X114904761Y-158140743D02*
X114857142Y-158188362D01*
X116190475Y-158093124D02*
X116190475Y-158759791D01*
X115761904Y-158093124D02*
X115761904Y-158616933D01*
X115761904Y-158616933D02*
X115809523Y-158712172D01*
X115809523Y-158712172D02*
X115904761Y-158759791D01*
X115904761Y-158759791D02*
X116047618Y-158759791D01*
X116047618Y-158759791D02*
X116142856Y-158712172D01*
X116142856Y-158712172D02*
X116190475Y-158664552D01*
X116666666Y-158759791D02*
X116666666Y-157759791D01*
X116666666Y-158140743D02*
X116761904Y-158093124D01*
X116761904Y-158093124D02*
X116952380Y-158093124D01*
X116952380Y-158093124D02*
X117047618Y-158140743D01*
X117047618Y-158140743D02*
X117095237Y-158188362D01*
X117095237Y-158188362D02*
X117142856Y-158283600D01*
X117142856Y-158283600D02*
X117142856Y-158569314D01*
X117142856Y-158569314D02*
X117095237Y-158664552D01*
X117095237Y-158664552D02*
X117047618Y-158712172D01*
X117047618Y-158712172D02*
X116952380Y-158759791D01*
X116952380Y-158759791D02*
X116761904Y-158759791D01*
X116761904Y-158759791D02*
X116666666Y-158712172D01*
X117571428Y-158664552D02*
X117619047Y-158712172D01*
X117619047Y-158712172D02*
X117571428Y-158759791D01*
X117571428Y-158759791D02*
X117523809Y-158712172D01*
X117523809Y-158712172D02*
X117571428Y-158664552D01*
X117571428Y-158664552D02*
X117571428Y-158759791D01*
X118476189Y-158712172D02*
X118380951Y-158759791D01*
X118380951Y-158759791D02*
X118190475Y-158759791D01*
X118190475Y-158759791D02*
X118095237Y-158712172D01*
X118095237Y-158712172D02*
X118047618Y-158664552D01*
X118047618Y-158664552D02*
X117999999Y-158569314D01*
X117999999Y-158569314D02*
X117999999Y-158283600D01*
X117999999Y-158283600D02*
X118047618Y-158188362D01*
X118047618Y-158188362D02*
X118095237Y-158140743D01*
X118095237Y-158140743D02*
X118190475Y-158093124D01*
X118190475Y-158093124D02*
X118380951Y-158093124D01*
X118380951Y-158093124D02*
X118476189Y-158140743D01*
X119047618Y-158759791D02*
X118952380Y-158712172D01*
X118952380Y-158712172D02*
X118904761Y-158664552D01*
X118904761Y-158664552D02*
X118857142Y-158569314D01*
X118857142Y-158569314D02*
X118857142Y-158283600D01*
X118857142Y-158283600D02*
X118904761Y-158188362D01*
X118904761Y-158188362D02*
X118952380Y-158140743D01*
X118952380Y-158140743D02*
X119047618Y-158093124D01*
X119047618Y-158093124D02*
X119190475Y-158093124D01*
X119190475Y-158093124D02*
X119285713Y-158140743D01*
X119285713Y-158140743D02*
X119333332Y-158188362D01*
X119333332Y-158188362D02*
X119380951Y-158283600D01*
X119380951Y-158283600D02*
X119380951Y-158569314D01*
X119380951Y-158569314D02*
X119333332Y-158664552D01*
X119333332Y-158664552D02*
X119285713Y-158712172D01*
X119285713Y-158712172D02*
X119190475Y-158759791D01*
X119190475Y-158759791D02*
X119047618Y-158759791D01*
X119809523Y-158759791D02*
X119809523Y-158093124D01*
X119809523Y-158188362D02*
X119857142Y-158140743D01*
X119857142Y-158140743D02*
X119952380Y-158093124D01*
X119952380Y-158093124D02*
X120095237Y-158093124D01*
X120095237Y-158093124D02*
X120190475Y-158140743D01*
X120190475Y-158140743D02*
X120238094Y-158235981D01*
X120238094Y-158235981D02*
X120238094Y-158759791D01*
X120238094Y-158235981D02*
X120285713Y-158140743D01*
X120285713Y-158140743D02*
X120380951Y-158093124D01*
X120380951Y-158093124D02*
X120523808Y-158093124D01*
X120523808Y-158093124D02*
X120619047Y-158140743D01*
X120619047Y-158140743D02*
X120666666Y-158235981D01*
X120666666Y-158235981D02*
X120666666Y-158759791D01*
X121857141Y-157712172D02*
X120999999Y-158997886D01*
X122619046Y-158093124D02*
X122619046Y-158902648D01*
X122619046Y-158902648D02*
X122571427Y-158997886D01*
X122571427Y-158997886D02*
X122523808Y-159045505D01*
X122523808Y-159045505D02*
X122428570Y-159093124D01*
X122428570Y-159093124D02*
X122285713Y-159093124D01*
X122285713Y-159093124D02*
X122190475Y-159045505D01*
X122619046Y-158712172D02*
X122523808Y-158759791D01*
X122523808Y-158759791D02*
X122333332Y-158759791D01*
X122333332Y-158759791D02*
X122238094Y-158712172D01*
X122238094Y-158712172D02*
X122190475Y-158664552D01*
X122190475Y-158664552D02*
X122142856Y-158569314D01*
X122142856Y-158569314D02*
X122142856Y-158283600D01*
X122142856Y-158283600D02*
X122190475Y-158188362D01*
X122190475Y-158188362D02*
X122238094Y-158140743D01*
X122238094Y-158140743D02*
X122333332Y-158093124D01*
X122333332Y-158093124D02*
X122523808Y-158093124D01*
X122523808Y-158093124D02*
X122619046Y-158140743D01*
X123523808Y-158093124D02*
X123523808Y-158759791D01*
X123095237Y-158093124D02*
X123095237Y-158616933D01*
X123095237Y-158616933D02*
X123142856Y-158712172D01*
X123142856Y-158712172D02*
X123238094Y-158759791D01*
X123238094Y-158759791D02*
X123380951Y-158759791D01*
X123380951Y-158759791D02*
X123476189Y-158712172D01*
X123476189Y-158712172D02*
X123523808Y-158664552D01*
X123999999Y-158759791D02*
X123999999Y-158093124D01*
X123999999Y-157759791D02*
X123952380Y-157807410D01*
X123952380Y-157807410D02*
X123999999Y-157855029D01*
X123999999Y-157855029D02*
X124047618Y-157807410D01*
X124047618Y-157807410D02*
X123999999Y-157759791D01*
X123999999Y-157759791D02*
X123999999Y-157855029D01*
X124904760Y-158759791D02*
X124904760Y-157759791D01*
X124904760Y-158712172D02*
X124809522Y-158759791D01*
X124809522Y-158759791D02*
X124619046Y-158759791D01*
X124619046Y-158759791D02*
X124523808Y-158712172D01*
X124523808Y-158712172D02*
X124476189Y-158664552D01*
X124476189Y-158664552D02*
X124428570Y-158569314D01*
X124428570Y-158569314D02*
X124428570Y-158283600D01*
X124428570Y-158283600D02*
X124476189Y-158188362D01*
X124476189Y-158188362D02*
X124523808Y-158140743D01*
X124523808Y-158140743D02*
X124619046Y-158093124D01*
X124619046Y-158093124D02*
X124809522Y-158093124D01*
X124809522Y-158093124D02*
X124904760Y-158140743D01*
X125523808Y-158759791D02*
X125428570Y-158712172D01*
X125428570Y-158712172D02*
X125380951Y-158664552D01*
X125380951Y-158664552D02*
X125333332Y-158569314D01*
X125333332Y-158569314D02*
X125333332Y-158283600D01*
X125333332Y-158283600D02*
X125380951Y-158188362D01*
X125380951Y-158188362D02*
X125428570Y-158140743D01*
X125428570Y-158140743D02*
X125523808Y-158093124D01*
X125523808Y-158093124D02*
X125666665Y-158093124D01*
X125666665Y-158093124D02*
X125761903Y-158140743D01*
X125761903Y-158140743D02*
X125809522Y-158188362D01*
X125809522Y-158188362D02*
X125857141Y-158283600D01*
X125857141Y-158283600D02*
X125857141Y-158569314D01*
X125857141Y-158569314D02*
X125809522Y-158664552D01*
X125809522Y-158664552D02*
X125761903Y-158712172D01*
X125761903Y-158712172D02*
X125666665Y-158759791D01*
X125666665Y-158759791D02*
X125523808Y-158759791D01*
X126238094Y-158712172D02*
X126333332Y-158759791D01*
X126333332Y-158759791D02*
X126523808Y-158759791D01*
X126523808Y-158759791D02*
X126619046Y-158712172D01*
X126619046Y-158712172D02*
X126666665Y-158616933D01*
X126666665Y-158616933D02*
X126666665Y-158569314D01*
X126666665Y-158569314D02*
X126619046Y-158474076D01*
X126619046Y-158474076D02*
X126523808Y-158426457D01*
X126523808Y-158426457D02*
X126380951Y-158426457D01*
X126380951Y-158426457D02*
X126285713Y-158378838D01*
X126285713Y-158378838D02*
X126238094Y-158283600D01*
X126238094Y-158283600D02*
X126238094Y-158235981D01*
X126238094Y-158235981D02*
X126285713Y-158140743D01*
X126285713Y-158140743D02*
X126380951Y-158093124D01*
X126380951Y-158093124D02*
X126523808Y-158093124D01*
X126523808Y-158093124D02*
X126619046Y-158140743D01*
X127523808Y-158712172D02*
X127428570Y-158759791D01*
X127428570Y-158759791D02*
X127238094Y-158759791D01*
X127238094Y-158759791D02*
X127142856Y-158712172D01*
X127142856Y-158712172D02*
X127095237Y-158664552D01*
X127095237Y-158664552D02*
X127047618Y-158569314D01*
X127047618Y-158569314D02*
X127047618Y-158283600D01*
X127047618Y-158283600D02*
X127095237Y-158188362D01*
X127095237Y-158188362D02*
X127142856Y-158140743D01*
X127142856Y-158140743D02*
X127238094Y-158093124D01*
X127238094Y-158093124D02*
X127428570Y-158093124D01*
X127428570Y-158093124D02*
X127523808Y-158140743D01*
X127952380Y-158759791D02*
X127952380Y-157759791D01*
X128380951Y-158759791D02*
X128380951Y-158235981D01*
X128380951Y-158235981D02*
X128333332Y-158140743D01*
X128333332Y-158140743D02*
X128238094Y-158093124D01*
X128238094Y-158093124D02*
X128095237Y-158093124D01*
X128095237Y-158093124D02*
X127999999Y-158140743D01*
X127999999Y-158140743D02*
X127952380Y-158188362D01*
X129571427Y-157712172D02*
X128714285Y-158997886D01*
X129904761Y-158759791D02*
X129904761Y-157759791D01*
X129904761Y-158140743D02*
X129999999Y-158093124D01*
X129999999Y-158093124D02*
X130190475Y-158093124D01*
X130190475Y-158093124D02*
X130285713Y-158140743D01*
X130285713Y-158140743D02*
X130333332Y-158188362D01*
X130333332Y-158188362D02*
X130380951Y-158283600D01*
X130380951Y-158283600D02*
X130380951Y-158569314D01*
X130380951Y-158569314D02*
X130333332Y-158664552D01*
X130333332Y-158664552D02*
X130285713Y-158712172D01*
X130285713Y-158712172D02*
X130190475Y-158759791D01*
X130190475Y-158759791D02*
X129999999Y-158759791D01*
X129999999Y-158759791D02*
X129904761Y-158712172D01*
X130809523Y-158759791D02*
X130809523Y-158093124D01*
X130809523Y-157759791D02*
X130761904Y-157807410D01*
X130761904Y-157807410D02*
X130809523Y-157855029D01*
X130809523Y-157855029D02*
X130857142Y-157807410D01*
X130857142Y-157807410D02*
X130809523Y-157759791D01*
X130809523Y-157759791D02*
X130809523Y-157855029D01*
X131285713Y-158759791D02*
X131285713Y-157759791D01*
X131380951Y-158378838D02*
X131666665Y-158759791D01*
X131666665Y-158093124D02*
X131285713Y-158474076D01*
X132476189Y-158712172D02*
X132380951Y-158759791D01*
X132380951Y-158759791D02*
X132190475Y-158759791D01*
X132190475Y-158759791D02*
X132095237Y-158712172D01*
X132095237Y-158712172D02*
X132047618Y-158616933D01*
X132047618Y-158616933D02*
X132047618Y-158235981D01*
X132047618Y-158235981D02*
X132095237Y-158140743D01*
X132095237Y-158140743D02*
X132190475Y-158093124D01*
X132190475Y-158093124D02*
X132380951Y-158093124D01*
X132380951Y-158093124D02*
X132476189Y-158140743D01*
X132476189Y-158140743D02*
X132523808Y-158235981D01*
X132523808Y-158235981D02*
X132523808Y-158331219D01*
X132523808Y-158331219D02*
X132047618Y-158426457D01*
X133380951Y-158712172D02*
X133285713Y-158759791D01*
X133285713Y-158759791D02*
X133095237Y-158759791D01*
X133095237Y-158759791D02*
X132999999Y-158712172D01*
X132999999Y-158712172D02*
X132952380Y-158664552D01*
X132952380Y-158664552D02*
X132904761Y-158569314D01*
X132904761Y-158569314D02*
X132904761Y-158283600D01*
X132904761Y-158283600D02*
X132952380Y-158188362D01*
X132952380Y-158188362D02*
X132999999Y-158140743D01*
X132999999Y-158140743D02*
X133095237Y-158093124D01*
X133095237Y-158093124D02*
X133285713Y-158093124D01*
X133285713Y-158093124D02*
X133380951Y-158140743D01*
X133952380Y-158759791D02*
X133857142Y-158712172D01*
X133857142Y-158712172D02*
X133809523Y-158664552D01*
X133809523Y-158664552D02*
X133761904Y-158569314D01*
X133761904Y-158569314D02*
X133761904Y-158283600D01*
X133761904Y-158283600D02*
X133809523Y-158188362D01*
X133809523Y-158188362D02*
X133857142Y-158140743D01*
X133857142Y-158140743D02*
X133952380Y-158093124D01*
X133952380Y-158093124D02*
X134095237Y-158093124D01*
X134095237Y-158093124D02*
X134190475Y-158140743D01*
X134190475Y-158140743D02*
X134238094Y-158188362D01*
X134238094Y-158188362D02*
X134285713Y-158283600D01*
X134285713Y-158283600D02*
X134285713Y-158569314D01*
X134285713Y-158569314D02*
X134238094Y-158664552D01*
X134238094Y-158664552D02*
X134190475Y-158712172D01*
X134190475Y-158712172D02*
X134095237Y-158759791D01*
X134095237Y-158759791D02*
X133952380Y-158759791D01*
X135142856Y-158093124D02*
X135142856Y-158759791D01*
X134714285Y-158093124D02*
X134714285Y-158616933D01*
X134714285Y-158616933D02*
X134761904Y-158712172D01*
X134761904Y-158712172D02*
X134857142Y-158759791D01*
X134857142Y-158759791D02*
X134999999Y-158759791D01*
X134999999Y-158759791D02*
X135095237Y-158712172D01*
X135095237Y-158712172D02*
X135142856Y-158664552D01*
X135619047Y-158093124D02*
X135619047Y-158759791D01*
X135619047Y-158188362D02*
X135666666Y-158140743D01*
X135666666Y-158140743D02*
X135761904Y-158093124D01*
X135761904Y-158093124D02*
X135904761Y-158093124D01*
X135904761Y-158093124D02*
X135999999Y-158140743D01*
X135999999Y-158140743D02*
X136047618Y-158235981D01*
X136047618Y-158235981D02*
X136047618Y-158759791D01*
X136380952Y-158093124D02*
X136761904Y-158093124D01*
X136523809Y-157759791D02*
X136523809Y-158616933D01*
X136523809Y-158616933D02*
X136571428Y-158712172D01*
X136571428Y-158712172D02*
X136666666Y-158759791D01*
X136666666Y-158759791D02*
X136761904Y-158759791D01*
X137476190Y-158712172D02*
X137380952Y-158759791D01*
X137380952Y-158759791D02*
X137190476Y-158759791D01*
X137190476Y-158759791D02*
X137095238Y-158712172D01*
X137095238Y-158712172D02*
X137047619Y-158616933D01*
X137047619Y-158616933D02*
X137047619Y-158235981D01*
X137047619Y-158235981D02*
X137095238Y-158140743D01*
X137095238Y-158140743D02*
X137190476Y-158093124D01*
X137190476Y-158093124D02*
X137380952Y-158093124D01*
X137380952Y-158093124D02*
X137476190Y-158140743D01*
X137476190Y-158140743D02*
X137523809Y-158235981D01*
X137523809Y-158235981D02*
X137523809Y-158331219D01*
X137523809Y-158331219D02*
X137047619Y-158426457D01*
X137952381Y-158759791D02*
X137952381Y-158093124D01*
X137952381Y-158283600D02*
X138000000Y-158188362D01*
X138000000Y-158188362D02*
X138047619Y-158140743D01*
X138047619Y-158140743D02*
X138142857Y-158093124D01*
X138142857Y-158093124D02*
X138238095Y-158093124D01*
X40698571Y-137494819D02*
X40698571Y-136494819D01*
X40698571Y-137447200D02*
X40603333Y-137494819D01*
X40603333Y-137494819D02*
X40412857Y-137494819D01*
X40412857Y-137494819D02*
X40317619Y-137447200D01*
X40317619Y-137447200D02*
X40270000Y-137399580D01*
X40270000Y-137399580D02*
X40222381Y-137304342D01*
X40222381Y-137304342D02*
X40222381Y-137018628D01*
X40222381Y-137018628D02*
X40270000Y-136923390D01*
X40270000Y-136923390D02*
X40317619Y-136875771D01*
X40317619Y-136875771D02*
X40412857Y-136828152D01*
X40412857Y-136828152D02*
X40603333Y-136828152D01*
X40603333Y-136828152D02*
X40698571Y-136875771D01*
X41555714Y-137447200D02*
X41460476Y-137494819D01*
X41460476Y-137494819D02*
X41270000Y-137494819D01*
X41270000Y-137494819D02*
X41174762Y-137447200D01*
X41174762Y-137447200D02*
X41127143Y-137351961D01*
X41127143Y-137351961D02*
X41127143Y-136971009D01*
X41127143Y-136971009D02*
X41174762Y-136875771D01*
X41174762Y-136875771D02*
X41270000Y-136828152D01*
X41270000Y-136828152D02*
X41460476Y-136828152D01*
X41460476Y-136828152D02*
X41555714Y-136875771D01*
X41555714Y-136875771D02*
X41603333Y-136971009D01*
X41603333Y-136971009D02*
X41603333Y-137066247D01*
X41603333Y-137066247D02*
X41127143Y-137161485D01*
X42031905Y-137494819D02*
X42031905Y-136494819D01*
X42031905Y-136875771D02*
X42127143Y-136828152D01*
X42127143Y-136828152D02*
X42317619Y-136828152D01*
X42317619Y-136828152D02*
X42412857Y-136875771D01*
X42412857Y-136875771D02*
X42460476Y-136923390D01*
X42460476Y-136923390D02*
X42508095Y-137018628D01*
X42508095Y-137018628D02*
X42508095Y-137304342D01*
X42508095Y-137304342D02*
X42460476Y-137399580D01*
X42460476Y-137399580D02*
X42412857Y-137447200D01*
X42412857Y-137447200D02*
X42317619Y-137494819D01*
X42317619Y-137494819D02*
X42127143Y-137494819D01*
X42127143Y-137494819D02*
X42031905Y-137447200D01*
X43365238Y-136828152D02*
X43365238Y-137494819D01*
X42936667Y-136828152D02*
X42936667Y-137351961D01*
X42936667Y-137351961D02*
X42984286Y-137447200D01*
X42984286Y-137447200D02*
X43079524Y-137494819D01*
X43079524Y-137494819D02*
X43222381Y-137494819D01*
X43222381Y-137494819D02*
X43317619Y-137447200D01*
X43317619Y-137447200D02*
X43365238Y-137399580D01*
X44270000Y-136828152D02*
X44270000Y-137637676D01*
X44270000Y-137637676D02*
X44222381Y-137732914D01*
X44222381Y-137732914D02*
X44174762Y-137780533D01*
X44174762Y-137780533D02*
X44079524Y-137828152D01*
X44079524Y-137828152D02*
X43936667Y-137828152D01*
X43936667Y-137828152D02*
X43841429Y-137780533D01*
X44270000Y-137447200D02*
X44174762Y-137494819D01*
X44174762Y-137494819D02*
X43984286Y-137494819D01*
X43984286Y-137494819D02*
X43889048Y-137447200D01*
X43889048Y-137447200D02*
X43841429Y-137399580D01*
X43841429Y-137399580D02*
X43793810Y-137304342D01*
X43793810Y-137304342D02*
X43793810Y-137018628D01*
X43793810Y-137018628D02*
X43841429Y-136923390D01*
X43841429Y-136923390D02*
X43889048Y-136875771D01*
X43889048Y-136875771D02*
X43984286Y-136828152D01*
X43984286Y-136828152D02*
X44174762Y-136828152D01*
X44174762Y-136828152D02*
X44270000Y-136875771D01*
X114523810Y-148454819D02*
X114523810Y-147454819D01*
X114523810Y-147454819D02*
X114904762Y-147454819D01*
X114904762Y-147454819D02*
X115000000Y-147502438D01*
X115000000Y-147502438D02*
X115047619Y-147550057D01*
X115047619Y-147550057D02*
X115095238Y-147645295D01*
X115095238Y-147645295D02*
X115095238Y-147788152D01*
X115095238Y-147788152D02*
X115047619Y-147883390D01*
X115047619Y-147883390D02*
X115000000Y-147931009D01*
X115000000Y-147931009D02*
X114904762Y-147978628D01*
X114904762Y-147978628D02*
X114523810Y-147978628D01*
X115523810Y-148454819D02*
X115523810Y-147454819D01*
X116571428Y-148454819D02*
X116238095Y-147978628D01*
X116000000Y-148454819D02*
X116000000Y-147454819D01*
X116000000Y-147454819D02*
X116380952Y-147454819D01*
X116380952Y-147454819D02*
X116476190Y-147502438D01*
X116476190Y-147502438D02*
X116523809Y-147550057D01*
X116523809Y-147550057D02*
X116571428Y-147645295D01*
X116571428Y-147645295D02*
X116571428Y-147788152D01*
X116571428Y-147788152D02*
X116523809Y-147883390D01*
X116523809Y-147883390D02*
X116476190Y-147931009D01*
X116476190Y-147931009D02*
X116380952Y-147978628D01*
X116380952Y-147978628D02*
X116000000Y-147978628D01*
X116952381Y-147550057D02*
X117000000Y-147502438D01*
X117000000Y-147502438D02*
X117095238Y-147454819D01*
X117095238Y-147454819D02*
X117333333Y-147454819D01*
X117333333Y-147454819D02*
X117428571Y-147502438D01*
X117428571Y-147502438D02*
X117476190Y-147550057D01*
X117476190Y-147550057D02*
X117523809Y-147645295D01*
X117523809Y-147645295D02*
X117523809Y-147740533D01*
X117523809Y-147740533D02*
X117476190Y-147883390D01*
X117476190Y-147883390D02*
X116904762Y-148454819D01*
X116904762Y-148454819D02*
X117523809Y-148454819D01*
X67502668Y-137382989D02*
X67169335Y-136906798D01*
X66931240Y-137382989D02*
X66931240Y-136382989D01*
X66931240Y-136382989D02*
X67312192Y-136382989D01*
X67312192Y-136382989D02*
X67407430Y-136430608D01*
X67407430Y-136430608D02*
X67455049Y-136478227D01*
X67455049Y-136478227D02*
X67502668Y-136573465D01*
X67502668Y-136573465D02*
X67502668Y-136716322D01*
X67502668Y-136716322D02*
X67455049Y-136811560D01*
X67455049Y-136811560D02*
X67407430Y-136859179D01*
X67407430Y-136859179D02*
X67312192Y-136906798D01*
X67312192Y-136906798D02*
X66931240Y-136906798D01*
X67836002Y-136382989D02*
X68502668Y-136382989D01*
X68502668Y-136382989D02*
X68074097Y-137382989D01*
X67502668Y-135096989D02*
X67169335Y-134620798D01*
X66931240Y-135096989D02*
X66931240Y-134096989D01*
X66931240Y-134096989D02*
X67312192Y-134096989D01*
X67312192Y-134096989D02*
X67407430Y-134144608D01*
X67407430Y-134144608D02*
X67455049Y-134192227D01*
X67455049Y-134192227D02*
X67502668Y-134287465D01*
X67502668Y-134287465D02*
X67502668Y-134430322D01*
X67502668Y-134430322D02*
X67455049Y-134525560D01*
X67455049Y-134525560D02*
X67407430Y-134573179D01*
X67407430Y-134573179D02*
X67312192Y-134620798D01*
X67312192Y-134620798D02*
X66931240Y-134620798D01*
X68359811Y-134096989D02*
X68169335Y-134096989D01*
X68169335Y-134096989D02*
X68074097Y-134144608D01*
X68074097Y-134144608D02*
X68026478Y-134192227D01*
X68026478Y-134192227D02*
X67931240Y-134335084D01*
X67931240Y-134335084D02*
X67883621Y-134525560D01*
X67883621Y-134525560D02*
X67883621Y-134906512D01*
X67883621Y-134906512D02*
X67931240Y-135001750D01*
X67931240Y-135001750D02*
X67978859Y-135049370D01*
X67978859Y-135049370D02*
X68074097Y-135096989D01*
X68074097Y-135096989D02*
X68264573Y-135096989D01*
X68264573Y-135096989D02*
X68359811Y-135049370D01*
X68359811Y-135049370D02*
X68407430Y-135001750D01*
X68407430Y-135001750D02*
X68455049Y-134906512D01*
X68455049Y-134906512D02*
X68455049Y-134668417D01*
X68455049Y-134668417D02*
X68407430Y-134573179D01*
X68407430Y-134573179D02*
X68359811Y-134525560D01*
X68359811Y-134525560D02*
X68264573Y-134477941D01*
X68264573Y-134477941D02*
X68074097Y-134477941D01*
X68074097Y-134477941D02*
X67978859Y-134525560D01*
X67978859Y-134525560D02*
X67931240Y-134573179D01*
X67931240Y-134573179D02*
X67883621Y-134668417D01*
X74906095Y-123173819D02*
X74906095Y-123983342D01*
X74906095Y-123983342D02*
X74953714Y-124078580D01*
X74953714Y-124078580D02*
X75001333Y-124126200D01*
X75001333Y-124126200D02*
X75096571Y-124173819D01*
X75096571Y-124173819D02*
X75287047Y-124173819D01*
X75287047Y-124173819D02*
X75382285Y-124126200D01*
X75382285Y-124126200D02*
X75429904Y-124078580D01*
X75429904Y-124078580D02*
X75477523Y-123983342D01*
X75477523Y-123983342D02*
X75477523Y-123173819D01*
X75906095Y-124126200D02*
X76048952Y-124173819D01*
X76048952Y-124173819D02*
X76287047Y-124173819D01*
X76287047Y-124173819D02*
X76382285Y-124126200D01*
X76382285Y-124126200D02*
X76429904Y-124078580D01*
X76429904Y-124078580D02*
X76477523Y-123983342D01*
X76477523Y-123983342D02*
X76477523Y-123888104D01*
X76477523Y-123888104D02*
X76429904Y-123792866D01*
X76429904Y-123792866D02*
X76382285Y-123745247D01*
X76382285Y-123745247D02*
X76287047Y-123697628D01*
X76287047Y-123697628D02*
X76096571Y-123650009D01*
X76096571Y-123650009D02*
X76001333Y-123602390D01*
X76001333Y-123602390D02*
X75953714Y-123554771D01*
X75953714Y-123554771D02*
X75906095Y-123459533D01*
X75906095Y-123459533D02*
X75906095Y-123364295D01*
X75906095Y-123364295D02*
X75953714Y-123269057D01*
X75953714Y-123269057D02*
X76001333Y-123221438D01*
X76001333Y-123221438D02*
X76096571Y-123173819D01*
X76096571Y-123173819D02*
X76334666Y-123173819D01*
X76334666Y-123173819D02*
X76477523Y-123221438D01*
X77239428Y-123650009D02*
X77382285Y-123697628D01*
X77382285Y-123697628D02*
X77429904Y-123745247D01*
X77429904Y-123745247D02*
X77477523Y-123840485D01*
X77477523Y-123840485D02*
X77477523Y-123983342D01*
X77477523Y-123983342D02*
X77429904Y-124078580D01*
X77429904Y-124078580D02*
X77382285Y-124126200D01*
X77382285Y-124126200D02*
X77287047Y-124173819D01*
X77287047Y-124173819D02*
X76906095Y-124173819D01*
X76906095Y-124173819D02*
X76906095Y-123173819D01*
X76906095Y-123173819D02*
X77239428Y-123173819D01*
X77239428Y-123173819D02*
X77334666Y-123221438D01*
X77334666Y-123221438D02*
X77382285Y-123269057D01*
X77382285Y-123269057D02*
X77429904Y-123364295D01*
X77429904Y-123364295D02*
X77429904Y-123459533D01*
X77429904Y-123459533D02*
X77382285Y-123554771D01*
X77382285Y-123554771D02*
X77334666Y-123602390D01*
X77334666Y-123602390D02*
X77239428Y-123650009D01*
X77239428Y-123650009D02*
X76906095Y-123650009D01*
X89695580Y-136641666D02*
X89743200Y-136689285D01*
X89743200Y-136689285D02*
X89790819Y-136832142D01*
X89790819Y-136832142D02*
X89790819Y-136927380D01*
X89790819Y-136927380D02*
X89743200Y-137070237D01*
X89743200Y-137070237D02*
X89647961Y-137165475D01*
X89647961Y-137165475D02*
X89552723Y-137213094D01*
X89552723Y-137213094D02*
X89362247Y-137260713D01*
X89362247Y-137260713D02*
X89219390Y-137260713D01*
X89219390Y-137260713D02*
X89028914Y-137213094D01*
X89028914Y-137213094D02*
X88933676Y-137165475D01*
X88933676Y-137165475D02*
X88838438Y-137070237D01*
X88838438Y-137070237D02*
X88790819Y-136927380D01*
X88790819Y-136927380D02*
X88790819Y-136832142D01*
X88790819Y-136832142D02*
X88838438Y-136689285D01*
X88838438Y-136689285D02*
X88886057Y-136641666D01*
X89790819Y-135689285D02*
X89790819Y-136260713D01*
X89790819Y-135974999D02*
X88790819Y-135974999D01*
X88790819Y-135974999D02*
X88933676Y-136070237D01*
X88933676Y-136070237D02*
X89028914Y-136165475D01*
X89028914Y-136165475D02*
X89076533Y-136260713D01*
X82284819Y-136179166D02*
X81808628Y-136512499D01*
X82284819Y-136750594D02*
X81284819Y-136750594D01*
X81284819Y-136750594D02*
X81284819Y-136369642D01*
X81284819Y-136369642D02*
X81332438Y-136274404D01*
X81332438Y-136274404D02*
X81380057Y-136226785D01*
X81380057Y-136226785D02*
X81475295Y-136179166D01*
X81475295Y-136179166D02*
X81618152Y-136179166D01*
X81618152Y-136179166D02*
X81713390Y-136226785D01*
X81713390Y-136226785D02*
X81761009Y-136274404D01*
X81761009Y-136274404D02*
X81808628Y-136369642D01*
X81808628Y-136369642D02*
X81808628Y-136750594D01*
X81380057Y-135798213D02*
X81332438Y-135750594D01*
X81332438Y-135750594D02*
X81284819Y-135655356D01*
X81284819Y-135655356D02*
X81284819Y-135417261D01*
X81284819Y-135417261D02*
X81332438Y-135322023D01*
X81332438Y-135322023D02*
X81380057Y-135274404D01*
X81380057Y-135274404D02*
X81475295Y-135226785D01*
X81475295Y-135226785D02*
X81570533Y-135226785D01*
X81570533Y-135226785D02*
X81713390Y-135274404D01*
X81713390Y-135274404D02*
X82284819Y-135845832D01*
X82284819Y-135845832D02*
X82284819Y-135226785D01*
X86094819Y-136179166D02*
X85618628Y-136512499D01*
X86094819Y-136750594D02*
X85094819Y-136750594D01*
X85094819Y-136750594D02*
X85094819Y-136369642D01*
X85094819Y-136369642D02*
X85142438Y-136274404D01*
X85142438Y-136274404D02*
X85190057Y-136226785D01*
X85190057Y-136226785D02*
X85285295Y-136179166D01*
X85285295Y-136179166D02*
X85428152Y-136179166D01*
X85428152Y-136179166D02*
X85523390Y-136226785D01*
X85523390Y-136226785D02*
X85571009Y-136274404D01*
X85571009Y-136274404D02*
X85618628Y-136369642D01*
X85618628Y-136369642D02*
X85618628Y-136750594D01*
X85094819Y-135845832D02*
X85094819Y-135226785D01*
X85094819Y-135226785D02*
X85475771Y-135560118D01*
X85475771Y-135560118D02*
X85475771Y-135417261D01*
X85475771Y-135417261D02*
X85523390Y-135322023D01*
X85523390Y-135322023D02*
X85571009Y-135274404D01*
X85571009Y-135274404D02*
X85666247Y-135226785D01*
X85666247Y-135226785D02*
X85904342Y-135226785D01*
X85904342Y-135226785D02*
X85999580Y-135274404D01*
X85999580Y-135274404D02*
X86047200Y-135322023D01*
X86047200Y-135322023D02*
X86094819Y-135417261D01*
X86094819Y-135417261D02*
X86094819Y-135702975D01*
X86094819Y-135702975D02*
X86047200Y-135798213D01*
X86047200Y-135798213D02*
X85999580Y-135845832D01*
X50166667Y-128907200D02*
X50309524Y-128954819D01*
X50309524Y-128954819D02*
X50547619Y-128954819D01*
X50547619Y-128954819D02*
X50642857Y-128907200D01*
X50642857Y-128907200D02*
X50690476Y-128859580D01*
X50690476Y-128859580D02*
X50738095Y-128764342D01*
X50738095Y-128764342D02*
X50738095Y-128669104D01*
X50738095Y-128669104D02*
X50690476Y-128573866D01*
X50690476Y-128573866D02*
X50642857Y-128526247D01*
X50642857Y-128526247D02*
X50547619Y-128478628D01*
X50547619Y-128478628D02*
X50357143Y-128431009D01*
X50357143Y-128431009D02*
X50261905Y-128383390D01*
X50261905Y-128383390D02*
X50214286Y-128335771D01*
X50214286Y-128335771D02*
X50166667Y-128240533D01*
X50166667Y-128240533D02*
X50166667Y-128145295D01*
X50166667Y-128145295D02*
X50214286Y-128050057D01*
X50214286Y-128050057D02*
X50261905Y-128002438D01*
X50261905Y-128002438D02*
X50357143Y-127954819D01*
X50357143Y-127954819D02*
X50595238Y-127954819D01*
X50595238Y-127954819D02*
X50738095Y-128002438D01*
X51071429Y-127954819D02*
X51309524Y-128954819D01*
X51309524Y-128954819D02*
X51500000Y-128240533D01*
X51500000Y-128240533D02*
X51690476Y-128954819D01*
X51690476Y-128954819D02*
X51928572Y-127954819D01*
X52261905Y-128050057D02*
X52309524Y-128002438D01*
X52309524Y-128002438D02*
X52404762Y-127954819D01*
X52404762Y-127954819D02*
X52642857Y-127954819D01*
X52642857Y-127954819D02*
X52738095Y-128002438D01*
X52738095Y-128002438D02*
X52785714Y-128050057D01*
X52785714Y-128050057D02*
X52833333Y-128145295D01*
X52833333Y-128145295D02*
X52833333Y-128240533D01*
X52833333Y-128240533D02*
X52785714Y-128383390D01*
X52785714Y-128383390D02*
X52214286Y-128954819D01*
X52214286Y-128954819D02*
X52833333Y-128954819D01*
X67502668Y-132556989D02*
X67169335Y-132080798D01*
X66931240Y-132556989D02*
X66931240Y-131556989D01*
X66931240Y-131556989D02*
X67312192Y-131556989D01*
X67312192Y-131556989D02*
X67407430Y-131604608D01*
X67407430Y-131604608D02*
X67455049Y-131652227D01*
X67455049Y-131652227D02*
X67502668Y-131747465D01*
X67502668Y-131747465D02*
X67502668Y-131890322D01*
X67502668Y-131890322D02*
X67455049Y-131985560D01*
X67455049Y-131985560D02*
X67407430Y-132033179D01*
X67407430Y-132033179D02*
X67312192Y-132080798D01*
X67312192Y-132080798D02*
X66931240Y-132080798D01*
X68407430Y-131556989D02*
X67931240Y-131556989D01*
X67931240Y-131556989D02*
X67883621Y-132033179D01*
X67883621Y-132033179D02*
X67931240Y-131985560D01*
X67931240Y-131985560D02*
X68026478Y-131937941D01*
X68026478Y-131937941D02*
X68264573Y-131937941D01*
X68264573Y-131937941D02*
X68359811Y-131985560D01*
X68359811Y-131985560D02*
X68407430Y-132033179D01*
X68407430Y-132033179D02*
X68455049Y-132128417D01*
X68455049Y-132128417D02*
X68455049Y-132366512D01*
X68455049Y-132366512D02*
X68407430Y-132461750D01*
X68407430Y-132461750D02*
X68359811Y-132509370D01*
X68359811Y-132509370D02*
X68264573Y-132556989D01*
X68264573Y-132556989D02*
X68026478Y-132556989D01*
X68026478Y-132556989D02*
X67931240Y-132509370D01*
X67931240Y-132509370D02*
X67883621Y-132461750D01*
X73705333Y-107524819D02*
X73372000Y-107048628D01*
X73133905Y-107524819D02*
X73133905Y-106524819D01*
X73133905Y-106524819D02*
X73514857Y-106524819D01*
X73514857Y-106524819D02*
X73610095Y-106572438D01*
X73610095Y-106572438D02*
X73657714Y-106620057D01*
X73657714Y-106620057D02*
X73705333Y-106715295D01*
X73705333Y-106715295D02*
X73705333Y-106858152D01*
X73705333Y-106858152D02*
X73657714Y-106953390D01*
X73657714Y-106953390D02*
X73610095Y-107001009D01*
X73610095Y-107001009D02*
X73514857Y-107048628D01*
X73514857Y-107048628D02*
X73133905Y-107048628D01*
X74657714Y-107524819D02*
X74086286Y-107524819D01*
X74372000Y-107524819D02*
X74372000Y-106524819D01*
X74372000Y-106524819D02*
X74276762Y-106667676D01*
X74276762Y-106667676D02*
X74181524Y-106762914D01*
X74181524Y-106762914D02*
X74086286Y-106810533D01*
X73705333Y-103714819D02*
X73372000Y-103238628D01*
X73133905Y-103714819D02*
X73133905Y-102714819D01*
X73133905Y-102714819D02*
X73514857Y-102714819D01*
X73514857Y-102714819D02*
X73610095Y-102762438D01*
X73610095Y-102762438D02*
X73657714Y-102810057D01*
X73657714Y-102810057D02*
X73705333Y-102905295D01*
X73705333Y-102905295D02*
X73705333Y-103048152D01*
X73705333Y-103048152D02*
X73657714Y-103143390D01*
X73657714Y-103143390D02*
X73610095Y-103191009D01*
X73610095Y-103191009D02*
X73514857Y-103238628D01*
X73514857Y-103238628D02*
X73133905Y-103238628D01*
X74562476Y-103048152D02*
X74562476Y-103714819D01*
X74324381Y-102667200D02*
X74086286Y-103381485D01*
X74086286Y-103381485D02*
X74705333Y-103381485D01*
X73326819Y-88522333D02*
X74041104Y-88522333D01*
X74041104Y-88522333D02*
X74183961Y-88569952D01*
X74183961Y-88569952D02*
X74279200Y-88665190D01*
X74279200Y-88665190D02*
X74326819Y-88808047D01*
X74326819Y-88808047D02*
X74326819Y-88903285D01*
X73660152Y-87617571D02*
X74326819Y-87617571D01*
X73279200Y-87855666D02*
X73993485Y-88093761D01*
X73993485Y-88093761D02*
X73993485Y-87474714D01*
X72659819Y-136944333D02*
X73374104Y-136944333D01*
X73374104Y-136944333D02*
X73516961Y-136991952D01*
X73516961Y-136991952D02*
X73612200Y-137087190D01*
X73612200Y-137087190D02*
X73659819Y-137230047D01*
X73659819Y-137230047D02*
X73659819Y-137325285D01*
X72659819Y-136563380D02*
X72659819Y-135944333D01*
X72659819Y-135944333D02*
X73040771Y-136277666D01*
X73040771Y-136277666D02*
X73040771Y-136134809D01*
X73040771Y-136134809D02*
X73088390Y-136039571D01*
X73088390Y-136039571D02*
X73136009Y-135991952D01*
X73136009Y-135991952D02*
X73231247Y-135944333D01*
X73231247Y-135944333D02*
X73469342Y-135944333D01*
X73469342Y-135944333D02*
X73564580Y-135991952D01*
X73564580Y-135991952D02*
X73612200Y-136039571D01*
X73612200Y-136039571D02*
X73659819Y-136134809D01*
X73659819Y-136134809D02*
X73659819Y-136420523D01*
X73659819Y-136420523D02*
X73612200Y-136515761D01*
X73612200Y-136515761D02*
X73564580Y-136563380D01*
X56582200Y-78523332D02*
X56629819Y-78380475D01*
X56629819Y-78380475D02*
X56629819Y-78142380D01*
X56629819Y-78142380D02*
X56582200Y-78047142D01*
X56582200Y-78047142D02*
X56534580Y-77999523D01*
X56534580Y-77999523D02*
X56439342Y-77951904D01*
X56439342Y-77951904D02*
X56344104Y-77951904D01*
X56344104Y-77951904D02*
X56248866Y-77999523D01*
X56248866Y-77999523D02*
X56201247Y-78047142D01*
X56201247Y-78047142D02*
X56153628Y-78142380D01*
X56153628Y-78142380D02*
X56106009Y-78332856D01*
X56106009Y-78332856D02*
X56058390Y-78428094D01*
X56058390Y-78428094D02*
X56010771Y-78475713D01*
X56010771Y-78475713D02*
X55915533Y-78523332D01*
X55915533Y-78523332D02*
X55820295Y-78523332D01*
X55820295Y-78523332D02*
X55725057Y-78475713D01*
X55725057Y-78475713D02*
X55677438Y-78428094D01*
X55677438Y-78428094D02*
X55629819Y-78332856D01*
X55629819Y-78332856D02*
X55629819Y-78094761D01*
X55629819Y-78094761D02*
X55677438Y-77951904D01*
X55629819Y-77618570D02*
X56629819Y-77380475D01*
X56629819Y-77380475D02*
X55915533Y-77189999D01*
X55915533Y-77189999D02*
X56629819Y-76999523D01*
X56629819Y-76999523D02*
X55629819Y-76761428D01*
X56629819Y-75856666D02*
X56629819Y-76428094D01*
X56629819Y-76142380D02*
X55629819Y-76142380D01*
X55629819Y-76142380D02*
X55772676Y-76237618D01*
X55772676Y-76237618D02*
X55867914Y-76332856D01*
X55867914Y-76332856D02*
X55915533Y-76428094D01*
X71166666Y-144454819D02*
X71166666Y-145169104D01*
X71166666Y-145169104D02*
X71119047Y-145311961D01*
X71119047Y-145311961D02*
X71023809Y-145407200D01*
X71023809Y-145407200D02*
X70880952Y-145454819D01*
X70880952Y-145454819D02*
X70785714Y-145454819D01*
X72166666Y-145454819D02*
X71595238Y-145454819D01*
X71880952Y-145454819D02*
X71880952Y-144454819D01*
X71880952Y-144454819D02*
X71785714Y-144597676D01*
X71785714Y-144597676D02*
X71690476Y-144692914D01*
X71690476Y-144692914D02*
X71595238Y-144740533D01*
X102375238Y-51406009D02*
X102518095Y-51453628D01*
X102518095Y-51453628D02*
X102565714Y-51501247D01*
X102565714Y-51501247D02*
X102613333Y-51596485D01*
X102613333Y-51596485D02*
X102613333Y-51739342D01*
X102613333Y-51739342D02*
X102565714Y-51834580D01*
X102565714Y-51834580D02*
X102518095Y-51882200D01*
X102518095Y-51882200D02*
X102422857Y-51929819D01*
X102422857Y-51929819D02*
X102041905Y-51929819D01*
X102041905Y-51929819D02*
X102041905Y-50929819D01*
X102041905Y-50929819D02*
X102375238Y-50929819D01*
X102375238Y-50929819D02*
X102470476Y-50977438D01*
X102470476Y-50977438D02*
X102518095Y-51025057D01*
X102518095Y-51025057D02*
X102565714Y-51120295D01*
X102565714Y-51120295D02*
X102565714Y-51215533D01*
X102565714Y-51215533D02*
X102518095Y-51310771D01*
X102518095Y-51310771D02*
X102470476Y-51358390D01*
X102470476Y-51358390D02*
X102375238Y-51406009D01*
X102375238Y-51406009D02*
X102041905Y-51406009D01*
X102994286Y-51025057D02*
X103041905Y-50977438D01*
X103041905Y-50977438D02*
X103137143Y-50929819D01*
X103137143Y-50929819D02*
X103375238Y-50929819D01*
X103375238Y-50929819D02*
X103470476Y-50977438D01*
X103470476Y-50977438D02*
X103518095Y-51025057D01*
X103518095Y-51025057D02*
X103565714Y-51120295D01*
X103565714Y-51120295D02*
X103565714Y-51215533D01*
X103565714Y-51215533D02*
X103518095Y-51358390D01*
X103518095Y-51358390D02*
X102946667Y-51929819D01*
X102946667Y-51929819D02*
X103565714Y-51929819D01*
X102375238Y-74406009D02*
X102518095Y-74453628D01*
X102518095Y-74453628D02*
X102565714Y-74501247D01*
X102565714Y-74501247D02*
X102613333Y-74596485D01*
X102613333Y-74596485D02*
X102613333Y-74739342D01*
X102613333Y-74739342D02*
X102565714Y-74834580D01*
X102565714Y-74834580D02*
X102518095Y-74882200D01*
X102518095Y-74882200D02*
X102422857Y-74929819D01*
X102422857Y-74929819D02*
X102041905Y-74929819D01*
X102041905Y-74929819D02*
X102041905Y-73929819D01*
X102041905Y-73929819D02*
X102375238Y-73929819D01*
X102375238Y-73929819D02*
X102470476Y-73977438D01*
X102470476Y-73977438D02*
X102518095Y-74025057D01*
X102518095Y-74025057D02*
X102565714Y-74120295D01*
X102565714Y-74120295D02*
X102565714Y-74215533D01*
X102565714Y-74215533D02*
X102518095Y-74310771D01*
X102518095Y-74310771D02*
X102470476Y-74358390D01*
X102470476Y-74358390D02*
X102375238Y-74406009D01*
X102375238Y-74406009D02*
X102041905Y-74406009D01*
X103565714Y-74929819D02*
X102994286Y-74929819D01*
X103280000Y-74929819D02*
X103280000Y-73929819D01*
X103280000Y-73929819D02*
X103184762Y-74072676D01*
X103184762Y-74072676D02*
X103089524Y-74167914D01*
X103089524Y-74167914D02*
X102994286Y-74215533D01*
X120666666Y-142454819D02*
X120666666Y-143169104D01*
X120666666Y-143169104D02*
X120619047Y-143311961D01*
X120619047Y-143311961D02*
X120523809Y-143407200D01*
X120523809Y-143407200D02*
X120380952Y-143454819D01*
X120380952Y-143454819D02*
X120285714Y-143454819D01*
X121095238Y-142550057D02*
X121142857Y-142502438D01*
X121142857Y-142502438D02*
X121238095Y-142454819D01*
X121238095Y-142454819D02*
X121476190Y-142454819D01*
X121476190Y-142454819D02*
X121571428Y-142502438D01*
X121571428Y-142502438D02*
X121619047Y-142550057D01*
X121619047Y-142550057D02*
X121666666Y-142645295D01*
X121666666Y-142645295D02*
X121666666Y-142740533D01*
X121666666Y-142740533D02*
X121619047Y-142883390D01*
X121619047Y-142883390D02*
X121047619Y-143454819D01*
X121047619Y-143454819D02*
X121666666Y-143454819D01*
D10*
X62822936Y-136090000D02*
X64277064Y-136090000D01*
X62822936Y-137910000D02*
X64277064Y-137910000D01*
X62822936Y-133550000D02*
X64277064Y-133550000D01*
X62822936Y-135370000D02*
X64277064Y-135370000D01*
X94650000Y-135851000D02*
X95980000Y-135851000D01*
X94650000Y-137181000D02*
X94650000Y-135851000D01*
X94710000Y-115531000D02*
X130330000Y-115531000D01*
X94710000Y-118191000D02*
X94710000Y-115531000D01*
X94710000Y-118191000D02*
X130330000Y-118191000D01*
X97250000Y-135851000D02*
X130330000Y-135851000D01*
X97250000Y-138511000D02*
X97250000Y-135851000D01*
X97250000Y-138511000D02*
X130330000Y-138511000D01*
X130330000Y-118191000D02*
X130330000Y-115531000D01*
X130330000Y-138511000D02*
X130330000Y-135851000D01*
X90281000Y-136736252D02*
X90281000Y-136213748D01*
X91751000Y-136736252D02*
X91751000Y-136213748D01*
X82740000Y-136739564D02*
X82740000Y-135285436D01*
X84560000Y-136739564D02*
X84560000Y-135285436D01*
X86550000Y-136739564D02*
X86550000Y-135285436D01*
X88370000Y-136739564D02*
X88370000Y-135285436D01*
X48285000Y-131200000D02*
X48285000Y-129890000D01*
X48285000Y-133740000D02*
X48285000Y-132800000D01*
X48285000Y-136280000D02*
X48285000Y-135340000D01*
X48285000Y-139190000D02*
X48285000Y-137880000D01*
X49885000Y-131365000D02*
X49885000Y-132635000D01*
X49885000Y-132635000D02*
X53505000Y-132635000D01*
X49885000Y-133905000D02*
X49885000Y-135175000D01*
X49885000Y-135175000D02*
X53505000Y-135175000D01*
X49885000Y-136445000D02*
X49885000Y-137715000D01*
X49885000Y-137715000D02*
X53505000Y-137715000D01*
X52298333Y-132635000D02*
X52298333Y-131365000D01*
X52298333Y-135175000D02*
X52298333Y-133905000D01*
X52298333Y-137715000D02*
X52298333Y-136445000D01*
X53505000Y-131365000D02*
X49885000Y-131365000D01*
X53505000Y-131435000D02*
X52298333Y-131435000D01*
X53505000Y-131555000D02*
X52298333Y-131555000D01*
X53505000Y-131675000D02*
X52298333Y-131675000D01*
X53505000Y-131795000D02*
X52298333Y-131795000D01*
X53505000Y-131915000D02*
X52298333Y-131915000D01*
X53505000Y-132035000D02*
X52298333Y-132035000D01*
X53505000Y-132155000D02*
X52298333Y-132155000D01*
X53505000Y-132275000D02*
X52298333Y-132275000D01*
X53505000Y-132395000D02*
X52298333Y-132395000D01*
X53505000Y-132515000D02*
X52298333Y-132515000D01*
X53505000Y-132635000D02*
X53505000Y-131365000D01*
X53505000Y-133905000D02*
X49885000Y-133905000D01*
X53505000Y-133975000D02*
X52298333Y-133975000D01*
X53505000Y-134095000D02*
X52298333Y-134095000D01*
X53505000Y-134215000D02*
X52298333Y-134215000D01*
X53505000Y-134335000D02*
X52298333Y-134335000D01*
X53505000Y-134455000D02*
X52298333Y-134455000D01*
X53505000Y-134575000D02*
X52298333Y-134575000D01*
X53505000Y-134695000D02*
X52298333Y-134695000D01*
X53505000Y-134815000D02*
X52298333Y-134815000D01*
X53505000Y-134935000D02*
X52298333Y-134935000D01*
X53505000Y-135055000D02*
X52298333Y-135055000D01*
X53505000Y-135175000D02*
X53505000Y-133905000D01*
X53505000Y-136445000D02*
X49885000Y-136445000D01*
X53505000Y-136515000D02*
X52298333Y-136515000D01*
X53505000Y-136635000D02*
X52298333Y-136635000D01*
X53505000Y-136755000D02*
X52298333Y-136755000D01*
X53505000Y-136875000D02*
X52298333Y-136875000D01*
X53505000Y-136995000D02*
X52298333Y-136995000D01*
X53505000Y-137115000D02*
X52298333Y-137115000D01*
X53505000Y-137235000D02*
X52298333Y-137235000D01*
X53505000Y-137355000D02*
X52298333Y-137355000D01*
X53505000Y-137475000D02*
X52298333Y-137475000D01*
X53505000Y-137595000D02*
X52298333Y-137595000D01*
X53505000Y-137715000D02*
X53505000Y-136445000D01*
X55105000Y-129890000D02*
X48285000Y-129890000D01*
X55105000Y-131200000D02*
X55105000Y-129890000D01*
X55105000Y-133740000D02*
X55105000Y-132800000D01*
X55105000Y-136280000D02*
X55105000Y-135340000D01*
X55105000Y-139190000D02*
X48285000Y-139190000D01*
X55105000Y-139190000D02*
X55105000Y-137880000D01*
X55345000Y-139430000D02*
X53962000Y-139430000D01*
X55345000Y-139430000D02*
X55345000Y-138047000D01*
X62822936Y-131010000D02*
X64277064Y-131010000D01*
X62822936Y-132830000D02*
X64277064Y-132830000D01*
X73144936Y-107980000D02*
X74599064Y-107980000D01*
X73144936Y-109800000D02*
X74599064Y-109800000D01*
X73144936Y-104170000D02*
X74599064Y-104170000D01*
X73144936Y-105990000D02*
X74599064Y-105990000D01*
X72542000Y-92634000D02*
X72542000Y-100314000D01*
X72542000Y-92634000D02*
X75202000Y-92634000D01*
X72542000Y-100314000D02*
X75202000Y-100314000D01*
X73872000Y-90034000D02*
X75202000Y-90034000D01*
X75202000Y-90034000D02*
X75202000Y-91364000D01*
X75202000Y-92634000D02*
X75202000Y-100314000D01*
X74645000Y-135281000D02*
X75975000Y-135281000D01*
X74645000Y-136611000D02*
X74645000Y-135281000D01*
X77245000Y-135281000D02*
X79845000Y-135281000D01*
X77245000Y-137941000D02*
X77245000Y-135281000D01*
X77245000Y-137941000D02*
X79845000Y-137941000D01*
X79845000Y-137941000D02*
X79845000Y-135281000D01*
X49698000Y-68428000D02*
X58334000Y-68428000D01*
X49698000Y-85700000D02*
X49698000Y-68428000D01*
X58334000Y-68428000D02*
X58334000Y-85700000D01*
X58334000Y-85700000D02*
X49698000Y-85700000D01*
X61940000Y-143940000D02*
X63000000Y-143940000D01*
X61940000Y-145000000D02*
X61940000Y-143940000D01*
X64000000Y-143940000D02*
X70060000Y-143940000D01*
X64000000Y-146060000D02*
X64000000Y-143940000D01*
X64000000Y-146060000D02*
X70060000Y-146060000D01*
X70060000Y-146060000D02*
X70060000Y-143940000D01*
D12*
X125797208Y-91747596D02*
X125908615Y-91877180D01*
X125954625Y-91942410D01*
X126052721Y-92155896D01*
X126095732Y-92396395D01*
X126077558Y-92611263D01*
X126041882Y-92695419D01*
X126001406Y-92701246D01*
X125967888Y-92581856D01*
X125955748Y-92492092D01*
X125903323Y-92241234D01*
X125815171Y-91988332D01*
X125794548Y-91943890D01*
X125728859Y-91781055D01*
X125733518Y-91715589D01*
X125797208Y-91747596D01*
G36*
X125797208Y-91747596D02*
G01*
X125908615Y-91877180D01*
X125954625Y-91942410D01*
X126052721Y-92155896D01*
X126095732Y-92396395D01*
X126077558Y-92611263D01*
X126041882Y-92695419D01*
X126001406Y-92701246D01*
X125967888Y-92581856D01*
X125955748Y-92492092D01*
X125903323Y-92241234D01*
X125815171Y-91988332D01*
X125794548Y-91943890D01*
X125728859Y-91781055D01*
X125733518Y-91715589D01*
X125797208Y-91747596D01*
G37*
X113383158Y-93987062D02*
X113384799Y-93988699D01*
X113450261Y-94107680D01*
X113441569Y-94275085D01*
X113355950Y-94511451D01*
X113297735Y-94633528D01*
X113176240Y-94866500D01*
X113102556Y-94984241D01*
X113077419Y-94986423D01*
X113101568Y-94872720D01*
X113157764Y-94695446D01*
X113228942Y-94425753D01*
X113253968Y-94193807D01*
X113248600Y-94119652D01*
X113239745Y-93961218D01*
X113284177Y-93917426D01*
X113383158Y-93987062D01*
G36*
X113383158Y-93987062D02*
G01*
X113384799Y-93988699D01*
X113450261Y-94107680D01*
X113441569Y-94275085D01*
X113355950Y-94511451D01*
X113297735Y-94633528D01*
X113176240Y-94866500D01*
X113102556Y-94984241D01*
X113077419Y-94986423D01*
X113101568Y-94872720D01*
X113157764Y-94695446D01*
X113228942Y-94425753D01*
X113253968Y-94193807D01*
X113248600Y-94119652D01*
X113239745Y-93961218D01*
X113284177Y-93917426D01*
X113383158Y-93987062D01*
G37*
X123417841Y-92028374D02*
X123494000Y-92081040D01*
X123618118Y-92189672D01*
X123680722Y-92277568D01*
X123682605Y-92289316D01*
X123642026Y-92369575D01*
X123538712Y-92508948D01*
X123425506Y-92642500D01*
X123170302Y-92928250D01*
X123336369Y-92588661D01*
X123426466Y-92394653D01*
X123461728Y-92276527D01*
X123447482Y-92198319D01*
X123402968Y-92139161D01*
X123314225Y-92022580D01*
X123321698Y-91984045D01*
X123417841Y-92028374D01*
G36*
X123417841Y-92028374D02*
G01*
X123494000Y-92081040D01*
X123618118Y-92189672D01*
X123680722Y-92277568D01*
X123682605Y-92289316D01*
X123642026Y-92369575D01*
X123538712Y-92508948D01*
X123425506Y-92642500D01*
X123170302Y-92928250D01*
X123336369Y-92588661D01*
X123426466Y-92394653D01*
X123461728Y-92276527D01*
X123447482Y-92198319D01*
X123402968Y-92139161D01*
X123314225Y-92022580D01*
X123321698Y-91984045D01*
X123417841Y-92028374D01*
G37*
X114645317Y-91844978D02*
X115024505Y-91901720D01*
X115405773Y-92002782D01*
X115749908Y-92134874D01*
X116017699Y-92284705D01*
X116075801Y-92329852D01*
X116189056Y-92427913D01*
X116239330Y-92481202D01*
X116214176Y-92489255D01*
X116101142Y-92451609D01*
X115887782Y-92367799D01*
X115764047Y-92318236D01*
X115467180Y-92205847D01*
X115120453Y-92084165D01*
X114796195Y-91978525D01*
X114779797Y-91973484D01*
X114254750Y-91812722D01*
X114645317Y-91844978D01*
G36*
X114645317Y-91844978D02*
G01*
X115024505Y-91901720D01*
X115405773Y-92002782D01*
X115749908Y-92134874D01*
X116017699Y-92284705D01*
X116075801Y-92329852D01*
X116189056Y-92427913D01*
X116239330Y-92481202D01*
X116214176Y-92489255D01*
X116101142Y-92451609D01*
X115887782Y-92367799D01*
X115764047Y-92318236D01*
X115467180Y-92205847D01*
X115120453Y-92084165D01*
X114796195Y-91978525D01*
X114779797Y-91973484D01*
X114254750Y-91812722D01*
X114645317Y-91844978D01*
G37*
X117998231Y-94275695D02*
X118032342Y-94293148D01*
X118153748Y-94398579D01*
X118248964Y-94535344D01*
X118339242Y-94709923D01*
X117884496Y-94950695D01*
X117670653Y-95059021D01*
X117562533Y-95101708D01*
X117561179Y-95078397D01*
X117588500Y-95052489D01*
X117754663Y-94911963D01*
X117932090Y-94768525D01*
X117932880Y-94767906D01*
X118051181Y-94666670D01*
X118080614Y-94591827D01*
X118033995Y-94493682D01*
X118012255Y-94460134D01*
X117925305Y-94312951D01*
X117920261Y-94254541D01*
X117998231Y-94275695D01*
G36*
X117998231Y-94275695D02*
G01*
X118032342Y-94293148D01*
X118153748Y-94398579D01*
X118248964Y-94535344D01*
X118339242Y-94709923D01*
X117884496Y-94950695D01*
X117670653Y-95059021D01*
X117562533Y-95101708D01*
X117561179Y-95078397D01*
X117588500Y-95052489D01*
X117754663Y-94911963D01*
X117932090Y-94768525D01*
X117932880Y-94767906D01*
X118051181Y-94666670D01*
X118080614Y-94591827D01*
X118033995Y-94493682D01*
X118012255Y-94460134D01*
X117925305Y-94312951D01*
X117920261Y-94254541D01*
X117998231Y-94275695D01*
G37*
X128096522Y-94492583D02*
X128193000Y-94579250D01*
X128313072Y-94714570D01*
X128379098Y-94828408D01*
X128383500Y-94851867D01*
X128345514Y-94949591D01*
X128245405Y-95112714D01*
X128103948Y-95310420D01*
X127941915Y-95511896D01*
X127926501Y-95529774D01*
X127921396Y-95508083D01*
X127957848Y-95393451D01*
X128028086Y-95209965D01*
X128036162Y-95190002D01*
X128120790Y-94972273D01*
X128158324Y-94834244D01*
X128153041Y-94739469D01*
X128109217Y-94651500D01*
X128100861Y-94638587D01*
X128017332Y-94493795D01*
X128016726Y-94444586D01*
X128096522Y-94492583D01*
G36*
X128096522Y-94492583D02*
G01*
X128193000Y-94579250D01*
X128313072Y-94714570D01*
X128379098Y-94828408D01*
X128383500Y-94851867D01*
X128345514Y-94949591D01*
X128245405Y-95112714D01*
X128103948Y-95310420D01*
X127941915Y-95511896D01*
X127926501Y-95529774D01*
X127921396Y-95508083D01*
X127957848Y-95393451D01*
X128028086Y-95209965D01*
X128036162Y-95190002D01*
X128120790Y-94972273D01*
X128158324Y-94834244D01*
X128153041Y-94739469D01*
X128109217Y-94651500D01*
X128100861Y-94638587D01*
X128017332Y-94493795D01*
X128016726Y-94444586D01*
X128096522Y-94492583D01*
G37*
X96180548Y-90486965D02*
X96467210Y-90496527D01*
X96682375Y-90510933D01*
X96804407Y-90528931D01*
X96824000Y-90540207D01*
X96812434Y-90622782D01*
X96781804Y-90797525D01*
X96738209Y-91032124D01*
X96687749Y-91294265D01*
X96636522Y-91551633D01*
X96597973Y-91737625D01*
X96582355Y-91791760D01*
X96549456Y-91830139D01*
X96480058Y-91855469D01*
X96354942Y-91870461D01*
X96154890Y-91877823D01*
X95860683Y-91880266D01*
X95584540Y-91880500D01*
X95247460Y-91877058D01*
X94960204Y-91867561D01*
X94744378Y-91853250D01*
X94621583Y-91835366D01*
X94601500Y-91824014D01*
X94612988Y-91732567D01*
X94642978Y-91552583D01*
X94684753Y-91319998D01*
X94731601Y-91070748D01*
X94776807Y-90840767D01*
X94813655Y-90665992D01*
X94831209Y-90594625D01*
X94855174Y-90552078D01*
X94910485Y-90521915D01*
X95016095Y-90502056D01*
X95190961Y-90490420D01*
X95454037Y-90484929D01*
X95824279Y-90483501D01*
X95844029Y-90483500D01*
X96180548Y-90486965D01*
G36*
X96180548Y-90486965D02*
G01*
X96467210Y-90496527D01*
X96682375Y-90510933D01*
X96804407Y-90528931D01*
X96824000Y-90540207D01*
X96812434Y-90622782D01*
X96781804Y-90797525D01*
X96738209Y-91032124D01*
X96687749Y-91294265D01*
X96636522Y-91551633D01*
X96597973Y-91737625D01*
X96582355Y-91791760D01*
X96549456Y-91830139D01*
X96480058Y-91855469D01*
X96354942Y-91870461D01*
X96154890Y-91877823D01*
X95860683Y-91880266D01*
X95584540Y-91880500D01*
X95247460Y-91877058D01*
X94960204Y-91867561D01*
X94744378Y-91853250D01*
X94621583Y-91835366D01*
X94601500Y-91824014D01*
X94612988Y-91732567D01*
X94642978Y-91552583D01*
X94684753Y-91319998D01*
X94731601Y-91070748D01*
X94776807Y-90840767D01*
X94813655Y-90665992D01*
X94831209Y-90594625D01*
X94855174Y-90552078D01*
X94910485Y-90521915D01*
X95016095Y-90502056D01*
X95190961Y-90490420D01*
X95454037Y-90484929D01*
X95824279Y-90483501D01*
X95844029Y-90483500D01*
X96180548Y-90486965D01*
G37*
X98913682Y-90484426D02*
X99091760Y-90507037D01*
X99190038Y-90563483D01*
X99224143Y-90668067D01*
X99209699Y-90835090D01*
X99162333Y-91078854D01*
X99122815Y-91277250D01*
X99013404Y-91848750D01*
X98013952Y-91866237D01*
X97673926Y-91870435D01*
X97383534Y-91870681D01*
X97164195Y-91867224D01*
X97037328Y-91860316D01*
X97014500Y-91854513D01*
X97026257Y-91782228D01*
X97057149Y-91620032D01*
X97100602Y-91402388D01*
X97102608Y-91392526D01*
X97154942Y-91130560D01*
X97203025Y-90881605D01*
X97212729Y-90828908D01*
X98072175Y-90828908D01*
X98086312Y-90840064D01*
X98125750Y-90844475D01*
X98384544Y-90872804D01*
X98544293Y-90911805D01*
X98632905Y-90975504D01*
X98678289Y-91077925D01*
X98689588Y-91127818D01*
X98724323Y-91265969D01*
X98754277Y-91288400D01*
X98784890Y-91191146D01*
X98811269Y-91039125D01*
X98848015Y-90801000D01*
X98359882Y-90811674D01*
X98167525Y-90818862D01*
X98072175Y-90828908D01*
X97212729Y-90828908D01*
X97232485Y-90721625D01*
X97274254Y-90483500D01*
X98255627Y-90483500D01*
X98640180Y-90481347D01*
X98913682Y-90484426D01*
G36*
X98913682Y-90484426D02*
G01*
X99091760Y-90507037D01*
X99190038Y-90563483D01*
X99224143Y-90668067D01*
X99209699Y-90835090D01*
X99162333Y-91078854D01*
X99122815Y-91277250D01*
X99013404Y-91848750D01*
X98013952Y-91866237D01*
X97673926Y-91870435D01*
X97383534Y-91870681D01*
X97164195Y-91867224D01*
X97037328Y-91860316D01*
X97014500Y-91854513D01*
X97026257Y-91782228D01*
X97057149Y-91620032D01*
X97100602Y-91402388D01*
X97102608Y-91392526D01*
X97154942Y-91130560D01*
X97203025Y-90881605D01*
X97212729Y-90828908D01*
X98072175Y-90828908D01*
X98086312Y-90840064D01*
X98125750Y-90844475D01*
X98384544Y-90872804D01*
X98544293Y-90911805D01*
X98632905Y-90975504D01*
X98678289Y-91077925D01*
X98689588Y-91127818D01*
X98724323Y-91265969D01*
X98754277Y-91288400D01*
X98784890Y-91191146D01*
X98811269Y-91039125D01*
X98848015Y-90801000D01*
X98359882Y-90811674D01*
X98167525Y-90818862D01*
X98072175Y-90828908D01*
X97212729Y-90828908D01*
X97232485Y-90721625D01*
X97274254Y-90483500D01*
X98255627Y-90483500D01*
X98640180Y-90481347D01*
X98913682Y-90484426D01*
G37*
X90615866Y-92209919D02*
X91241867Y-92211956D01*
X91544649Y-92213313D01*
X94921343Y-92229750D01*
X92919921Y-94941116D01*
X92538946Y-95457913D01*
X92181717Y-95943821D01*
X91855183Y-96389294D01*
X91566297Y-96784786D01*
X91322010Y-97120749D01*
X91129272Y-97387638D01*
X90995034Y-97575907D01*
X90926249Y-97676008D01*
X90918500Y-97689791D01*
X90978885Y-97700643D01*
X91147602Y-97709646D01*
X91405988Y-97716360D01*
X91735382Y-97720347D01*
X92117123Y-97721170D01*
X92236125Y-97720748D01*
X92691583Y-97720033D01*
X93033764Y-97723408D01*
X93276346Y-97731679D01*
X93433009Y-97745653D01*
X93517432Y-97766136D01*
X93543294Y-97793936D01*
X93543109Y-97797823D01*
X93528377Y-97887131D01*
X93494950Y-98077109D01*
X93447154Y-98343529D01*
X93389320Y-98662164D01*
X93360853Y-98817875D01*
X93189238Y-99754500D01*
X89926619Y-99754500D01*
X89296328Y-99753890D01*
X88706120Y-99752141D01*
X88167855Y-99749369D01*
X87693393Y-99745692D01*
X87294594Y-99741228D01*
X86983319Y-99736093D01*
X86771427Y-99730405D01*
X86670779Y-99724281D01*
X86664000Y-99722195D01*
X86700265Y-99666135D01*
X86804419Y-99517167D01*
X86969497Y-99284978D01*
X87188533Y-98979257D01*
X87454564Y-98609693D01*
X87760623Y-98185972D01*
X88099748Y-97717783D01*
X88464972Y-97214814D01*
X88601162Y-97027563D01*
X88975764Y-96511828D01*
X89327995Y-96025147D01*
X89650692Y-95577537D01*
X89936695Y-95179017D01*
X90178839Y-94839602D01*
X90369964Y-94569312D01*
X90502908Y-94378161D01*
X90570507Y-94276169D01*
X90577308Y-94263646D01*
X90579504Y-94230671D01*
X90547630Y-94205815D01*
X90467022Y-94188073D01*
X90323010Y-94176437D01*
X90100928Y-94169901D01*
X89786109Y-94167458D01*
X89363885Y-94168102D01*
X89195771Y-94168833D01*
X87775250Y-94175608D01*
X87796312Y-94007400D01*
X87821417Y-93838658D01*
X87861996Y-93600137D01*
X87912809Y-93319075D01*
X87968619Y-93022710D01*
X88024186Y-92738280D01*
X88053307Y-92595684D01*
X92918750Y-92595684D01*
X93268000Y-92660283D01*
X93463164Y-92698835D01*
X93599944Y-92730463D01*
X93640639Y-92744122D01*
X93622103Y-92808795D01*
X93541349Y-92976537D01*
X93401449Y-93241482D01*
X93205475Y-93597769D01*
X93028581Y-93912500D01*
X92946900Y-94067038D01*
X92935484Y-94117521D01*
X92993368Y-94065033D01*
X93119587Y-93910662D01*
X93313176Y-93655495D01*
X93573169Y-93300619D01*
X93578415Y-93293375D01*
X94095630Y-92579000D01*
X92918750Y-92595684D01*
X88053307Y-92595684D01*
X88074274Y-92493023D01*
X88113644Y-92314178D01*
X88137057Y-92228983D01*
X88138909Y-92225923D01*
X88206104Y-92220700D01*
X88388504Y-92216383D01*
X88674318Y-92213016D01*
X89051753Y-92210642D01*
X89509017Y-92209306D01*
X90034319Y-92209050D01*
X90615866Y-92209919D01*
G36*
X90615866Y-92209919D02*
G01*
X91241867Y-92211956D01*
X91544649Y-92213313D01*
X94921343Y-92229750D01*
X92919921Y-94941116D01*
X92538946Y-95457913D01*
X92181717Y-95943821D01*
X91855183Y-96389294D01*
X91566297Y-96784786D01*
X91322010Y-97120749D01*
X91129272Y-97387638D01*
X90995034Y-97575907D01*
X90926249Y-97676008D01*
X90918500Y-97689791D01*
X90978885Y-97700643D01*
X91147602Y-97709646D01*
X91405988Y-97716360D01*
X91735382Y-97720347D01*
X92117123Y-97721170D01*
X92236125Y-97720748D01*
X92691583Y-97720033D01*
X93033764Y-97723408D01*
X93276346Y-97731679D01*
X93433009Y-97745653D01*
X93517432Y-97766136D01*
X93543294Y-97793936D01*
X93543109Y-97797823D01*
X93528377Y-97887131D01*
X93494950Y-98077109D01*
X93447154Y-98343529D01*
X93389320Y-98662164D01*
X93360853Y-98817875D01*
X93189238Y-99754500D01*
X89926619Y-99754500D01*
X89296328Y-99753890D01*
X88706120Y-99752141D01*
X88167855Y-99749369D01*
X87693393Y-99745692D01*
X87294594Y-99741228D01*
X86983319Y-99736093D01*
X86771427Y-99730405D01*
X86670779Y-99724281D01*
X86664000Y-99722195D01*
X86700265Y-99666135D01*
X86804419Y-99517167D01*
X86969497Y-99284978D01*
X87188533Y-98979257D01*
X87454564Y-98609693D01*
X87760623Y-98185972D01*
X88099748Y-97717783D01*
X88464972Y-97214814D01*
X88601162Y-97027563D01*
X88975764Y-96511828D01*
X89327995Y-96025147D01*
X89650692Y-95577537D01*
X89936695Y-95179017D01*
X90178839Y-94839602D01*
X90369964Y-94569312D01*
X90502908Y-94378161D01*
X90570507Y-94276169D01*
X90577308Y-94263646D01*
X90579504Y-94230671D01*
X90547630Y-94205815D01*
X90467022Y-94188073D01*
X90323010Y-94176437D01*
X90100928Y-94169901D01*
X89786109Y-94167458D01*
X89363885Y-94168102D01*
X89195771Y-94168833D01*
X87775250Y-94175608D01*
X87796312Y-94007400D01*
X87821417Y-93838658D01*
X87861996Y-93600137D01*
X87912809Y-93319075D01*
X87968619Y-93022710D01*
X88024186Y-92738280D01*
X88053307Y-92595684D01*
X92918750Y-92595684D01*
X93268000Y-92660283D01*
X93463164Y-92698835D01*
X93599944Y-92730463D01*
X93640639Y-92744122D01*
X93622103Y-92808795D01*
X93541349Y-92976537D01*
X93401449Y-93241482D01*
X93205475Y-93597769D01*
X93028581Y-93912500D01*
X92946900Y-94067038D01*
X92935484Y-94117521D01*
X92993368Y-94065033D01*
X93119587Y-93910662D01*
X93313176Y-93655495D01*
X93573169Y-93300619D01*
X93578415Y-93293375D01*
X94095630Y-92579000D01*
X92918750Y-92595684D01*
X88053307Y-92595684D01*
X88074274Y-92493023D01*
X88113644Y-92314178D01*
X88137057Y-92228983D01*
X88138909Y-92225923D01*
X88206104Y-92220700D01*
X88388504Y-92216383D01*
X88674318Y-92213016D01*
X89051753Y-92210642D01*
X89509017Y-92209306D01*
X90034319Y-92209050D01*
X90615866Y-92209919D01*
G37*
X102555950Y-92241017D02*
X103071805Y-92303954D01*
X103514709Y-92402716D01*
X103901696Y-92540178D01*
X104249800Y-92719215D01*
X104250901Y-92719876D01*
X104629582Y-93003205D01*
X104902335Y-93339867D01*
X105075631Y-93742160D01*
X105155941Y-94222379D01*
X105163499Y-94453963D01*
X105108896Y-95019882D01*
X104948584Y-95519332D01*
X104686723Y-95946572D01*
X104327472Y-96295858D01*
X103874989Y-96561451D01*
X103549981Y-96681410D01*
X103336470Y-96753440D01*
X103228082Y-96814403D01*
X103205114Y-96876618D01*
X103210376Y-96893728D01*
X103276666Y-97061012D01*
X103371189Y-97306485D01*
X103486426Y-97609929D01*
X103614860Y-97951126D01*
X103748975Y-98309858D01*
X103881252Y-98665908D01*
X104004175Y-98999058D01*
X104110226Y-99289089D01*
X104191888Y-99515785D01*
X104241643Y-99658928D01*
X104253500Y-99699190D01*
X104193173Y-99716013D01*
X104024876Y-99730775D01*
X103767633Y-99742647D01*
X103440467Y-99750798D01*
X103062402Y-99754398D01*
X102985541Y-99754500D01*
X101717582Y-99754500D01*
X101557959Y-99230625D01*
X101475721Y-98959371D01*
X101370944Y-98611820D01*
X101257299Y-98233401D01*
X101151946Y-97881250D01*
X101050876Y-97548223D01*
X100974737Y-97317968D01*
X100914102Y-97170991D01*
X100859545Y-97087799D01*
X100801639Y-97048899D01*
X100743300Y-97036165D01*
X100687927Y-97028512D01*
X100644590Y-97030790D01*
X100608556Y-97058053D01*
X100575094Y-97125357D01*
X100539470Y-97247756D01*
X100496953Y-97440304D01*
X100442810Y-97718058D01*
X100372307Y-98096071D01*
X100317960Y-98389250D01*
X100257242Y-98713495D01*
X100197157Y-99029678D01*
X100146052Y-99294100D01*
X100120875Y-99421125D01*
X100053495Y-99754500D01*
X97566945Y-99754500D01*
X97814597Y-99574003D01*
X98266909Y-99184967D01*
X98633971Y-98732693D01*
X98930620Y-98196450D01*
X99096201Y-97783186D01*
X99155402Y-97603842D01*
X99215801Y-97394880D01*
X99279737Y-97145161D01*
X99349548Y-96843546D01*
X99427573Y-96478894D01*
X99516152Y-96040066D01*
X99617623Y-95515923D01*
X99734325Y-94895324D01*
X99868598Y-94167131D01*
X99955601Y-93690250D01*
X100138790Y-92683103D01*
X103043515Y-92683103D01*
X103140754Y-92747476D01*
X103235707Y-92803478D01*
X103600425Y-93049657D01*
X103949860Y-93346476D01*
X104244760Y-93658248D01*
X104388110Y-93851245D01*
X104500488Y-94013956D01*
X104585459Y-94117255D01*
X104619870Y-94138796D01*
X104617128Y-94068304D01*
X104580302Y-93917326D01*
X104542880Y-93796431D01*
X104433818Y-93557796D01*
X104282857Y-93329016D01*
X104221541Y-93258423D01*
X103991307Y-93071300D01*
X103688191Y-92891734D01*
X103364644Y-92747804D01*
X103142250Y-92680604D01*
X103046509Y-92664094D01*
X103043515Y-92683103D01*
X100138790Y-92683103D01*
X100221250Y-92229750D01*
X101237250Y-92211112D01*
X101950109Y-92211028D01*
X102555950Y-92241017D01*
G36*
X102555950Y-92241017D02*
G01*
X103071805Y-92303954D01*
X103514709Y-92402716D01*
X103901696Y-92540178D01*
X104249800Y-92719215D01*
X104250901Y-92719876D01*
X104629582Y-93003205D01*
X104902335Y-93339867D01*
X105075631Y-93742160D01*
X105155941Y-94222379D01*
X105163499Y-94453963D01*
X105108896Y-95019882D01*
X104948584Y-95519332D01*
X104686723Y-95946572D01*
X104327472Y-96295858D01*
X103874989Y-96561451D01*
X103549981Y-96681410D01*
X103336470Y-96753440D01*
X103228082Y-96814403D01*
X103205114Y-96876618D01*
X103210376Y-96893728D01*
X103276666Y-97061012D01*
X103371189Y-97306485D01*
X103486426Y-97609929D01*
X103614860Y-97951126D01*
X103748975Y-98309858D01*
X103881252Y-98665908D01*
X104004175Y-98999058D01*
X104110226Y-99289089D01*
X104191888Y-99515785D01*
X104241643Y-99658928D01*
X104253500Y-99699190D01*
X104193173Y-99716013D01*
X104024876Y-99730775D01*
X103767633Y-99742647D01*
X103440467Y-99750798D01*
X103062402Y-99754398D01*
X102985541Y-99754500D01*
X101717582Y-99754500D01*
X101557959Y-99230625D01*
X101475721Y-98959371D01*
X101370944Y-98611820D01*
X101257299Y-98233401D01*
X101151946Y-97881250D01*
X101050876Y-97548223D01*
X100974737Y-97317968D01*
X100914102Y-97170991D01*
X100859545Y-97087799D01*
X100801639Y-97048899D01*
X100743300Y-97036165D01*
X100687927Y-97028512D01*
X100644590Y-97030790D01*
X100608556Y-97058053D01*
X100575094Y-97125357D01*
X100539470Y-97247756D01*
X100496953Y-97440304D01*
X100442810Y-97718058D01*
X100372307Y-98096071D01*
X100317960Y-98389250D01*
X100257242Y-98713495D01*
X100197157Y-99029678D01*
X100146052Y-99294100D01*
X100120875Y-99421125D01*
X100053495Y-99754500D01*
X97566945Y-99754500D01*
X97814597Y-99574003D01*
X98266909Y-99184967D01*
X98633971Y-98732693D01*
X98930620Y-98196450D01*
X99096201Y-97783186D01*
X99155402Y-97603842D01*
X99215801Y-97394880D01*
X99279737Y-97145161D01*
X99349548Y-96843546D01*
X99427573Y-96478894D01*
X99516152Y-96040066D01*
X99617623Y-95515923D01*
X99734325Y-94895324D01*
X99868598Y-94167131D01*
X99955601Y-93690250D01*
X100138790Y-92683103D01*
X103043515Y-92683103D01*
X103140754Y-92747476D01*
X103235707Y-92803478D01*
X103600425Y-93049657D01*
X103949860Y-93346476D01*
X104244760Y-93658248D01*
X104388110Y-93851245D01*
X104500488Y-94013956D01*
X104585459Y-94117255D01*
X104619870Y-94138796D01*
X104617128Y-94068304D01*
X104580302Y-93917326D01*
X104542880Y-93796431D01*
X104433818Y-93557796D01*
X104282857Y-93329016D01*
X104221541Y-93258423D01*
X103991307Y-93071300D01*
X103688191Y-92891734D01*
X103364644Y-92747804D01*
X103142250Y-92680604D01*
X103046509Y-92664094D01*
X103043515Y-92683103D01*
X100138790Y-92683103D01*
X100221250Y-92229750D01*
X101237250Y-92211112D01*
X101950109Y-92211028D01*
X102555950Y-92241017D01*
G37*
X98293408Y-92201447D02*
X98858708Y-92206192D01*
X99298489Y-92214658D01*
X99613464Y-92226864D01*
X99804347Y-92242830D01*
X99871850Y-92262577D01*
X99872000Y-92263649D01*
X99859877Y-92370960D01*
X99825697Y-92585719D01*
X99772743Y-92890931D01*
X99704300Y-93269597D01*
X99623651Y-93704722D01*
X99534079Y-94179308D01*
X99438867Y-94676358D01*
X99341300Y-95178874D01*
X99244661Y-95669861D01*
X99152234Y-96132320D01*
X99067301Y-96549255D01*
X98993147Y-96903669D01*
X98933056Y-97178564D01*
X98890310Y-97356944D01*
X98882784Y-97384239D01*
X98697407Y-97928374D01*
X98479175Y-98375889D01*
X98211382Y-98756132D01*
X97939034Y-99042110D01*
X97491353Y-99402287D01*
X97016928Y-99664145D01*
X96494767Y-99835081D01*
X95903877Y-99922491D01*
X95397783Y-99937633D01*
X95100016Y-99932251D01*
X94839826Y-99923418D01*
X94649354Y-99912469D01*
X94569750Y-99903292D01*
X94270606Y-99828824D01*
X93997330Y-99741191D01*
X93775331Y-99650591D01*
X93630018Y-99567220D01*
X93585751Y-99508412D01*
X93597200Y-99413157D01*
X93628661Y-99216890D01*
X93676072Y-98943297D01*
X93735376Y-98616063D01*
X93776251Y-98397070D01*
X93840346Y-98056020D01*
X93895230Y-97761329D01*
X93936950Y-97534430D01*
X93961555Y-97396758D01*
X93966500Y-97365195D01*
X93906881Y-97356483D01*
X93743546Y-97349213D01*
X93499777Y-97344035D01*
X93198855Y-97341603D01*
X93119833Y-97341500D01*
X92805315Y-97339395D01*
X92539137Y-97333631D01*
X92345679Y-97325034D01*
X92249323Y-97314428D01*
X92243503Y-97311836D01*
X92234903Y-97238854D01*
X92239249Y-97072959D01*
X92255492Y-96847465D01*
X92259453Y-96804636D01*
X92305067Y-96327099D01*
X93818408Y-94264952D01*
X94892571Y-92801250D01*
X95641135Y-92801250D01*
X96396494Y-95865125D01*
X96545920Y-96466947D01*
X96687666Y-97029617D01*
X96818634Y-97541411D01*
X96935726Y-97990603D01*
X97035845Y-98365469D01*
X97115892Y-98654282D01*
X97172771Y-98845319D01*
X97203384Y-98926854D01*
X97205943Y-98929000D01*
X97275367Y-98887683D01*
X97406133Y-98779198D01*
X97570347Y-98626738D01*
X97575529Y-98621698D01*
X97818782Y-98350344D01*
X98017593Y-98044434D01*
X98184853Y-97677895D01*
X98333457Y-97224652D01*
X98411233Y-96931672D01*
X98470163Y-96679236D01*
X98540515Y-96351764D01*
X98619086Y-95966824D01*
X98702669Y-95541984D01*
X98788060Y-95094811D01*
X98872054Y-94642873D01*
X98951445Y-94203739D01*
X99023028Y-93794976D01*
X99083599Y-93434152D01*
X99129951Y-93138834D01*
X99158880Y-92926591D01*
X99167181Y-92814991D01*
X99164513Y-92802846D01*
X99094185Y-92794170D01*
X98913532Y-92787478D01*
X98639214Y-92782943D01*
X98287893Y-92780738D01*
X97876231Y-92781038D01*
X97420887Y-92784014D01*
X97385129Y-92784353D01*
X95641135Y-92801250D01*
X94892571Y-92801250D01*
X95331750Y-92202806D01*
X97601875Y-92200403D01*
X98293408Y-92201447D01*
G36*
X98293408Y-92201447D02*
G01*
X98858708Y-92206192D01*
X99298489Y-92214658D01*
X99613464Y-92226864D01*
X99804347Y-92242830D01*
X99871850Y-92262577D01*
X99872000Y-92263649D01*
X99859877Y-92370960D01*
X99825697Y-92585719D01*
X99772743Y-92890931D01*
X99704300Y-93269597D01*
X99623651Y-93704722D01*
X99534079Y-94179308D01*
X99438867Y-94676358D01*
X99341300Y-95178874D01*
X99244661Y-95669861D01*
X99152234Y-96132320D01*
X99067301Y-96549255D01*
X98993147Y-96903669D01*
X98933056Y-97178564D01*
X98890310Y-97356944D01*
X98882784Y-97384239D01*
X98697407Y-97928374D01*
X98479175Y-98375889D01*
X98211382Y-98756132D01*
X97939034Y-99042110D01*
X97491353Y-99402287D01*
X97016928Y-99664145D01*
X96494767Y-99835081D01*
X95903877Y-99922491D01*
X95397783Y-99937633D01*
X95100016Y-99932251D01*
X94839826Y-99923418D01*
X94649354Y-99912469D01*
X94569750Y-99903292D01*
X94270606Y-99828824D01*
X93997330Y-99741191D01*
X93775331Y-99650591D01*
X93630018Y-99567220D01*
X93585751Y-99508412D01*
X93597200Y-99413157D01*
X93628661Y-99216890D01*
X93676072Y-98943297D01*
X93735376Y-98616063D01*
X93776251Y-98397070D01*
X93840346Y-98056020D01*
X93895230Y-97761329D01*
X93936950Y-97534430D01*
X93961555Y-97396758D01*
X93966500Y-97365195D01*
X93906881Y-97356483D01*
X93743546Y-97349213D01*
X93499777Y-97344035D01*
X93198855Y-97341603D01*
X93119833Y-97341500D01*
X92805315Y-97339395D01*
X92539137Y-97333631D01*
X92345679Y-97325034D01*
X92249323Y-97314428D01*
X92243503Y-97311836D01*
X92234903Y-97238854D01*
X92239249Y-97072959D01*
X92255492Y-96847465D01*
X92259453Y-96804636D01*
X92305067Y-96327099D01*
X93818408Y-94264952D01*
X94892571Y-92801250D01*
X95641135Y-92801250D01*
X96396494Y-95865125D01*
X96545920Y-96466947D01*
X96687666Y-97029617D01*
X96818634Y-97541411D01*
X96935726Y-97990603D01*
X97035845Y-98365469D01*
X97115892Y-98654282D01*
X97172771Y-98845319D01*
X97203384Y-98926854D01*
X97205943Y-98929000D01*
X97275367Y-98887683D01*
X97406133Y-98779198D01*
X97570347Y-98626738D01*
X97575529Y-98621698D01*
X97818782Y-98350344D01*
X98017593Y-98044434D01*
X98184853Y-97677895D01*
X98333457Y-97224652D01*
X98411233Y-96931672D01*
X98470163Y-96679236D01*
X98540515Y-96351764D01*
X98619086Y-95966824D01*
X98702669Y-95541984D01*
X98788060Y-95094811D01*
X98872054Y-94642873D01*
X98951445Y-94203739D01*
X99023028Y-93794976D01*
X99083599Y-93434152D01*
X99129951Y-93138834D01*
X99158880Y-92926591D01*
X99167181Y-92814991D01*
X99164513Y-92802846D01*
X99094185Y-92794170D01*
X98913532Y-92787478D01*
X98639214Y-92782943D01*
X98287893Y-92780738D01*
X97876231Y-92781038D01*
X97420887Y-92784014D01*
X97385129Y-92784353D01*
X95641135Y-92801250D01*
X94892571Y-92801250D01*
X95331750Y-92202806D01*
X97601875Y-92200403D01*
X98293408Y-92201447D01*
G37*
X125529509Y-90909387D02*
X125821888Y-91072878D01*
X126182300Y-91342746D01*
X126227038Y-91379671D01*
X126613831Y-91753098D01*
X126874281Y-92124997D01*
X127009011Y-92496707D01*
X127018646Y-92869568D01*
X126988825Y-93014865D01*
X126925202Y-93159249D01*
X126792021Y-93390342D01*
X126597821Y-93694703D01*
X126351140Y-94058890D01*
X126097419Y-94418200D01*
X125752251Y-94901644D01*
X125430402Y-95358024D01*
X125139115Y-95776648D01*
X124885633Y-96146824D01*
X124677201Y-96457861D01*
X124521060Y-96699067D01*
X124424457Y-96859750D01*
X124394632Y-96929218D01*
X124395361Y-96930527D01*
X124442484Y-96891791D01*
X124563989Y-96771127D01*
X124748572Y-96580348D01*
X124984934Y-96331269D01*
X125261772Y-96035702D01*
X125567784Y-95705461D01*
X125579601Y-95692642D01*
X126036767Y-95197985D01*
X126417806Y-94789648D01*
X126731523Y-94459534D01*
X126986725Y-94199541D01*
X127192217Y-94001570D01*
X127356806Y-93857523D01*
X127489297Y-93759298D01*
X127598497Y-93698796D01*
X127693211Y-93667918D01*
X127782245Y-93658563D01*
X127791109Y-93658499D01*
X127906458Y-93667583D01*
X128017752Y-93704427D01*
X128147943Y-93783422D01*
X128319984Y-93918959D01*
X128556830Y-94125429D01*
X128606230Y-94169549D01*
X128840344Y-94381644D01*
X129048209Y-94574655D01*
X129206321Y-94726464D01*
X129288375Y-94811584D01*
X129387364Y-94990053D01*
X129393020Y-95194662D01*
X129302067Y-95440415D01*
X129111227Y-95742319D01*
X129074103Y-95792945D01*
X128754170Y-96274775D01*
X128468825Y-96819316D01*
X128207375Y-97449127D01*
X127996695Y-98065978D01*
X127843225Y-98534413D01*
X127708288Y-98899608D01*
X127581762Y-99182049D01*
X127453525Y-99402220D01*
X127313453Y-99580607D01*
X127185531Y-99707487D01*
X126844843Y-99937577D01*
X126470267Y-100049472D01*
X126071562Y-100044239D01*
X125658489Y-99922946D01*
X125240807Y-99686661D01*
X124962935Y-99464274D01*
X124651411Y-99184188D01*
X124360593Y-99524594D01*
X124071949Y-99815437D01*
X123800305Y-99987855D01*
X123535157Y-100047405D01*
X123395395Y-100035431D01*
X123215486Y-99968372D01*
X122979680Y-99835484D01*
X122722473Y-99660147D01*
X122478359Y-99465742D01*
X122293649Y-99288685D01*
X122141048Y-99122360D01*
X121772085Y-99525019D01*
X121577716Y-99721938D01*
X121388893Y-99887637D01*
X121239265Y-99993232D01*
X121209520Y-100007870D01*
X120963399Y-100052762D01*
X120683957Y-99993161D01*
X120363259Y-99826078D01*
X119995479Y-99550291D01*
X119545083Y-99172123D01*
X119185916Y-99545761D01*
X118883511Y-99827077D01*
X118613331Y-99994675D01*
X118354634Y-100049656D01*
X118086681Y-99993124D01*
X117788729Y-99826180D01*
X117538099Y-99633343D01*
X117169469Y-99326565D01*
X116834782Y-99699282D01*
X116647552Y-99896906D01*
X116508232Y-100011795D01*
X116389179Y-100063299D01*
X116302346Y-100072000D01*
X116012537Y-100014151D01*
X115676963Y-99842302D01*
X115300315Y-99559001D01*
X115207250Y-99477337D01*
X114826250Y-99134538D01*
X114485634Y-99510132D01*
X114186315Y-99806416D01*
X113912445Y-99994979D01*
X113647775Y-100075573D01*
X113376056Y-100047948D01*
X113081038Y-99911854D01*
X112746473Y-99667043D01*
X112533385Y-99480169D01*
X112195798Y-99126247D01*
X111977367Y-98793310D01*
X111880118Y-98484665D01*
X111874894Y-98405125D01*
X111864304Y-98278263D01*
X111843056Y-98230500D01*
X111787695Y-98272857D01*
X111668202Y-98385174D01*
X111507899Y-98545320D01*
X111466572Y-98587767D01*
X111285080Y-98768721D01*
X111159539Y-98870918D01*
X111062038Y-98910975D01*
X110964661Y-98905506D01*
X110941745Y-98900162D01*
X110778208Y-98841835D01*
X110674593Y-98781952D01*
X110554725Y-98648333D01*
X110432056Y-98460896D01*
X110333733Y-98267339D01*
X110294021Y-98138457D01*
X110651250Y-98138457D01*
X110654637Y-98189803D01*
X110724203Y-98156669D01*
X110856484Y-98041298D01*
X111048016Y-97845932D01*
X111295336Y-97572813D01*
X111594979Y-97224185D01*
X111943482Y-96802290D01*
X112163387Y-96528978D01*
X112329454Y-96328520D01*
X112450518Y-96210240D01*
X112555548Y-96153083D01*
X112673515Y-96135994D01*
X112704782Y-96135519D01*
X112906196Y-96115883D01*
X113147977Y-96066965D01*
X113244532Y-96040437D01*
X113425393Y-95986610D01*
X113548135Y-95952035D01*
X113577750Y-95945187D01*
X113547704Y-95987979D01*
X113449219Y-96103224D01*
X113300211Y-96270250D01*
X113212911Y-96366121D01*
X112784916Y-96873929D01*
X112472862Y-97338181D01*
X112275003Y-97763063D01*
X112189597Y-98152759D01*
X112214896Y-98511452D01*
X112258539Y-98654991D01*
X112398999Y-98901893D01*
X112610610Y-99129651D01*
X112859136Y-99311017D01*
X113110341Y-99418748D01*
X113240919Y-99436762D01*
X113373104Y-99412832D01*
X113515199Y-99328386D01*
X113695770Y-99164949D01*
X113756044Y-99103625D01*
X113924726Y-98919109D01*
X114113395Y-98696823D01*
X114304102Y-98460030D01*
X114478898Y-98231992D01*
X114619832Y-98035975D01*
X114708955Y-97895242D01*
X114731000Y-97840030D01*
X114780126Y-97788093D01*
X114798779Y-97786000D01*
X114837699Y-97835392D01*
X114826513Y-97912169D01*
X114807462Y-98111793D01*
X114840453Y-98367705D01*
X114914563Y-98625898D01*
X115010027Y-98819557D01*
X115146713Y-98976894D01*
X115339038Y-99142767D01*
X115550923Y-99291709D01*
X115746286Y-99398250D01*
X115884755Y-99437000D01*
X115989943Y-99404739D01*
X116120789Y-99301664D01*
X116285499Y-99118332D01*
X116492278Y-98845301D01*
X116749331Y-98473128D01*
X116837647Y-98340476D01*
X117007831Y-98087021D01*
X117152124Y-97879425D01*
X117256897Y-97736763D01*
X117308518Y-97678110D01*
X117311098Y-97677932D01*
X117309476Y-97746486D01*
X117278027Y-97887649D01*
X117269914Y-97916786D01*
X117214629Y-98229462D01*
X117214952Y-98550194D01*
X117268241Y-98831376D01*
X117328195Y-98967403D01*
X117464094Y-99132016D01*
X117644638Y-99284544D01*
X117679170Y-99307169D01*
X117867054Y-99395574D01*
X118044449Y-99410855D01*
X118225662Y-99345029D01*
X118424997Y-99190113D01*
X118656761Y-98938125D01*
X118903027Y-98624236D01*
X119075762Y-98391874D01*
X119229897Y-98180835D01*
X119342077Y-98023255D01*
X119374496Y-97975533D01*
X119477742Y-97817750D01*
X119481682Y-98090611D01*
X119527128Y-98465323D01*
X119660772Y-98769735D01*
X119885054Y-99026231D01*
X120104131Y-99197420D01*
X120336108Y-99336230D01*
X120541379Y-99421032D01*
X120637180Y-99437000D01*
X120740695Y-99388792D01*
X120898627Y-99257910D01*
X121091491Y-99064963D01*
X121299802Y-98830559D01*
X121504077Y-98575309D01*
X121665054Y-98349771D01*
X122001750Y-97845209D01*
X122040804Y-98151434D01*
X122085856Y-98380127D01*
X122152321Y-98588705D01*
X122178261Y-98645705D01*
X122326520Y-98858578D01*
X122534489Y-99069333D01*
X122769614Y-99252763D01*
X122999344Y-99383665D01*
X123191125Y-99436831D01*
X123200224Y-99437000D01*
X123299700Y-99408818D01*
X123427873Y-99318503D01*
X123592750Y-99157398D01*
X123802342Y-98916848D01*
X124064655Y-98588196D01*
X124387699Y-98162786D01*
X124423387Y-98114946D01*
X124816144Y-97606333D01*
X125216972Y-97128173D01*
X125656269Y-96645820D01*
X126164434Y-96124631D01*
X126207614Y-96081573D01*
X126504306Y-95788616D01*
X126770628Y-95530181D01*
X126993713Y-95318383D01*
X127160696Y-95165335D01*
X127258708Y-95083153D01*
X127278993Y-95072827D01*
X127263418Y-95136933D01*
X127203535Y-95299917D01*
X127106291Y-95544457D01*
X126978636Y-95853235D01*
X126827517Y-96208928D01*
X126767584Y-96347719D01*
X126514576Y-96927767D01*
X126303152Y-97401022D01*
X126126064Y-97777929D01*
X125976063Y-98068932D01*
X125845902Y-98284475D01*
X125728332Y-98435002D01*
X125616104Y-98530958D01*
X125501971Y-98582785D01*
X125378684Y-98600929D01*
X125238994Y-98595834D01*
X125209311Y-98593031D01*
X124998611Y-98564639D01*
X124819791Y-98528503D01*
X124779875Y-98517012D01*
X124665799Y-98507905D01*
X124638373Y-98576685D01*
X124695495Y-98710403D01*
X124835058Y-98896108D01*
X124842912Y-98905102D01*
X125127693Y-99155939D01*
X125459206Y-99329890D01*
X125806256Y-99416791D01*
X126137649Y-99406476D01*
X126267991Y-99369460D01*
X126473677Y-99265481D01*
X126655454Y-99110689D01*
X126821904Y-98890870D01*
X126981610Y-98591807D01*
X127143153Y-98199284D01*
X127315118Y-97699086D01*
X127358167Y-97563750D01*
X127608042Y-96843697D01*
X127872402Y-96224756D01*
X128146908Y-95716241D01*
X128364353Y-95403411D01*
X128558956Y-95155984D01*
X128676721Y-94980364D01*
X128717018Y-94846764D01*
X128679218Y-94725399D01*
X128562691Y-94586481D01*
X128366807Y-94400224D01*
X128342672Y-94377700D01*
X128107605Y-94168681D01*
X127936640Y-94044046D01*
X127811358Y-93991644D01*
X127754031Y-93989351D01*
X127710495Y-94002218D01*
X127652053Y-94036062D01*
X127572187Y-94097526D01*
X127464380Y-94193255D01*
X127322115Y-94329894D01*
X127138875Y-94514087D01*
X126908142Y-94752478D01*
X126623399Y-95051712D01*
X126278130Y-95418433D01*
X125865816Y-95859285D01*
X125379941Y-96380914D01*
X124869539Y-96930139D01*
X124435786Y-97390695D01*
X124038838Y-97799257D01*
X123686578Y-98148375D01*
X123386891Y-98430603D01*
X123147660Y-98638491D01*
X122976768Y-98764592D01*
X122888306Y-98802000D01*
X122813326Y-98749552D01*
X122803955Y-98597110D01*
X122857936Y-98352026D01*
X122973010Y-98021651D01*
X123146920Y-97613335D01*
X123377409Y-97134432D01*
X123435491Y-97020319D01*
X123575085Y-96753920D01*
X123713734Y-96502888D01*
X123861732Y-96251383D01*
X124029374Y-95983566D01*
X124226954Y-95683598D01*
X124464766Y-95335640D01*
X124753105Y-94923853D01*
X125102264Y-94432398D01*
X125269646Y-94198250D01*
X125527825Y-93833951D01*
X125765245Y-93492138D01*
X125970342Y-93190002D01*
X126131556Y-92944732D01*
X126237325Y-92773516D01*
X126271317Y-92709021D01*
X126334014Y-92402832D01*
X126272137Y-92079719D01*
X126130573Y-91807610D01*
X126006310Y-91653919D01*
X125837905Y-91487419D01*
X125657454Y-91335204D01*
X125497051Y-91224368D01*
X125389472Y-91181999D01*
X125355112Y-91238209D01*
X125336558Y-91377979D01*
X125335500Y-91426059D01*
X125313948Y-91667916D01*
X125245823Y-91941261D01*
X125125916Y-92256522D01*
X124949019Y-92624128D01*
X124709924Y-93054506D01*
X124403425Y-93558084D01*
X124024313Y-94145292D01*
X123836265Y-94428203D01*
X123548796Y-94862361D01*
X123275724Y-95283708D01*
X123025634Y-95678222D01*
X122807111Y-96031884D01*
X122628740Y-96330673D01*
X122499108Y-96560570D01*
X122426799Y-96707556D01*
X122414500Y-96749943D01*
X122372869Y-96817503D01*
X122259090Y-96957766D01*
X122089832Y-97152662D01*
X121881765Y-97384116D01*
X121651559Y-97634056D01*
X121415883Y-97884411D01*
X121191407Y-98117107D01*
X120994801Y-98314072D01*
X120842734Y-98457233D01*
X120827000Y-98471042D01*
X120570577Y-98680972D01*
X120389053Y-98799128D01*
X120274197Y-98829744D01*
X120220018Y-98783423D01*
X120219324Y-98640568D01*
X120283440Y-98409887D01*
X120403851Y-98107249D01*
X120572039Y-97748520D01*
X120779487Y-97349567D01*
X121017679Y-96926258D01*
X121278097Y-96494459D01*
X121552226Y-96070039D01*
X121831549Y-95668864D01*
X122041317Y-95390238D01*
X122188398Y-95189071D01*
X122297646Y-95014269D01*
X122349313Y-94898086D01*
X122351000Y-94884419D01*
X122306183Y-94778887D01*
X122191773Y-94626753D01*
X122158596Y-94590559D01*
X122756720Y-94590559D01*
X122783682Y-94679024D01*
X122866069Y-94793185D01*
X122970804Y-94916656D01*
X123041053Y-94983254D01*
X123049500Y-94986892D01*
X123093650Y-94937453D01*
X123194392Y-94799894D01*
X123338910Y-94592450D01*
X123514389Y-94333355D01*
X123614229Y-94183348D01*
X124147208Y-93377884D01*
X123518979Y-93910478D01*
X123274891Y-94117737D01*
X123060553Y-94300344D01*
X122897525Y-94439889D01*
X122807364Y-94517964D01*
X122802569Y-94522234D01*
X122756720Y-94590559D01*
X122158596Y-94590559D01*
X122037824Y-94458808D01*
X121874394Y-94305844D01*
X121731540Y-94198650D01*
X121650204Y-94166500D01*
X121566720Y-94218153D01*
X121429460Y-94362061D01*
X121250103Y-94581641D01*
X121040325Y-94860313D01*
X120811806Y-95181496D01*
X120576221Y-95528610D01*
X120345249Y-95885073D01*
X120130568Y-96234305D01*
X119943855Y-96559725D01*
X119877562Y-96683439D01*
X119737823Y-96907149D01*
X119521792Y-97186032D01*
X119222444Y-97528530D01*
X118832750Y-97943086D01*
X118805857Y-97970937D01*
X118449124Y-98334540D01*
X118172079Y-98603274D01*
X117971146Y-98778166D01*
X117842749Y-98860244D01*
X117783310Y-98850535D01*
X117789254Y-98750065D01*
X117857003Y-98559862D01*
X117982981Y-98280952D01*
X118024172Y-98195391D01*
X118157824Y-97941731D01*
X118340260Y-97624585D01*
X118547437Y-97284513D01*
X118754422Y-96963411D01*
X118931177Y-96694204D01*
X119079110Y-96460932D01*
X119185264Y-96284643D01*
X119236678Y-96186384D01*
X119239500Y-96175635D01*
X119193197Y-96095144D01*
X119074494Y-95966523D01*
X118913695Y-95816342D01*
X118741106Y-95671174D01*
X118587032Y-95557589D01*
X118481778Y-95502159D01*
X118469365Y-95500390D01*
X118399930Y-95547968D01*
X118264970Y-95681600D01*
X118077155Y-95887267D01*
X117849153Y-96150950D01*
X117593635Y-96458631D01*
X117508503Y-96563625D01*
X117128809Y-97028071D01*
X116768128Y-97456752D01*
X116435408Y-97839886D01*
X116139595Y-98167692D01*
X115889638Y-98430388D01*
X115694484Y-98618194D01*
X115563080Y-98721327D01*
X115519022Y-98738500D01*
X115451385Y-98683340D01*
X115431425Y-98531828D01*
X115458145Y-98304915D01*
X115530550Y-98023550D01*
X115556795Y-97943890D01*
X115798456Y-97392935D01*
X116136222Y-96839621D01*
X116547956Y-96309429D01*
X117011521Y-95827839D01*
X117504779Y-95420332D01*
X118005593Y-95112389D01*
X118025312Y-95102580D01*
X118430375Y-94903004D01*
X118577891Y-95074502D01*
X118701474Y-95205571D01*
X118767941Y-95234436D01*
X118792720Y-95163137D01*
X118794404Y-95103125D01*
X118752872Y-94930091D01*
X118645297Y-94705860D01*
X118495526Y-94468946D01*
X118327406Y-94257868D01*
X118192602Y-94131094D01*
X118043125Y-94027540D01*
X117934882Y-93996239D01*
X117813657Y-94025672D01*
X117773081Y-94041951D01*
X117277609Y-94302875D01*
X116778344Y-94669273D01*
X116294905Y-95121798D01*
X115846912Y-95641102D01*
X115453982Y-96207835D01*
X115291798Y-96488988D01*
X115102473Y-96787527D01*
X114833412Y-97139384D01*
X114505836Y-97520828D01*
X114140966Y-97908130D01*
X113760023Y-98277556D01*
X113441828Y-98557790D01*
X113187964Y-98753736D01*
X113012865Y-98850735D01*
X112915680Y-98848009D01*
X112895560Y-98744778D01*
X112951654Y-98540264D01*
X113083112Y-98233687D01*
X113084617Y-98230500D01*
X113327647Y-97795280D01*
X113667891Y-97307280D01*
X114094772Y-96780881D01*
X114406445Y-96432757D01*
X114626388Y-96189788D01*
X114765786Y-96015971D01*
X114834553Y-95891320D01*
X114842604Y-95795848D01*
X114799854Y-95709568D01*
X114778625Y-95682511D01*
X114669750Y-95572131D01*
X114508783Y-95431981D01*
X114326862Y-95286331D01*
X114155125Y-95159448D01*
X114024710Y-95075600D01*
X113974114Y-95055500D01*
X113887771Y-95085115D01*
X113723666Y-95163670D01*
X113513510Y-95275724D01*
X113459052Y-95306278D01*
X113254370Y-95418062D01*
X113099869Y-95494439D01*
X113021369Y-95522926D01*
X113016500Y-95520237D01*
X113050782Y-95453264D01*
X113140036Y-95315703D01*
X113247163Y-95162350D01*
X113478053Y-94802881D01*
X113632035Y-94480520D01*
X113707754Y-94206508D01*
X113703851Y-93992087D01*
X113618970Y-93848500D01*
X113451753Y-93786988D01*
X113413396Y-93785499D01*
X113177578Y-93838305D01*
X112917306Y-94000443D01*
X112658015Y-94240781D01*
X112357811Y-94620160D01*
X112177484Y-95015360D01*
X112110040Y-95447879D01*
X112134589Y-95849250D01*
X112102395Y-95948842D01*
X111994439Y-96139682D01*
X111815286Y-96414650D01*
X111569502Y-96766625D01*
X111368768Y-97043424D01*
X111072801Y-97455115D01*
X110856868Y-97773356D01*
X110717506Y-98000389D01*
X110651250Y-98138457D01*
X110294021Y-98138457D01*
X110286904Y-98115361D01*
X110286000Y-98099183D01*
X110322441Y-98008439D01*
X110423987Y-97834464D01*
X110578971Y-97595193D01*
X110775727Y-97308564D01*
X111002587Y-96992512D01*
X111030812Y-96954095D01*
X111775625Y-95942847D01*
X111784901Y-94972153D01*
X111539439Y-95251951D01*
X110853117Y-96075295D01*
X110257030Y-96876232D01*
X109755038Y-97647998D01*
X109351004Y-98383826D01*
X109048790Y-99076951D01*
X108852256Y-99720605D01*
X108787541Y-100073620D01*
X108727200Y-100321039D01*
X108617815Y-100462770D01*
X108445170Y-100515258D01*
X108404643Y-100516500D01*
X108307841Y-100473140D01*
X108157392Y-100358944D01*
X107984316Y-100197733D01*
X107968598Y-100181638D01*
X107624100Y-99750361D01*
X107402785Y-99292921D01*
X107303776Y-98805205D01*
X107326200Y-98283102D01*
X107454390Y-97765689D01*
X107669981Y-97216681D01*
X107968435Y-96599546D01*
X108339673Y-95932709D01*
X108773616Y-95234592D01*
X109118357Y-94724164D01*
X109266430Y-94510011D01*
X109382231Y-94338624D01*
X109449748Y-94233909D01*
X109460500Y-94213363D01*
X109400968Y-94205548D01*
X109238247Y-94198997D01*
X108996144Y-94194335D01*
X108698468Y-94192186D01*
X108650875Y-94192119D01*
X108266105Y-94185140D01*
X107953803Y-94165842D01*
X107734905Y-94135878D01*
X107657818Y-94113769D01*
X107526068Y-94064787D01*
X107458754Y-94052963D01*
X107457967Y-94053598D01*
X107443306Y-94117535D01*
X107408677Y-94291135D01*
X107356913Y-94559126D01*
X107290847Y-94906234D01*
X107213309Y-95317186D01*
X107127132Y-95776708D01*
X107035149Y-96269528D01*
X106940190Y-96780372D01*
X106845090Y-97293967D01*
X106752679Y-97795040D01*
X106665790Y-98268318D01*
X106587255Y-98698527D01*
X106519905Y-99070395D01*
X106466574Y-99368647D01*
X106430093Y-99578012D01*
X106413294Y-99683214D01*
X106412500Y-99691666D01*
X106351280Y-99717530D01*
X106176534Y-99737256D01*
X105901627Y-99749895D01*
X105539927Y-99754496D01*
X105528062Y-99754500D01*
X104643624Y-99754500D01*
X104518193Y-99421125D01*
X104425904Y-99175498D01*
X104316723Y-98884435D01*
X104238268Y-98675000D01*
X104083774Y-98262250D01*
X104230865Y-97479343D01*
X104377955Y-96696437D01*
X104694786Y-96411580D01*
X105027259Y-96030933D01*
X105275960Y-95576206D01*
X105436228Y-95072673D01*
X105503399Y-94545606D01*
X105472813Y-94020275D01*
X105339806Y-93521955D01*
X105260762Y-93343574D01*
X105159692Y-93130577D01*
X105110526Y-92976319D01*
X105104575Y-92827927D01*
X105133146Y-92632527D01*
X105138812Y-92601626D01*
X105174914Y-92403166D01*
X105199302Y-92263032D01*
X105206000Y-92218087D01*
X105262365Y-92205440D01*
X105402960Y-92198472D01*
X105457008Y-92198000D01*
X105708016Y-92198000D01*
X105670546Y-91881627D01*
X105669287Y-91822384D01*
X105967744Y-91822384D01*
X106005636Y-92002785D01*
X106103715Y-92253332D01*
X106162159Y-92375763D01*
X106448121Y-92821151D01*
X106809409Y-93164609D01*
X107245001Y-93405691D01*
X107753873Y-93543955D01*
X108335001Y-93578956D01*
X108834432Y-93534772D01*
X109131831Y-93486186D01*
X109482378Y-93420547D01*
X109846532Y-93346105D01*
X110184754Y-93271109D01*
X110457506Y-93203809D01*
X110559546Y-93174836D01*
X110569809Y-93207525D01*
X110507177Y-93328403D01*
X110378292Y-93526643D01*
X110189793Y-93791422D01*
X110139569Y-93859430D01*
X109736476Y-94415910D01*
X109341466Y-94987317D01*
X108969798Y-95550102D01*
X108636731Y-96080721D01*
X108357523Y-96555626D01*
X108186045Y-96873999D01*
X107920227Y-97437445D01*
X107739245Y-97924604D01*
X107640760Y-98351543D01*
X107622432Y-98734331D01*
X107681924Y-99089036D01*
X107814456Y-99426857D01*
X107918757Y-99622047D01*
X108006571Y-99762233D01*
X108059374Y-99817941D01*
X108060275Y-99818000D01*
X108096266Y-99761030D01*
X108133895Y-99615032D01*
X108153624Y-99493957D01*
X108274749Y-98946316D01*
X108497457Y-98340315D01*
X108815843Y-97685235D01*
X109224002Y-96990358D01*
X109716031Y-96264965D01*
X110286024Y-95518338D01*
X110928077Y-94759760D01*
X111636286Y-93998511D01*
X111674176Y-93959677D01*
X111969804Y-93656025D01*
X112186502Y-93428303D01*
X112334971Y-93262470D01*
X112425911Y-93144481D01*
X112470023Y-93060295D01*
X112478007Y-92995867D01*
X112460564Y-92937155D01*
X112457881Y-92931163D01*
X112419554Y-92812756D01*
X112459982Y-92757583D01*
X112495517Y-92744976D01*
X112854003Y-92668051D01*
X113306422Y-92611368D01*
X113821263Y-92575362D01*
X114367012Y-92560470D01*
X114912158Y-92567128D01*
X115425187Y-92595774D01*
X115874587Y-92646844D01*
X116128000Y-92694659D01*
X116372550Y-92748455D01*
X116565550Y-92784872D01*
X116677330Y-92798574D01*
X116692917Y-92796276D01*
X116681577Y-92727718D01*
X116604776Y-92597669D01*
X116485210Y-92436056D01*
X116345580Y-92272803D01*
X116208584Y-92137835D01*
X116168888Y-92105415D01*
X115984928Y-91989609D01*
X115743870Y-91868788D01*
X115579014Y-91800294D01*
X115264948Y-91720828D01*
X114839752Y-91672271D01*
X114315426Y-91654406D01*
X113703967Y-91667017D01*
X113017373Y-91709888D01*
X112267641Y-91782801D01*
X111556000Y-91872925D01*
X110693257Y-91988619D01*
X109940765Y-92077542D01*
X109284546Y-92139312D01*
X108710623Y-92173550D01*
X108205019Y-92179874D01*
X107753758Y-92157905D01*
X107342861Y-92107263D01*
X106958352Y-92027566D01*
X106586253Y-91918434D01*
X106212588Y-91779487D01*
X106079125Y-91723859D01*
X105991690Y-91725090D01*
X105967744Y-91822384D01*
X105669287Y-91822384D01*
X105664942Y-91618074D01*
X105726804Y-91452066D01*
X105862802Y-91380418D01*
X106079602Y-91399948D01*
X106383873Y-91507470D01*
X106420574Y-91523473D01*
X106733089Y-91646675D01*
X107048292Y-91735584D01*
X107394334Y-91794454D01*
X107799370Y-91827534D01*
X108291551Y-91839077D01*
X108508000Y-91838695D01*
X109217610Y-91815629D01*
X109980263Y-91754234D01*
X110762250Y-91661041D01*
X111575314Y-91554039D01*
X112276033Y-91467571D01*
X112877274Y-91400923D01*
X113391902Y-91353381D01*
X113832782Y-91324230D01*
X114212779Y-91312755D01*
X114544759Y-91318242D01*
X114841587Y-91339977D01*
X115116129Y-91377243D01*
X115289302Y-91409576D01*
X115578361Y-91483313D01*
X115866441Y-91580109D01*
X116091364Y-91679062D01*
X116092083Y-91679451D01*
X116406920Y-91877978D01*
X116692480Y-92110897D01*
X116939588Y-92363317D01*
X117139064Y-92620345D01*
X117281731Y-92867088D01*
X117358411Y-93088655D01*
X117359926Y-93270154D01*
X117277098Y-93396693D01*
X117177939Y-93441374D01*
X117035870Y-93446735D01*
X116822485Y-93421541D01*
X116623281Y-93380387D01*
X115751327Y-93225102D01*
X114823431Y-93180815D01*
X114136121Y-93215937D01*
X113822576Y-93245597D01*
X113555351Y-93274272D01*
X113359599Y-93299015D01*
X113260472Y-93316878D01*
X113254625Y-93319258D01*
X113202999Y-93388266D01*
X113258192Y-93444620D01*
X113400255Y-93467999D01*
X113400653Y-93468000D01*
X113666880Y-93517821D01*
X113934465Y-93673552D01*
X114159500Y-93878962D01*
X114281544Y-94016266D01*
X114348233Y-94136911D01*
X114376117Y-94288675D01*
X114381749Y-94519339D01*
X114381750Y-94520517D01*
X114381750Y-94930773D01*
X114858000Y-95310190D01*
X115105856Y-95504206D01*
X115272072Y-95623968D01*
X115371487Y-95677810D01*
X115418938Y-95674067D01*
X115429500Y-95631219D01*
X115475544Y-95539103D01*
X115601402Y-95384110D01*
X115788656Y-95183861D01*
X116018889Y-94955979D01*
X116273687Y-94718085D01*
X116534631Y-94487802D01*
X116783307Y-94282750D01*
X117001298Y-94120553D01*
X117025188Y-94104359D01*
X117377065Y-93880723D01*
X117658154Y-93740185D01*
X117894543Y-93683720D01*
X118112321Y-93712308D01*
X118337577Y-93826926D01*
X118596402Y-94028550D01*
X118754042Y-94169133D01*
X119045509Y-94482222D01*
X119272840Y-94820790D01*
X119422581Y-95158568D01*
X119481274Y-95469287D01*
X119476357Y-95579238D01*
X119464551Y-95761352D01*
X119502160Y-95876889D01*
X119609028Y-95982781D01*
X119620136Y-95991720D01*
X119798359Y-96134190D01*
X120087576Y-95670159D01*
X120309305Y-95327736D01*
X120545838Y-94985289D01*
X120783624Y-94660187D01*
X121009107Y-94369794D01*
X121208736Y-94131479D01*
X121271965Y-94064835D01*
X121973390Y-94064835D01*
X122007363Y-94097539D01*
X122030240Y-94092416D01*
X122100167Y-94045802D01*
X122246356Y-93934380D01*
X122447568Y-93774730D01*
X122682568Y-93583427D01*
X122687731Y-93579175D01*
X123070778Y-93252529D01*
X123396641Y-92952414D01*
X123655036Y-92689587D01*
X123835679Y-92474806D01*
X123928287Y-92318827D01*
X123938500Y-92270794D01*
X123886485Y-92156402D01*
X123755088Y-92019298D01*
X123581281Y-91887670D01*
X123402034Y-91789707D01*
X123260036Y-91753500D01*
X123185044Y-91767650D01*
X123107625Y-91818801D01*
X123019181Y-91919997D01*
X122911112Y-92084286D01*
X122774820Y-92324713D01*
X122601704Y-92654325D01*
X122388019Y-93076483D01*
X122196105Y-93468328D01*
X122064921Y-93758293D01*
X121991630Y-93954441D01*
X121973390Y-94064835D01*
X121271965Y-94064835D01*
X121368957Y-93962606D01*
X121476216Y-93880544D01*
X121487229Y-93876712D01*
X121556826Y-93836211D01*
X121641814Y-93738086D01*
X121750794Y-93568634D01*
X121892367Y-93314152D01*
X122075135Y-92960939D01*
X122128650Y-92854848D01*
X122366473Y-92394214D01*
X122566052Y-92039475D01*
X122736755Y-91778789D01*
X122887950Y-91600312D01*
X123029003Y-91492203D01*
X123169283Y-91442618D01*
X123250940Y-91436000D01*
X123457435Y-91481981D01*
X123712957Y-91605386D01*
X123987275Y-91784408D01*
X124250156Y-91997239D01*
X124471370Y-92222071D01*
X124609470Y-92415969D01*
X124648855Y-92463403D01*
X124690753Y-92442527D01*
X124746778Y-92336901D01*
X124828547Y-92130089D01*
X124847595Y-92078961D01*
X124937397Y-91793486D01*
X124998388Y-91514520D01*
X125018000Y-91318067D01*
X125049410Y-91056614D01*
X125144388Y-90901312D01*
X125304048Y-90852217D01*
X125529509Y-90909387D01*
G36*
X125529509Y-90909387D02*
G01*
X125821888Y-91072878D01*
X126182300Y-91342746D01*
X126227038Y-91379671D01*
X126613831Y-91753098D01*
X126874281Y-92124997D01*
X127009011Y-92496707D01*
X127018646Y-92869568D01*
X126988825Y-93014865D01*
X126925202Y-93159249D01*
X126792021Y-93390342D01*
X126597821Y-93694703D01*
X126351140Y-94058890D01*
X126097419Y-94418200D01*
X125752251Y-94901644D01*
X125430402Y-95358024D01*
X125139115Y-95776648D01*
X124885633Y-96146824D01*
X124677201Y-96457861D01*
X124521060Y-96699067D01*
X124424457Y-96859750D01*
X124394632Y-96929218D01*
X124395361Y-96930527D01*
X124442484Y-96891791D01*
X124563989Y-96771127D01*
X124748572Y-96580348D01*
X124984934Y-96331269D01*
X125261772Y-96035702D01*
X125567784Y-95705461D01*
X125579601Y-95692642D01*
X126036767Y-95197985D01*
X126417806Y-94789648D01*
X126731523Y-94459534D01*
X126986725Y-94199541D01*
X127192217Y-94001570D01*
X127356806Y-93857523D01*
X127489297Y-93759298D01*
X127598497Y-93698796D01*
X127693211Y-93667918D01*
X127782245Y-93658563D01*
X127791109Y-93658499D01*
X127906458Y-93667583D01*
X128017752Y-93704427D01*
X128147943Y-93783422D01*
X128319984Y-93918959D01*
X128556830Y-94125429D01*
X128606230Y-94169549D01*
X128840344Y-94381644D01*
X129048209Y-94574655D01*
X129206321Y-94726464D01*
X129288375Y-94811584D01*
X129387364Y-94990053D01*
X129393020Y-95194662D01*
X129302067Y-95440415D01*
X129111227Y-95742319D01*
X129074103Y-95792945D01*
X128754170Y-96274775D01*
X128468825Y-96819316D01*
X128207375Y-97449127D01*
X127996695Y-98065978D01*
X127843225Y-98534413D01*
X127708288Y-98899608D01*
X127581762Y-99182049D01*
X127453525Y-99402220D01*
X127313453Y-99580607D01*
X127185531Y-99707487D01*
X126844843Y-99937577D01*
X126470267Y-100049472D01*
X126071562Y-100044239D01*
X125658489Y-99922946D01*
X125240807Y-99686661D01*
X124962935Y-99464274D01*
X124651411Y-99184188D01*
X124360593Y-99524594D01*
X124071949Y-99815437D01*
X123800305Y-99987855D01*
X123535157Y-100047405D01*
X123395395Y-100035431D01*
X123215486Y-99968372D01*
X122979680Y-99835484D01*
X122722473Y-99660147D01*
X122478359Y-99465742D01*
X122293649Y-99288685D01*
X122141048Y-99122360D01*
X121772085Y-99525019D01*
X121577716Y-99721938D01*
X121388893Y-99887637D01*
X121239265Y-99993232D01*
X121209520Y-100007870D01*
X120963399Y-100052762D01*
X120683957Y-99993161D01*
X120363259Y-99826078D01*
X119995479Y-99550291D01*
X119545083Y-99172123D01*
X119185916Y-99545761D01*
X118883511Y-99827077D01*
X118613331Y-99994675D01*
X118354634Y-100049656D01*
X118086681Y-99993124D01*
X117788729Y-99826180D01*
X117538099Y-99633343D01*
X117169469Y-99326565D01*
X116834782Y-99699282D01*
X116647552Y-99896906D01*
X116508232Y-100011795D01*
X116389179Y-100063299D01*
X116302346Y-100072000D01*
X116012537Y-100014151D01*
X115676963Y-99842302D01*
X115300315Y-99559001D01*
X115207250Y-99477337D01*
X114826250Y-99134538D01*
X114485634Y-99510132D01*
X114186315Y-99806416D01*
X113912445Y-99994979D01*
X113647775Y-100075573D01*
X113376056Y-100047948D01*
X113081038Y-99911854D01*
X112746473Y-99667043D01*
X112533385Y-99480169D01*
X112195798Y-99126247D01*
X111977367Y-98793310D01*
X111880118Y-98484665D01*
X111874894Y-98405125D01*
X111864304Y-98278263D01*
X111843056Y-98230500D01*
X111787695Y-98272857D01*
X111668202Y-98385174D01*
X111507899Y-98545320D01*
X111466572Y-98587767D01*
X111285080Y-98768721D01*
X111159539Y-98870918D01*
X111062038Y-98910975D01*
X110964661Y-98905506D01*
X110941745Y-98900162D01*
X110778208Y-98841835D01*
X110674593Y-98781952D01*
X110554725Y-98648333D01*
X110432056Y-98460896D01*
X110333733Y-98267339D01*
X110294021Y-98138457D01*
X110651250Y-98138457D01*
X110654637Y-98189803D01*
X110724203Y-98156669D01*
X110856484Y-98041298D01*
X111048016Y-97845932D01*
X111295336Y-97572813D01*
X111594979Y-97224185D01*
X111943482Y-96802290D01*
X112163387Y-96528978D01*
X112329454Y-96328520D01*
X112450518Y-96210240D01*
X112555548Y-96153083D01*
X112673515Y-96135994D01*
X112704782Y-96135519D01*
X112906196Y-96115883D01*
X113147977Y-96066965D01*
X113244532Y-96040437D01*
X113425393Y-95986610D01*
X113548135Y-95952035D01*
X113577750Y-95945187D01*
X113547704Y-95987979D01*
X113449219Y-96103224D01*
X113300211Y-96270250D01*
X113212911Y-96366121D01*
X112784916Y-96873929D01*
X112472862Y-97338181D01*
X112275003Y-97763063D01*
X112189597Y-98152759D01*
X112214896Y-98511452D01*
X112258539Y-98654991D01*
X112398999Y-98901893D01*
X112610610Y-99129651D01*
X112859136Y-99311017D01*
X113110341Y-99418748D01*
X113240919Y-99436762D01*
X113373104Y-99412832D01*
X113515199Y-99328386D01*
X113695770Y-99164949D01*
X113756044Y-99103625D01*
X113924726Y-98919109D01*
X114113395Y-98696823D01*
X114304102Y-98460030D01*
X114478898Y-98231992D01*
X114619832Y-98035975D01*
X114708955Y-97895242D01*
X114731000Y-97840030D01*
X114780126Y-97788093D01*
X114798779Y-97786000D01*
X114837699Y-97835392D01*
X114826513Y-97912169D01*
X114807462Y-98111793D01*
X114840453Y-98367705D01*
X114914563Y-98625898D01*
X115010027Y-98819557D01*
X115146713Y-98976894D01*
X115339038Y-99142767D01*
X115550923Y-99291709D01*
X115746286Y-99398250D01*
X115884755Y-99437000D01*
X115989943Y-99404739D01*
X116120789Y-99301664D01*
X116285499Y-99118332D01*
X116492278Y-98845301D01*
X116749331Y-98473128D01*
X116837647Y-98340476D01*
X117007831Y-98087021D01*
X117152124Y-97879425D01*
X117256897Y-97736763D01*
X117308518Y-97678110D01*
X117311098Y-97677932D01*
X117309476Y-97746486D01*
X117278027Y-97887649D01*
X117269914Y-97916786D01*
X117214629Y-98229462D01*
X117214952Y-98550194D01*
X117268241Y-98831376D01*
X117328195Y-98967403D01*
X117464094Y-99132016D01*
X117644638Y-99284544D01*
X117679170Y-99307169D01*
X117867054Y-99395574D01*
X118044449Y-99410855D01*
X118225662Y-99345029D01*
X118424997Y-99190113D01*
X118656761Y-98938125D01*
X118903027Y-98624236D01*
X119075762Y-98391874D01*
X119229897Y-98180835D01*
X119342077Y-98023255D01*
X119374496Y-97975533D01*
X119477742Y-97817750D01*
X119481682Y-98090611D01*
X119527128Y-98465323D01*
X119660772Y-98769735D01*
X119885054Y-99026231D01*
X120104131Y-99197420D01*
X120336108Y-99336230D01*
X120541379Y-99421032D01*
X120637180Y-99437000D01*
X120740695Y-99388792D01*
X120898627Y-99257910D01*
X121091491Y-99064963D01*
X121299802Y-98830559D01*
X121504077Y-98575309D01*
X121665054Y-98349771D01*
X122001750Y-97845209D01*
X122040804Y-98151434D01*
X122085856Y-98380127D01*
X122152321Y-98588705D01*
X122178261Y-98645705D01*
X122326520Y-98858578D01*
X122534489Y-99069333D01*
X122769614Y-99252763D01*
X122999344Y-99383665D01*
X123191125Y-99436831D01*
X123200224Y-99437000D01*
X123299700Y-99408818D01*
X123427873Y-99318503D01*
X123592750Y-99157398D01*
X123802342Y-98916848D01*
X124064655Y-98588196D01*
X124387699Y-98162786D01*
X124423387Y-98114946D01*
X124816144Y-97606333D01*
X125216972Y-97128173D01*
X125656269Y-96645820D01*
X126164434Y-96124631D01*
X126207614Y-96081573D01*
X126504306Y-95788616D01*
X126770628Y-95530181D01*
X126993713Y-95318383D01*
X127160696Y-95165335D01*
X127258708Y-95083153D01*
X127278993Y-95072827D01*
X127263418Y-95136933D01*
X127203535Y-95299917D01*
X127106291Y-95544457D01*
X126978636Y-95853235D01*
X126827517Y-96208928D01*
X126767584Y-96347719D01*
X126514576Y-96927767D01*
X126303152Y-97401022D01*
X126126064Y-97777929D01*
X125976063Y-98068932D01*
X125845902Y-98284475D01*
X125728332Y-98435002D01*
X125616104Y-98530958D01*
X125501971Y-98582785D01*
X125378684Y-98600929D01*
X125238994Y-98595834D01*
X125209311Y-98593031D01*
X124998611Y-98564639D01*
X124819791Y-98528503D01*
X124779875Y-98517012D01*
X124665799Y-98507905D01*
X124638373Y-98576685D01*
X124695495Y-98710403D01*
X124835058Y-98896108D01*
X124842912Y-98905102D01*
X125127693Y-99155939D01*
X125459206Y-99329890D01*
X125806256Y-99416791D01*
X126137649Y-99406476D01*
X126267991Y-99369460D01*
X126473677Y-99265481D01*
X126655454Y-99110689D01*
X126821904Y-98890870D01*
X126981610Y-98591807D01*
X127143153Y-98199284D01*
X127315118Y-97699086D01*
X127358167Y-97563750D01*
X127608042Y-96843697D01*
X127872402Y-96224756D01*
X128146908Y-95716241D01*
X128364353Y-95403411D01*
X128558956Y-95155984D01*
X128676721Y-94980364D01*
X128717018Y-94846764D01*
X128679218Y-94725399D01*
X128562691Y-94586481D01*
X128366807Y-94400224D01*
X128342672Y-94377700D01*
X128107605Y-94168681D01*
X127936640Y-94044046D01*
X127811358Y-93991644D01*
X127754031Y-93989351D01*
X127710495Y-94002218D01*
X127652053Y-94036062D01*
X127572187Y-94097526D01*
X127464380Y-94193255D01*
X127322115Y-94329894D01*
X127138875Y-94514087D01*
X126908142Y-94752478D01*
X126623399Y-95051712D01*
X126278130Y-95418433D01*
X125865816Y-95859285D01*
X125379941Y-96380914D01*
X124869539Y-96930139D01*
X124435786Y-97390695D01*
X124038838Y-97799257D01*
X123686578Y-98148375D01*
X123386891Y-98430603D01*
X123147660Y-98638491D01*
X122976768Y-98764592D01*
X122888306Y-98802000D01*
X122813326Y-98749552D01*
X122803955Y-98597110D01*
X122857936Y-98352026D01*
X122973010Y-98021651D01*
X123146920Y-97613335D01*
X123377409Y-97134432D01*
X123435491Y-97020319D01*
X123575085Y-96753920D01*
X123713734Y-96502888D01*
X123861732Y-96251383D01*
X124029374Y-95983566D01*
X124226954Y-95683598D01*
X124464766Y-95335640D01*
X124753105Y-94923853D01*
X125102264Y-94432398D01*
X125269646Y-94198250D01*
X125527825Y-93833951D01*
X125765245Y-93492138D01*
X125970342Y-93190002D01*
X126131556Y-92944732D01*
X126237325Y-92773516D01*
X126271317Y-92709021D01*
X126334014Y-92402832D01*
X126272137Y-92079719D01*
X126130573Y-91807610D01*
X126006310Y-91653919D01*
X125837905Y-91487419D01*
X125657454Y-91335204D01*
X125497051Y-91224368D01*
X125389472Y-91181999D01*
X125355112Y-91238209D01*
X125336558Y-91377979D01*
X125335500Y-91426059D01*
X125313948Y-91667916D01*
X125245823Y-91941261D01*
X125125916Y-92256522D01*
X124949019Y-92624128D01*
X124709924Y-93054506D01*
X124403425Y-93558084D01*
X124024313Y-94145292D01*
X123836265Y-94428203D01*
X123548796Y-94862361D01*
X123275724Y-95283708D01*
X123025634Y-95678222D01*
X122807111Y-96031884D01*
X122628740Y-96330673D01*
X122499108Y-96560570D01*
X122426799Y-96707556D01*
X122414500Y-96749943D01*
X122372869Y-96817503D01*
X122259090Y-96957766D01*
X122089832Y-97152662D01*
X121881765Y-97384116D01*
X121651559Y-97634056D01*
X121415883Y-97884411D01*
X121191407Y-98117107D01*
X120994801Y-98314072D01*
X120842734Y-98457233D01*
X120827000Y-98471042D01*
X120570577Y-98680972D01*
X120389053Y-98799128D01*
X120274197Y-98829744D01*
X120220018Y-98783423D01*
X120219324Y-98640568D01*
X120283440Y-98409887D01*
X120403851Y-98107249D01*
X120572039Y-97748520D01*
X120779487Y-97349567D01*
X121017679Y-96926258D01*
X121278097Y-96494459D01*
X121552226Y-96070039D01*
X121831549Y-95668864D01*
X122041317Y-95390238D01*
X122188398Y-95189071D01*
X122297646Y-95014269D01*
X122349313Y-94898086D01*
X122351000Y-94884419D01*
X122306183Y-94778887D01*
X122191773Y-94626753D01*
X122158596Y-94590559D01*
X122756720Y-94590559D01*
X122783682Y-94679024D01*
X122866069Y-94793185D01*
X122970804Y-94916656D01*
X123041053Y-94983254D01*
X123049500Y-94986892D01*
X123093650Y-94937453D01*
X123194392Y-94799894D01*
X123338910Y-94592450D01*
X123514389Y-94333355D01*
X123614229Y-94183348D01*
X124147208Y-93377884D01*
X123518979Y-93910478D01*
X123274891Y-94117737D01*
X123060553Y-94300344D01*
X122897525Y-94439889D01*
X122807364Y-94517964D01*
X122802569Y-94522234D01*
X122756720Y-94590559D01*
X122158596Y-94590559D01*
X122037824Y-94458808D01*
X121874394Y-94305844D01*
X121731540Y-94198650D01*
X121650204Y-94166500D01*
X121566720Y-94218153D01*
X121429460Y-94362061D01*
X121250103Y-94581641D01*
X121040325Y-94860313D01*
X120811806Y-95181496D01*
X120576221Y-95528610D01*
X120345249Y-95885073D01*
X120130568Y-96234305D01*
X119943855Y-96559725D01*
X119877562Y-96683439D01*
X119737823Y-96907149D01*
X119521792Y-97186032D01*
X119222444Y-97528530D01*
X118832750Y-97943086D01*
X118805857Y-97970937D01*
X118449124Y-98334540D01*
X118172079Y-98603274D01*
X117971146Y-98778166D01*
X117842749Y-98860244D01*
X117783310Y-98850535D01*
X117789254Y-98750065D01*
X117857003Y-98559862D01*
X117982981Y-98280952D01*
X118024172Y-98195391D01*
X118157824Y-97941731D01*
X118340260Y-97624585D01*
X118547437Y-97284513D01*
X118754422Y-96963411D01*
X118931177Y-96694204D01*
X119079110Y-96460932D01*
X119185264Y-96284643D01*
X119236678Y-96186384D01*
X119239500Y-96175635D01*
X119193197Y-96095144D01*
X119074494Y-95966523D01*
X118913695Y-95816342D01*
X118741106Y-95671174D01*
X118587032Y-95557589D01*
X118481778Y-95502159D01*
X118469365Y-95500390D01*
X118399930Y-95547968D01*
X118264970Y-95681600D01*
X118077155Y-95887267D01*
X117849153Y-96150950D01*
X117593635Y-96458631D01*
X117508503Y-96563625D01*
X117128809Y-97028071D01*
X116768128Y-97456752D01*
X116435408Y-97839886D01*
X116139595Y-98167692D01*
X115889638Y-98430388D01*
X115694484Y-98618194D01*
X115563080Y-98721327D01*
X115519022Y-98738500D01*
X115451385Y-98683340D01*
X115431425Y-98531828D01*
X115458145Y-98304915D01*
X115530550Y-98023550D01*
X115556795Y-97943890D01*
X115798456Y-97392935D01*
X116136222Y-96839621D01*
X116547956Y-96309429D01*
X117011521Y-95827839D01*
X117504779Y-95420332D01*
X118005593Y-95112389D01*
X118025312Y-95102580D01*
X118430375Y-94903004D01*
X118577891Y-95074502D01*
X118701474Y-95205571D01*
X118767941Y-95234436D01*
X118792720Y-95163137D01*
X118794404Y-95103125D01*
X118752872Y-94930091D01*
X118645297Y-94705860D01*
X118495526Y-94468946D01*
X118327406Y-94257868D01*
X118192602Y-94131094D01*
X118043125Y-94027540D01*
X117934882Y-93996239D01*
X117813657Y-94025672D01*
X117773081Y-94041951D01*
X117277609Y-94302875D01*
X116778344Y-94669273D01*
X116294905Y-95121798D01*
X115846912Y-95641102D01*
X115453982Y-96207835D01*
X115291798Y-96488988D01*
X115102473Y-96787527D01*
X114833412Y-97139384D01*
X114505836Y-97520828D01*
X114140966Y-97908130D01*
X113760023Y-98277556D01*
X113441828Y-98557790D01*
X113187964Y-98753736D01*
X113012865Y-98850735D01*
X112915680Y-98848009D01*
X112895560Y-98744778D01*
X112951654Y-98540264D01*
X113083112Y-98233687D01*
X113084617Y-98230500D01*
X113327647Y-97795280D01*
X113667891Y-97307280D01*
X114094772Y-96780881D01*
X114406445Y-96432757D01*
X114626388Y-96189788D01*
X114765786Y-96015971D01*
X114834553Y-95891320D01*
X114842604Y-95795848D01*
X114799854Y-95709568D01*
X114778625Y-95682511D01*
X114669750Y-95572131D01*
X114508783Y-95431981D01*
X114326862Y-95286331D01*
X114155125Y-95159448D01*
X114024710Y-95075600D01*
X113974114Y-95055500D01*
X113887771Y-95085115D01*
X113723666Y-95163670D01*
X113513510Y-95275724D01*
X113459052Y-95306278D01*
X113254370Y-95418062D01*
X113099869Y-95494439D01*
X113021369Y-95522926D01*
X113016500Y-95520237D01*
X113050782Y-95453264D01*
X113140036Y-95315703D01*
X113247163Y-95162350D01*
X113478053Y-94802881D01*
X113632035Y-94480520D01*
X113707754Y-94206508D01*
X113703851Y-93992087D01*
X113618970Y-93848500D01*
X113451753Y-93786988D01*
X113413396Y-93785499D01*
X113177578Y-93838305D01*
X112917306Y-94000443D01*
X112658015Y-94240781D01*
X112357811Y-94620160D01*
X112177484Y-95015360D01*
X112110040Y-95447879D01*
X112134589Y-95849250D01*
X112102395Y-95948842D01*
X111994439Y-96139682D01*
X111815286Y-96414650D01*
X111569502Y-96766625D01*
X111368768Y-97043424D01*
X111072801Y-97455115D01*
X110856868Y-97773356D01*
X110717506Y-98000389D01*
X110651250Y-98138457D01*
X110294021Y-98138457D01*
X110286904Y-98115361D01*
X110286000Y-98099183D01*
X110322441Y-98008439D01*
X110423987Y-97834464D01*
X110578971Y-97595193D01*
X110775727Y-97308564D01*
X111002587Y-96992512D01*
X111030812Y-96954095D01*
X111775625Y-95942847D01*
X111784901Y-94972153D01*
X111539439Y-95251951D01*
X110853117Y-96075295D01*
X110257030Y-96876232D01*
X109755038Y-97647998D01*
X109351004Y-98383826D01*
X109048790Y-99076951D01*
X108852256Y-99720605D01*
X108787541Y-100073620D01*
X108727200Y-100321039D01*
X108617815Y-100462770D01*
X108445170Y-100515258D01*
X108404643Y-100516500D01*
X108307841Y-100473140D01*
X108157392Y-100358944D01*
X107984316Y-100197733D01*
X107968598Y-100181638D01*
X107624100Y-99750361D01*
X107402785Y-99292921D01*
X107303776Y-98805205D01*
X107326200Y-98283102D01*
X107454390Y-97765689D01*
X107669981Y-97216681D01*
X107968435Y-96599546D01*
X108339673Y-95932709D01*
X108773616Y-95234592D01*
X109118357Y-94724164D01*
X109266430Y-94510011D01*
X109382231Y-94338624D01*
X109449748Y-94233909D01*
X109460500Y-94213363D01*
X109400968Y-94205548D01*
X109238247Y-94198997D01*
X108996144Y-94194335D01*
X108698468Y-94192186D01*
X108650875Y-94192119D01*
X108266105Y-94185140D01*
X107953803Y-94165842D01*
X107734905Y-94135878D01*
X107657818Y-94113769D01*
X107526068Y-94064787D01*
X107458754Y-94052963D01*
X107457967Y-94053598D01*
X107443306Y-94117535D01*
X107408677Y-94291135D01*
X107356913Y-94559126D01*
X107290847Y-94906234D01*
X107213309Y-95317186D01*
X107127132Y-95776708D01*
X107035149Y-96269528D01*
X106940190Y-96780372D01*
X106845090Y-97293967D01*
X106752679Y-97795040D01*
X106665790Y-98268318D01*
X106587255Y-98698527D01*
X106519905Y-99070395D01*
X106466574Y-99368647D01*
X106430093Y-99578012D01*
X106413294Y-99683214D01*
X106412500Y-99691666D01*
X106351280Y-99717530D01*
X106176534Y-99737256D01*
X105901627Y-99749895D01*
X105539927Y-99754496D01*
X105528062Y-99754500D01*
X104643624Y-99754500D01*
X104518193Y-99421125D01*
X104425904Y-99175498D01*
X104316723Y-98884435D01*
X104238268Y-98675000D01*
X104083774Y-98262250D01*
X104230865Y-97479343D01*
X104377955Y-96696437D01*
X104694786Y-96411580D01*
X105027259Y-96030933D01*
X105275960Y-95576206D01*
X105436228Y-95072673D01*
X105503399Y-94545606D01*
X105472813Y-94020275D01*
X105339806Y-93521955D01*
X105260762Y-93343574D01*
X105159692Y-93130577D01*
X105110526Y-92976319D01*
X105104575Y-92827927D01*
X105133146Y-92632527D01*
X105138812Y-92601626D01*
X105174914Y-92403166D01*
X105199302Y-92263032D01*
X105206000Y-92218087D01*
X105262365Y-92205440D01*
X105402960Y-92198472D01*
X105457008Y-92198000D01*
X105708016Y-92198000D01*
X105670546Y-91881627D01*
X105669287Y-91822384D01*
X105967744Y-91822384D01*
X106005636Y-92002785D01*
X106103715Y-92253332D01*
X106162159Y-92375763D01*
X106448121Y-92821151D01*
X106809409Y-93164609D01*
X107245001Y-93405691D01*
X107753873Y-93543955D01*
X108335001Y-93578956D01*
X108834432Y-93534772D01*
X109131831Y-93486186D01*
X109482378Y-93420547D01*
X109846532Y-93346105D01*
X110184754Y-93271109D01*
X110457506Y-93203809D01*
X110559546Y-93174836D01*
X110569809Y-93207525D01*
X110507177Y-93328403D01*
X110378292Y-93526643D01*
X110189793Y-93791422D01*
X110139569Y-93859430D01*
X109736476Y-94415910D01*
X109341466Y-94987317D01*
X108969798Y-95550102D01*
X108636731Y-96080721D01*
X108357523Y-96555626D01*
X108186045Y-96873999D01*
X107920227Y-97437445D01*
X107739245Y-97924604D01*
X107640760Y-98351543D01*
X107622432Y-98734331D01*
X107681924Y-99089036D01*
X107814456Y-99426857D01*
X107918757Y-99622047D01*
X108006571Y-99762233D01*
X108059374Y-99817941D01*
X108060275Y-99818000D01*
X108096266Y-99761030D01*
X108133895Y-99615032D01*
X108153624Y-99493957D01*
X108274749Y-98946316D01*
X108497457Y-98340315D01*
X108815843Y-97685235D01*
X109224002Y-96990358D01*
X109716031Y-96264965D01*
X110286024Y-95518338D01*
X110928077Y-94759760D01*
X111636286Y-93998511D01*
X111674176Y-93959677D01*
X111969804Y-93656025D01*
X112186502Y-93428303D01*
X112334971Y-93262470D01*
X112425911Y-93144481D01*
X112470023Y-93060295D01*
X112478007Y-92995867D01*
X112460564Y-92937155D01*
X112457881Y-92931163D01*
X112419554Y-92812756D01*
X112459982Y-92757583D01*
X112495517Y-92744976D01*
X112854003Y-92668051D01*
X113306422Y-92611368D01*
X113821263Y-92575362D01*
X114367012Y-92560470D01*
X114912158Y-92567128D01*
X115425187Y-92595774D01*
X115874587Y-92646844D01*
X116128000Y-92694659D01*
X116372550Y-92748455D01*
X116565550Y-92784872D01*
X116677330Y-92798574D01*
X116692917Y-92796276D01*
X116681577Y-92727718D01*
X116604776Y-92597669D01*
X116485210Y-92436056D01*
X116345580Y-92272803D01*
X116208584Y-92137835D01*
X116168888Y-92105415D01*
X115984928Y-91989609D01*
X115743870Y-91868788D01*
X115579014Y-91800294D01*
X115264948Y-91720828D01*
X114839752Y-91672271D01*
X114315426Y-91654406D01*
X113703967Y-91667017D01*
X113017373Y-91709888D01*
X112267641Y-91782801D01*
X111556000Y-91872925D01*
X110693257Y-91988619D01*
X109940765Y-92077542D01*
X109284546Y-92139312D01*
X108710623Y-92173550D01*
X108205019Y-92179874D01*
X107753758Y-92157905D01*
X107342861Y-92107263D01*
X106958352Y-92027566D01*
X106586253Y-91918434D01*
X106212588Y-91779487D01*
X106079125Y-91723859D01*
X105991690Y-91725090D01*
X105967744Y-91822384D01*
X105669287Y-91822384D01*
X105664942Y-91618074D01*
X105726804Y-91452066D01*
X105862802Y-91380418D01*
X106079602Y-91399948D01*
X106383873Y-91507470D01*
X106420574Y-91523473D01*
X106733089Y-91646675D01*
X107048292Y-91735584D01*
X107394334Y-91794454D01*
X107799370Y-91827534D01*
X108291551Y-91839077D01*
X108508000Y-91838695D01*
X109217610Y-91815629D01*
X109980263Y-91754234D01*
X110762250Y-91661041D01*
X111575314Y-91554039D01*
X112276033Y-91467571D01*
X112877274Y-91400923D01*
X113391902Y-91353381D01*
X113832782Y-91324230D01*
X114212779Y-91312755D01*
X114544759Y-91318242D01*
X114841587Y-91339977D01*
X115116129Y-91377243D01*
X115289302Y-91409576D01*
X115578361Y-91483313D01*
X115866441Y-91580109D01*
X116091364Y-91679062D01*
X116092083Y-91679451D01*
X116406920Y-91877978D01*
X116692480Y-92110897D01*
X116939588Y-92363317D01*
X117139064Y-92620345D01*
X117281731Y-92867088D01*
X117358411Y-93088655D01*
X117359926Y-93270154D01*
X117277098Y-93396693D01*
X117177939Y-93441374D01*
X117035870Y-93446735D01*
X116822485Y-93421541D01*
X116623281Y-93380387D01*
X115751327Y-93225102D01*
X114823431Y-93180815D01*
X114136121Y-93215937D01*
X113822576Y-93245597D01*
X113555351Y-93274272D01*
X113359599Y-93299015D01*
X113260472Y-93316878D01*
X113254625Y-93319258D01*
X113202999Y-93388266D01*
X113258192Y-93444620D01*
X113400255Y-93467999D01*
X113400653Y-93468000D01*
X113666880Y-93517821D01*
X113934465Y-93673552D01*
X114159500Y-93878962D01*
X114281544Y-94016266D01*
X114348233Y-94136911D01*
X114376117Y-94288675D01*
X114381749Y-94519339D01*
X114381750Y-94520517D01*
X114381750Y-94930773D01*
X114858000Y-95310190D01*
X115105856Y-95504206D01*
X115272072Y-95623968D01*
X115371487Y-95677810D01*
X115418938Y-95674067D01*
X115429500Y-95631219D01*
X115475544Y-95539103D01*
X115601402Y-95384110D01*
X115788656Y-95183861D01*
X116018889Y-94955979D01*
X116273687Y-94718085D01*
X116534631Y-94487802D01*
X116783307Y-94282750D01*
X117001298Y-94120553D01*
X117025188Y-94104359D01*
X117377065Y-93880723D01*
X117658154Y-93740185D01*
X117894543Y-93683720D01*
X118112321Y-93712308D01*
X118337577Y-93826926D01*
X118596402Y-94028550D01*
X118754042Y-94169133D01*
X119045509Y-94482222D01*
X119272840Y-94820790D01*
X119422581Y-95158568D01*
X119481274Y-95469287D01*
X119476357Y-95579238D01*
X119464551Y-95761352D01*
X119502160Y-95876889D01*
X119609028Y-95982781D01*
X119620136Y-95991720D01*
X119798359Y-96134190D01*
X120087576Y-95670159D01*
X120309305Y-95327736D01*
X120545838Y-94985289D01*
X120783624Y-94660187D01*
X121009107Y-94369794D01*
X121208736Y-94131479D01*
X121271965Y-94064835D01*
X121973390Y-94064835D01*
X122007363Y-94097539D01*
X122030240Y-94092416D01*
X122100167Y-94045802D01*
X122246356Y-93934380D01*
X122447568Y-93774730D01*
X122682568Y-93583427D01*
X122687731Y-93579175D01*
X123070778Y-93252529D01*
X123396641Y-92952414D01*
X123655036Y-92689587D01*
X123835679Y-92474806D01*
X123928287Y-92318827D01*
X123938500Y-92270794D01*
X123886485Y-92156402D01*
X123755088Y-92019298D01*
X123581281Y-91887670D01*
X123402034Y-91789707D01*
X123260036Y-91753500D01*
X123185044Y-91767650D01*
X123107625Y-91818801D01*
X123019181Y-91919997D01*
X122911112Y-92084286D01*
X122774820Y-92324713D01*
X122601704Y-92654325D01*
X122388019Y-93076483D01*
X122196105Y-93468328D01*
X122064921Y-93758293D01*
X121991630Y-93954441D01*
X121973390Y-94064835D01*
X121271965Y-94064835D01*
X121368957Y-93962606D01*
X121476216Y-93880544D01*
X121487229Y-93876712D01*
X121556826Y-93836211D01*
X121641814Y-93738086D01*
X121750794Y-93568634D01*
X121892367Y-93314152D01*
X122075135Y-92960939D01*
X122128650Y-92854848D01*
X122366473Y-92394214D01*
X122566052Y-92039475D01*
X122736755Y-91778789D01*
X122887950Y-91600312D01*
X123029003Y-91492203D01*
X123169283Y-91442618D01*
X123250940Y-91436000D01*
X123457435Y-91481981D01*
X123712957Y-91605386D01*
X123987275Y-91784408D01*
X124250156Y-91997239D01*
X124471370Y-92222071D01*
X124609470Y-92415969D01*
X124648855Y-92463403D01*
X124690753Y-92442527D01*
X124746778Y-92336901D01*
X124828547Y-92130089D01*
X124847595Y-92078961D01*
X124937397Y-91793486D01*
X124998388Y-91514520D01*
X125018000Y-91318067D01*
X125049410Y-91056614D01*
X125144388Y-90901312D01*
X125304048Y-90852217D01*
X125529509Y-90909387D01*
G37*
D10*
X111940000Y-143940000D02*
X113000000Y-143940000D01*
X111940000Y-145000000D02*
X111940000Y-143940000D01*
X114000000Y-143940000D02*
X120060000Y-143940000D01*
X114000000Y-146060000D02*
X114000000Y-143940000D01*
X114000000Y-146060000D02*
X120060000Y-146060000D01*
X120060000Y-146060000D02*
X120060000Y-143940000D01*
%LPC*%
D13*
X62000000Y-137000000D03*
X65100000Y-137000000D03*
X62000000Y-134460000D03*
X65100000Y-134460000D03*
D14*
X95980000Y-137181000D03*
D15*
X98520000Y-137181000D03*
X101060000Y-137181000D03*
X103600000Y-137181000D03*
X106140000Y-137181000D03*
X108680000Y-137181000D03*
X111220000Y-137181000D03*
X113760000Y-137181000D03*
X116300000Y-137181000D03*
X118840000Y-137181000D03*
X121380000Y-137181000D03*
X123920000Y-137181000D03*
X126460000Y-137181000D03*
X129000000Y-137181000D03*
X129000000Y-116861000D03*
X126460000Y-116861000D03*
X123920000Y-116861000D03*
X121380000Y-116861000D03*
X118840000Y-116861000D03*
X116300000Y-116861000D03*
X113760000Y-116861000D03*
X111220000Y-116861000D03*
X108680000Y-116861000D03*
X106140000Y-116861000D03*
X103600000Y-116861000D03*
X101060000Y-116861000D03*
X98520000Y-116861000D03*
X95980000Y-116861000D03*
D16*
X91016000Y-137512500D03*
X91016000Y-135437500D03*
D17*
X83650000Y-137562500D03*
X83650000Y-134462500D03*
X87460000Y-137562500D03*
X87460000Y-134462500D03*
D18*
X56000000Y-137080000D03*
X56000000Y-134540000D03*
X56000000Y-132000000D03*
X47390000Y-132000000D03*
X47390000Y-134540000D03*
X47390000Y-137080000D03*
D13*
X62000000Y-131920000D03*
X65100000Y-131920000D03*
X72322000Y-108890000D03*
X75422000Y-108890000D03*
X72322000Y-105080000D03*
X75422000Y-105080000D03*
D14*
X73872000Y-91364000D03*
D15*
X73872000Y-93904000D03*
X73872000Y-96444000D03*
X73872000Y-98984000D03*
D14*
X75975000Y-136611000D03*
D15*
X78515000Y-136611000D03*
D19*
X51000000Y-84500000D03*
X57200000Y-69500000D03*
D20*
X53000000Y-73000000D03*
X53000000Y-77000000D03*
X53000000Y-81000000D03*
D21*
X63000000Y-145000000D03*
D22*
X65000000Y-145000000D03*
X67000000Y-145000000D03*
X69000000Y-145000000D03*
D23*
X128180000Y-44605000D03*
X72980000Y-60345000D03*
D24*
X64780000Y-44605000D03*
D25*
X64780000Y-52475000D03*
X137000000Y-52475000D03*
D26*
X146935000Y-128490000D03*
X35065000Y-72560000D03*
D23*
X128180000Y-67605000D03*
X72980000Y-83345000D03*
D24*
X64780000Y-67605000D03*
D25*
X64780000Y-75475000D03*
X137000000Y-75475000D03*
D21*
X113000000Y-145000000D03*
D22*
X115000000Y-145000000D03*
X117000000Y-145000000D03*
X119000000Y-145000000D03*
D26*
X35065000Y-128490000D03*
X146935000Y-72560000D03*
D27*
X59000000Y-132000000D03*
X71000000Y-123500000D03*
X72000000Y-124500000D03*
X58960000Y-134540000D03*
X105000000Y-107000000D03*
X105000000Y-104500000D03*
X105000000Y-140000000D03*
X50000000Y-149000000D03*
X105000000Y-114500000D03*
X95000000Y-104500000D03*
X78000000Y-95000000D03*
X114500000Y-112500000D03*
X70000000Y-118000000D03*
X50000000Y-137000000D03*
X90000000Y-115000000D03*
X85000000Y-104500000D03*
X135000000Y-135000000D03*
X125000000Y-135000000D03*
X130000000Y-135000000D03*
X90000000Y-107000000D03*
X50000000Y-132000000D03*
X135000000Y-125000000D03*
X77000000Y-91000000D03*
X95000000Y-145000000D03*
X110000000Y-145000000D03*
X53500000Y-137000000D03*
X100000000Y-149000000D03*
X100000000Y-110000000D03*
X100000000Y-107000000D03*
X109000000Y-107000000D03*
X75000000Y-102000000D03*
X85000000Y-145000000D03*
X85000000Y-112500000D03*
X90000000Y-140000000D03*
X115000000Y-130000000D03*
X135000000Y-130000000D03*
X80000000Y-145000000D03*
X65000000Y-149000000D03*
X135000000Y-149000000D03*
X60000000Y-140000000D03*
X47500000Y-129500000D03*
X70000000Y-95000000D03*
X80000000Y-149000000D03*
X120000000Y-135000000D03*
X116500000Y-114500000D03*
X110000000Y-130000000D03*
X115000000Y-149000000D03*
X135000000Y-140000000D03*
X50000000Y-134500000D03*
X70000000Y-115000000D03*
X85000000Y-115000000D03*
X70000000Y-149000000D03*
X78000000Y-100000000D03*
X65000000Y-140000000D03*
X95000000Y-140000000D03*
X71000000Y-91000000D03*
X62500000Y-127500000D03*
X100000000Y-145000000D03*
X124500000Y-125000000D03*
X75000000Y-118000000D03*
X80000000Y-115000000D03*
X70000000Y-134500000D03*
X95000000Y-107000000D03*
X100000000Y-130000000D03*
X120000000Y-114500000D03*
X50000000Y-140000000D03*
X85000000Y-140000000D03*
X100000000Y-135000000D03*
X70000000Y-105000000D03*
X85000000Y-126000000D03*
X90000000Y-118000000D03*
X55000000Y-149000000D03*
X105000000Y-135000000D03*
X90000000Y-104500000D03*
X115000000Y-126000000D03*
X80000000Y-140000000D03*
X135000000Y-145000000D03*
X95000000Y-130000000D03*
X135000000Y-120000000D03*
X125000000Y-120000000D03*
X60000000Y-149000000D03*
X115000000Y-135000000D03*
X75000000Y-127000000D03*
X75000000Y-140000000D03*
X100000000Y-126000000D03*
X55000000Y-140000000D03*
X53500000Y-132000000D03*
X130000000Y-114500000D03*
X130000000Y-125000000D03*
X90000000Y-149000000D03*
X120000000Y-130000000D03*
X70000000Y-110000000D03*
X105000000Y-130000000D03*
X130000000Y-145000000D03*
X80000000Y-118000000D03*
X120000000Y-149000000D03*
X130000000Y-140000000D03*
X55000000Y-145000000D03*
X80000000Y-104500000D03*
X100000000Y-112500000D03*
X125000000Y-130000000D03*
X130000000Y-149000000D03*
X53500000Y-134500000D03*
X100000000Y-140000000D03*
X50000000Y-145000000D03*
X125000000Y-145000000D03*
X90000000Y-110000000D03*
X68500000Y-121000000D03*
X125500000Y-140000000D03*
X110000000Y-140000000D03*
X90000000Y-130000000D03*
X90000000Y-126000000D03*
X105000000Y-149000000D03*
X135000000Y-114500000D03*
X110000000Y-135000000D03*
X109390289Y-111256746D03*
X70000000Y-100000000D03*
X75000000Y-115000000D03*
X75000000Y-145000000D03*
X105000000Y-112500000D03*
X90000000Y-145000000D03*
X130000000Y-130000000D03*
X80000000Y-130000000D03*
X105000000Y-126000000D03*
X105000000Y-145000000D03*
X70000000Y-140000000D03*
X75000000Y-112500000D03*
X85000000Y-149000000D03*
X110000000Y-126000000D03*
X80000000Y-107000000D03*
X75000000Y-149000000D03*
X101500000Y-114500000D03*
X85000000Y-118000000D03*
X90000000Y-112500000D03*
X109000000Y-114500000D03*
X130000000Y-120000000D03*
X125000000Y-114500000D03*
X95000000Y-149000000D03*
X120000000Y-126000000D03*
X95000000Y-110000000D03*
X85000000Y-107000000D03*
X85000000Y-110000000D03*
X80000000Y-126000000D03*
X105000000Y-110000000D03*
X80000000Y-110000000D03*
X100000000Y-104500000D03*
X112000000Y-110000000D03*
X125000000Y-149000000D03*
X80000000Y-112500000D03*
X95000000Y-126000000D03*
X70000000Y-137000000D03*
X110000000Y-149000000D03*
X60000000Y-145000000D03*
X85000000Y-130000000D03*
X70000000Y-122500000D03*
X59000000Y-129500000D03*
X73000000Y-125500000D03*
X59000000Y-137080000D03*
%LPD*%
M02*
