%FSLAX45Y45*%
G04 Gerber Fmt 4.5, Leading zero omitted, Abs format (unit mm)*
G04 Created by KiCad (PCBNEW (5.1.10)-1) date 2021-12-13 23:36:23*
%MOMM*%
%LPD*%
G01*
G04 APERTURE LIST*
%TA.AperFunction,Profile*%
%ADD10C,0.150000*%
%TD*%
%TA.AperFunction,Profile*%
%ADD11C,0.050000*%
%TD*%
%ADD12C,0.200000*%
%ADD13C,0.300000*%
G04 APERTURE END LIST*
D10*
X4940100Y-12006100D02*
X5040100Y-12006100D01*
D11*
X14235092Y-14806100D02*
G75*
G02*
X14003100Y-14574108I0J231992D01*
G01*
X15214600Y-14806100D02*
X14235092Y-14806100D01*
X14003100Y-11173100D02*
X14003100Y-14574108D01*
X15214600Y-14806100D02*
G75*
G02*
X15214600Y-15623100I0J-408500D01*
G01*
X4940100Y-15623100D02*
X15214600Y-15623100D01*
D10*
X5040100Y-12006100D02*
G75*
G03*
X5873100Y-11173100I0J833000D01*
G01*
X5873100Y-11173100D02*
X14003100Y-11173100D01*
X4940100Y-12006100D02*
X4940100Y-15623100D01*
D12*
X5664600Y-13664600D02*
X5764600Y-13764600D01*
X5764600Y-13664600D02*
X5664600Y-13764600D01*
X5665000Y-13918600D02*
X5765000Y-14018600D01*
X5765000Y-13918600D02*
X5665000Y-14018600D01*
X6534600Y-12430400D02*
G75*
G03*
X6534600Y-12430400I-66000J0D01*
G01*
X6534600Y-14343400D02*
G75*
G03*
X6534600Y-14343400I-66000J0D01*
G01*
X13756600Y-12430400D02*
G75*
G03*
X13756600Y-12430400I-66000J0D01*
G01*
X13756600Y-14343400D02*
G75*
G03*
X13756600Y-14343400I-66000J0D01*
G01*
X5714600Y-12239600D02*
X5714600Y-12589600D01*
X5539600Y-12414600D02*
X5889600Y-12414600D01*
X5714600Y-15039600D02*
X5714600Y-15389600D01*
X5539600Y-15214600D02*
X5889600Y-15214600D01*
X15214600Y-15039600D02*
X15214600Y-15389600D01*
X15039600Y-15214600D02*
X15389600Y-15214600D01*
X13774746Y-15222546D02*
X13774746Y-15054253D01*
X13606453Y-15054253D01*
X13606453Y-15222546D01*
X13774746Y-15222546D01*
X7319600Y-13544400D02*
X7478600Y-13385400D01*
X7319600Y-13226400D01*
X7160600Y-13385400D01*
X7319600Y-13544400D01*
X12839600Y-13544400D02*
X12998600Y-13385400D01*
X12839600Y-13226400D01*
X12680600Y-13385400D01*
X12839600Y-13544400D01*
X7142100Y-14960900D02*
X7497100Y-15315900D01*
X7497100Y-14960900D02*
X7142100Y-15315900D01*
X7497100Y-15138400D02*
G75*
G03*
X7497100Y-15138400I-177500J0D01*
G01*
X12662100Y-11460900D02*
X13017100Y-11815900D01*
X13017100Y-11460900D02*
X12662100Y-11815900D01*
X13017100Y-11638400D02*
G75*
G03*
X13017100Y-11638400I-177500J0D01*
G01*
D13*
X5219028Y-16096314D02*
X5219028Y-15796314D01*
X5290457Y-15796314D01*
X5333314Y-15810600D01*
X5361886Y-15839171D01*
X5376171Y-15867743D01*
X5390457Y-15924886D01*
X5390457Y-15967743D01*
X5376171Y-16024886D01*
X5361886Y-16053457D01*
X5333314Y-16082029D01*
X5290457Y-16096314D01*
X5219028Y-16096314D01*
X5519028Y-16096314D02*
X5519028Y-15896314D01*
X5519028Y-15953457D02*
X5533314Y-15924886D01*
X5547600Y-15910600D01*
X5576171Y-15896314D01*
X5604743Y-15896314D01*
X5704743Y-16096314D02*
X5704743Y-15896314D01*
X5704743Y-15796314D02*
X5690457Y-15810600D01*
X5704743Y-15824886D01*
X5719028Y-15810600D01*
X5704743Y-15796314D01*
X5704743Y-15824886D01*
X5890457Y-16096314D02*
X5861886Y-16082029D01*
X5847600Y-16053457D01*
X5847600Y-15796314D01*
X6047600Y-16096314D02*
X6019028Y-16082029D01*
X6004743Y-16053457D01*
X6004743Y-15796314D01*
X6390457Y-16096314D02*
X6390457Y-15796314D01*
X6490457Y-16010600D01*
X6590457Y-15796314D01*
X6590457Y-16096314D01*
X6861886Y-16096314D02*
X6861886Y-15939171D01*
X6847600Y-15910600D01*
X6819028Y-15896314D01*
X6761886Y-15896314D01*
X6733314Y-15910600D01*
X6861886Y-16082029D02*
X6833314Y-16096314D01*
X6761886Y-16096314D01*
X6733314Y-16082029D01*
X6719028Y-16053457D01*
X6719028Y-16024886D01*
X6733314Y-15996314D01*
X6761886Y-15982029D01*
X6833314Y-15982029D01*
X6861886Y-15967743D01*
X7004743Y-15896314D02*
X7004743Y-16196314D01*
X7004743Y-15910600D02*
X7033314Y-15896314D01*
X7090457Y-15896314D01*
X7119028Y-15910600D01*
X7133314Y-15924886D01*
X7147600Y-15953457D01*
X7147600Y-16039171D01*
X7133314Y-16067743D01*
X7119028Y-16082029D01*
X7090457Y-16096314D01*
X7033314Y-16096314D01*
X7004743Y-16082029D01*
X7276171Y-16067743D02*
X7290457Y-16082029D01*
X7276171Y-16096314D01*
X7261886Y-16082029D01*
X7276171Y-16067743D01*
X7276171Y-16096314D01*
X7276171Y-15910600D02*
X7290457Y-15924886D01*
X7276171Y-15939171D01*
X7261886Y-15924886D01*
X7276171Y-15910600D01*
X7276171Y-15939171D01*
X4832600Y-16540600D02*
X4932600Y-16640600D01*
X4932600Y-16540600D02*
X4832600Y-16640600D01*
X5376171Y-16726314D02*
X5204743Y-16726314D01*
X5290457Y-16726314D02*
X5290457Y-16426314D01*
X5261886Y-16469171D01*
X5233314Y-16497743D01*
X5204743Y-16512029D01*
X5504743Y-16697743D02*
X5519028Y-16712029D01*
X5504743Y-16726314D01*
X5490457Y-16712029D01*
X5504743Y-16697743D01*
X5504743Y-16726314D01*
X5704743Y-16426314D02*
X5733314Y-16426314D01*
X5761886Y-16440600D01*
X5776171Y-16454886D01*
X5790457Y-16483457D01*
X5804743Y-16540600D01*
X5804743Y-16612029D01*
X5790457Y-16669171D01*
X5776171Y-16697743D01*
X5761886Y-16712029D01*
X5733314Y-16726314D01*
X5704743Y-16726314D01*
X5676171Y-16712029D01*
X5661886Y-16697743D01*
X5647600Y-16669171D01*
X5633314Y-16612029D01*
X5633314Y-16540600D01*
X5647600Y-16483457D01*
X5661886Y-16454886D01*
X5676171Y-16440600D01*
X5704743Y-16426314D01*
X5990457Y-16426314D02*
X6019028Y-16426314D01*
X6047600Y-16440600D01*
X6061886Y-16454886D01*
X6076171Y-16483457D01*
X6090457Y-16540600D01*
X6090457Y-16612029D01*
X6076171Y-16669171D01*
X6061886Y-16697743D01*
X6047600Y-16712029D01*
X6019028Y-16726314D01*
X5990457Y-16726314D01*
X5961886Y-16712029D01*
X5947600Y-16697743D01*
X5933314Y-16669171D01*
X5919028Y-16612029D01*
X5919028Y-16540600D01*
X5933314Y-16483457D01*
X5947600Y-16454886D01*
X5961886Y-16440600D01*
X5990457Y-16426314D01*
X6276171Y-16426314D02*
X6304743Y-16426314D01*
X6333314Y-16440600D01*
X6347600Y-16454886D01*
X6361886Y-16483457D01*
X6376171Y-16540600D01*
X6376171Y-16612029D01*
X6361886Y-16669171D01*
X6347600Y-16697743D01*
X6333314Y-16712029D01*
X6304743Y-16726314D01*
X6276171Y-16726314D01*
X6247600Y-16712029D01*
X6233314Y-16697743D01*
X6219028Y-16669171D01*
X6204743Y-16612029D01*
X6204743Y-16540600D01*
X6219028Y-16483457D01*
X6233314Y-16454886D01*
X6247600Y-16440600D01*
X6276171Y-16426314D01*
X6504743Y-16726314D02*
X6504743Y-16526314D01*
X6504743Y-16554886D02*
X6519028Y-16540600D01*
X6547600Y-16526314D01*
X6590457Y-16526314D01*
X6619028Y-16540600D01*
X6633314Y-16569171D01*
X6633314Y-16726314D01*
X6633314Y-16569171D02*
X6647600Y-16540600D01*
X6676171Y-16526314D01*
X6719028Y-16526314D01*
X6747600Y-16540600D01*
X6761886Y-16569171D01*
X6761886Y-16726314D01*
X6904743Y-16726314D02*
X6904743Y-16526314D01*
X6904743Y-16554886D02*
X6919028Y-16540600D01*
X6947600Y-16526314D01*
X6990457Y-16526314D01*
X7019028Y-16540600D01*
X7033314Y-16569171D01*
X7033314Y-16726314D01*
X7033314Y-16569171D02*
X7047600Y-16540600D01*
X7076171Y-16526314D01*
X7119028Y-16526314D01*
X7147600Y-16540600D01*
X7161886Y-16569171D01*
X7161886Y-16726314D01*
X7747600Y-16412029D02*
X7490457Y-16797743D01*
X8133314Y-16426314D02*
X8161886Y-16426314D01*
X8190457Y-16440600D01*
X8204743Y-16454886D01*
X8219028Y-16483457D01*
X8233314Y-16540600D01*
X8233314Y-16612029D01*
X8219028Y-16669171D01*
X8204743Y-16697743D01*
X8190457Y-16712029D01*
X8161886Y-16726314D01*
X8133314Y-16726314D01*
X8104743Y-16712029D01*
X8090457Y-16697743D01*
X8076171Y-16669171D01*
X8061886Y-16612029D01*
X8061886Y-16540600D01*
X8076171Y-16483457D01*
X8090457Y-16454886D01*
X8104743Y-16440600D01*
X8133314Y-16426314D01*
X8361886Y-16697743D02*
X8376171Y-16712029D01*
X8361886Y-16726314D01*
X8347600Y-16712029D01*
X8361886Y-16697743D01*
X8361886Y-16726314D01*
X8561886Y-16426314D02*
X8590457Y-16426314D01*
X8619028Y-16440600D01*
X8633314Y-16454886D01*
X8647600Y-16483457D01*
X8661886Y-16540600D01*
X8661886Y-16612029D01*
X8647600Y-16669171D01*
X8633314Y-16697743D01*
X8619028Y-16712029D01*
X8590457Y-16726314D01*
X8561886Y-16726314D01*
X8533314Y-16712029D01*
X8519028Y-16697743D01*
X8504743Y-16669171D01*
X8490457Y-16612029D01*
X8490457Y-16540600D01*
X8504743Y-16483457D01*
X8519028Y-16454886D01*
X8533314Y-16440600D01*
X8561886Y-16426314D01*
X8761886Y-16426314D02*
X8947600Y-16426314D01*
X8847600Y-16540600D01*
X8890457Y-16540600D01*
X8919028Y-16554886D01*
X8933314Y-16569171D01*
X8947600Y-16597743D01*
X8947600Y-16669171D01*
X8933314Y-16697743D01*
X8919028Y-16712029D01*
X8890457Y-16726314D01*
X8804743Y-16726314D01*
X8776171Y-16712029D01*
X8761886Y-16697743D01*
X9090457Y-16726314D02*
X9147600Y-16726314D01*
X9176171Y-16712029D01*
X9190457Y-16697743D01*
X9219028Y-16654886D01*
X9233314Y-16597743D01*
X9233314Y-16483457D01*
X9219028Y-16454886D01*
X9204743Y-16440600D01*
X9176171Y-16426314D01*
X9119028Y-16426314D01*
X9090457Y-16440600D01*
X9076171Y-16454886D01*
X9061886Y-16483457D01*
X9061886Y-16554886D01*
X9076171Y-16583457D01*
X9090457Y-16597743D01*
X9119028Y-16612029D01*
X9176171Y-16612029D01*
X9204743Y-16597743D01*
X9219028Y-16583457D01*
X9233314Y-16554886D01*
X9490457Y-16526314D02*
X9490457Y-16726314D01*
X9419028Y-16412029D02*
X9347600Y-16626314D01*
X9533314Y-16626314D01*
X9633314Y-16426314D02*
X9633314Y-16483457D01*
X9747600Y-16426314D02*
X9747600Y-16483457D01*
X10190457Y-16840600D02*
X10176171Y-16826314D01*
X10147600Y-16783457D01*
X10133314Y-16754886D01*
X10119028Y-16712029D01*
X10104743Y-16640600D01*
X10104743Y-16583457D01*
X10119028Y-16512029D01*
X10133314Y-16469171D01*
X10147600Y-16440600D01*
X10176171Y-16397743D01*
X10190457Y-16383457D01*
X10290457Y-16454886D02*
X10304743Y-16440600D01*
X10333314Y-16426314D01*
X10404743Y-16426314D01*
X10433314Y-16440600D01*
X10447600Y-16454886D01*
X10461886Y-16483457D01*
X10461886Y-16512029D01*
X10447600Y-16554886D01*
X10276171Y-16726314D01*
X10461886Y-16726314D01*
X10819028Y-16726314D02*
X10819028Y-16426314D01*
X10947600Y-16726314D02*
X10947600Y-16569171D01*
X10933314Y-16540600D01*
X10904743Y-16526314D01*
X10861886Y-16526314D01*
X10833314Y-16540600D01*
X10819028Y-16554886D01*
X11133314Y-16726314D02*
X11104743Y-16712029D01*
X11090457Y-16697743D01*
X11076171Y-16669171D01*
X11076171Y-16583457D01*
X11090457Y-16554886D01*
X11104743Y-16540600D01*
X11133314Y-16526314D01*
X11176171Y-16526314D01*
X11204743Y-16540600D01*
X11219028Y-16554886D01*
X11233314Y-16583457D01*
X11233314Y-16669171D01*
X11219028Y-16697743D01*
X11204743Y-16712029D01*
X11176171Y-16726314D01*
X11133314Y-16726314D01*
X11404743Y-16726314D02*
X11376171Y-16712029D01*
X11361886Y-16683457D01*
X11361886Y-16426314D01*
X11633314Y-16712029D02*
X11604743Y-16726314D01*
X11547600Y-16726314D01*
X11519028Y-16712029D01*
X11504743Y-16683457D01*
X11504743Y-16569171D01*
X11519028Y-16540600D01*
X11547600Y-16526314D01*
X11604743Y-16526314D01*
X11633314Y-16540600D01*
X11647600Y-16569171D01*
X11647600Y-16597743D01*
X11504743Y-16626314D01*
X11761886Y-16712029D02*
X11790457Y-16726314D01*
X11847600Y-16726314D01*
X11876171Y-16712029D01*
X11890457Y-16683457D01*
X11890457Y-16669171D01*
X11876171Y-16640600D01*
X11847600Y-16626314D01*
X11804743Y-16626314D01*
X11776171Y-16612029D01*
X11761886Y-16583457D01*
X11761886Y-16569171D01*
X11776171Y-16540600D01*
X11804743Y-16526314D01*
X11847600Y-16526314D01*
X11876171Y-16540600D01*
X11990457Y-16840600D02*
X12004743Y-16826314D01*
X12033314Y-16783457D01*
X12047600Y-16754886D01*
X12061886Y-16712029D01*
X12076171Y-16640600D01*
X12076171Y-16583457D01*
X12061886Y-16512029D01*
X12047600Y-16469171D01*
X12033314Y-16440600D01*
X12004743Y-16397743D01*
X11990457Y-16383457D01*
X4932600Y-16986600D02*
G75*
G03*
X4932600Y-16986600I-66000J0D01*
G01*
X5376171Y-17122314D02*
X5204743Y-17122314D01*
X5290457Y-17122314D02*
X5290457Y-16822314D01*
X5261886Y-16865172D01*
X5233314Y-16893743D01*
X5204743Y-16908029D01*
X5504743Y-17093743D02*
X5519028Y-17108029D01*
X5504743Y-17122314D01*
X5490457Y-17108029D01*
X5504743Y-17093743D01*
X5504743Y-17122314D01*
X5619028Y-16822314D02*
X5804743Y-16822314D01*
X5704743Y-16936600D01*
X5747600Y-16936600D01*
X5776171Y-16950886D01*
X5790457Y-16965172D01*
X5804743Y-16993743D01*
X5804743Y-17065172D01*
X5790457Y-17093743D01*
X5776171Y-17108029D01*
X5747600Y-17122314D01*
X5661886Y-17122314D01*
X5633314Y-17108029D01*
X5619028Y-17093743D01*
X5919028Y-16850886D02*
X5933314Y-16836600D01*
X5961886Y-16822314D01*
X6033314Y-16822314D01*
X6061886Y-16836600D01*
X6076171Y-16850886D01*
X6090457Y-16879457D01*
X6090457Y-16908029D01*
X6076171Y-16950886D01*
X5904743Y-17122314D01*
X6090457Y-17122314D01*
X6276171Y-16822314D02*
X6304743Y-16822314D01*
X6333314Y-16836600D01*
X6347600Y-16850886D01*
X6361886Y-16879457D01*
X6376171Y-16936600D01*
X6376171Y-17008029D01*
X6361886Y-17065172D01*
X6347600Y-17093743D01*
X6333314Y-17108029D01*
X6304743Y-17122314D01*
X6276171Y-17122314D01*
X6247600Y-17108029D01*
X6233314Y-17093743D01*
X6219028Y-17065172D01*
X6204743Y-17008029D01*
X6204743Y-16936600D01*
X6219028Y-16879457D01*
X6233314Y-16850886D01*
X6247600Y-16836600D01*
X6276171Y-16822314D01*
X6504743Y-17122314D02*
X6504743Y-16922314D01*
X6504743Y-16950886D02*
X6519028Y-16936600D01*
X6547600Y-16922314D01*
X6590457Y-16922314D01*
X6619028Y-16936600D01*
X6633314Y-16965172D01*
X6633314Y-17122314D01*
X6633314Y-16965172D02*
X6647600Y-16936600D01*
X6676171Y-16922314D01*
X6719028Y-16922314D01*
X6747600Y-16936600D01*
X6761886Y-16965172D01*
X6761886Y-17122314D01*
X6904743Y-17122314D02*
X6904743Y-16922314D01*
X6904743Y-16950886D02*
X6919028Y-16936600D01*
X6947600Y-16922314D01*
X6990457Y-16922314D01*
X7019028Y-16936600D01*
X7033314Y-16965172D01*
X7033314Y-17122314D01*
X7033314Y-16965172D02*
X7047600Y-16936600D01*
X7076171Y-16922314D01*
X7119028Y-16922314D01*
X7147600Y-16936600D01*
X7161886Y-16965172D01*
X7161886Y-17122314D01*
X7747600Y-16808029D02*
X7490457Y-17193743D01*
X8133314Y-16822314D02*
X8161886Y-16822314D01*
X8190457Y-16836600D01*
X8204743Y-16850886D01*
X8219028Y-16879457D01*
X8233314Y-16936600D01*
X8233314Y-17008029D01*
X8219028Y-17065172D01*
X8204743Y-17093743D01*
X8190457Y-17108029D01*
X8161886Y-17122314D01*
X8133314Y-17122314D01*
X8104743Y-17108029D01*
X8090457Y-17093743D01*
X8076171Y-17065172D01*
X8061886Y-17008029D01*
X8061886Y-16936600D01*
X8076171Y-16879457D01*
X8090457Y-16850886D01*
X8104743Y-16836600D01*
X8133314Y-16822314D01*
X8361886Y-17093743D02*
X8376171Y-17108029D01*
X8361886Y-17122314D01*
X8347600Y-17108029D01*
X8361886Y-17093743D01*
X8361886Y-17122314D01*
X8561886Y-16822314D02*
X8590457Y-16822314D01*
X8619028Y-16836600D01*
X8633314Y-16850886D01*
X8647600Y-16879457D01*
X8661886Y-16936600D01*
X8661886Y-17008029D01*
X8647600Y-17065172D01*
X8633314Y-17093743D01*
X8619028Y-17108029D01*
X8590457Y-17122314D01*
X8561886Y-17122314D01*
X8533314Y-17108029D01*
X8519028Y-17093743D01*
X8504743Y-17065172D01*
X8490457Y-17008029D01*
X8490457Y-16936600D01*
X8504743Y-16879457D01*
X8519028Y-16850886D01*
X8533314Y-16836600D01*
X8561886Y-16822314D01*
X8933314Y-16822314D02*
X8790457Y-16822314D01*
X8776171Y-16965172D01*
X8790457Y-16950886D01*
X8819028Y-16936600D01*
X8890457Y-16936600D01*
X8919028Y-16950886D01*
X8933314Y-16965172D01*
X8947600Y-16993743D01*
X8947600Y-17065172D01*
X8933314Y-17093743D01*
X8919028Y-17108029D01*
X8890457Y-17122314D01*
X8819028Y-17122314D01*
X8790457Y-17108029D01*
X8776171Y-17093743D01*
X9061886Y-16850886D02*
X9076171Y-16836600D01*
X9104743Y-16822314D01*
X9176171Y-16822314D01*
X9204743Y-16836600D01*
X9219028Y-16850886D01*
X9233314Y-16879457D01*
X9233314Y-16908029D01*
X9219028Y-16950886D01*
X9047600Y-17122314D01*
X9233314Y-17122314D01*
X9419028Y-16822314D02*
X9447600Y-16822314D01*
X9476171Y-16836600D01*
X9490457Y-16850886D01*
X9504743Y-16879457D01*
X9519028Y-16936600D01*
X9519028Y-17008029D01*
X9504743Y-17065172D01*
X9490457Y-17093743D01*
X9476171Y-17108029D01*
X9447600Y-17122314D01*
X9419028Y-17122314D01*
X9390457Y-17108029D01*
X9376171Y-17093743D01*
X9361886Y-17065172D01*
X9347600Y-17008029D01*
X9347600Y-16936600D01*
X9361886Y-16879457D01*
X9376171Y-16850886D01*
X9390457Y-16836600D01*
X9419028Y-16822314D01*
X9633314Y-16822314D02*
X9633314Y-16879457D01*
X9747600Y-16822314D02*
X9747600Y-16879457D01*
X10190457Y-17236600D02*
X10176171Y-17222314D01*
X10147600Y-17179457D01*
X10133314Y-17150886D01*
X10119028Y-17108029D01*
X10104743Y-17036600D01*
X10104743Y-16979457D01*
X10119028Y-16908029D01*
X10133314Y-16865172D01*
X10147600Y-16836600D01*
X10176171Y-16793743D01*
X10190457Y-16779457D01*
X10433314Y-16922314D02*
X10433314Y-17122314D01*
X10361886Y-16808029D02*
X10290457Y-17022314D01*
X10476171Y-17022314D01*
X10819028Y-17122314D02*
X10819028Y-16822314D01*
X10947600Y-17122314D02*
X10947600Y-16965172D01*
X10933314Y-16936600D01*
X10904743Y-16922314D01*
X10861886Y-16922314D01*
X10833314Y-16936600D01*
X10819028Y-16950886D01*
X11133314Y-17122314D02*
X11104743Y-17108029D01*
X11090457Y-17093743D01*
X11076171Y-17065172D01*
X11076171Y-16979457D01*
X11090457Y-16950886D01*
X11104743Y-16936600D01*
X11133314Y-16922314D01*
X11176171Y-16922314D01*
X11204743Y-16936600D01*
X11219028Y-16950886D01*
X11233314Y-16979457D01*
X11233314Y-17065172D01*
X11219028Y-17093743D01*
X11204743Y-17108029D01*
X11176171Y-17122314D01*
X11133314Y-17122314D01*
X11404743Y-17122314D02*
X11376171Y-17108029D01*
X11361886Y-17079457D01*
X11361886Y-16822314D01*
X11633314Y-17108029D02*
X11604743Y-17122314D01*
X11547600Y-17122314D01*
X11519028Y-17108029D01*
X11504743Y-17079457D01*
X11504743Y-16965172D01*
X11519028Y-16936600D01*
X11547600Y-16922314D01*
X11604743Y-16922314D01*
X11633314Y-16936600D01*
X11647600Y-16965172D01*
X11647600Y-16993743D01*
X11504743Y-17022314D01*
X11761886Y-17108029D02*
X11790457Y-17122314D01*
X11847600Y-17122314D01*
X11876171Y-17108029D01*
X11890457Y-17079457D01*
X11890457Y-17065172D01*
X11876171Y-17036600D01*
X11847600Y-17022314D01*
X11804743Y-17022314D01*
X11776171Y-17008029D01*
X11761886Y-16979457D01*
X11761886Y-16965172D01*
X11776171Y-16936600D01*
X11804743Y-16922314D01*
X11847600Y-16922314D01*
X11876171Y-16936600D01*
X11990457Y-17236600D02*
X12004743Y-17222314D01*
X12033314Y-17179457D01*
X12047600Y-17150886D01*
X12061886Y-17108029D01*
X12076171Y-17036600D01*
X12076171Y-16979457D01*
X12061886Y-16908029D01*
X12047600Y-16865172D01*
X12033314Y-16836600D01*
X12004743Y-16793743D01*
X11990457Y-16779457D01*
X4757600Y-17207600D02*
X4757600Y-17557600D01*
X4582600Y-17382600D02*
X4932600Y-17382600D01*
X5190457Y-17218314D02*
X5376171Y-17218314D01*
X5276171Y-17332600D01*
X5319028Y-17332600D01*
X5347600Y-17346886D01*
X5361886Y-17361172D01*
X5376171Y-17389743D01*
X5376171Y-17461172D01*
X5361886Y-17489743D01*
X5347600Y-17504029D01*
X5319028Y-17518314D01*
X5233314Y-17518314D01*
X5204743Y-17504029D01*
X5190457Y-17489743D01*
X5504743Y-17489743D02*
X5519028Y-17504029D01*
X5504743Y-17518314D01*
X5490457Y-17504029D01*
X5504743Y-17489743D01*
X5504743Y-17518314D01*
X5790457Y-17218314D02*
X5647600Y-17218314D01*
X5633314Y-17361172D01*
X5647600Y-17346886D01*
X5676171Y-17332600D01*
X5747600Y-17332600D01*
X5776171Y-17346886D01*
X5790457Y-17361172D01*
X5804743Y-17389743D01*
X5804743Y-17461172D01*
X5790457Y-17489743D01*
X5776171Y-17504029D01*
X5747600Y-17518314D01*
X5676171Y-17518314D01*
X5647600Y-17504029D01*
X5633314Y-17489743D01*
X5990457Y-17218314D02*
X6019028Y-17218314D01*
X6047600Y-17232600D01*
X6061886Y-17246886D01*
X6076171Y-17275457D01*
X6090457Y-17332600D01*
X6090457Y-17404029D01*
X6076171Y-17461172D01*
X6061886Y-17489743D01*
X6047600Y-17504029D01*
X6019028Y-17518314D01*
X5990457Y-17518314D01*
X5961886Y-17504029D01*
X5947600Y-17489743D01*
X5933314Y-17461172D01*
X5919028Y-17404029D01*
X5919028Y-17332600D01*
X5933314Y-17275457D01*
X5947600Y-17246886D01*
X5961886Y-17232600D01*
X5990457Y-17218314D01*
X6276171Y-17218314D02*
X6304743Y-17218314D01*
X6333314Y-17232600D01*
X6347600Y-17246886D01*
X6361886Y-17275457D01*
X6376171Y-17332600D01*
X6376171Y-17404029D01*
X6361886Y-17461172D01*
X6347600Y-17489743D01*
X6333314Y-17504029D01*
X6304743Y-17518314D01*
X6276171Y-17518314D01*
X6247600Y-17504029D01*
X6233314Y-17489743D01*
X6219028Y-17461172D01*
X6204743Y-17404029D01*
X6204743Y-17332600D01*
X6219028Y-17275457D01*
X6233314Y-17246886D01*
X6247600Y-17232600D01*
X6276171Y-17218314D01*
X6504743Y-17518314D02*
X6504743Y-17318314D01*
X6504743Y-17346886D02*
X6519028Y-17332600D01*
X6547600Y-17318314D01*
X6590457Y-17318314D01*
X6619028Y-17332600D01*
X6633314Y-17361172D01*
X6633314Y-17518314D01*
X6633314Y-17361172D02*
X6647600Y-17332600D01*
X6676171Y-17318314D01*
X6719028Y-17318314D01*
X6747600Y-17332600D01*
X6761886Y-17361172D01*
X6761886Y-17518314D01*
X6904743Y-17518314D02*
X6904743Y-17318314D01*
X6904743Y-17346886D02*
X6919028Y-17332600D01*
X6947600Y-17318314D01*
X6990457Y-17318314D01*
X7019028Y-17332600D01*
X7033314Y-17361172D01*
X7033314Y-17518314D01*
X7033314Y-17361172D02*
X7047600Y-17332600D01*
X7076171Y-17318314D01*
X7119028Y-17318314D01*
X7147600Y-17332600D01*
X7161886Y-17361172D01*
X7161886Y-17518314D01*
X7747600Y-17204029D02*
X7490457Y-17589743D01*
X8133314Y-17218314D02*
X8161886Y-17218314D01*
X8190457Y-17232600D01*
X8204743Y-17246886D01*
X8219028Y-17275457D01*
X8233314Y-17332600D01*
X8233314Y-17404029D01*
X8219028Y-17461172D01*
X8204743Y-17489743D01*
X8190457Y-17504029D01*
X8161886Y-17518314D01*
X8133314Y-17518314D01*
X8104743Y-17504029D01*
X8090457Y-17489743D01*
X8076171Y-17461172D01*
X8061886Y-17404029D01*
X8061886Y-17332600D01*
X8076171Y-17275457D01*
X8090457Y-17246886D01*
X8104743Y-17232600D01*
X8133314Y-17218314D01*
X8361886Y-17489743D02*
X8376171Y-17504029D01*
X8361886Y-17518314D01*
X8347600Y-17504029D01*
X8361886Y-17489743D01*
X8361886Y-17518314D01*
X8661886Y-17518314D02*
X8490457Y-17518314D01*
X8576171Y-17518314D02*
X8576171Y-17218314D01*
X8547600Y-17261172D01*
X8519028Y-17289743D01*
X8490457Y-17304029D01*
X8761886Y-17218314D02*
X8947600Y-17218314D01*
X8847600Y-17332600D01*
X8890457Y-17332600D01*
X8919028Y-17346886D01*
X8933314Y-17361172D01*
X8947600Y-17389743D01*
X8947600Y-17461172D01*
X8933314Y-17489743D01*
X8919028Y-17504029D01*
X8890457Y-17518314D01*
X8804743Y-17518314D01*
X8776171Y-17504029D01*
X8761886Y-17489743D01*
X9047600Y-17218314D02*
X9247600Y-17218314D01*
X9119028Y-17518314D01*
X9404743Y-17346886D02*
X9376171Y-17332600D01*
X9361886Y-17318314D01*
X9347600Y-17289743D01*
X9347600Y-17275457D01*
X9361886Y-17246886D01*
X9376171Y-17232600D01*
X9404743Y-17218314D01*
X9461886Y-17218314D01*
X9490457Y-17232600D01*
X9504743Y-17246886D01*
X9519028Y-17275457D01*
X9519028Y-17289743D01*
X9504743Y-17318314D01*
X9490457Y-17332600D01*
X9461886Y-17346886D01*
X9404743Y-17346886D01*
X9376171Y-17361172D01*
X9361886Y-17375457D01*
X9347600Y-17404029D01*
X9347600Y-17461172D01*
X9361886Y-17489743D01*
X9376171Y-17504029D01*
X9404743Y-17518314D01*
X9461886Y-17518314D01*
X9490457Y-17504029D01*
X9504743Y-17489743D01*
X9519028Y-17461172D01*
X9519028Y-17404029D01*
X9504743Y-17375457D01*
X9490457Y-17361172D01*
X9461886Y-17346886D01*
X9633314Y-17218314D02*
X9633314Y-17275457D01*
X9747600Y-17218314D02*
X9747600Y-17275457D01*
X10190457Y-17632600D02*
X10176171Y-17618314D01*
X10147600Y-17575457D01*
X10133314Y-17546886D01*
X10119028Y-17504029D01*
X10104743Y-17432600D01*
X10104743Y-17375457D01*
X10119028Y-17304029D01*
X10133314Y-17261172D01*
X10147600Y-17232600D01*
X10176171Y-17189743D01*
X10190457Y-17175457D01*
X10276171Y-17218314D02*
X10461886Y-17218314D01*
X10361886Y-17332600D01*
X10404743Y-17332600D01*
X10433314Y-17346886D01*
X10447600Y-17361172D01*
X10461886Y-17389743D01*
X10461886Y-17461172D01*
X10447600Y-17489743D01*
X10433314Y-17504029D01*
X10404743Y-17518314D01*
X10319028Y-17518314D01*
X10290457Y-17504029D01*
X10276171Y-17489743D01*
X10819028Y-17518314D02*
X10819028Y-17218314D01*
X10947600Y-17518314D02*
X10947600Y-17361172D01*
X10933314Y-17332600D01*
X10904743Y-17318314D01*
X10861886Y-17318314D01*
X10833314Y-17332600D01*
X10819028Y-17346886D01*
X11133314Y-17518314D02*
X11104743Y-17504029D01*
X11090457Y-17489743D01*
X11076171Y-17461172D01*
X11076171Y-17375457D01*
X11090457Y-17346886D01*
X11104743Y-17332600D01*
X11133314Y-17318314D01*
X11176171Y-17318314D01*
X11204743Y-17332600D01*
X11219028Y-17346886D01*
X11233314Y-17375457D01*
X11233314Y-17461172D01*
X11219028Y-17489743D01*
X11204743Y-17504029D01*
X11176171Y-17518314D01*
X11133314Y-17518314D01*
X11404743Y-17518314D02*
X11376171Y-17504029D01*
X11361886Y-17475457D01*
X11361886Y-17218314D01*
X11633314Y-17504029D02*
X11604743Y-17518314D01*
X11547600Y-17518314D01*
X11519028Y-17504029D01*
X11504743Y-17475457D01*
X11504743Y-17361172D01*
X11519028Y-17332600D01*
X11547600Y-17318314D01*
X11604743Y-17318314D01*
X11633314Y-17332600D01*
X11647600Y-17361172D01*
X11647600Y-17389743D01*
X11504743Y-17418314D01*
X11761886Y-17504029D02*
X11790457Y-17518314D01*
X11847600Y-17518314D01*
X11876171Y-17504029D01*
X11890457Y-17475457D01*
X11890457Y-17461172D01*
X11876171Y-17432600D01*
X11847600Y-17418314D01*
X11804743Y-17418314D01*
X11776171Y-17404029D01*
X11761886Y-17375457D01*
X11761886Y-17361172D01*
X11776171Y-17332600D01*
X11804743Y-17318314D01*
X11847600Y-17318314D01*
X11876171Y-17332600D01*
X11990457Y-17632600D02*
X12004743Y-17618314D01*
X12033314Y-17575457D01*
X12047600Y-17546886D01*
X12061886Y-17504029D01*
X12076171Y-17432600D01*
X12076171Y-17375457D01*
X12061886Y-17304029D01*
X12047600Y-17261172D01*
X12033314Y-17232600D01*
X12004743Y-17189743D01*
X11990457Y-17175457D01*
X4897746Y-17946747D02*
X4897746Y-17778454D01*
X4729453Y-17778454D01*
X4729453Y-17946747D01*
X4897746Y-17946747D01*
X5204743Y-17726886D02*
X5219028Y-17712600D01*
X5247600Y-17698314D01*
X5319028Y-17698314D01*
X5347600Y-17712600D01*
X5361886Y-17726886D01*
X5376171Y-17755457D01*
X5376171Y-17784029D01*
X5361886Y-17826886D01*
X5190457Y-17998314D01*
X5376171Y-17998314D01*
X5504743Y-17969743D02*
X5519028Y-17984029D01*
X5504743Y-17998314D01*
X5490457Y-17984029D01*
X5504743Y-17969743D01*
X5504743Y-17998314D01*
X5619028Y-17698314D02*
X5804743Y-17698314D01*
X5704743Y-17812600D01*
X5747600Y-17812600D01*
X5776171Y-17826886D01*
X5790457Y-17841172D01*
X5804743Y-17869743D01*
X5804743Y-17941172D01*
X5790457Y-17969743D01*
X5776171Y-17984029D01*
X5747600Y-17998314D01*
X5661886Y-17998314D01*
X5633314Y-17984029D01*
X5619028Y-17969743D01*
X5976171Y-17826886D02*
X5947600Y-17812600D01*
X5933314Y-17798314D01*
X5919028Y-17769743D01*
X5919028Y-17755457D01*
X5933314Y-17726886D01*
X5947600Y-17712600D01*
X5976171Y-17698314D01*
X6033314Y-17698314D01*
X6061886Y-17712600D01*
X6076171Y-17726886D01*
X6090457Y-17755457D01*
X6090457Y-17769743D01*
X6076171Y-17798314D01*
X6061886Y-17812600D01*
X6033314Y-17826886D01*
X5976171Y-17826886D01*
X5947600Y-17841172D01*
X5933314Y-17855457D01*
X5919028Y-17884029D01*
X5919028Y-17941172D01*
X5933314Y-17969743D01*
X5947600Y-17984029D01*
X5976171Y-17998314D01*
X6033314Y-17998314D01*
X6061886Y-17984029D01*
X6076171Y-17969743D01*
X6090457Y-17941172D01*
X6090457Y-17884029D01*
X6076171Y-17855457D01*
X6061886Y-17841172D01*
X6033314Y-17826886D01*
X6276171Y-17698314D02*
X6304743Y-17698314D01*
X6333314Y-17712600D01*
X6347600Y-17726886D01*
X6361886Y-17755457D01*
X6376171Y-17812600D01*
X6376171Y-17884029D01*
X6361886Y-17941172D01*
X6347600Y-17969743D01*
X6333314Y-17984029D01*
X6304743Y-17998314D01*
X6276171Y-17998314D01*
X6247600Y-17984029D01*
X6233314Y-17969743D01*
X6219028Y-17941172D01*
X6204743Y-17884029D01*
X6204743Y-17812600D01*
X6219028Y-17755457D01*
X6233314Y-17726886D01*
X6247600Y-17712600D01*
X6276171Y-17698314D01*
X6504743Y-17998314D02*
X6504743Y-17798314D01*
X6504743Y-17826886D02*
X6519028Y-17812600D01*
X6547600Y-17798314D01*
X6590457Y-17798314D01*
X6619028Y-17812600D01*
X6633314Y-17841172D01*
X6633314Y-17998314D01*
X6633314Y-17841172D02*
X6647600Y-17812600D01*
X6676171Y-17798314D01*
X6719028Y-17798314D01*
X6747600Y-17812600D01*
X6761886Y-17841172D01*
X6761886Y-17998314D01*
X6904743Y-17998314D02*
X6904743Y-17798314D01*
X6904743Y-17826886D02*
X6919028Y-17812600D01*
X6947600Y-17798314D01*
X6990457Y-17798314D01*
X7019028Y-17812600D01*
X7033314Y-17841172D01*
X7033314Y-17998314D01*
X7033314Y-17841172D02*
X7047600Y-17812600D01*
X7076171Y-17798314D01*
X7119028Y-17798314D01*
X7147600Y-17812600D01*
X7161886Y-17841172D01*
X7161886Y-17998314D01*
X7747600Y-17684029D02*
X7490457Y-18069743D01*
X8133314Y-17698314D02*
X8161886Y-17698314D01*
X8190457Y-17712600D01*
X8204743Y-17726886D01*
X8219028Y-17755457D01*
X8233314Y-17812600D01*
X8233314Y-17884029D01*
X8219028Y-17941172D01*
X8204743Y-17969743D01*
X8190457Y-17984029D01*
X8161886Y-17998314D01*
X8133314Y-17998314D01*
X8104743Y-17984029D01*
X8090457Y-17969743D01*
X8076171Y-17941172D01*
X8061886Y-17884029D01*
X8061886Y-17812600D01*
X8076171Y-17755457D01*
X8090457Y-17726886D01*
X8104743Y-17712600D01*
X8133314Y-17698314D01*
X8361886Y-17969743D02*
X8376171Y-17984029D01*
X8361886Y-17998314D01*
X8347600Y-17984029D01*
X8361886Y-17969743D01*
X8361886Y-17998314D01*
X8561886Y-17698314D02*
X8590457Y-17698314D01*
X8619028Y-17712600D01*
X8633314Y-17726886D01*
X8647600Y-17755457D01*
X8661886Y-17812600D01*
X8661886Y-17884029D01*
X8647600Y-17941172D01*
X8633314Y-17969743D01*
X8619028Y-17984029D01*
X8590457Y-17998314D01*
X8561886Y-17998314D01*
X8533314Y-17984029D01*
X8519028Y-17969743D01*
X8504743Y-17941172D01*
X8490457Y-17884029D01*
X8490457Y-17812600D01*
X8504743Y-17755457D01*
X8519028Y-17726886D01*
X8533314Y-17712600D01*
X8561886Y-17698314D01*
X8804743Y-17998314D02*
X8861886Y-17998314D01*
X8890457Y-17984029D01*
X8904743Y-17969743D01*
X8933314Y-17926886D01*
X8947600Y-17869743D01*
X8947600Y-17755457D01*
X8933314Y-17726886D01*
X8919028Y-17712600D01*
X8890457Y-17698314D01*
X8833314Y-17698314D01*
X8804743Y-17712600D01*
X8790457Y-17726886D01*
X8776171Y-17755457D01*
X8776171Y-17826886D01*
X8790457Y-17855457D01*
X8804743Y-17869743D01*
X8833314Y-17884029D01*
X8890457Y-17884029D01*
X8919028Y-17869743D01*
X8933314Y-17855457D01*
X8947600Y-17826886D01*
X9047600Y-17698314D02*
X9233314Y-17698314D01*
X9133314Y-17812600D01*
X9176171Y-17812600D01*
X9204743Y-17826886D01*
X9219028Y-17841172D01*
X9233314Y-17869743D01*
X9233314Y-17941172D01*
X9219028Y-17969743D01*
X9204743Y-17984029D01*
X9176171Y-17998314D01*
X9090457Y-17998314D01*
X9061886Y-17984029D01*
X9047600Y-17969743D01*
X9333314Y-17698314D02*
X9533314Y-17698314D01*
X9404743Y-17998314D01*
X9633314Y-17698314D02*
X9633314Y-17755457D01*
X9747600Y-17698314D02*
X9747600Y-17755457D01*
X10190457Y-18112600D02*
X10176171Y-18098314D01*
X10147600Y-18055457D01*
X10133314Y-18026886D01*
X10119028Y-17984029D01*
X10104743Y-17912600D01*
X10104743Y-17855457D01*
X10119028Y-17784029D01*
X10133314Y-17741172D01*
X10147600Y-17712600D01*
X10176171Y-17669743D01*
X10190457Y-17655457D01*
X10461886Y-17998314D02*
X10290457Y-17998314D01*
X10376171Y-17998314D02*
X10376171Y-17698314D01*
X10347600Y-17741172D01*
X10319028Y-17769743D01*
X10290457Y-17784029D01*
X10819028Y-17998314D02*
X10819028Y-17698314D01*
X10947600Y-17998314D02*
X10947600Y-17841172D01*
X10933314Y-17812600D01*
X10904743Y-17798314D01*
X10861886Y-17798314D01*
X10833314Y-17812600D01*
X10819028Y-17826886D01*
X11133314Y-17998314D02*
X11104743Y-17984029D01*
X11090457Y-17969743D01*
X11076171Y-17941172D01*
X11076171Y-17855457D01*
X11090457Y-17826886D01*
X11104743Y-17812600D01*
X11133314Y-17798314D01*
X11176171Y-17798314D01*
X11204743Y-17812600D01*
X11219028Y-17826886D01*
X11233314Y-17855457D01*
X11233314Y-17941172D01*
X11219028Y-17969743D01*
X11204743Y-17984029D01*
X11176171Y-17998314D01*
X11133314Y-17998314D01*
X11404743Y-17998314D02*
X11376171Y-17984029D01*
X11361886Y-17955457D01*
X11361886Y-17698314D01*
X11633314Y-17984029D02*
X11604743Y-17998314D01*
X11547600Y-17998314D01*
X11519028Y-17984029D01*
X11504743Y-17955457D01*
X11504743Y-17841172D01*
X11519028Y-17812600D01*
X11547600Y-17798314D01*
X11604743Y-17798314D01*
X11633314Y-17812600D01*
X11647600Y-17841172D01*
X11647600Y-17869743D01*
X11504743Y-17898314D01*
X11747600Y-18112600D02*
X11761886Y-18098314D01*
X11790457Y-18055457D01*
X11804743Y-18026886D01*
X11819028Y-17984029D01*
X11833314Y-17912600D01*
X11833314Y-17855457D01*
X11819028Y-17784029D01*
X11804743Y-17741172D01*
X11790457Y-17712600D01*
X11761886Y-17669743D01*
X11747600Y-17655457D01*
X12290457Y-18112600D02*
X12276171Y-18098314D01*
X12247600Y-18055457D01*
X12233314Y-18026886D01*
X12219028Y-17984029D01*
X12204743Y-17912600D01*
X12204743Y-17855457D01*
X12219028Y-17784029D01*
X12233314Y-17741172D01*
X12247600Y-17712600D01*
X12276171Y-17669743D01*
X12290457Y-17655457D01*
X12404743Y-17798314D02*
X12404743Y-17998314D01*
X12404743Y-17826886D02*
X12419028Y-17812600D01*
X12447600Y-17798314D01*
X12490457Y-17798314D01*
X12519028Y-17812600D01*
X12533314Y-17841172D01*
X12533314Y-17998314D01*
X12719028Y-17998314D02*
X12690457Y-17984029D01*
X12676171Y-17969743D01*
X12661886Y-17941172D01*
X12661886Y-17855457D01*
X12676171Y-17826886D01*
X12690457Y-17812600D01*
X12719028Y-17798314D01*
X12761886Y-17798314D01*
X12790457Y-17812600D01*
X12804743Y-17826886D01*
X12819028Y-17855457D01*
X12819028Y-17941172D01*
X12804743Y-17969743D01*
X12790457Y-17984029D01*
X12761886Y-17998314D01*
X12719028Y-17998314D01*
X12904743Y-17798314D02*
X13019028Y-17798314D01*
X12947600Y-17698314D02*
X12947600Y-17955457D01*
X12961886Y-17984029D01*
X12990457Y-17998314D01*
X13019028Y-17998314D01*
X13347600Y-17798314D02*
X13347600Y-18098314D01*
X13347600Y-17812600D02*
X13376171Y-17798314D01*
X13433314Y-17798314D01*
X13461886Y-17812600D01*
X13476171Y-17826886D01*
X13490457Y-17855457D01*
X13490457Y-17941172D01*
X13476171Y-17969743D01*
X13461886Y-17984029D01*
X13433314Y-17998314D01*
X13376171Y-17998314D01*
X13347600Y-17984029D01*
X13661886Y-17998314D02*
X13633314Y-17984029D01*
X13619028Y-17955457D01*
X13619028Y-17698314D01*
X13904743Y-17998314D02*
X13904743Y-17841172D01*
X13890457Y-17812600D01*
X13861886Y-17798314D01*
X13804743Y-17798314D01*
X13776171Y-17812600D01*
X13904743Y-17984029D02*
X13876171Y-17998314D01*
X13804743Y-17998314D01*
X13776171Y-17984029D01*
X13761886Y-17955457D01*
X13761886Y-17926886D01*
X13776171Y-17898314D01*
X13804743Y-17884029D01*
X13876171Y-17884029D01*
X13904743Y-17869743D01*
X14004743Y-17798314D02*
X14119028Y-17798314D01*
X14047600Y-17698314D02*
X14047600Y-17955457D01*
X14061886Y-17984029D01*
X14090457Y-17998314D01*
X14119028Y-17998314D01*
X14333314Y-17984029D02*
X14304743Y-17998314D01*
X14247600Y-17998314D01*
X14219028Y-17984029D01*
X14204743Y-17955457D01*
X14204743Y-17841172D01*
X14219028Y-17812600D01*
X14247600Y-17798314D01*
X14304743Y-17798314D01*
X14333314Y-17812600D01*
X14347600Y-17841172D01*
X14347600Y-17869743D01*
X14204743Y-17898314D01*
X14604743Y-17998314D02*
X14604743Y-17698314D01*
X14604743Y-17984029D02*
X14576171Y-17998314D01*
X14519028Y-17998314D01*
X14490457Y-17984029D01*
X14476171Y-17969743D01*
X14461886Y-17941172D01*
X14461886Y-17855457D01*
X14476171Y-17826886D01*
X14490457Y-17812600D01*
X14519028Y-17798314D01*
X14576171Y-17798314D01*
X14604743Y-17812600D01*
X14719028Y-18112600D02*
X14733314Y-18098314D01*
X14761886Y-18055457D01*
X14776171Y-18026886D01*
X14790457Y-17984029D01*
X14804743Y-17912600D01*
X14804743Y-17855457D01*
X14790457Y-17784029D01*
X14776171Y-17741172D01*
X14761886Y-17712600D01*
X14733314Y-17669743D01*
X14719028Y-17655457D01*
X4773600Y-18417600D02*
X4932600Y-18258600D01*
X4773600Y-18099600D01*
X4614600Y-18258600D01*
X4773600Y-18417600D01*
X5190457Y-18094314D02*
X5376171Y-18094314D01*
X5276171Y-18208600D01*
X5319028Y-18208600D01*
X5347600Y-18222886D01*
X5361886Y-18237172D01*
X5376171Y-18265743D01*
X5376171Y-18337172D01*
X5361886Y-18365743D01*
X5347600Y-18380029D01*
X5319028Y-18394314D01*
X5233314Y-18394314D01*
X5204743Y-18380029D01*
X5190457Y-18365743D01*
X5504743Y-18365743D02*
X5519028Y-18380029D01*
X5504743Y-18394314D01*
X5490457Y-18380029D01*
X5504743Y-18365743D01*
X5504743Y-18394314D01*
X5804743Y-18394314D02*
X5633314Y-18394314D01*
X5719028Y-18394314D02*
X5719028Y-18094314D01*
X5690457Y-18137172D01*
X5661886Y-18165743D01*
X5633314Y-18180029D01*
X5976171Y-18222886D02*
X5947600Y-18208600D01*
X5933314Y-18194314D01*
X5919028Y-18165743D01*
X5919028Y-18151457D01*
X5933314Y-18122886D01*
X5947600Y-18108600D01*
X5976171Y-18094314D01*
X6033314Y-18094314D01*
X6061886Y-18108600D01*
X6076171Y-18122886D01*
X6090457Y-18151457D01*
X6090457Y-18165743D01*
X6076171Y-18194314D01*
X6061886Y-18208600D01*
X6033314Y-18222886D01*
X5976171Y-18222886D01*
X5947600Y-18237172D01*
X5933314Y-18251457D01*
X5919028Y-18280029D01*
X5919028Y-18337172D01*
X5933314Y-18365743D01*
X5947600Y-18380029D01*
X5976171Y-18394314D01*
X6033314Y-18394314D01*
X6061886Y-18380029D01*
X6076171Y-18365743D01*
X6090457Y-18337172D01*
X6090457Y-18280029D01*
X6076171Y-18251457D01*
X6061886Y-18237172D01*
X6033314Y-18222886D01*
X6276171Y-18094314D02*
X6304743Y-18094314D01*
X6333314Y-18108600D01*
X6347600Y-18122886D01*
X6361886Y-18151457D01*
X6376171Y-18208600D01*
X6376171Y-18280029D01*
X6361886Y-18337172D01*
X6347600Y-18365743D01*
X6333314Y-18380029D01*
X6304743Y-18394314D01*
X6276171Y-18394314D01*
X6247600Y-18380029D01*
X6233314Y-18365743D01*
X6219028Y-18337172D01*
X6204743Y-18280029D01*
X6204743Y-18208600D01*
X6219028Y-18151457D01*
X6233314Y-18122886D01*
X6247600Y-18108600D01*
X6276171Y-18094314D01*
X6504743Y-18394314D02*
X6504743Y-18194314D01*
X6504743Y-18222886D02*
X6519028Y-18208600D01*
X6547600Y-18194314D01*
X6590457Y-18194314D01*
X6619028Y-18208600D01*
X6633314Y-18237172D01*
X6633314Y-18394314D01*
X6633314Y-18237172D02*
X6647600Y-18208600D01*
X6676171Y-18194314D01*
X6719028Y-18194314D01*
X6747600Y-18208600D01*
X6761886Y-18237172D01*
X6761886Y-18394314D01*
X6904743Y-18394314D02*
X6904743Y-18194314D01*
X6904743Y-18222886D02*
X6919028Y-18208600D01*
X6947600Y-18194314D01*
X6990457Y-18194314D01*
X7019028Y-18208600D01*
X7033314Y-18237172D01*
X7033314Y-18394314D01*
X7033314Y-18237172D02*
X7047600Y-18208600D01*
X7076171Y-18194314D01*
X7119028Y-18194314D01*
X7147600Y-18208600D01*
X7161886Y-18237172D01*
X7161886Y-18394314D01*
X7747600Y-18080029D02*
X7490457Y-18465743D01*
X8133314Y-18094314D02*
X8161886Y-18094314D01*
X8190457Y-18108600D01*
X8204743Y-18122886D01*
X8219028Y-18151457D01*
X8233314Y-18208600D01*
X8233314Y-18280029D01*
X8219028Y-18337172D01*
X8204743Y-18365743D01*
X8190457Y-18380029D01*
X8161886Y-18394314D01*
X8133314Y-18394314D01*
X8104743Y-18380029D01*
X8090457Y-18365743D01*
X8076171Y-18337172D01*
X8061886Y-18280029D01*
X8061886Y-18208600D01*
X8076171Y-18151457D01*
X8090457Y-18122886D01*
X8104743Y-18108600D01*
X8133314Y-18094314D01*
X8361886Y-18365743D02*
X8376171Y-18380029D01*
X8361886Y-18394314D01*
X8347600Y-18380029D01*
X8361886Y-18365743D01*
X8361886Y-18394314D01*
X8661886Y-18394314D02*
X8490457Y-18394314D01*
X8576171Y-18394314D02*
X8576171Y-18094314D01*
X8547600Y-18137172D01*
X8519028Y-18165743D01*
X8490457Y-18180029D01*
X8776171Y-18122886D02*
X8790457Y-18108600D01*
X8819028Y-18094314D01*
X8890457Y-18094314D01*
X8919028Y-18108600D01*
X8933314Y-18122886D01*
X8947600Y-18151457D01*
X8947600Y-18180029D01*
X8933314Y-18222886D01*
X8761886Y-18394314D01*
X8947600Y-18394314D01*
X9219028Y-18094314D02*
X9076171Y-18094314D01*
X9061886Y-18237172D01*
X9076171Y-18222886D01*
X9104743Y-18208600D01*
X9176171Y-18208600D01*
X9204743Y-18222886D01*
X9219028Y-18237172D01*
X9233314Y-18265743D01*
X9233314Y-18337172D01*
X9219028Y-18365743D01*
X9204743Y-18380029D01*
X9176171Y-18394314D01*
X9104743Y-18394314D01*
X9076171Y-18380029D01*
X9061886Y-18365743D01*
X9347600Y-18122886D02*
X9361886Y-18108600D01*
X9390457Y-18094314D01*
X9461886Y-18094314D01*
X9490457Y-18108600D01*
X9504743Y-18122886D01*
X9519028Y-18151457D01*
X9519028Y-18180029D01*
X9504743Y-18222886D01*
X9333314Y-18394314D01*
X9519028Y-18394314D01*
X9633314Y-18094314D02*
X9633314Y-18151457D01*
X9747600Y-18094314D02*
X9747600Y-18151457D01*
X10190457Y-18508600D02*
X10176171Y-18494314D01*
X10147600Y-18451457D01*
X10133314Y-18422886D01*
X10119028Y-18380029D01*
X10104743Y-18308600D01*
X10104743Y-18251457D01*
X10119028Y-18180029D01*
X10133314Y-18137172D01*
X10147600Y-18108600D01*
X10176171Y-18065743D01*
X10190457Y-18051457D01*
X10290457Y-18122886D02*
X10304743Y-18108600D01*
X10333314Y-18094314D01*
X10404743Y-18094314D01*
X10433314Y-18108600D01*
X10447600Y-18122886D01*
X10461886Y-18151457D01*
X10461886Y-18180029D01*
X10447600Y-18222886D01*
X10276171Y-18394314D01*
X10461886Y-18394314D01*
X10819028Y-18394314D02*
X10819028Y-18094314D01*
X10947600Y-18394314D02*
X10947600Y-18237172D01*
X10933314Y-18208600D01*
X10904743Y-18194314D01*
X10861886Y-18194314D01*
X10833314Y-18208600D01*
X10819028Y-18222886D01*
X11133314Y-18394314D02*
X11104743Y-18380029D01*
X11090457Y-18365743D01*
X11076171Y-18337172D01*
X11076171Y-18251457D01*
X11090457Y-18222886D01*
X11104743Y-18208600D01*
X11133314Y-18194314D01*
X11176171Y-18194314D01*
X11204743Y-18208600D01*
X11219028Y-18222886D01*
X11233314Y-18251457D01*
X11233314Y-18337172D01*
X11219028Y-18365743D01*
X11204743Y-18380029D01*
X11176171Y-18394314D01*
X11133314Y-18394314D01*
X11404743Y-18394314D02*
X11376171Y-18380029D01*
X11361886Y-18351457D01*
X11361886Y-18094314D01*
X11633314Y-18380029D02*
X11604743Y-18394314D01*
X11547600Y-18394314D01*
X11519028Y-18380029D01*
X11504743Y-18351457D01*
X11504743Y-18237172D01*
X11519028Y-18208600D01*
X11547600Y-18194314D01*
X11604743Y-18194314D01*
X11633314Y-18208600D01*
X11647600Y-18237172D01*
X11647600Y-18265743D01*
X11504743Y-18294314D01*
X11761886Y-18380029D02*
X11790457Y-18394314D01*
X11847600Y-18394314D01*
X11876171Y-18380029D01*
X11890457Y-18351457D01*
X11890457Y-18337172D01*
X11876171Y-18308600D01*
X11847600Y-18294314D01*
X11804743Y-18294314D01*
X11776171Y-18280029D01*
X11761886Y-18251457D01*
X11761886Y-18237172D01*
X11776171Y-18208600D01*
X11804743Y-18194314D01*
X11847600Y-18194314D01*
X11876171Y-18208600D01*
X11990457Y-18508600D02*
X12004743Y-18494314D01*
X12033314Y-18451457D01*
X12047600Y-18422886D01*
X12061886Y-18380029D01*
X12076171Y-18308600D01*
X12076171Y-18251457D01*
X12061886Y-18180029D01*
X12047600Y-18137172D01*
X12033314Y-18108600D01*
X12004743Y-18065743D01*
X11990457Y-18051457D01*
X12533314Y-18508600D02*
X12519028Y-18494314D01*
X12490457Y-18451457D01*
X12476171Y-18422886D01*
X12461886Y-18380029D01*
X12447600Y-18308600D01*
X12447600Y-18251457D01*
X12461886Y-18180029D01*
X12476171Y-18137172D01*
X12490457Y-18108600D01*
X12519028Y-18065743D01*
X12533314Y-18051457D01*
X12647600Y-18194314D02*
X12647600Y-18394314D01*
X12647600Y-18222886D02*
X12661886Y-18208600D01*
X12690457Y-18194314D01*
X12733314Y-18194314D01*
X12761886Y-18208600D01*
X12776171Y-18237172D01*
X12776171Y-18394314D01*
X12961886Y-18394314D02*
X12933314Y-18380029D01*
X12919028Y-18365743D01*
X12904743Y-18337172D01*
X12904743Y-18251457D01*
X12919028Y-18222886D01*
X12933314Y-18208600D01*
X12961886Y-18194314D01*
X13004743Y-18194314D01*
X13033314Y-18208600D01*
X13047600Y-18222886D01*
X13061886Y-18251457D01*
X13061886Y-18337172D01*
X13047600Y-18365743D01*
X13033314Y-18380029D01*
X13004743Y-18394314D01*
X12961886Y-18394314D01*
X13147600Y-18194314D02*
X13261886Y-18194314D01*
X13190457Y-18094314D02*
X13190457Y-18351457D01*
X13204743Y-18380029D01*
X13233314Y-18394314D01*
X13261886Y-18394314D01*
X13590457Y-18194314D02*
X13590457Y-18494314D01*
X13590457Y-18208600D02*
X13619028Y-18194314D01*
X13676171Y-18194314D01*
X13704743Y-18208600D01*
X13719028Y-18222886D01*
X13733314Y-18251457D01*
X13733314Y-18337172D01*
X13719028Y-18365743D01*
X13704743Y-18380029D01*
X13676171Y-18394314D01*
X13619028Y-18394314D01*
X13590457Y-18380029D01*
X13904743Y-18394314D02*
X13876171Y-18380029D01*
X13861886Y-18351457D01*
X13861886Y-18094314D01*
X14147600Y-18394314D02*
X14147600Y-18237172D01*
X14133314Y-18208600D01*
X14104743Y-18194314D01*
X14047600Y-18194314D01*
X14019028Y-18208600D01*
X14147600Y-18380029D02*
X14119028Y-18394314D01*
X14047600Y-18394314D01*
X14019028Y-18380029D01*
X14004743Y-18351457D01*
X14004743Y-18322886D01*
X14019028Y-18294314D01*
X14047600Y-18280029D01*
X14119028Y-18280029D01*
X14147600Y-18265743D01*
X14247600Y-18194314D02*
X14361886Y-18194314D01*
X14290457Y-18094314D02*
X14290457Y-18351457D01*
X14304743Y-18380029D01*
X14333314Y-18394314D01*
X14361886Y-18394314D01*
X14576171Y-18380029D02*
X14547600Y-18394314D01*
X14490457Y-18394314D01*
X14461886Y-18380029D01*
X14447600Y-18351457D01*
X14447600Y-18237172D01*
X14461886Y-18208600D01*
X14490457Y-18194314D01*
X14547600Y-18194314D01*
X14576171Y-18208600D01*
X14590457Y-18237172D01*
X14590457Y-18265743D01*
X14447600Y-18294314D01*
X14847600Y-18394314D02*
X14847600Y-18094314D01*
X14847600Y-18380029D02*
X14819028Y-18394314D01*
X14761886Y-18394314D01*
X14733314Y-18380029D01*
X14719028Y-18365743D01*
X14704743Y-18337172D01*
X14704743Y-18251457D01*
X14719028Y-18222886D01*
X14733314Y-18208600D01*
X14761886Y-18194314D01*
X14819028Y-18194314D01*
X14847600Y-18208600D01*
X14961886Y-18508600D02*
X14976171Y-18494314D01*
X15004743Y-18451457D01*
X15019028Y-18422886D01*
X15033314Y-18380029D01*
X15047600Y-18308600D01*
X15047600Y-18251457D01*
X15033314Y-18180029D01*
X15019028Y-18137172D01*
X15004743Y-18108600D01*
X14976171Y-18065743D01*
X14961886Y-18051457D01*
X4577600Y-18529100D02*
X4932600Y-18884100D01*
X4932600Y-18529100D02*
X4577600Y-18884100D01*
X4932600Y-18706600D02*
G75*
G03*
X4932600Y-18706600I-177500J0D01*
G01*
X5190457Y-18542314D02*
X5376171Y-18542314D01*
X5276171Y-18656600D01*
X5319028Y-18656600D01*
X5347600Y-18670886D01*
X5361886Y-18685172D01*
X5376171Y-18713743D01*
X5376171Y-18785172D01*
X5361886Y-18813743D01*
X5347600Y-18828029D01*
X5319028Y-18842314D01*
X5233314Y-18842314D01*
X5204743Y-18828029D01*
X5190457Y-18813743D01*
X5504743Y-18813743D02*
X5519028Y-18828029D01*
X5504743Y-18842314D01*
X5490457Y-18828029D01*
X5504743Y-18813743D01*
X5504743Y-18842314D01*
X5790457Y-18542314D02*
X5647600Y-18542314D01*
X5633314Y-18685172D01*
X5647600Y-18670886D01*
X5676171Y-18656600D01*
X5747600Y-18656600D01*
X5776171Y-18670886D01*
X5790457Y-18685172D01*
X5804743Y-18713743D01*
X5804743Y-18785172D01*
X5790457Y-18813743D01*
X5776171Y-18828029D01*
X5747600Y-18842314D01*
X5676171Y-18842314D01*
X5647600Y-18828029D01*
X5633314Y-18813743D01*
X6076171Y-18542314D02*
X5933314Y-18542314D01*
X5919028Y-18685172D01*
X5933314Y-18670886D01*
X5961886Y-18656600D01*
X6033314Y-18656600D01*
X6061886Y-18670886D01*
X6076171Y-18685172D01*
X6090457Y-18713743D01*
X6090457Y-18785172D01*
X6076171Y-18813743D01*
X6061886Y-18828029D01*
X6033314Y-18842314D01*
X5961886Y-18842314D01*
X5933314Y-18828029D01*
X5919028Y-18813743D01*
X6276171Y-18542314D02*
X6304743Y-18542314D01*
X6333314Y-18556600D01*
X6347600Y-18570886D01*
X6361886Y-18599457D01*
X6376171Y-18656600D01*
X6376171Y-18728029D01*
X6361886Y-18785172D01*
X6347600Y-18813743D01*
X6333314Y-18828029D01*
X6304743Y-18842314D01*
X6276171Y-18842314D01*
X6247600Y-18828029D01*
X6233314Y-18813743D01*
X6219028Y-18785172D01*
X6204743Y-18728029D01*
X6204743Y-18656600D01*
X6219028Y-18599457D01*
X6233314Y-18570886D01*
X6247600Y-18556600D01*
X6276171Y-18542314D01*
X6504743Y-18842314D02*
X6504743Y-18642314D01*
X6504743Y-18670886D02*
X6519028Y-18656600D01*
X6547600Y-18642314D01*
X6590457Y-18642314D01*
X6619028Y-18656600D01*
X6633314Y-18685172D01*
X6633314Y-18842314D01*
X6633314Y-18685172D02*
X6647600Y-18656600D01*
X6676171Y-18642314D01*
X6719028Y-18642314D01*
X6747600Y-18656600D01*
X6761886Y-18685172D01*
X6761886Y-18842314D01*
X6904743Y-18842314D02*
X6904743Y-18642314D01*
X6904743Y-18670886D02*
X6919028Y-18656600D01*
X6947600Y-18642314D01*
X6990457Y-18642314D01*
X7019028Y-18656600D01*
X7033314Y-18685172D01*
X7033314Y-18842314D01*
X7033314Y-18685172D02*
X7047600Y-18656600D01*
X7076171Y-18642314D01*
X7119028Y-18642314D01*
X7147600Y-18656600D01*
X7161886Y-18685172D01*
X7161886Y-18842314D01*
X7747600Y-18528029D02*
X7490457Y-18913743D01*
X8133314Y-18542314D02*
X8161886Y-18542314D01*
X8190457Y-18556600D01*
X8204743Y-18570886D01*
X8219028Y-18599457D01*
X8233314Y-18656600D01*
X8233314Y-18728029D01*
X8219028Y-18785172D01*
X8204743Y-18813743D01*
X8190457Y-18828029D01*
X8161886Y-18842314D01*
X8133314Y-18842314D01*
X8104743Y-18828029D01*
X8090457Y-18813743D01*
X8076171Y-18785172D01*
X8061886Y-18728029D01*
X8061886Y-18656600D01*
X8076171Y-18599457D01*
X8090457Y-18570886D01*
X8104743Y-18556600D01*
X8133314Y-18542314D01*
X8361886Y-18813743D02*
X8376171Y-18828029D01*
X8361886Y-18842314D01*
X8347600Y-18828029D01*
X8361886Y-18813743D01*
X8361886Y-18842314D01*
X8661886Y-18842314D02*
X8490457Y-18842314D01*
X8576171Y-18842314D02*
X8576171Y-18542314D01*
X8547600Y-18585172D01*
X8519028Y-18613743D01*
X8490457Y-18628029D01*
X8761886Y-18542314D02*
X8947600Y-18542314D01*
X8847600Y-18656600D01*
X8890457Y-18656600D01*
X8919028Y-18670886D01*
X8933314Y-18685172D01*
X8947600Y-18713743D01*
X8947600Y-18785172D01*
X8933314Y-18813743D01*
X8919028Y-18828029D01*
X8890457Y-18842314D01*
X8804743Y-18842314D01*
X8776171Y-18828029D01*
X8761886Y-18813743D01*
X9090457Y-18842314D02*
X9147600Y-18842314D01*
X9176171Y-18828029D01*
X9190457Y-18813743D01*
X9219028Y-18770886D01*
X9233314Y-18713743D01*
X9233314Y-18599457D01*
X9219028Y-18570886D01*
X9204743Y-18556600D01*
X9176171Y-18542314D01*
X9119028Y-18542314D01*
X9090457Y-18556600D01*
X9076171Y-18570886D01*
X9061886Y-18599457D01*
X9061886Y-18670886D01*
X9076171Y-18699457D01*
X9090457Y-18713743D01*
X9119028Y-18728029D01*
X9176171Y-18728029D01*
X9204743Y-18713743D01*
X9219028Y-18699457D01*
X9233314Y-18670886D01*
X9404743Y-18670886D02*
X9376171Y-18656600D01*
X9361886Y-18642314D01*
X9347600Y-18613743D01*
X9347600Y-18599457D01*
X9361886Y-18570886D01*
X9376171Y-18556600D01*
X9404743Y-18542314D01*
X9461886Y-18542314D01*
X9490457Y-18556600D01*
X9504743Y-18570886D01*
X9519028Y-18599457D01*
X9519028Y-18613743D01*
X9504743Y-18642314D01*
X9490457Y-18656600D01*
X9461886Y-18670886D01*
X9404743Y-18670886D01*
X9376171Y-18685172D01*
X9361886Y-18699457D01*
X9347600Y-18728029D01*
X9347600Y-18785172D01*
X9361886Y-18813743D01*
X9376171Y-18828029D01*
X9404743Y-18842314D01*
X9461886Y-18842314D01*
X9490457Y-18828029D01*
X9504743Y-18813743D01*
X9519028Y-18785172D01*
X9519028Y-18728029D01*
X9504743Y-18699457D01*
X9490457Y-18685172D01*
X9461886Y-18670886D01*
X9633314Y-18542314D02*
X9633314Y-18599457D01*
X9747600Y-18542314D02*
X9747600Y-18599457D01*
X10190457Y-18956600D02*
X10176171Y-18942314D01*
X10147600Y-18899457D01*
X10133314Y-18870886D01*
X10119028Y-18828029D01*
X10104743Y-18756600D01*
X10104743Y-18699457D01*
X10119028Y-18628029D01*
X10133314Y-18585172D01*
X10147600Y-18556600D01*
X10176171Y-18513743D01*
X10190457Y-18499457D01*
X10290457Y-18570886D02*
X10304743Y-18556600D01*
X10333314Y-18542314D01*
X10404743Y-18542314D01*
X10433314Y-18556600D01*
X10447600Y-18570886D01*
X10461886Y-18599457D01*
X10461886Y-18628029D01*
X10447600Y-18670886D01*
X10276171Y-18842314D01*
X10461886Y-18842314D01*
X10819028Y-18842314D02*
X10819028Y-18542314D01*
X10947600Y-18842314D02*
X10947600Y-18685172D01*
X10933314Y-18656600D01*
X10904743Y-18642314D01*
X10861886Y-18642314D01*
X10833314Y-18656600D01*
X10819028Y-18670886D01*
X11133314Y-18842314D02*
X11104743Y-18828029D01*
X11090457Y-18813743D01*
X11076171Y-18785172D01*
X11076171Y-18699457D01*
X11090457Y-18670886D01*
X11104743Y-18656600D01*
X11133314Y-18642314D01*
X11176171Y-18642314D01*
X11204743Y-18656600D01*
X11219028Y-18670886D01*
X11233314Y-18699457D01*
X11233314Y-18785172D01*
X11219028Y-18813743D01*
X11204743Y-18828029D01*
X11176171Y-18842314D01*
X11133314Y-18842314D01*
X11404743Y-18842314D02*
X11376171Y-18828029D01*
X11361886Y-18799457D01*
X11361886Y-18542314D01*
X11633314Y-18828029D02*
X11604743Y-18842314D01*
X11547600Y-18842314D01*
X11519028Y-18828029D01*
X11504743Y-18799457D01*
X11504743Y-18685172D01*
X11519028Y-18656600D01*
X11547600Y-18642314D01*
X11604743Y-18642314D01*
X11633314Y-18656600D01*
X11647600Y-18685172D01*
X11647600Y-18713743D01*
X11504743Y-18742314D01*
X11761886Y-18828029D02*
X11790457Y-18842314D01*
X11847600Y-18842314D01*
X11876171Y-18828029D01*
X11890457Y-18799457D01*
X11890457Y-18785172D01*
X11876171Y-18756600D01*
X11847600Y-18742314D01*
X11804743Y-18742314D01*
X11776171Y-18728029D01*
X11761886Y-18699457D01*
X11761886Y-18685172D01*
X11776171Y-18656600D01*
X11804743Y-18642314D01*
X11847600Y-18642314D01*
X11876171Y-18656600D01*
X11990457Y-18956600D02*
X12004743Y-18942314D01*
X12033314Y-18899457D01*
X12047600Y-18870886D01*
X12061886Y-18828029D01*
X12076171Y-18756600D01*
X12076171Y-18699457D01*
X12061886Y-18628029D01*
X12047600Y-18585172D01*
X12033314Y-18556600D01*
X12004743Y-18513743D01*
X11990457Y-18499457D01*
X12533314Y-18956600D02*
X12519028Y-18942314D01*
X12490457Y-18899457D01*
X12476171Y-18870886D01*
X12461886Y-18828029D01*
X12447600Y-18756600D01*
X12447600Y-18699457D01*
X12461886Y-18628029D01*
X12476171Y-18585172D01*
X12490457Y-18556600D01*
X12519028Y-18513743D01*
X12533314Y-18499457D01*
X12647600Y-18642314D02*
X12647600Y-18842314D01*
X12647600Y-18670886D02*
X12661886Y-18656600D01*
X12690457Y-18642314D01*
X12733314Y-18642314D01*
X12761886Y-18656600D01*
X12776171Y-18685172D01*
X12776171Y-18842314D01*
X12961886Y-18842314D02*
X12933314Y-18828029D01*
X12919028Y-18813743D01*
X12904743Y-18785172D01*
X12904743Y-18699457D01*
X12919028Y-18670886D01*
X12933314Y-18656600D01*
X12961886Y-18642314D01*
X13004743Y-18642314D01*
X13033314Y-18656600D01*
X13047600Y-18670886D01*
X13061886Y-18699457D01*
X13061886Y-18785172D01*
X13047600Y-18813743D01*
X13033314Y-18828029D01*
X13004743Y-18842314D01*
X12961886Y-18842314D01*
X13147600Y-18642314D02*
X13261886Y-18642314D01*
X13190457Y-18542314D02*
X13190457Y-18799457D01*
X13204743Y-18828029D01*
X13233314Y-18842314D01*
X13261886Y-18842314D01*
X13590457Y-18642314D02*
X13590457Y-18942314D01*
X13590457Y-18656600D02*
X13619028Y-18642314D01*
X13676171Y-18642314D01*
X13704743Y-18656600D01*
X13719028Y-18670886D01*
X13733314Y-18699457D01*
X13733314Y-18785172D01*
X13719028Y-18813743D01*
X13704743Y-18828029D01*
X13676171Y-18842314D01*
X13619028Y-18842314D01*
X13590457Y-18828029D01*
X13904743Y-18842314D02*
X13876171Y-18828029D01*
X13861886Y-18799457D01*
X13861886Y-18542314D01*
X14147600Y-18842314D02*
X14147600Y-18685172D01*
X14133314Y-18656600D01*
X14104743Y-18642314D01*
X14047600Y-18642314D01*
X14019028Y-18656600D01*
X14147600Y-18828029D02*
X14119028Y-18842314D01*
X14047600Y-18842314D01*
X14019028Y-18828029D01*
X14004743Y-18799457D01*
X14004743Y-18770886D01*
X14019028Y-18742314D01*
X14047600Y-18728029D01*
X14119028Y-18728029D01*
X14147600Y-18713743D01*
X14247600Y-18642314D02*
X14361886Y-18642314D01*
X14290457Y-18542314D02*
X14290457Y-18799457D01*
X14304743Y-18828029D01*
X14333314Y-18842314D01*
X14361886Y-18842314D01*
X14576171Y-18828029D02*
X14547600Y-18842314D01*
X14490457Y-18842314D01*
X14461886Y-18828029D01*
X14447600Y-18799457D01*
X14447600Y-18685172D01*
X14461886Y-18656600D01*
X14490457Y-18642314D01*
X14547600Y-18642314D01*
X14576171Y-18656600D01*
X14590457Y-18685172D01*
X14590457Y-18713743D01*
X14447600Y-18742314D01*
X14847600Y-18842314D02*
X14847600Y-18542314D01*
X14847600Y-18828029D02*
X14819028Y-18842314D01*
X14761886Y-18842314D01*
X14733314Y-18828029D01*
X14719028Y-18813743D01*
X14704743Y-18785172D01*
X14704743Y-18699457D01*
X14719028Y-18670886D01*
X14733314Y-18656600D01*
X14761886Y-18642314D01*
X14819028Y-18642314D01*
X14847600Y-18656600D01*
X14961886Y-18956600D02*
X14976171Y-18942314D01*
X15004743Y-18899457D01*
X15019028Y-18870886D01*
X15033314Y-18828029D01*
X15047600Y-18756600D01*
X15047600Y-18699457D01*
X15033314Y-18628029D01*
X15019028Y-18585172D01*
X15004743Y-18556600D01*
X14976171Y-18513743D01*
X14961886Y-18499457D01*
M02*
