G04 #@! TF.GenerationSoftware,KiCad,Pcbnew,(5.1.10)-1*
G04 #@! TF.CreationDate,2021-12-13T23:40:35+01:00*
G04 #@! TF.ProjectId,BikeCounter,42696b65-436f-4756-9e74-65722e6b6963,rev?*
G04 #@! TF.SameCoordinates,Original*
G04 #@! TF.FileFunction,Copper,L1,Top*
G04 #@! TF.FilePolarity,Positive*
%FSLAX46Y46*%
G04 Gerber Fmt 4.6, Leading zero omitted, Abs format (unit mm)*
G04 Created by KiCad (PCBNEW (5.1.10)-1) date 2021-12-13 23:40:35*
%MOMM*%
%LPD*%
G01*
G04 APERTURE LIST*
G04 #@! TA.AperFunction,ComponentPad*
%ADD10C,7.000000*%
G04 #@! TD*
G04 #@! TA.AperFunction,SMDPad,CuDef*
%ADD11R,3.500000X3.300000*%
G04 #@! TD*
G04 #@! TA.AperFunction,SMDPad,CuDef*
%ADD12C,10.200000*%
G04 #@! TD*
G04 #@! TA.AperFunction,ComponentPad*
%ADD13O,1.700000X1.700000*%
G04 #@! TD*
G04 #@! TA.AperFunction,ComponentPad*
%ADD14R,1.700000X1.700000*%
G04 #@! TD*
G04 #@! TA.AperFunction,ComponentPad*
%ADD15R,1.350000X1.350000*%
G04 #@! TD*
G04 #@! TA.AperFunction,ComponentPad*
%ADD16O,1.350000X1.350000*%
G04 #@! TD*
G04 #@! TA.AperFunction,ComponentPad*
%ADD17C,1.800000*%
G04 #@! TD*
G04 #@! TA.AperFunction,SMDPad,CuDef*
%ADD18R,2.440000X1.120000*%
G04 #@! TD*
G04 #@! TA.AperFunction,ViaPad*
%ADD19C,0.800000*%
G04 #@! TD*
G04 #@! TA.AperFunction,Conductor*
%ADD20C,0.250000*%
G04 #@! TD*
G04 APERTURE END LIST*
D10*
X191264000Y-75026000D03*
X191264000Y-103026000D03*
X96264000Y-103026000D03*
X96264000Y-75026000D03*
G04 #@! TA.AperFunction,SMDPad,CuDef*
G36*
G01*
X165304500Y-86116000D02*
X165304500Y-87366000D01*
G75*
G02*
X165054500Y-87616000I-250000J0D01*
G01*
X164129500Y-87616000D01*
G75*
G02*
X163879500Y-87366000I0J250000D01*
G01*
X163879500Y-86116000D01*
G75*
G02*
X164129500Y-85866000I250000J0D01*
G01*
X165054500Y-85866000D01*
G75*
G02*
X165304500Y-86116000I0J-250000D01*
G01*
G37*
G04 #@! TD.AperFunction*
G04 #@! TA.AperFunction,SMDPad,CuDef*
G36*
G01*
X162329500Y-86116000D02*
X162329500Y-87366000D01*
G75*
G02*
X162079500Y-87616000I-250000J0D01*
G01*
X161154500Y-87616000D01*
G75*
G02*
X160904500Y-87366000I0J250000D01*
G01*
X160904500Y-86116000D01*
G75*
G02*
X161154500Y-85866000I250000J0D01*
G01*
X162079500Y-85866000D01*
G75*
G02*
X162329500Y-86116000I0J-250000D01*
G01*
G37*
G04 #@! TD.AperFunction*
D11*
X103479000Y-89916000D03*
X119279000Y-89916000D03*
D12*
X111379000Y-89916000D03*
D13*
X156464000Y-95250000D03*
X151384000Y-95250000D03*
X136144000Y-95250000D03*
X153924000Y-95250000D03*
X131064000Y-95250000D03*
X128524000Y-95250000D03*
X148844000Y-95250000D03*
X123444000Y-95250000D03*
X125984000Y-95250000D03*
X138684000Y-95250000D03*
X141224000Y-95250000D03*
X143764000Y-95250000D03*
X146304000Y-95250000D03*
X133604000Y-95250000D03*
D14*
X156464000Y-74930000D03*
D13*
X133604000Y-74930000D03*
X146304000Y-74930000D03*
X128524000Y-74930000D03*
X131064000Y-74930000D03*
X153924000Y-74930000D03*
X136144000Y-74930000D03*
X143764000Y-74930000D03*
X125984000Y-74930000D03*
X123444000Y-74930000D03*
X148844000Y-74930000D03*
X151384000Y-74930000D03*
X141224000Y-74930000D03*
X138684000Y-74930000D03*
D15*
X149225000Y-106172000D03*
D16*
X151225000Y-106172000D03*
X153225000Y-106172000D03*
X155225000Y-106172000D03*
D13*
X132969000Y-68326000D03*
D14*
X135509000Y-68326000D03*
D17*
X185167000Y-93345000D03*
X189167000Y-93345000D03*
X193167000Y-93345000D03*
D13*
X165989000Y-68326000D03*
D14*
X168529000Y-68326000D03*
D13*
X96264000Y-90566000D03*
D14*
X96264000Y-88026000D03*
G04 #@! TA.AperFunction,SMDPad,CuDef*
G36*
G01*
X130038000Y-113579000D02*
X128788000Y-113579000D01*
G75*
G02*
X128538000Y-113329000I0J250000D01*
G01*
X128538000Y-112404000D01*
G75*
G02*
X128788000Y-112154000I250000J0D01*
G01*
X130038000Y-112154000D01*
G75*
G02*
X130288000Y-112404000I0J-250000D01*
G01*
X130288000Y-113329000D01*
G75*
G02*
X130038000Y-113579000I-250000J0D01*
G01*
G37*
G04 #@! TD.AperFunction*
G04 #@! TA.AperFunction,SMDPad,CuDef*
G36*
G01*
X130038000Y-110604000D02*
X128788000Y-110604000D01*
G75*
G02*
X128538000Y-110354000I0J250000D01*
G01*
X128538000Y-109429000D01*
G75*
G02*
X128788000Y-109179000I250000J0D01*
G01*
X130038000Y-109179000D01*
G75*
G02*
X130288000Y-109429000I0J-250000D01*
G01*
X130288000Y-110354000D01*
G75*
G02*
X130038000Y-110604000I-250000J0D01*
G01*
G37*
G04 #@! TD.AperFunction*
G04 #@! TA.AperFunction,SMDPad,CuDef*
G36*
G01*
X133848000Y-113579000D02*
X132598000Y-113579000D01*
G75*
G02*
X132348000Y-113329000I0J250000D01*
G01*
X132348000Y-112404000D01*
G75*
G02*
X132598000Y-112154000I250000J0D01*
G01*
X133848000Y-112154000D01*
G75*
G02*
X134098000Y-112404000I0J-250000D01*
G01*
X134098000Y-113329000D01*
G75*
G02*
X133848000Y-113579000I-250000J0D01*
G01*
G37*
G04 #@! TD.AperFunction*
G04 #@! TA.AperFunction,SMDPad,CuDef*
G36*
G01*
X133848000Y-110604000D02*
X132598000Y-110604000D01*
G75*
G02*
X132348000Y-110354000I0J250000D01*
G01*
X132348000Y-109429000D01*
G75*
G02*
X132598000Y-109179000I250000J0D01*
G01*
X133848000Y-109179000D01*
G75*
G02*
X134098000Y-109429000I0J-250000D01*
G01*
X134098000Y-110354000D01*
G75*
G02*
X133848000Y-110604000I-250000J0D01*
G01*
G37*
G04 #@! TD.AperFunction*
X115697000Y-111379000D03*
D13*
X118237000Y-111379000D03*
X120777000Y-111379000D03*
X123317000Y-111379000D03*
G04 #@! TA.AperFunction,SMDPad,CuDef*
G36*
G01*
X156982000Y-66724500D02*
X158232000Y-66724500D01*
G75*
G02*
X158482000Y-66974500I0J-250000D01*
G01*
X158482000Y-67899500D01*
G75*
G02*
X158232000Y-68149500I-250000J0D01*
G01*
X156982000Y-68149500D01*
G75*
G02*
X156732000Y-67899500I0J250000D01*
G01*
X156732000Y-66974500D01*
G75*
G02*
X156982000Y-66724500I250000J0D01*
G01*
G37*
G04 #@! TD.AperFunction*
G04 #@! TA.AperFunction,SMDPad,CuDef*
G36*
G01*
X156982000Y-69699500D02*
X158232000Y-69699500D01*
G75*
G02*
X158482000Y-69949500I0J-250000D01*
G01*
X158482000Y-70874500D01*
G75*
G02*
X158232000Y-71124500I-250000J0D01*
G01*
X156982000Y-71124500D01*
G75*
G02*
X156732000Y-70874500I0J250000D01*
G01*
X156732000Y-69949500D01*
G75*
G02*
X156982000Y-69699500I250000J0D01*
G01*
G37*
G04 #@! TD.AperFunction*
G04 #@! TA.AperFunction,SMDPad,CuDef*
G36*
G01*
X160792000Y-66724500D02*
X162042000Y-66724500D01*
G75*
G02*
X162292000Y-66974500I0J-250000D01*
G01*
X162292000Y-67899500D01*
G75*
G02*
X162042000Y-68149500I-250000J0D01*
G01*
X160792000Y-68149500D01*
G75*
G02*
X160542000Y-67899500I0J250000D01*
G01*
X160542000Y-66974500D01*
G75*
G02*
X160792000Y-66724500I250000J0D01*
G01*
G37*
G04 #@! TD.AperFunction*
G04 #@! TA.AperFunction,SMDPad,CuDef*
G36*
G01*
X160792000Y-69699500D02*
X162042000Y-69699500D01*
G75*
G02*
X162292000Y-69949500I0J-250000D01*
G01*
X162292000Y-70874500D01*
G75*
G02*
X162042000Y-71124500I-250000J0D01*
G01*
X160792000Y-71124500D01*
G75*
G02*
X160542000Y-70874500I0J250000D01*
G01*
X160542000Y-69949500D01*
G75*
G02*
X160792000Y-69699500I250000J0D01*
G01*
G37*
G04 #@! TD.AperFunction*
G04 #@! TA.AperFunction,SMDPad,CuDef*
G36*
G01*
X153600999Y-66862000D02*
X154501001Y-66862000D01*
G75*
G02*
X154751000Y-67111999I0J-249999D01*
G01*
X154751000Y-67762001D01*
G75*
G02*
X154501001Y-68012000I-249999J0D01*
G01*
X153600999Y-68012000D01*
G75*
G02*
X153351000Y-67762001I0J249999D01*
G01*
X153351000Y-67111999D01*
G75*
G02*
X153600999Y-66862000I249999J0D01*
G01*
G37*
G04 #@! TD.AperFunction*
G04 #@! TA.AperFunction,SMDPad,CuDef*
G36*
G01*
X153600999Y-68912000D02*
X154501001Y-68912000D01*
G75*
G02*
X154751000Y-69161999I0J-249999D01*
G01*
X154751000Y-69812001D01*
G75*
G02*
X154501001Y-70062000I-249999J0D01*
G01*
X153600999Y-70062000D01*
G75*
G02*
X153351000Y-69812001I0J249999D01*
G01*
X153351000Y-69161999D01*
G75*
G02*
X153600999Y-68912000I249999J0D01*
G01*
G37*
G04 #@! TD.AperFunction*
G04 #@! TA.AperFunction,SMDPad,CuDef*
G36*
G01*
X115674000Y-67096000D02*
X115974000Y-67096000D01*
G75*
G02*
X116124000Y-67246000I0J-150000D01*
G01*
X116124000Y-68996000D01*
G75*
G02*
X115974000Y-69146000I-150000J0D01*
G01*
X115674000Y-69146000D01*
G75*
G02*
X115524000Y-68996000I0J150000D01*
G01*
X115524000Y-67246000D01*
G75*
G02*
X115674000Y-67096000I150000J0D01*
G01*
G37*
G04 #@! TD.AperFunction*
G04 #@! TA.AperFunction,SMDPad,CuDef*
G36*
G01*
X114404000Y-67096000D02*
X114704000Y-67096000D01*
G75*
G02*
X114854000Y-67246000I0J-150000D01*
G01*
X114854000Y-68996000D01*
G75*
G02*
X114704000Y-69146000I-150000J0D01*
G01*
X114404000Y-69146000D01*
G75*
G02*
X114254000Y-68996000I0J150000D01*
G01*
X114254000Y-67246000D01*
G75*
G02*
X114404000Y-67096000I150000J0D01*
G01*
G37*
G04 #@! TD.AperFunction*
G04 #@! TA.AperFunction,SMDPad,CuDef*
G36*
G01*
X113134000Y-67096000D02*
X113434000Y-67096000D01*
G75*
G02*
X113584000Y-67246000I0J-150000D01*
G01*
X113584000Y-68996000D01*
G75*
G02*
X113434000Y-69146000I-150000J0D01*
G01*
X113134000Y-69146000D01*
G75*
G02*
X112984000Y-68996000I0J150000D01*
G01*
X112984000Y-67246000D01*
G75*
G02*
X113134000Y-67096000I150000J0D01*
G01*
G37*
G04 #@! TD.AperFunction*
G04 #@! TA.AperFunction,SMDPad,CuDef*
G36*
G01*
X111864000Y-67096000D02*
X112164000Y-67096000D01*
G75*
G02*
X112314000Y-67246000I0J-150000D01*
G01*
X112314000Y-68996000D01*
G75*
G02*
X112164000Y-69146000I-150000J0D01*
G01*
X111864000Y-69146000D01*
G75*
G02*
X111714000Y-68996000I0J150000D01*
G01*
X111714000Y-67246000D01*
G75*
G02*
X111864000Y-67096000I150000J0D01*
G01*
G37*
G04 #@! TD.AperFunction*
G04 #@! TA.AperFunction,SMDPad,CuDef*
G36*
G01*
X110594000Y-67096000D02*
X110894000Y-67096000D01*
G75*
G02*
X111044000Y-67246000I0J-150000D01*
G01*
X111044000Y-68996000D01*
G75*
G02*
X110894000Y-69146000I-150000J0D01*
G01*
X110594000Y-69146000D01*
G75*
G02*
X110444000Y-68996000I0J150000D01*
G01*
X110444000Y-67246000D01*
G75*
G02*
X110594000Y-67096000I150000J0D01*
G01*
G37*
G04 #@! TD.AperFunction*
G04 #@! TA.AperFunction,SMDPad,CuDef*
G36*
G01*
X109324000Y-67096000D02*
X109624000Y-67096000D01*
G75*
G02*
X109774000Y-67246000I0J-150000D01*
G01*
X109774000Y-68996000D01*
G75*
G02*
X109624000Y-69146000I-150000J0D01*
G01*
X109324000Y-69146000D01*
G75*
G02*
X109174000Y-68996000I0J150000D01*
G01*
X109174000Y-67246000D01*
G75*
G02*
X109324000Y-67096000I150000J0D01*
G01*
G37*
G04 #@! TD.AperFunction*
G04 #@! TA.AperFunction,SMDPad,CuDef*
G36*
G01*
X108054000Y-67096000D02*
X108354000Y-67096000D01*
G75*
G02*
X108504000Y-67246000I0J-150000D01*
G01*
X108504000Y-68996000D01*
G75*
G02*
X108354000Y-69146000I-150000J0D01*
G01*
X108054000Y-69146000D01*
G75*
G02*
X107904000Y-68996000I0J150000D01*
G01*
X107904000Y-67246000D01*
G75*
G02*
X108054000Y-67096000I150000J0D01*
G01*
G37*
G04 #@! TD.AperFunction*
G04 #@! TA.AperFunction,SMDPad,CuDef*
G36*
G01*
X106784000Y-67096000D02*
X107084000Y-67096000D01*
G75*
G02*
X107234000Y-67246000I0J-150000D01*
G01*
X107234000Y-68996000D01*
G75*
G02*
X107084000Y-69146000I-150000J0D01*
G01*
X106784000Y-69146000D01*
G75*
G02*
X106634000Y-68996000I0J150000D01*
G01*
X106634000Y-67246000D01*
G75*
G02*
X106784000Y-67096000I150000J0D01*
G01*
G37*
G04 #@! TD.AperFunction*
G04 #@! TA.AperFunction,SMDPad,CuDef*
G36*
G01*
X106784000Y-76396000D02*
X107084000Y-76396000D01*
G75*
G02*
X107234000Y-76546000I0J-150000D01*
G01*
X107234000Y-78296000D01*
G75*
G02*
X107084000Y-78446000I-150000J0D01*
G01*
X106784000Y-78446000D01*
G75*
G02*
X106634000Y-78296000I0J150000D01*
G01*
X106634000Y-76546000D01*
G75*
G02*
X106784000Y-76396000I150000J0D01*
G01*
G37*
G04 #@! TD.AperFunction*
G04 #@! TA.AperFunction,SMDPad,CuDef*
G36*
G01*
X108054000Y-76396000D02*
X108354000Y-76396000D01*
G75*
G02*
X108504000Y-76546000I0J-150000D01*
G01*
X108504000Y-78296000D01*
G75*
G02*
X108354000Y-78446000I-150000J0D01*
G01*
X108054000Y-78446000D01*
G75*
G02*
X107904000Y-78296000I0J150000D01*
G01*
X107904000Y-76546000D01*
G75*
G02*
X108054000Y-76396000I150000J0D01*
G01*
G37*
G04 #@! TD.AperFunction*
G04 #@! TA.AperFunction,SMDPad,CuDef*
G36*
G01*
X109324000Y-76396000D02*
X109624000Y-76396000D01*
G75*
G02*
X109774000Y-76546000I0J-150000D01*
G01*
X109774000Y-78296000D01*
G75*
G02*
X109624000Y-78446000I-150000J0D01*
G01*
X109324000Y-78446000D01*
G75*
G02*
X109174000Y-78296000I0J150000D01*
G01*
X109174000Y-76546000D01*
G75*
G02*
X109324000Y-76396000I150000J0D01*
G01*
G37*
G04 #@! TD.AperFunction*
G04 #@! TA.AperFunction,SMDPad,CuDef*
G36*
G01*
X110594000Y-76396000D02*
X110894000Y-76396000D01*
G75*
G02*
X111044000Y-76546000I0J-150000D01*
G01*
X111044000Y-78296000D01*
G75*
G02*
X110894000Y-78446000I-150000J0D01*
G01*
X110594000Y-78446000D01*
G75*
G02*
X110444000Y-78296000I0J150000D01*
G01*
X110444000Y-76546000D01*
G75*
G02*
X110594000Y-76396000I150000J0D01*
G01*
G37*
G04 #@! TD.AperFunction*
G04 #@! TA.AperFunction,SMDPad,CuDef*
G36*
G01*
X111864000Y-76396000D02*
X112164000Y-76396000D01*
G75*
G02*
X112314000Y-76546000I0J-150000D01*
G01*
X112314000Y-78296000D01*
G75*
G02*
X112164000Y-78446000I-150000J0D01*
G01*
X111864000Y-78446000D01*
G75*
G02*
X111714000Y-78296000I0J150000D01*
G01*
X111714000Y-76546000D01*
G75*
G02*
X111864000Y-76396000I150000J0D01*
G01*
G37*
G04 #@! TD.AperFunction*
G04 #@! TA.AperFunction,SMDPad,CuDef*
G36*
G01*
X113134000Y-76396000D02*
X113434000Y-76396000D01*
G75*
G02*
X113584000Y-76546000I0J-150000D01*
G01*
X113584000Y-78296000D01*
G75*
G02*
X113434000Y-78446000I-150000J0D01*
G01*
X113134000Y-78446000D01*
G75*
G02*
X112984000Y-78296000I0J150000D01*
G01*
X112984000Y-76546000D01*
G75*
G02*
X113134000Y-76396000I150000J0D01*
G01*
G37*
G04 #@! TD.AperFunction*
G04 #@! TA.AperFunction,SMDPad,CuDef*
G36*
G01*
X114404000Y-76396000D02*
X114704000Y-76396000D01*
G75*
G02*
X114854000Y-76546000I0J-150000D01*
G01*
X114854000Y-78296000D01*
G75*
G02*
X114704000Y-78446000I-150000J0D01*
G01*
X114404000Y-78446000D01*
G75*
G02*
X114254000Y-78296000I0J150000D01*
G01*
X114254000Y-76546000D01*
G75*
G02*
X114404000Y-76396000I150000J0D01*
G01*
G37*
G04 #@! TD.AperFunction*
G04 #@! TA.AperFunction,SMDPad,CuDef*
G36*
G01*
X115674000Y-76396000D02*
X115974000Y-76396000D01*
G75*
G02*
X116124000Y-76546000I0J-150000D01*
G01*
X116124000Y-78296000D01*
G75*
G02*
X115974000Y-78446000I-150000J0D01*
G01*
X115674000Y-78446000D01*
G75*
G02*
X115524000Y-78296000I0J150000D01*
G01*
X115524000Y-76546000D01*
G75*
G02*
X115674000Y-76396000I150000J0D01*
G01*
G37*
G04 #@! TD.AperFunction*
D18*
X184798000Y-81661000D03*
X193408000Y-86741000D03*
X184798000Y-84201000D03*
X193408000Y-84201000D03*
X184798000Y-86741000D03*
X193408000Y-81661000D03*
G04 #@! TA.AperFunction,SMDPad,CuDef*
G36*
G01*
X165304500Y-81036000D02*
X165304500Y-82286000D01*
G75*
G02*
X165054500Y-82536000I-250000J0D01*
G01*
X164129500Y-82536000D01*
G75*
G02*
X163879500Y-82286000I0J250000D01*
G01*
X163879500Y-81036000D01*
G75*
G02*
X164129500Y-80786000I250000J0D01*
G01*
X165054500Y-80786000D01*
G75*
G02*
X165304500Y-81036000I0J-250000D01*
G01*
G37*
G04 #@! TD.AperFunction*
G04 #@! TA.AperFunction,SMDPad,CuDef*
G36*
G01*
X162329500Y-81036000D02*
X162329500Y-82286000D01*
G75*
G02*
X162079500Y-82536000I-250000J0D01*
G01*
X161154500Y-82536000D01*
G75*
G02*
X160904500Y-82286000I0J250000D01*
G01*
X160904500Y-81036000D01*
G75*
G02*
X161154500Y-80786000I250000J0D01*
G01*
X162079500Y-80786000D01*
G75*
G02*
X162329500Y-81036000I0J-250000D01*
G01*
G37*
G04 #@! TD.AperFunction*
G04 #@! TA.AperFunction,SMDPad,CuDef*
G36*
G01*
X165304500Y-83576000D02*
X165304500Y-84826000D01*
G75*
G02*
X165054500Y-85076000I-250000J0D01*
G01*
X164129500Y-85076000D01*
G75*
G02*
X163879500Y-84826000I0J250000D01*
G01*
X163879500Y-83576000D01*
G75*
G02*
X164129500Y-83326000I250000J0D01*
G01*
X165054500Y-83326000D01*
G75*
G02*
X165304500Y-83576000I0J-250000D01*
G01*
G37*
G04 #@! TD.AperFunction*
G04 #@! TA.AperFunction,SMDPad,CuDef*
G36*
G01*
X162329500Y-83576000D02*
X162329500Y-84826000D01*
G75*
G02*
X162079500Y-85076000I-250000J0D01*
G01*
X161154500Y-85076000D01*
G75*
G02*
X160904500Y-84826000I0J250000D01*
G01*
X160904500Y-83576000D01*
G75*
G02*
X161154500Y-83326000I250000J0D01*
G01*
X162079500Y-83326000D01*
G75*
G02*
X162329500Y-83576000I0J-250000D01*
G01*
G37*
G04 #@! TD.AperFunction*
G04 #@! TA.AperFunction,SMDPad,CuDef*
G36*
G01*
X122469000Y-77734000D02*
X122469000Y-78984000D01*
G75*
G02*
X122219000Y-79234000I-250000J0D01*
G01*
X121294000Y-79234000D01*
G75*
G02*
X121044000Y-78984000I0J250000D01*
G01*
X121044000Y-77734000D01*
G75*
G02*
X121294000Y-77484000I250000J0D01*
G01*
X122219000Y-77484000D01*
G75*
G02*
X122469000Y-77734000I0J-250000D01*
G01*
G37*
G04 #@! TD.AperFunction*
G04 #@! TA.AperFunction,SMDPad,CuDef*
G36*
G01*
X119494000Y-77734000D02*
X119494000Y-78984000D01*
G75*
G02*
X119244000Y-79234000I-250000J0D01*
G01*
X118319000Y-79234000D01*
G75*
G02*
X118069000Y-78984000I0J250000D01*
G01*
X118069000Y-77734000D01*
G75*
G02*
X118319000Y-77484000I250000J0D01*
G01*
X119244000Y-77484000D01*
G75*
G02*
X119494000Y-77734000I0J-250000D01*
G01*
G37*
G04 #@! TD.AperFunction*
G04 #@! TA.AperFunction,SMDPad,CuDef*
G36*
G01*
X122505500Y-80528000D02*
X122505500Y-81778000D01*
G75*
G02*
X122255500Y-82028000I-250000J0D01*
G01*
X121330500Y-82028000D01*
G75*
G02*
X121080500Y-81778000I0J250000D01*
G01*
X121080500Y-80528000D01*
G75*
G02*
X121330500Y-80278000I250000J0D01*
G01*
X122255500Y-80278000D01*
G75*
G02*
X122505500Y-80528000I0J-250000D01*
G01*
G37*
G04 #@! TD.AperFunction*
G04 #@! TA.AperFunction,SMDPad,CuDef*
G36*
G01*
X119530500Y-80528000D02*
X119530500Y-81778000D01*
G75*
G02*
X119280500Y-82028000I-250000J0D01*
G01*
X118355500Y-82028000D01*
G75*
G02*
X118105500Y-81778000I0J250000D01*
G01*
X118105500Y-80528000D01*
G75*
G02*
X118355500Y-80278000I250000J0D01*
G01*
X119280500Y-80278000D01*
G75*
G02*
X119530500Y-80528000I0J-250000D01*
G01*
G37*
G04 #@! TD.AperFunction*
G04 #@! TA.AperFunction,SMDPad,CuDef*
G36*
G01*
X118678000Y-69157001D02*
X118678000Y-68256999D01*
G75*
G02*
X118927999Y-68007000I249999J0D01*
G01*
X119578001Y-68007000D01*
G75*
G02*
X119828000Y-68256999I0J-249999D01*
G01*
X119828000Y-69157001D01*
G75*
G02*
X119578001Y-69407000I-249999J0D01*
G01*
X118927999Y-69407000D01*
G75*
G02*
X118678000Y-69157001I0J249999D01*
G01*
G37*
G04 #@! TD.AperFunction*
G04 #@! TA.AperFunction,SMDPad,CuDef*
G36*
G01*
X120728000Y-69157001D02*
X120728000Y-68256999D01*
G75*
G02*
X120977999Y-68007000I249999J0D01*
G01*
X121628001Y-68007000D01*
G75*
G02*
X121878000Y-68256999I0J-249999D01*
G01*
X121878000Y-69157001D01*
G75*
G02*
X121628001Y-69407000I-249999J0D01*
G01*
X120977999Y-69407000D01*
G75*
G02*
X120728000Y-69157001I0J249999D01*
G01*
G37*
G04 #@! TD.AperFunction*
G04 #@! TA.AperFunction,SMDPad,CuDef*
G36*
G01*
X118082500Y-71897003D02*
X118082500Y-70596997D01*
G75*
G02*
X118332497Y-70347000I249997J0D01*
G01*
X119157503Y-70347000D01*
G75*
G02*
X119407500Y-70596997I0J-249997D01*
G01*
X119407500Y-71897003D01*
G75*
G02*
X119157503Y-72147000I-249997J0D01*
G01*
X118332497Y-72147000D01*
G75*
G02*
X118082500Y-71897003I0J249997D01*
G01*
G37*
G04 #@! TD.AperFunction*
G04 #@! TA.AperFunction,SMDPad,CuDef*
G36*
G01*
X121207500Y-71897003D02*
X121207500Y-70596997D01*
G75*
G02*
X121457497Y-70347000I249997J0D01*
G01*
X122282503Y-70347000D01*
G75*
G02*
X122532500Y-70596997I0J-249997D01*
G01*
X122532500Y-71897003D01*
G75*
G02*
X122282503Y-72147000I-249997J0D01*
G01*
X121457497Y-72147000D01*
G75*
G02*
X121207500Y-71897003I0J249997D01*
G01*
G37*
G04 #@! TD.AperFunction*
D19*
X170688000Y-84201000D03*
X170688000Y-81661000D03*
X161544000Y-90551000D03*
X127635000Y-99949000D03*
X107607998Y-81153000D03*
X120269000Y-74803000D03*
X170688000Y-86741000D03*
X114554000Y-71120000D03*
D20*
X193408000Y-81661000D02*
X193408000Y-86741000D01*
X195199000Y-88532000D02*
X193408000Y-86741000D01*
X195199000Y-94361000D02*
X195199000Y-88532000D01*
X191897000Y-97663000D02*
X195199000Y-94361000D01*
X153797000Y-97663000D02*
X191897000Y-97663000D01*
X151384000Y-95250000D02*
X153797000Y-97663000D01*
X114879010Y-69471010D02*
X114554000Y-69146000D01*
X118488990Y-69471010D02*
X114879010Y-69471010D01*
X114554000Y-69146000D02*
X114554000Y-68121000D01*
X119253000Y-68707000D02*
X118488990Y-69471010D01*
X118999000Y-68961000D02*
X119253000Y-68707000D01*
X118999000Y-70993000D02*
X118999000Y-68961000D01*
X118745000Y-71247000D02*
X118999000Y-70993000D01*
X118745000Y-75347500D02*
X121756500Y-78359000D01*
X118745000Y-71247000D02*
X118745000Y-75347500D01*
X121756500Y-81116500D02*
X121793000Y-81153000D01*
X121756500Y-78359000D02*
X121756500Y-81116500D01*
X134493000Y-78359000D02*
X151384000Y-95250000D01*
X121756500Y-78359000D02*
X134493000Y-78359000D01*
X133223000Y-112866500D02*
X129413000Y-112866500D01*
X151384000Y-95250000D02*
X133767500Y-112866500D01*
X133767500Y-112866500D02*
X133223000Y-112866500D01*
X117184500Y-112866500D02*
X129413000Y-112866500D01*
X115697000Y-111379000D02*
X117184500Y-112866500D01*
X153797000Y-105600000D02*
X153225000Y-106172000D01*
X153797000Y-97663000D02*
X153797000Y-105600000D01*
X184798000Y-84201000D02*
X170688000Y-84201000D01*
X170688000Y-84201000D02*
X164592000Y-84201000D01*
X184798000Y-81661000D02*
X170688000Y-81661000D01*
X170688000Y-81661000D02*
X164592000Y-81661000D01*
X121870000Y-69274000D02*
X121303000Y-68707000D01*
X121870000Y-71247000D02*
X121870000Y-69274000D01*
X106934000Y-68121000D02*
X108204000Y-68121000D01*
X108204000Y-68121000D02*
X110744000Y-68121000D01*
X106934000Y-77421000D02*
X112014000Y-77421000D01*
X154976000Y-70412000D02*
X154051000Y-69487000D01*
X157607000Y-70412000D02*
X154976000Y-70412000D01*
X106934000Y-68121000D02*
X106934000Y-77421000D01*
X161544000Y-81734000D02*
X161617000Y-81661000D01*
X161544000Y-90551000D02*
X161544000Y-81734000D01*
X161617000Y-74422000D02*
X161617000Y-81661000D01*
X157607000Y-70412000D02*
X161617000Y-74422000D01*
X121412000Y-99949000D02*
X111379000Y-89916000D01*
X127635000Y-99949000D02*
X121412000Y-99949000D01*
X107607998Y-81153000D02*
X106934000Y-80479002D01*
X106934000Y-80479002D02*
X106934000Y-77421000D01*
X120269000Y-72848000D02*
X121870000Y-71247000D01*
X120269000Y-74803000D02*
X120269000Y-72848000D01*
X184798000Y-86741000D02*
X170688000Y-86741000D01*
X170688000Y-86741000D02*
X164592000Y-86741000D01*
X160582000Y-70412000D02*
X157607000Y-67437000D01*
X161417000Y-70412000D02*
X160582000Y-70412000D01*
X157607000Y-67437000D02*
X154051000Y-67437000D01*
X152527000Y-73533000D02*
X153924000Y-74930000D01*
X152527000Y-68961000D02*
X152527000Y-73533000D01*
X154051000Y-67437000D02*
X152527000Y-68961000D01*
X113284000Y-68121000D02*
X113284000Y-69850000D01*
X113284000Y-69850000D02*
X114554000Y-71120000D01*
X114554000Y-71120000D02*
X114554000Y-71120000D01*
X113284000Y-80111000D02*
X113284000Y-77421000D01*
X103479000Y-89916000D02*
X113284000Y-80111000D01*
X113284000Y-80187500D02*
X113284000Y-80111000D01*
X119279000Y-86182500D02*
X113284000Y-80187500D01*
X119279000Y-89916000D02*
X119279000Y-86182500D01*
X112014000Y-67096000D02*
X112014000Y-68121000D01*
X112689000Y-66421000D02*
X112014000Y-67096000D01*
X131064000Y-66421000D02*
X112689000Y-66421000D01*
X132969000Y-68326000D02*
X131064000Y-66421000D01*
X117261000Y-81153000D02*
X118818000Y-81153000D01*
X114554000Y-78446000D02*
X117261000Y-81153000D01*
X114554000Y-77421000D02*
X114554000Y-78446000D01*
X126111000Y-85217000D02*
X136144000Y-95250000D01*
X122007000Y-85217000D02*
X126111000Y-85217000D01*
X118818000Y-82028000D02*
X122007000Y-85217000D01*
X118818000Y-81153000D02*
X118818000Y-82028000D01*
X136144000Y-95250000D02*
X136144000Y-103160500D01*
X136144000Y-103160500D02*
X129413000Y-109891500D01*
X119724500Y-109891500D02*
X129413000Y-109891500D01*
X118237000Y-111379000D02*
X119724500Y-109891500D01*
X116762000Y-78359000D02*
X118781500Y-78359000D01*
X115824000Y-77421000D02*
X116762000Y-78359000D01*
X122301000Y-84455000D02*
X127889000Y-84455000D01*
X120269000Y-82423000D02*
X122301000Y-84455000D01*
X127889000Y-84455000D02*
X138684000Y-95250000D01*
X120269000Y-79134000D02*
X120269000Y-82423000D01*
X119494000Y-78359000D02*
X120269000Y-79134000D01*
X118781500Y-78359000D02*
X119494000Y-78359000D01*
X123317000Y-111379000D02*
X131735500Y-111379000D01*
X131735500Y-111379000D02*
X133223000Y-109891500D01*
X138684000Y-104430500D02*
X138684000Y-95250000D01*
X133223000Y-109891500D02*
X138684000Y-104430500D01*
X189167000Y-81725000D02*
X189167000Y-93345000D01*
X175768000Y-68326000D02*
X189167000Y-81725000D01*
X168529000Y-68326000D02*
X175768000Y-68326000D01*
X163957000Y-69977000D02*
X161417000Y-67437000D01*
X166878000Y-69977000D02*
X163957000Y-69977000D01*
X168529000Y-68326000D02*
X166878000Y-69977000D01*
X101981000Y-84849000D02*
X96264000Y-90566000D01*
X101981000Y-68961000D02*
X101981000Y-84849000D01*
X105283000Y-65659000D02*
X101981000Y-68961000D01*
X163322000Y-65659000D02*
X105283000Y-65659000D01*
X165989000Y-68326000D02*
X163322000Y-65659000D01*
X100965000Y-83325000D02*
X96264000Y-88026000D01*
X100965000Y-68707000D02*
X100965000Y-83325000D01*
X104775000Y-64897000D02*
X100965000Y-68707000D01*
X173609000Y-64897000D02*
X104775000Y-64897000D01*
X190119000Y-81407000D02*
X173609000Y-64897000D01*
X190119000Y-90297000D02*
X190119000Y-81407000D01*
X193167000Y-93345000D02*
X190119000Y-90297000D01*
X116762000Y-67183000D02*
X115824000Y-68121000D01*
X128397000Y-67183000D02*
X116762000Y-67183000D01*
X131191000Y-69977000D02*
X128397000Y-67183000D01*
X133985000Y-69977000D02*
X131191000Y-69977000D01*
X135509000Y-68453000D02*
X133985000Y-69977000D01*
X135509000Y-68326000D02*
X135509000Y-68453000D01*
M02*
