G04 #@! TF.GenerationSoftware,KiCad,Pcbnew,(5.1.10)-1*
G04 #@! TF.CreationDate,2021-12-13T23:40:35+01:00*
G04 #@! TF.ProjectId,BikeCounter,42696b65-436f-4756-9e74-65722e6b6963,rev?*
G04 #@! TF.SameCoordinates,Original*
G04 #@! TF.FileFunction,Copper,L2,Bot*
G04 #@! TF.FilePolarity,Positive*
%FSLAX46Y46*%
G04 Gerber Fmt 4.6, Leading zero omitted, Abs format (unit mm)*
G04 Created by KiCad (PCBNEW (5.1.10)-1) date 2021-12-13 23:40:35*
%MOMM*%
%LPD*%
G01*
G04 APERTURE LIST*
G04 #@! TA.AperFunction,ComponentPad*
%ADD10C,7.000000*%
G04 #@! TD*
G04 #@! TA.AperFunction,ComponentPad*
%ADD11O,1.700000X1.700000*%
G04 #@! TD*
G04 #@! TA.AperFunction,ComponentPad*
%ADD12R,1.700000X1.700000*%
G04 #@! TD*
G04 #@! TA.AperFunction,ComponentPad*
%ADD13R,1.350000X1.350000*%
G04 #@! TD*
G04 #@! TA.AperFunction,ComponentPad*
%ADD14O,1.350000X1.350000*%
G04 #@! TD*
G04 #@! TA.AperFunction,ComponentPad*
%ADD15C,1.800000*%
G04 #@! TD*
G04 #@! TA.AperFunction,ViaPad*
%ADD16C,0.800000*%
G04 #@! TD*
G04 #@! TA.AperFunction,Conductor*
%ADD17C,0.250000*%
G04 #@! TD*
G04 APERTURE END LIST*
D10*
X191264000Y-75026000D03*
X191264000Y-103026000D03*
X96264000Y-103026000D03*
X96264000Y-75026000D03*
D11*
X156464000Y-95250000D03*
X151384000Y-95250000D03*
X136144000Y-95250000D03*
X153924000Y-95250000D03*
X131064000Y-95250000D03*
X128524000Y-95250000D03*
X148844000Y-95250000D03*
X123444000Y-95250000D03*
X125984000Y-95250000D03*
X138684000Y-95250000D03*
X141224000Y-95250000D03*
X143764000Y-95250000D03*
X146304000Y-95250000D03*
X133604000Y-95250000D03*
D12*
X156464000Y-74930000D03*
D11*
X133604000Y-74930000D03*
X146304000Y-74930000D03*
X128524000Y-74930000D03*
X131064000Y-74930000D03*
X153924000Y-74930000D03*
X136144000Y-74930000D03*
X143764000Y-74930000D03*
X125984000Y-74930000D03*
X123444000Y-74930000D03*
X148844000Y-74930000D03*
X151384000Y-74930000D03*
X141224000Y-74930000D03*
X138684000Y-74930000D03*
D13*
X149225000Y-106172000D03*
D14*
X151225000Y-106172000D03*
X153225000Y-106172000D03*
X155225000Y-106172000D03*
D11*
X132969000Y-68326000D03*
D12*
X135509000Y-68326000D03*
D15*
X185167000Y-93345000D03*
X189167000Y-93345000D03*
X193167000Y-93345000D03*
D11*
X165989000Y-68326000D03*
D12*
X168529000Y-68326000D03*
D11*
X96264000Y-90566000D03*
D12*
X96264000Y-88026000D03*
X115697000Y-111379000D03*
D11*
X118237000Y-111379000D03*
X120777000Y-111379000D03*
X123317000Y-111379000D03*
D16*
X170688000Y-84201000D03*
X170688000Y-81661000D03*
X161544000Y-90551000D03*
X127635000Y-99949000D03*
X107607998Y-81153000D03*
X120269000Y-74803000D03*
X170688000Y-86741000D03*
X114554000Y-71120000D03*
D17*
X142113000Y-84201000D02*
X131064000Y-95250000D01*
X170688000Y-84201000D02*
X142113000Y-84201000D01*
X142113000Y-81661000D02*
X128524000Y-95250000D01*
X170688000Y-81661000D02*
X142113000Y-81661000D01*
X120777000Y-106807000D02*
X120777000Y-111379000D01*
X127635000Y-99949000D02*
X127635000Y-99949000D01*
X144145000Y-99949000D02*
X127635000Y-99949000D01*
X148844000Y-95250000D02*
X144145000Y-99949000D01*
X159258000Y-92837000D02*
X161544000Y-90551000D01*
X151257000Y-92837000D02*
X159258000Y-92837000D01*
X148844000Y-95250000D02*
X151257000Y-92837000D01*
X161544000Y-90551000D02*
X161544000Y-90551000D01*
X127635000Y-99949000D02*
X120777000Y-106807000D01*
X127635000Y-99949000D02*
X126403998Y-99949000D01*
X107607998Y-81153000D02*
X107607998Y-81153000D01*
X115716499Y-89261501D02*
X115716499Y-79355501D01*
X126403998Y-99949000D02*
X115716499Y-89261501D01*
X115716499Y-89261501D02*
X107607998Y-81153000D01*
X115716499Y-79355501D02*
X120269000Y-74803000D01*
X120269000Y-74803000D02*
X120269000Y-74803000D01*
X155225000Y-105949000D02*
X155225000Y-106172000D01*
X148844000Y-99568000D02*
X155225000Y-105949000D01*
X148844000Y-95250000D02*
X148844000Y-99568000D01*
X142113000Y-86741000D02*
X133604000Y-95250000D01*
X170688000Y-86741000D02*
X142113000Y-86741000D01*
X170561000Y-78105000D02*
X136779000Y-78105000D01*
X174879000Y-82423000D02*
X170561000Y-78105000D01*
X174879000Y-97028000D02*
X174879000Y-82423000D01*
X161671000Y-110236000D02*
X174879000Y-97028000D01*
X151892000Y-110236000D02*
X161671000Y-110236000D01*
X149225000Y-107569000D02*
X151892000Y-110236000D01*
X136779000Y-78105000D02*
X133604000Y-74930000D01*
X149225000Y-106172000D02*
X149225000Y-107569000D01*
X132334000Y-71120000D02*
X136144000Y-74930000D01*
X114554000Y-71120000D02*
X132334000Y-71120000D01*
M02*
