G04 #@! TF.GenerationSoftware,KiCad,Pcbnew,(5.1.10)-1*
G04 #@! TF.CreationDate,2021-12-13T23:40:35+01:00*
G04 #@! TF.ProjectId,BikeCounter,42696b65-436f-4756-9e74-65722e6b6963,rev?*
G04 #@! TF.SameCoordinates,Original*
G04 #@! TF.FileFunction,Legend,Bot*
G04 #@! TF.FilePolarity,Positive*
%FSLAX46Y46*%
G04 Gerber Fmt 4.6, Leading zero omitted, Abs format (unit mm)*
G04 Created by KiCad (PCBNEW (5.1.10)-1) date 2021-12-13 23:40:35*
%MOMM*%
%LPD*%
G01*
G04 APERTURE LIST*
%ADD10C,0.010000*%
%ADD11C,7.000000*%
%ADD12O,1.700000X1.700000*%
%ADD13R,1.700000X1.700000*%
%ADD14R,1.350000X1.350000*%
%ADD15O,1.350000X1.350000*%
%ADD16C,1.400000*%
%ADD17C,1.800000*%
G04 APERTURE END LIST*
D10*
G36*
X128981159Y-81364374D02*
G01*
X128905000Y-81417040D01*
X128780882Y-81525672D01*
X128718278Y-81613568D01*
X128716395Y-81625316D01*
X128756974Y-81705575D01*
X128860288Y-81844948D01*
X128973494Y-81978500D01*
X129228698Y-82264250D01*
X129062631Y-81924661D01*
X128972534Y-81730653D01*
X128937272Y-81612527D01*
X128951518Y-81534319D01*
X128996032Y-81475161D01*
X129084775Y-81358580D01*
X129077302Y-81320045D01*
X128981159Y-81364374D01*
G37*
X128981159Y-81364374D02*
X128905000Y-81417040D01*
X128780882Y-81525672D01*
X128718278Y-81613568D01*
X128716395Y-81625316D01*
X128756974Y-81705575D01*
X128860288Y-81844948D01*
X128973494Y-81978500D01*
X129228698Y-82264250D01*
X129062631Y-81924661D01*
X128972534Y-81730653D01*
X128937272Y-81612527D01*
X128951518Y-81534319D01*
X128996032Y-81475161D01*
X129084775Y-81358580D01*
X129077302Y-81320045D01*
X128981159Y-81364374D01*
G36*
X126601792Y-81083596D02*
G01*
X126490385Y-81213180D01*
X126444375Y-81278410D01*
X126346279Y-81491896D01*
X126303268Y-81732395D01*
X126321442Y-81947263D01*
X126357118Y-82031419D01*
X126397594Y-82037246D01*
X126431112Y-81917856D01*
X126443252Y-81828092D01*
X126495677Y-81577234D01*
X126583829Y-81324332D01*
X126604452Y-81279890D01*
X126670141Y-81117055D01*
X126665482Y-81051589D01*
X126601792Y-81083596D01*
G37*
X126601792Y-81083596D02*
X126490385Y-81213180D01*
X126444375Y-81278410D01*
X126346279Y-81491896D01*
X126303268Y-81732395D01*
X126321442Y-81947263D01*
X126357118Y-82031419D01*
X126397594Y-82037246D01*
X126431112Y-81917856D01*
X126443252Y-81828092D01*
X126495677Y-81577234D01*
X126583829Y-81324332D01*
X126604452Y-81279890D01*
X126670141Y-81117055D01*
X126665482Y-81051589D01*
X126601792Y-81083596D01*
G36*
X139015842Y-83323062D02*
G01*
X139014201Y-83324699D01*
X138948739Y-83443680D01*
X138957431Y-83611085D01*
X139043050Y-83847451D01*
X139101265Y-83969528D01*
X139222760Y-84202500D01*
X139296444Y-84320241D01*
X139321581Y-84322423D01*
X139297432Y-84208720D01*
X139241236Y-84031446D01*
X139170058Y-83761753D01*
X139145032Y-83529807D01*
X139150400Y-83455652D01*
X139159255Y-83297218D01*
X139114823Y-83253426D01*
X139015842Y-83323062D01*
G37*
X139015842Y-83323062D02*
X139014201Y-83324699D01*
X138948739Y-83443680D01*
X138957431Y-83611085D01*
X139043050Y-83847451D01*
X139101265Y-83969528D01*
X139222760Y-84202500D01*
X139296444Y-84320241D01*
X139321581Y-84322423D01*
X139297432Y-84208720D01*
X139241236Y-84031446D01*
X139170058Y-83761753D01*
X139145032Y-83529807D01*
X139150400Y-83455652D01*
X139159255Y-83297218D01*
X139114823Y-83253426D01*
X139015842Y-83323062D01*
G36*
X134400769Y-83611695D02*
G01*
X134366658Y-83629148D01*
X134245252Y-83734579D01*
X134150036Y-83871344D01*
X134059758Y-84045923D01*
X134514504Y-84286695D01*
X134728347Y-84395021D01*
X134836467Y-84437708D01*
X134837821Y-84414397D01*
X134810500Y-84388489D01*
X134644337Y-84247963D01*
X134466910Y-84104525D01*
X134466120Y-84103906D01*
X134347819Y-84002670D01*
X134318386Y-83927827D01*
X134365005Y-83829682D01*
X134386745Y-83796134D01*
X134473695Y-83648951D01*
X134478739Y-83590541D01*
X134400769Y-83611695D01*
G37*
X134400769Y-83611695D02*
X134366658Y-83629148D01*
X134245252Y-83734579D01*
X134150036Y-83871344D01*
X134059758Y-84045923D01*
X134514504Y-84286695D01*
X134728347Y-84395021D01*
X134836467Y-84437708D01*
X134837821Y-84414397D01*
X134810500Y-84388489D01*
X134644337Y-84247963D01*
X134466910Y-84104525D01*
X134466120Y-84103906D01*
X134347819Y-84002670D01*
X134318386Y-83927827D01*
X134365005Y-83829682D01*
X134386745Y-83796134D01*
X134473695Y-83648951D01*
X134478739Y-83590541D01*
X134400769Y-83611695D01*
G36*
X124302478Y-83828583D02*
G01*
X124206000Y-83915250D01*
X124085928Y-84050570D01*
X124019902Y-84164408D01*
X124015500Y-84187867D01*
X124053486Y-84285591D01*
X124153595Y-84448714D01*
X124295052Y-84646420D01*
X124457085Y-84847896D01*
X124472499Y-84865774D01*
X124477604Y-84844083D01*
X124441152Y-84729451D01*
X124370914Y-84545965D01*
X124362838Y-84526002D01*
X124278210Y-84308273D01*
X124240676Y-84170244D01*
X124245959Y-84075469D01*
X124289783Y-83987500D01*
X124298139Y-83974587D01*
X124381668Y-83829795D01*
X124382274Y-83780586D01*
X124302478Y-83828583D01*
G37*
X124302478Y-83828583D02*
X124206000Y-83915250D01*
X124085928Y-84050570D01*
X124019902Y-84164408D01*
X124015500Y-84187867D01*
X124053486Y-84285591D01*
X124153595Y-84448714D01*
X124295052Y-84646420D01*
X124457085Y-84847896D01*
X124472499Y-84865774D01*
X124477604Y-84844083D01*
X124441152Y-84729451D01*
X124370914Y-84545965D01*
X124362838Y-84526002D01*
X124278210Y-84308273D01*
X124240676Y-84170244D01*
X124245959Y-84075469D01*
X124289783Y-83987500D01*
X124298139Y-83974587D01*
X124381668Y-83829795D01*
X124382274Y-83780586D01*
X124302478Y-83828583D01*
G36*
X137753683Y-81180978D02*
G01*
X137374495Y-81237720D01*
X136993227Y-81338782D01*
X136649092Y-81470874D01*
X136381301Y-81620705D01*
X136323199Y-81665852D01*
X136209944Y-81763913D01*
X136159670Y-81817202D01*
X136184824Y-81825255D01*
X136297858Y-81787609D01*
X136511218Y-81703799D01*
X136634953Y-81654236D01*
X136931820Y-81541847D01*
X137278547Y-81420165D01*
X137602805Y-81314525D01*
X137619203Y-81309484D01*
X138144250Y-81148722D01*
X137753683Y-81180978D01*
G37*
X137753683Y-81180978D02*
X137374495Y-81237720D01*
X136993227Y-81338782D01*
X136649092Y-81470874D01*
X136381301Y-81620705D01*
X136323199Y-81665852D01*
X136209944Y-81763913D01*
X136159670Y-81817202D01*
X136184824Y-81825255D01*
X136297858Y-81787609D01*
X136511218Y-81703799D01*
X136634953Y-81654236D01*
X136931820Y-81541847D01*
X137278547Y-81420165D01*
X137602805Y-81314525D01*
X137619203Y-81309484D01*
X138144250Y-81148722D01*
X137753683Y-81180978D01*
G36*
X153485318Y-79820426D02*
G01*
X153307240Y-79843037D01*
X153208962Y-79899483D01*
X153174857Y-80004067D01*
X153189301Y-80171090D01*
X153236667Y-80414854D01*
X153276185Y-80613250D01*
X153385596Y-81184750D01*
X154385048Y-81202237D01*
X154725074Y-81206435D01*
X155015466Y-81206681D01*
X155234805Y-81203224D01*
X155361672Y-81196316D01*
X155384500Y-81190513D01*
X155372743Y-81118228D01*
X155341851Y-80956032D01*
X155298398Y-80738388D01*
X155296392Y-80728526D01*
X155244058Y-80466560D01*
X155195975Y-80217605D01*
X155186271Y-80164908D01*
X154326825Y-80164908D01*
X154312688Y-80176064D01*
X154273250Y-80180475D01*
X154014456Y-80208804D01*
X153854707Y-80247805D01*
X153766095Y-80311504D01*
X153720711Y-80413925D01*
X153709412Y-80463818D01*
X153674677Y-80601969D01*
X153644723Y-80624400D01*
X153614110Y-80527146D01*
X153587731Y-80375125D01*
X153550985Y-80137000D01*
X154039118Y-80147674D01*
X154231475Y-80154862D01*
X154326825Y-80164908D01*
X155186271Y-80164908D01*
X155166515Y-80057625D01*
X155124746Y-79819500D01*
X154143373Y-79819500D01*
X153758820Y-79817347D01*
X153485318Y-79820426D01*
G37*
X153485318Y-79820426D02*
X153307240Y-79843037D01*
X153208962Y-79899483D01*
X153174857Y-80004067D01*
X153189301Y-80171090D01*
X153236667Y-80414854D01*
X153276185Y-80613250D01*
X153385596Y-81184750D01*
X154385048Y-81202237D01*
X154725074Y-81206435D01*
X155015466Y-81206681D01*
X155234805Y-81203224D01*
X155361672Y-81196316D01*
X155384500Y-81190513D01*
X155372743Y-81118228D01*
X155341851Y-80956032D01*
X155298398Y-80738388D01*
X155296392Y-80728526D01*
X155244058Y-80466560D01*
X155195975Y-80217605D01*
X155186271Y-80164908D01*
X154326825Y-80164908D01*
X154312688Y-80176064D01*
X154273250Y-80180475D01*
X154014456Y-80208804D01*
X153854707Y-80247805D01*
X153766095Y-80311504D01*
X153720711Y-80413925D01*
X153709412Y-80463818D01*
X153674677Y-80601969D01*
X153644723Y-80624400D01*
X153614110Y-80527146D01*
X153587731Y-80375125D01*
X153550985Y-80137000D01*
X154039118Y-80147674D01*
X154231475Y-80154862D01*
X154326825Y-80164908D01*
X155186271Y-80164908D01*
X155166515Y-80057625D01*
X155124746Y-79819500D01*
X154143373Y-79819500D01*
X153758820Y-79817347D01*
X153485318Y-79820426D01*
G36*
X156218452Y-79822965D02*
G01*
X155931790Y-79832527D01*
X155716625Y-79846933D01*
X155594593Y-79864931D01*
X155575000Y-79876207D01*
X155586566Y-79958782D01*
X155617196Y-80133525D01*
X155660791Y-80368124D01*
X155711251Y-80630265D01*
X155762478Y-80887633D01*
X155801027Y-81073625D01*
X155816645Y-81127760D01*
X155849544Y-81166139D01*
X155918942Y-81191469D01*
X156044058Y-81206461D01*
X156244110Y-81213823D01*
X156538317Y-81216266D01*
X156814460Y-81216500D01*
X157151540Y-81213058D01*
X157438796Y-81203561D01*
X157654622Y-81189250D01*
X157777417Y-81171366D01*
X157797500Y-81160014D01*
X157786012Y-81068567D01*
X157756022Y-80888583D01*
X157714247Y-80655998D01*
X157667399Y-80406748D01*
X157622193Y-80176767D01*
X157585345Y-80001992D01*
X157567791Y-79930625D01*
X157543826Y-79888078D01*
X157488515Y-79857915D01*
X157382905Y-79838056D01*
X157208039Y-79826420D01*
X156944963Y-79820929D01*
X156574721Y-79819501D01*
X156554971Y-79819500D01*
X156218452Y-79822965D01*
G37*
X156218452Y-79822965D02*
X155931790Y-79832527D01*
X155716625Y-79846933D01*
X155594593Y-79864931D01*
X155575000Y-79876207D01*
X155586566Y-79958782D01*
X155617196Y-80133525D01*
X155660791Y-80368124D01*
X155711251Y-80630265D01*
X155762478Y-80887633D01*
X155801027Y-81073625D01*
X155816645Y-81127760D01*
X155849544Y-81166139D01*
X155918942Y-81191469D01*
X156044058Y-81206461D01*
X156244110Y-81213823D01*
X156538317Y-81216266D01*
X156814460Y-81216500D01*
X157151540Y-81213058D01*
X157438796Y-81203561D01*
X157654622Y-81189250D01*
X157777417Y-81171366D01*
X157797500Y-81160014D01*
X157786012Y-81068567D01*
X157756022Y-80888583D01*
X157714247Y-80655998D01*
X157667399Y-80406748D01*
X157622193Y-80176767D01*
X157585345Y-80001992D01*
X157567791Y-79930625D01*
X157543826Y-79888078D01*
X157488515Y-79857915D01*
X157382905Y-79838056D01*
X157208039Y-79826420D01*
X156944963Y-79820929D01*
X156574721Y-79819501D01*
X156554971Y-79819500D01*
X156218452Y-79822965D01*
G36*
X149843050Y-81577017D02*
G01*
X149327195Y-81639954D01*
X148884291Y-81738716D01*
X148497304Y-81876178D01*
X148149200Y-82055215D01*
X148148099Y-82055876D01*
X147769418Y-82339205D01*
X147496665Y-82675867D01*
X147323369Y-83078160D01*
X147243059Y-83558379D01*
X147235501Y-83789963D01*
X147290104Y-84355882D01*
X147450416Y-84855332D01*
X147712277Y-85282572D01*
X148071528Y-85631858D01*
X148524011Y-85897451D01*
X148849019Y-86017410D01*
X149062530Y-86089440D01*
X149170918Y-86150403D01*
X149193886Y-86212618D01*
X149188624Y-86229728D01*
X149122334Y-86397012D01*
X149027811Y-86642485D01*
X148912574Y-86945929D01*
X148784140Y-87287126D01*
X148650025Y-87645858D01*
X148517748Y-88001908D01*
X148394825Y-88335058D01*
X148288774Y-88625089D01*
X148207112Y-88851785D01*
X148157357Y-88994928D01*
X148145500Y-89035190D01*
X148205827Y-89052013D01*
X148374124Y-89066775D01*
X148631367Y-89078647D01*
X148958533Y-89086798D01*
X149336598Y-89090398D01*
X149413459Y-89090500D01*
X150681418Y-89090500D01*
X150841041Y-88566625D01*
X150923279Y-88295371D01*
X151028056Y-87947820D01*
X151141701Y-87569401D01*
X151247054Y-87217250D01*
X151348124Y-86884223D01*
X151424263Y-86653968D01*
X151484898Y-86506991D01*
X151539455Y-86423799D01*
X151597361Y-86384899D01*
X151655700Y-86372165D01*
X151711073Y-86364512D01*
X151754410Y-86366790D01*
X151790444Y-86394053D01*
X151823906Y-86461357D01*
X151859530Y-86583756D01*
X151902047Y-86776304D01*
X151956190Y-87054058D01*
X152026693Y-87432071D01*
X152081040Y-87725250D01*
X152141758Y-88049495D01*
X152201843Y-88365678D01*
X152252948Y-88630100D01*
X152278125Y-88757125D01*
X152345505Y-89090500D01*
X154832055Y-89090500D01*
X154584403Y-88910003D01*
X154132091Y-88520967D01*
X153765029Y-88068693D01*
X153468380Y-87532450D01*
X153302799Y-87119186D01*
X153243598Y-86939842D01*
X153183199Y-86730880D01*
X153119263Y-86481161D01*
X153049452Y-86179546D01*
X152971427Y-85814894D01*
X152882848Y-85376066D01*
X152781377Y-84851923D01*
X152664675Y-84231324D01*
X152530402Y-83503131D01*
X152443399Y-83026250D01*
X152260210Y-82019103D01*
X149355485Y-82019103D01*
X149258246Y-82083476D01*
X149163293Y-82139478D01*
X148798575Y-82385657D01*
X148449140Y-82682476D01*
X148154240Y-82994248D01*
X148010890Y-83187245D01*
X147898512Y-83349956D01*
X147813541Y-83453255D01*
X147779130Y-83474796D01*
X147781872Y-83404304D01*
X147818698Y-83253326D01*
X147856120Y-83132431D01*
X147965182Y-82893796D01*
X148116143Y-82665016D01*
X148177459Y-82594423D01*
X148407693Y-82407300D01*
X148710809Y-82227734D01*
X149034356Y-82083804D01*
X149256750Y-82016604D01*
X149352491Y-82000094D01*
X149355485Y-82019103D01*
X152260210Y-82019103D01*
X152177750Y-81565750D01*
X151161750Y-81547112D01*
X150448891Y-81547028D01*
X149843050Y-81577017D01*
G37*
X149843050Y-81577017D02*
X149327195Y-81639954D01*
X148884291Y-81738716D01*
X148497304Y-81876178D01*
X148149200Y-82055215D01*
X148148099Y-82055876D01*
X147769418Y-82339205D01*
X147496665Y-82675867D01*
X147323369Y-83078160D01*
X147243059Y-83558379D01*
X147235501Y-83789963D01*
X147290104Y-84355882D01*
X147450416Y-84855332D01*
X147712277Y-85282572D01*
X148071528Y-85631858D01*
X148524011Y-85897451D01*
X148849019Y-86017410D01*
X149062530Y-86089440D01*
X149170918Y-86150403D01*
X149193886Y-86212618D01*
X149188624Y-86229728D01*
X149122334Y-86397012D01*
X149027811Y-86642485D01*
X148912574Y-86945929D01*
X148784140Y-87287126D01*
X148650025Y-87645858D01*
X148517748Y-88001908D01*
X148394825Y-88335058D01*
X148288774Y-88625089D01*
X148207112Y-88851785D01*
X148157357Y-88994928D01*
X148145500Y-89035190D01*
X148205827Y-89052013D01*
X148374124Y-89066775D01*
X148631367Y-89078647D01*
X148958533Y-89086798D01*
X149336598Y-89090398D01*
X149413459Y-89090500D01*
X150681418Y-89090500D01*
X150841041Y-88566625D01*
X150923279Y-88295371D01*
X151028056Y-87947820D01*
X151141701Y-87569401D01*
X151247054Y-87217250D01*
X151348124Y-86884223D01*
X151424263Y-86653968D01*
X151484898Y-86506991D01*
X151539455Y-86423799D01*
X151597361Y-86384899D01*
X151655700Y-86372165D01*
X151711073Y-86364512D01*
X151754410Y-86366790D01*
X151790444Y-86394053D01*
X151823906Y-86461357D01*
X151859530Y-86583756D01*
X151902047Y-86776304D01*
X151956190Y-87054058D01*
X152026693Y-87432071D01*
X152081040Y-87725250D01*
X152141758Y-88049495D01*
X152201843Y-88365678D01*
X152252948Y-88630100D01*
X152278125Y-88757125D01*
X152345505Y-89090500D01*
X154832055Y-89090500D01*
X154584403Y-88910003D01*
X154132091Y-88520967D01*
X153765029Y-88068693D01*
X153468380Y-87532450D01*
X153302799Y-87119186D01*
X153243598Y-86939842D01*
X153183199Y-86730880D01*
X153119263Y-86481161D01*
X153049452Y-86179546D01*
X152971427Y-85814894D01*
X152882848Y-85376066D01*
X152781377Y-84851923D01*
X152664675Y-84231324D01*
X152530402Y-83503131D01*
X152443399Y-83026250D01*
X152260210Y-82019103D01*
X149355485Y-82019103D01*
X149258246Y-82083476D01*
X149163293Y-82139478D01*
X148798575Y-82385657D01*
X148449140Y-82682476D01*
X148154240Y-82994248D01*
X148010890Y-83187245D01*
X147898512Y-83349956D01*
X147813541Y-83453255D01*
X147779130Y-83474796D01*
X147781872Y-83404304D01*
X147818698Y-83253326D01*
X147856120Y-83132431D01*
X147965182Y-82893796D01*
X148116143Y-82665016D01*
X148177459Y-82594423D01*
X148407693Y-82407300D01*
X148710809Y-82227734D01*
X149034356Y-82083804D01*
X149256750Y-82016604D01*
X149352491Y-82000094D01*
X149355485Y-82019103D01*
X152260210Y-82019103D01*
X152177750Y-81565750D01*
X151161750Y-81547112D01*
X150448891Y-81547028D01*
X149843050Y-81577017D01*
G36*
X161783134Y-81545919D02*
G01*
X161157133Y-81547956D01*
X160854351Y-81549313D01*
X157477657Y-81565750D01*
X159479079Y-84277116D01*
X159860054Y-84793913D01*
X160217283Y-85279821D01*
X160543817Y-85725294D01*
X160832703Y-86120786D01*
X161076990Y-86456749D01*
X161269728Y-86723638D01*
X161403966Y-86911907D01*
X161472751Y-87012008D01*
X161480500Y-87025791D01*
X161420115Y-87036643D01*
X161251398Y-87045646D01*
X160993012Y-87052360D01*
X160663618Y-87056347D01*
X160281877Y-87057170D01*
X160162875Y-87056748D01*
X159707417Y-87056033D01*
X159365236Y-87059408D01*
X159122654Y-87067679D01*
X158965991Y-87081653D01*
X158881568Y-87102136D01*
X158855706Y-87129936D01*
X158855891Y-87133823D01*
X158870623Y-87223131D01*
X158904050Y-87413109D01*
X158951846Y-87679529D01*
X159009680Y-87998164D01*
X159038147Y-88153875D01*
X159209762Y-89090500D01*
X162472381Y-89090500D01*
X163102672Y-89089890D01*
X163692880Y-89088141D01*
X164231145Y-89085369D01*
X164705607Y-89081692D01*
X165104406Y-89077228D01*
X165415681Y-89072093D01*
X165627573Y-89066405D01*
X165728221Y-89060281D01*
X165735000Y-89058195D01*
X165698735Y-89002135D01*
X165594581Y-88853167D01*
X165429503Y-88620978D01*
X165210467Y-88315257D01*
X164944436Y-87945693D01*
X164638377Y-87521972D01*
X164299252Y-87053783D01*
X163934028Y-86550814D01*
X163797838Y-86363563D01*
X163423236Y-85847828D01*
X163071005Y-85361147D01*
X162748308Y-84913537D01*
X162462305Y-84515017D01*
X162220161Y-84175602D01*
X162029036Y-83905312D01*
X161896092Y-83714161D01*
X161828493Y-83612169D01*
X161821692Y-83599646D01*
X161819496Y-83566671D01*
X161851370Y-83541815D01*
X161931978Y-83524073D01*
X162075990Y-83512437D01*
X162298072Y-83505901D01*
X162612891Y-83503458D01*
X163035115Y-83504102D01*
X163203229Y-83504833D01*
X164623750Y-83511608D01*
X164602688Y-83343400D01*
X164577583Y-83174658D01*
X164537004Y-82936137D01*
X164486191Y-82655075D01*
X164430381Y-82358710D01*
X164374814Y-82074280D01*
X164345693Y-81931684D01*
X159480250Y-81931684D01*
X159131000Y-81996283D01*
X158935836Y-82034835D01*
X158799056Y-82066463D01*
X158758361Y-82080122D01*
X158776897Y-82144795D01*
X158857651Y-82312537D01*
X158997551Y-82577482D01*
X159193525Y-82933769D01*
X159370419Y-83248500D01*
X159452100Y-83403038D01*
X159463516Y-83453521D01*
X159405632Y-83401033D01*
X159279413Y-83246662D01*
X159085824Y-82991495D01*
X158825831Y-82636619D01*
X158820585Y-82629375D01*
X158303370Y-81915000D01*
X159480250Y-81931684D01*
X164345693Y-81931684D01*
X164324726Y-81829023D01*
X164285356Y-81650178D01*
X164261943Y-81564983D01*
X164260091Y-81561923D01*
X164192896Y-81556700D01*
X164010496Y-81552383D01*
X163724682Y-81549016D01*
X163347247Y-81546642D01*
X162889983Y-81545306D01*
X162364681Y-81545050D01*
X161783134Y-81545919D01*
G37*
X161783134Y-81545919D02*
X161157133Y-81547956D01*
X160854351Y-81549313D01*
X157477657Y-81565750D01*
X159479079Y-84277116D01*
X159860054Y-84793913D01*
X160217283Y-85279821D01*
X160543817Y-85725294D01*
X160832703Y-86120786D01*
X161076990Y-86456749D01*
X161269728Y-86723638D01*
X161403966Y-86911907D01*
X161472751Y-87012008D01*
X161480500Y-87025791D01*
X161420115Y-87036643D01*
X161251398Y-87045646D01*
X160993012Y-87052360D01*
X160663618Y-87056347D01*
X160281877Y-87057170D01*
X160162875Y-87056748D01*
X159707417Y-87056033D01*
X159365236Y-87059408D01*
X159122654Y-87067679D01*
X158965991Y-87081653D01*
X158881568Y-87102136D01*
X158855706Y-87129936D01*
X158855891Y-87133823D01*
X158870623Y-87223131D01*
X158904050Y-87413109D01*
X158951846Y-87679529D01*
X159009680Y-87998164D01*
X159038147Y-88153875D01*
X159209762Y-89090500D01*
X162472381Y-89090500D01*
X163102672Y-89089890D01*
X163692880Y-89088141D01*
X164231145Y-89085369D01*
X164705607Y-89081692D01*
X165104406Y-89077228D01*
X165415681Y-89072093D01*
X165627573Y-89066405D01*
X165728221Y-89060281D01*
X165735000Y-89058195D01*
X165698735Y-89002135D01*
X165594581Y-88853167D01*
X165429503Y-88620978D01*
X165210467Y-88315257D01*
X164944436Y-87945693D01*
X164638377Y-87521972D01*
X164299252Y-87053783D01*
X163934028Y-86550814D01*
X163797838Y-86363563D01*
X163423236Y-85847828D01*
X163071005Y-85361147D01*
X162748308Y-84913537D01*
X162462305Y-84515017D01*
X162220161Y-84175602D01*
X162029036Y-83905312D01*
X161896092Y-83714161D01*
X161828493Y-83612169D01*
X161821692Y-83599646D01*
X161819496Y-83566671D01*
X161851370Y-83541815D01*
X161931978Y-83524073D01*
X162075990Y-83512437D01*
X162298072Y-83505901D01*
X162612891Y-83503458D01*
X163035115Y-83504102D01*
X163203229Y-83504833D01*
X164623750Y-83511608D01*
X164602688Y-83343400D01*
X164577583Y-83174658D01*
X164537004Y-82936137D01*
X164486191Y-82655075D01*
X164430381Y-82358710D01*
X164374814Y-82074280D01*
X164345693Y-81931684D01*
X159480250Y-81931684D01*
X159131000Y-81996283D01*
X158935836Y-82034835D01*
X158799056Y-82066463D01*
X158758361Y-82080122D01*
X158776897Y-82144795D01*
X158857651Y-82312537D01*
X158997551Y-82577482D01*
X159193525Y-82933769D01*
X159370419Y-83248500D01*
X159452100Y-83403038D01*
X159463516Y-83453521D01*
X159405632Y-83401033D01*
X159279413Y-83246662D01*
X159085824Y-82991495D01*
X158825831Y-82636619D01*
X158820585Y-82629375D01*
X158303370Y-81915000D01*
X159480250Y-81931684D01*
X164345693Y-81931684D01*
X164324726Y-81829023D01*
X164285356Y-81650178D01*
X164261943Y-81564983D01*
X164260091Y-81561923D01*
X164192896Y-81556700D01*
X164010496Y-81552383D01*
X163724682Y-81549016D01*
X163347247Y-81546642D01*
X162889983Y-81545306D01*
X162364681Y-81545050D01*
X161783134Y-81545919D01*
G36*
X154105592Y-81537447D02*
G01*
X153540292Y-81542192D01*
X153100511Y-81550658D01*
X152785536Y-81562864D01*
X152594653Y-81578830D01*
X152527150Y-81598577D01*
X152527000Y-81599649D01*
X152539123Y-81706960D01*
X152573303Y-81921719D01*
X152626257Y-82226931D01*
X152694700Y-82605597D01*
X152775349Y-83040722D01*
X152864921Y-83515308D01*
X152960133Y-84012358D01*
X153057700Y-84514874D01*
X153154339Y-85005861D01*
X153246766Y-85468320D01*
X153331699Y-85885255D01*
X153405853Y-86239669D01*
X153465944Y-86514564D01*
X153508690Y-86692944D01*
X153516216Y-86720239D01*
X153701593Y-87264374D01*
X153919825Y-87711889D01*
X154187618Y-88092132D01*
X154459966Y-88378110D01*
X154907647Y-88738287D01*
X155382072Y-89000145D01*
X155904233Y-89171081D01*
X156495123Y-89258491D01*
X157001217Y-89273633D01*
X157298984Y-89268251D01*
X157559174Y-89259418D01*
X157749646Y-89248469D01*
X157829250Y-89239292D01*
X158128394Y-89164824D01*
X158401670Y-89077191D01*
X158623669Y-88986591D01*
X158768982Y-88903220D01*
X158813249Y-88844412D01*
X158801800Y-88749157D01*
X158770339Y-88552890D01*
X158722928Y-88279297D01*
X158663624Y-87952063D01*
X158622749Y-87733070D01*
X158558654Y-87392020D01*
X158503770Y-87097329D01*
X158462050Y-86870430D01*
X158437445Y-86732758D01*
X158432500Y-86701195D01*
X158492119Y-86692483D01*
X158655454Y-86685213D01*
X158899223Y-86680035D01*
X159200145Y-86677603D01*
X159279167Y-86677500D01*
X159593685Y-86675395D01*
X159859863Y-86669631D01*
X160053321Y-86661034D01*
X160149677Y-86650428D01*
X160155497Y-86647836D01*
X160164097Y-86574854D01*
X160159751Y-86408959D01*
X160143508Y-86183465D01*
X160139547Y-86140636D01*
X160093933Y-85663099D01*
X158580592Y-83600952D01*
X157506429Y-82137250D01*
X156757865Y-82137250D01*
X156002506Y-85201125D01*
X155853080Y-85802947D01*
X155711334Y-86365617D01*
X155580366Y-86877411D01*
X155463274Y-87326603D01*
X155363155Y-87701469D01*
X155283108Y-87990282D01*
X155226229Y-88181319D01*
X155195616Y-88262854D01*
X155193057Y-88265000D01*
X155123633Y-88223683D01*
X154992867Y-88115198D01*
X154828653Y-87962738D01*
X154823471Y-87957698D01*
X154580218Y-87686344D01*
X154381407Y-87380434D01*
X154214147Y-87013895D01*
X154065543Y-86560652D01*
X153987767Y-86267672D01*
X153928837Y-86015236D01*
X153858485Y-85687764D01*
X153779914Y-85302824D01*
X153696331Y-84877984D01*
X153610940Y-84430811D01*
X153526946Y-83978873D01*
X153447555Y-83539739D01*
X153375972Y-83130976D01*
X153315401Y-82770152D01*
X153269049Y-82474834D01*
X153240120Y-82262591D01*
X153231819Y-82150991D01*
X153234487Y-82138846D01*
X153304815Y-82130170D01*
X153485468Y-82123478D01*
X153759786Y-82118943D01*
X154111107Y-82116738D01*
X154522769Y-82117038D01*
X154978113Y-82120014D01*
X155013871Y-82120353D01*
X156757865Y-82137250D01*
X157506429Y-82137250D01*
X157067250Y-81538806D01*
X154797125Y-81536403D01*
X154105592Y-81537447D01*
G37*
X154105592Y-81537447D02*
X153540292Y-81542192D01*
X153100511Y-81550658D01*
X152785536Y-81562864D01*
X152594653Y-81578830D01*
X152527150Y-81598577D01*
X152527000Y-81599649D01*
X152539123Y-81706960D01*
X152573303Y-81921719D01*
X152626257Y-82226931D01*
X152694700Y-82605597D01*
X152775349Y-83040722D01*
X152864921Y-83515308D01*
X152960133Y-84012358D01*
X153057700Y-84514874D01*
X153154339Y-85005861D01*
X153246766Y-85468320D01*
X153331699Y-85885255D01*
X153405853Y-86239669D01*
X153465944Y-86514564D01*
X153508690Y-86692944D01*
X153516216Y-86720239D01*
X153701593Y-87264374D01*
X153919825Y-87711889D01*
X154187618Y-88092132D01*
X154459966Y-88378110D01*
X154907647Y-88738287D01*
X155382072Y-89000145D01*
X155904233Y-89171081D01*
X156495123Y-89258491D01*
X157001217Y-89273633D01*
X157298984Y-89268251D01*
X157559174Y-89259418D01*
X157749646Y-89248469D01*
X157829250Y-89239292D01*
X158128394Y-89164824D01*
X158401670Y-89077191D01*
X158623669Y-88986591D01*
X158768982Y-88903220D01*
X158813249Y-88844412D01*
X158801800Y-88749157D01*
X158770339Y-88552890D01*
X158722928Y-88279297D01*
X158663624Y-87952063D01*
X158622749Y-87733070D01*
X158558654Y-87392020D01*
X158503770Y-87097329D01*
X158462050Y-86870430D01*
X158437445Y-86732758D01*
X158432500Y-86701195D01*
X158492119Y-86692483D01*
X158655454Y-86685213D01*
X158899223Y-86680035D01*
X159200145Y-86677603D01*
X159279167Y-86677500D01*
X159593685Y-86675395D01*
X159859863Y-86669631D01*
X160053321Y-86661034D01*
X160149677Y-86650428D01*
X160155497Y-86647836D01*
X160164097Y-86574854D01*
X160159751Y-86408959D01*
X160143508Y-86183465D01*
X160139547Y-86140636D01*
X160093933Y-85663099D01*
X158580592Y-83600952D01*
X157506429Y-82137250D01*
X156757865Y-82137250D01*
X156002506Y-85201125D01*
X155853080Y-85802947D01*
X155711334Y-86365617D01*
X155580366Y-86877411D01*
X155463274Y-87326603D01*
X155363155Y-87701469D01*
X155283108Y-87990282D01*
X155226229Y-88181319D01*
X155195616Y-88262854D01*
X155193057Y-88265000D01*
X155123633Y-88223683D01*
X154992867Y-88115198D01*
X154828653Y-87962738D01*
X154823471Y-87957698D01*
X154580218Y-87686344D01*
X154381407Y-87380434D01*
X154214147Y-87013895D01*
X154065543Y-86560652D01*
X153987767Y-86267672D01*
X153928837Y-86015236D01*
X153858485Y-85687764D01*
X153779914Y-85302824D01*
X153696331Y-84877984D01*
X153610940Y-84430811D01*
X153526946Y-83978873D01*
X153447555Y-83539739D01*
X153375972Y-83130976D01*
X153315401Y-82770152D01*
X153269049Y-82474834D01*
X153240120Y-82262591D01*
X153231819Y-82150991D01*
X153234487Y-82138846D01*
X153304815Y-82130170D01*
X153485468Y-82123478D01*
X153759786Y-82118943D01*
X154111107Y-82116738D01*
X154522769Y-82117038D01*
X154978113Y-82120014D01*
X155013871Y-82120353D01*
X156757865Y-82137250D01*
X157506429Y-82137250D01*
X157067250Y-81538806D01*
X154797125Y-81536403D01*
X154105592Y-81537447D01*
G36*
X126869491Y-80245387D02*
G01*
X126577112Y-80408878D01*
X126216700Y-80678746D01*
X126171962Y-80715671D01*
X125785169Y-81089098D01*
X125524719Y-81460997D01*
X125389989Y-81832707D01*
X125380354Y-82205568D01*
X125410175Y-82350865D01*
X125473798Y-82495249D01*
X125606979Y-82726342D01*
X125801179Y-83030703D01*
X126047860Y-83394890D01*
X126301581Y-83754200D01*
X126646749Y-84237644D01*
X126968598Y-84694024D01*
X127259885Y-85112648D01*
X127513367Y-85482824D01*
X127721799Y-85793861D01*
X127877940Y-86035067D01*
X127974543Y-86195750D01*
X128004368Y-86265218D01*
X128003639Y-86266527D01*
X127956516Y-86227791D01*
X127835011Y-86107127D01*
X127650428Y-85916348D01*
X127414066Y-85667269D01*
X127137228Y-85371702D01*
X126831216Y-85041461D01*
X126819399Y-85028642D01*
X126362233Y-84533985D01*
X125981194Y-84125648D01*
X125667477Y-83795534D01*
X125412275Y-83535541D01*
X125206783Y-83337570D01*
X125042194Y-83193523D01*
X124909703Y-83095298D01*
X124800503Y-83034796D01*
X124705789Y-83003918D01*
X124616755Y-82994563D01*
X124607891Y-82994499D01*
X124492542Y-83003583D01*
X124381248Y-83040427D01*
X124251057Y-83119422D01*
X124079016Y-83254959D01*
X123842170Y-83461429D01*
X123792770Y-83505549D01*
X123558656Y-83717644D01*
X123350791Y-83910655D01*
X123192679Y-84062464D01*
X123110625Y-84147584D01*
X123011636Y-84326053D01*
X123005980Y-84530662D01*
X123096933Y-84776415D01*
X123287773Y-85078319D01*
X123324897Y-85128945D01*
X123644830Y-85610775D01*
X123930175Y-86155316D01*
X124191625Y-86785127D01*
X124402305Y-87401978D01*
X124555775Y-87870413D01*
X124690712Y-88235608D01*
X124817238Y-88518049D01*
X124945475Y-88738220D01*
X125085547Y-88916607D01*
X125213469Y-89043487D01*
X125554157Y-89273577D01*
X125928733Y-89385472D01*
X126327438Y-89380239D01*
X126740511Y-89258946D01*
X127158193Y-89022661D01*
X127436065Y-88800274D01*
X127747589Y-88520188D01*
X128038407Y-88860594D01*
X128327051Y-89151437D01*
X128598695Y-89323855D01*
X128863843Y-89383405D01*
X129003605Y-89371431D01*
X129183514Y-89304372D01*
X129419320Y-89171484D01*
X129676527Y-88996147D01*
X129920641Y-88801742D01*
X130105351Y-88624685D01*
X130257952Y-88458360D01*
X130626915Y-88861019D01*
X130821284Y-89057938D01*
X131010107Y-89223637D01*
X131159735Y-89329232D01*
X131189480Y-89343870D01*
X131435601Y-89388762D01*
X131715043Y-89329161D01*
X132035741Y-89162078D01*
X132403521Y-88886291D01*
X132853917Y-88508123D01*
X133213084Y-88881761D01*
X133515489Y-89163077D01*
X133785669Y-89330675D01*
X134044366Y-89385656D01*
X134312319Y-89329124D01*
X134610271Y-89162180D01*
X134860901Y-88969343D01*
X135229531Y-88662565D01*
X135564218Y-89035282D01*
X135751448Y-89232906D01*
X135890768Y-89347795D01*
X136009821Y-89399299D01*
X136096654Y-89408000D01*
X136386463Y-89350151D01*
X136722037Y-89178302D01*
X137098685Y-88895001D01*
X137191750Y-88813337D01*
X137572750Y-88470538D01*
X137913366Y-88846132D01*
X138212685Y-89142416D01*
X138486555Y-89330979D01*
X138751225Y-89411573D01*
X139022944Y-89383948D01*
X139317962Y-89247854D01*
X139652527Y-89003043D01*
X139865615Y-88816169D01*
X140203202Y-88462247D01*
X140421633Y-88129310D01*
X140518882Y-87820665D01*
X140524106Y-87741125D01*
X140534696Y-87614263D01*
X140555944Y-87566500D01*
X140611305Y-87608857D01*
X140730798Y-87721174D01*
X140891101Y-87881320D01*
X140932428Y-87923767D01*
X141113920Y-88104721D01*
X141239461Y-88206918D01*
X141336962Y-88246975D01*
X141434339Y-88241506D01*
X141457255Y-88236162D01*
X141620792Y-88177835D01*
X141724407Y-88117952D01*
X141844275Y-87984333D01*
X141966944Y-87796896D01*
X142065267Y-87603339D01*
X142104979Y-87474457D01*
X141747750Y-87474457D01*
X141744363Y-87525803D01*
X141674797Y-87492669D01*
X141542516Y-87377298D01*
X141350984Y-87181932D01*
X141103664Y-86908813D01*
X140804021Y-86560185D01*
X140455518Y-86138290D01*
X140235613Y-85864978D01*
X140069546Y-85664520D01*
X139948482Y-85546240D01*
X139843452Y-85489083D01*
X139725485Y-85471994D01*
X139694218Y-85471519D01*
X139492804Y-85451883D01*
X139251023Y-85402965D01*
X139154468Y-85376437D01*
X138973607Y-85322610D01*
X138850865Y-85288035D01*
X138821250Y-85281187D01*
X138851296Y-85323979D01*
X138949781Y-85439224D01*
X139098789Y-85606250D01*
X139186089Y-85702121D01*
X139614084Y-86209929D01*
X139926138Y-86674181D01*
X140123997Y-87099063D01*
X140209403Y-87488759D01*
X140184104Y-87847452D01*
X140140461Y-87990991D01*
X140000001Y-88237893D01*
X139788390Y-88465651D01*
X139539864Y-88647017D01*
X139288659Y-88754748D01*
X139158081Y-88772762D01*
X139025896Y-88748832D01*
X138883801Y-88664386D01*
X138703230Y-88500949D01*
X138642956Y-88439625D01*
X138474274Y-88255109D01*
X138285605Y-88032823D01*
X138094898Y-87796030D01*
X137920102Y-87567992D01*
X137779168Y-87371975D01*
X137690045Y-87231242D01*
X137668000Y-87176030D01*
X137618874Y-87124093D01*
X137600221Y-87122000D01*
X137561301Y-87171392D01*
X137572487Y-87248169D01*
X137591538Y-87447793D01*
X137558547Y-87703705D01*
X137484437Y-87961898D01*
X137388973Y-88155557D01*
X137252287Y-88312894D01*
X137059962Y-88478767D01*
X136848077Y-88627709D01*
X136652714Y-88734250D01*
X136514245Y-88773000D01*
X136409057Y-88740739D01*
X136278211Y-88637664D01*
X136113501Y-88454332D01*
X135906722Y-88181301D01*
X135649669Y-87809128D01*
X135561353Y-87676476D01*
X135391169Y-87423021D01*
X135246876Y-87215425D01*
X135142103Y-87072763D01*
X135090482Y-87014110D01*
X135087902Y-87013932D01*
X135089524Y-87082486D01*
X135120973Y-87223649D01*
X135129086Y-87252786D01*
X135184371Y-87565462D01*
X135184048Y-87886194D01*
X135130759Y-88167376D01*
X135070805Y-88303403D01*
X134934906Y-88468016D01*
X134754362Y-88620544D01*
X134719830Y-88643169D01*
X134531946Y-88731574D01*
X134354551Y-88746855D01*
X134173338Y-88681029D01*
X133974003Y-88526113D01*
X133742239Y-88274125D01*
X133495973Y-87960236D01*
X133323238Y-87727874D01*
X133169103Y-87516835D01*
X133056923Y-87359255D01*
X133024504Y-87311533D01*
X132921258Y-87153750D01*
X132917318Y-87426611D01*
X132871872Y-87801323D01*
X132738228Y-88105735D01*
X132513946Y-88362231D01*
X132294869Y-88533420D01*
X132062892Y-88672230D01*
X131857621Y-88757032D01*
X131761820Y-88773000D01*
X131658305Y-88724792D01*
X131500373Y-88593910D01*
X131307509Y-88400963D01*
X131099198Y-88166559D01*
X130894923Y-87911309D01*
X130733946Y-87685771D01*
X130397250Y-87181209D01*
X130358196Y-87487434D01*
X130313144Y-87716127D01*
X130246679Y-87924705D01*
X130220739Y-87981705D01*
X130072480Y-88194578D01*
X129864511Y-88405333D01*
X129629386Y-88588763D01*
X129399656Y-88719665D01*
X129207875Y-88772831D01*
X129198776Y-88773000D01*
X129099300Y-88744818D01*
X128971127Y-88654503D01*
X128806250Y-88493398D01*
X128596658Y-88252848D01*
X128334345Y-87924196D01*
X128011301Y-87498786D01*
X127975613Y-87450946D01*
X127582856Y-86942333D01*
X127182028Y-86464173D01*
X126742731Y-85981820D01*
X126234566Y-85460631D01*
X126191386Y-85417573D01*
X125894694Y-85124616D01*
X125628372Y-84866181D01*
X125405287Y-84654383D01*
X125238304Y-84501335D01*
X125140292Y-84419153D01*
X125120007Y-84408827D01*
X125135582Y-84472933D01*
X125195465Y-84635917D01*
X125292709Y-84880457D01*
X125420364Y-85189235D01*
X125571483Y-85544928D01*
X125631416Y-85683719D01*
X125884424Y-86263767D01*
X126095848Y-86737022D01*
X126272936Y-87113929D01*
X126422937Y-87404932D01*
X126553098Y-87620475D01*
X126670668Y-87771002D01*
X126782896Y-87866958D01*
X126897029Y-87918785D01*
X127020316Y-87936929D01*
X127160006Y-87931834D01*
X127189689Y-87929031D01*
X127400389Y-87900639D01*
X127579209Y-87864503D01*
X127619125Y-87853012D01*
X127733201Y-87843905D01*
X127760627Y-87912685D01*
X127703505Y-88046403D01*
X127563942Y-88232108D01*
X127556088Y-88241102D01*
X127271307Y-88491939D01*
X126939794Y-88665890D01*
X126592744Y-88752791D01*
X126261351Y-88742476D01*
X126131009Y-88705460D01*
X125925323Y-88601481D01*
X125743546Y-88446689D01*
X125577096Y-88226870D01*
X125417390Y-87927807D01*
X125255847Y-87535284D01*
X125083882Y-87035086D01*
X125040833Y-86899750D01*
X124790958Y-86179697D01*
X124526598Y-85560756D01*
X124252092Y-85052241D01*
X124034647Y-84739411D01*
X123840044Y-84491984D01*
X123722279Y-84316364D01*
X123681982Y-84182764D01*
X123719782Y-84061399D01*
X123836309Y-83922481D01*
X124032193Y-83736224D01*
X124056328Y-83713700D01*
X124291395Y-83504681D01*
X124462360Y-83380046D01*
X124587642Y-83327644D01*
X124644969Y-83325351D01*
X124688505Y-83338218D01*
X124746947Y-83372062D01*
X124826813Y-83433526D01*
X124934620Y-83529255D01*
X125076885Y-83665894D01*
X125260125Y-83850087D01*
X125490858Y-84088478D01*
X125775601Y-84387712D01*
X126120870Y-84754433D01*
X126533184Y-85195285D01*
X127019059Y-85716914D01*
X127529461Y-86266139D01*
X127963214Y-86726695D01*
X128360162Y-87135257D01*
X128712422Y-87484375D01*
X129012109Y-87766603D01*
X129251340Y-87974491D01*
X129422232Y-88100592D01*
X129510694Y-88138000D01*
X129585674Y-88085552D01*
X129595045Y-87933110D01*
X129541064Y-87688026D01*
X129425990Y-87357651D01*
X129252080Y-86949335D01*
X129021591Y-86470432D01*
X128963509Y-86356319D01*
X128823915Y-86089920D01*
X128685266Y-85838888D01*
X128537268Y-85587383D01*
X128369626Y-85319566D01*
X128172046Y-85019598D01*
X127934234Y-84671640D01*
X127645895Y-84259853D01*
X127296736Y-83768398D01*
X127129354Y-83534250D01*
X126871175Y-83169951D01*
X126633755Y-82828138D01*
X126428658Y-82526002D01*
X126267444Y-82280732D01*
X126161675Y-82109516D01*
X126127683Y-82045021D01*
X126064986Y-81738832D01*
X126126863Y-81415719D01*
X126268427Y-81143610D01*
X126392690Y-80989919D01*
X126561095Y-80823419D01*
X126741546Y-80671204D01*
X126901949Y-80560368D01*
X127009528Y-80517999D01*
X127043888Y-80574209D01*
X127062442Y-80713979D01*
X127063500Y-80762059D01*
X127085052Y-81003916D01*
X127153177Y-81277261D01*
X127273084Y-81592522D01*
X127449981Y-81960128D01*
X127689076Y-82390506D01*
X127995575Y-82894084D01*
X128374687Y-83481292D01*
X128562735Y-83764203D01*
X128850204Y-84198361D01*
X129123276Y-84619708D01*
X129373366Y-85014222D01*
X129591889Y-85367884D01*
X129770260Y-85666673D01*
X129899892Y-85896570D01*
X129972201Y-86043556D01*
X129984500Y-86085943D01*
X130026131Y-86153503D01*
X130139910Y-86293766D01*
X130309168Y-86488662D01*
X130517235Y-86720116D01*
X130747441Y-86970056D01*
X130983117Y-87220411D01*
X131207593Y-87453107D01*
X131404199Y-87650072D01*
X131556266Y-87793233D01*
X131572000Y-87807042D01*
X131828423Y-88016972D01*
X132009947Y-88135128D01*
X132124803Y-88165744D01*
X132178982Y-88119423D01*
X132179676Y-87976568D01*
X132115560Y-87745887D01*
X131995149Y-87443249D01*
X131826961Y-87084520D01*
X131619513Y-86685567D01*
X131381321Y-86262258D01*
X131120903Y-85830459D01*
X130846774Y-85406039D01*
X130567451Y-85004864D01*
X130357683Y-84726238D01*
X130210602Y-84525071D01*
X130101354Y-84350269D01*
X130049687Y-84234086D01*
X130048000Y-84220419D01*
X130092817Y-84114887D01*
X130207227Y-83962753D01*
X130240404Y-83926559D01*
X129642280Y-83926559D01*
X129615318Y-84015024D01*
X129532931Y-84129185D01*
X129428196Y-84252656D01*
X129357947Y-84319254D01*
X129349500Y-84322892D01*
X129305350Y-84273453D01*
X129204608Y-84135894D01*
X129060090Y-83928450D01*
X128884611Y-83669355D01*
X128784771Y-83519348D01*
X128251792Y-82713884D01*
X128880021Y-83246478D01*
X129124109Y-83453737D01*
X129338447Y-83636344D01*
X129501475Y-83775889D01*
X129591636Y-83853964D01*
X129596431Y-83858234D01*
X129642280Y-83926559D01*
X130240404Y-83926559D01*
X130361176Y-83794808D01*
X130524606Y-83641844D01*
X130667460Y-83534650D01*
X130748796Y-83502500D01*
X130832280Y-83554153D01*
X130969540Y-83698061D01*
X131148897Y-83917641D01*
X131358675Y-84196313D01*
X131587194Y-84517496D01*
X131822779Y-84864610D01*
X132053751Y-85221073D01*
X132268432Y-85570305D01*
X132455145Y-85895725D01*
X132521438Y-86019439D01*
X132661177Y-86243149D01*
X132877208Y-86522032D01*
X133176556Y-86864530D01*
X133566250Y-87279086D01*
X133593143Y-87306937D01*
X133949876Y-87670540D01*
X134226921Y-87939274D01*
X134427854Y-88114166D01*
X134556251Y-88196244D01*
X134615690Y-88186535D01*
X134609746Y-88086065D01*
X134541997Y-87895862D01*
X134416019Y-87616952D01*
X134374828Y-87531391D01*
X134241176Y-87277731D01*
X134058740Y-86960585D01*
X133851563Y-86620513D01*
X133644578Y-86299411D01*
X133467823Y-86030204D01*
X133319890Y-85796932D01*
X133213736Y-85620643D01*
X133162322Y-85522384D01*
X133159500Y-85511635D01*
X133205803Y-85431144D01*
X133324506Y-85302523D01*
X133485305Y-85152342D01*
X133657894Y-85007174D01*
X133811968Y-84893589D01*
X133917222Y-84838159D01*
X133929635Y-84836390D01*
X133999070Y-84883968D01*
X134134030Y-85017600D01*
X134321845Y-85223267D01*
X134549847Y-85486950D01*
X134805365Y-85794631D01*
X134890497Y-85899625D01*
X135270191Y-86364071D01*
X135630872Y-86792752D01*
X135963592Y-87175886D01*
X136259405Y-87503692D01*
X136509362Y-87766388D01*
X136704516Y-87954194D01*
X136835920Y-88057327D01*
X136879978Y-88074500D01*
X136947615Y-88019340D01*
X136967575Y-87867828D01*
X136940855Y-87640915D01*
X136868450Y-87359550D01*
X136842205Y-87279890D01*
X136600544Y-86728935D01*
X136262778Y-86175621D01*
X135851044Y-85645429D01*
X135387479Y-85163839D01*
X134894221Y-84756332D01*
X134393407Y-84448389D01*
X134373688Y-84438580D01*
X133968625Y-84239004D01*
X133821109Y-84410502D01*
X133697526Y-84541571D01*
X133631059Y-84570436D01*
X133606280Y-84499137D01*
X133604596Y-84439125D01*
X133646128Y-84266091D01*
X133753703Y-84041860D01*
X133903474Y-83804946D01*
X134071594Y-83593868D01*
X134206398Y-83467094D01*
X134355875Y-83363540D01*
X134464118Y-83332239D01*
X134585343Y-83361672D01*
X134625919Y-83377951D01*
X135121391Y-83638875D01*
X135620656Y-84005273D01*
X136104095Y-84457798D01*
X136552088Y-84977102D01*
X136945018Y-85543835D01*
X137107202Y-85824988D01*
X137296527Y-86123527D01*
X137565588Y-86475384D01*
X137893164Y-86856828D01*
X138258034Y-87244130D01*
X138638977Y-87613556D01*
X138957172Y-87893790D01*
X139211036Y-88089736D01*
X139386135Y-88186735D01*
X139483320Y-88184009D01*
X139503440Y-88080778D01*
X139447346Y-87876264D01*
X139315888Y-87569687D01*
X139314383Y-87566500D01*
X139071353Y-87131280D01*
X138731109Y-86643280D01*
X138304228Y-86116881D01*
X137992555Y-85768757D01*
X137772612Y-85525788D01*
X137633214Y-85351971D01*
X137564447Y-85227320D01*
X137556396Y-85131848D01*
X137599146Y-85045568D01*
X137620375Y-85018511D01*
X137729250Y-84908131D01*
X137890217Y-84767981D01*
X138072138Y-84622331D01*
X138243875Y-84495448D01*
X138374290Y-84411600D01*
X138424886Y-84391500D01*
X138511229Y-84421115D01*
X138675334Y-84499670D01*
X138885490Y-84611724D01*
X138939948Y-84642278D01*
X139144630Y-84754062D01*
X139299131Y-84830439D01*
X139377631Y-84858926D01*
X139382500Y-84856237D01*
X139348218Y-84789264D01*
X139258964Y-84651703D01*
X139151837Y-84498350D01*
X138920947Y-84138881D01*
X138766965Y-83816520D01*
X138691246Y-83542508D01*
X138695149Y-83328087D01*
X138780030Y-83184500D01*
X138947247Y-83122988D01*
X138985604Y-83121499D01*
X139221422Y-83174305D01*
X139481694Y-83336443D01*
X139740985Y-83576781D01*
X140041189Y-83956160D01*
X140221516Y-84351360D01*
X140288960Y-84783879D01*
X140264411Y-85185250D01*
X140296605Y-85284842D01*
X140404561Y-85475682D01*
X140583714Y-85750650D01*
X140829498Y-86102625D01*
X141030232Y-86379424D01*
X141326199Y-86791115D01*
X141542132Y-87109356D01*
X141681494Y-87336389D01*
X141747750Y-87474457D01*
X142104979Y-87474457D01*
X142112096Y-87451361D01*
X142113000Y-87435183D01*
X142076559Y-87344439D01*
X141975013Y-87170464D01*
X141820029Y-86931193D01*
X141623273Y-86644564D01*
X141396413Y-86328512D01*
X141368188Y-86290095D01*
X140623375Y-85278847D01*
X140614099Y-84308153D01*
X140859561Y-84587951D01*
X141545883Y-85411295D01*
X142141970Y-86212232D01*
X142643962Y-86983998D01*
X143047996Y-87719826D01*
X143350210Y-88412951D01*
X143546744Y-89056605D01*
X143611459Y-89409620D01*
X143671800Y-89657039D01*
X143781185Y-89798770D01*
X143953830Y-89851258D01*
X143994357Y-89852500D01*
X144091159Y-89809140D01*
X144241608Y-89694944D01*
X144414684Y-89533733D01*
X144430402Y-89517638D01*
X144774900Y-89086361D01*
X144996215Y-88628921D01*
X145095224Y-88141205D01*
X145072800Y-87619102D01*
X144944610Y-87101689D01*
X144729019Y-86552681D01*
X144430565Y-85935546D01*
X144059327Y-85268709D01*
X143625384Y-84570592D01*
X143280643Y-84060164D01*
X143132570Y-83846011D01*
X143016769Y-83674624D01*
X142949252Y-83569909D01*
X142938500Y-83549363D01*
X142998032Y-83541548D01*
X143160753Y-83534997D01*
X143402856Y-83530335D01*
X143700532Y-83528186D01*
X143748125Y-83528119D01*
X144132895Y-83521140D01*
X144445197Y-83501842D01*
X144664095Y-83471878D01*
X144741182Y-83449769D01*
X144872932Y-83400787D01*
X144940246Y-83388963D01*
X144941033Y-83389598D01*
X144955694Y-83453535D01*
X144990323Y-83627135D01*
X145042087Y-83895126D01*
X145108153Y-84242234D01*
X145185691Y-84653186D01*
X145271868Y-85112708D01*
X145363851Y-85605528D01*
X145458810Y-86116372D01*
X145553910Y-86629967D01*
X145646321Y-87131040D01*
X145733210Y-87604318D01*
X145811745Y-88034527D01*
X145879095Y-88406395D01*
X145932426Y-88704647D01*
X145968907Y-88914012D01*
X145985706Y-89019214D01*
X145986500Y-89027666D01*
X146047720Y-89053530D01*
X146222466Y-89073256D01*
X146497373Y-89085895D01*
X146859073Y-89090496D01*
X146870938Y-89090500D01*
X147755376Y-89090500D01*
X147880807Y-88757125D01*
X147973096Y-88511498D01*
X148082277Y-88220435D01*
X148160732Y-88011000D01*
X148315226Y-87598250D01*
X148168135Y-86815343D01*
X148021045Y-86032437D01*
X147704214Y-85747580D01*
X147371741Y-85366933D01*
X147123040Y-84912206D01*
X146962772Y-84408673D01*
X146895601Y-83881606D01*
X146926187Y-83356275D01*
X147059194Y-82857955D01*
X147138238Y-82679574D01*
X147239308Y-82466577D01*
X147288474Y-82312319D01*
X147294425Y-82163927D01*
X147265854Y-81968527D01*
X147260188Y-81937626D01*
X147224086Y-81739166D01*
X147199698Y-81599032D01*
X147193000Y-81554087D01*
X147136635Y-81541440D01*
X146996040Y-81534472D01*
X146941992Y-81534000D01*
X146690984Y-81534000D01*
X146728454Y-81217627D01*
X146729713Y-81158384D01*
X146431256Y-81158384D01*
X146393364Y-81338785D01*
X146295285Y-81589332D01*
X146236841Y-81711763D01*
X145950879Y-82157151D01*
X145589591Y-82500609D01*
X145153999Y-82741691D01*
X144645127Y-82879955D01*
X144063999Y-82914956D01*
X143564568Y-82870772D01*
X143267169Y-82822186D01*
X142916622Y-82756547D01*
X142552468Y-82682105D01*
X142214246Y-82607109D01*
X141941494Y-82539809D01*
X141839454Y-82510836D01*
X141829191Y-82543525D01*
X141891823Y-82664403D01*
X142020708Y-82862643D01*
X142209207Y-83127422D01*
X142259431Y-83195430D01*
X142662524Y-83751910D01*
X143057534Y-84323317D01*
X143429202Y-84886102D01*
X143762269Y-85416721D01*
X144041477Y-85891626D01*
X144212955Y-86209999D01*
X144478773Y-86773445D01*
X144659755Y-87260604D01*
X144758240Y-87687543D01*
X144776568Y-88070331D01*
X144717076Y-88425036D01*
X144584544Y-88762857D01*
X144480243Y-88958047D01*
X144392429Y-89098233D01*
X144339626Y-89153941D01*
X144338725Y-89154000D01*
X144302734Y-89097030D01*
X144265105Y-88951032D01*
X144245376Y-88829957D01*
X144124251Y-88282316D01*
X143901543Y-87676315D01*
X143583157Y-87021235D01*
X143174998Y-86326358D01*
X142682969Y-85600965D01*
X142112976Y-84854338D01*
X141470923Y-84095760D01*
X140762714Y-83334511D01*
X140724824Y-83295677D01*
X140429196Y-82992025D01*
X140212498Y-82764303D01*
X140064029Y-82598470D01*
X139973089Y-82480481D01*
X139928977Y-82396295D01*
X139920993Y-82331867D01*
X139938436Y-82273155D01*
X139941119Y-82267163D01*
X139979446Y-82148756D01*
X139939018Y-82093583D01*
X139903483Y-82080976D01*
X139544997Y-82004051D01*
X139092578Y-81947368D01*
X138577737Y-81911362D01*
X138031988Y-81896470D01*
X137486842Y-81903128D01*
X136973813Y-81931774D01*
X136524413Y-81982844D01*
X136271000Y-82030659D01*
X136026450Y-82084455D01*
X135833450Y-82120872D01*
X135721670Y-82134574D01*
X135706083Y-82132276D01*
X135717423Y-82063718D01*
X135794224Y-81933669D01*
X135913790Y-81772056D01*
X136053420Y-81608803D01*
X136190416Y-81473835D01*
X136230112Y-81441415D01*
X136414072Y-81325609D01*
X136655130Y-81204788D01*
X136819986Y-81136294D01*
X137134052Y-81056828D01*
X137559248Y-81008271D01*
X138083574Y-80990406D01*
X138695033Y-81003017D01*
X139381627Y-81045888D01*
X140131359Y-81118801D01*
X140843000Y-81208925D01*
X141705743Y-81324619D01*
X142458235Y-81413542D01*
X143114454Y-81475312D01*
X143688377Y-81509550D01*
X144193981Y-81515874D01*
X144645242Y-81493905D01*
X145056139Y-81443263D01*
X145440648Y-81363566D01*
X145812747Y-81254434D01*
X146186412Y-81115487D01*
X146319875Y-81059859D01*
X146407310Y-81061090D01*
X146431256Y-81158384D01*
X146729713Y-81158384D01*
X146734058Y-80954074D01*
X146672196Y-80788066D01*
X146536198Y-80716418D01*
X146319398Y-80735948D01*
X146015127Y-80843470D01*
X145978426Y-80859473D01*
X145665911Y-80982675D01*
X145350708Y-81071584D01*
X145004666Y-81130454D01*
X144599630Y-81163534D01*
X144107449Y-81175077D01*
X143891000Y-81174695D01*
X143181390Y-81151629D01*
X142418737Y-81090234D01*
X141636750Y-80997041D01*
X140823686Y-80890039D01*
X140122967Y-80803571D01*
X139521726Y-80736923D01*
X139007098Y-80689381D01*
X138566218Y-80660230D01*
X138186221Y-80648755D01*
X137854241Y-80654242D01*
X137557413Y-80675977D01*
X137282871Y-80713243D01*
X137109698Y-80745576D01*
X136820639Y-80819313D01*
X136532559Y-80916109D01*
X136307636Y-81015062D01*
X136306917Y-81015451D01*
X135992080Y-81213978D01*
X135706520Y-81446897D01*
X135459412Y-81699317D01*
X135259936Y-81956345D01*
X135117269Y-82203088D01*
X135040589Y-82424655D01*
X135039074Y-82606154D01*
X135121902Y-82732693D01*
X135221061Y-82777374D01*
X135363130Y-82782735D01*
X135576515Y-82757541D01*
X135775719Y-82716387D01*
X136647673Y-82561102D01*
X137575569Y-82516815D01*
X138262879Y-82551937D01*
X138576424Y-82581597D01*
X138843649Y-82610272D01*
X139039401Y-82635015D01*
X139138528Y-82652878D01*
X139144375Y-82655258D01*
X139196001Y-82724266D01*
X139140808Y-82780620D01*
X138998745Y-82803999D01*
X138998347Y-82804000D01*
X138732120Y-82853821D01*
X138464535Y-83009552D01*
X138239500Y-83214962D01*
X138117456Y-83352266D01*
X138050767Y-83472911D01*
X138022883Y-83624675D01*
X138017251Y-83855339D01*
X138017250Y-83856517D01*
X138017250Y-84266773D01*
X137541000Y-84646190D01*
X137293144Y-84840206D01*
X137126928Y-84959968D01*
X137027513Y-85013810D01*
X136980062Y-85010067D01*
X136969500Y-84967219D01*
X136923456Y-84875103D01*
X136797598Y-84720110D01*
X136610344Y-84519861D01*
X136380111Y-84291979D01*
X136125313Y-84054085D01*
X135864369Y-83823802D01*
X135615693Y-83618750D01*
X135397702Y-83456553D01*
X135373812Y-83440359D01*
X135021935Y-83216723D01*
X134740846Y-83076185D01*
X134504457Y-83019720D01*
X134286679Y-83048308D01*
X134061423Y-83162926D01*
X133802598Y-83364550D01*
X133644958Y-83505133D01*
X133353491Y-83818222D01*
X133126160Y-84156790D01*
X132976419Y-84494568D01*
X132917726Y-84805287D01*
X132922643Y-84915238D01*
X132934449Y-85097352D01*
X132896840Y-85212889D01*
X132789972Y-85318781D01*
X132778864Y-85327720D01*
X132600641Y-85470190D01*
X132311424Y-85006159D01*
X132089695Y-84663736D01*
X131853162Y-84321289D01*
X131615376Y-83996187D01*
X131389893Y-83705794D01*
X131190264Y-83467479D01*
X131127035Y-83400835D01*
X130425610Y-83400835D01*
X130391637Y-83433539D01*
X130368760Y-83428416D01*
X130298833Y-83381802D01*
X130152644Y-83270380D01*
X129951432Y-83110730D01*
X129716432Y-82919427D01*
X129711269Y-82915175D01*
X129328222Y-82588529D01*
X129002359Y-82288414D01*
X128743964Y-82025587D01*
X128563321Y-81810806D01*
X128470713Y-81654827D01*
X128460500Y-81606794D01*
X128512515Y-81492402D01*
X128643912Y-81355298D01*
X128817719Y-81223670D01*
X128996966Y-81125707D01*
X129138964Y-81089500D01*
X129213956Y-81103650D01*
X129291375Y-81154801D01*
X129379819Y-81255997D01*
X129487888Y-81420286D01*
X129624180Y-81660713D01*
X129797296Y-81990325D01*
X130010981Y-82412483D01*
X130202895Y-82804328D01*
X130334079Y-83094293D01*
X130407370Y-83290441D01*
X130425610Y-83400835D01*
X131127035Y-83400835D01*
X131030043Y-83298606D01*
X130922784Y-83216544D01*
X130911771Y-83212712D01*
X130842174Y-83172211D01*
X130757186Y-83074086D01*
X130648206Y-82904634D01*
X130506633Y-82650152D01*
X130323865Y-82296939D01*
X130270350Y-82190848D01*
X130032527Y-81730214D01*
X129832948Y-81375475D01*
X129662245Y-81114789D01*
X129511050Y-80936312D01*
X129369997Y-80828203D01*
X129229717Y-80778618D01*
X129148060Y-80772000D01*
X128941565Y-80817981D01*
X128686043Y-80941386D01*
X128411725Y-81120408D01*
X128148844Y-81333239D01*
X127927630Y-81558071D01*
X127789530Y-81751969D01*
X127750145Y-81799403D01*
X127708247Y-81778527D01*
X127652222Y-81672901D01*
X127570453Y-81466089D01*
X127551405Y-81414961D01*
X127461603Y-81129486D01*
X127400612Y-80850520D01*
X127381000Y-80654067D01*
X127349590Y-80392614D01*
X127254612Y-80237312D01*
X127094952Y-80188217D01*
X126869491Y-80245387D01*
G37*
X126869491Y-80245387D02*
X126577112Y-80408878D01*
X126216700Y-80678746D01*
X126171962Y-80715671D01*
X125785169Y-81089098D01*
X125524719Y-81460997D01*
X125389989Y-81832707D01*
X125380354Y-82205568D01*
X125410175Y-82350865D01*
X125473798Y-82495249D01*
X125606979Y-82726342D01*
X125801179Y-83030703D01*
X126047860Y-83394890D01*
X126301581Y-83754200D01*
X126646749Y-84237644D01*
X126968598Y-84694024D01*
X127259885Y-85112648D01*
X127513367Y-85482824D01*
X127721799Y-85793861D01*
X127877940Y-86035067D01*
X127974543Y-86195750D01*
X128004368Y-86265218D01*
X128003639Y-86266527D01*
X127956516Y-86227791D01*
X127835011Y-86107127D01*
X127650428Y-85916348D01*
X127414066Y-85667269D01*
X127137228Y-85371702D01*
X126831216Y-85041461D01*
X126819399Y-85028642D01*
X126362233Y-84533985D01*
X125981194Y-84125648D01*
X125667477Y-83795534D01*
X125412275Y-83535541D01*
X125206783Y-83337570D01*
X125042194Y-83193523D01*
X124909703Y-83095298D01*
X124800503Y-83034796D01*
X124705789Y-83003918D01*
X124616755Y-82994563D01*
X124607891Y-82994499D01*
X124492542Y-83003583D01*
X124381248Y-83040427D01*
X124251057Y-83119422D01*
X124079016Y-83254959D01*
X123842170Y-83461429D01*
X123792770Y-83505549D01*
X123558656Y-83717644D01*
X123350791Y-83910655D01*
X123192679Y-84062464D01*
X123110625Y-84147584D01*
X123011636Y-84326053D01*
X123005980Y-84530662D01*
X123096933Y-84776415D01*
X123287773Y-85078319D01*
X123324897Y-85128945D01*
X123644830Y-85610775D01*
X123930175Y-86155316D01*
X124191625Y-86785127D01*
X124402305Y-87401978D01*
X124555775Y-87870413D01*
X124690712Y-88235608D01*
X124817238Y-88518049D01*
X124945475Y-88738220D01*
X125085547Y-88916607D01*
X125213469Y-89043487D01*
X125554157Y-89273577D01*
X125928733Y-89385472D01*
X126327438Y-89380239D01*
X126740511Y-89258946D01*
X127158193Y-89022661D01*
X127436065Y-88800274D01*
X127747589Y-88520188D01*
X128038407Y-88860594D01*
X128327051Y-89151437D01*
X128598695Y-89323855D01*
X128863843Y-89383405D01*
X129003605Y-89371431D01*
X129183514Y-89304372D01*
X129419320Y-89171484D01*
X129676527Y-88996147D01*
X129920641Y-88801742D01*
X130105351Y-88624685D01*
X130257952Y-88458360D01*
X130626915Y-88861019D01*
X130821284Y-89057938D01*
X131010107Y-89223637D01*
X131159735Y-89329232D01*
X131189480Y-89343870D01*
X131435601Y-89388762D01*
X131715043Y-89329161D01*
X132035741Y-89162078D01*
X132403521Y-88886291D01*
X132853917Y-88508123D01*
X133213084Y-88881761D01*
X133515489Y-89163077D01*
X133785669Y-89330675D01*
X134044366Y-89385656D01*
X134312319Y-89329124D01*
X134610271Y-89162180D01*
X134860901Y-88969343D01*
X135229531Y-88662565D01*
X135564218Y-89035282D01*
X135751448Y-89232906D01*
X135890768Y-89347795D01*
X136009821Y-89399299D01*
X136096654Y-89408000D01*
X136386463Y-89350151D01*
X136722037Y-89178302D01*
X137098685Y-88895001D01*
X137191750Y-88813337D01*
X137572750Y-88470538D01*
X137913366Y-88846132D01*
X138212685Y-89142416D01*
X138486555Y-89330979D01*
X138751225Y-89411573D01*
X139022944Y-89383948D01*
X139317962Y-89247854D01*
X139652527Y-89003043D01*
X139865615Y-88816169D01*
X140203202Y-88462247D01*
X140421633Y-88129310D01*
X140518882Y-87820665D01*
X140524106Y-87741125D01*
X140534696Y-87614263D01*
X140555944Y-87566500D01*
X140611305Y-87608857D01*
X140730798Y-87721174D01*
X140891101Y-87881320D01*
X140932428Y-87923767D01*
X141113920Y-88104721D01*
X141239461Y-88206918D01*
X141336962Y-88246975D01*
X141434339Y-88241506D01*
X141457255Y-88236162D01*
X141620792Y-88177835D01*
X141724407Y-88117952D01*
X141844275Y-87984333D01*
X141966944Y-87796896D01*
X142065267Y-87603339D01*
X142104979Y-87474457D01*
X141747750Y-87474457D01*
X141744363Y-87525803D01*
X141674797Y-87492669D01*
X141542516Y-87377298D01*
X141350984Y-87181932D01*
X141103664Y-86908813D01*
X140804021Y-86560185D01*
X140455518Y-86138290D01*
X140235613Y-85864978D01*
X140069546Y-85664520D01*
X139948482Y-85546240D01*
X139843452Y-85489083D01*
X139725485Y-85471994D01*
X139694218Y-85471519D01*
X139492804Y-85451883D01*
X139251023Y-85402965D01*
X139154468Y-85376437D01*
X138973607Y-85322610D01*
X138850865Y-85288035D01*
X138821250Y-85281187D01*
X138851296Y-85323979D01*
X138949781Y-85439224D01*
X139098789Y-85606250D01*
X139186089Y-85702121D01*
X139614084Y-86209929D01*
X139926138Y-86674181D01*
X140123997Y-87099063D01*
X140209403Y-87488759D01*
X140184104Y-87847452D01*
X140140461Y-87990991D01*
X140000001Y-88237893D01*
X139788390Y-88465651D01*
X139539864Y-88647017D01*
X139288659Y-88754748D01*
X139158081Y-88772762D01*
X139025896Y-88748832D01*
X138883801Y-88664386D01*
X138703230Y-88500949D01*
X138642956Y-88439625D01*
X138474274Y-88255109D01*
X138285605Y-88032823D01*
X138094898Y-87796030D01*
X137920102Y-87567992D01*
X137779168Y-87371975D01*
X137690045Y-87231242D01*
X137668000Y-87176030D01*
X137618874Y-87124093D01*
X137600221Y-87122000D01*
X137561301Y-87171392D01*
X137572487Y-87248169D01*
X137591538Y-87447793D01*
X137558547Y-87703705D01*
X137484437Y-87961898D01*
X137388973Y-88155557D01*
X137252287Y-88312894D01*
X137059962Y-88478767D01*
X136848077Y-88627709D01*
X136652714Y-88734250D01*
X136514245Y-88773000D01*
X136409057Y-88740739D01*
X136278211Y-88637664D01*
X136113501Y-88454332D01*
X135906722Y-88181301D01*
X135649669Y-87809128D01*
X135561353Y-87676476D01*
X135391169Y-87423021D01*
X135246876Y-87215425D01*
X135142103Y-87072763D01*
X135090482Y-87014110D01*
X135087902Y-87013932D01*
X135089524Y-87082486D01*
X135120973Y-87223649D01*
X135129086Y-87252786D01*
X135184371Y-87565462D01*
X135184048Y-87886194D01*
X135130759Y-88167376D01*
X135070805Y-88303403D01*
X134934906Y-88468016D01*
X134754362Y-88620544D01*
X134719830Y-88643169D01*
X134531946Y-88731574D01*
X134354551Y-88746855D01*
X134173338Y-88681029D01*
X133974003Y-88526113D01*
X133742239Y-88274125D01*
X133495973Y-87960236D01*
X133323238Y-87727874D01*
X133169103Y-87516835D01*
X133056923Y-87359255D01*
X133024504Y-87311533D01*
X132921258Y-87153750D01*
X132917318Y-87426611D01*
X132871872Y-87801323D01*
X132738228Y-88105735D01*
X132513946Y-88362231D01*
X132294869Y-88533420D01*
X132062892Y-88672230D01*
X131857621Y-88757032D01*
X131761820Y-88773000D01*
X131658305Y-88724792D01*
X131500373Y-88593910D01*
X131307509Y-88400963D01*
X131099198Y-88166559D01*
X130894923Y-87911309D01*
X130733946Y-87685771D01*
X130397250Y-87181209D01*
X130358196Y-87487434D01*
X130313144Y-87716127D01*
X130246679Y-87924705D01*
X130220739Y-87981705D01*
X130072480Y-88194578D01*
X129864511Y-88405333D01*
X129629386Y-88588763D01*
X129399656Y-88719665D01*
X129207875Y-88772831D01*
X129198776Y-88773000D01*
X129099300Y-88744818D01*
X128971127Y-88654503D01*
X128806250Y-88493398D01*
X128596658Y-88252848D01*
X128334345Y-87924196D01*
X128011301Y-87498786D01*
X127975613Y-87450946D01*
X127582856Y-86942333D01*
X127182028Y-86464173D01*
X126742731Y-85981820D01*
X126234566Y-85460631D01*
X126191386Y-85417573D01*
X125894694Y-85124616D01*
X125628372Y-84866181D01*
X125405287Y-84654383D01*
X125238304Y-84501335D01*
X125140292Y-84419153D01*
X125120007Y-84408827D01*
X125135582Y-84472933D01*
X125195465Y-84635917D01*
X125292709Y-84880457D01*
X125420364Y-85189235D01*
X125571483Y-85544928D01*
X125631416Y-85683719D01*
X125884424Y-86263767D01*
X126095848Y-86737022D01*
X126272936Y-87113929D01*
X126422937Y-87404932D01*
X126553098Y-87620475D01*
X126670668Y-87771002D01*
X126782896Y-87866958D01*
X126897029Y-87918785D01*
X127020316Y-87936929D01*
X127160006Y-87931834D01*
X127189689Y-87929031D01*
X127400389Y-87900639D01*
X127579209Y-87864503D01*
X127619125Y-87853012D01*
X127733201Y-87843905D01*
X127760627Y-87912685D01*
X127703505Y-88046403D01*
X127563942Y-88232108D01*
X127556088Y-88241102D01*
X127271307Y-88491939D01*
X126939794Y-88665890D01*
X126592744Y-88752791D01*
X126261351Y-88742476D01*
X126131009Y-88705460D01*
X125925323Y-88601481D01*
X125743546Y-88446689D01*
X125577096Y-88226870D01*
X125417390Y-87927807D01*
X125255847Y-87535284D01*
X125083882Y-87035086D01*
X125040833Y-86899750D01*
X124790958Y-86179697D01*
X124526598Y-85560756D01*
X124252092Y-85052241D01*
X124034647Y-84739411D01*
X123840044Y-84491984D01*
X123722279Y-84316364D01*
X123681982Y-84182764D01*
X123719782Y-84061399D01*
X123836309Y-83922481D01*
X124032193Y-83736224D01*
X124056328Y-83713700D01*
X124291395Y-83504681D01*
X124462360Y-83380046D01*
X124587642Y-83327644D01*
X124644969Y-83325351D01*
X124688505Y-83338218D01*
X124746947Y-83372062D01*
X124826813Y-83433526D01*
X124934620Y-83529255D01*
X125076885Y-83665894D01*
X125260125Y-83850087D01*
X125490858Y-84088478D01*
X125775601Y-84387712D01*
X126120870Y-84754433D01*
X126533184Y-85195285D01*
X127019059Y-85716914D01*
X127529461Y-86266139D01*
X127963214Y-86726695D01*
X128360162Y-87135257D01*
X128712422Y-87484375D01*
X129012109Y-87766603D01*
X129251340Y-87974491D01*
X129422232Y-88100592D01*
X129510694Y-88138000D01*
X129585674Y-88085552D01*
X129595045Y-87933110D01*
X129541064Y-87688026D01*
X129425990Y-87357651D01*
X129252080Y-86949335D01*
X129021591Y-86470432D01*
X128963509Y-86356319D01*
X128823915Y-86089920D01*
X128685266Y-85838888D01*
X128537268Y-85587383D01*
X128369626Y-85319566D01*
X128172046Y-85019598D01*
X127934234Y-84671640D01*
X127645895Y-84259853D01*
X127296736Y-83768398D01*
X127129354Y-83534250D01*
X126871175Y-83169951D01*
X126633755Y-82828138D01*
X126428658Y-82526002D01*
X126267444Y-82280732D01*
X126161675Y-82109516D01*
X126127683Y-82045021D01*
X126064986Y-81738832D01*
X126126863Y-81415719D01*
X126268427Y-81143610D01*
X126392690Y-80989919D01*
X126561095Y-80823419D01*
X126741546Y-80671204D01*
X126901949Y-80560368D01*
X127009528Y-80517999D01*
X127043888Y-80574209D01*
X127062442Y-80713979D01*
X127063500Y-80762059D01*
X127085052Y-81003916D01*
X127153177Y-81277261D01*
X127273084Y-81592522D01*
X127449981Y-81960128D01*
X127689076Y-82390506D01*
X127995575Y-82894084D01*
X128374687Y-83481292D01*
X128562735Y-83764203D01*
X128850204Y-84198361D01*
X129123276Y-84619708D01*
X129373366Y-85014222D01*
X129591889Y-85367884D01*
X129770260Y-85666673D01*
X129899892Y-85896570D01*
X129972201Y-86043556D01*
X129984500Y-86085943D01*
X130026131Y-86153503D01*
X130139910Y-86293766D01*
X130309168Y-86488662D01*
X130517235Y-86720116D01*
X130747441Y-86970056D01*
X130983117Y-87220411D01*
X131207593Y-87453107D01*
X131404199Y-87650072D01*
X131556266Y-87793233D01*
X131572000Y-87807042D01*
X131828423Y-88016972D01*
X132009947Y-88135128D01*
X132124803Y-88165744D01*
X132178982Y-88119423D01*
X132179676Y-87976568D01*
X132115560Y-87745887D01*
X131995149Y-87443249D01*
X131826961Y-87084520D01*
X131619513Y-86685567D01*
X131381321Y-86262258D01*
X131120903Y-85830459D01*
X130846774Y-85406039D01*
X130567451Y-85004864D01*
X130357683Y-84726238D01*
X130210602Y-84525071D01*
X130101354Y-84350269D01*
X130049687Y-84234086D01*
X130048000Y-84220419D01*
X130092817Y-84114887D01*
X130207227Y-83962753D01*
X130240404Y-83926559D01*
X129642280Y-83926559D01*
X129615318Y-84015024D01*
X129532931Y-84129185D01*
X129428196Y-84252656D01*
X129357947Y-84319254D01*
X129349500Y-84322892D01*
X129305350Y-84273453D01*
X129204608Y-84135894D01*
X129060090Y-83928450D01*
X128884611Y-83669355D01*
X128784771Y-83519348D01*
X128251792Y-82713884D01*
X128880021Y-83246478D01*
X129124109Y-83453737D01*
X129338447Y-83636344D01*
X129501475Y-83775889D01*
X129591636Y-83853964D01*
X129596431Y-83858234D01*
X129642280Y-83926559D01*
X130240404Y-83926559D01*
X130361176Y-83794808D01*
X130524606Y-83641844D01*
X130667460Y-83534650D01*
X130748796Y-83502500D01*
X130832280Y-83554153D01*
X130969540Y-83698061D01*
X131148897Y-83917641D01*
X131358675Y-84196313D01*
X131587194Y-84517496D01*
X131822779Y-84864610D01*
X132053751Y-85221073D01*
X132268432Y-85570305D01*
X132455145Y-85895725D01*
X132521438Y-86019439D01*
X132661177Y-86243149D01*
X132877208Y-86522032D01*
X133176556Y-86864530D01*
X133566250Y-87279086D01*
X133593143Y-87306937D01*
X133949876Y-87670540D01*
X134226921Y-87939274D01*
X134427854Y-88114166D01*
X134556251Y-88196244D01*
X134615690Y-88186535D01*
X134609746Y-88086065D01*
X134541997Y-87895862D01*
X134416019Y-87616952D01*
X134374828Y-87531391D01*
X134241176Y-87277731D01*
X134058740Y-86960585D01*
X133851563Y-86620513D01*
X133644578Y-86299411D01*
X133467823Y-86030204D01*
X133319890Y-85796932D01*
X133213736Y-85620643D01*
X133162322Y-85522384D01*
X133159500Y-85511635D01*
X133205803Y-85431144D01*
X133324506Y-85302523D01*
X133485305Y-85152342D01*
X133657894Y-85007174D01*
X133811968Y-84893589D01*
X133917222Y-84838159D01*
X133929635Y-84836390D01*
X133999070Y-84883968D01*
X134134030Y-85017600D01*
X134321845Y-85223267D01*
X134549847Y-85486950D01*
X134805365Y-85794631D01*
X134890497Y-85899625D01*
X135270191Y-86364071D01*
X135630872Y-86792752D01*
X135963592Y-87175886D01*
X136259405Y-87503692D01*
X136509362Y-87766388D01*
X136704516Y-87954194D01*
X136835920Y-88057327D01*
X136879978Y-88074500D01*
X136947615Y-88019340D01*
X136967575Y-87867828D01*
X136940855Y-87640915D01*
X136868450Y-87359550D01*
X136842205Y-87279890D01*
X136600544Y-86728935D01*
X136262778Y-86175621D01*
X135851044Y-85645429D01*
X135387479Y-85163839D01*
X134894221Y-84756332D01*
X134393407Y-84448389D01*
X134373688Y-84438580D01*
X133968625Y-84239004D01*
X133821109Y-84410502D01*
X133697526Y-84541571D01*
X133631059Y-84570436D01*
X133606280Y-84499137D01*
X133604596Y-84439125D01*
X133646128Y-84266091D01*
X133753703Y-84041860D01*
X133903474Y-83804946D01*
X134071594Y-83593868D01*
X134206398Y-83467094D01*
X134355875Y-83363540D01*
X134464118Y-83332239D01*
X134585343Y-83361672D01*
X134625919Y-83377951D01*
X135121391Y-83638875D01*
X135620656Y-84005273D01*
X136104095Y-84457798D01*
X136552088Y-84977102D01*
X136945018Y-85543835D01*
X137107202Y-85824988D01*
X137296527Y-86123527D01*
X137565588Y-86475384D01*
X137893164Y-86856828D01*
X138258034Y-87244130D01*
X138638977Y-87613556D01*
X138957172Y-87893790D01*
X139211036Y-88089736D01*
X139386135Y-88186735D01*
X139483320Y-88184009D01*
X139503440Y-88080778D01*
X139447346Y-87876264D01*
X139315888Y-87569687D01*
X139314383Y-87566500D01*
X139071353Y-87131280D01*
X138731109Y-86643280D01*
X138304228Y-86116881D01*
X137992555Y-85768757D01*
X137772612Y-85525788D01*
X137633214Y-85351971D01*
X137564447Y-85227320D01*
X137556396Y-85131848D01*
X137599146Y-85045568D01*
X137620375Y-85018511D01*
X137729250Y-84908131D01*
X137890217Y-84767981D01*
X138072138Y-84622331D01*
X138243875Y-84495448D01*
X138374290Y-84411600D01*
X138424886Y-84391500D01*
X138511229Y-84421115D01*
X138675334Y-84499670D01*
X138885490Y-84611724D01*
X138939948Y-84642278D01*
X139144630Y-84754062D01*
X139299131Y-84830439D01*
X139377631Y-84858926D01*
X139382500Y-84856237D01*
X139348218Y-84789264D01*
X139258964Y-84651703D01*
X139151837Y-84498350D01*
X138920947Y-84138881D01*
X138766965Y-83816520D01*
X138691246Y-83542508D01*
X138695149Y-83328087D01*
X138780030Y-83184500D01*
X138947247Y-83122988D01*
X138985604Y-83121499D01*
X139221422Y-83174305D01*
X139481694Y-83336443D01*
X139740985Y-83576781D01*
X140041189Y-83956160D01*
X140221516Y-84351360D01*
X140288960Y-84783879D01*
X140264411Y-85185250D01*
X140296605Y-85284842D01*
X140404561Y-85475682D01*
X140583714Y-85750650D01*
X140829498Y-86102625D01*
X141030232Y-86379424D01*
X141326199Y-86791115D01*
X141542132Y-87109356D01*
X141681494Y-87336389D01*
X141747750Y-87474457D01*
X142104979Y-87474457D01*
X142112096Y-87451361D01*
X142113000Y-87435183D01*
X142076559Y-87344439D01*
X141975013Y-87170464D01*
X141820029Y-86931193D01*
X141623273Y-86644564D01*
X141396413Y-86328512D01*
X141368188Y-86290095D01*
X140623375Y-85278847D01*
X140614099Y-84308153D01*
X140859561Y-84587951D01*
X141545883Y-85411295D01*
X142141970Y-86212232D01*
X142643962Y-86983998D01*
X143047996Y-87719826D01*
X143350210Y-88412951D01*
X143546744Y-89056605D01*
X143611459Y-89409620D01*
X143671800Y-89657039D01*
X143781185Y-89798770D01*
X143953830Y-89851258D01*
X143994357Y-89852500D01*
X144091159Y-89809140D01*
X144241608Y-89694944D01*
X144414684Y-89533733D01*
X144430402Y-89517638D01*
X144774900Y-89086361D01*
X144996215Y-88628921D01*
X145095224Y-88141205D01*
X145072800Y-87619102D01*
X144944610Y-87101689D01*
X144729019Y-86552681D01*
X144430565Y-85935546D01*
X144059327Y-85268709D01*
X143625384Y-84570592D01*
X143280643Y-84060164D01*
X143132570Y-83846011D01*
X143016769Y-83674624D01*
X142949252Y-83569909D01*
X142938500Y-83549363D01*
X142998032Y-83541548D01*
X143160753Y-83534997D01*
X143402856Y-83530335D01*
X143700532Y-83528186D01*
X143748125Y-83528119D01*
X144132895Y-83521140D01*
X144445197Y-83501842D01*
X144664095Y-83471878D01*
X144741182Y-83449769D01*
X144872932Y-83400787D01*
X144940246Y-83388963D01*
X144941033Y-83389598D01*
X144955694Y-83453535D01*
X144990323Y-83627135D01*
X145042087Y-83895126D01*
X145108153Y-84242234D01*
X145185691Y-84653186D01*
X145271868Y-85112708D01*
X145363851Y-85605528D01*
X145458810Y-86116372D01*
X145553910Y-86629967D01*
X145646321Y-87131040D01*
X145733210Y-87604318D01*
X145811745Y-88034527D01*
X145879095Y-88406395D01*
X145932426Y-88704647D01*
X145968907Y-88914012D01*
X145985706Y-89019214D01*
X145986500Y-89027666D01*
X146047720Y-89053530D01*
X146222466Y-89073256D01*
X146497373Y-89085895D01*
X146859073Y-89090496D01*
X146870938Y-89090500D01*
X147755376Y-89090500D01*
X147880807Y-88757125D01*
X147973096Y-88511498D01*
X148082277Y-88220435D01*
X148160732Y-88011000D01*
X148315226Y-87598250D01*
X148168135Y-86815343D01*
X148021045Y-86032437D01*
X147704214Y-85747580D01*
X147371741Y-85366933D01*
X147123040Y-84912206D01*
X146962772Y-84408673D01*
X146895601Y-83881606D01*
X146926187Y-83356275D01*
X147059194Y-82857955D01*
X147138238Y-82679574D01*
X147239308Y-82466577D01*
X147288474Y-82312319D01*
X147294425Y-82163927D01*
X147265854Y-81968527D01*
X147260188Y-81937626D01*
X147224086Y-81739166D01*
X147199698Y-81599032D01*
X147193000Y-81554087D01*
X147136635Y-81541440D01*
X146996040Y-81534472D01*
X146941992Y-81534000D01*
X146690984Y-81534000D01*
X146728454Y-81217627D01*
X146729713Y-81158384D01*
X146431256Y-81158384D01*
X146393364Y-81338785D01*
X146295285Y-81589332D01*
X146236841Y-81711763D01*
X145950879Y-82157151D01*
X145589591Y-82500609D01*
X145153999Y-82741691D01*
X144645127Y-82879955D01*
X144063999Y-82914956D01*
X143564568Y-82870772D01*
X143267169Y-82822186D01*
X142916622Y-82756547D01*
X142552468Y-82682105D01*
X142214246Y-82607109D01*
X141941494Y-82539809D01*
X141839454Y-82510836D01*
X141829191Y-82543525D01*
X141891823Y-82664403D01*
X142020708Y-82862643D01*
X142209207Y-83127422D01*
X142259431Y-83195430D01*
X142662524Y-83751910D01*
X143057534Y-84323317D01*
X143429202Y-84886102D01*
X143762269Y-85416721D01*
X144041477Y-85891626D01*
X144212955Y-86209999D01*
X144478773Y-86773445D01*
X144659755Y-87260604D01*
X144758240Y-87687543D01*
X144776568Y-88070331D01*
X144717076Y-88425036D01*
X144584544Y-88762857D01*
X144480243Y-88958047D01*
X144392429Y-89098233D01*
X144339626Y-89153941D01*
X144338725Y-89154000D01*
X144302734Y-89097030D01*
X144265105Y-88951032D01*
X144245376Y-88829957D01*
X144124251Y-88282316D01*
X143901543Y-87676315D01*
X143583157Y-87021235D01*
X143174998Y-86326358D01*
X142682969Y-85600965D01*
X142112976Y-84854338D01*
X141470923Y-84095760D01*
X140762714Y-83334511D01*
X140724824Y-83295677D01*
X140429196Y-82992025D01*
X140212498Y-82764303D01*
X140064029Y-82598470D01*
X139973089Y-82480481D01*
X139928977Y-82396295D01*
X139920993Y-82331867D01*
X139938436Y-82273155D01*
X139941119Y-82267163D01*
X139979446Y-82148756D01*
X139939018Y-82093583D01*
X139903483Y-82080976D01*
X139544997Y-82004051D01*
X139092578Y-81947368D01*
X138577737Y-81911362D01*
X138031988Y-81896470D01*
X137486842Y-81903128D01*
X136973813Y-81931774D01*
X136524413Y-81982844D01*
X136271000Y-82030659D01*
X136026450Y-82084455D01*
X135833450Y-82120872D01*
X135721670Y-82134574D01*
X135706083Y-82132276D01*
X135717423Y-82063718D01*
X135794224Y-81933669D01*
X135913790Y-81772056D01*
X136053420Y-81608803D01*
X136190416Y-81473835D01*
X136230112Y-81441415D01*
X136414072Y-81325609D01*
X136655130Y-81204788D01*
X136819986Y-81136294D01*
X137134052Y-81056828D01*
X137559248Y-81008271D01*
X138083574Y-80990406D01*
X138695033Y-81003017D01*
X139381627Y-81045888D01*
X140131359Y-81118801D01*
X140843000Y-81208925D01*
X141705743Y-81324619D01*
X142458235Y-81413542D01*
X143114454Y-81475312D01*
X143688377Y-81509550D01*
X144193981Y-81515874D01*
X144645242Y-81493905D01*
X145056139Y-81443263D01*
X145440648Y-81363566D01*
X145812747Y-81254434D01*
X146186412Y-81115487D01*
X146319875Y-81059859D01*
X146407310Y-81061090D01*
X146431256Y-81158384D01*
X146729713Y-81158384D01*
X146734058Y-80954074D01*
X146672196Y-80788066D01*
X146536198Y-80716418D01*
X146319398Y-80735948D01*
X146015127Y-80843470D01*
X145978426Y-80859473D01*
X145665911Y-80982675D01*
X145350708Y-81071584D01*
X145004666Y-81130454D01*
X144599630Y-81163534D01*
X144107449Y-81175077D01*
X143891000Y-81174695D01*
X143181390Y-81151629D01*
X142418737Y-81090234D01*
X141636750Y-80997041D01*
X140823686Y-80890039D01*
X140122967Y-80803571D01*
X139521726Y-80736923D01*
X139007098Y-80689381D01*
X138566218Y-80660230D01*
X138186221Y-80648755D01*
X137854241Y-80654242D01*
X137557413Y-80675977D01*
X137282871Y-80713243D01*
X137109698Y-80745576D01*
X136820639Y-80819313D01*
X136532559Y-80916109D01*
X136307636Y-81015062D01*
X136306917Y-81015451D01*
X135992080Y-81213978D01*
X135706520Y-81446897D01*
X135459412Y-81699317D01*
X135259936Y-81956345D01*
X135117269Y-82203088D01*
X135040589Y-82424655D01*
X135039074Y-82606154D01*
X135121902Y-82732693D01*
X135221061Y-82777374D01*
X135363130Y-82782735D01*
X135576515Y-82757541D01*
X135775719Y-82716387D01*
X136647673Y-82561102D01*
X137575569Y-82516815D01*
X138262879Y-82551937D01*
X138576424Y-82581597D01*
X138843649Y-82610272D01*
X139039401Y-82635015D01*
X139138528Y-82652878D01*
X139144375Y-82655258D01*
X139196001Y-82724266D01*
X139140808Y-82780620D01*
X138998745Y-82803999D01*
X138998347Y-82804000D01*
X138732120Y-82853821D01*
X138464535Y-83009552D01*
X138239500Y-83214962D01*
X138117456Y-83352266D01*
X138050767Y-83472911D01*
X138022883Y-83624675D01*
X138017251Y-83855339D01*
X138017250Y-83856517D01*
X138017250Y-84266773D01*
X137541000Y-84646190D01*
X137293144Y-84840206D01*
X137126928Y-84959968D01*
X137027513Y-85013810D01*
X136980062Y-85010067D01*
X136969500Y-84967219D01*
X136923456Y-84875103D01*
X136797598Y-84720110D01*
X136610344Y-84519861D01*
X136380111Y-84291979D01*
X136125313Y-84054085D01*
X135864369Y-83823802D01*
X135615693Y-83618750D01*
X135397702Y-83456553D01*
X135373812Y-83440359D01*
X135021935Y-83216723D01*
X134740846Y-83076185D01*
X134504457Y-83019720D01*
X134286679Y-83048308D01*
X134061423Y-83162926D01*
X133802598Y-83364550D01*
X133644958Y-83505133D01*
X133353491Y-83818222D01*
X133126160Y-84156790D01*
X132976419Y-84494568D01*
X132917726Y-84805287D01*
X132922643Y-84915238D01*
X132934449Y-85097352D01*
X132896840Y-85212889D01*
X132789972Y-85318781D01*
X132778864Y-85327720D01*
X132600641Y-85470190D01*
X132311424Y-85006159D01*
X132089695Y-84663736D01*
X131853162Y-84321289D01*
X131615376Y-83996187D01*
X131389893Y-83705794D01*
X131190264Y-83467479D01*
X131127035Y-83400835D01*
X130425610Y-83400835D01*
X130391637Y-83433539D01*
X130368760Y-83428416D01*
X130298833Y-83381802D01*
X130152644Y-83270380D01*
X129951432Y-83110730D01*
X129716432Y-82919427D01*
X129711269Y-82915175D01*
X129328222Y-82588529D01*
X129002359Y-82288414D01*
X128743964Y-82025587D01*
X128563321Y-81810806D01*
X128470713Y-81654827D01*
X128460500Y-81606794D01*
X128512515Y-81492402D01*
X128643912Y-81355298D01*
X128817719Y-81223670D01*
X128996966Y-81125707D01*
X129138964Y-81089500D01*
X129213956Y-81103650D01*
X129291375Y-81154801D01*
X129379819Y-81255997D01*
X129487888Y-81420286D01*
X129624180Y-81660713D01*
X129797296Y-81990325D01*
X130010981Y-82412483D01*
X130202895Y-82804328D01*
X130334079Y-83094293D01*
X130407370Y-83290441D01*
X130425610Y-83400835D01*
X131127035Y-83400835D01*
X131030043Y-83298606D01*
X130922784Y-83216544D01*
X130911771Y-83212712D01*
X130842174Y-83172211D01*
X130757186Y-83074086D01*
X130648206Y-82904634D01*
X130506633Y-82650152D01*
X130323865Y-82296939D01*
X130270350Y-82190848D01*
X130032527Y-81730214D01*
X129832948Y-81375475D01*
X129662245Y-81114789D01*
X129511050Y-80936312D01*
X129369997Y-80828203D01*
X129229717Y-80778618D01*
X129148060Y-80772000D01*
X128941565Y-80817981D01*
X128686043Y-80941386D01*
X128411725Y-81120408D01*
X128148844Y-81333239D01*
X127927630Y-81558071D01*
X127789530Y-81751969D01*
X127750145Y-81799403D01*
X127708247Y-81778527D01*
X127652222Y-81672901D01*
X127570453Y-81466089D01*
X127551405Y-81414961D01*
X127461603Y-81129486D01*
X127400612Y-80850520D01*
X127381000Y-80654067D01*
X127349590Y-80392614D01*
X127254612Y-80237312D01*
X127094952Y-80188217D01*
X126869491Y-80245387D01*
%LPC*%
D11*
X191264000Y-75026000D03*
X191264000Y-103026000D03*
X96264000Y-103026000D03*
X96264000Y-75026000D03*
D12*
X156464000Y-95250000D03*
X151384000Y-95250000D03*
X136144000Y-95250000D03*
X153924000Y-95250000D03*
X131064000Y-95250000D03*
X128524000Y-95250000D03*
X148844000Y-95250000D03*
X123444000Y-95250000D03*
X125984000Y-95250000D03*
X138684000Y-95250000D03*
X141224000Y-95250000D03*
X143764000Y-95250000D03*
X146304000Y-95250000D03*
X133604000Y-95250000D03*
D13*
X156464000Y-74930000D03*
D12*
X133604000Y-74930000D03*
X146304000Y-74930000D03*
X128524000Y-74930000D03*
X131064000Y-74930000D03*
X153924000Y-74930000D03*
X136144000Y-74930000D03*
X143764000Y-74930000D03*
X125984000Y-74930000D03*
X123444000Y-74930000D03*
X148844000Y-74930000D03*
X151384000Y-74930000D03*
X141224000Y-74930000D03*
X138684000Y-74930000D03*
D14*
X149225000Y-106172000D03*
D15*
X151225000Y-106172000D03*
X153225000Y-106172000D03*
X155225000Y-106172000D03*
D12*
X132969000Y-68326000D03*
D13*
X135509000Y-68326000D03*
D16*
X181667000Y-91345000D03*
X196667000Y-97545000D03*
D17*
X185167000Y-93345000D03*
X189167000Y-93345000D03*
X193167000Y-93345000D03*
D12*
X165989000Y-68326000D03*
D13*
X168529000Y-68326000D03*
D12*
X96264000Y-90566000D03*
D13*
X96264000Y-88026000D03*
X115697000Y-111379000D03*
D12*
X118237000Y-111379000D03*
X120777000Y-111379000D03*
X123317000Y-111379000D03*
M02*
