M48
; DRILL file {KiCad (5.1.10)-1} date 12/13/21 23:40:38
; FORMAT={-:-/ absolute / metric / decimal}
; #@! TF.CreationDate,2021-12-13T23:40:38+01:00
; #@! TF.GenerationSoftware,Kicad,Pcbnew,(5.1.10)-1
FMAT,2
METRIC
T1C0.400
T2C0.800
T3C0.900
T4C1.000
T5C3.500
T6C1.400
%
G90
G05
T1
X107.608Y-81.153
X114.554Y-71.12
X120.269Y-74.803
X127.635Y-99.949
X161.544Y-90.551
X170.688Y-81.661
X170.688Y-84.201
X170.688Y-86.741
T2
X149.225Y-106.172
X151.225Y-106.172
X153.225Y-106.172
X155.225Y-106.172
T3
X185.167Y-93.345
X189.167Y-93.345
X193.167Y-93.345
T4
X96.264Y-88.026
X96.264Y-90.566
X115.697Y-111.379
X118.237Y-111.379
X120.777Y-111.379
X123.317Y-111.379
X123.444Y-74.93
X123.444Y-95.25
X125.984Y-74.93
X125.984Y-95.25
X128.524Y-74.93
X128.524Y-95.25
X131.064Y-74.93
X131.064Y-95.25
X132.969Y-68.326
X133.604Y-74.93
X133.604Y-95.25
X135.509Y-68.326
X136.144Y-74.93
X136.144Y-95.25
X138.684Y-74.93
X138.684Y-95.25
X141.224Y-74.93
X141.224Y-95.25
X143.764Y-74.93
X143.764Y-95.25
X146.304Y-74.93
X146.304Y-95.25
X148.844Y-74.93
X148.844Y-95.25
X151.384Y-74.93
X151.384Y-95.25
X153.924Y-74.93
X153.924Y-95.25
X156.464Y-74.93
X156.464Y-95.25
X165.989Y-68.326
X168.529Y-68.326
T5
X96.264Y-75.026
X96.264Y-103.026
X191.264Y-75.026
X191.264Y-103.026
T6
X181.667Y-91.345
X196.667Y-97.545
T0
M30
